<svg xmlns="http://www.w3.org/2000/svg" xmlns:xlink="http://www.w3.org/1999/xlink" fill="none" width="481" height="530" viewBox="0 0 481 530">
  <defs/>
  <path fill="url(#pattern0)" d="M23.1 32h231v433h-231z"/>
  <path fill="#00EBAB" d="M431.4 90.8a4.4 4.4 0 01-1.4-2.5c-.1-.9-.3-2-1.2-2-.4-.1-.8.3-1 .8l-.1 1.4c-.1 1-.6 2-1.5 2.8-.2.2-.5.4-.8.3l-4.5-2.1-3.3-1.5c-.5 0-.8.7-.8 1.3 0 .6.2 1.1 0 1.7-.1.5-.8 1-1.3.7-.3-.2-.4-.6-.4-1l-1-4.3a9.1 9.1 0 010-4.7c0-.5.9-.4 1.1 0 .3.6 0 1.1 0 1.6-.2.5-.3 1 0 1.5.4.4 1.2.2 1.2-.3-.2-1.3.2-2.8 1.1-3.8 1-1 2.6-1.4 3.8-.7 1.1.6 1.7 2 1.5 3.2-.1 1.2-1 2.3-2 3-.4.3 0 1 .6 1.4l2.8 1.8c1-.6.8-2.5-.3-3 1.2-.7 2-2 2.2-3.4 0-.6 0-1.2.3-1.7.4-.7 1.3-1 1.4-1.7 0-.8 1-1.1 1.7-.8.6.4.9 1.2 1 2 .1.7.1 1.5.4 2.2.3.7 1.1 1.2 1.8 1 .4-.2.6.4.4.7-.2.4-.6.5-1 .6-.3.2-.6.6-.5 1 .5 1.2.8 2.6 1 4 .1.2.2.4 0 .6-.2.4-.9.2-1.2-.1zm-11.7-9.6c-.4 0-.7.3-1 .6-.5.6-1 1.1-1.2 1.8-.2.7 0 1.6.6 2a3.4 3.4 0 002.6-2.6c.2-.8-.2-1.8-1-1.8zm9.2 2l-.3-.8c-.3.5-.6 1-.4 1.5.1.6 1 .9 1.2.4-.4-.2-.7-.6-.6-1l.1-.1zM280.3 487c.8.9 2.2 1 3.3.9l6.7-.2c-2.5 3.8-9 2.3-11.5-1.6-2.5-4-2.1-8.9-1.8-13.5 2.5-38-3.9-76.4-.3-114.4 2.3-25.3 3.1-50.7 2.3-76.1-.1-2.7 1.5-5.2 3.9-6.3 2.4-1 5.4-.4 7.2 1.4-2-.3-4-.7-6-.2-2 .6-3.8 2.3-3.7 4.3C282 319.2 277 357 277 395c0 8.2.2 16.5.5 24.7l.6 20.7 1.4 43.9c0 1 0 2.1.7 2.9zM415.8 383.2c1.6.3 3.2.6 4.9.4.5 0 1.1-.2 1.6-.5.9-.6 1.2-1.7 1.8-2.5.6-.8 1.9-1.5 2.6-.8 1 1 2.8-.9 4-.2l1 .8c.3.3 1 .2 1-.2a2 2 0 011.5-1.6 2 2 0 012 1c.3.4.3 1 .3 1.7 0 1 0 2-.3 3-.4 1-1.1 1.8-2.1 2 1.6 1 3.1 2 4.6 3.2-.9.8-2.2.2-3.2-.5l-2.4-1.6c-.2-.1-.4-.3-.7-.3-1.3 0-1 3-2.3 2.9-.7-.1-.8-1-.8-1.6 0-2.1.4-4.2 1-6.1.4-.9-1-1.6-1.7-1.1-.8.4-1 1.4-1.2 2.3-.3 1.4-.4 3-1 4.3-.4 1.4-1.5 2.6-3 3h-1c-.8-.3-1.3-1-1.5-1.6a4 4 0 01.8-4c-1-.4-2.3-.4-3.3 0-1 .6-2.5-.5-3.4.2-.7.6-.4 1.7-.1 2.5.2.7.5 1.4.2 2.1-.2.7-1.2 1.2-1.8.7-.3-.3-.3-.9-.3-1.3V383c0-.8 0-1.6.4-2.2.4-.7 1.4-1 2-.5.2.3.7.1 1 0 1.8-.8 4-.6 5.6.6l-5.8.8c-.6 0-1.5.6-1 1 .1.3.3.3.6.4zm9.2 4l1-3.4c.2-.6.2-1.6-.5-1.6l-.6.3c-1.5 1.4-1.7 3.5-2 5.5 0 .6.8.9 1.3.6.5-.3.7-.9.8-1.4zm10.1-4.7c.2-.5.3-1 .2-1.4 0-.4-.3-.8-.8-1-1.1.7-1.8 2-2.3 3.3-.3.7.9 1.4 1.6 1 .7-.3 1-1.2 1.3-2zM308.6 380.6c1 0 1.4-1.4 1.4-2.4s0-2.4 1-2.6c.6 2.3.9 4.6.8 7 .5.3.3 1 .3 1.5 0 .6.7 1.2 1 .8 1.5-2 5-2.2 5.6-4.6.2-1-.1-1.9 0-2.8.2-.9 1.3-1.7 2-1-.5 2.3-.6 4.8-.1 7.2 0 .8.4 1.7 1.1 1.8a770.7 770.7 0 005.2-2 6.9 6.9 0 01-6.3 4 3.9 3.9 0 01-1.9-4.2c-2.6.5-4.1 4.6-6.8 4-1-.3-1.8-1.4-2-2.5-.2-1.1 0-2.2.2-3.3-.4-.5-1.2-.3-1.6.3-.3.5-.3 1.1-.2 1.8.1.5.3 1 .2 1.7 0 .5-.5 1.1-1 1.2-.6 0-1.2-.6-.9-1.1.7-1 .4-2.4-.6-3-1-.6-2.4-.3-3 .7-.4.7-.4 1.5-.6 2.3-.1.8-.6 1.7-1.4 1.8l-.7-1.8a4.5 4.5 0 01-4 3.4 4.5 4.5 0 01-4.4-3 8 8 0 01-.3-3.6c.2-1.4.5-3 1.3-4.2 1-1.2 2.6-1.9 4-1.2.5.2.9.7.8 1.2 0 .5-.8.9-1.2.4-.4-.6-1.6-.5-2.1.1-.6.6-.8 1.5-1 2.3a8.9 8.9 0 000 4c.3 1.3 1.4 2.4 2.7 2.4 1.7 0 2.8-1.8 3.4-3.4l2.5-5.6a15 15 0 012.6-4.4c.1-.2.3-.3.5-.3.3 0 .5.2.7.4a7.8 7.8 0 011.3 3.8c0 1.2.3 2.9 1.5 2.9zm-4 .5c.8.4 1.8-.8 1.3-1.5-.5-.6-.3-1.4-.3-2 0-.8-.1-1.7-.8-1.8l-.7 3c-.2.8-.3 1.9.5 2.3zM413.3 233.3c.8-2.2 4-3.3 6-2.1.4.2.8.6.8 1 0 .5-.6.9-.9.6-.9-.8-2.3-.7-3.3 0a4 4 0 00-1.4 3.2c0 1 .3 2.2 1 3a4 4 0 004.4 1.2 4 4 0 002.6-3.8c0-1.3.2-2.7.5-4 .1-.5.3-.9.7-1 .3-.3.9 0 .8.4-.1.7-.2 1.4 0 2.1.2.7.9 1.3 1.6 1.2.9-.2 1.2-1.4 1.1-2.3 0-1-.3-2 .3-2.8l.6-.4c.5 0 .9.7 1 1.2 0 .8 0 1.5.2 2.2.2.7 1 1.3 1.7 1.2-1.2.8-1.3 2.4-1.1 3.9 0 1.4.2 3-.7 4-.8 0-1.4-.8-1.5-1.6-.2-.7 0-1.5.1-2.3.3-1.1-1.4-2-2.4-1.4-1 .6-1.3 2-.8 3.1.2.4.4.7.4 1 .1.8-.7 1.5-1.4 1.4-.7-.2-1.2-1.2-.8-1.8.2-.3-.3-.7-.6-.5-.4.2-.5.6-.5 1 0 .3 0 .7-.2 1-.2.4-.6.5-1 .6-1.8.5-3.8.2-5.5-.7-2.6-1.5-6.4-.6-8.4-2.9-.4-.3-1 0-1.2.4-.2.5-.2 1-.2 1.5 0 .6-.3 1.1-.8 1.2-.8 0-1-1-1.1-1.6l-.5-6.2c0-.8 0-1.7.7-2 .4.4.1 1 .2 1.6 0 .5 1 .9 1 .3.2-1.6 1.8-3 3.5-3s3.2 1.6 3.2 3.2c0 1.7-1.3 3.3-3 3.5a10 10 0 005.2 2c-1-1.3-1-3.1-.7-4.8 0-.6.2-1.2.4-1.8zm-7.2 3.2c.8.5 1.8 0 2.6-.4 1-.5 2-1.6 1.4-2.5-.1-.3-.4-.5-.7-.6a3 3 0 00-3.6 1c-.5.9-.4 2 .3 2.5zM361 379.5c.1-.6-.9-.7-1.5-.6l-3.1 1c-.7.2-1.6.8-1.2 1.4.3.4.9.4 1.4.2l2.8-.8c.4.5-.1 1.2-.7 1.5-1.1.5-2.4.6-3.3 1.4-1 .7-1.2 2.4-.1 3 1 .4 2-.6 2.7-1.5.3-.4 1 0 1 .5.1.6-.3 1-.7 1.4-.8.8-1.7 1.6-2.8 1.8-1.1.3-2.5-.5-2.5-1.6 0-3.4-.1-7.2 1.9-10 .3 1 1.7 1.2 2.8.8 1.7-.5 3.7-1.3 5-.1.3-.5.6-1 1-1.3.4-.3 1.1-.4 1.5 0 .3.2.4.6.5 1 .5 1.8.6 3.7.4 5.6-.1.5-.2 1 0 1.4.3.4 1.1.4 1.2 0 .3-2.5.6-5 1.8-7.1.4-.7 1.2-1.5 1.9-1l.4.5c1.1 2.2.7 4.8.3 7.2l-.7 3.4c-.9.1-1.2-1.2-1-2l.5-7.2c-.7 0-1 .9-1.1 1.6l-1 6c-.2 1.1-2 1.4-2.8.7-.9-.8-1-2-1-3.2-.1-1.8.1-3.7-.6-5.3l-1.8 7.4c-.2.8-.5 1.8-1.3 2-.6 0-.7-.9-.7-1.5l.8-6.6zM297.3 392.5c1.1-.1 2 1.1 1.8 2.2-.1 1-.9 2-1.7 2.7 1.4-.2 2.8.9 3 2.2.4 0 .7-.5.7-1l-.3-1.2c-.4-1.4.2-2.9.7-4.2l1.6 1.4 4-.7c.8-.2 1.8 0 1.7.7l-3.7 1c-.7.1-1.4.4-2 .9-.4.5-.6 1.5 0 2l4.2-1.9h.6c.4 0 .5.6.3.9-.2.3-.6.5-1 .6l-3.1 1.3c-.7.3-1.4.6-1.8 1.3-.3.6 0 1.6.8 1.6.4 0 .7-.4 1-.7l2.3-2.5c.6 1.2-.3 2.6-1.1 3.7-.7.9-1.5 1.8-2.6 2.1-1 .3-2.4-.2-2.5-1.3v-1.2c-.1-.4-.7-.7-1-.4a9.2 9.2 0 01-5.9 2.9c-.7 0-1.4-.4-1.7-1-.3-.7-.3-1.4-.3-2.1 0-2.6.2-5.3.5-7.9.1-.6.3-1.4.9-1.7 1.5.5 3.1.6 4.6.3zm-2.6 10.7a628.5 628.5 0 004.2-3c.2-.4.2-1-.2-1.1a3.7 3.7 0 00-3.7.3c-1 .8-1.6 2.2-1.4 3.5 0 .2 0 .3.2.4.2.3.6 0 1-.1zm-1.1-6.4l.3.6c.5.3 1 .1 1.6-.2 1-.6 2-1.6 2.4-2.7-.7-1-2.1-1.3-3.2-.7-1 .5-1.5 1.9-1.1 3zM372.3 399.9c-.2-.1-.4-.3-.7-.2-.6 0-.7.8-.7 1.4l.2 2.9c0 .5-.9.7-1.3.3-.4-.4-.4-1-.4-1.6V395c0-.9 0-2 .8-2.3l1.2 1.1c.5-1.2 2-1.9 3.3-1.5 1.3.3 2.2 1.5 2.5 2.8.2 1.3-.3 2.7-1 3.7-.4.5 0 1.3.7 1.5.6.3 1.3.4 1.7.8.3.4.9.3 1.3 0l.7-1.1 2.9-7.1c.2-.7 1.2-.8 1.8-.4.5.4.8 1.1 1 1.8.2 1.9-.3 4 .3 5.7a8.9 8.9 0 00-.2 4.3c.2.8-1.1 1-1.5.4-.5-.6-.3-1.5-.2-2.2.1-.7 0-1.7-.6-2-.8-.3-1.7.3-2 1-.5.8-.9 1.6-1.6 2-.9.3-1.8-.1-2.6-.5l-5.6-3zm3.4-4.9c.1-1-1.1-1.6-2-1.3-1 .4-1.5 1.3-2 2.1l-.5.8c.3 1 1.2 1.6 2.2 1.6 1 0 1.9-.8 2-1.7l.3-1.5zm7.5 2.3v1l.8 1c.9-1.6 1-3.6.3-5.2-.5 1-.9 2.1-1 3.2zM412.5 312c.1-.6-.8-.7-1.4-.5-.9.3-1.9.8-2 1.7 0 .3.1.7.3 1l.8 2.3c.2.6-.6 1-1.2.8-.5-.2-.8-.9-.8-1.5-.1-.6 0-1.2-.3-1.8-.5-1.1-2.2-1.4-3-.6-1 1-.8 2.6-1.6 3.7l-.3.3c-.4.1-.8-.2-1-.6 0-.4 0-.8.2-1.2.7-2.5 1.2-5.2 1.3-7.8 0-.4 0-.8.3-1 .2-.4.8-.4 1-.1.3.4-.1 1.4.4 1.4 0-.9.4-1.7 1-2.3.3-.3.7-.5 1.2-.5.8 0 1.2.9 1.3 1.6v2.3c0 .8.6 1.6 1.4 1.5 1.1 0 1.7-1.4 2-2.6 0-.8.2-1.6.4-2.4 0-.4.6-.4.9-.2.3.3.3.7.3 1l.3 4.4c.1 1.3.2 2.6.9 3.8.6-.3.8-1.1.9-1.8l.4-3.8c0-.7.2-1.5.8-2 .6-.4 1.7 0 1.5.8l-1 3.4c-.3.9.5 1.8 1.4 2.2.9.5 2 .6 2.7 1.1.4-1.4-.8-2.6-1.3-4-.7-1.8 0-4 1.6-5 .5-.3 1.1-.5 1.6-.2s.4 1.2-.1 1.2c-1 0-1.8 1.2-1.7 2.3 0 1 .6 2 1.2 2.8.5.9 1 1.8 1 2.8.1.4 0 .7-.1 1-.6.8-1.7.6-2.5.5-1.4-.3-2.9-.8-3.6-1.9-.8.2-.7 1.3-1 2-.4.7-1.3 1-2 .7a3 3 0 01-1.7-1.5 5 5 0 01-.5-3.3zm-7-1.4c0 .7 1.2.9 1.6.4.5-.5.5-1.3.5-2v-1.4c0-.2-.1-.5-.3-.6-.4-.2-.7.3-.9.7l-.8 2.9z"/>
  <path fill="#00EBAB" d="M437 240.2c-1 .8-2.3 1.2-3.4.9a3.6 3.6 0 01-2.4-2.4c-.8-2.5 1.3-5.5-.1-7.7.5-1.3 2.3-1.8 3.4-1 2.5-1.1 5.6.3 8-.8l2.3-1.1c.8-.3 1.8-.3 2.3.3.2.2.3.5.2.8-.2.6-1.1.4-1.8.4-.9 0-1.7.7-2 1.6-.1.9.3 1.9 1.1 2.3 1.1.6 2 1.5 2.7 2.6.4.7.6 1.6.2 2.4-.4.7-1.2 1-2 1-.8.2-1.6.2-2.4.2-1.3 0-2.7-.3-4-.8-.8-.3-1.5.7-2.2 1.3zm2.4-2.6c.6.4 1.3.3 2 .1l4-.8c-2.1-1.2-3.8-3.1-4.6-5.4-.1-.3-.3-.6-.6-.7a1 1 0 00-.4 0L434 232c-.2 0-.5.1-.7.3-.4.4 0 1.3.5 1.5.6.2 1.2 0 1.8 0l3.3-1c.3 0 .7.3.7.6 0 .4-.2.7-.5 1-1.3 1-3.5.5-4.8 1.6-.9.8-1.1 2.2-.5 3.2h.4c1 0 1.7-.7 2.5-1.3.8-.5 1.9-.9 2.6-.3zM405.9 86c0-.2.3-.3.6-.3l3.6-1 1.4-.3c.5.1 1 .5 1 1 0 2.6-.2 5.1-1 7.6 0 .4-.2.8-.6.9-.5 0-.7-.6-.7-1 0-.5.3-1 0-1.4 0-.4-.8-.5-1 0 0 .8-1 1.3-1.8 1.4-1.9.2-3.9-.9-4.6-2.6-.2-.5-.3-1.1-.7-1.5-.3-.5-1-.6-1.4-.2-.2.1-.2.4-.3.7a6 6 0 00.7 3.6c.3.5-.6 1.1-1 .8-.6-.3-.8-1-.8-1.6 0-.6.2-1.2 0-1.8a2 2 0 00-2-1.5 2 2 0 00-1.8 1.9c0 1.3-.5 2.5-1 3.8-.2.5-1.2.4-1.5-.2-.3-.5-.2-1.2 0-1.9l1-4.5a24 24 0 012-6.3c.3-.4 1-.4 1.4-.1.4.3.6.8.8 1.3l.8 2.2c.2.8.5 1.6 1.2 2.1s1.8.4 2.1-.3l1.2-2.8c.5-1.1 1-2.3 2-3 1-.8 2.6-.9 3.4 0 .3.4.4.8.2 1.2-.2.3-.8.4-1 0-.2-.5-1-.3-1.5.2a7 7 0 00-2 6.2c.1.7.4 1.5 1 2 .5.5 1.4.7 2 .3 1.2-.7 1-2.7 2-3.5l.7-.4c.1-.2 0-.6-.2-.6-1 .4-2.2.5-3.4.4-.4 0-1-.3-.8-.7zm-9.5.2c-.1.4-.2.8 0 1 .1.3.4.5.6.7 1-1.2 1-3.2-.1-4.4l-.5 2.7zM337 90l.7.8a22.1 22.1 0 01-5.4 4.8l-1 .5c-.8 0-1.4-.6-1.6-1.2a819.6 819.6 0 01.5-10.7c0-.3.3-.8.6-.7 3.6 1 7.5.9 11-.4 2.2-.8 5 .4 5.8 2.6.7 1.7.6 3.8-.3 5.5a6.5 6.5 0 01-4.6 3.2c-.6.1-1.2.1-1.7-.3-.5-.3-.6-1.2-.1-1.5a22 22 0 01-2-7c0-.5-.8-.6-1.4-.5-1 0-1.9.2-2.8.3-.6 0-1.2.2-1.6.4-.5.3-.9.9-.8 1.5.1.5.9.9 1.3.5.6-.5 1.5-.5 2.3-.6.7 0 1.6.4 1.3 1-.1.3-.5.4-.9.4l-2.7.3c-.5 0-1 .1-1.4.5l-.4 1-.6 2.3c0 .4 0 1.1.5 1l.4-.1 4.8-3.6zm5.4-6c-1.1.2-1.8 1.3-1.9 2.4a7 7 0 001 3.2l.7 1.6c0 .2.2.4.4.6.4.4 1.1.3 1.6 0 1.4-.7 2-2.4 2.2-4v-1.4c-.3-1-1.4-1.6-2.3-2-.6-.2-1.1-.4-1.7-.4zM410.8 63.4c.7.1 1.5 1 .9 1.5-.5-.6-1.5-.5-2.3-.3-.9.3-1.8.6-2.4 1.2-.6.7-.7 2 .1 2.4 1.5 1 3 2 4 3.5.2.4.4 1 .4 1.4 0 1-1 1.7-1.8 2-1 .3-2 .2-2.9 0-1.9-.3-3.9-.9-5-2.5l-4.8 3.2c-1.6-.4-3-1.9-3-3.5 0-.6 0-1.1-.2-1.6-.2-.3-.5-.7-.3-1 .7-1.2.7-2.8 0-4 .3-.4.5-.8.6-1.3.4.5 1.2.6 1.8.6h6.3c.5 0 .6.6.3.9-.4.3-.9.3-1.3.2-1.3-.1-2.6-.2-4 .1-.6.2-1.4 1-1.1 1.6.2.4.8.5 1.3.5.7 0 1.4 0 2-.2 1.4-.4 2.7 0 4 .5-1.9.9-4 1.3-6 1.2-.7 0-1.2.5-1.4 1a4 4 0 000 1.8c.1.6.8 1.4 1.2 1 1-1.1 2.5-1.9 4-2.2.6 0 1.5 0 1.5.7 0 .2.2.4.4.5 2.2.7 4.5.7 6.7.3-1-1.3-2.3-2.5-3.7-3.4-.6-.4-1.3-.8-1.7-1.5-.4-.8-.1-1.8.5-2.5.6-.8 1.4-1.2 2.3-1.5 1.1-.5 2.4-1 3.6-.6zM461.7 498.9c-2 .8-4.7-.9-6.4.5-.5-.7.4-1.7 1.3-1.8 1 0 1.8.4 2.8.3 2.5-.1 3.2-3.6 3-6.2l-1.6-47.4-5.7-161.7c0-.6 0-1.3-.5-1.7-.5-.6-1.3-.7-2-.7-3.7-.2-7.5.3-11 1.4 3.3-3 8.3-4 12.5-2.6.7.3 1.5.6 2 1.2.5.7.5 1.7.6 2.7l5.5 156.6 2 53.3c0 2.3-.3 5.2-2.5 6zM292.5 345c2.1-.5 4-1.7 5.3-3.5.1-.2.3-.5.6-.6.2-.2.6 0 .7.2l-.1.5c-1 2-2.9 3.7-5 4.3 2 .5 4.1.6 6.2.2a17 17 0 01-.6-.7c.9-.4.3-1.7.5-2.6.2-1 1.2-1.5 2-1.4 1 .1 1.7.9 2 1.7.5 1.6 1.4 3.1 2.5 4.4l-.5-4.9c0-.5 0-1.1.4-1.3.3 0 .6.1.8.3.9.9.4 2.3.4 3.5 0 1.9 1 3.8.4 5.6-.1.4-.4.8-.7 1-.4.1-1 0-1-.4l-3.7-8c-.2-.4-.9-.3-1.1 0-.3.4-.3.9-.3 1.3v8.1c0 .6-.9.7-1.3.4-.4-.4-.4-1-.4-1.6v-3.2c0-.3-.5-.4-.8-.4h-5.5l-.6.1c-.2.2-.2.4-.2.7v3.6c0 .4-.7.6-1 .3-.4-.3-.4-.9-.5-1.3l-.1-2.5-.5-6.5c0-.6 0-1.3.3-1.7.4-.5 1.4-.3 1.4.3l-.1 3.5c0 .2 0 .5.2.6h.3zM445.2 86c.3-1.2 1-2.8 0-3.7l-2.4 6.1c-.3.7-.6 1.5-1.2 1.8-1.2.7-2.8-.4-3.2-1.7-.5-1.4-.3-2.8-.4-4.2-.1-.8-.3-1.6-.7-2.4-.8.7-1 1.9-.7 2.8.2.5.4 1 .2 1.3-.5.8-.4 1.8-.4 2.8 0 1 0 2-.8 2.6-.7.6-2.1.2-2-.8.4-3.4.9-6.8.6-10.3 0-.3.4-.5.7-.6 1-.4 2.4-.7 3.3 0 .6.5.8 1.4 1 2.1l1 5.1c0 .5.7 1.2 1 .8 1-1.8 2-3.6 2.5-5.6.2-.7.4-1.5.9-2.1.4-.7 1.2-1.1 2-1 1.2.5 1.3 2.1 1.2 3.4l-.4 4.7c-.2 1.6-.4 3.2-.9 4.7a6.8 6.8 0 01-1.3-5.7zm-9.6-4.7c.3 0 .3-.5 0-.5-.2 0-.2.4 0 .5zM385 219.4c-.3.5-.4 1.2 0 1.5l3.8 2.4c.6.4 1.3.9 1.4 1.6.2.8-.5 1.7-1.4 2-.8.2-1.7 0-2.5-.1l-3-.8c-.5-.2-1-.5-1.3-1-.2-.5.4-1.2.8-1 1.7 1 3.8 1.4 5.7 1.1-.8-1.1-2.2-1.5-3.4-2.2-1.3-.7-2.4-1.9-2.1-3.2 0-.4.3-.7.5-1l.8-.8a5 5 0 016-.3c.3.2.7.5 1.1.5.6-.1.9-.8 1.2-1.3.2-.6 1-1 1.4-.5.6 1 2 .8 3.2.4 1.1-.3 2.5-.6 3.3.3-1.6.7-3.3 1.3-5 1.5l-.9.3c-.2.3-.2.7 0 .8h.6l3.1-.8c.4-.1 1.1 0 1 .4l-.1.3c-.8 1-2.1 1.4-3.3 1.4-.7 0-1.2.5-1.4 1.1-.2.6-.1 1.3 0 2 0 .4.4.9.7.7l2.4-1.8c.5-.4 1.5-.7 1.6 0 0 .2-.1.5-.3.7-.8 1.2-1.7 2.5-3 3-1.3.6-3.2 0-3.6-1.4-.2-.6 0-1.3 0-2 0-.6-.4-1.3-.5-2 0-.8.3-1.6 1-1.7l-2.8-.8c-1.7-.5-4-.8-5 .7z"/>
  <path fill="#00EBAB" d="M439 368.7c.4-2.2.4-4.6-.2-6.8-.2-.7.9-1.1 1.4-.7.6.5.7 1.3.6 2 0 .7 0 1.4.5 2-.5.3-.7 1-.3 1.5.4.5.2 1.2 0 1.7-.2.6-.4 1.2-.2 1.8.2.5 1.1.8 1.3.2.4-1 1.6-1.5 2.6-2 1-.6 2-1.7 1.6-2.7-.6-1.3.2-2.9 1.4-3.5 1.3-.6 2.8-.3 4 .4 2 1.1 3 3.5 2.8 5.8a7.4 7.4 0 01-3.7 5.5c-1.5.9-3.6 1-4.7-.2 2.6-.4 5.2-1.8 6.3-4.1 1-2.3 0-5.7-2.5-6.3-.6-.2-1.4 0-1.7.4-.3.6 0 1.3.2 1.9.2.6 0 1.5-.5 1.6.6 0 .6 1 .4 1.5-.2.6-.5 1.3 0 1.7-.2 1-.6 2-1.3 2.7-.7-1.2-1-2.6-.9-4a36 36 0 01-2.8 2.6c-1.1 1-2.8 1.8-4 .9-1-.8-.7-2.5-.4-3.9zM435 334.1c.2.4.8 0 1-.2l1.9-2c.4-.3 1-.6 1.3 0l-2 2.8c-.6 1-1.6 2-2.7 1.7-.8-.3-1.2-1.1-1.4-2-.7-2.6-.6-5.5-.5-8.3 0-1 1.3-1.4 2.3-1.3 1 .1 2 .6 3 .2.7-.3 1.2-1 1.6-1.8 1 2.2 2.5 4.2 4.4 5.7l1.9-4.5c0-.3.2-.7.5-.9.3-.2.8-.2 1 0 .2.3.1.6 0 .9l-1.8 8a11 11 0 01-1.6 4c-1.1-.8-.8-2.5-.3-3.9l.4-1.3-3.6-3.6c-1-1-2.4-1-3.7-1.1-1 0-2.3.1-2.6 1-.2.8.5 1.7 1.3 1.9.9.1 1.7-.1 2.5-.4l1.7-.6c.3 1-.8 1.8-1.7 2-1 .2-2.1.3-2.8 1-.4.7-.4 1.5-.3 2.3 0 .2 0 .3.2.4zM346.6 242.7l.8.7c.7 1-.2 2.3-1.3 2.6-1.1.3-2.3-.2-3.3-.6l-3.8-1.6c-.8 1-1.7 2-2.9 2.6-1 .7-2.5 1-3.7.5-1.2-.4-2.1-1.8-1.8-3 .5-2 .2-4.2-.8-6 .7-1.3 2.6-1.5 4.1-1.2 1.5.2 3 .7 4.2 1.6 1.1 1 2 2.5 1.7 4 0 .5.6.8 1.1 1l3.3.8c.3.1.6.2.9 0 .3 0 .5-.4.3-.6 0-.2-.3-.3-.5-.3-2-.4-4.3-1.3-4.5-3.3 0-.7.2-1.4.5-2 1-1.8 3.5-2.7 5.6-2.3.2 0 .4 0 .5.2.2.3 0 .7-.4.8h-1c-1 0-2.3.6-3 1.6-.4.6-.5 1.7.2 2.2l3.8 2.3zm-9.6.6c.7-.7 1.4-1.7 1-2.7-.2-1-1.4-1.5-2.4-1.8l-2.2-.5c-.3 0-.6-.1-.8 0-.3.2-.3.6-.3 1v4.5c0 .3 0 .7.2 1 .4.7 1.5.5 2.3 0 .8-.3 1.5-.9 2.2-1.5zM421.5 414.5c.3-1 .6-2 1.3-2.8.6-.7 1.8-1.2 2.7-.8.8.3 1.2 1 1.5 1.8 1 2.7.1 6-2 7.9-.7.6-1.5 1-2.4 1-1 0-1.8-.6-2-1.4l.1-1.4c0-.5 0-1-.2-1.4-.4-.4-1-.3-1.2.1-.3.8-1.1 1.3-2 1.2-.8 0-1.4 1-1.5 1.8-.2 1-.2 2-.9 2.5l-.3.1c-.3 0-.4-.3-.5-.6-.2-1.7-.1-3.5.3-5.2 0-.4.2-.8 0-1.1-.2-.4-.5-.9-.2-1 .5-.4.3-1 .4-1.6 0-1.7 1.8-2.6 3.3-3.3.3-.2.7-.3 1-.1 1.5.9 2.5 2.5 2.6 4.3zm3.3-2.2c-.4 0-.6.6-.8 1l-1.5 3.7c-.3.8-.5 2 .3 2.3.5.2 1 0 1.3-.4 1.3-1 1.8-2.9 2-4.6l-.1-1.4c-.2-.4-.7-.8-1.2-.6zm-7.1 4.7c1.1-.6 2-1.9 2-3.2 0-1-.5-2-1.4-2.2-.7 0-1.4.5-1.7 1.2l-.8 2c.8.2 0 1.7.7 2.2.3.3.8.2 1.2 0zM416 342.5c.6.2 0 1-.3 1.6a2 2 0 00.4 2.3c.5.6 1.4.8 2.2.5.4 0 .7-.3 1-.6.4-.6.2-1.4.2-2.2 0-.7.3-1.6 1-1.7.7 1.4 1 3 .7 4.4.4-.4 1-.8 1.4-.4.3.2.2.7 0 1l-1 .8c-.6.7-.5 1.9-.4 2.9 0 1 0 2.3-.8 2.8a3.5 3.5 0 01-1-4.6c-.5-1.1-2.1-1.3-3-.5-1 .8-1 2.2-.6 3.3.2.4-.5.8-1 .6-.4-.3-.5-.8-.6-1.3-.2-1.7-.3-3.5 0-5.2 0-.4-.3-.8-.7-1-.8-.3-1.8-.2-2.5.4-.7.5-1 1.6-.7 2.4.3.8.8 1.9.1 2.2.6 1.4.5 3.1-.3 4.4-.2.5-.9.4-1.2 0-.3-.4-.3-1-.3-1.4v-6.8c0-.6-.8-.8-1.4-.8-.6 0-1.4-.3-1.3-.9 1.9-1 4-1.3 6-1.2 1 0 2.2.3 3-.4.3-.3.7-.8 1.1-.6zM384.4 428.6c.4 0 .8-.4 1-.9.3-.4.5-.9.9-1.1.4-.3 1.1-.1 1.1.4v3.3c0 .3 0 .6.2.9.2.2.7.2.7-.1.2-1 .5-2 1.2-2.8.7-.7 2-1 2.8-.5 1.2.6 1.2 2.3 1.1 3.6-.1 2.6-.2 5.2.4 7.7.1.7-1 1-1.6.6-.5-.5-.5-1.3-.5-2V430c0-.4-.1-1-.6-1-.2 0-.4.1-.5.3-1.8 2.4-1.5 6-3.3 8.4-.8-.2-1.8-.9-1.5-1.6.6-1.5.8-3.3.3-4.9-.8.3-1 1.4-1 2.3 0 1.4-.3 2.8-.9 4.1-.3.8-1 1.6-1.7 1.3-.6-.3-.6-1.2-.5-1.9l1-6.8c.1-.8.5-1.8 1.4-1.8zM318 452c.2-2.7.6-5.4 1.3-8.2.7 0 1 1 1 1.7s0 1.6.6 2c-.6 0-.6.8-.6 1.3.2 1.6 0 3.3-.3 4.9-.2.6-.4 1.2-.8 1.7-.4.4-1.1.7-1.7.4-.3-.1-.6-.4-.8-.7-1.3-1.7-2-4-1.8-6.2l-.1-1c-.2-.3-.6-.4-.8-.1l-.1.3-.8 6.8c0 .7-1 1-1.6.7-.6-.3-.9-1-.9-1.8 0-.7.3-1.3.4-2 .3-1.8 0-3.6 0-5.4 0-.5 0-1 .3-1.4.2-.3.6-.4.9-.6.6-.3 1.3-.5 2-.5s1.4.5 1.6 1.2l1.3 5.3c.1.6.3 1.3.9 1.7zM321.4 354.4c-.7 0-1.3-.5-1.6-1.2-.3-.6-.3-1.3-.4-2l-.1-4.7c0-1.1-.1-2.3-.4-3.4.2-.2.3-.6.4-.9.1-.3.5-.5.8-.3l.2.4c.6 2 .8 4.1.6 6.2.8-.6 1-1.8 1.2-2.8.2-1 .7-2.2 1.8-2.3.7 0 1.3.4 1.7 1 .4.6.5 1.3.6 2l.7 3.5c0 .3.1.6.4.7.5.1.7-.6.7-1v-6.7c0-.5 0-1 .4-1.5.3-.5 1-.7 1.4-.3.3.2.3.7.3 1.1 0 2.8-.2 5.5-.5 8.2 0 .8-.2 1.6-.6 2.2-.4.6-1.3 1-2 .6a2 2 0 01-.7-.8 13 13 0 01-1.5-5.3c0-.4 0-.8-.3-1-.1-.4-.6-.5-.9-.3-.2.2-.2.5-.2.7-.1 2.8-.8 5.4-2 7.9zM315.6 70.4c-.7 1.3-1.2 3.1-.2 4.2 1 1 2.6 1 3.8.3a6 6 0 003-3.2c.6-1.7.5-3.6 1.5-5 .7 0 1 .8.8 1.4-.2.7-.6 1.3-.6 2 .1.6 1.2 1 1.4.4.3-.7.7-1.3 1.3-1.9.4-.3.8-.5 1.3-.4.5 0 .8.7.5 1l-2.5 2.4c-.3.3-.6.6-.7 1-.1.4 0 .9.5 1l7.2 1.7c.2 0 .4.1.5.3.2.5-.4.8-1 .8-2.3.2-4.7-.1-7-.9-.3 0-.6-.2-1 0-.2 0-.5.4-.3.6.3.5 0 1.1-.4 1.3-.4.2-1-.2-1.1-.6 0-.5.3-1 .4-1.5.2-.5 0-1.2-.6-1-.2 0-.3.2-.4.4a6.2 6.2 0 01-4.6 3c-1.8 0-3.8-1.2-4.1-3-.1-.7 0-1.3-.3-1.8 0-2 1-3.9 2.5-5 .7-.6 1.5-1 2.4-.9.8.2 1.5 1 1.2 1.8-.4-.6-1.4-.7-2-.3a4 4 0 00-1.6 1.9zM180.3 384l-74.4.9c-3.3 0-6.5 0-9.8.2l-1.8-2.3-6.6-.4 7.4-3c-2.9-25.4-4-51-3.5-76.7 0-3.1-.2-6.9-2.8-8.6a7.8 7.8 0 003-2.3c13.6.6 27.2.7 40.9.3.8 0 1.7 0 2.2-.6.7-.7.7-1.7.6-2.6l-1-17.5-3.8 1.8a6 6 0 013.6-4.3c-1.2.5-2.4-1.2-2-2.4.4-1.3 1.6-2 2.8-2.7 48.7-26 98.3-50 148.7-72.3-2-1.8-4.8-2.7-7.5-2.7l.3-4.2c4.8 2 9.5 4.1 14.1 6.3a102 102 0 00-7.6 16.7c-1.4-4.2-.7-9 1.8-12.6L144.1 266c-2.3 1.2-5 2.9-4.8 5.4l.5 19.8 40.7 1.8c.1-2 1-4.1 2.5-5.6l3.3 85.7c.1 3.9.8 8.5 4.4 10-2.1-.6-4.5 1.3-4.4 3.5-.6-2.3-3.6-2.7-6-2.7zm3.7-140.2c-.3-.1-.6.5-.2.5.1-.3.4-.6.8-.8-.1-.3-.7 0-.5.2zm-7.6 3.3c-.3-.2-.6.5-.3.5.2-.4.5-.7.8-.8 0-.3-.7 0-.5.2zm-24 9.2c-.3-.1-.6.5-.2.5.1-.3.4-.6.8-.8 0-.3-.7 0-.6.3zm-2.2 1.1c-.8-.2-1.8.1-2.2 1a2 2 0 002.6-1.3c0-.2-.2-.3-.3-.2v.5zm42-17.7c-.5-.6-1.5-.2-2.2.2-.5.3-1 .7-1 1.3l3.3-1.5zm34.8-17.8c.4-.2.9-.8.4-1l-5 2.2c-1.3.6-2.6 1.1-3.6 2-1 .1-2 .6-3 1.2l-9.5 5.2c.5.4 1.2.2 1.7 0 3.6-1.8 7-3.7 10.4-5.8 1.3-.8 3.3-.7 3.8-2 1.3 0 2.5-.6 3.7-1.2l1.1-.6zM96.5 298.8a1479 1479 0 001.2 58.3c.4 3 1.2 6 1.2 9l-.2 3.7-.9 8.6c0 1.3 1.7 1.8 3 1.8l79.8-1c1.3 0 3-.5 2.9-1.8l-3.8-43.6c-.5-5.5-1-11-1.1-16.5-.2-6.6 0-13.1.6-19.6l-11.8-.5-3.8-.2c-22.3-.8-44.6-1.1-66.9-.7-.2.8-.2 1.7-.2 2.5zm87.6 82.5c0-.6-.8-.6-1.4-.5l-2 .8c.8.2 1.7.3 2.5.2.4 0 .8-.1.9-.5zm-89.8-81.3c-.4.7-.4 1.6 0 2.3.5-.7.5-1.6.1-2.3h-.1zm0 8.2c.4-.2.4-.7.2-1-.3-.2-.8-.2-1 .2l.8.8zm86.2 20.2c-.4.2-.4.8 0 1 .3-.2.3-.8 0-1zM145 260.2c-.3 0-.3.4 0 .4.2 0 .2-.4 0-.4zm-50.5 44.3c0-.2-.6 0-.5.2h.5v-.2zm107.1-70c.3 0 .3-.5 0-.5-.2 0-.2.4 0 .4zM352.6 450.6c-1-.7-2-1.5-1.8-2.6 0-.8.6-1.3 1.2-1.8 1-.9 2.5-1.7 3.8-1-.7 1.2-2.8 1-3.3 2.3-.4 1 .6 2 1.5 2.6 1 .5 2.2 1 2.5 2 .8-1.3 1-2.8 1.3-4.2.3-1 .8-2.1 1.8-2.6s2.4 0 2.6 1c-.2.4-.8.2-1.3.2-.8 0-1.2.7-1.5 1.4-.5 1.4-.9 2.9-1 4.4 0 .8 0 1.7.6 2.3.5.7 1.7.8 2.1.1 1.5-2 2.3-4.6 2.4-7.1 0-1.4-.4-3.1-1.8-3.5.8-.6 2-.3 2.6.4.6.8.7 1.8.8 2.8 0 2.6-.7 5.3-2 7.6-.4.7-.9 1.4-1.6 1.8-1.8 1-4-.6-4.7-2.5-1.4.6-2.8 1-4.3 1-.7.1-1.5.1-2.2-.2-.7-.3-1.2-1-1-1.8 2.1.8 4.6.7 6.6-.3l-3.3-2.3zM321.4 412.4c-.2.7-1 1-1.7 1-.6 0-1.3-.2-2 0-.7 0-1.3.7-1.1 1.4.2.6 1 .8 1.8.6.6-.2 1.3-.6 2-.6.4 0 .8.2 1.2.1.7-.2.9-1 1.1-1.7a5.6 5.6 0 014-3.5c1.8.5 2.7 2.6 2.8 4.6.1 1.5-.2 3-1 4.3-.9 1.4-2.5 2.5-4.2 2.4-1.7-.2-3.2-1.9-2.8-3.5 0-.4-.3-.9-.7-1h-1.3c-.8.3-1.6.4-2.5.6-.3.1-.7.3-.6.6.4 1.9.2 3.8-.6 5.5-.8-.5-1-1.5-1-2.4 0-2.4 0-4.7.3-7 .1-.7.3-1.3 0-1.9.1-.8.6-1.4 1.3-1.9-.1 1 .2 2 .9 2.8.6-.4 1.3-.8 2-1 .8-.1 1.6 0 2.1.6zm5-1.4c-.3 0-.5.3-.7.6a10.5 10.5 0 00-2.5 5.5v1c.3.8 1.2 1.2 2 1 .8-.1 1.4-.7 1.9-1.4 1.2-1.6 1.4-4 .5-5.8-.3-.4-.6-.9-1.1-.9zM296.4 112.5c-.1.3-.1.6-.3.8-.6.6-1.6 0-1.8-.7-.2-.7.1-1.5.3-2.2.3-1.6.1-3.2-.1-4.7-.3-1.5.3-3 1.5-3.9l.8-.4c1-.1 1.6 1 2 2l2.5 8c.9-.6 1.1-1.7 1.2-2.8l-.1-4.5-.2-2.4c0-.7 1.2-1 1.8-.4.5.6.5 1.4.5 2.2 0 .8 0 1.7.6 2.2-.5 0-.7.7-.5 1.2.2.5.5 1 .3 1.5-.5 1-.5 2-.8 3-.4 1-1.1 2-2.2 2.1-1.3.1-2.2-1.3-2.7-2.5-.9-2-1.5-4.3-2.1-6.5a61 61 0 01-.8 8zM291.7 450.9l-1.2-3.4-.2 5.2c0 .5 0 1-.4 1.3-.5.4-1.3 0-1.6-.6-.3-.5-.2-1.2-.1-1.9l.8-5.8c.2-1.3.4-2.6 1-3.7.3-.6 1.1-1.2 1.7-.8.2.3.3.6.3 1l.5 6c0 .5.3 1 .7 1 .2 0 .3-.3.4-.6l2.7-6.9c.2-.6 1-1.5 1.5-1 .2.1.3.4.3.6.5 1.6.5 3.2.5 4.9v5.6c0 .4-.1.8-.4 1.1-.3.4-1 .3-1 0a19 19 0 010-7.8c-.5-.4-1 .3-1.2 1-.4 1.8-.7 4-2 5.4-.4.4-1 .7-1.5.5-.4-.1-.7-.6-.8-1.1zM345.7 104.6c-.2-.6-.3-1.4.2-1.8-.5-.4-.6-1.2-.6-1.8 0-.6 0-1.2.3-1.6.3-.5 1-.8 1.4-.5.4.3.4.8.5 1.3l.3 7.3c.1 1.5.2 3-.4 4.3-.2.5-.4.8-.8 1-.6.4-1.5.2-2-.2-.6-.5-1-1.1-1.2-1.8-1-2-1.7-4-2.2-6.2 0-.4-.2-.7-.4-.9-.3-.2-.8 0-.8.3l.6 5.8c.1 1.7 0 3.9-1.5 4.8-.7-.5-.8-1.6-.8-2.5v-8.3c0-.8 0-1.8.8-2.2 1-.7 2.3.4 3 1.5 1.3 2.3 2 4.9 3 7.4 0 .3.4.3.6.1.2-.2.2-.5.3-.8 0-1.8.1-3.5-.3-5.2zM400 186.1c-1.1-2.6-.2-6-2.2-8l-.1 8.5c0 .4 0 .8-.3 1.2-.2.3-.8.4-1 .1l-.2-.4a7.7 7.7 0 01-.3-4.2c.8-2.3-.6-5.2.8-7.1.5-.6 1.5-.9 1.9-.3a19 19 0 012.5 8.6c0 .4.5.5.8.2.3-.2.3-.6.3-1a24 24 0 012.3-8.1c.2-.6 1.1-.6 1.6-.1.4.4.6 1 .7 1.6.5 3 .8 6 .7 8.9a5.3 5.3 0 01-1.8-6.3l-.7-2-1.6 7.2c-.2 1.2-1 2.8-2.1 2.5-.7 0-1-.7-1.3-1.3zM412 369.9c1.6-1.4 1-4 2.1-5.8.2-.5.6-.9 1.1-1 .5 0 1 .2 1.1.7l.6 6c0 .6.2 1.4.9 1.6.6-2 1-4 1-6 .1-1 .2-2.2 1-2.8.6.3.8 1.1.9 1.8.1 2.4-.2 4.8-1 7-.2.7-.5 1.3-1 1.8-.4.4-1.1.7-1.8.4-.7-.4-1-1.3-1-2.1l-1-5.3-1.3 6c-.2.6-.4 1.3-1 1.6-.7.4-1.5 0-2-.7-.3-.7-.3-1.5-.3-2.2v-8.3c0-.5.8-.7 1.1-.3.4.4.5 1 .5 1.5v6zM365 488.3c.2 1.6 3.1 1 3.8 2.5v-6.6c.1-.5.1-1 .5-1.4.4-.4 1.2-.2 1.2.3-.1 2.9 0 5.7.5 8.5.1.8.2 1.6-.1 2.3-.3.6-1.4 1-1.9.4-.3-.4-.2-1-.1-1.6 0-.5 0-1.2-.6-1.3l-5.7-1.2c-.6-.1-1.5 0-1.4.6.3 1.4-.1 3-1 4-.2.2-.3.3-.5.3-.5.1-.6-.5-.6-1v-7.7c0-.8 0-2 .9-2.2-.1.4.6.6 1 .4l.7-1.1c.8-1 2.5-1.2 3.4-.2 1 1 .6 2.7.1 4a2 2 0 00-.2 1zm-.6-3.7c-.3-.7-1.2-.5-1.7 0-1.1 1-1.7 2.5-1.4 4a4.7 4.7 0 003-3.5v-.5zM352.4 107.7c-.1-.4-.5-.6-.8-.9-.3-.3-.3-.8 0-1 1-.3.9-1.5.9-2.5 0-1.5.4-3 1.4-4.1 0 .5.4 1 .8 1.2.5.2 1 .1 1.6 0l4.8-.6h1.4c.5.3 1 .7.9 1.2-.9 0-1.7.2-2.6.3-1.7.3-3.5.6-5.1 1.3-.5.2-1.1.6-1.1 1.1 0 .5.4 1 .8 1.1h1.5l3.6-.7c.5-.1.9.8.5 1.2-.3.5-1 .6-1.5.6l-3 .5c-.5 0-.9 0-1.2.3-.6.4-.7 1-.9 1.7-.1.8-.2 1.8.5 2.3 1.8-1.4 4-2.4 6.1-3 .6.6 0 1.6-.8 2.1-.8.7-1.7 1.3-2.6 1.8-1.3.7-2.7 1.2-4 .7-1.3-.5-2-2.1-1.5-3.4.2-.4.4-.8.3-1.2zM429.6 336c-.4.6-1.4.2-1.7-.4-.3-.7-.2-1.5-.1-2.2 0-.7 0-1.6-.5-2-.7-.6-1.8-.3-2.7 0l-.6.5v.6l-.2 3.4c-1.1-.6-1.5-2-1.6-3.4 0-1.3.3-2.6-.1-3.9-.3-.6-.5-1.5.2-1.7l-.8-.8c-.4.5-1.1.5-1.7.6-.7 0-1.4.4-1.3 1 .6 2.4.7 5 .5 7.4l-.1.5c-.3.4-1 .3-1.3 0-.2-.5-.2-1-.2-1.5v-3.7c0-1 0-1.9-.5-2.6-.5-.7-1.8-1-2.3-.3-.4.6-1.2-.2-1-.8.3-.6 1-.7 1.6-.8a112.5 112.5 0 017.4-.8c.8.3.9 1.3.8 2.2-.1.8-.2 1.8.5 2.3 1 .9 2.5-.4 3.8-.4-.7-1-.8-2.6-.2-3.7.2-.3.4-.6.7-.6.5 0 .7.6.6 1 0 .5-.2 1 0 1.3a15 15 0 011 8.1c0 .2 0 .5-.2.7zM333.2 394.8c-.6-.4-1-1-1.1-1.7-1.4 1-2 2.5-2.7 4-.3 1-.7 2-.3 3 .5 1.2 2.3 1.5 3.5 1 1.3-.7 2.1-1.8 2.9-3-1.8 0-3.5.1-5.2.5-.3-.7.6-1.4 1.4-1.7 1.2-.3 2.3-.5 3.5-.5.7 0 1.5 0 1.9.6.3.5.1 1.1 0 1.7l-1.7 6.4a2.6 2.6 0 01-1.5-2.3c0-.5-.7-.3-1.1 0-1.2 1-2.9 1-4.1.3-1.3-.7-2-2.3-1.8-3.7.5-2.5 1.1-5 2.9-6.9.8-.8 2-1.4 3-.8.9.7.8 2 .4 3.1zM386.3 333.3l-1.3-5.7c0-.5-.2-1.1-.6-1.6-.4-.4-1.1-.5-1.5-.1-.2.1-.3.4-.4.6-.4 1.6 0 3.2.3 4.8.3 1.6.4 3.4-.6 4.6-.3.3-.6.6-1 .5l-.4-.4c-.7-1-.6-2.2-.5-3.4l.4-5.1c.1-1.4.4-3 1.6-3.6 1.4-.7 3.3.7 3.8 2.2.6 1.7.5 3.6 1.5 5 1.2-2.5-.8-6 1.2-8 1 3.6.9 7.3.7 11 0 .5 0 1.2-.5 1.5-.5.5-1.5.3-2-.3-.4-.5-.6-1.3-.8-2zM362.2 225.9c.2-2.1 0-4.3-.7-6.3-.2-.6-.4-1.2-.4-1.8 0-.7.2-1.3.8-1.6.5-.3 1.4 0 1.4.6-.5.3-.4 1-.2 1.6.6 2.8 1 5.5.9 8.3 0 .5 0 1-.4 1.4-.5.6-1.4.5-2 0-.5-.4-.9-1-1.2-1.7l-2-4.2c-.2-.4-.9-.2-1 .2-.2.4 0 .9.1 1.3.5 1.5.6 3 .4 4.6-.1.5-.3 1-.8 1.2-.4.2-.9-.1-1.1-.5a3 3 0 01-.4-1.3l-.4-4.6c-.2-1.6-.1-3.6 1.4-4.3 1.5.3 2.5 1.7 3.2 3.1.7 1.4 1.2 3 2.4 4zM445.7 179.4c.2 1.8 0 3.6-.5 5.3-.1.5-.3 1-.8 1.2-.4.2-1-.1-1-.6.3-1.5.2-3-.2-4.5.8-1-.2-2.5-.3-3.8-.1-1.7 1.7-3.2 3.3-2.9.3 0 .5.2.6.4l3 7.6c.2.3.5.8 1 .7.3-.1.3-.6.3-1v-4c.1-1.6 0-3.4-1-4.6 0-.6 1-1 1.5-.6.6.4.7 1 .8 1.7.4 2 .5 4.2.3 6.2-.1 1.6-.5 3.3-1.8 4.4a7.2 7.2 0 01-4-6.7c0-.4-.8-.5-1.1-.1-.3.3-.2.8-.1 1.3zM309.4 200.6a51 51 0 01-.4 9.7c0 .3-.1.6-.4.7-.4.2-.8-.2-1-.6-.9-1.9 0-4.2-.4-6.2-.2-1-.7-1.7-.9-2.6-.2-1 0-2 .7-2.5a3 3 0 011 2.2c.4-.5.5-1.2.3-1.8-.3-.6.5-1.2 1.2-1 .6.2 1 .8 1.4 1.3l3.1 5.2c.2.2.6.1.7-.1.1-.3 0-.6 0-.8l-.7-4.3c.6-.4 0-1.7.7-1.9.4 0 .8.4.9.9.4 1.4.9 2.8.9 4.3 0 1.3-.4 2.7-.7 4 0 .2 0 .4-.2.6-.3.3-.9.3-1.3 0-.4-.1-.6-.5-.9-1l-4-6zM404.4 222.6c-.7.2-.8 1.1-.7 1.8.1.7.3 1.6-.3 2-.5.6-1.5.3-1.9-.4-.4-.6-.4-1.4-.4-2.1l-.1-7.5c0-.5.1-1.1.6-1 .5 0 .5.7.6 1.1 0 .5.8.8.9.3 0-1.8 2.2-3.1 3.8-2.3a3 3 0 011.5 3c-.2 1-1 2-2 2.5 2 .5 4 1 5.7 2.3-2.2 1.4-5.2-.5-7.8.3zm.8-3.4c1-.3 1.8-1.1 1.8-2.1s-1-2-2-1.5c-.4.2-.6.6-.8 1l-.6 1.4c0 .5.2 1 .7 1.2h1zM364.9 351.6c-.3-1.2-1-2.7-2.3-2.7-.7 0-1.3.7-1.6 1.4-.3.6-.3 1.4-.5 2.1-.2 1-.6 1.8-1.2 2.6l-1.3-1.4 2.2-8.1c.4-1.8 1.1-4 2.9-4.7.4-.1.8.2 1 .5.8 1.1.7 2.6 1 3.9.3 1.3 1.6 2.7 2.8 2 .3 0 .5-.3.8-.4.3 0 .7 0 .7.4a9.3 9.3 0 00-3.3 3c.6.6.6 1.4.6 2.2 0 .4 0 1-.3 1.3-.2.3-1 .3-1-.1l-.5-2zm-1.1-4.4c.3-.3.2-.8 0-1.2l-.6-3c-.6.7-1 1.6-1 2.6 0 .5 0 1 .3 1.4.3.4 1 .6 1.3.2zM431.1 409.7c.5-1 2-1 2.8-1.7 1.1.1 2 1 2.3 2.1.4 1 .3 2.2.3 3.3-.1 1.2-.5 2.8-1.7 3a18 18 0 012.4 2.1c.2.3.5.7.3 1-.3.6-1 .3-1.4 0l-3.4-2c-.4-.2-1-.4-1.5-.4s-1 .3-1.1.9l-.8 4c0 .3-.1.6-.4.6l-.3-.1c-.8-.6-.7-1.6-.7-2.6l.8-7c0-.9.2-1.9 1-2.3l.5 1c.7-.1.6-1.2 1-1.9zm1 1.1a6 6 0 00-1 2.2c-.2.8 0 1.8.7 2.2.7.4 1.7.2 2.3-.4a4 4 0 001-2.2c.2-.6.2-1.3 0-2-.4-.6-1-1-1.7-.9-.5.2-.9.7-1.2 1.1zM364.8 323.2a3 3 0 011.4 2.8c0 1-.8 2-1.8 2.5 1.5.7 2.8 1.7 4 2.8-1.3.6-2.8 0-4.1-.5l-2.8-1.2c-1-.3-1.4 1-1.4 2 0 .9-.4 2.2-1.3 2a1 1 0 01-.3-.1c-.4-.3-.5-.7-.6-1.2l-.7-4.4c-.2-1.4-.4-3 .5-4 .6.6 1 1.4 1 2.3a5.9 5.9 0 012.4-3c1.1-.6 2.6-.7 3.7 0zm-4.2 2.4c0 .4 0 1 .4 1.3.3.4.7.6 1.2.6 1.2.1 2.2-1.1 2.3-2.4v-.4l-.5-.2c-1.3-.2-3-.2-3.4 1zM301.5 453.7c-1.1-2.8.8-5.8.8-8.8 0-.6 0-1.2.3-1.7s1.2-.6 1.5-.1c.4 1 1.8.8 2.8.5 1-.2 2.4-.4 3 .5v.3c0 .3-.4.5-.8.5l-2.2.2c-1 0-2 .2-2.6 1-.6.7-.1 2.2.8 2l4.3-.8h.3c.3 0 .4.4.2.6-.1.3-.4.5-.7.6-1.4.6-2.9 1.2-4.4 1.5-1.2.3-1.6 2-.7 2.9l.3.1c.2 0 .4 0 .5-.2l4-3a6.2 6.2 0 01-4 5.3c-.8.3-1.7.4-2.4 0-.5-.3-.8-.9-1-1.4zM339.1 465.4l-.6 5.1c-.2 1.6-.4 3.3-1.5 4.4-.7-.2-.9-1.1-.9-1.9 0-2.3.2-4.6.4-7 .2-1.8.6-4 2.3-4.8l2.5 6.3.1.3c.4.3.8-.4.8-.9v-3.8c-.1-.6-.1-1.1.1-1.6s.7-1 1.3-.9c.5.1.9.8.5 1.2-1 1.1-1 2.8-1 4.2l.2 7.1c0 .6-.8.8-1.2.5-.5-.2-.6-.8-.8-1.3l-2.2-7zM422.9 197c-1 2-1 4.3.1 6.1.2.4.7.4 1 .3 1.8-.3 3.1-1.7 4.2-3-.6-.8-1.7-1-2.6-.8-.4.2-.8-.5-.5-1 .3-.4.8-.5 1.2-.6.8-.1 1.7-.2 2.4 0 .8.2 1.6.7 1.8 1.4.2.7 0 1.4-.1 2-.4 1.5-.8 3-1.3 4.3-.2-.4-.4-1-.8-1.3-.4-.3-1-.4-1.4-.2-1.1.8-2.5 1.7-3.8 1.3-1.5-.4-2.2-2-2.4-3.5-.3-1.6-.2-3.2.3-4.7.3-.8.6-1.6 1.2-2.2a4 4 0 014.5-.9c.6.3 1.1.8 1.1 1.4 0 .6-1 1-1.3.4-.3-.7-1.3-1-2-.6-.8.3-1.3 1-1.6 1.6zM382.8 239l.3-3c0-.3 0-.6.2-.9.3-.4.8-.5 1.3-.6 2.4-.4 4.8-.8 7.3-.4-1.8 2-5.8 1.1-7.2 3.4l1.3 1.3c1-.6 2.2-1 3.4-1 .7-.1 1.6.3 1.3.8-.1.3-.4.4-.7.4l-3.5 1c-.8.2-1.3 1-1.4 1.8-.1.9.1 1.7.3 2.5 1.4-1.3 2.9-2.4 4.5-3.2l.7.7-2.6 3.2c-.6.8-1.4 1.7-2.5 1.6-1.2 0-1.9-1.4-2.2-2.5-.4-1.7-.6-3.4-.5-5.1zM343.2 202.7c-.1.4.2.7.5 1l3.5 2.9c-2.7.2-5.5-1-7.2-3-.2-.3-.7-.3-1 0-.2.3-.2.8-.2 1.1.1.8.5 1.6.7 2.3.1.8 0 1.7-.6 2.2-.6.5-1.8 0-1.8-.7a27 27 0 00-.5-7.7c-.2-.9.5-1.7 1-2.4 1.2-1.2 2.6-2.5 4.2-2 1.2.2 2 1.5 2 2.7.2 1.2-.2 2.4-.6 3.6zm-1-3.9l-.4-.7c-.6-.6-1.6 0-2 .6-.4.7-.4 1.6-.8 2.3.3 1 1.7 1.1 2.5.5.7-.6.9-1.7.7-2.7zM355.3 399c.9.6 2.3-.3 3.2.4-.4.7-1.3 1-2 .8-.6-.3-1.4.5-1.4 1.2s.3 1.4.6 2.1c.2.7.3 1.6-.2 2a4 4 0 01-1.9-4.2c0-.4-.4-.7-.8-.6-.4.2-.6.5-.8.8l-2.9 4.8c-1.1-.5-1-2.2-.8-3.4.7-3 1.6-6 2.6-9 .3-.6.8-1.5 1.5-1.4.4 0 .7.3 1 .6.7.9 1.2 2.1 1.2 3.3 0 1 0 2 .7 2.6zm-4.3.2c.9-1.3 1.5-2.8 2-4.3v-.4c-.1-.3-.5-.4-.8-.2-.2.1-.3.4-.4.7a13 13 0 00-.8 4.2zm2.3-1.1c-.5-.1-1 .4-1 .9s.8.8 1.2.5c.4-.4.3-1.1-.2-1.3v-.1zM322.5 246.3c.8-1 1.8-1.9 3-2.5h.4c.3 0 .5.4.4.7-.1.3-.4.5-.7.8-.8.7-1.4 1.7-2.2 2.5-.8.7-2 1.3-3 .8-1-.4-1.4-1.6-1.6-2.7-.5-2.9.3-5.8 1-8.7.2-.3.4-.7.7-.6 1.8.4 3.8-.2 5.6-.5l1.1.1c.3.2.3.8 0 .9l-3.7 1c-.8.2-1.8.4-2.1 1.2-.4.8.5 2 1.2 1.5 1.4-1 3.2-1.2 4.8-.6a8.6 8.6 0 01-4.7 2.5c-1 .2-2 1.2-2 2.3 0 .5.1 1 .5 1.3.4.3 1 .3 1.3 0zM314.1 245c.4 0 .8-.3 1.2-.2.4 0 .8.4.6.8 0 .2-.2.3-.4.5l-2.7 1.8c-.4.3-1 .7-1.5.8-1.8.5-3.6-1.4-3.6-3.3 0-.5.2-1 .6-1.4l-.4-.5c.7-1.3.7-3 0-4.4.2-.5.4-1 .8-1.5.4-.3 1.2-.4 1.5 0 .6.7 1.7.8 2.6.6 1-.2 1.9-.6 2.8-.5.3 0 .6.1.8.4.2.2.1.7-.2.7l-5.1 1.3-.6.3c-.1.4.4.7.8.7 2.2.1 4.3-1.8 6.3-1-1 1.8-3.5 1.8-5.4 2.3-1 .2-2 .7-2.1 1.7l.4.7c-.7 0-.8 1.2-.1 1.5.6.3 1.4 0 2-.3l1.8-1zM305 436l.2-1.5.8-4.5c.1-1.1.4-2.3 1.3-3 .8-.8 2.5-.6 2.7.5a39 39 0 002.5 8.4c1.2-2.7 2-5.6 2.4-8.6 0-.4.7-.4.9-.2.3.3.2.7.2 1.1-.2 2.9-.9 5.8-2 8.4-.3.6-.6 1.2-1.1 1.5-.5.3-1.4.3-1.6-.3a25.5 25.5 0 01-2.6-10 9.2 9.2 0 00-1.5 5.3c0 1.7-.3 3.3-1.2 4.8a3 3 0 01-1-2zM353.9 66a7 7 0 012.7-.8c1.4-.2 3-.4 4 .7.9 1 .6 2.7.2 4l-.6 2.1c-.2.7.3 1.4.7 2 .4.6.5 1.5-.1 1.8 0-.6-.7-1-1.3-.9-.6.2-1.1.6-1.7 1-1.3.6-3 .4-4.2-.3a4 4 0 01-1.1-.7c-1.3-1.3-1.3-3.4-.8-5 .3-1.6 1-3 2.2-3.9zm2.2 4.2c.9-.6 2.3-.2 2.6.8.3-.8.7-1.6.8-2.4 0-.8-.3-1.8-1.1-2-.8-.2-1.5.3-2.2.5-1 .1-2.4 0-2.5 1-.2 1-.5 2.2-.5 3.3 0 1.1.4 2.3 1.2 3 .4.3.8.5 1.2.5 1 .1 2-1 2-2 .1-1.1-.6-2.2-1.5-2.7zM372 306.6c0-.5.8-.6 1.3-.5 1 .3 1.8.2 2.8.4.9 0 1.8.4 2.4 1.1.5.8.5 2-.2 2.5-.4.2-.2.8 0 1l1.2.6c1.4.8 1.4 3 .4 4.2-1 1.2-2.6 1.7-4 2.2-.8.3-1.6.5-2.3.4-.8-.1-1.5-.8-1.5-1.5v-6.4c0-.6 0-1.2-.3-1.6-.3-.3-.8-.5-.8-1 0-.6 1-.8 1-1.4zm6.6 8.6c.9-.7.3-2.3-.8-2.6-1-.4-2.1.1-3.2.6l-.7.4c-.2.3-.2.7-.2 1v2c0 .3 0 .6.3.7h.4c1.5-.5 3-1.2 4.2-2.1zm-4.8-7.3c-.2.2-.5.4-.5.7v.5l.6 2.7a7.6 7.6 0 003.7-2.9 2.8 2.8 0 00-3.8-1zM419 434.8v.4a6 6 0 01-3.5 4.7c-1.2-.1-2.3-.9-2.8-2-1.1-2.4.9-5 .9-7.7 0-.6-.1-1.4.3-1.8.7-.6 1.8 0 2.5.6 1.7-.6 3.7-.6 5.4-.2-1.7 1.7-4.9.8-6.5 2.6l-.2.5c0 .5.8.5 1.3.4l4.6-1.4c.4.4 0 1-.5 1.4-1.3 1-2.9 1.6-4.5 1.8-1.1.2-.3 2.4-1.4 3l1 .8 2.2-2.8c.3-.4 1-.7 1.2-.3zM356.4 413.9l.5 2.4c0 .4.2.8.6.8.3 0 .4-.5.4-.9v-4.8c0-.5.1-1.1.6-1.3.4-.2.9.1 1 .5.2.4.2.9.2 1.3l-.6 6.9c-.2 1.4-.4 3.2-1.7 4-1.4-3.4-2.3-7-2.8-10.7 0-.5-1-.6-1.4-.2-.4.4-.5 1-.5 1.6l-.6 6.2c0 .9-.2 1.9-1 2.3-.8-.3-.9-1.5-.8-2.4.2-2.1.5-4.2 1-6.3.2-1.4.8-3 2.2-3.2.9 0 1.7.5 2.2 1.3.4.7.6 1.6.8 2.5zM425 470.9c0 .7-.2 1.5-.8 1.8-.7-.2-.8-1-.8-1.8v-6.3l.1-1.3c.3-.6.8-1 1.3-1.3.4-.3.8-.6 1.3-.6.4 0 1 .2 1 .7.3 2.3.8 4.5 1.6 6.6.2.5.4 1 .8 1.2.4.2 1.1 0 1-.6 0-2-.2-4-.4-6 0-1 0-2 .5-2.6.6.1.8 1 1 1.6l.5 5.7c.1 1.4 0 3.1-1.2 3.6a2 2 0 01-1.5 0c-1.5-.7-2.2-2.3-2.6-3.8-.4-1.5-.5-3-1.2-4.5 0 2.6-.1 5-.5 7.6zM390.7 495c-1-1.1-1.1-2.8-1.2-4.4v-4.1c0-1.2 0-2.6.9-3.4.7-.6 1.8-.7 2.7-.4 1 .3 1.7 1 2.4 1.7.4.4.8 1.3.3 1.6-.5.2-.4 1 0 1.3.5.4 1.1.5 1.5 1 .5.6.2 1.5 0 2.2-1 2-2.5 3.7-4.4 4.8l-.9.3c-.5 0-1-.2-1.3-.6zm5.4-5.7c-.8-1.1-2.6-.7-4 0-.2 0-.5.2-.7.5-.2.2-.2.6-.2 1l.1 3.1c2-1 3.7-2.6 4.8-4.6zm-5.5-2.3l.4.4c.3.1.6 0 .9-.1l1.4-.7c.6-.3 1.3-1 1-1.6a2.1 2.1 0 00-2.7-.7c-1 .5-1.3 1.7-1 2.7zM383 452.9c-.5-.6-1.5-.3-2 .2-.6.6-.8 1.4-1 2.2-.2.7-.4 1.5-1 2-.5.4-1.3-.1-1.3-.7-.1-.6.2-1.2.3-1.9.1-.6 0-1.3-.6-1.5-.6-.2-.2-1.1.3-1.3.6-.3 1.3-.3 1.5-1l2.1-5.9c.3-.6.7-1.4 1.3-1.3.6 0 .8.8 1 1.4l.5 2.6 2 8.6v1.1c-.1.4-.5.8-1 .7l-1.6-4.4c0-.3-.2-.6-.4-.8zm-1.4-3.5c-.2.4-.4.9-.3 1.3 0 .5.6 1 1 .7.2 0 .3-.3.4-.4.7-1.3.5-3-.6-4 0 .8-.2 1.5-.3 2.3h-.2zM317.2 401.3c0 .5 0 1-.4 1.4-.3.4-1 .6-1.4.3-.3-.4-.2-.8-.2-1.3l.6-4.2c.1-1 .3-1.9.8-2.7.4-.7 1-1.3 1.8-1.6 1 .2 1.2 1.4 1.4 2.3l1 7c0 .5.5 1.2.9.9l.2-.5a58 58 0 001.4-7.7c0-.5.8-.6 1.1-.2.4.4.4.9.4 1.4-.2 2.7-.9 5.4-2 7.9-.4.8-1 1.6-1.8 1.4-.4-.1-.7-.5-.9-.8a10 10 0 01-1.4-5.1c0-1.5.2-3.2-.9-4l-.6 5.5zM403.7 469.5l-1.8-5.4c-.1-.2-.5-.2-.6 0-.2.2-.2.4-.2.7l-.7 7.6c0 .5-.2 1-.5 1.3-.4.3-1 0-1-.4v-4.7c-.1-1.7 0-3.5.7-5 .3-.6.8-1.2 1.5-1.5.7-.2 1.6.1 1.8.8l2.5 7c.1.4.3.9.7 1 .3.3 1 .1 1-.3l-.1-7.7c0-.5.3-1.3.8-1.1.5.2.2 1 .2 1.4 0 .4.4.8.6 1.2.1.4 0 1-.5.9.6.4.6 1.2.5 2l-.5 4c0 .8-.5 2-1.4 1.8-1.6-.2-2.4-2-3-3.6zM438 463c-.3.8.6 1.6 1.4 1.7.9 0 1.7-.3 2.5-.7.3-.1.6.3.5.6 0 .3-.4.5-.7.7l-4.2 2c.5.8.8 1.7.7 2.7l4.6-3.8c.5.5.2 1.4-.2 2-1.3 2-3.1 3.5-5.2 4.5-.7.4-1.2-.6-1.3-1.4-.3-3-.3-6-.2-9 0-.4 0-.7.3-1l.6-.4c2.4-1 5.2-1 7.6 0l-4.4.8c-.8.2-1.8.4-2 1.3zM431.9 314.9l-1.2 1.3c-.9 1-2 2.2-3.4 1.9-1-.2-1.7-1.3-1.8-2.3-.2-1 0-2.1.1-3.2.1-1.6 0-3.2-.5-4.7-.2-.7.8-1.2 1.5-1.3 3-.6 6-1 9-.4l-6.1 2c-1 .2-2 .6-2.3 1.5v.8c.4.4 1 .4 1.4.3l4.6-.6c-1 1.7-3.1 2-5 2.3-.9.1-1.1 1.2-1 2 0 .9.4 1.9 1.2 1.8l.7-.5 3.3-3.3c.6.6 0 1.7-.5 2.4zM403.6 493.7c.4-1.4.2-3-.6-4.2-.1.8-1.3.5-1.9.9-.5.2-.7 1-.7 1.6 0 .6.2 1.2 0 1.8 0 .6-.7 1-1.3.8-.4-.2-.6-.8-.6-1.2-.1-1.5 0-2.9.2-4.3.1-1.1.3-2.3 1-3.2.6-1-.2-2.5.5-3.4.5-.6 1.3-.6 2-.6.6 0 1.3 0 1.7.5l.3.7c.8 3.1 1.2 6.3 1.2 9.5 0 .6 0 1.3-.5 1.7-.5.4-1.4 0-1.3-.6zm-.4-7.2v-2c0-.3 0-.6-.2-.8-.4-.4-1.1-.1-1.4.4-.2.5-.1 1 0 1.6 0 .5 0 1.1-.4 1.5-.2.8.8 1.5 1.5 1.1.5-.4.6-1.1.5-1.8zM392 74.7a14 14 0 01-4.9-2.6c-.2-.2-.6 0-.8.2l-.1 1c0 .4 0 1-.3 1.4-.2.4-.8.7-1.2.5-.5-.3-.6-1-.6-1.5v-8.5c0-.3 0-.6.3-.8.3-.2.8.2.8.6l-.1 1.3c0 .4.3 1 .8.8.4-.1.4-.7.4-1.1.2-1.6 2-2.6 3.4-2 1.4.6 1.9 2.7.8 3.8-1 1-2.9 1.1-3.7 2.4 2.2.9 4.2 2 6.1 3.3l.6.6c0 .7-1 .8-1.6.6zm-3.3-9.6c-1.1.4-1.7 2-1 3.1l2.4-2.4-1.4-.7zM284.5 71.9c.2-1 .6-1.9 1.1-2.7.6 1 2 .6 3.1.2.7-.3 1.4-.6 2.1-.4.7 0 1.4.7 1.3 1.4 0 .8-1 1.6-.6 2.3.2.3.6.4.9.6 1.2.6 1.4 2.4.8 3.6-.6 1.2-1.8 2-3 2.8-.8.5-1.7 1-2.7 1.1-1 0-2-.7-2-1.6v-5.8c0-.7-.3-1.6-1-1.5zm3 7.7c.2 0 .4 0 .6-.2 1.1-.7 2.1-1.5 3-2.4.5-.4 1-.9 1-1.5 0-1.1-1.6-1.5-2.7-1.1-1.8.7-2.9 2.8-2.3 4.7 0 .2.2.5.4.5zm2.2-9.2c-1 .1-2.2.4-2.8 1.2-.7.8-.5 2.3.5 2.6l3.5-3.5c-.3-.3-.8-.3-1.2-.3zM372 88.8c0 .4-.2.7-.4 1-.2.6 0 1.1 0 1.7 0 .5-.1 1.2-.7 1.3-.4.1-.8-.1-1-.4-2-1.8-2.4-5-4.2-6.9-.2 2.6-.2 5.2 0 7.7 0 .6-1 .8-1.3.4-.4-.4-.5-1-.5-1.6v-6.3c0-1.3.2-2.9 1.4-3.3 2 1.8 3.4 4.1 4.3 6.6 1.3-2-1.2-4.8.1-6.7 1.6 1.7 2 4.2 2.3 6.5zM364.5 430.9c.1-.4-.3-.6-.4-1-.2-.3 0-.7.2-1 .4-.6 1-1.4 1.7-1.4.4 0 .7.2 1 .3 1.9.6 4.2-1.2 5.7 0-2 1.3-4.8 1-6.3 2.9-.4.5-.5 1.6.2 1.6l.5-.1 3.3-1.4c.3-.2.6.2.6.5s-.2.6-.5.8c-.9.7-2 .9-3 1.3s-2 1.2-2 2.3c-.1.6.6 1.4 1 .9l2.6-2.6c.4-.4 1.2-.7 1.4-.2l-.1.5c-1 2-2.6 3.8-4.5 5-.8.5-2-.2-2.3-1-.4-1-.2-2 0-3l1-4.4zM332 413c.6-1 1.3-2.1 2.3-2.8 1-.7 2.4-1 3.3-.2.8.7 1 2 .7 3a5.3 5.3 0 01-3.5 3.8l4.2 1.6c.1 0 .3 0 .3.2.3.3-.3.7-.8.7-1.2 0-2.4.1-3.6-.2-1.1-.3-2.3-1-2.8-2-.4.4-.3 1-.4 1.6 0 .5-.4 1.2-1 1.1-.6 0-.7-.9-.6-1.5l.6-6.3c.1-.7.2-1.6.9-2l.5 3zm1.5 2c1.8.2 3.6-1.2 3.7-3 0-.6-.5-1-1.1-1-.6 0-1 .4-1.5.8-.6.6-1.1 1.3-1.5 2-.2.4-.3.8 0 1 0 .2.2.2.4.2zM377.9 105.2c-.8-.2-1-1.2-.8-2 .2-.8.8-1.4 1.4-2 1-1 2.3-2 3.7-2 .6 0 1.3.1 1.6.6.3.4.4 1 .4 1.5 0 2-1 3.9-2.5 5.1-.7.5-1.5 1.1-1.3 2l5.6-1c.4 0 .9-.1 1.2.2.3.4.1 1-.3 1.3-.3.3-.8.3-1.3.4-2.2.4-4.4 1-6.5 1.8-.5.2-1.1.4-1.6.1-.5-.3-.7-1-.5-1.5.1-.6.5-1 1-1.5l3.6-4.2c.4-.5 1-1 1-1.7s-.5-1.5-1.1-1.4c-.3 0-.6.2-.8.4a9.6 9.6 0 00-2.8 4zM298.8 421.4c-1.3-.6-1.6-2.4-1.4-3.8.2-1.4.8-2.9.4-4.3l-.3-1.2c0-.5.4-1 .8-.9.3.6 1.2.6 1.7.2.6-.3 1-1 1.6-1.2 1.3-.6 2.8.7 3 2.2.2 1.4-.5 2.8-1.1 4 .9 0 1.8.3 2.6.6.3.1.6.4.6.7 0 .4-.6.6-1 .6l-5.4-.1c-.6 0-.8 1-.8 1.6.1.6 0 1.6-.7 1.6zm4.1-8.6c0-.3.1-.6 0-.8-.3-.4-1-.1-1.4.2-.6.4-1.2.8-1.5 1.4-.4.6-.4 1.5.2 2 .6.4 1.6 0 2-.6.6-.6.7-1.4.8-2.2zM429.1 494c-.9-.3-.9-1.5-.8-2.4.1-1-.2-2.3-1.1-2-.4 0-.6.3-.8.6-.8 1.2-1.3 2.4-1.6 3.7-.1.8-1.6.6-1.8-.2-.3-.8 0-1.7.4-2.4 1.2-2.6 1.9-5.3 2.1-8 .1-1.3 1.5-2 2.7-2.3h.4c.3.1.4.5.4.8l1 6.5c.3 1.3.1 2.6 0 4-.1.6-.3 1.3-.9 1.6zm-1.8-8.3c-.3.4-.6.8-.7 1.3 0 .5.2 1 .7 1.1.8.1 1-1 1-1.8 0-1-.2-2-1-2.7-.2.6-.2 1.3-.1 2l.1.1zM363.8 179.6c0 .3.2.6.4.8.2.2.7.2.7 0a4.3 4.3 0 01-.1-3.8c.3-.7 1.1-1.4 1.7-.9.3.3.3.8.2 1.2a446 446 0 01-.7 8.1c0 .5-.1 1-.4 1.3-.4.3-1 .3-1.2-.2-.4-2.4-.9-4.8-2.4-6.8-.2-.3-.6-.6-1-.4l-.2.6c-.7 2.6-.9 5.4-.7 8.1 0 .5-.6.7-1 .4-.4-.3-.5-.8-.6-1.3-.3-2.5-.1-5 .4-7.5.2-.8.5-1.6 1.1-2 1-.8 2.5-.1 3.2.9.3.4.5 1 .6 1.5zM380.2 76.6c-.1-.9-.3-1.7-.8-2.4-.4-.8-1.3-1.3-2.1-1.1-1.3.3-1.7 2-1.8 3.2 0 .5-.1 1-.4 1.2-.5.3-1.2-.1-1.4-.6-.2-.5 0-1 0-1.6l1.3-5.6c.4-2 1-4 2.6-5 .4-.3 1-.3 1 0l1 5.4c.2.6.4 1.2.9 1.3.5.2.9-.2 1.3-.4.5-.2 1.1-.2 1.2.3.2.5-.6.8-1.1.9-.5 0-1.3.5-1 1 .4.8.6 1.7.6 2.6 0 .4-.1.8-.4 1-.3.2-.8.2-.9-.2zm-3.7-4.7c.6.1 1.2-.3 1.5-.9.2-.5.2-1.2 0-1.8l-.7-1.5c-.5 1.3-.7 2.8-.8 4.2zM326.7 187.8c-.1.7-.6 1.6-1.3 1.4-.7-.3-.6-1.4-1.2-1.8.7-1 .5-2.3.5-3.5-.1-2 .3-4 1.1-5.7.4-.7.8-1.4 1.5-1.7.7-.3 1.7 0 1.9.7l2.3 8.9c.2.5.3 1 .2 1.6-.1.6-.6 1-1.2 1-.8-.1-1-1.3-1-2.1.2-.8 0-2-.8-2.2-.2.4-.8.4-1.3.6-1.1.3-1.5 2-.7 2.8zm.3-7c-.2.7-.4 1.6.1 2.2.5.6 1.8.4 1.7-.4l-.4-4.3c0-.2 0-.4-.3-.5-.3-.2-.6.3-.6.6l-.5 2.3zM379.5 294l.8.7c-.8 1-1.3 2.3-2.2 3.3-.9.9-2.5 1.4-3.4.6-.8-.7-.8-1.9-.7-2.9l.4-7.6c0-.2 0-.3.2-.4l.3-.1 7.5-1.2h1c.3.3.3.9 0 1-2.2.3-4.4.8-6.4 1.6-.3 0-.7.2-.9.5-.4.6.2 1.6 1 1.7.7.2 1.5-.1 2.2-.3.7-.3 1.6-.4 2.2 0a9.3 9.3 0 01-4.4 1.9c-1.1.2-1.3 1.8-1.2 3 0 .4.2 1 .7.9l.4-.3 2.5-2.5zM309.7 220.4c.7-1 1.9-2 3.1-1.8.8.1 1.5.7 2 1.3 1 1 1.6 2.3 1.5 3.7 0 .9-.3 1.8-.6 2.6-.4.9-1 1.7-1.5 2.5-.8 1-2.1 1.5-3.4 1.2a3.3 3.3 0 01-2.4-2.6c-.1-1 .1-2-.4-2.8.2-1.5.8-3 1.7-4.1zm4 .8a2 2 0 00-2.1-.3 2 2 0 00-1.1 1.9c0 .6-.5 1-.6 1.6 0 .8 1 1.5.7 2.2-.3.6.4 1.3 1 1.2.7 0 1.3-.6 1.6-1.2.5-.7.8-1.5 1-2.3.3-1 .3-2.3-.4-3zM323 94.2c-.8.3-1.8.3-2.6-.2-.8-.4-1.4-1.4-1.2-2.3.1-1 0-2-.1-2.8-.2-1-.6-1.9-.6-2.8 0-1 .6-2 1.6-2.1.8-.1 1.4-.6 2.1-.9 1.2-.4 2.6.2 3.4 1.2.9 1 1.2 2.2 1.3 3.5 0 2.7-1.3 5.6-3.8 6.4zm-1.8-2c.3.4 1 .5 1.6.3.5-.2.9-.7 1.2-1.1a6.7 6.7 0 001-4.4c0-1.1-.7-2.4-1.8-2.5-1-.1-1.8.6-2.1 1.4-.4.8-.3 1.8-.3 2.7l.1 2.4c0 .4 0 .8.3 1.2zM398.8 244.9c0-1.4-.2-2.8-.4-4.1-.3-1.1-2-1-2.6-.1-.6.9-.4 2.1-.2 3.2.1.7-1.1 1-1.7.5-.5-.6-.4-1.5-.3-2.2l.7-5.4c.2-1.7.5-3.5 1.7-4.6.3-.3 1-.5 1.2-.1l2 5.2c0 .4.2.8.6 1 .3.1.8 0 .8-.5.3 0 .5.4.4.7-.2.3-.5.4-.8.5-.3.2-.5.5-.4.8.6 1.3.8 2.8.6 4.2 0 .5-.1 1-.5 1.3-.4.2-1 0-1-.4zm-2.3-10.6c-.3.7-.5 1.5-.5 2.3 0 .8.2 1.8.9 2.2.7 0 .8-1 .6-1.7l-1-2.8zM371.8 324.8c2.3-.5 4.7-.8 7-.8a10.1 10.1 0 01-6.5 2c-.5 0-.8.7-.9 1.3v4.3c.1.8.3 1.8 1 2.2l4.3-3c.3-.2.8-.4.9 0v.3a8.4 8.4 0 01-3.9 4.2c-.8.4-1.8.8-2.7.4-1-.4-1.5-1.4-1.6-2.4-.2-1 0-2 0-3 .2-1.6 0-3-.3-4.5 0-1 .5-1.8 1.1-2.5a2 2 0 001.6 1.5zM425 348.7a2 2 0 010-2.7c-.6-.8-.8-1.8-.5-2.6.4-.9 1.7-1.3 2.3-.6.4.4 1 .3 1.6.2.6-.1 1.3-.3 1.7 0 .5.4.1 1.4-.4 1.2-1-.5-2.4-.2-3 .8-.6 1 .1 2.5 1.2 2.5.7 0 1.3-.4 2-.4s1.3 1 .8 1.3a1 1 0 01-.5.1l-2.4.3c-.6.1-1.1.7-1.3 1.3v2c.2.6 1 .7 1.6.3l1.1-1.4c.4-.5 1.3-.7 1.6-.1-1.2 2.1-3 4-5 5.2-1.6-1.3-1.6-3.7-1.4-5.7.1-.6.2-1.2.5-1.7zM320 359c.2 2.5.7 4.9 1.6 7.2.6-2 .6-4.1 0-6l.6-.9c.8.5.9 1.5.9 2.4l-.1 8.4c-.9 0-1.7-.7-2.1-1.4-.5-.8-.7-1.6-.9-2.5l-1.4-6.8c-.8 0-1 1-1.1 1.9l-.3 4.6c-.1 1.5-.3 3-.9 4.4-.8-.4-1-1.5-1-2.4 0-2.2.3-4.4.7-6.6.2-1 .4-2 1.1-2.8.5-.4 1.1-.7 1.7-.6.6 0 1.2.5 1.3 1.2zM379 466c-.7 1.4-1 3-1 4.6 0 .3.1.7.3 1l.7.4c2.3.9 5 0 6.4-1.9.3-.3.5-.9.1-1.1l-.5-.1h-3.4c-.5 0-1 0-1.2-.3-.3-.3 0-1 .4-.8 1.1.4 2.3-.1 3.5-.4 1.2-.2 2.8.2 3 1.4 0 .4 0 1-.2 1.3a27 27 0 01-2.1 4.4c0-.4-.3-.9-.7-1H383c-1.1.3-2.3.5-3.5.3-1.1-.2-2.3-.8-2.8-1.9-.3-.7-.3-1.6-.3-2.4a11 11 0 012-5.1c.5-.7 1-1.3 1.8-1.6.7-.4 1.7-.4 2.3.2.6.5.7 1.6 0 2.1 0-.8-1-1.3-1.9-1-.7.3-1.3 1.1-1.6 1.9zM398.8 428.5c.8-.3 1.7-.6 2.5-.2 1 .4 1.5 1.6 1.5 2.7.1 2.8-1.6 5.2-3.3 7.4l-1 1c-.8.5-2 .2-2.7-.6a4 4 0 01-1-2.8c0-2.2 1.3-4.3 2.4-6.3l.5-.7a3 3 0 011-.5zm-2 8.6c.2.4.8.1 1.1-.2 1.4-1.5 2.5-3.3 3.2-5.2.4-1-1-1.8-1.9-1.5-.9.4-1.4 1.4-1.6 2.3-.5 1.4-.6 2.9-.7 4.4v.2zM291.2 359c1.3-.5 2.6-.8 4-.5 1.7.5 3 2.1 3.3 4 .3 1.7-.3 3.6-1.4 5a6.8 6.8 0 01-5.6 2.8c-.6 0-1.2-.2-1.4-.7-.1-.2-.1-.5 0-.8l.3-8.6c0-.3 0-.7.3-1l.5-.2zm.3 2.7c-.3.8-.1 1.6 0 2.4l.7 3.4c0 .2 0 .4.2.5.2.2.4.1.6.1a5.2 5.2 0 003.8-6c0-.5-.3-1-.5-1.3a2.8 2.8 0 00-2.7-1.1c-1 .2-1.9 1-2.2 2zM362.5 361.1l4.1.5.5.2c.3.4-.2.9-.7 1l-2.5-.3c-.9 0-1.9.8-1.6 1.6.3 1 1.6.9 2.6.6l2.1-.7c.7-.2 1.9-.1 1.8.6-.7.7-1.7 1-2.7 1.1-1 .2-2 .3-2.8.8-.9.5-1.5 1.6-1.1 2.5.2.6 1 1 1.4.4a4.6 4.6 0 014-2.4c-1.3 2.1-2.8 4.3-5 5-.7 0-1.3.1-1.8-.1-.6-.3-1-1-.8-1.5.7-2 .9-4.3.6-6.4 0-1.1 0-2.6 1-2.9h.9zM371.8 198.7c-.5 0-1 .1-1.5.5-.4.3-.6 1-.2 1.3 1.9-.5 4-.5 5.9-.2a4 4 0 01-3.3 1.5c-.7 0-1.5-.2-2.1.2-.7.4-.8 1.4-.8 2.2 0 .5.1 1.2.7 1.4.3 0 .5 0 .8-.2l2.8-1.2c.5-.2 1-.4 1.5-.3.5.2 1 .8.7 1.2-.1.3-.4.4-.7.5l-5.6 2c-.3.2-.7.3-1 .2-.6-.2-.7-1-.7-1.5-.1-3.1.1-6.2.7-9.3 0-.5.3-1.2.9-1.1-.4.9.9 2 1.7 1.5 1.2-.7 2.7-.3 4 .2.1 0 .2 0 .3.2.3.3-.3.6-.7.7l-3.4.2zM440.3 176.9c.6 2.7 1 5.7-.6 8-.5.8-1.3 1.4-2.1 1.8l-.7.2c-.3 0-.6-.1-.8-.3-1-.8-1.3-2.3-1.4-3.5-.1-1.2-.1-2.3.2-3.4.4-1.4.8-2.8 2-3.7 1-.8 3-.5 3.4.9zm-2.4 8c.7-2.2 1-4.4.7-6.6 0-.5-.9-.6-1.2-.2-.4.3-.4.9-.4 1.4v3.5c0 .8.1 1.7.9 1.8zM395.5 372.4c-1-.2-1.2-1.4-1.1-2.4 0-2.6.3-5.2.8-7.8.1-.9.7-2 1.6-1.7 1.8.7 3.8.8 5.6 0l1.4.9-5.8 1.3c-.2 0-.4 0-.6.2-.7.5-.3 1.6.5 1.9.8.2 1.6-.1 2.2-.6.4-.3.9.1.8.6 0 .4-.4.7-.8.8l-1.3.2c-1.9.4-2.9 3-1.8 4.5a8 8 0 013.3-2.8c-.3 2-1.8 4-3.9 4.8-.3 0-.6.2-1 .1zM405 429.6c0-.5 0-1 .4-1.4.4-.3 1.2 0 1.1.4-.2 1.6-.1 3.3.4 4.9.2.4 0 1-.2 1.4-.2.4-.5.9-.3 1.3.1.5.9.7 1 .3l4.1-7.4c.5.1.9.6 1 1.1 0 .6-.2 1-.4 1.5-1 2.9-2.6 5.5-4.7 7.7-.4.5-1 1-1.7 1.1-.7.2-1.5-.3-1.5-1l.7-10zM399 326.1c.5.4.9 1 1.1 1.4.7 1.2 1 2.6.7 3.9-.4 1.7-1.9 3-3.3 4-.6.4-1.2.8-2 .9-.6 0-1.4-.5-1.4-1.2-.2-3.2-.6-6.5-1.4-9.7-.2-.6.9-1 1.6-.8 1.7.1 3.5.4 4.8 1.5zm-3.2 0c-.5 0-1.1.3-1 .8.1 1.8.4 3.6.8 5.4.1.7.3 1.4.8 2 1-1.3 2.3-2.4 2.7-4 .4-2-1.3-4.1-3.3-4.2zM348.3 206.9c-1.4-2 .4-4.7-.2-7-.2-.8.3-1.6 1-2 .6-.5 1.4-.6 2.2-.6 1.3 0 3 .2 3.4 1.4 1.2 3.1 0 7-2.8 8.8-1.1.8-2.8.5-3.6-.6zm1.3-4.2c0 .8.3 1.6.7 2.4.1.3.4.7.7.6l.4-.4 1.8-3c.3-1 .6-2 0-2.8-.6-.9-2-.8-2.8 0-.8.8-1 2-.8 3.2zM366.4 290.2c.4-1.4 1.2-3 2.7-3 1.2 0 2.1 1.3 2.1 2.5a7 7 0 01-1.2 3.4c.4.6 1 .8 1.7 1 .6.3 1.3.6 1.5 1.2.3.6-.4 1.5-1 1.2a254.3 254.3 0 00-4-1.9c-.6 0-1.2.2-1.5.7-.3.6 0 1.4.6 1.5-.6.2-.6.9-.6 1.5s-.4 1.3-1 1.1c-.3-.1-.4-.5-.4-.9-.4-2.8-.3-5.6-.3-8.4 0-.9.1-1.9 1-2.2 0 .8.2 1.6.4 2.3zm1.5-.3c-.5.7-1 1.8-.3 2.3.3.3.8.2 1.2 0 1.3-.8 1.4-2.8.3-3.8l-1.4 1.4.2.1zM329 206.4c0 1 .6 1.8.7 2.8 0 1-.8 2.1-1.7 1.7-.6-.2-.8-1-.8-1.6a48 48 0 010-10.2c.1-.2.4-.3.6-.4 1.5-.6 3.2-1.2 4.5-.3.5.3.9.7 1.1 1.2 1 1.7.6 4-.7 5.4-.8.8-2.1 1.4-3 .6-.3-.2-.7.3-.7.8zm-1-5.8c0 .6.8 1.2.5 1.7-.4.8.3 1.7 1 1.8.9.1 1.7-.4 2.2-1 .5-.7.8-1.6.5-2.4-.2-.8-1-1.5-1.8-1.4-.8.5-2.4.3-2.4 1.3zM392.2 463c-.3.7.4 1.6 1.1 1.6h2.8c.5 0 1.2 0 1.1.6 0 .4-.6.5-1 .5-.8 0-1.6-.2-2.3 0-.8 0-1.6.6-1.8 1.4-.1.7.8 1.6 1.5 1.2 1-.5 2-.9 3.2-1 .3 0 .8 0 1 .3.2.4-.4.8-1 1l-3.7 1.2c-1 .3-1 1.7-.9 2.7l.3.6c.3.3.8 0 1.1-.3l2.3-1.9c.3-.2.8-.5 1.2-.2.2.3 0 .7-.1 1-.9 1.4-2 2.6-3.5 3.4-.4.2-1 .4-1.5.4-.8-.1-1.5-.8-1.7-1.6-.3-.8-.2-1.7-.1-2.5l.4-5.5c.1-1.2.4-2.6 1.6-3zM371.5 242c.3-.8 1.4-1.2 2-.7 1.4.8 2.9 1.4 4.4 1.7.5-.3-.1-1-.6-1.1-1.4-.5-3-1.3-3.4-2.7-.2-.8 0-1.6.5-2.4a7 7 0 015.8-3.4c.6 0 1.2 0 1.5.5.4.4 0 1.3-.5 1.2-1.5-.3-3.2.2-4.3 1.3-.6.5-1 1.2-1 1.9 0 1.3 1.5 2 2.7 2.5 1.2.5 2.5 1.5 2.2 2.8-.4 1.3-2.2 1.4-3.5 1-2-.5-4-1.4-5.8-2.6zM289 113.5c-1.8-.2-3.6-1.7-4-3.6-.4-1.6.1-3.4.7-5 .4-1.3 1.2-3 2.7-3 .5 0 .9.2 1.3.4 1.1.4 2.3 1 3 2 .4.8.5 1.8.4 2.8a9.4 9.4 0 01-3 5.8c-.2.3-.6.6-1 .6zm.9-3c1.2-1.2 1.8-3 1.5-4.6-.1-1.3-2.2-1.2-3-2.3a6 6 0 00-1.5 6.4c.2.5.5 1 1 1.2.7.3 1.4-.2 2-.7zM391.8 177c.6 1.9.8 4.2-.6 5.4 1.1.4 2.3 1 3.2 1.7.5.3.9 1 .4 1.3-.3.2-.6 0-.8 0l-3.8-1.7c-.7-.2-1.6-.5-2 0-1 1 .8 3-.3 3.7-.5.3-1.1 0-1.4-.5a3 3 0 01-.3-1.6l.2-7.5c0 .6 1 .6 1.4 0 .4-.5.4-1.2.7-1.8.4-.8 1.6-1 2.4-.5.5.3.7 1 1 1.5zm-1 2.9v-2.2c0-.2 0-.4-.2-.5-.1-.4-.8-.5-1.1-.2-.4.3-.6.7-.7 1.2-.3.7-.6 1.6-.3 2.3.2.8 1.3 1.3 1.9.8.3-.4.3-1 .3-1.4zM312 362.3c.4 1.3 0 2.8-.6 4-.7 1.5-2 2.8-3.3 3.7-.9.5-2 1-3 .6-.9-.3-1.6-1.5-1-2.3 1.4-2 0-4.7.4-7 .1-.8.6-1.7 1.4-2 2.4-.5 5.4.6 6.1 3zm-4.2-2c-.9 0-1.8.8-1.8 1.7 0 .6.4 1.1.6 1.7.2.5 0 1.3-.5 1.4.5.1.7.7.6 1.3 0 .5-.2 1-.1 1.5s.8.9 1.1.6c1.3-1.3 2.6-2.7 3-4.5.2-1.7-1-3.8-2.9-3.7zM373.1 89c.2-.3.3-.6.6-.6.4 0 .6.3.6.7v1c.2.9 1.3 1 2.1 1l2.9-.1c-.8-1.2-2.7-1.3-3.5-2.5a3 3 0 01-.5-1.8c0-2.3 1.8-4.4 4-5 .5 0 1 0 1.3.3.4.3.2 1-.3 1-.9-.2-1.6.6-2.2 1.3-.6.8-1.3 1.9-1 2.9.7 1.6 3.5 1.1 4.4 2.6.8 1 0 2.6-1.3 3.2-1.2.5-2.6.3-3.8 0-.5 0-.9 0-1.3-.2-.8-.1-1.8-.3-2.3-1-.4-1 0-2 .3-2.8z"/>
  <path fill="#00EBAB" d="M13.9 70.5L9 69.8l6-1.8c-2.6 0-4-4-2-5.7 2-1.7 5.7.5 5.2 3l-9.6-2.1C91.3 61 174 61.8 256.4 65.4l5-4.2.6 5.7 5.4 1-5.9 1.7.8 10 12.6-.7c-2-2.7-3-6-2.8-9.3 7.5 4.8 8.2 17.3 1.2 22.9-.3-3.5.2-7 1.6-10.2l-13.1 2.5 1.6 69c-1.3-.2-2.6.5-3.3 1.6-67.2-.1-134.5 1.3-201.7 4.2l1.7 265.8 200.5-2a8.8 8.8 0 01-3.1-7.8c5 3.5 9.8 7.4 14.1 11.6A44 44 0 01261 442l2.2-9.8c-65 1.8-130 3-194.9 3.9-1.7 0-3.6-.1-4.6-1.4-1-1.3.2-3.9 1.7-3.2l-8.2-.5c1.2 2 0 5.1-2.3 5.8l-1.4-41c.7-.3.4 1.4-.3 1.1-.8-.2-1-1.1-1-2l-3.6-235.4a121.6 121.6 0 00-31-1.7l-1.1 7-1.8-7.2c-4.8 1.2-10-.2-13.7-3.5 3.2.5 6.5 1 9.6 0 3-1 5.7-4.1 5-7.3A227 227 0 0114 70.5zm92.5-2.6c-2.9 0-5.7.1-8.6.3l-11.9.9c25 .8 50 1.7 74.9.9l-38-1.3c-2.3 0-4.6-.1-6.9-.6-2.7-.5-5.5-1.5-8.1-.6-.5.1-1 .4-1.4.4zm157.3 363.9l2.5-3.4a7.3 7.3 0 00-6.5-3.8c-45.2 1.7-90.5-.2-135.7 1.5-1 0-2.2 0-3 .7 19.4.6 38.9.8 58.3.6h5l49.6-.6c9.7 0 19.3-.2 29-.5a2 2 0 002 1.2l-1.2 4.3zM64.2 152.4l-5 1.3c66.5-2.5 133-3.6 199.4-3.2l-2.5-77.7-54.1-2.5 51.9.7c1.1 0 2.6-.3 2.7-1.4l-93.9.3H147l-126.3.4c-.8 0-1.8.1-2.2.8-.2.4-.2.8-.2 1.3-.1 26.4.4 53 1.6 79.4l22.2.4c3 0 6.5-.2 8-2.8l1.3 2.9c1-1.6 3.5-2 4.9-.6.5-1.3 1-2.6 1.7-3.9a6 6 0 006.3 4.6zM58 301.6a1050 1050 0 00-.9 73.6c0 .6.1 1.4.6 1.7.7-24.3 1.4-48.7 1.6-73 0-1-.3-2.3-1.3-2.3zM110.8 434c26.5-.6 52.9-1 79.3-1.2.8 0 1.9-.1 2.1-1-18.8-.2-37.7-.1-56.6.3-8.3.3-16.6.5-24.8 2zm4.7-2a460 460 0 00-39 .3c-3 .1-5.8.3-8.6.8 1.5 1 3.4 1 5.3 1 14.1-.2 28.3-.4 42.3-2zm12.2-279.7a890.7 890.7 0 00-10.5.8c18.3.5 36.6.4 54.9-.3a289 289 0 00-44.4-.5zm9.2-86.7l-9.6.4c4.8 1 9.7 1.2 14.6.3 1.7-.3 3.4-.4 5.2-.4l26-.7c-.2-.6-1-.8-1.7-.8-8.9 0-17.8 0-26.7-.2-.9 0-1.8 0-2.6.5-1.6.8-3.4.9-5.2 1zM52.3 229.3c-.7-.5-1.3.7-1.3 1.4v45c0 .3.6.3.8 0 .3-.2.3-.6.3-.9v-21.5l.2-24zm34-163.9l30.7.1c1.3 0 2.7 0 4-.2a16 16 0 003.7-.8l-27.2-.1a41 41 0 00-11.2 1zm33 361.4c-1.3-.5-2.7-.5-4.2-.5h-4.3l-18.5.1c-.8 0-2 .2-2 1 2.4 0 4.9 0 7.3.3l2.8-.1 9.2-.3h2.7c2.3-.4 4.7-.5 7-.5zM13.1 107.4c-.3.6-.3 1.4-.3 2.2.3 9.6 1 19.2 2.3 28.7.5-1.6.4-3.3.3-5l-1.7-19.5-.3-3.5c0-1-.2-2-.3-2.9zm-.2-.9c.3-.5.3-1 .4-1.7.4-8.2.6-16.4.7-24.6 0-.7 0-1.5-.3-2.2-.8 1.2-.8 2.7-.8 4v24.5zm45 188.2c0-.7.2-1.3 0-2-.2-.6-.6-1.4-.1-2 .4-.4 0-1.2-.2-1.8-.2-.6-.1-1.6.5-1.7-.4-.3-.6-.8-.5-1.3.3-1 .2-2.2.1-3.2l-.2-3.2c0-.4-.3-1-.7-.8-.1 0-.2.1-.2.3-.8 1.8.9 4 .2 5.9-.2.5-.5 1.3 0 1.6.9.4-.9 2 0 2.5.6.5-.2 1.6-.1 2.4l.5 8 .7-4.7zM60.7 428c0 .4.5.6 1 .6H75c.8 0 1.8-.1 2.2-.9-1.4-.8-3.2.6-4.9.3-3.5-.6-7.2-.8-10.8-.4-.3 0-.7.1-.8.4zm-8.5-235.2L52 204c0 1.6 0 3.3 1 4.4l.2-5.7c.1-3.3.2-6.8-1-9.9zm1.5-23.4c.4-.4.4-1 .4-1.6l-.5-7.4c0-.7-.2-1.6-.9-1.7-.2 4 0 8 .8 12l.8-.8-.5-.5zM164 67.2l-6.5-.1c-1.7 0-3.6 0-5 1l6.5.2c1.8 0 3.6 0 5-1.1zm-106.5 101c-.5-.5-.3-1.5-.1-2.2.4-2 .3-4 .2-6 0-.3 0-.7-.4-.8-.4-.1-.6.5-.6 1-.1 3.5 0 7 0 10.7l.9-2.7zm38-12.6c1.8.6 3.9.6 5.8.1a58 58 0 00-14.4-.7c1.9 1 4.3 0 6.3.6.8.3 1.8.7 2.2 0zm-42.7 116l-.1 6.2c0 1.3 0 2.7 1 3.6.4-2.3.3-4.6-.4-6.8-.2-.6.2-1.2.4-1.7.1-.6-.3-1.4-.9-1.2zm22-114.6c.7-.5 1.6-.5 2.5-.5H84c.4 0 .8 0 1-.3.1-.6-.7-.8-1.3-.8a2371 2371 0 00-9.1 1c-.2.2-.1.6.2.6zm38.4-2c.6 0 1.3 0 1.7-.4a54 54 0 00-9.9-.8c.5.8 1.6 1 2.5 1l5.7.1zm147.5-10.6l-.3 4.4c0 .8.1 1.8.9 2.2.6 0 .7-.9.5-1.5l-1.1-5zM52.8 210.1c-.2.1-.2.5 0 .8l.6.6c.5.6.4 1.5.3 2.3 0 .8.1 1.8.9 2.1.3 0 .2-.7 0-1-.2-.3-.5-.7-.3-1 .8-1.3 0-3.4-1.4-3.8zm.7 87.7c.4-1 .4-2.3 0-3.4-.2-.8-.6-2 .2-2.3 0-.4-.5-.5-.8-.3-.2.3-.3.6-.3 1 0 1.7-.1 3.6.9 5zm3.2 119.7c-.4 2.8-.5 5.7 0 8.5l.5-5.4-.5-3zm-3-113l-.5-.6c.7-.2.6-1.3.3-2-.3-.8-.5-1.8.2-2.3 0-.3-.6-.4-.8-.1-.3.2-.3.6-.3 1v3.2c0 .4 0 .7.3 1 .2.3.8.2.8-.2zm-1.8-18.2c0-.8 1-1.1 1.5-1.7.7-.8.4-2.3-.7-2.6a3 3 0 01-.4 2l-.7 1.1c-.2.4-.1 1 .3 1.2zM46.8 64c-.3.2-.2.7.1.8.3.2.6.2 1 .2 1.1 0 2.4-.1 3.1-1a20.8 20.8 0 00-4.2 0zm5 161l-.6-2a16 16 0 000 5.5c1-.7.8-2.3.5-3.5zm5 181.6a8.9 8.9 0 00-.3 3.5c0 .5 0 1.1-.5 1.2l.8 1.5c.4-2 .3-4.1 0-6.2zM17.4 147.2c-.3 1.4-.3 3 0 4.4.8-.2 1-1.3.9-2-.2-.9-.7-1.6-.9-2.4zm32.3 18.7c.4-1.8.4-3.8 0-5.7-.3 1-.4 2.1-.6 3.2l.5 2.5zm3.2 124.2c.3.1.8-.1.9-.5 0-.3 0-.7-.2-1l-.7-2.4c-.3 1-.4 2-.3 3.2 0 .2 0 .5.3.7zm-.3 17.2c.3-.8-.2-1.6-.9-2l-.2 2.5c0 .3.1.8.5.9.5.2.7-.8.6-1.4zM87.4 67.4c1.9.4 3.8.4 5.7 0-1.8-.5-3.8-.5-5.7 0zM52.8 269.2c-.2.4-.3.9-.2 1.3.1.4.7.7 1 .4.2-.2.2-.4.2-.6 0-.7-.3-1.5-.9-2-.2.1-.3.5-.2.8v.1zm155 159.1c1.6.4 3.2.4 4.7 0a8.2 8.2 0 00-4.6 0zm-9 0a8.2 8.2 0 00-4.5 0c1.4.4 3 .4 4.6 0zm-96.8 2.5l2.6-.2a5.7 5.7 0 00-4-.2c.4.4.9.5 1.4.3v.1zm136.3 0l2.5-.3c-.9-.1-1.7-.4-2.6-.8l-.8.8.8.4zm-51.5-365a6.3 6.3 0 00-4 0c1.3.4 2.8.4 4 0zm-130.2 207l.7 2.1.3-1.2c0-.5.1-1.1-.3-1.4-.3-.4-1.1.2-.8.5h.1zM13.1 156.6c.5.2 1 0 1.4-.3a7.1 7.1 0 00-4 0c.9.4 1.8.5 2.6.3zM53 263c.5-1 .5-2.3 0-3.4-.4 1-.4 2.3 0 3.4zm13.2-105.7l.8-.4a4.9 4.9 0 00-3.4 0c.8.3 1.7.4 2.5.3zm136.4 271.1c1 .4 2.3.4 3.4 0-1-.4-2.3-.4-3.4 0zM52.9 266.7c.5-1 .5-2.3 0-3.4-.4 1-.4 2.3 0 3.4zm-.7 47.1c0 .5 1 .3 1-.2s-.5-.9-.9-1.1c-.2.4-.3.9-.2 1.3h.1zM38.8 66.1l.8-.3c-.9-.5-2-.5-2.9 0a3 3 0 002 .2v.1zM243 430.5c.8.4 1.9.4 2.7 0-.8-.3-1.7-.4-2.5-.3l-.2.3zM51.6 301.3c-.2.6-.1 1.4.2 2 .4-1 .5-2 0-2.9-.2.2-.4.6-.2.9zm18.7-144.9l-.8.4c.9.4 2 .4 2.9 0a3 3 0 00-2-.2v-.2zM52 276.5c-.5.6-.5 1.6 0 2.2.2-.6.3-1.3.2-2l-.2-.2zm204.4-122.2c.6.2 1.3.1 2-.2-.7-.5-1.7-.5-2.3 0l.3.2zM51.6 281.7c-.2.4 0 1 .2 1.4.4-.7.4-1.6 0-2.3-.2.2-.3.5-.2.8zm28-214c.4 0 .6-.2 1-.3-.8-.4-1.7-.4-2.4 0 .4.3 1 .4 1.4.3zM56.9 414.6c-.5.6-.5 1.5 0 2.1.2-.6.3-1.3.2-2l-.2-.1zm12.5 16.4l.8-.4-.8-.8-.9.8.8.4h.1zM52.1 298c.1-.5 0-1-.3-1.4-.4.7-.4 1.6 0 2.3.3-.2.4-.6.3-.9zm50.4-143.7c.5.2 1 0 1.4-.2-.7-.5-1.6-.4-2.3 0l.9.3zM54.2 392.5l-.7-1.5c-.6.4-.3 1.6.5 1.7l.2-.2zm17.5 38c.7.4 1.6.4 2.3 0-.7-.4-1.6-.4-2.3 0zm4.7.4l.8-.4c-.6-.4-1.6-.4-2.3 0 .4.3 1 .4 1.4.2l.1.2zm178 .6c.6.5 1.6.5 2.2 0-.6-.2-1.3-.3-2-.2l-.2.2zm6.2-353c.5-.6.5-1.6 0-2.2-.3.7-.4 1.3-.2 2l.2.2zM116.7 155l.9-.3c-.5-.5-1.3-.5-1.8 0l.9.3zM57.8 380c.4-.4.4-1.1 0-1.6-.4.5-.4 1.2 0 1.7zM56 267c.2.3.9.3 1.1 0l-.8-.9c-.3.2-.4.5-.3.8zM250 154c-.5-.3-1.2-.3-1.7 0 .5.5 1.2.5 1.7.1zM84.5 67.8c.5 0 1 0 1.4-.3-.4-.5-1.4-.4-1.6.2h.2zm96.2 84.8c.5.3 1.3.3 1.7 0-.4-.4-1.2-.4-1.7 0zm-124.2 1c-.1.3 0 .7.2.8l.8-.8c-.2-.3-.8-.3-1 0zm169.3-84.7c.3 0 .5-.2.8-.3-.4-.4-1.2-.4-1.7 0 .2.2.5.3.8.2v.1zM27 153c-.4-.4-1.2-.4-1.6 0 .4.4 1.2.4 1.6 0zm31.1 93.8c-.1.4 0 1 .2 1.3.6-.4.5-1.3-.1-1.6v.3zm-4.8-59l-.3-.8c-.5.5-.5 1.2-.1 1.7.3-.1.4-.5.3-.8zm142.2 244.3c.4.4 1.2.4 1.6 0-.4-.4-1.2-.4-1.6 0zm-11.6-279.3c.1-.3 0-.6-.3-.7-.3 0-.6.2-.6.4l.7.3h.2zm76.7-78.6c-.3.3-.3.9 0 1.1.4-.2.4-.9 0-1zM52.1 190.6c0 .3 0 .7.3.8.1-.2.3-.4.3-.7-.1-.3-.6-.3-.6 0zm4.4 50.7c0 .3.5.2.5 0 .1-.4 0-.6-.3-.8-.2.2-.3.5-.2.8zM28.9 66c.3 0 .2-.5 0-.5-.3-.1-.6 0-.8.3.2.2.5.3.8.2zM259.7 432c0-.3 0-.6-.3-.6-.3-.1-.6.1-.6.4l.7.2h.2zm-69.8-279.1c0-.3 0-.6-.3-.7-.3 0-.6.2-.6.4l.7.3h.2zm-22.5-83.6l-.8.3c0 .5 1.1.3 1-.2h-.2zM53.7 209.7c0 .3.5.2.6-.1 0-.3-.1-.5-.3-.7-.3.1-.4.5-.3.8zM42 65.5c-.3 0-.2.5.1.6.3 0 .5-.2.7-.3-.1-.3-.5-.4-.8-.3zm189.2 3.3l.8-.2c-.1-.5-1.2-.3-1 .2h.2zm-2-.3c-.2-.4-.8-.4-1 0 .2.3.9.3 1 0zm-185-3c-.3 0-.2.5 0 .6.3 0 .6-.2.8-.3-.1-.3-.5-.4-.8-.3zm7.4 149.1c-.1.3 0 .7.2.8.2-.2.4-.4.3-.7 0-.3-.5-.4-.6 0zM45.4 154c.1-.3 0-.6-.3-.7-.3 0-.6.2-.6.4l.8.3h.1zm12.4 231l-.8.2c.1.6 1.1.3 1-.2h-.2zm29.4 44.7l-.7.2c0 .6 1 .3.9-.2h-.2zm-3.5.3c.2.4.9.4 1.1 0-.2-.3-.8-.3-1 0zM252.5 66.6c-.3 0-.2.5 0 .6.3 0 .6-.2.8-.3-.2-.3-.6-.4-.8-.3zm8.4 17.7c0-.3-.5-.2-.6 0 0 .4.1.6.3.8.3-.1.4-.5.3-.8zM54.6 227c-.4.2-.4.8 0 1 .3-.2.3-.8 0-1zm26.6 201l-.7.3c0 .6 1 .3.9-.2h-.2zm-27-52.5c-.2-.3-.8-.3-1 0 .2.4.8.4 1 0zM57 428h.5c0-.3-.4-.4-.5-.2v.2zM28.4 154.4c-.2 0-.3.4 0 .5.2 0 .2-.5 0-.5zM201.2 428c-.2 0-.2.4 0 .4s.2-.4 0-.4zm-148-43.8h.5c0-.3-.4-.4-.5-.2v.2zm69-317.7c-.3 0-.3.5 0 .5.2 0 .2-.5 0-.5zM236 430.2c-.2 0-.2.5 0 .5s.2-.4 0-.4zM57.3 301.6c.2 0 .2-.4 0-.5-.3 0-.3.5 0 .5zm-3.6-120.7c0-.2-.5-.2-.5 0s.5.2.5 0zM30.2 153c0-.2-.4-.2-.4 0s.4.2.4 0zM53 257.9c.2 0 .3-.4 0-.5-.2 0-.2.5 0 .5zm13.9 173.7c0-.3-.6-.2-.5 0l.5.1v-.1zM58 254.9c-.1-.2-.6-.1-.5.2h.5v-.2zm-2 148c.3 0 .3-.4 0-.5-.1 0-.1.5.1.5zm143 29.5c.1 0 .2-.5 0-.5-.3 0-.3.4 0 .5zM15.2 73c.2 0 .2-.5 0-.5s-.2.5 0 .5zm178.3 359.8c.2 0 .2-.4 0-.5-.3 0-.3.5 0 .5zM59.4 157c.3 0 .3-.4 0-.4-.2 0-.2.4 0 .4zM355.7 341c-.8.6-.4 2 0 2.9 1 2.9 1 6.2-.1 9a6.1 6.1 0 01-1.4-5.1c.2-.8-.5-1.5-1.2-1.7-.7-.1-1.4 0-2.2.2-.2.1-.5.2-.5.5v5.5c0 .4 0 1-.5 1-.5.2-.7-.5-.8-1l-.6-5.9.1-1c.4-.6.3-1.3.2-2-.1-.6-.1-1.4.4-1.8.5-.4 1.5.1 1.2.7-.4.6-.8 1.3-.6 2 .1.8 1.2 1.2 1.6.6.5-.5 1.5 0 2.2-.4.5-.3.6-.9.6-1.5 0-.5 0-1.1.3-1.6.2-.5 1-.8 1.3-.3zM342.8 295.3c-1 1-2.2 1.7-3.4 2.2-1.2.4-2.7.5-3.4-.4-1.1-1.4.4-4-1-5.1 1.2-.6 1.3-2.1 1.1-3.4-.1-1.3-.1-2.8 1-3.5 0 .5 0 1 .2 1.5.3.4.8.8 1.2.6l3-.8c.5-.1 1.3 0 1.3.5 0 .3-.5.5-.9.6l-2.1.6c-.8.2-1.6.5-2 1.1-.3.7.3 1.8 1 1.5a8 8 0 015.7-.3c-2 .9-4 1.5-6 1.8-1 .2-1.4 1.4-1.4 2.4 0 .4 0 .9.3 1.2.3.4.8.6 1.1.3 1.1-1 2.9-1.4 4.3-.8zM405.8 108.8l-.7.5c-1 .4-2.2.3-3-.2-1-.5-1.6-1.4-2-2.4 1-1.7-.2-4.2.8-6 .6-1.1 2.2-1.6 3.5-1.3 1.4.4 2.4 1.5 2.9 2.8a6 6 0 01-1.6 6.6zM402 103l.1 2.9.1.6c.2.3.5.5.9.6.7.2 1.6-.3 2-1 .4-.7.5-1.6.4-2.4 0-.8-.3-1.7-.9-2.3-.6-.6-1.7-.7-2.3 0-.3.5-.3 1-.3 1.6zM377.9 373.6c-.8-.5-.9-1.6-.9-2.5v-9.4c0-.3 0-.7.2-1 .2-.3.6-.5 1-.3.4.4 1-.3 1.5-.6.6-.4 1.4-.4 2.1-.2 2.2.7 3.6 3.5 2.8 5.7a4.5 4.5 0 01-5.8 2.4c-.7 2 .6 4.5-1 5.9zm4.4-8.2c.5-.5 1-1 1.1-1.7v-1c-.3-1-1.3-1.7-2.3-1.8-1 0-2.1.8-2.4 1.8-.2.7-.3 1.5-.2 2.2 0 .8.6 1.5 1.3 1.7 1 .2 1.8-.5 2.5-1.2zM304.2 293.3c.3 0 .6 0 .7.3.1.3-.2.6-.5.8l-3.3 2.2c-.6.4-1.3.8-2 .5-1.9-.6-.4-4.4-2.2-5 1.3-1.4 1.2-3.6 1-5.6-.1-.4.6-.6 1-.5l4.9.4c.3 0 .6 0 .7.4.2.4-.5.7-1 .7l-1.8.2c-.8 0-1.6.2-2 .8-.5.6 0 1.8.8 1.5a12 12 0 015.3-.8 7.6 7.6 0 01-4.7 1.9c-.7 0-1.2.6-1.4 1.2a5 5 0 000 2v.5c.3.4 1 0 1.4-.4.8-.7 2-1.2 3-1.1zM332.6 333.6c0-1-1-1.7-1.9-1.7-.9.1-1.7.8-2 1.7-.3.7-.4 1.5-1 2-.5.5-1.8.1-1.5-.6 1.1-3 1.7-6.2 1.8-9.4 0-.9.1-2 1-2.3 1-.3 1.7.8 2 1.8 1.2 2.7 2.1 5.5 3 8.3 0 .6.2 1.2 0 1.8-.2.5-1 .9-1.5.4s0-1.3 0-2zm-3.4-3.6c.3.9 2 .6 2-.3l-.1-.6-1.2-4.2-.7 4v1.1zM306.4 307.8a10 10 0 01-2.4 7.5l-1 1c-1.3.5-2.9-.5-3.3-1.9a7.8 7.8 0 010-4.1l.4-1.5c.2-1 .4-2.1 1-3 .5-1 1.5-1.6 2.6-1.5 1.6.1 2.5 2 2.7 3.5zm-4.4 6.8c.8-.5 1.5-1.3 2-2.1a10.9 10.9 0 00.7-5.9c-.3-.5-1-1-1.5-.7-.3.1-.6.5-.7.9-.8 1.6-1.2 3.3-1.3 5.1 0 1 0 2.2.8 2.7zM298.5 247.2c.2-1.8 0-3.7-.3-5.4.7-.6-.3-1.6-.4-2.5 0-.6.4-1.1 1-1.4.6-.2 1.2-.2 1.8-.2l6.7.1c-1.3 1.7-3.8 1.4-5.8 2-1 .2-2 1.1-1.4 1.9.4.6 1.3.4 2 .2 1.7-.5 3.5-.8 5.3-.8-1.8 1.7-4.3 2.2-6.7 2.6-.3 0-.5.5-.5.8-.3 1.5-.1 3 .4 4.4.1.5-.4 1-1 1-.5-.1-.9-.6-1-1.1-.2-.5-.1-1 0-1.6zM310.7 74.4l.7 3.5c-.7.5-1.6-.4-1.9-1.3-.2-.8-.3-1.9-1.1-2.3-1.1-.5-2.3.8-2.5 2-.3 1.2-.2 2.6-1.1 3.5-1-.8-1-2.2-1-3.4.3-2 .6-4 1.2-6 .3-1 .7-1.9 1.5-2.4s2.2-.2 2.4.7c.2 1 .5 2.1 1 3.1 0 .5.3.9.7 1.2.4.2 1 .2 1.2-.3.3 0 .5.4.3.6-.2.2-.5.3-.8.3-.3 0-.6.2-.7.5v.3zm-3-3.7c.2-.5 0-1.1-.3-1.5-.6 1-1 2-1 3.1 0 .8 1.2 1.2 1.7.6s.2-1.6-.5-2l.1-.2zM389 313.2c-.7 1.2-1.5 2.3-2.4 3.3-.6.7-1.3 1.3-2.2 1.1-1.4.1-2.8-1.4-2.5-2.9l1-4.6c.1-.6.2-1.4-.3-1.8-.6-.5.1-1.6 1-1.7.8-.1 1.6.3 2.4.4.4 0 .9 0 1.2.2.3.2.2 1-.2.9-.8-.1-1.8 0-2.2.7-.4.6.2 1.8 1 1.5 1.4-.5 3.4-.9 4.3.4a8.5 8.5 0 01-4.3 1.1c-1 0-1.6.9-1.8 1.7-.1 1 .1 1.8.3 2.7l3.2-2.7c.5-.4 1.2-.7 1.5-.3zM399 402.8c-.4.7-.9 1.3-1.6 1.6a3 3 0 01-2 0 5.4 5.4 0 01-3.6-6c0-.6.3-1.2.5-1.8.6-1.4 1.3-3 2.8-3.4 1-.3 2.1 0 2.8.9.6.8.6 2 0 2.8-.7-.4-.7-1.7-1.6-2-.5-.3-1.2 0-1.5.4-.4.5-.6 1.1-.7 1.7a7.2 7.2 0 00-.2 3.4c.4 1.2 1.4 2.2 2.6 2 2.1-.4 2-3.9 3.9-5 0 1.9-.6 3.7-1.4 5.4zM443 449.2c-1.1.1-2.5.4-2.8 1.4-.1.6.2 1.2.4 1.8.3.6.5 1.2.3 1.8-.3.5-1.3.7-1.5 0-.8-2.3.4-5.2-.6-7.5.5-.2.4-1 .3-1.6 0-.5.2-1.3.7-1.3 2.2.1 4.3 0 6.4-.7 1.4-.4 3.2-.8 3.9.4-.7.6-1.5.8-2.3 1l-6.4 1c-.5.1-1 .3-1.2.6-.3.6.3 1.4 1 1.5.7.2 1.4-.1 2-.3 1.8-.5 3.8-.3 5.4.5-1.8.7-3.7 1.2-5.6 1.4zM414.4 181.7c-.3-.3-.7-.1-1 .1-1 .9-1.3 2.3-1.4 3.7 0 .7 0 1.4-.6 2-.5.4-1.6 0-1.5-.6l1.7-10.5c0-.4.2-1 .5-1.3.3-.4.9-.7 1.3-.4l.5.7a57.1 57.1 0 013.9 11.3c-.1.4-.8.6-1.2.3-.4-.3-.6-.8-.8-1.3l-1.1-3.5c0-.2-.2-.4-.3-.5zm-.6-2.8c-.5-.3 0-1.3-.5-1.6-.4-.3-.8.3-.9.8a3 3 0 000 1.7c.2.5.9.9 1.4.7.5-.2.5-1.2 0-1.3v-.3zM378.2 495.1a5 5 0 01-.5-4.1c.2-.5-.6-1-1.1-.7-.5.3-.7.9-.8 1.4-.1.6-.3 1.2-.7 1.5-.4.4-1.3.2-1.3-.4 0-2.9.4-5.8 1-8.6.2-.7.4-1.5 1-2 .6-.4 1.7-.2 1.8.5l1.7 7.3c.2 1 .4 1.9.3 2.8 0 1-.5 2-1.4 2.3zm-1.4-11.7a5.3 5.3 0 00-.7 4.8c.1.4.4.8.8.9a16 16 0 00-.1-5.7zM302.5 199c1.1 0 1.9 1.2 2.2 2.3.5 1.8.6 3.7.2 5.5-.3 1.2-.9 2.5-2 3-1.8.9-3.8-.6-4.6-2.3a9.4 9.4 0 01-.7-3.8c.2-1.9 1.9-3.3 3.5-4.2.5-.3 1-.5 1.4-.5zm-2.9 3.4c-1 1.3-.3 3.2.2 4.8.4 1.3 2.4 1.1 3.2 0 .7-1 .6-2.4.4-3.7 0-.8-.7-1.6-1.5-1.8-.8-.3-1.8 0-2.3.7zM360.5 296.5a2 2 0 00-2-1 2 2 0 00-1.6 1.7c0 .5.1 1.1-.2 1.5-.4.4-1.2.1-1.5-.4a58.4 58.4 0 011.8-9.6c.2-.6.4-1.3 1-1.7.5-.4 1.4-.2 1.6.4l1.4 4.8 1.3 4.5c.2.5.2 1.4-.4 1.6-.4 0-.8-.2-1-.6l-.4-1.2zm-3.1-3.2c0 .5.5.8 1 .7.4-.1.7-.4 1-.8-.4-1.5-.5-3.1-.4-4.7-.8 0-1.1 1-1.1 1.8 0 .7.2 1.6-.1 2.2-.2.3-.4.5-.4.8zM432.2 199c.3-2 .8-4.6 2.8-5.3 2-.7 4.3 1.2 4 3.2-.2 1-.8 2.3 0 2.8a7.7 7.7 0 01-1.4 3.8c-.7.8-1.6 1.6-2.7 1.6-1.2 0-2.3-1-2.6-2.3-.4-1.2-.3-2.5-.1-3.7zm2.6-3.4l-1.3 6.3c-.2 1 1.4 1.6 2.3 1 .8-.5 1.1-1.6 1.4-2.7.2-1 .4-2 .3-2.9-.2-1-.8-2-1.8-2.1-.3-.1-.8 0-1 .4zM290.4 421.3c-1.1-.7-1.3-2.2-1.2-3.6.1-1.6.3-3.3 1-4.8a7.3 7.3 0 012.6-2.9c.8 1.3 2.3 2 3 3.3 1 1.7.2 3.8-.8 5.6-.5.8-1 1.6-1.8 2.2-.8.5-2 .7-2.8.2zm1.4-8c-.2.1-.2.4-.3.7l-.6 4.4v.7c.2.2.4.2.6.2 1 0 1.9-.8 2.3-1.7l.9-3c.1-.3-.3-.7-.6-1-.7-.6-1.8-1-2.3-.4zM352 221.3c0 2.1-.1 4.4-1.2 6.3-.5.8-1.2 1.5-2.1 1.5-1 0-1.6-.7-2.1-1.4-.9-1-1.6-2.4-1-3.6.8-1.3.1-3 .5-4.4a3 3 0 012.8-2.2 3 3 0 013 2.1l.1 1.7zm-2.9 5.8c1.2-2 1.6-4.5 1-6.8 0-.4-.2-.7-.5-1-.5-.4-1.4 0-1.7.5-.4.6-.4 1.4-.4 2l.1 3.9c0 .5 0 1 .3 1.4.3.3 1 .4 1.2 0zM396.7 317.9c-.9 0-1.8-.2-2.6-.5-1.5-.5-2.1-2.4-2.1-4 0-1.7.4-3.5 1.1-5 .4-.8 1-1.6 2-2 1.4-.4 2.9 1 4 2.2.2.3.4 1 0 1.1-.4.2-.7-.3-.9-.6-.8-1.3-3-.8-3.8.5-.8 1.3-.7 3-.5 4.4.1 1.3 1.6 2 2.9 1.8 1.2-.2 2.2-1.1 3.1-2 .6-.7 1.3-1.4 2.2-1.3-1.2 2.4-2.7 5.1-5.4 5.4zM350.3 73.8c-.4 1.7-2.4 2.5-4 2.6a12 12 0 01-5.4-.8c-.3-.1-.7-.3-.9-.7-.1-.4.2-1 .6-.8 2.6.6 5.5 1.2 7.9-.1.4-.2 0-.8-.5-1l-4.6-2c-1-.3-2-.9-2.2-2 .3-1.1.9-2.2 1.7-3 .7-.8 1.7-1.4 2.7-1.5 1 0 2.1.5 2.5 1.5-1 0-1.9 0-2.8.2-.9.2-1.7.8-2 1.7-.3.9.3 2 1.2 2.1a8 8 0 015.8 3.8zM370.8 360.4c0 .5.7.6 1.1.4.5-.2.9-.5 1.4-.4.2 0 .4.3.6.4 1.8 2.1 2 5.3 1 7.9-.8 1.6-2.4 3.2-4 2.7-1-.2-1.7-1.1-2-2.1-.2-1 0-2 .2-3 .4-1.4 1-2.7 1.7-3.9.3-.5-.3-1.2-.8-1l.8-1zm.7 3.7c-.5 1.5-.7 3.2-.5 4.8 0 .3.1.7.4.8.3 0 .5 0 .7-.2 1.6-1.2 1.8-3.5 1.7-5.5 0-.4-.1-1-.5-1.2-.7-.5-1.5.5-1.8 1.3zM313.5 351.5c-.8.5-1.8.8-2.6.5-1.5-.6-1.6-2.6-1.3-4.2a22 22 0 011.1-4c.5-1.2 1.3-2.5 2.6-2.6 1-.1 2 .7 2.4 1.6.4 1 .4 2 .4 3s-.2 2-.5 3c-.5 1.1-1.2 2-2.1 2.7zm.8-7.2c0-.4-.2-.9-.5-1.1-.4-.3-1-.2-1 .2l-1.2 3c-.4 1.2-.7 2.9.4 3.6.3.2.7-.1 1-.4a7 7 0 001.3-5.3zM387.3 197.3l-.7.6a4.5 4.5 0 00-4.7.2c-.8.6-1.3 2-.4 2.4 1 .6 2 1.3 2.8 2.3.5.6 1 1.5.7 2.2-.3.7-1 1-1.6 1.2-2 .6-4.2 0-5.6-1.5-.5-.5.1-1.4.8-1.4.8 0 1.4.5 2 .9.4.3 1 .5 1.5.5.5-.1 1-.6.8-1.2 0-.4-.6-.6-1-.8-1.4-.6-2.8-1.8-2.7-3.4 0-.5.3-1 .6-1.5 1.6-2.3 5.5-2.6 7.5-.6zM331.1 112.7l-.8.2c-1.1 0-2.1-1-2.5-2-.5-1-.4-2.2-.4-3.3v-4.3c0-.6 0-1.2.5-1.6.4-.4 1.3-.2 1.2.4a35 35 0 00.1 7c.1.5.5 1.3 1 1 .3 0 .4-.3.5-.6l2.8-7.8.7 2.1c-.2 2.8-1 5.6-2.4 8a2 2 0 01-.7.9zM391.4 412.6c-.8.6-.7 1.9-.2 2.7.6.8 1.4 1.4 2.2 2.1.7.7 1.3 1.6 1.2 2.6l-.5 1a4 4 0 01-4.8 1.2 4 4 0 01-1.9-4.6c0-.2.2-.4.3-.5.3-.2.8.2.8.6v1.2c0 1 .9 1.6 1.8 1.6s1.7-.3 2.5-.8c-.7-1.6-2.6-2.4-3.4-4a3.6 3.6 0 011.1-4.4c1.4-1 3.5-.7 4.6.6-1.1.7-2.7-.1-3.7.7zM311.7 295.2c-.6.6-1.3 1.3-2.1 1.5-1 .2-2-.4-2.5-1.2-.6-.8-.8-1.8-.7-2.7a7.3 7.3 0 014.4-6.4c1.2 1 2.6 2.1 2.9 3.7.3 1.8-.8 3.6-2 5zm-.5-6.5c-.5-.3-1.2-.1-1.6.3-.4.4-.6 1-.8 1.5-.5 1.5-1 3.4.3 4.5 1.7-1 2.7-3 2.6-5 0-.5-.2-1-.5-1.3zM381.4 386.3a8 8 0 013-7.7c.7-.6 1.7-1 2.6-.7.6.3 1 .9 1.2 1.5.6 1.6.3 3.5-.2 5.2a7 7 0 01-2 3.4c-1 1-2.6 1.1-3.6.2-.6-.4-.8-1.1-1-1.9zm4-6.3c-.5 0-1 .4-1.3.8a5.9 5.9 0 00-.9 5.4c.1.3.2.6.5.8.4.3 1 .2 1.5-.1.4-.3.6-.8.8-1.3.4-1 .7-1.9.8-2.9V381c-.3-.6-.8-1-1.4-1zM334 314c0 1 0 2.2-.8 2.9-.8-.5-1-1.5-1-2.4l.1-4.8c0-1.4 0-2.8.9-4 .4-.5 1.2-1 1.8-.6l.5.7 3.4 6.3c.1.1.2.3.4.3.4.2.6-.4.6-.9v-6c.9-.1 1.1 1 1.1 1.7v5.6c0 .6 0 1.3-.6 1.4-.4.1-.7-.2-1-.4a15 15 0 01-4.5-7.1c-.1-.3-.6-.3-.8 0-.2.2-.2.5-.2.8l.1 6.6zM397 98.8c.1.3.4.5.6.7l-1.7 7.1c-.2.8-.4 1.7-1.2 2-1.1.3-2-1.1-2.2-2.3-.1-1.2-.1-2.6-1.1-3.3l-.9 4.7c0 .6-.3 1.3-.8 1.7-.5.3-1.5 0-1.3-.7l1.6-6c.1-.7.4-1.5 1-2s1.8-.3 2 .4l1 4.7v.2c.2.3.6.3.8 0 .2-.2.3-.6.3-.9l.4-4c.1-.9.4-2.1 1.4-2.3zM303.1 178.2c.6.5.6 1.4.5 2.1l-1.4 9.1c0 1-.4 2-1.3 2.2-1 0-1.7-1.2-2-2.2l-2-9c-.3-.8-.4-1.8.3-2.2.8 1 1.1 2.2 1.4 3.5l1.7 7c.9-.3 1-1.4 1-2.4l.1-3.7c.2-1.6.5-3.3 1.8-4.4zM361.5 431.1c-1 0-1.7 1-1.9 1.9-.2 1 0 2 0 3s-.2 2-1 2.6c-1-1.8-1-4-.3-5.9.3-.5-.4-1-1-1-1.6 0-2.3 2-2.6 3.5l-.6 2.9c0 .4-.7.4-1 0-.2-.3-.2-.7 0-1.1l1-8c.1-.5.3-1.2.8-1.4.6 0 1 1 .6 1.5-.5.6.2 1.7 1 1.8 1 0 1.7-.6 2.2-1.3.4-.7.7-1.6 1.2-2.3l.5 3c0-.8 1-1.3 1.7-.9.6.5.2 1.7-.6 1.7zM414.4 218.8a13 13 0 013.2 4.9c-1 1.1-2.3 2-3.9 2.2-1.6 0-3-1-4.2-2-.2-.4-.5-.8-.5-1.2 0-.4.7-.7.9-.3.6 1 1.9 1 3 1 .6 0 1.3 0 1.8-.3.5-.4.5-1.3 0-1.6-2-.9-3-3.6-2.1-5.6.4-.8 1.1-1.6 2-1.8 1-.3 2.1.1 2.6 1-1 .2-1.9.5-2.6 1.1-.7.7-1 2-.2 2.6zM352.8 495.7c-1.3-.5-1.5-2.1-1.5-3.5 0-2.5 0-5 1-7.4.4-.7 1-1.4 1.8-1.2.3.1.6.5.8.9 1.4 2.4 1.9 5.5 1.3 8.3-.2.8-.5 1.6-1.1 2.3-.6.6-1.6 1-2.4.6zm.6-1.5c1.4-2.1 1.8-4.9 1-7.4-.1-.6-.3-1.2-.7-1.6-.9 3-1 6-.3 9zM364.2 66.8c0-.6.2-1.4.8-1.3.6 1.6 1 3.3 1 5 .1 1.7-.1 3.6 1 4.9 1.4-2.4 2.2-5 2.4-7.8 0-.8.1-1.7.8-2 1 .3 1 1.6.8 2.6-.3 2-.7 4-1.4 6-.4 1.3-1.2 3-2.7 3-.7.1-1.3-.4-1.7-1-.3-.6-.4-1.3-.5-2l-.5-7.4zM375.5 224.4c-.1-2.3-.2-4.5-.1-6.7 0-.9.1-2 .9-2.3.8.8.8 2.2.8 3.4l-.1 6c0 .4 0 1 .5 1s.7-.5.8-1l1.2-8.4c0-.5.8-.6 1.1-.2.3.4.3.9.3 1.4a46 46 0 01-1 7.8c-.3 1-.7 2.1-1.7 2.4-.8.2-1.6-.3-2-1-.5-.7-.6-1.6-.7-2.4zM322.1 111.8c.3-.1.3-.4.3-.6.3-2.3.2-4.5-.2-6.7-.3-1 0-2.3.4-3.3l.3-.3c.3 0 .5.4.5.7l1.2 7.8c.2 1.5.3 3.3-1 4.2-1.4 1-3.4-.2-4.3-1.7-1-1.4-1.4-3.3-2.7-4.5-.4-.3 0-1 .5-1 .5-.2 1 .1 1.3.5 1.3 1.3 1.6 3.5 3 4.7.2.2.5.3.7.2zM423 372.9c-1-1-.9-2.7-.5-4.1a57 57 0 011-3.4c.2-.8.4-1.6 1-2.2.5-.6 1.4-1 2.2-.6 1.3.5 1.3 2.2 1.9 3.4l-.3 2.2a8.2 8.2 0 01-1.3 4c-1 1.2-2.9 1.7-4 .7zm1.7-1c1-.8 1.7-2 2-3.2a14 14 0 00-.1-3.8c0-.2 0-.4-.2-.5-.4-.5-1 .3-1.2.9L424 369c-.3 1-.4 2.4.6 2.7zM325 428c-1 0-2 .6-2.5 1.5s-.7 1.9-1 2.9c-.2 1.2-.3 2.8.9 3.3 1.6.7 3.2-2.1 5-1.6a6.2 6.2 0 01-2.4 3c-1.2.8-2.7 1.1-4 .6-1.3-.5-2.2-2-1.7-3.3.8-2.2.5-4.9 2.1-6.6.7-.7 1.7-1.2 2.8-1.2 1 0 2 .4 2.7 1.2-.5.4-1.2.2-1.9.1zM291.4 304.5c.4.3 1 .1 1.4 0 1.1-.3 2.4-.2 3.5.3 1.2.5 2.3 1.7 2.3 3s-.9 2.4-2 3c-1.2.6-2.5.6-3.8.5-.6 0-1 .8-1 1.4.1.6.4 1.3.2 1.9-.2.6-1.3.7-1.4.1l-.7-5.3c0-.5-.1-1 .3-1.5.3-.4.3-1 .2-1.5-.2-.5-.3-1-.1-1.5.1-.4.8-.8 1.1-.4zm0 2.1c0 1.3-.2 2.7.7 3.6.8-.5 1.8-.5 2.8-.6.9 0 2-.3 2.3-1.2 0-1.1-1-2-2-2.3-1-.4-2-.3-3.1-.2-.2 0-.3 0-.5.2l-.2.5zM338.8 484.4c.4.4.7.9.6 1.4 0 .5-.9.8-1 .3-.5-.8-1.2-1.5-2-1.8-.6.2-.8 1-.8 1.6-.1 2 0 4 .6 6 .2.4.4 1 .8 1.3.4.4 1 .5 1.4.1l3.6-3.2c.4-.4 1.2-.6 1.2 0l-.1.3c-1 1.5-2.2 2.9-3.6 4-.8.7-2 1.4-3 1-.7-.3-1.1-1-1.4-1.7a12.9 12.9 0 01-1-8.1c.3-1.2 1-2.5 2.2-2.7 1 0 1.8.7 2.5 1.5zM413 415.7c-1.2 2-2.8 4.1-5 4.1-.7 0-1 .7-1.1 1.2 0 .6 0 1.3-.4 1.7-.4.5-1.4.4-1.4-.2 0-1.2.2-2.5.4-3.7l.4-3.1c0-1 .2-2 .7-2.8.7-1.2 2.1-2 3.5-1.7a3 3 0 012.4 3c0 .5-.1 1.4.5 1.5zm-2.3.7c.9-1.3.7-3.4-.8-4-1.3-.4-2.8 1.2-2.3 2.5.2.5-.2 1.1-.4 1.7-.2.6 0 1.5.6 1.4a4 4 0 002.9-1.6zM445.7 195c-.1 1 0 2.2.3 3.2.2.6.3 1.3-.2 1.6.8 1.1.3 2.7-.3 4 0 .1 0 .3-.2.4-.4.4-1.2.2-1.6-.3-.3-.5-.3-1.2-.3-1.8l.2-5.4c0-.8 0-2-.9-2.1-.5-.2-1 0-1.4.1-.5.1-1.1-.2-1-.7 0-.3.4-.5.8-.6 2-.5 4-.8 6.2-1 .8 0 2 .2 2.2 1l-3.1.8c-.2 0-.4.1-.5.3l-.2.4zM413.4 446.5c.8 3.3.1 6.9-1.9 9.6-.7.9-2.2.6-2.9-.3-.7-1-.7-2.1-.6-3.3 0-1.4.3-2.8.7-4 .4-1.2.9-2.3 1.9-2.9 1-.5 2.5-.2 2.8 1zm-1.8 5.6l.6-4c.1-.6 0-1.7-.8-1.6a10.3 10.3 0 00-1.4 8.7c1-.6 1.4-2 1.6-3.1zM391.7 378.6c0-.5 0-1.2.5-1.6.4-.4 1.3 0 1.3.5-.3 2.2 0 4.4.4 6.6 0 .3.1.6.3.8.3.2.7.1.8-.2l2.1-8.4c.1-.4.2-.8.5-1.1.4-.3 1-.2 1.1.2v.4c-.2 3.4-1 6.8-2.4 10-.2.4-.5 1-1 1.2-.6.3-1.4 0-1.8-.4-.5-.6-.7-1.2-1-1.9-.5-2-.8-4-.8-6zM436.3 346.9c0-1.1.2-2.3.6-3.3 0-.3.2-.6.5-.7.4 0 .7.3.7.7l-.1 1c-.1 1.3 1 2.5.6 3.7-.1.5-.4.8-.6 1.2a12 12 0 00-1.5 5c0 .5-.8.7-1.3.4-.4-.3-.6-.9-.5-1.4 0-1.1.7-2.2.7-3.3 0-1.5-1-2.8-1.9-4-.9-1.2-1.7-2.7-1.3-4.2 1.1 0 2 1.1 2.4 2.1.5 1 .8 2.1 1.7 2.8zM350.6 472c-1 .6-2.3 0-2.8-1s-.4-2.3-.2-3.4c.3-1.7.8-3.4 1.5-5 .4-.8.9-1.6 1.7-1.8.8-.1 1.6.4 2 1.2.4.7.4 1.6.3 2.4 0 2.2-.4 4.3-1.3 6.2-.3.6-.6 1.2-1.2 1.5zm-1.4-3.8v1.9c0 .4.6.6 1 .3.4-.2.5-.7.6-1.1.5-2.3 1-4.7.4-7-1.7 1.3-2 3.7-2 5.9zM287 85c2-.4 4-.6 6-.5.6 0 1.4.5 1.2 1-.1.3-.6.4-.9.4l-6.4.7c-.4 0-.5.7-.2 1 .3.3.8.3 1.2.3h4.9c.3 0 .4.4.2.6-.2.3-.5.3-.8.4l-4.3.6c-1 .2-1.6 1.6-1.5 2.7.1 1.1.7 2.1.7 3.3 0 .5-.2 1.2-.8 1.1a.9.9 0 01-.4-.3c-1.6-1.9.1-4.8-.4-7.2-.2-1-.8-2-.4-3 .4-.6 1.2-.9 2-1zM430.4 367.4c-.1-1-.4-1.8-.3-2.7 0-.8.5-1.8 1.3-2 .4 2.4.7 5 1.6 7.2 1-2.4 1.5-4.9 1.7-7.4 0-.6.2-1.4.8-1.5.4 0 .9.3 1 .7v1.4l-1.6 7.2c-.1.7-.3 1.3-.8 1.8-1 .8-2.5 0-3-1.1-.6-1.1-.5-2.4-.7-3.6zM402 196.4c1.2-.7 2.8-.8 3.7 0l.2.4c0 .3-.3.7-.7.7h-1.1c-1.2 0-2.2 1-2.3 2-.2 1.2.4 2.4 1.2 3.2l2 1.6c.6.7 1 1.6.6 2.4-.3 1-1.5 1.3-2.5 1.2a5.7 5.7 0 01-4.6-3c-.1-.3-.2-1 .2-1l.3.1c1 .4 1.6 1.1 2.5 1.6.8.5 2 .8 2.8.3-1.4-1.9-4-3.1-4.4-5.5-.2-1.6.8-3.2 2.2-4zM380.4 187.2c-.8 0-1.6-.6-1.9-1.3a5 5 0 01-.4-2.4c.1-1.6.4-3.3 1-4.8l.5-1c1-1 2.6-.6 3.3.5.8 1 .8 2.4.7 3.7a7.7 7.7 0 01-1.5 4.3c-.5.5-1 1-1.7 1zm1.7-7l-.1-1c-.3-.5-1.2-.2-1.5.3-.3.6-.2 1.2-.2 1.8 0 .6 0 1.3-.6 1.7.5.2.5.8.6 1.3.1.5 1 .9 1 .4l.8-4.6zM370.8 176.6l1 1.7a4.9 4.9 0 016-.3 76 76 0 00-5 1.4c-.4.1-.9.3-1 .7-.4.7.4 1.6 1.2 1.6.9 0 1.6-.4 2.4-.6.9-.2 2 0 2.2.8-1.4.7-2.9 1-4.4 1.2-1 .1-1.3 1.6-1.1 2.7.1 1.1.1 2.6-1 2.9-1.2-1.7-.3-4.2-.6-6.3l-.6-3c-.1-1 0-2.2 1-2.8zM432.8 454.2c-1-.4-1.5-1.4-1.5-2.4 0-1.4.3-2.7.7-4 .7-2 2.2-3.9 4.3-4 .6 0 1.3.1 1.6.7.2.3.2.7.2 1v1.8c0 1.7-.1 3.5-1 5-.8 1.6-2.7 2.6-4.3 1.9zm.3-4.8l-.1 1c-.1.5-.2 1 0 1.6 0 .5.5 1 1 1a6 6 0 002.2-8.2c.2.6-.2 1.1-.7 1.5l-1.4.8c-.6.6-.8 1.5-1 2.3zM365.3 421c-1.4-.2-2-1.9-2-3.3 0-1.2.3-2.4.7-3.6.2-.7.5-1.4.9-2 .4-.9 1-1.8 2-1.8.8 0 1.5.4 1.8 1.1.3.7.3 1.4.3 2.1-.1 1.6-.3 3-.8 4.5-.4 1.5-1.4 3.2-2.9 3zm-.3-3.5c0 .5 0 1 .2 1.4.1.4.4.8.8 1 .8-2.7 1.7-5.7 1-8.5-1.2 1.9-1.9 4-2 6zM296.5 286.9c0 .9-.4 1.7-1 2.4-1 1-2.3 1.7-3.7 2-.8.1-1.4 1-1.6 1.8-.1.9 0 1.8.3 2.6 0 .4-.5.6-.7.4-.3-.3-.4-.6-.4-1l-1-8.4c-.1-.6.3-1.2.8-1.5.6-.4 1.2-.4 1.9-.5 1-.2 2.2-.3 3.2 0s2 1.1 2.2 2.2zm-3.6 2.2l1.4-1c.4-.5.6-1.2.2-1.8-.3-.5-1-.6-1.7-.6s-1.5 0-2.2.5c-.6.4-1 1.2-.7 2 .2.4.6.8.4 1.3 0 .2.2.5.4.6.3 0 .6-.1.8-.3l1.4-.7zM355.8 360.4c1 .1 2.2.4 3 1.2 1 1 1 2.7.3 3.8a3.6 3.6 0 01-3.7 1.5c-.7-.1-1.3.6-1.4 1.3 0 .7.2 1.4.5 2 .2.6.4 1.2.1 1.8-.2.5-1.2.6-1.3 0a33.2 33.2 0 01-.6-10.6c.5-1 2-1.2 3-1zm-1.4 5c.3.4 1 .6 1.7.4.6-.2 1.1-.6 1.6-1 .2-.3.5-.5.6-.8.3-.7-.3-1.6-1-1.9-.8-.3-1.7-.2-2.4 0-.8.1-1 1-.9 1.8 0 .5 0 1 .4 1.4zM308.6 309.7c.3.4.2.9.2 1.3 0 1.2.7 2.3 1.7 2.9 1 .5 2.4.5 3.3-.2-2.6-1.5-4-5-3.2-7.8.3-1 1.2-1.8 2.3-2 1 0 2 .5 2.6 1.4-1-.1-2.3-.1-3 .6-1 1-.7 2.4-.2 3.6a8.8 8.8 0 002.6 3.1c.7.6.6 2-.1 2.5-.8.7-1.8.8-2.7.7-1.5-.2-3-.8-3.8-2-.9-1.3-.8-3.2.3-4.1zM324.4 219.3c-.2-.7-1.2-.5-1.8-.2-.8.5-1.7 1-2 1.9-.4.8 0 2 1 2.1.9.1 1.8.3 2.6.8s1.4 1.4 1.3 2.3c-.1 1.5-1.9 2.4-3.4 2-1.4-.2-2.6-1.2-3.7-2.2-.3-.3 0-.8.5-.9.4 0 .8.3 1.2.5a5 5 0 003.6.7c.1 0 .3 0 .4-.2.3-.3-.3-.8-.7-1l-3-1c-1.5-.5-2.2-2.5-1.5-4 .6-1.5 2.2-2.4 3.9-2.5.5 0 1 0 1.5.3.4.3.5 1 .1 1.3zM343.5 376.8c.2 0 .3.3.3.6l.7 3.7c1-.9 2.6-.5 3.3-1.6.3-.5.3-1 .6-1.6.2-.5 1-.8 1.3-.4-.5.8-.6 1.8-.5 2.7v6c0 .5-.4 1.2-.8.9l-.2-.3c-.4-1.2-.8-2.4-.6-3.6.2-.9-.7-1.8-1.6-1.7-1 .1-1.7 1-1.8 1.9l.2 2c0 .7-.3 1.5-1 1.7-.7-.4-.8-1.5-.8-2.3v-7c0-.5.4-1.3.9-1zM362.9 207.9c-.6.2-1-.5-1.2-1-.4-1.1-.8-2.3-.3-3.3.6-1.1-.7-2.6-.1-3.7.2-.4.7-1 .3-1.3h-.5l-4.1 1c-.5.2-.8-.5-.6-1 .2-.4.8-.6 1.3-.7 2.4-.8 4.9-1.4 7.4-1.9.6-.1 1.6 0 1.5.7a8.8 8.8 0 01-4.3 1.4c1 .7 1.2 2.2 1.1 3.5 0 1.3-.3 2.7.4 3.8-.8.4 0 2.2-1 2.5zM337.3 388.3a6.8 6.8 0 01-.8-6.5c.2-.5.5-1.1.2-1.6-.3-.8-1.2-.8-2-.8l-2.4.2c-.5 0-.7-.7-.4-1.1.3-.4.9-.5 1.4-.5a153.8 153.8 0 018.2-.7c.3.2.1.8-.2 1l-1.1.2c-1.2.3-2 1.6-2 2.8-.1 1.2.2 2.4.2 3.6 0 1.3-.2 2.6-1.1 3.4zM317 92.5c-.8 2-3.8 2.6-5.3 1.2-1.6-1.6-1.2-4.3-.5-6.5.4-1 1.1-2.4 2.3-2.5 1.6.3 3 1.5 3.5 3 .4 1 .4 2 .3 3 0 .6 0 1.2-.3 1.8zm-1.2-1.6c.3-1.3 0-2.7-.8-3.8-.3-.4-.6-.7-1.1-.8-.4 0-1 .2-1 .6-.2 1.2-.7 2.3-.7 3.5 0 1.2 1 2.6 2 2.3.9-.1 1.4-1 1.6-1.8zM397.6 411.5c0 2.6.4 5.3.9 7.9 1.8-2.3 3-5 3.5-7.8.1-.5.5-1.2 1-1 .2.1.2.4.2.7.2 3.7-1.5 7.5-4.3 9.9-.4.3-1.1.2-1.5-.2a14.8 14.8 0 01-1.4-5.7 5 5 0 011.6-3.8zM410.4 486.7c-.4.9-.2 2 .4 2.7-.7.4-.5 1.6.3 1.8l3-1.4c.5-.2 1-.4 1.5-.3.5.2.8 1 .4 1.3-1.5 1.3-3.3 2.6-5.3 2.8-.6 0-1.4-.1-1.8-.7-.3-.3-.3-.9-.3-1.4V484c0-.4 0-.8.2-1.1.2-.4.7-.6 1-.4.3.2.4.5.5.8.2 1.1.5 2.3 0 3.4zM316.5 180.8l-.8-.7-2.1.8c-.2 0-.4.2-.6.1-.3 0-.4-.5-.3-.9l.8-.7c2.3-1.3 5-1.9 7.7-1.6.3 0 .7.1.7.4.2.4-.4.7-.9.7l-2.5.4c-.5 0-1 .2-1 .7l1 9c.2 1 .2 2.3-.6 3-1.1-1-1.4-2.8-1.4-4.3 0-1.6.2-3.2-.2-4.7-.3-.8-.5-1.9.2-2.2zM307 86.5c1.2 1 2.6 2 3 3.5.2 1 0 2-.3 2.8-.3 1-.8 2.2-1.7 2.7-1 .6-2.3.3-3.2-.4-2.2-1.6-2.3-5-1.4-7.5.2-.7.6-1.6 1.3-1.8.8-.2 1.6.3 2.3.7zm1.2 6.4c.3-.8.7-1.6.6-2.5 0-1-.6-1.8-1.5-2-.6 0-.9-.9-1.5-1-.8-.3-1.3.8-1.3 1.6-.1 1 0 2.2.3 3.2.2.6.4 1.2.9 1.6.4.4 1.2.6 1.7.3.4-.2.6-.7.8-1.2zM393.4 367.7l-5.6 5.3c-1.3-.5-1.5-2-1.6-3.4 0-3 .2-6 .7-9 0-.4.4-1 .8-.7l.2.4c.8 2.8.9 5.9.3 8.7-.1.4-.2.7 0 1 .1.3.6.4.8.1a4.3 4.3 0 014.4-2.4zM332.8 295.2c-.8 1.1-1.7 2.2-3 2.8-1.1.6-2.8.5-3.6-.6-.6-.9-.5-2-.4-3 .2-2 .3-4.1.6-6.1 0-.8.1-1.6.7-2 .8.4.9 1.5.9 2.4v8l4-2.2.8.7zM318 298.8c-.9-.3-1-1.4-1.1-2.3l-.5-8 .1-.8c.2-.2.5-.2.8-.3 1.4-.2 3.2-.3 4.3.8 1 1 1 2.8.1 4a6.2 6.2 0 01-3.6 2.3c1 1.2.9 3.1-.2 4.3zm-.3-9.2v.8l.6 2.3a3 3 0 002.3-1.6c.3-.9 0-2-.7-2.5-.8-.5-2.1.1-2.2 1zM411.4 464.1c0-.7.2-1.4.8-1.7 1.7 1.8 0 5.1 1.2 7.3 1.3-2.8 2.2-5.7 2.8-8.7.1-.4.8-.4 1 0 .3.4.2.9.2 1.3-.6 2.7-1.4 5.3-2.3 8-.3.5-.5 1.1-1 1.6-.5.4-1.3.5-1.7 0-.3-.2-.4-.5-.5-.9a20 20 0 01-.5-6.9zM346.3 314.7c2 .3 2.8-3.1 4.6-2.8a7 7 0 01-2 3.7c-1.1 1-2.8 1.3-4 .6-1.3-.7-1.8-2.2-1.8-3.6 0-1.3.6-2.7 1.1-4l.3-.8c.5-1 1-2.2 2-2.7s2.6.1 2.5 1.3c-.9-.2-1.8 0-2.4.7-.4.4-.6.9-.8 1.4l-.9 3c-.1 1.4.2 3 1.4 3.2zM351.7 332.4l-.6 3c-1.8-1.9-1.5-4.9-1.2-7.5.1-.9-1-1.3-1.8-1.5-.8-.1-1.9-.3-2-1.2.2-.6 1-.7 1.6-.8 2.9-.2 5.7.3 8.4 1.3l-4 1c-.6.1-1 1-.8 1.7 0 .8.5 1.4.6 2.2 0 .6 0 1.2-.2 1.8zM317.3 485c0-.5 0-1.3.6-1.4 1.1 2.5 1.6 5.2 1.3 7.8 0 .4.6.6.9.3.3-.3.3-.8.2-1.2 0-2.2.4-4.5 1.3-6.6.2-.3.3-.6.6-.7.3-.2.7-.1.8.2v.4l-1.6 8c-.3 1.7-.7 3.3-1.9 4.4-.6-.5-.8-1.4-1-2.2l-1.2-9zM418.6 492.8c-1.2-.6-1.3-2.1-1.3-3.4v-4c0-1.3 0-2.6.8-3.5 1.1 1 1.4 2.7 1.4 4.3 0 1.5-.1 3.1.3 4.6.4-1 1-2 2-2.3.3 0 .7 0 .9.3v.6c-.4 1-.7 2-1.4 2.7-.7.8-1.8 1.2-2.7.7zM400.7 347.7l-4.1.9c-.9.2-1.9.5-2.4 1.2-.5.8-.3 1.8-.2 2.7 0 1 0 2-.9 2.5-.7-.4-.7-1.3-.7-2l.6-8.3c0-.3 0-.5.2-.7.2-.2.6-.2.9-.2l4.5.3c.4 0 .8.2.8.6 0 .4-.5.5-1 .5h-2c-.6-.1-1.4-.1-2 .3-.6.4-.7 1.4-.1 1.8.5.3 1.1 0 1.7-.3a5 5 0 014.7.7zM404.8 451.8c.3-.3.6-.5 1-.4.4 0 .7.5.4.8a52 52 0 00-4.2 5.3c-.6.8-2 .6-2.6-.3-.7-.8-.7-2-.7-3 .1-2.5.5-5 1.3-7.5.1-.4.3-1 .7-1.1.4-.3 1.1.1 1 .5-.9 2.8-1.3 5.8-1.3 8.7 0 .3 0 .6.2.8.2.3.6.3.8 0 .8-1.4 2-2.8 3.4-3.8zM397.8 300.4c-.7.7-2 .5-2.7-.1-.7-.7-1-1.7-1.4-2.6l-.6-1.6c-.2-.5-.3-1-.3-1.6.1-.5.5-1 1-1l1.6 4.7c.1.3.3.6.5.6.7.2 1-.8.9-1.4l-.7-6.2c-.2-1-.1-2.3.8-2.7.6.3.7 1 .7 1.5l.7 8c0 .9 0 1.9-.5 2.4zM301.8 93c.3.5-.6.9-1.1 1-1 .4-1.6 1.3-2.3 2-.7.8-1.8 1.4-2.7 1.1-.8-.2-1.3-1-1.5-1.9-.1-.8 0-1.7-.2-2.5l-.3-1.3.1-1.4.6-3c.1-.5.2-1 .7-1.3.4-.3 1.1 0 1 .5-.4 2.6-.5 5.4-.3 8 0 .3.1.6.4.7.2 0 .3 0 .5-.2l3.8-2.5c0 .5 1 .3 1.3.8zM358.4 471.2l.1-5.7c0-.6-.6-1-1.2-1-.6-.1-1.3 0-1.9.1-.6 0-1.3 0-1.6-.6-.3-.5.1-1.4.7-1.2 1 .3 2.1.2 3-.2 1.7-.8 3.6-.4 5.4 0a4 4 0 01-2.4 1c-.3 0-.4.3-.4.6v8.3c0 .6 0 1.4.6 1.7-.6.3-1.5-.1-1.9-.8-.4-.7-.4-1.5-.4-2.2zM299.8 226l.6.8 4.9-1.7c.9-.3 2.2-.4 2.6.5a48.7 48.7 0 01-8 3.3c-1 0-1.4-1.2-1.4-2.2-.1-2.7-.1-5.3.4-8 0-.2 0-.5.3-.6.5-.3.9.5 1 1 .1 2.4 0 4.7-.4 7zM419 176.9c.6-.5 1.4-.6 2.1-.8l5.1-1c.4-.1.8-.2 1 0 .4 0 .7.5.5.8l-.6.3-1.8.4c-.7.2-1 1-1 1.6 0 .6.3 1.3.5 1.9.5 1.9 0 3.9-.5 5.8 0 .2-.1.5-.3.6-.5.2-1-.5-1-1-.3-2.2-.3-4.3-.1-6.5 0-.8-1-1.2-1.9-1.2-.8 0-1.8-.1-2-1zM342.2 184.6l-4.3 4.2c-.2.2-.4.5-.8.5-.7.1-1.2-.8-1.3-1.6a47 47 0 01-.8-10c0-.4.2-1 .6-1 .5 0 .7.6.7 1l.4 4.6c.1 1.7.2 3.3.8 4.8 1.3-1.7 3-3 5-3.8.4.2 0 .9-.3 1.3zM331.7 221.4c.2 2 .2 3.9-.3 5.8l.4.5-1 .9a9.8 9.8 0 01-.8-8c.2-.5-.7-.8-1.3-.6-.6.2-1.3.6-1.7.1-.4-.3-.2-1 .1-1.2.4-.4.9-.5 1.3-.5 2.2-.4 4.5-.4 6.7 0-.7.8-1.7 1.3-2.7 1.4-.7 0-.8 1-.7 1.6zM408.5 293.8a4 4 0 002.6 3.3c.4-.1 1-.3 1.2-.8.2-.4 0-1-.4-1.2a3.6 3.6 0 01-2.1-2.6c-.3-1.2 0-2.4.5-3.5.3-.7.8-1.3 1.5-1.6.7-.2 1.7.3 1.7 1a2.9 2.9 0 00-2.1 3.7c.4 1.1 1.4 1.9 2.1 2.8.7 1 .9 2.7-.2 3.2-.2.2-.6.2-.9.2-1.4.2-2.9 0-3.9-.9-1-1-1.2-2.8 0-3.6zM324.3 470.7c.2.4.3.8.3 1.3-.2 1-1.4 1.4-2.4 1.6-1.7-.4-3.4-1.3-4.6-2.6-.5-.4-.9-1.3-.3-1.5l3.7 2.3c.5.2 1 .5 1.5.4.5-.2.9-.8.5-1.2a10.2 10.2 0 01-3-4.3c-.4-1.6.3-3.8 2-4.3.5-.1 1-.1 1.3-.5.2.3.6.3 1 .4.3 0 .7.2 1 .5 0 .3-.2.9-.6.7-1.5-.6-3.4.8-3.3 2.4 0 1.9 2.1 3 3 4.8zM403.5 299c-1-.2-1.6-1.5-1.8-2.5a25 25 0 01-.7-7.2c0-.4.4-1 .8-.8l.2.5 1.3 7.9c0 .3.5.3.7.1.3-.1.3-.5.4-.8l1-5.2c.1-.6.3-1.2.8-1.4 1 .4.9 1.8.6 2.8l-.7 3.5c-.2.7-.4 1.5-.8 2-.4.7-1 1.1-1.8 1zM290 428c-.6.5-1.4-.5-1-1.2.3-.6 1.1-.8 1.9-.9l3-.3c1.6-.3 3.3-.4 4.5.5.2.2.1.6-.1.7-.2.2-.5.2-.8.2-1 0-1.9-.2-2.7.2-.9.3-1.4 1.5-.8 2.2-1.2 2 .5 5.3-1.4 6.9-.9-2.6-1-5.4-.2-8 .1-.5-.5-1-1-1-.6 0-1 .4-1.5.8zM347.9 491l-.6 3.7a6.4 6.4 0 01-1.4-5.6c.3-1.2 1-2.4.5-3.5-.6-1.2-2-1.5-3.4-1.7 2.4-1.7 5.8-2 8.4-.6-.5.6-1.3.9-2 .9-.5 0-1-.2-1.5 0-.4.3-.4 1.2 0 1.2a9.9 9.9 0 000 5.6zM371.3 349c.2-.3.3-.7 0-1-.7-.7.1-2.1-.5-3-.8-.8-2.8-.1-3-1.2a38 38 0 018.6-.7c.4.5-.4 1-1 1l-1.8.3c-.3 0-.6 0-.7.2-.3.3-.2.7 0 1.1.6 2.5.5 5.2-.5 7.6a4.1 4.1 0 01-1-4.2zM343 346c.4 2 .4 4 0 6-.2.4-.5.9-1 .8-.8 0 0-1.9-.8-2.3.6-2.1.5-4.4-.3-6.5-.2-.5-1-.6-1.6-.5-.6 0-1.4-.2-1.4-.8.2-.5.9-.6 1.4-.7l5.8-.6h.5c.5.2.1 1.2-.5 1.4-.6.1-1.3 0-1.8.3-.9.6-.6 1.9-.4 2.9zM388.2 93a9 9 0 01-1.4-5.5c0-1 .2-2.5-.8-2.9-.5-.2-1.1 0-1.7 0-.6 0-1.4-.2-1.4-.8 0-.4.4-.8 1-1l1.4.2c1 0 2.2-.4 3.3-.6 1-.2 2.4-.1 3 .8 0 .7-1 .8-1.6.8-.7 0-1.6 0-1.8.7.4 2.7.5 5.5 0 8.2zM344.9 437.5c-.6-2.3-1-4.8-.3-7 .1-.4.3-.7.2-1-.2-.5-1-.6-1.5-.3-.6.2-1 .5-1.6.5-.6-.1-1-1-.4-1.2a15 15 0 017.7-1c.4.1.9.3.8.7 0 .3-.5.4-.8.5-1 .1-2.4.7-2.5 1.8l-.7 6.6c0 .4-.4 1-.7.8l-.2-.4zM299.8 324.7c-.4.3-.2 1 0 1.4 1.3 2.5 1.3 5.6.3 8.3-1.1-1-1-2.6-1-4 0-1.5-.3-2.9-.8-4.2-.3-.8-1-1.6-1.6-1.2-.4.3-1-.3-.9-.7.1-.5.6-.8 1-.9h1.5c.9 0 1.8-.5 2.7-.6 1-.2 2 .1 2.4 1l-3.2.7c-.1 0-.3 0-.4.2zM404.1 400.8a4 4 0 002.7 3.2c.4-.3.1-.9-.2-1.3-1.5-2-2-5.2-.3-7.1.4-.5 1-.8 1.5-.9.6 0 1.2.4 1.3 1-1.1.1-2 1.2-2.2 2.3a5 5 0 00.9 3.3c.5.8 1.1 1.8.9 2.7-.3 1-1.6 1.4-2.6 1.1-1-.3-1.7-1.1-2.3-2-.3-.4-.5-.8-.5-1.3s.4-1 .8-1zM291 328l.6-4.9c0-.4 0-1 .4-1.2.3-.3 1-.1 1 .3l.2 9.4v2.7c0 .5-.1 1.2-.6 1.2-.3 0-.5-.2-.7-.5a5.9 5.9 0 01-.6-6c-.3-.2-.3-.6-.2-1zM302.3 75.8c-1.9.2-3.6 1-4.8 2.5-.4.5-1.3.4-1.7 0-.5-.4-.7-1-1-1.7.8-2.1 1-4.4 1-6.7l.1-1c.2-.2.7-.3.8 0l.1.2c.2 1.6.5 3.2.2 4.7-.1.9-.4 2 .2 2.6a5 5 0 014.2-2.2c.5 0 1 .1 1.3.5.3.4 0 1-.4 1.1zM392.5 196.7c1 0 2-.2 2.9 0 .3.1.7.4.7.7 0 .7-1 .6-1.5.6-1.2 0-2.1 1.1-2.4 2.3-.2 1.2 0 2.4.2 3.6 0 1.2-.1 2.5-1 3.3-.3.3-.6-.3-.7-.6l-.2-2.8c-.1-1.1-.2-2.3.1-3.3.4-1-.6-2.1-1.6-2-.4 0-.6-.7-.4-1 .4-.4.9-.5 1.4-.6l2.5-.2zM335.6 368.3c-.3.5-.8 1-1.3.8l-.4-.6c-.7-2.1-.8-4.5-.1-6.6v-.5c0-.5-.7-.5-1.2-.5l-1.8.1c-.6 0-.8-.8-.4-1.2.4-.4 1-.5 1.6-.5h5.1l.5.1c.4.3.1.9-.3 1-.4.2-1 0-1.4.1-.4 0-1 .4-.8.9.7 2 .7 4.3 0 6.4l.4.5z"/>
  <path fill="#00EBAB" d="M322.4 432.5l4.3-1.6c1.2-.4 2.6-.9 3.8-.6l-1.3 6.4c-.1.7-.3 1.5-1 2-.6.3-1.7-.3-1.4-1l1.6-4.2v-.5c0-.6-.8-.8-1.4-.6-.9.2-1.6.7-2.4 1-.8.1-1.9 0-2.2-.9zM403 387.5a9.2 9.2 0 01-.4-7.5c.3-.7-.8-1.2-1.6-1.1-.8.1-1.9.3-2.3-.4 2.2-1 4.6-1.4 6.9-1.2.8 0 1.6.2 2 .8-.6.8-1.7 1.1-2.6.8-.5-.2-.8.5-.9 1l-1.2 7.6zM360.6 237.8c.1.8.8 1.4 1.6 1.6.8.2 1.6 0 2.3.1-.3 1.2-2.3.7-3.3 1.6-.6.5-.6 1.4-.5 2.2 0 .8 0 1.7-.5 2.3-.6.5-1.9 0-1.6-.7.4-1 .7-2 .4-2.9-.4-.9-1.8-1.4-2.3-.5-.7 0-.5-1.2 0-1.4.6-.3 1.3-.2 1.9-.4.8-.4 1-1.6.5-2.3.5-.2.4-1.2 1-1.3.3 0 .6.3.6.7v1zM296.3 464.6c.8 2.5.9 5.2.3 7.7-1-2.4-1.5-5-1.3-7.6 0-.6-1-.8-1.6-.7-.6.1-1.5.2-1.7-.4-.1-.5.3-1 .7-1 .4-.2 1-.2 1.4-.2 2.2 0 4.4-1.8 6.5-1-.2 1-1.5 1.3-2.4 1.4-1 .1-2.2.8-1.9 1.8zM314.3 324.4c-1.6-.2-2.8 1.5-2.8 3s.8 3 1.6 4.2c.3.5-.2 1.2-.7 1.4a3 3 0 01-3.2-.5 3 3 0 01-.7-3.1c.5.1.7.6.9 1 .2.5.4 1 .9 1.1.4.1 1-.4.7-.8a5.4 5.4 0 01-.8-5c.3-1 .9-1.7 1.7-2 .9-.4 2-.1 2.4.7zM422.7 290.1c-.6-.5-1.6 0-2 .6-.3.7-.2 1.5 0 2.3.4 2.4 1.1 5.1-.4 7a18 18 0 01-1.2-9.2c0-.5-.6-.8-1.2-.8-.5 0-1 .3-1.5.2-.5-.1-.9-1-.4-1.1l.4-.1h5.6c.5 0 1 0 1.3.4.2.4-.3 1-.6.7zM387.7 353.1c.3-2.4.4-5 .2-7.4l.1-1.4c.2-.4.7-.8 1.1-.7.5.1.7.6.8 1l.2.7c-.2.5-.8 1-.4 1.3.4.3.4.8.3 1.2l-.7 6.4.2.5c-.2.5-1 .4-1.4 0-.3-.4-.3-1-.4-1.6zM421.2 447a35 35 0 01-.8 8.4c-1-.9-1-2.3-1-3.5l.2-3c0-.6 0-1.4-.5-1.8-.5-.3-1.1 0-1.7.2-.5.3-1 .6-1.6.4-.6-.2-.8-1-.3-1.3 2.5-.9 5-1.4 7.7-1.6.4 0 .8 0 1 .3.3.2.3.8 0 .8l-2.4.7c-.3 0-.6.2-.6.5zM354.3 188.8c-1.6-1.6-1.5-4.3-1.2-6.5l.3-1.5c-.4-1-.5-2.2-.3-3.4 0-.4.2-1 .6-1.1.4-.3 1 0 1 .5a25 25 0 00.3 6.9c-.7.6-.3 1.8 0 2.6.2 1 .2 2.2-.7 2.5zM330 446c.4 2.8 0 5.6-.4 8.4-.1.7-.2 1.5-.8 2-.8-.2-1-1.3-.9-2l.1-3.3c0-1.9.3-4.1 2-5.1zM322.3 307.6c-.2 0-.3.3-.3.5-.1 1.2 0 2.3.2 3.5a67 67 0 00-.4 4.9c-1.7-2.3-1.6-5.4-1.4-8.3 0-.6-.8-.8-1.4-1-.6-.1-1.1-.9-.6-1.2l.5-.1h6c.4 0 1 .2 1 .7-.2.2-.4.3-.7.3l-3 .7zM414 405c-.4 1-.9 2.4-2 2.8 0-2.4.4-4.9 1.4-7.1.3-.8 0-1.6.2-2.5.1-.8 1-1.6 1.7-1.2.6.3.5 1.3.3 2l-1.7 6zM312.2 403.1c0 .5-.2 1.1-.7 1.4-.7.3-1.4-.4-1.6-1 0-.8.2-1.5.4-2.2.6-1.6.9-3.4.8-5.1 0-.5 0-1 .2-1.5.3-.4 1-.6 1.2-.2l.2.5c.2 2.7 0 5.4-.5 8.1zM351.4 317.4c-.5 0-.6-.6-.6-1 0-.8.4-1.6.6-2.4.2-.8.1-1.7-.5-2.2-1-1-2.5-.2-3.8-.4-.2 0-.4 0-.5-.2-.3-.4.3-.9.7-1 1-.3 2-.6 3-.6s2.2.6 2.6 1.5c.2.6.2 1.2.2 1.9 0 1.4-.1 3.1-1.2 4.1-.1.2-.3.3-.5.3zM329.6 483.8c-.6.7-.6 1.7-.6 2.6v6c0 .8 0 1.8-.8 2.1-.8-.4-.8-1.4-.8-2.3v-6c0-.7 0-1.4.4-2 .4-.5 1.3-.8 1.8-.4zM309 190.3c-.5.3-1-.5-1-1l-.3-5-.2-3.4c0-1 0-1.9.4-2.7.7.3.9 1.1 1 1.8.4 3.2.8 6.3.5 9.5 0 .3-.1.7-.4.8zM315 462.5c-.5 3.2-.7 6.4-.7 9.6 0 .6-.3 1.4-.8 1.2-.3 0-.4-.4-.5-.7-.6-2.8-.5-5.6.3-8.3.2-.9.7-1.8 1.6-1.8zM430.6 186c-.4.1-.7-.5-.8-1a19 19 0 010-8.4c0-.1 0-.3.2-.4.4-.3.8.3.9.7.7 2.7.8 5.6.3 8.3-.1.3-.2.7-.6.8zM360.2 95l-.6-.3c-1.2-.9-1.2-2.7-1.1-4.2l.6-7c0-.2 0-.3.2-.4.2-.3.6-.1.8.1.2.3.1.7.1 1-.3 3.3-.2 6.5.3 9.8 0 .3 0 .9-.3 1zM299.8 436c.5-2 .8-4.1.9-6.2 0-1 .7-2 1.6-2.3a81.5 81.5 0 01-1.2 11c-.5.2-1-.5-1-1s0-1.2-.3-1.5zM300.4 369.1c-1-1.7-1.1-3.8-.4-5.7-.4-.8-.5-1.8-.4-2.7 0-.5.2-1 .7-1.2.4-.3 1.1 0 1 .5-.2 2-.1 3.9.3 5.7-.4.5-.4 1.2-.4 1.9 0 .6-.2 1.4-.8 1.5zM378.7 410.6l-4 1c-1.9.5-3.9 1-5.6.2 2.2-.8 4.4-1.4 6.6-2 1.2-.4 2.8-.4 3 .8zM289.4 472.4a8.3 8.3 0 01-.4-3.6l.1-3.1.2-3.6c0-.5 0-1 .4-1.3.3-.3 1-.1 1 .4-.6 3.6-.6 7.2 0 10.8-.3.4-.4.9-.6 1.3-.3-.2-.5-.5-.7-.9zM324.3 444.8c.2-.2.5-.3.8-.3l5.5-1c.6-.2 1.3-.3 1.8 0 .5.4.5 1.4 0 1.5l-6.1 1.1c-.5.1-1 .2-1.6 0-.4-.2-.7-1-.4-1.3zM400.8 404.2c-.4-.4-.3-1-.3-1.5l.8-6.8c0-.5.2-1.1.6-1.5.3-.4 1.1-.3 1.3.2-.6 0-.7.8-.5 1.3.2.5.5 1 .4 1.5-.8 1.9-1 4-.6 6 .1.9-1.2 1.5-1.7.8zM379.3 328c-2 1-4.3 1.6-6.6 2-.4 0-.7-.6-.5-1 .2-.3.6-.5 1-.6 2-.7 4-.9 6.1-.5zM328.2 316.3c-.8-.5-.9-1.6-.9-2.6 0-2.3.3-4.6.7-7 0-.4.6-1.1 1-.7v.4c.1 1 0 2.1 0 3.2l-.1 4.2c0 .8-.1 1.8-.7 2.5zM375.4 413c-.6 2.3-.8 4.8-.5 7.2 0 .5 0 1-.4 1.2-.3.1-.6 0-.8-.3-1.3-1.2-1-3.2-.6-4.9l.5-2.4c.1-.5.3-1.1.7-1.4.5-.3 1.3 0 1.1.6zM419.3 463c0-.2.1-.5.4-.6.4-.3 1 .4 1 1 .1 1-.3 2-.5 3-.3 1-.3 2.1.4 2.9-.5 0-.5.8-.5 1.3s-.2 1.2-.7 1c-.3 0-.4-.5-.4-.8 0-2.6-.2-5.2.3-7.8zM327.9 360.1c0-.5.4-1 .9-1.3l.8.8c-.5.1-.6.7-.6 1.2 0 .4.2.9 0 1.3 0 .4-.8.7-1 .3v-.5-1.7h-.1zM421.1 213.3c.8 0 .9 1.3.6 2l-.9 2.5c-.1.4-.5 1-.9.7l-.3-.5c-.3-1.3-.1-2.8.5-4 .3-.3.6-.7 1-.7zM440.5 415h3.4c.3 0 .6 0 .7.2.4.4-.5.9-1.1.9l-4.8-.1c0-.8 1-1 1.8-1zM312.8 489.8c-1.6.8-3.4 1.1-5.2.9-.5-.1-.6-1-.2-1.3.4-.3 1-.4 1.5-.4 1.3 0 2.8 0 3.9.8zM341 369.7c0-.5 0-1 .2-1.4l.7-.8c.5 1.5.3 3.2-.7 4.4l-.2-2.2zM361.7 293.9c.5-.7 1.4-1 2.3-1-.4.8-1.4 1.3-2.2 1h-.1zM305.8 322.9c.3-.2.7 0 .8.2.2.3.2.6.2 1l-.2 2.6c-1.1-.6-1.1-2-1-3.3 0-.1 0-.4.2-.5zM404.3 334c.6.4 1.6 0 1.7-.8 0-.8-.9-1.4-1.6-1.1-.7.3-.8 1.5-.1 1.9zM48.8 195.5c.1.5 0 1-.2 1.4-.5-.4-.4-1.4.2-1.6v.2zM338 453.7c-.5.2-.9-.7-.9-1.4l.1-.6c.3-.4 1-.1 1.2.4.2.5 0 1-.3 1.4v.2zM432.4 431.4c.3.1.3.5.1.8-.1.2-.4.3-.7.4l-5.6 1.7c-.5.2-1 .3-1.5 0-.4-.2-.5-1 0-1l7.3-1.9h.4zM449.6 467.6c-.5 0-.4.8-.8 1.2-.4.3-1-.2-1-.7 0-.6.5-1 1-1.3l.7.8zM48.6 201.2c-.4-.2-.4-.8 0-1 .3.2.3.8 0 1zM48.6 188.7c-.4-.2-.4-.8 0-1 .3.2.3.8 0 1zM189.5 70.1c.2-.3.8-.3 1 0-.2.4-.8.4-1 0zM386.1 450.5l1.1-.6c.3.3 0 1-.4 1.1-.4.2-1-.2-1-.7l.3.2zM417.1 180.5c-.3 0-.2-.5 0-.6.3 0 .6.2.8.3-.1.3-.5.4-.8.3zM107.7 67.6l1.1.2c-.1.6-1.1.4-1.1-.1v-.1zM48.8 197.7c.1.3 0 .7-.3.8-.1-.2-.3-.4-.3-.7.1-.3.6-.4.6 0zM412.9 396.4c-.5-.2-.5-1-.1-1.3.3-.3.9-.3 1.4-.3h4.4c.4 0 1 0 1 .4 0 .5-.5.7-1 .7-1.6 0-3.4-.4-4.9.3-.3.1-.6.3-.8.2zM436.3 487.4c-.5.1-1 .2-1.4-.2-.3-.6.6-1.2 1.3-1.3l2.1-.5c.4-.1.8-.2 1.2 0 .3.2.4.8 0 .9l-3.2 1zM48.3 190c0-.2.5-.2.5 0 0 .3-.5.3-.5 0zM199.7 69.4c.3-.4 1-.2 1.2.3 0 .5-.5 1-1 .9-.5-.2-.7-1-.4-1.4l.2.2z"/>
  <defs>
    <pattern id="pattern0" width="1" height="1" patternContentUnits="objectBoundingBox">
      <use transform="matrix(.00241 0 0 .00129 0 0)" xlink:href="#image0"/>
    </pattern>
    <image id="image0" width="415" height="777" href="1_blackouttuesday2.jpg"/>
  </defs>
</svg>
