<svg xmlns="http://www.w3.org/2000/svg" xmlns:xlink="http://www.w3.org/1999/xlink" fill="none" viewBox="0 0 365 879" width="365" height="879">
  <defs/>
  <path fill="url(#pattern0)" d="M39 120h306v528H39z"/>
  <path fill="#00EBAB" d="M287.4 524.6c-2.2 1.8-5.1 3-5.8 5-1 2.7-.4 6-.4 9.2v18.8c0 8.6-2.5 16.9-4 25.3-1 5.3-2.3 10.5-3 15.7-1 8.1-2.4 16.1-4.9 23.8-3.7 11.8-7.7 23.4-11.6 35.1l-.7 1.7c.6-.2 1.5-.1 2-.6l5.4-5.3c.7-.7 1.2-1.7 2-2 .8-.3 1.9 0 2.8.2-.2.8-.2 1.9-.8 2.3-2.5 2.4-5.1 4.5-7.7 6.7-3.9 3.3-5.9 3.3-8.9-.7-1.5-2-2.4-4.4-3.4-6.8-.3-.7.1-1.8.2-2.8.7.6 1.6 1 2 1.6 1 1.1 1.6 2.5 2.4 3.7l1.2 1.5c.4-.5 1-1 1.1-1.5 2.4-7.2 5-14.4 7-21.7 2.4-8.4 5.7-16.6 7.3-25.2 2.2-11.6 4-23.2 6.7-34.7 2.8-12.1 3.2-24.6 2.6-37.1-.2-2.5.7-6-.6-7.3-1.3-1.2-4.8-.6-7.3-.4-9 .5-15.5-4.3-20.7-10.7-5-6-4.8-20.2-.2-27 2-2.9 4-5.8 6.2-8.5 3.6-4.4 9.1-5.4 13.8-7.9 7.4 2.2 16.4 0 22 7.8 2.3 3.4 6.6 5.3 7.4 9.9.1.7.6 1.5.4 2.1-1.8 6.7-.2 14.3-4.6 20.3-2.4 3.2-5 6.2-8 9.5zm.9-40.8h1c-.3-.1-.7-.4-1-1.2-1.4-1-2.7-2.7-4.1-2.8-4-.2-7.6-1.4-12-.5-6.2 1.3-11 3.8-14.8 8.4-6.6 7.8-7 17-5.5 26.6.2 1 1 2 1.6 2.8 5.5 7.3 21.4 13.2 31.3 3.1a39.3 39.3 0 0010.6-18.5c1.7-7 1.2-10-4.8-13.7-2.6-1.7-5.5-2.8-8.3-4.2l-2.2-1.3c.8-.1 1.5-.5 2.2-.4 2 .3 4 .7 6 1.7zm-3 38.2l-1.5 2c.6 0 1.4 0 2-.2.4-.1.9-.6 1.1-1.1.7-1.4 3.5-1.6 2.2-4l-3.8 3.3zM146.2 570.1c5-5.5 9.9-10.5 14.8-15.5.3-.3.5-1.1.3-1.5-.1-.3-1-.7-1.4-.6l-7.8 2.3c-.7.2-1.5-.1-2.2-.4-.2-.1-.2-1.3 0-1.5 3.6-3 8-4.2 12.5-3.8 3.6.3 5.8 3.2 7.1 6.3.9 2 1 4.3 1.3 6.5l1.2 6c0 .7-.3 1.4-.5 2.1-.8-.3-2-.5-2.3-1-.9-1.5-1.5-3-1.9-4.6-.5-2.5-.7-5.1-1.2-7.7-.1-.6-.5-1.2-.8-1.9l-2 1a109.5 109.5 0 00-21.4 26.4c-8.9 14.4-18.5 28.4-25.3 44-3 7-5.8 14.1-8 21.4-3 10.5-6 21-8 31.8-1.6 7.7-1.4 15.8-2.7 23.6-1 5.9 1.1 11.8-1 17.6 1.7 9 .9 18.2 3 27.4 1.5 6.8 3.7 13.5 4.1 20.7a32 32 0 004.5 13.3c.5 1 1.2 2 1.2 3 0 1.2-.6 2.4-.9 3.5-.6-.7-1.4-1.4-1.9-2.2a67 67 0 01-7.8-23.8c-1.1-6.9-3.6-13.5-4.5-20.4-1-7.8-1.9-15.8-.9-23.5.6-4.7 0-9.2.6-13.9l2.3-19.5c.8-7.6 3-15 3.9-22.6a52 52 0 012.6-10c2.5-7.6 5-15.1 7.9-22.5 1.7-4.6 3.5-9.2 5.9-13.4 6-10.7 12.3-21.2 18.8-31.6 3.1-5 7-9.6 10.5-15zM222.2 817.6c-.7 1-1.1 1.8-1.5 2.6-.6-1-1.6-1.9-1.6-2.8 0-1.4 1.2-3 1-4.2-1-3.9 3-3.8 4.3-5.8.2-.3 2.2.2 3 .8.4.5.2 1.8.3 2.7 0 1.1-.4 2.3 0 3.2.2.7 1.4 1 2.2 1.4.3-.8 1-2 .7-2.3-2-2.8.9-4.3 2-4.4 2.4-.1 5 1 7.5 1.4.8.2 2 .3 2.3 0 1.8-2.4 4.2-1.5 6.4-1.7 3-.3 4.6.6 3 4v1.7l.8 1.3c.5-.3 1.3-.6 1.5-1 .7-1.6 1.1-3.2 1.7-4.7.2-.5.8-.8 1.2-1.2.3.4.6.8.7 1.3.4 3.2-.6 6-3 8-.8.7-2.3 1.4-3 1-1-.5-1.6-1.8-2.1-2.9-.3-.6 0-1.5-.1-2.3-.1-2.7-2-3.8-4.4-2.5-.7.4-2.2 1.2-.5 2.4.5.4 1 .8 1.3 1.3 2.2 3.6 2 4-2.6 4.2-2.1.2-4.3.7-6.4 1.4-3.8 1.5-4.4 1.2-7.4-1.7-1.6-1.5-4-2.2-6.1-3.2l-1.2 2zm12.6 1.5c2-.8 4-1.9 6-2.3 2.2-.5 2-1 1-2.6-1.7-2.6-4.2-2.2-6.7-2.2-.3 0-.5.4-.8.6.3.2.6.5 1 .6l2.4.7c-1 .5-1.9 1.5-2.8 1.6-3.3.3-1.6 2.1 0 3.6zm-10.5-7l.4-.8c-.3 0-.7 0-.4.7zM155.6 704c0-3.1-.2-5.7 0-8.2 0-1 .6-2.1 1.2-3 1.4-2.2 4-2.7 5.4-1.2 1.1 1.1 3.2 3.6.5 5.9-.6.5-1.4 2-1.2 2.3 1.2 1.1 2.6 2 4 3 .2-.5.6-1 .6-1.4 0-2.2-.2-4.4.1-6.5.3-1.5.7-3.1 3.4-2.3 4.4 1.4 9 1.5 13.4 0 .4-.3 1.8.4 1.8.9.6 3.3 1 6.7 1.2 10 0 .5-.6 1.1-1 1.7-.4-.5-1.1-1-1.2-1.5-.1-1.2 0-2.1-1.8-2.1s-1.8.8-1.8 2.1c0 .7-.6 1.4-1 1.9-.4.4-1.3.8-1.5.7-.4-.4-1-1.1-1-1.7.3-2.3.6-4.8 1.3-7 .3-1.1 1.8-1.9-.6-1.8h-4.7c-1 0-2 .5-2.9.7 1 .1 1.9.2 2.7.5.4.1.7 1 .6 1.4 0 .4-.7.6-1.2.9-.7.3-1.7.5-2.2 1-.3.5.1 1.5.2 2.2l1.3-.6c.6-.3 1.3-.7 2-.8.5 0 1.3.1 1.6.5.2.3 0 1.4-.3 1.5-2.7 1.3-5 5-8.5 1.5-.7-.7-2.3-.3-3-1-3-2.4-5-2.2-6.6 1.3 0 0-.6-.2-.8-1zm4-5.9c1.4-1 2.4-2.4 1.6-4.2 0-.3-1-.3-1.4-.5-.2 1.4-.5 2.8-.1 4.7zM261.2 799.1v-3l-1.6.5c-.8.1-1.6.2-2.3.1-2.5-.3-3.4.6-3.1 3.1 0 1-.3 1.8-.5 2.8-.6-1-1.6-1.7-1.8-2.7-.2-1.3-.3-2.4-1.9-2-.6.3-1.2 1-1.6 1.6-.4.5-.5 1.2-.8 1.8l-1.2-1.2c-2.4-3-2.4-3-5.1.3-.4.5-1.2.7-1.7 1-.2-.6-.8-1.5-.6-2 1.6-2.8 3.1-5.8 5.2-8.3 1.1-1.5 4 .2 4.1 2.3v1.7c.3.6.6 1.2 1.1 1.6.2.1 1-.4 1.4-.7.4-.4 1-.9 1-1.3-.3-4.3 2.8-4.1 5.5-3.7 1.6.2 3.2 1.3 4.8 2 0-2.7 2-2 3.6-2.1 2-.2 3.5.4 3.7 2.6.2 2 .2 4-2.4 4.4-2 .2-2.7 1-3.6 2.8-.8 1.6-2.2 1.2-2.2-1.6zm3.6-5.3l1.3 1.8 1.9-2c-.9-.2-1.8-.3-3.2.2zm-9.4 0c.5.2 1 .6 1.5.6.6 0 1.3-.4 2-.6l-.9-.9c-.9-1.4-1.4-.3-2.6 1zM246 795l-.7-.5c0 .4 0 .7.7.5zM301.5 677.3c-.8 2.6.8 5.3-1.5 7.4-.4.4-.6 1-.9 1.4-.4-.4-1.2-.9-1.2-1.3.1-1.5.6-3.1.7-4.7 0-1-.3-2-.4-3.1-1 .7-2 1.4-2.9 2.3-.2.3.2 1.2 0 1.7-.7 1.3-1.4 3-2.5 3.5-1.6.7-3.6.3-5.4.4 0-1.4-.2-3 .3-4.3 1.9-5 5.1-6.8 10.4-6.1.7 0 1.4-.4 2-.6 3.7-1.5 5-.7 5.8 3 0 .4-.2 1 0 1.2.4.5 1 .8 1.4 1.2.3-.4.8-.8.9-1.2 0-1.2-.2-2.4 0-3.5.3-.8 1.1-1.5 1.7-2.2.6.8 1.5 1.6 1.7 2.6.2.7-.6 1.6-1 2.4-.3 1.2-1 2.4-1 3.6-.2 1.8-.5 4.2-2.3 4-1.4-.3-2.6-2.7-3.8-4.2-.8-1.1 1.7-3.8-2-3.5zm-9.1 4.4l1.5-3.2c-1.1.4-2.3.7-3.2 1.4-.5.3-.6 1.2-.8 2 0 .2.3 1 .4.9.5-.1 1-.3 2-1.1zM306.7 741.3c1.1-2.3 1.9-4.4 2.7-6.4.2-.6.7-1 1-1.6.5.5 1.3 1 1.3 1.5 0 1.9.3 2.7 1.9.8.5-.6 1-1.2 1.7-1.6.5-.3 1.3-.3 2-.5-.2.9-.1 2-.6 2.4-1.6 1.3-3.4 2.2-5 3.3-.5.4-.8 1-1.1 1.6l1.5-.2 1.7-.2c4.7.4 4.7.4 6.1-3.8.2-.6 0-1.3.3-1.7.3-.3 1-.3 1.5-.3.3 0 .6.7.6.9-1 2.9-2 5.8-3.2 8.6-.1.3-1.1.4-1.6.2-3.4-.7-7-3.5-10.2.7-.2.3-1.8-.1-2.5-.5a12 12 0 01-3.7-2.5c-2-2.3-3.2-2.1-4.1.8-.2.4-.8.7-1.2 1-.2-.5-.5-1-.5-1.6-.1-4.6 2.1-8.2 6-9.6 1.9-.7 3.8-1.1 5.2.8 1.6 2.2 0 3.5-1.4 4.9l-2.2 2c1.2.4 2.4.8 3.8 1zm-6.1-5.6l-.4.4v.4c1 .1 2.1.4 3.2.3.5 0 .9-.8 1.3-1.2-.5-.4-1-1-1.5-1-.7 0-1.4.3-2.6 1zM289.7 726c2 2.5 3.6-.9 5.2.3.4.3 1 .4 1.5.5-.4.5-.7 1.1-1.2 1.2-1.5.5-3.6 1.5-4.7.9a25 25 0 00-10-3c-4.3-.3-4.3-.8-5.2 3.5-.1.6-.7 1-1 1.6-.5-.5-1.3-1.1-1.2-1.4 1.4-4.7 2.6-9.5 5-13.7 1.1-1.8 2-1.6 2 .7-.1 1 0 2 1.4.7 1-1 2.4-1.8 3.7-2.5.4-.2 1.2.3 1.9.4-.4.6-.6 1.3-1 1.7l-3.6 2.8c-1.2 1.2-2.8 2.3-3.5 3.7-.3.7 7.4.8 8.5-.5.7-.9 1.3-1.9 1.7-2.9 2.3-5.4 4.4-6.6 9.9-5.4 1.2.2 2.4.7 3.6 1.1.3.1.5.5.7.7-.3.2-.6.5-1 .5h-8.1c-.8.1-1.6 1-2.3 1.6.7.2 1.5.4 2.2.8.4.2.7.6 1.1 1-.4.4-1 1.3-1.3 1.2-3.3-.4-4 1.7-4.3 4.5zM248 755.4c-.8 1.2-1.3 2.2-2 3-.5.7-1.3 1.2-2 1.7l3 1.4c.8.3 2 .3 2.6.8.5.5.6 1.5.9 2.3-.7.2-1.5.6-2.2.4-1.5-.4-3-1.3-4.6-1.6-1.3-.2-3.1-.3-3.9.4-2.7 2.5-2.2 0-2-1.3.8-3.8-1.7-3.4-4-3.3-2.4 0-5.4 2.3-5.3 4 0 .2 1 .7 1.2.6 1.1-.7 2-1.6 3.2-2.2.6-.3 1.5.1 2.2.2l-1 1.7-3 2.9c-1.8 1.5-3.6.9-3.9-1.5-.2-2.6.2-5.1 0-7.7-.3-2.4.7-3 2.9-2.7l2.7.3-1.6 2-1.3 1c.5 0 1.1.3 1.6.2 4.4-.7 8.2-3 12-5.2 2.2-1.4 3.5-.5 4.8 1.1.2.2 0 .8-.3 1.5zm-3.8 1.4l1.7-1.6c-.6-.2-1.3-.7-1.8-.6-.8.2-1.7.6-2.3 1.2-.4.4-.1 1.3-.2 2 .7-.1 1.4-.3 2.6-1zM276.5 753.3c1.1.1 2 .2 2.1.4.7 2.7 1.3 3.7 3.6.9.9-1.2 2.8-1.4 4.9-.3 2 1.2 1 2.7 1 4 .2 3-2.4 3.6-4.5 5-2.5 1.7-3-.9-4-1.8-1-.8-1.5-1.3-2.6 0-.7.7-2 1-3 1.2-1.2.2-2 0-2.4-1.6-.2-1.1-.8-1.7.2-2.6.6-.6.7-1.6 1-2.4-.9-.2-2.1-.8-2.6-.4a14.4 14.4 0 00-4.1 4c-.7 1 0 2.7-.2 4 0 .5-.9 1-1.4 1.3-.3-.3-.9-.8-.9-1.1.2-2 .3-4.2.9-6.1.4-1.5.3-2.1-1.3-2.2-.6 0-1.2-.4-1.8-.7.5-.5 1-1.3 1.6-1.5 1-.3 2-.1 3-.1h10.5zm9.4 5.3l-.9-1.8-3.8 3.7.5 1 4.2-3zm-11.7-1.2c0 1 .2 1.8.3 2.7 1-.8 2-1.5 2.9-2.5.2-.3-.2-1.2-.3-2-.8.5-1.6.8-3 1.8zM114.2 824.6c-2.7.5-4.5 0-4.4-3v-4.7l.3-2.5c-.8.4-1.9.7-2.3 1.4-.8 1.4-1.5 2.9-.5 4.8.4.6-.4 2.4-1.1 3-1.2 1.1-2.8 2.3-4.3.2-.4-.7-1.5-1.2-1.5-1.7.3-3 .6-6 1.2-8.9.5-2.3 2.1-2.7 4.4-2.1 1.6.3 3.4.1 5.1.2 1.4 0 3-.2 4.3 0 1.3.2 2.4.8 3.6 1.2l-3.5.7c-.9.2-1.7.6-2.5 1-.4 0-.6.5-.9.7.3.2.6.6 1 .6h4c.7.1 1.4.5 2 .7l-1.5 1.7c-.2.3-.2.7-.3 1 2.8.2 1.4 1.2.5 2.1l-3.6 3.6zm-8-10.8c-.3-.2-.7-.7-.9-.6-2.6 1.4-3.6 6.2-1.7 8.4.3.3 1.3.4 1.6.2.3-.3.6-1.4.4-1.5-2.5-2.2-1-3.8.6-6.5zm7.7 7.6l1.6-1.6c-1-.2-2-.7-2.9-.5-.9.2-.7 1 1.3 2.1zM291.5 702c-.1-1.1.2-1.8.2-2.6 0-.4-.4-1.1-.7-1.2-.5-.1-1 .2-1.5.5-.2.1 0 .8 0 1.1-1.1 2.3-1.7 5.2-3.5 6.7-1.5 1.2-4.4.8-6.7 1-2.5.2-4.2-.7-4-3.5.3-2.8.8-5.5 1.3-8.3 0-.4 1-1 1.5-1 1-.2 2-.3 2.9 0 1.3.2 3.3-1.4 3.6 1.2 0 .2-2.2.7-3.3 1l-1.1.8 1.5.4c.7.4 1.3 1 1.9 1.5l-1.9.8c-1.1.5-2.6.6-3.4 1.4-.6.6-.2 2-.3 3.1l2.4-.7 3-1.4c2-.8 3.7-2 3.6-4.5 0-2.2 1.2-3 3-4 2.2-1.4 2.6.4 2.9 1 1 2.8 1.7 5.6 2.3 8.4.2.8-.2 1.8-.6 2.7-.2.4-.8.7-1.2 1l-.4-1c-.5-1.4-.8-2.8-1.5-4.5zM333.8 740.7c-1.3.2-2.3.7-3.2 1.4-.6.4-1 1.2-1.4 1.8-.8-.6-1.8-1-2.1-1.8-.4-.9 0-2-.1-3 0-.3-.3-.6-.4-1l-.8 1.2c-.4.7-1 1.2-1.1 2-.3 1 .6 3-1.8 2.5-.2-.1-.2-2.4.1-3.5.7-2.2.2-5.1 2.9-6.4.9-.4 2-.2 3.1-.3.1 1 .3 1.9.2 2.8-.1 1.2-.6 2.4-.9 3.6h.8l1.4-3.6c.2-.7-.2-1.6 0-2.3.3-.7 1-1.3 1.4-2 .3.6.8 1.2 1 1.8.3 2.2.7 3 2.4.6.5-.8 1.5-1.5 2.4-1.8 1-.3 2-.2 3.1-.2l-2.1 2c-.9.7-2 1.3-2.6 2.2-.6.8-.6 2-.9 3.1l3.9.6-.1-1.5c-.3-.6-.8-1.1-1.2-1.7.7 0 1.5-.4 2.2-.3 3.6.2 4.7 2.3 3 5.7-.4.7-.5 1.4-.9 2-.7 1-1.8 2.8-2.2 2.7-2-.7-1.2-2.2-.5-3.5 0-.2-.5-.8-1-1-1.3-.8-4 1.6-4.6-2.1zM302.6 795.9c1.7 2.8 5 4.1 7.2 3.1.1 0 0-1.1-.2-1.4-1.9-1.7-2-3.6-.7-5.6 1.3-2 3.2-2.8 5.5-2.3 1 .3 2 1 3 1.5-1 .3-1.8.7-2.7.8-.7.2-1.8-.3-2.3.1-1 .9-3 1.6-1.2 3.6.6.5 1.4 1 1.6 1.6.5 1.3 1.2 3.5.7 3.9-1.2.9-3.2 1.6-4.6 1.3-3.1-.8-6.3-1.9-9-3.5-2.6-1.5-3.7-1-4.7 1.4-.2.5-1 .7-1.6 1-.2-.4-.7-1-.6-1.4.4-2.5.7-5.1 1.4-7.6.6-1.9 4.4-3.6 5.8-2.6 2 1.2 4.6 2.6 2.4 6zm-2-.3c1.7-2-.4-2.6-1.3-3.5-.1-.1-1.5.5-1.6.9 0 1.2-.6 3 2.9 2.6zM223.4 682.5c-2.3 2.3-4 5-7.6 3.6-2-.8-2.1-4-.6-8.3.1-.5 0-1.1.3-1.6.2-.6.7-1 1-1.6.5.7 1.3 1.4 1.2 2-.2 1.9-.8 3.6-1 5.5-.1.6.4 1.3.6 2l1.7-1.1c1.3-1.2 2.5-2.7 4-3.5 1.1-.5 1.6-.7 2-2 1-3.5 1.6-3.5 5.2-1.7 4.8 2.5 5.8 7 1.9 9.7-1.6 1-3.6 1.5-5.6 1.9-.4 0-1.3-1.3-1.6-2.1-.4-1-.3-2.3-.4-3.4 0 0-.3-.1-.4 0-.2 0-.3.2-.7.6zm3.8-1.4c.3 1-1 3.2 1.5 2.8 1.2-.2 3.1-1.7 3-2.4-.3-1.5-1.6-2.8-2.4-4.2-.7.9-1.4 1.7-2.1 3.8zM275.3 799.1c4.2 0 6.4-1.7 7.9-4.9.6-1.2 1.5-2.7 2.6-3.2 1.3-.5 4.2-.3 4.3.2.6 2 .6 4.2.2 6.2 0 .6-.6 4.5-3.2 1.3-.5-.6-2.5-.6-3.5-.2-2.5 1-4.8 2.5-7.2 3.6-2.8 1.2-4.5.2-4.5-2.8 0-2 .4-4 1.2-5.9.8-2.3 4.5-3.4 6.5-2.3.3.1.5.7.4 1-.2.4-.5 1-1 1-.7.4-1.6.6-2.4.8.6.2 1.6.3 2 .8.8 1.4.2 2-1.4 2.1-1.2.1-4.3-1.3-1.9 2.3zm11.2-4.7l-.4.4v.4l2.1-.3c-.3-.4-.7-.7-1.7-.5zM236.9 721.3c1.4 1.8 2.6 3.2 3.5 4.8.7 1-.1 2.5-1.2 2.2-1.7-.4-3.4-1.1-5.2-1.6-1.8-.6-3.4-.7-5.2.8-3 2.3-5 1-5-3 0-2.7.7-5.5 1.1-8.2 0-.3.7-.6 1-.5.4 0 1.2.4 1.2.7v7c0 2.4.8 1 1.9.6 1.2-.5 2.7-.2 4-.2 1 0 3.7 3 1.8-1.3-1.5-3.4 1.6-7.9 5.2-8 .7 0 1.5 1 2.3 1.5-.6.3-1.2.5-1.6.9a22.9 22.9 0 00-3.8 4.3zM251.6 741.3c1-2.2 2-4 2.5-5.8.8-2.8 7.1-4.9 9.3-2.9.2.3.1 1.4 0 1.5-.7.3-1.5.4-2.2.4-3-.2-4.6.5-4.8 4-.1 3.6-.5 3.6 3.6 3 .3 0 1 .2 1 .4.1.5.3 1.3 0 1.6-1.6 2-5.4 3-7.5 1.3-2.2-1.6-2.7 1-4.2 1.1-1 .2-1.5 2.6-3.2 1-1.2-1.1-3-2-2.5-4.2.5-2 1-3.9 1.7-5.7.3-.8 1-1.4 1.6-2.1.4 1 1.2 2 1 2.8-.2 1.8-1 3.4-1.5 5.2v2c.6-.2 1.5-.1 2-.5 1-.8 1.9-1.9 3.2-3.1zM220.1 762.7c-1-1.4-1.7-1.7-2.4 0-.4 1-1.8 1.6-2.8 2.3.3-1.4-2.8-2.2-.8-4 .3-.3.3-1.2.1-1.7-.2-.5-.9-1.3-1.3-1.2-.7 0-2 .5-2 1-.3 1.3.3 3-.3 4-.5 1.2-2 1.9-3.1 2.8-.6-1.5-4-1.8-2-4.5.5-.7.1-2 .6-2.7 1-1.5 1.4-4 4.4-3.2 2.2.6 4.9-.3 5 3.3 0 .5.7 1 1 1.5.5-.4 1-.9 1.3-1.4.2-.5 0-1.4.2-1.6.8-.7 1.9-1 2.8-1.6.2 1 .5 1.8.5 2.7 0 .5-1.1 1.1-1 1.3.3.6 1 1.1 1.5 1.7l.7-1.2 1.7-4.5c.2 1.8.6 3.7.3 5.4a6.6 6.6 0 01-2.4 3.6c-1.3 1-2.1.2-2-2zm-12.9-1.8l.3 1.5.8-.2c-.2-.6-.3-1.2-1-1.3zM183.4 677.3c1.1 2 1.8 4 2.7 5.7.3.5 1.1.7 1.7 1 .2-.5.5-.9.6-1.4l1.3-7c0-.4.7-1 1.1-1 .4.1 1.1.7 1.1 1-.5 3.2-1 6.6-2 9.7-.3 1-2.3 2-3.6 2-.9 0-1.8-1.8-2.5-2.9-.3-.4 0-1.2-.1-1.7-.1-.4-.7-.7-1-1l-1.3 1.4v.6c0 1.9.3 3.8-1.8 5-.7-1.5-1.7-2.9-2-4.4-.5-2.4-.7-4.8-.9-7.3 0-.7.5-1.4.8-2.2.5.8 1.1 1.5 1.5 2.3.2.5 0 1.1 0 1.7l.5 1.6c.3-.6.4-1.4.9-1.7a7 7 0 013-1.4zM294.1 761.5c3.2-1.3 5.7-1.7 8.5 0 .7.4 2.1-.3 3.2-.5-.7-.6-1.5-1.2-2-1.8-1-1-2.3-2-2.5-3.2-.2-1.4 0-3.5 1-4.1 1.1-.8 3-.5 4.6-.4.5 0 .9.8 1.3 1.2l-1.5.6c-3.3 1.2-3.5 2-1.4 4.7.5.6 1.2 1 1.6 1.7.9 1.1 1.6 2.4 2.4 3.6-1.4.2-3 .5-4.4.5-3.8.2-7.6-.7-11.4 0-2.8.6-3.4-1-2.8-3.2.5-2.3 1.4-4.5 2.2-6.7.3-.7 1-1.2 1.5-1.8.3 1 1 2.1.8 3-.4 1.3-1.7 2.4-2.2 3.8-.2.7.3 1.7 1.1 2.6zM199.9 696c-.1 1.5-.7 2.7-.9 4-.5 4.3 0 4.6 4 2.8l1.7-.8c0 .8.4 1.7.1 2.3-1 2.5-5.2 3.8-7.3 2.1-1.8-1.4-3-1.3-5-.3-2.8 1.4-4.2.2-4-3 .1-3 .7-5.9 1.2-8.8 0-.4.8-.8 1.2-.8.3 0 1 .6 1 1 0 2.2.3 4.6-.4 6.8-.3 1.2-.8 1.5.7 1.5 2.4 0 4.1-1.8 4.5-4.2.2-1.2.8-2.3 1.2-3.5.6.2 1.1.4 2 1zM262.7 713.7c1.9 3.3-1 5.8-1.8 8.8l-.4 2.4 2.4-.9 4.8-2.4c1-.4 2.4-.3 2.8-1 .8-1.2 1-2.7 1.3-4.1.1-.6-2.6-1.7.3-2 1.2 0 2.5 0 2 1.8-.9 3.7-1.8 7.4-2.9 11 0 .5-1 .7-1.6 1-.2-.8-.6-1.5-.6-2.1.2-2.6.3-2.6-1.9-1.7-2.1 1-4.2 2.2-6.4 2.9-1.8.5-3.6.2-3-2.5 1-4 1.6-8 5-11.2zM323.8 682c.1.6.3 2-.3 2.4-1.3 1.3-3 2.9-4.5 3-1.4 0-4-.6-3.8-3.6 0-2-1.3-4-1-5.9.4-1.5 1.2-3.7 4.1-3.4 3 .4 6.2 0 9.4.2.5 0 1 .6 1.7 1-.7.4-1.3 1.1-2 1.2l-8.8 1.3c-.4 0-.7 1-1 1.7l1.6-.4 1.7-.2c.4 0 .7.2 1 .3-.1.4-.2 1-.5 1.2l-3.5 3 5.2-1.1.7-.7zM72.2 814.4v4.6c.1 1.2.5 2.3.7 3.5-1.3 0-3.1.4-3.9-.3-2-1.8-2.5 0-3.7.8-2.6 1.6-4.9.7-4.8-2.1.2-3 1-5.9 1.6-8.7.1-.5.8-.9 1.2-1.3.2.5.6.9.6 1.4v4c0 2.7.3 3 2.8 1.8 2.9-1.3 2.9-1.3 3.1-3.9.4-3.4 1.5-4.6 4.1-4.5l1.6.3-.8 1.3c-.8.8-1.7 1.6-2.5 3zM263.6 807.3l1 .4 2.9 5.3 3.7-4.5c.6-.6 1.6-.8 2.4-1.1.2.9.6 1.8.5 2.7-.2 2.1-.6 4.3-1.2 6.5-.2.8-1 1.5-1.5 2.3l-.8-2.3v-.5l-1-1.7c-.4.4-1.3.9-1.2 1.3.1 1.8-.7 2.7-2.3 2-.7-.2-1-1.5-1.3-2.4-.2-.7.1-1.6 0-2.3-.3-.8-.8-1.5-1.2-2.2l-1.2 2-1 2-2 3c0-1.3.2-2.5.3-3.7.2-2.7.8-5.2 3.9-6.8zM238.6 697.2c-.7 1.8-3.1 3-.7 5.2 2 1.8 1.3 3.3-.4 4.8-1.8 1.4-2.7 3.8-6.2 1.9-2.7-1.5-1.3-3.6-2.3-5.1-.6-1 .3-2.9.5-4.3.2-1.7 0-3.5.7-5 .4-1 6 .4 7.7 1.8l.7.7zm-3.8 2V697c-1 .2-2.7.3-2.7.5 0 3 .2 6 .5 9 0 .2 1 .6 1.5.5.9-.2 1.7-.7 2.4-1.2.1-.1-.4-1.6-.8-1.6-3.2-.6-.6-3-.9-4.8zM299.1 696.6c1.3-.6 2.1-1.8 3.2-2.5 1.7-1.1 3.6-1.4 5.2.3 1.3 1.5 1.3 4.6-.7 5.5-4 2-2 3 .4 4l1 .6 1.2 1.2c-.7.2-1.5.7-2 .6-1.7-.3-3.3-.8-4.7-1.5-1.3-.6-2.9-4.2-2.8.7 0 .3-.8.8-1.2.8-.3 0-1-.6-1-1l-1.2-8.9c.8 0 1.5 0 2.6.2zm2 2.1c2.8 2 4-.6 5.5-2 .2-.1 0-.7 0-.7-2-.5-4-.5-5.4 2.7zM61.6 857.8c-.5-1.5-1-2.5-1.6-3.4-.3.8-.4 1.7-.8 2.4l-2.1 3c-1.5-1.2-1.4-2-.4-3.8 1-2-.6-5 2.2-6.7l2-.9.7 2 1.1 3.9 2.4-3.9c.3-.5 0-1.2.3-1.6.4-.6 1.2-1.4 1.6-1.3.6.1 1.5 1 1.6 1.5.2 1.8 0 3.5 0 5.3l.5 4.5.3 1.2c-.7-.2-1.7-.2-1.8-.6-.6-1.5-.9-3.2-1.3-4.8l-.6-1.5-.6 1.5-2.7 5.3-.8-2zM165 762.7v-8.2c0-.4 1-.8 1.4-1.2.3.4 1 .9.9 1.2-.3 2-.9 4-1.1 6 0 .7.6 1.5 1 2.2.4-.7 1-1.3 1.2-2 .5-1.3.7-2.9 1.3-4.1.3-.6 1.5-.9 2.3-.8.4 0 1 1.7.9 1.8-1.3 1-.4 1.4.2 2.2.3.3.3 1 .5 1.5l.8-1.6 1.1-2.4 1.7-1.7c.2.7.8 1.5.6 2-.7 2.4-1.6 4.8-2.6 7.1-.2.6-1.2 1.4-1.6 1.3-.6-.2-1.2-1-1.6-1.6-.2-.5.2-1.3 0-1.7-.5-.9-1.1-1.5-1.7-2.3l-.7 2.5c-.2.5-.6 1-1 1.4-.6 1-1.7 3-2 2.8-1.5-.7-2-2.1-1.6-4.4zM334 700.5c2.8 0 3-1 1.7-2.4-.4-.4-2.4.4-1-1.3.5-.5 1.3-1 2-1 1.5.2 3.6 3.3 3.2 4.8-.4 1.6-1 3.1-1.8 4.5-.5 1-1.6 1.5-2.4 2.3l-.1-3.2c0-.4.2-.8.4-1.2-.5 0-1.2-.2-1.6 0-.6.5-1 1.3-1.7 1.7-2.1 1.2-4.3.2-4.5-2.2-.4-4.4 1.8-7.9 4.8-10.8.3-.4 1.2-.3 1.9-.4 0 .7 0 1.5-.2 2-1.3 2.2-2.7 4.4-4.2 6.4-.9 1.1-1.3 1.9.1 2.5.5.2 1.4-.6 2-1 .4-.1.6-.5 1.4-.7zM268.6 672.6c1.9 3.8.5 7.8-.4 11.8-.1.6-1 1.6-1.4 1.6-.7-.1-1.5-.8-2-1.5-.4-.5-.6-1.3-.9-2l-.8-.7c-.2.4-.6.8-.7 1.3 0 .7.2 1.6 0 2.3-.4.8-1.2 1.4-1.8 2.1-.2-.7-.5-1.4-.5-2v-8.3c0-.8.8-1.7 1.2-2.6 1.1.6 2.4 1 3.3 1.8.4.3 0 1.5.2 2.2.3.7.9 1.3 1.3 1.9.4-.8.8-1.5 1-2.3.5-1.8.8-3.6 1.5-5.6zM300 834.3c1.4-3.5 2.7-6.5 4.2-9.3 0-.3 1.4-2.5 1.5-.2.3 3.5 1.4 2.8 3.4 1.3.5-.4 1.3-1 1.9-1 .5.1 1 .9 1.6 1.3l-.8.9c-1.3.7-2.6 1.2-3.8 2-.8.5-1.4 1.3-2.1 2 .8.6 1.6 1.5 2.6 1.8 1.7.6 3.6.8 5.3 1.2l1.4.7c-.5.1-1.1.2-1.5.5-2 1.7-3.9 1.6-6.1 0-2.3-1.4-4.9-2.2-6.8 1-.3-.6-.5-1-.8-2.2zM194.3 679.3c.6-1.1 1-1.7 1.7-2.2 1-.9 2-2.3 3-2.3 2 0 3.9.8 5.7 1.5 1.3.5 2.8 7.3 2.2 8.6-.3.5-.8.9-1.2 1.3-.3-.6-.7-1-.8-1.7-.2-1.6-.2-3.3-.5-5 0-.5-.8-.8-1.2-1.2l-.7 1.2-1.3 4c-.7 2-2.4 3.9-4 3.7-1.2-.1-3.4-2-3-4.4.3-1 .1-2 .1-3.5zm2.4.6c.3 1.4.4 3.8.9 4 2.7.4.5-2.6 1.9-3.3l.4-.4-.2-2-3 1.7zM85.1 853.1c1.2-1.3 1.5-2.9 2.4-3.8.7-.6 2.4-.6 3.4-.3 1.3.5 1.2 1.5.1 2.5-.6.5-.8 1.6-1.3 2.3-1.2 1.4-4 3 .7 3 .6 0 1.2 1.8 1.7 2.7-1 .2-2.3.8-3 .4-2.4-1.2-4.4-2-5.7 1.3l-1.7-.6 1.2-9.4s.7-.1.8 0c.3.6.5 1.2 1.4 2zM246 698.1c-.6.8-.8 2.1-.5 2.3 1.3.5 3.8.7 3.8 1 0 2.7-2.4.7-3.4 1.5-.6.5-.7 1.8-1.1 2.7.6.2 1.4.7 1.9.5 1-.3 1.8-1 2.8-1.5.3-.2 1-.1 1.1.1.2.2 0 .7 0 1.1 0 .2-.2.3-.4.4-2 1.2-4.2 3.6-6 3.3-2.3-.4-3.5-3.3-3-6.1l1.7-8.6c.1-.5.8-.9 1.2-1.3.2.4.7.9.7 1.3-.5 2.6 1.4 2 2.9 2.2l.4.7c-.5.1-1 .3-2.1.4zM196.7 716.9c0 2.5.1 4.5-.1 6.4-.1 1-.9 2.4-1.7 2.7-.6.3-2-.6-2.7-1.3-.6-.6-1-1.5-1.4-2.3l-1.3-2c-.4.8-.8 1.5-1 2.3-.2.5.2 1.3-.1 1.7-.5.7-1.3 1.1-2 1.7-.5-.8-1.4-1.6-1.4-2.3.1-2 .6-4 1.1-6 .6-2.2 2.6-2.6 4.2-.7 1 1.2 1.4 3 2.2 4.4.2.5.8.8 1.2 1.2.2-.4.6-1 .6-1.4v-4.7c0-1-.3-2.1-.4-3.2.9 1 1.8 2 2.8 3.5zM316.7 697.2c.5-.6.7-1 1-1.2l3.7-3.8.9 4.7c.1.8-.2 1.6 0 2.3.2.5 1 .8 1.5 1.3.3-.4.8-.8.8-1.2v-4.7c.1-.4.7-.8 1-1.2.4.4 1.4.9 1.3 1.2-.2 2.4-.7 4.8-1 7.1-.2 1.1.2 2.6-1.7 2.2-1-.2-2-.8-2.8-1.5-.4-.4 0-1.5-.3-2.2-.4-.7-1.2-1.4-1.8-2-.2.7-.1 1.5-.6 2-1.2 1.5-.6 5.3-2.4 4.7-2.7-1-.6-3.7.1-5.6.2-.6 0-1.2.3-2zM274.5 734.2l.6 1.1-.6 4.8c.8-1 1.5-2.2 2.5-3 .6-.7 1.5-1 2.3-1.4l-.3 2.7-.1 1.7.2 1.1c.4-.2 1-.2 1.2-.6.8-1.2 1.4-2.5 2-3.8l1-.8c.4.5 1.3 1.3 1.2 1.6-1.5 2.9-3.2 5.7-5 8.5 0 .1-1.6-.2-1.7-.6-.3-.9 0-2-.2-2.9 0-.4-.6-1-1-1s-1 .4-1.2.8c-1 1.2-1.7 2.6-2.5 3.9-.3-1.7-1-3.4-1-5.1-.2-2.7-.5-5.4 1.4-7.6.1-.1.3-.1.4 0 .2 0 .3.2.8.6zM165.2 798.8c1.4-1.2 2.5-2.7 3.7-4.2.2-.2 1 0 1.5 0l-.4 1.3c-1 2-1.7 4-2.8 5.9-.5.8-1.7 1.9-2.4 1.8-.8 0-1.6-1.4-2.2-2.2l-1-2.3c-.4.6-1 1.3-1.3 2l-1.8 2.7c-.6-1.2-1.5-2.2-1.7-3.4-.3-2.1-.2-4.3 0-6.5 0-.6 1-1.1 1.5-1.7.3.6.7 1.1.8 1.7v2.3c0 .6.3 1 .5 1.6l1.2-1c3.2-2.8 3.3-2.7 4.4 2zM212.8 716.6c1-.6 1.6-.8 2.3-1.1 3.7-1.5 3.6-1.5 4 2.1 0 2.2.8 4.4 1 6.6.1 1-.3 2.1-.5 3.2-.6-.9-1.7-1.8-1.7-2.7 0-2.1-1.2-1.9-2.6-2-1.7 0-2 .6-2.4 2.2-.2 1.3-2 2.3-3 3.5 0-1.5-.1-3 .2-4.3.6-2.5 1.6-4.8 2.7-7.5zm3.2 3.8l.5-1.9s-.5 0-.7-.2c-.1.5-.3 1 .2 2.1zM101.5 855.5c-1 .4-1.4.7-1.8 1.1l-2.9 2.9 3.9-.5c.6-.2 1.2-.8 1.7-.8s.9.7 1.2 1.2c.1 0-.1.6-.3.7-1.6.9-3.2 1.8-4.9 2.4-2 .6-3.9-.7-3.8-3 0-2.9.7-5.8 1-8.8v-.5h10.6c-.3.6-.6 1.6-1 1.7-1.8.2-3.8 0-5.7.4-.5 0-.9 1-1.3 1.5l1.5.5h3.5c.2 0 .3.5.5.8l-2.2.4zM216.6 746.3c-.3 1-.5 1.6-.8 2-.5-.5-1.4-1-1.5-1.7v-10c0-.3.7-.8 1-.8.5 0 1.1.4 1.3.8.2.5 0 1.1 0 1.7l.6 3.2c.6-1 1.1-2 1.8-2.8.5-.6 1.3-1 2-1.6l.3 2.2.5 4.5 2-4.2 1-2 .7-.6.5 1c1 2-3.3 9.6-5 10.1 0 0-.7-1-.8-1.7-.5-3-.5-3-3.6-.1zM143.8 849.6c-.4 1.6-.6 2.8-1.2 3.6-1.2 1.5-.8 2.5.7 3.4l1.7 1.6c-1 0-1.8 0-2.7-.2-.7-.1-1.4-.4-2-.8-1.8-1.2-2.4-.7-2.4 1.3 0 .6-.6 1.1-1 1.7-.4-.7-1.2-1.3-1.2-2-.1-3.4-.8-7 1.8-9.8 1-1.1 2.7-1.9 4.2-2.3 2.7-.7 2 1.5 2.1 3.5zm-3-1.2c-1.3 1.1-2.3 2.4-1.5 4.3.9-1 1.9-2 2.7-3.1.2-.3 0-.8-1.1-1.2zM135.6 835.5c0-8.3 0-8.3 8-8.2 1.2 0 2.4.4 3.6.7-1.3.5-2.7 1-4 1.7-1.2.7-3.8-1.8-3.9 1.4 0 .2 2.6.6 4 .9l1.5.4-1.7.7c-1.2.5-2.4 1.1-3.6 1.2-2.5 0-1.2 1.8-1.6 3l2.8-.5c.6-.2 1.1-.6 1.7-1 0 .8.5 2 .2 2.2-1.5 1.3-3.3 3.3-4.8 3.2-2.8-.2-2.2-3-2.2-5.7zM103.9 835.5c.3-.9.5-1.1.8-1.4l3.2-3.3.7 5v2.3l-.6 3.2-.6-3.2-.6-2.6c-.6.8-1.3 1.4-1.7 2.2l-1.6 3.5c-1.4 2.1-3.2 1.7-4-.2-1-2.3-1-3-1.7 0-.1.5-.7.9-1 1.4l-.6 2.4c-.6-1.2-1.7-2.4-1.6-3.4.2-1.7 1.2-3.4 2-5 .5-1.1 1.3-2.2 2-3.3l1.8 3.4 1.3 2.5c.7-1 1.5-2 2.2-3.5zM179 814.4c-.7 2.2-1.8 3.7-2.2 5.4-.8 3.1-2.1 1.7-3 .4-.6-.9-.3-2.2-.7-3.2-.2-.6-.8-1-1.2-1.5-.4.6-.9 1-1 1.7-.4 1-.5 2.1-.8 3.1-.2.4-.8.6-1.2 1l-.4-1c0-3-.5-6.2 1.3-8.9.5-.8 1.9-1.7 2.7-1.6.8.2 1.5 1.6 1.8 2.6.3 1 0 2.3.1 3.5 0 .3.8.8 1.2.7.4 0 1-.6 1-1 .2-1.5 0-3 .2-4.6 0-.8 1-1.5 1.4-2.3.3.7.7 1.4.8 2.2v3.5zM170.8 855.5l-.9 3.5-1.4-1.9-2.3-2.8-2.4 2.1-1.3 1.4c-.4-.7-1-1.4-1-2.2-.6-4.1 2.1-6.7 4.8-9 1.4-1.2 2.9-.8 4 .7.5.7.9 6.3.5 8.2zm-3-3.6v-3.4c-.5.5-1.6 1.2-1.5 1.6.1.8-1.5 2.6 1.6 1.8zM290.6 812c.7-2-1.7-4.7 2-4.7 3.4 0 7 1.2 7.4 3.1 0 .5-.4 1-.5 1.6-.6 1.8-1.3 3.7-1.8 5.6-.9 3-3.2 4.1-5.6 2.6-.7-.4-1.4-1.1-1.4-1.8-.2-2-.1-3.9-.1-6.4zm2.3 5.3l1 1.8c.4-.5 1.4-1 1.3-1.3-1-2.5-.4-4.4 1.9-6 0 0-.2-1.2-.6-1.5-.8-.4-1.9-.8-2.6-.5-.5.2-.8 1.4-1 2.2v5.3zM209.6 719.2c-2 2-1.3 5.7-4.5 6.2-1.5.3-3.3.8-4.6.3-.6-.2-1.8-2.3-.4-4 .6-.7 0-2.2 0-3.4.1-2.3-.4-4.7 3.2-5 3.4-.2 5 .7 6.3 4.2v1.7zm-4.7 4.2c.7-1.1 1.7-2.1 2-3.3.2-1-.2-2.4-.7-3.5-.1-.5-1.6-1-1.8-.8-.8.7-2 2-1.7 2.6.6 1.8-2.3 4.7 2.2 5zM178.8 829.3c-1.3.3-2.3.2-3.2.4-.5.1-.9 1-1.3 1.4.5.3.8.7 1.3.8.5.2 1.2 0 1.7.1l2.7.8c-1 .5-1.9 1.1-3 1.5-.7.3-1.9.1-2.5.6-.7.5-1 1.5-1.3 2.3h2.4l2-.5c.4 0 .8.1 1.1.3 0 0 0 .6-.2.8-1.4 1.6-2.9 3.1-5.4 2.4-2-.6-2.4-2.1-2.3-4 .1-1.7 0-3.4.4-5 .3-1.8 1-4.8 1.6-4.8 2-.1 4.2.9 6.2 1.5.1 0 0 .8-.2 1.4zM251 683.1l-.7.7c-1 1.2-2.6 3.3-2.8 3.2-2.7-1.5 0-3 .5-4.3.8-2.3 2-4.7 3.3-6.8.4-.7 1.9-1 2.9-1.2.3 0 1 1.3 1.1 2 .9 2.8 1.8 5.6 2.3 8.4.1.6-1 1.5-1.5 2.3l-1.2-2.1-.7-2.6c-1-2.3-2-.7-3.2.4zM81.9 800c0 5-.3 5.4-3.8 4.5-1.1-.3-2.4-.2-3.6-.1l-3.8.5c-.3 0-.6-.8-.9-1.2l1.3-.4 2 .1c0-.6 0-1.4-.4-2-2.1-3.5-2-4.8 1.1-6.8.8-.5 1.9-.7 2.8-1-.4.9-.8 1.8-1 2.8-.4 1-3 1.3-1.4 2.8 1.6 1.4 3.7 2.3 5.5 3.4.2-.6.6-1.3.5-2-.2-1.4-.6-2.8-1-4.2-.5-2 1.3-1.8 2.3-2.4.3-.3.8-.2 1.2-.2v1.1c-.3 1.6-.7 3.2-.8 5zM187.3 826.1c2.7 1.7 3 3.6 1.7 6-.3.5-.2 1.3-.2 2l2-.3c.6-.1 1.4-.6 1.9-.4.6.2 1 1 1.5 1.6-.5.1-1 .5-1.5.5-1.5 0-3.5.6-4.6-.1-3.5-2.3-4.7-1.4-4.4 2.6 0 .3-.6 1-1 1s-1.2-.5-1.3-.8c-.3-3.7 0-7.5 1.8-10.8.5-.8 2.3-.9 4-1.3zm-.6 2.4l-1.8 1.3 1 1c.5-.6 1-1.2.8-2.3zM216.6 792.3a16 16 0 013.6-1.4l4.1-1.1c0 2 .7 4.5-.3 5.8-2 2.5-1.1 2.4 1.2 2.4.6 0 1.2 1.2 1.9 1.8-.7.2-1.5.5-2.2.4-1.2 0-2.5-.5-3.7-.6-.8-.1-1.7 0-2.4.3-.8.2-1.3 2.5-2.4.6-.5-.7-.2-1.8-.2-2.8l.4-5.4zm3.5 2.7c1-.5 2-1 2.8-1.6.2-.2.2-.8.3-1.2-.5 0-1-.2-1.5 0-.6.4-1 1-1.6 2.8zM281 807c3-1.8 4.6-.6 4.8 2.2.3 2.9.1 5.8 0 8.7 0 .4-.5 1-.9 1-.4.2-1.2-.2-1.3-.5-.5-2-.9-4-1-5.9-.2-1 .2-1.9.4-2.8l-1.8 2.7-1.9 3.2c-.7 1.2-1.6 2.2-2.4 3.2-.2-1.5-.8-3.2-.3-4.4 1-2.5 2.6-4.7 4.3-7.4zM187.3 790.9c2.3 1.8 5.4 3.4 1.5 6.2-.2.1.2 1.6.7 2 .7.4 1.7.4 2.6.7.4.2.6.8.9 1.2-.4.2-.7.4-1 .4-1.5 0-3.7.4-4.4-.4-2.2-2.6-3.7-2-5.5.2-.2.3-1.2.2-1.5 0-.3-.3-.5-1.3-.3-1.5 1.8-1.9 2-4.2 2.5-6.6.1-1 2.5-1.5 4.5-2.2zm-1.8 4.7c.5-.2 1.2-.2 1.6-.5.4-.4.7-1 1-1.6-.6 0-1.3 0-2 .3-.4.2-.8.8-.6 1.8zM160 829.3c.6-.8.9-1.4 1.2-2 .4.4 1.2.7 1.4 1.2.3 1 .3 2.2.4 3.3 1-.8 2-1.6 2.9-2.6.3-.3.2-1 .5-1.5.1-.3.7-.5 1-.4.4.2 1 .7 1 1l-1.4 10.4c0 .2-.7.3-1 .3-.3 0-.9-.3-1-.5 0-.7-.4-1.9 0-2.2 1.6-1.4.6-2.5-.5-3-1.9-.6-2.7.9-3 2.4-.4 1.4-.3 3-.6 4.4-.1.5-.8.9-1.2 1.3-.2-.5-.6-1-.6-1.5.2-3.4.4-6.9.9-10.6zM119.5 835.2c.4 1.6.8 2.8.8 4.1 0 1-.4 2.2-.6 3.2l-1.7-2.7c-1.1-2-2.3-2-3.6-.1l-1.6 2.7c-.3.5-.8.9-1.2 1.3-.2-.5-.7-1-.6-1.4 1.2-3.8 2.2-7.6 3.8-11.1 1.1-2.3 2.8-2.3 3.6.6l1 3.4zm-3.3 1.5l.5-1.9-.8-.2c0 .5-.2 1 .3 2zM180.2 727.5V724c0-1.1-.2-2.3-.4-3.4l-2 3.5-.8 2.5-.8.8c-.3-.3-.6-.5-.7-.8-.5-4.2 1-8 2.7-11.7.4-.7 1.8-1.3 2.7-1.3.6 0 1.6 1.4 1.6 2.1.2 4.1 0 8.2 0 12.3 0 0-1.5 0-2.3-.5zM155.6 849.6h-1.8c-.2.1-.2.5-.4.8l3.4.4c.8.2 1.5.6 2.3 1-.7.4-1.3 1-2 1.3-.7.2-1.8-.2-2.2.2-.7.7-1.1 1.8-1.7 2.8l2.2-.6h3l.1 1c-1.6 1-3.2 2-4.9 2.4-1.5.4-3 .4-2.8-2.2 0-2.1 1-4.6-1-6.6-.1-.1 1.1-2.3 2.1-2.7 1.2-.5 2.7-.2 4-.1 1 0 2 .4 3 .6-.9.6-1.8 1.1-3.3 1.7zM216.6 791.8c-1 .4-2.2.4-3.3.7-.8.2-1.6.8-2.4 1.2l2.3.7c.4.2.7.7 1 1-.4.5-.8 1-1.3 1.3-1 .6-2.3.7-2.8 1.5-.5.7-.1 2-.1 3l2.4-.8 1.6-1c0 .7.5 1.8.2 2.2-.8.9-1.8 2-2.9 2-1 .2-2.8-.3-3.4-1.1a6.5 6.5 0 01-1.4-4.3c.2-2.3 1.2-4.5 2-6.7 0-.3.9-.6 1.4-.6 2.2.1 4.5.4 6.7.9zM135.6 819v1.2l-2 4.5c-1.7-1.5-1.9-2.7-.7-5 .9-1.8 0-4.5.4-6.7.3-1.2 1.4-3 2.3-3.2 1.7-.3 4-1 5.3 1.1 1 1.7 1.3 3.7-.5 5-1.5 1.1-3.2 1.8-4.8 3.2zm1.2-6.4l-.7 2.8 4-1.4a5.6 5.6 0 00-3.3-1.4zM218 809.4c2.4 2.5 0 5.5-.6 5.6-4 1-4.2 4.4-5.5 7.1l-.5 1.6c-.5-.5-1.4-1-1.6-1.5-.2-.9-.1-1.9 0-2.8.3-1.6.9-3.2 1-4.9 0-6.5 0-6.5 7.3-5.1zm-3.1 1.4c-.6.7-1.3 1.4-1.7 2.2-.1.2 1 1.3 1 1.3 1.3-.8 3.5-1.2.7-3.5zM180.2 762.7c1.2-4 2.3-7.4 3.6-10.8.3-.7 1.6-1.7 2.1-1.6 1 .4 1 1 .4 2.5-1.7 4.1-2.6 8.6-3.8 13-.5 1.5-.6 3.2-1.2 4.7-.3 1-1.1 1.8-1.7 2.7-.6-.9-1.8-2-1.6-2.7.5-2.5 1.4-4.8 2.2-7.8zM127.7 798.2l-2.8 7.5c-.2.3-1.1.5-1.5.4-.4-.2-.8-1-.7-1.4 1.2-3.8 1.6-7.9 5.4-10.6 2-1.4 3.4-.6 3.6.6.5 3.2.2 6.5.2 9.8 0 .2-.7.5-1 .4-.4-.1-1-.5-1.1-.8-.1-1.5 0-3.1-.2-4.7 0-.5-1-1-2-1.2zM187.6 812.3c1.6-.2 4-.2 4 .2.4 2 .2 4.1 0 6.2 0 .1-.8.4-.9.3-.4-.4-.8-1-1-1.5-.4-.7 2.2-1 .2-1.9-.3-.1-1 .7-1.4 1.2-.4.3-.5 1-1 1.3-1.1.8-2.5 1.4-3.7 2.1-.8-1.5-2.4-3-2.2-4.5.3-2.4 1.5-4.7 2.7-7 .1-.3 1.7 0 2.6 0l-1 1.7c-.3.6-.8 1.2-1 2l-.8 4s.7.4 1 .3c1.9-.7 2.5-2.2 2.5-4.4zM236.3 828.7a30 30 0 01-2.7 7.9c-1.1 2-4.3 1.6-5.2-.4-.9-2.1.6-8 2.4-9.6 3-2.5 4-2 5.5 2.1zm-2 1.5l-.4-2.7c-.6.4-1.4.7-1.6 1.2-.7 1.3-1.2 2.7-1.5 4-.2.4.2 1 .4 1.5.4-.3 1-.6 1.2-1 .5-.8.8-1.6 1.8-3zM224.8 830.8c0 2.5.2 4.5 0 6.4-.1.6-1 1.1-1.6 1.7-.2-.6-.6-1.2-.7-1.8 0-1 .2-2 0-2.9-.5-1.6-1.7-2.7-3.4-2.1-.6.2-1 1.6-1.3 2.5-.2.7.1 1.5 0 2.3-.1.4-.7.9-1.1.9-.4 0-1.2-.6-1.2-.8.4-3.1.8-6.2 1.4-9.3 0-.2 1.4-.4 1.4-.4 1.4 4.3 2.8 1.2 4.6.3 2.9-1.3 1.6 1.5 2 3.2zM282 676.7c-1.2 4.5-5 7.7-4.4 12.5 0 .2-.9.7-1.3.6-.4 0-.9-.6-1-1 0-1-.2-2 0-3 .8-3 1.6-6-2-8-.4-.3.1-2 .2-3.1l2 1.8c.9.9 1.5 2.4 2.9.4.6-.9 1.6-1.5 2.5-2.3.5.6 1 1.2 1.2 2zM248.6 830c.7-.8 1-1.3 1.6-1.6l2.4-1-1.2 2.1-1.3 3.6c2 .4 3-.6 4.2-2.1 2.2-2.8.1-4-1.4-5.6l-.9-1.3c.6 0 1.4-.5 1.6-.3 1.4 1.3 3.6 2.5 4 4 1 4-3 8-7 7.7-3.3-.2-4-1.5-2-5.6zM317.6 819c-.8-2.5-1.7-4.5-2.4-6.5-.3-.9-.4-1.9-.6-2.8.7 0 .9-2.4 1.8-.3.3.5.3 1.1.7 1.5 1.3 1.3 2.7 3.9 4.1-.1.2-.6 1.3-.8 2-1 .3-.1 1 .7 1 1-1.6 3.5-3.2 7.2-5 10.6-.3.6-1.8.5-2.7.6.4-.8.7-1.6 1.1-3zM197.5 800l-1.9 1c0-3.1-.1-6.2 0-9.3 0-.3 1-.5 1.7-.8.8 3.7 2 1.2 3.3.2.5-.4 1.2-.6 2-.8.3 0 .8-.1 1 .1.2.2.2.9 0 1-1 1.2-2.4 2.1-3.1 3.4-.6 1.1-1.3 3.1 1.4 3.2.7 0 1.6.3 2 .8.4.6.5 1.5.7 2.3l-2-.1c-1.7-.1-2.6-3-5-1zM185 743.9c-.4 1.1-.6 1.6-1 2.1-.6-1-2.4-1.6-.9-3.2 1-1 1.3-2.1-.6-2.4-1-.1-2.5-.4-2.3 1.6 0 .3.2.8 0 1.1l-1.3 2c-.3-.8-1-1.6-1-2.3.3-2.6.7-5.1 1.2-7.7.1-.6 1-1.1 1.6-1.7l.7 1.9c0 .6-.2 1.2 0 1.7.2.4.7 1 1.1 1 .4 0 1-.5 1.2-.9.5-.5.7-1.2 1-1.9l1-1.8c0 .8.5 1.5.3 2.2-.4 2.6 1.3 5.4-1 8.3zM204 759.5c-.3.6-.3 1.4-.3 1.4-4.9.2-5 3.5-4.7 7.1 0 .6-.3 1-.4 1.6-.6-.5-1.6-.9-1.6-1.4l-.3-12.6c0-.4.3-1 .4-1 1.7 0 3.8-.5 5 .3 1.1.7 4 1.6 1.9 4.6zm-5-1c0 4.4 2.1-1 2.7.7l.8-1.8c-.5-.2-1-.6-1.4-.5-.7 0-1.4.3-2 1.7zM290.6 734.5c1.5.6 2.9.9 3.3 1.7 1 2-1 7.5-2.9 9-2.1 1.6-4.6 1-5.7-.5-.9-1.2-.4-4 .4-5.6.8-1.8 2.8-3 4.9-4.6zm-3.5 6.5c-.6.6-1.7 1.1-.3 2 .4.3 1 .6 1.2.5l5-6s-.4-.5-.5-.4c-1.6 1-3.2 2.2-5.4 3.9zM77.8 836.4c-1.1 1.5-1.8 3-2.8 3.8-.9.7-2.6 1.3-3.4.9-1-.4-1.7-2-1.7-3.2 0-2 .7-4 1.1-5.9.5-2 2-2.4 3.8-2.4 2.1 0 3.2 1 3.3 3 0 1.2 0 2.3-.3 3.8zm-2-3.8l-1-1.6c-.7 1.3-2 2.4-2.3 3.7-.3 1.3.2 2.9.3 4.3l2-3.3c.4-.6.6-1.3 1-3.1zM53.4 816.7c.4-1.8.7-3 1.3-4.1a3 3 0 012-1.3c.4 0 1.3 1 1.3 1.6.2 2.9.1 5.8 0 8.7 0 .2-1.5.8-2 .6-2-1.2-2-1.3-2.6.2-.2.7 0 1.5-.3 2.2-.3.5-1 1-1.6 1.4-.1-.5-.4-1-.4-1.6-.3-2.7.2-5.2 2.3-7.7zM177 857.5c-2.8-4 .6-7.8-.2-11.6 0-.2 1.1-1 1.6-1 .7.2 1.7 1 1.7 1.4 0 1.7-.6 3.3-.9 4.9v2.8l2.5-.6a10 10 0 012.2-.2c.3 0 .7.8.6.8-2 2-3.7 4.8-7.5 3.5zM123.9 837.8c.2-3.5-.8-6.7 1.1-9.4l1-.8.2 1c-.2 3.6 1 1.5 2.2.6.3-.2 1.3 0 1.6.2.3.3.3 1.2 0 1.6-2.2 4-2.1 4.6 1 6.4l2 1.3c-.7 0-1.5.4-2.2.3-1.2-.3-2.4-.9-3.6-1.1-1.1-.2-2.4-.3-2.2 1.6 0 .6-.5 1.1-.7 1.7l-.4-3.4zM306.7 810.5c-.5 1.4-.8 2.4-1 3.5l-.8 3.5 3.3-1.3a13 13 0 012-.6h1.1c-.1.5-.1 1-.4 1.3-1.3 1-2.5 2.3-4 2.8-1.4.4-3.3.3-4.7-.3-2.2-1-.3-2.4.1-3.7.6-2.2 1-4.6 1.5-6.9.3-.9 1-1.7 1.6-2.5l1.6 2.8c.2.3 0 .8-.3 1.4zM211 697.2l2.8-2.5c.2 1.1.7 2.3.4 3.3-1 3-2.3 6-3.4 9l-.6 1.6-.6-1.3-5-10.2c-.3-.4-.3-1.3 0-1.6.3-.3 1.4-.4 1.6-.1 1 1.1 1.6 2.5 2.5 3.6.5.5 1.4.6 2 .9 0-.8 0-1.6.3-2.7zM235.4 740.4v3.5c-.2.8-.5 2.2-1 2.2-1.9.4-1.1-1.3-1.4-2.3-.2-.8-.6-1.5-1-2.2-.7.5-1.6.9-2.2 1.5-.3.4-.1 1.1-.3 1.6-.2.8-.6 1.6-1 2.3-.4-1-1.3-2-1.2-3 .2-2.3.9-4.6 1.5-7 .1-.4.8-.8 1.2-1.2l.7 1.2 1 2.2c.8-.5 1.7-1 2.3-1.6.6-.7.9-1.7 1.3-2.6 2.4 1.3.8 2.8.1 4.2v1.2zM168.8 717.2c1 2.3 2.2 4.3 3.3 6.3 1.3 2.3.8 3.6-1.4 4-1.2.1-2.4.2-3.5-.1-.8-.2-1.5-1-2.2-1.7l2-.6h1.8c.7-.1 1.3-.4 2-.6l-1.2-1.2-1.7-1.7c-2.6-2.8-2.5-5.3.5-7.6a7 7 0 012.4-1.2c.8-.2 1.6 0 2.4 0l-1.6 1.7-2.8 2.7zM85.1 801.4c.4-1.5 1-2.5 1.1-3.6.7-3 1.7-3.9 4.7-3.3.5 0 .8.8 1.3 1.3-2 1.4-2.8 2.4.6 2.2.2 0 .5.6.5.9-.1.5-.4 1.2-.7 1.3-1.4.4-3 .5-4.3 1.1-.3.2-.3 1.9 0 2.7.6 1.3 1.3.6 2-.1.5-.4 1.1-.6 1.7-.9-.2.7-.2 1.8-.5 2-1.4.5-2.9 1.2-4.2 1-2-.3-2.5-2-2.2-4.6zM213.4 828.2c1.9 2.4-.4 4.5-1 4.7-3 .9-4.5 2.3-4 5.5 0 .1-1 .6-1.4.6-.4-.1-.9-.7-1-1.1v-7c.1-4.9 2.4-6.2 7-4.2.2.1.1.8.4 1.5zm-1.5 2c.2-2.6-1.8-1.8-3-1.5-.3 0-.2 1.9-.3 2.9 1-.3 1.8-.5 3.3-1.4zM103.9 799.1l.8-3.8c.1-.3.6-.5.8-.8.3.4.7.8.7 1.2 0 2 0 3.9-.6 5.6-.2 1-1.8 2.5-2.2 2.3a7.4 7.4 0 01-3-2.6c-.5-.8-.5-2-.7-3l-1.7 3.4v.6l-.4 2.8c-.3-.2-.7-.3-.8-.5-.2-.9-.6-1.9-.6-2.8 0-.9.6-1.8.6-2.6 0-2.2 1-3.2 3-3.3 2.5-.2 1.3 1.7 1.8 2.7.4.7 1.5 1 2.3.8zM64 829.6c1.2.4 1.9.7 2.4 1.2.4.4.7 1 1 1.6-.4.2-.9.8-1.2.7-3.8-.8-3.5 1.6-3.4 4v1.8c-.4 1.2 1.2 3.5-1.3 3.4-.8 0-1.9-2.4-2.1-3.9-.2-1 .7-2.3 1-3.5.3-1.4 1.8-3.5-1.6-3-.5.1-1.2-.4-1.7-.6.5-.6 1-1.5 1.6-1.6 1.5-.2 3.1 0 5.3 0zM63.7 800l-.9 1.2c-1 2.6-.7 3 2 2.6 1 0 1.8.4 2.7.6-.8.6-1.5 1.7-2.2 1.6-1.8 0-4 0-5.3-1.1-1.7-1.5-.6-3.6.4-5.6 2.6-5 3-5.5 6.7-4.8 1 .1 1.8 1 2.7 1.6-.9.2-1.7.7-2.6.6-2.2-.2-3.8.2-3.5 3.3zM142.6 819c1.1-3.2 2-6 3.4-8.5.6-1 2.1-1.3 3.2-2 .6 1.4 1.9 3 1.5 4-1 2.8-2.5 5.3-4 7.7-1.6 2.5-2.8.6-4-1.1zm2.4-1.7c.8-.5 1.9-.7 2.3-1.4.6-1 .7-2.3 1-3.5l-2.5 2.9c-.2.3-.5.5-.8 2zM265 702.5c0-1.3.1-2.5.6-3.4.3-.5 1.3-.7 2-1l.7 2v1.6l.5 2.2 1.2-2.2 2.5-4.8c.2-.4.8-.7 1.2-1 .1.5.6 1.1.4 1.5-1.1 2.8-2.2 5.7-3.7 8.4-.5.9-2.1 1.1-3.2 1.7l-1.3-3.2-.8-1.8zM338.7 791.8c-5.3-.5-6.4 3.8-8.2 7.3-.4.8-.5 1.7-.8 2.6-.1.3-.5.5-.8.8-.2-.4-.7-.8-.7-1.2 0-1.2-.5-2.7 0-3.4 2.2-2.9 4.2-5.3-1.8-4.8l-.3-1.9c4 .3 7.8-2 11.8-.5.3 0 .6.5.8 1zM177.6 794.1c-1.1 1.1-2 1.8-2.7 2.7-.7.9-1.2 1.9-1.7 2.8l.8.6 2.7-3 1.6-1.6c.3.8 1 1.9.7 2.5-1 2-1.6 4.9-4.6 5-1.2 0-3.1-.9-3.4-1.8-1.2-3.2 3.5-9.5 7-9.1 2.3.2-.1 1-.4 1.9zM316.4 755.6c1.7-.2 2.7-.4 3.8-.8.3-.1.5-.5.8-.8-.4-.2-.8-.7-1.2-.7l-5.6.5-1.3.1v-1.1c1.5-2.7 8.2-3 10-.7 1.2 1.5 1 3-.5 4-1.5.9-3.3 1.3-5 1.9l-4.1 1c.8-1.2 1.7-2.3 3.1-3.4zM297.6 826.1c2 4.6 2.1 5.5-2.5 8.2-1 .5-3 .8-3.2.5-.7-1.4-1.7-3.7-1.1-4.5 1.6-1.9 2.8-4.8 6.8-4.2zm-2.9 3.5l-1.5 2c.8-.1 1.8-.1 2.4-.6 1-.7 1-.8-.9-1.4zM73.4 853.1c.4-1.4.6-2.4 1.2-3 1-.6 2.7-1.6 3-1.2 1.2 1 2.6 2.7 2.4 3.9-.4 2.2-1.6 4.3-2.8 6.3-.4.7-2 .9-3 1-.2 0-.7-1.5-.8-2.3V853zm4.7-1.8c-1-.7-2.2-1.2-2.3.6-.1 1.1.4 2.3.7 3.4.5-1 1-1.9 1.6-4zM240.4 830c-.6-1.5-1.4-2.6-2.3-3.6l4.5-.3h3c.9.2 1.8.7 2.7 1-.8.5-1.6 1-2.5 1.3-2 .6-4.6.5-2.6 3.8l.4.4-2.1 6.4c-3.2-1.6-.7-4.4-1.4-6.5-.2-.7 0-1.5.3-2.6zM282.7 835.2c-.8-3.6.3-6.5 2-9.1.5-.7 2-1.3 2.7-1 .8.3 2 1.8 1.9 2.3-1 2.6-2.3 5.2-3.7 7.7-.3.5-1.7.3-3 .1zm3.2-6.2l.7.5c0-.3 0-.7-.7-.5zM157 812.3c.7 1.7 1.9 3 2.5 4.4.5 1 .5 2.6 0 3.5-.4.7-2 1.3-2.8 1.1-1.4-.3-2.6-1.3-3.9-2-.3-.2-.5-.6-.7-.9l1.5-.5 1.6.2 2.4.6-1.5-2c-2.5-3.8-2.4-5.8.7-7.6.9-.5 2.3 0 3.5.1l-2.2 2-1 1.1zM198.7 739c.3 2.1 1 4 1.4 6 .4 1.5.2 2.6-2 2.5-1.8-.1-3.4-.4-3.7-2.5l1.2-.4 2 .1c-.1-.6-.1-1.4-.4-2-.5-1.3-2-3.3-1.6-3.8 1.6-2.1 3.8-3.8 5.8-5.5 0-.1.8.1.9.3.1.5.2 1.3 0 1.6-1 1.2-2.2 2.2-3.6 3.6zM79.5 813.5c1-1 1.6-2 2.4-2.3.5-.2 1.8.3 2 .8 1 3.8-1.7 6.3-3.7 9-.3.3-1.6.3-1.9 0-.6-.9-1.5-2-1.3-2.9.4-1.5 1.4-2.9 2.5-4.6zM138 793.2c.3 2.1.1 4.2 0 6.3-.2 1.8.3 2.7 2.2 1.5.6-.4 1.4-.6 2-.7.6 0 1 .3 1.6.5-.3.6-.4 1.6-.9 1.8-2.1.9-4.4 1.6-6.6 2.4-.2-2.2-.8-4.5-.6-6.7.1-1.7 1-3.4 2.2-5zM338.7 792.3c4-2 4.8-1.8 5.4 1 .6 2.8-4.4 7.9-7 6.9-.7-.3-2.8-1-.9-2.8 1.2-1.2 1.7-3.2 2.5-5zm2.4 1.5l-2.3 2.5c-.2.2 0 .8 0 1 .1.3.8.4.8.3.7-1.5 3.8-1.8 1.5-3.8zM210.8 687.5c-1.2-2.8-2-5.6-2.3-8.5-.2-1.1.4-2.5 1-3.6.3-.7 1.3-1.2 2-1.9.1 1 .4 1.8.4 2.7-.1 3.8-.4 7.6-1.2 11.3zM277.4 835.2c-.5.3-.7.4-.9.3-1.8-.9-4 3.3-5.2-.1-.8-2.5-.1-5.4 0-8.2 0-.3.8-.7 1.2-1l.5 1.5v1.8c.1 3.6.1 3.6 3.8 2.8.3-.1.8-.4 1-.3l2.2 1.7-2.6 1.5zM262.1 708.4c-.9-.6-1.9-1.5-2-2.5-.2-2.9 0-5.8 0-8.8 0-.4.8-1 1.3-1.3.1-.1.9.3.9.5.3 3.6.7 7.3.9 11 0 .2-.5.5-1 1zM327.9 761.8c-.8-4.8 2.4-8.2 3.5-12.3 0-.3.5-.5.8-.8.2.4.6.8.6 1.3.4 4.7-2 8.4-3.8 12.4 0 .1-.3.2-.4.1-.2 0-.3-.3-.7-.7zM114.2 794.7c-.6 3-4 5.4-1 8.7.2.2-.1 1.2-.5 1.4-.3.2-1.1.1-1.5-.2-2.8-2.2-1.3-5.4-1.3-8 0-2 2-2.5 4.3-2zM188.1 742.4c.7-2.6 1-5 1.6-7.3 0-.3 1-.6 1.4-.5.4 0 .9.8.8 1.1-.7 3.8-1.6 7.5-2.4 11.2 0 0-1.1 0-1.2-.2-.2-1.3-.3-2.6-.2-4.3zM239 738c.2-1.6.4-2.7.7-3.7l.8-.8c.3.4.8.8.7 1.1-.3 3.7-.7 7.4-1.2 11 0 .3-1 .7-1.4.6-.3 0-.8-.8-.8-1.1l1.1-7zM310.9 706c-.5-3.7-.3-7 1.3-10 .3-.6.8-1 1.2-1.3.2.2.7.4.7.7 0 3.8-.5 7.5-2.4 11 0 0-.4 0-.8-.4zM164 815.8c-.2 1.3 0 2.3-.3 3.2-.1.5-.9.8-1.4 1.2-.3-.4-.9-.8-.8-1.2.4-2.7.9-5.4 1.6-8 .2-.6 1.5-.9 2.3-1.3 0 .7.3 1.5.1 2.3-.2 1.2-.7 2.3-1.4 3.8zM120.6 797c-.3 2.3-.1 4.2-.3 6.2-.1.6-1 1-1.6 1.6-.2-.6-.7-1.1-.7-1.7 0-2-.2-4 0-5.8.2-1 1-2 1.7-2.8.2-.2 1.5.1 1.5.3 0 .6-.2 1.3-.6 2.2zM173.2 740.4a42 42 0 01-1.2 4.8l-.9 2c-.5-.9-1.4-1.7-1.4-2.4.3-2.2.8-4.3 1.5-6.4.1-.6 1-1 1.6-1.4l.4 3.4zM168.8 733.6c2.6-.7 5-1 7.4-1.4.5 0 1 .3 1.5.4l-.5.8a7.8 7.8 0 01-8.7 1.6c-.1 0 0-.7.3-1.4zM199 820.2c-.5.8-1 1-1.5 1.2-.3-1.4-1-3-.7-4.1.5-1.5 1.8-2.8 2.8-4.1.5.7 1.5 1.5 1.4 2-.4 1.6-1.3 3-2 5zM122.4 848.1c.7-.2 1-.2 1.5-.2-.3 1.4-.3 3-1 4.3-.6 1 1 3.6-1.8 3.1-.2 0 0-2.4.2-3.7l1-3.5zM190 844c2.6-.6 2.1 1.3 1.9 2.3-.3 1.2-1.2 2.2-1.8 3.2-.6-1-2.6-1.4-1.3-3.2.4-.6.5-1.3 1.1-2.3zM128.6 850.8c-.6 1.5-1.1 2.4-1.6 3.3-.3-1-.9-2.3-.7-3.3.2-.9 1.3-1.6 2-2.4l1 1c-.2.2-.5.5-.7 1.4zM194.3 844.9c.5-1.1 1-1.7 1.6-2.2.3.6.8 1.2.7 1.7-.2 1.2-.7 2.3-1.1 3.5-.2.5-.6 1-.9 1.4l-.3-1.5v-3zM315.6 764.2c.8.1 1.4.6 2 1-.7.3-1.4 1-2.1 1-2.6-.1-.7-1 0-2zM199.4 109.4c2.3-5.5 4.6-10.4 7-15.3 1.4-2.7 3.5-3.2 6-1.6 5.1 3.3 10 7 14 11.6.5.7.7 1.6 1 2.4-.9-.2-2-.2-2.7-.7-2.2-1.5-4.2-3.2-6.2-5-1.8-1.4-3.4-3-5.3-4.3-.8-.6-1.9-.7-2.9-1L212 98c5 8.9 10.2 17.5 11.1 28.3.7 8.1 1.3 16.2.7 24.2-.4 5.3-.2 10.8-2 16-1 3-1 6.3-1.3 9.5-.5 7.3-1 14.5-1.1 21.8-.2 5-1.2 9.6-2.3 14.3-.9 3.7-.9 7.5-1.3 11.2a95 95 0 01-8.3 32.4c-.5 1-.5 2.3-1.2 3-2 2-.9 3.7.9 4.6 6.6 3.4 8.7 10.2 12.4 15.9 7 10.4 6.4 21.5 4.6 33-.7 4-1 8-2.4 12a18 18 0 01-11.6 11.9c-2.3.8-4.4 2.5-6.8 3.4-7 2.6-13.9.8-20.5-1.8-4.5-1.8-9.2-3.1-12.2-7.4-.3-.5-1-.8-1.2-1.3-5-9.4-10.6-18.6-13.5-29-1.4-4.6 1-8.9 2.7-13 1.6-4 3.8-7.9 7.2-11 3.3-3.3 6-7.2 8.7-11 2-2.8 4.2-4.1 7.7-4.2 4.1-.1 8.3 1 12.4-1 1.2-.5 3.2.8 4.8 1 2 .3 2.6-.4 3.6-2.6 3.2-6.5 4.2-13.6 6.6-20.2 1.6-4.5 1.7-9.5 2.6-14.2l3.5-17.9v-1.2L217 183c.2-3.2.8-6.3 1.1-9.5.3-3-.1-5.9 1-9 1-2.5.2-5.7.2-8.7 0-8 .4-16-.1-24-.6-8.2-1-16.6-5.6-24-1.7-3-4.5-5.6-3.9-9.6 0-.5-1-1-1.6-1.6l-.8 2-5 12c-.3.8-.6 1.8-1.3 2.4-.6.5-1.5.7-2.3 1l.2-2.3.5-2.2zm-31.7 197.8l1.6 7.5c1.8 7.7 8.3 11.6 13.4 16.6a10 10 0 008.3 2.4c3-.3 5.9 0 8.8 0 3.4 0 6.2-1.7 8.4-3.8a46 46 0 006.6-8.9 38.6 38.6 0 005.5-32.9c-2-6.4-5.2-13-11.3-16.8a52.4 52.4 0 00-14-5.6c-3-.8-6.5-1.1-9.6 1-1.3.8-3.3.6-4.8 1.3-2.4 1.1-5.8 2-6.9 4.1-3.2 6-5.9 12.5-6.2 19.7-.2 4.8.4 9.5.2 15.4zm-5.3-14.6c-1.8 6 .4 11.8 1.2 17.7.2.9.2 1.9.6 2.6.4.8 1.2 1.2 2 1.8 0-.8.5-1.8.2-2.2-1.7-2.4-.8-5.1-1.1-7.7-.3-2.6-1.3-5.2-1-7.7.3-4.4 1.4-8.7 2.1-13.1.1-.6-.4-1.3-.6-2-.4.5-1 .8-1.2 1.3-.6 2.9-1.1 5.8-2.2 9.3zm48.7 39.3c5.3-1.8 10-8.5 9.4-13.5 0-.3-.3-.6-.4-1l-.8 1c-1.9 4.7-5 8.5-8.2 13.5zM159.4 293c0 .4.2 1 0 1.2-1.1 1-1.9 2-.3 3.3l.9.8c.2-1 .5-2.1.6-3.2 0-.9-.4-1.8-1.2-2zm23-28.7c0-.2.2-.3.3-.4v-.4c-1 .3-2 .6-2.8 1-.2 0-.1.4-.2.7a7 7 0 002.6-1zm17 72.2l-.7-.5c0 .4 0 .7.7.5zM100.7 231.5c.2-3.5-.7-7 .8-9 1-1.3 5-.4 7.8-.4 2.6 0 5.2 0 7.6-1.4 1-.6 3-1 3.4-.5 1 1 1.9 3 1.4 4-1.8 3.5-1.3 5.5 2.8 6.2.3 0 .9 1 .8 1.1-.4.5-1 1-1.5 1.1-1 .1-2 .2-2.8-.3-2.6-1.7-4-1-5 1.9-.6 1.4-1.6 1.3-2.4-.2-1.2-2.3-2-4.7-.7-7 1.6-2.8-.1-3.2-2-3.7-.8-.2-1.8-.3-2.4 0-1.8.8-3.6 1.9-5.3 2.8 2 1.5 3.7.8 5.5-.4.2-.2 1.2.2 1.3.6.2.3 0 1.3-.3 1.5-1.4.5-2.9.7-4.1 1.4-1 .6-2 1.6-2.4 2.6-.3 1 .3 2.1.5 3.2l2.4-1.3c1.2-.6 3.4-2 3.5-1.8 1.5 2-1 2.3-1.6 3.5-.5.8-.7 2-1.3 2.3a8 8 0 01-4.3.6c-.7-.2-1.4-1.7-1.6-2.7-.3-1.1 0-2.3 0-4.1zm17-4.7c.6-.5 1.3-1 1.5-1.6.2-.5-.1-1.2-.2-1.9-.6.4-1.4.7-1.8 1.3-.3.3 0 1 .5 2.2zM93.7 183.4c1.5 0 3 0 3.2.4.7 1.2.9 2.6 1.1 4 .2.8 0 1.7 0 2.6 1.3-.6 3.2-1 3.7-2 .7-1.2 0-3.1.4-4.5.3-.8 1.8-1.2 2.7-1.7.2.9.6 1.8.6 2.7-.1.8-1 1.6-1.1 2.4-.1 1.3.1 2.7.2 4l3-.9c.5-.1 1.2-.2 1.7 0 .8.3 1.4.8 2 1.2-.4.4-1 1.1-1.5 1-3-.1-5 4.7-8.5 1.5l-2 2a11 11 0 01-7.3 3.8c-2.8.3-4 0-4-2.4-.2-1.6.1-3.2-.1-4.7-1-4.7 1.2-7.6 5.9-9.4zm0 6.4l2-2c.3-.5.4-1.3.1-1.6-.2-.3-1-.6-1.4-.5-2 .5-4.2 3.6-4.2 6.3 0 1.8 0 5 .7 5.2 2.7.7 4.9-1.2 6.7-3.1l.4-.4c.1-.6.4-1.2.2-1.6-.2-.3-1-.6-1.4-.5-1 .3-2 1.1-3 1-1.9 0-1.5-1.1-.1-2.8zM97.5 216.5c-1.3.9-2.1 1.7-3.1 2-5.6 1-8.6-1.5-7.7-7.4 0-.8.8-1.6 1-2.4 1.4-3.8 4.4-4.7 7.4-2.2l.8.8c-.4.2-.8.6-1.2.7-1 0-2-.2-3 0-.6.3-1.5 1.1-1.5 1.7 0 2-.6 5.1.5 6 1.9 1.7 3.9-.8 5.9-1.6 2.8-1.2 4-2.8 4.3-6 .2-1.7.9-5 3.7-4.6 2 .4 3.7 2.6 3.2 5.4-.5 2.2-.6 4.5-1.3 6.6-.4 1.1-1.6 2.5-2.8 2.8-.8.2-2-1.2-3.2-1.6-.8-.3-1.8-.3-3-.2zm6.2-1.4c1-2.3 2-4.6 2.8-6.9.1-.3-.7-1.3-1.1-1.3-.8 0-2.2.4-2.2.9-.4 2.4-.5 4.8.5 7.3z"/>
  <path fill="#00EBAB" d="M191.4 210.7l-1 1.8c-2.3-1.7-1.9-3.4-.5-5.4 1-1.4 1.2-2.7-.7-3.8-1.5-1-2.6-2.5-4-3.7-.6-.5-1.5-1-2.2-.9-.5.2-1 1.2-1.2 2l-1.3 8.8c0 .4-.8.8-1.2.8-.4 0-1-.6-1-1-.1-2.1-.8-4.6 0-6.3 1.4-2.5 1.7-3.1-1.5-3.3-1.8-.1-1-1.7 0-2.5 3.5-3 8.2-2.4 10.9 1.3.7 1 2.2 2.4 3.2 2.3 1-.1 1.7-1.9 2.6-3 .2-.2 0-.8.1-1l3-4c-.2 1.6-.1 3.2-.4 4.8-.6 4.5-2.7 8.6-4.8 13zM143.3 168.4l4-2.5c-.7 1.3-1.1 3-2.1 4-1.8 1.6-3.5 4-6.6 1.8-.4-.3-2 .7-3 1-5.7 2.7-10 0-8.9-6 .5-3 2.5-5.7 4.3-8.1.5-.7 2.6-.5 3.9-.3.4 0 .7 1.2 1 1.8-.5.3-1.2.9-1.7.9-1.6 0-3 0-3.2 2-.2 2.3-.7 4.5-.9 6.7 0 .2.9.6 1.3.7 3.4.6 7.3-2.1 8-5.5v-1.1l2.5-4c2.2 1.4 1 2.5.1 4.2-.6 1.3 0 3.3.2 5 0 0 .3.1.4 0l.7-.6zM294.5 66c1.3 0 2.3.2 2.9-.1.9-.5 1.6-2.1 1.8.4.1 1.1-1.1 3 1.3 3 .3 0 .7-1.7 1-2.7v-.5l1.4-1.3c.3.3 1 .7 1 1l-1.3 11.8c0 .5-.9.8-1.4 1.2-.3-.4-.7-.7-.8-1.2-.2-.5 0-1.2 0-1.7l-1-3-1.4 2.5-1 1c-.5-.4-1.2-.8-1.3-1.3v-4l.5-2.8c-1.1 0-2.4-.3-3.4 0-.5.3-.5 1.7-.7 2.6-.4 2.2-.7 4.4-1.2 6.5 0 .5-.4 1-.6 1.4-.4-.4-1.1-.8-1.2-1.3-.3-1.4-.8-3.1-.4-4.4.7-1.9 1.6-3.3-.5-4.8-.2-.1.5-2.2 1-2.3 1.5-.3 3.1 0 5.3 0zM140.6 206.8c0 1.5-.1 2.5-.4 3.4l-1.2 3.6-1.9-3.7-.6-1c-.2.6-.3 1.1-.6 1.6l-1.8 4.2c-2.4-1.4-1.6-3.7-1.7-5.7v-2.4c0-.3-.3-.6-.4-1-.2.4-.6.7-.7 1.1l-1.2 4.2-1.2 4.2c-.2.4-.8.6-1.2 1-.4-.6-1.1-1.1-1-1.6.3-3.7.7-7.4 1.4-11 .1-1 1-1.7 1.5-2.6.5 2.2 4.3-.6 4 2.9 0 .9 1.1 1.8 1.7 2.8l1.6-2.7c.7-1 1.8-3 2-2.9 1.6.7 2 2.2 1.8 3.9v1.7zM110.1 206.8c.4-1.2.7-2 1.2-2.4 1-.7 2.2-1.3 3.3-1.9.5 1 1 2 1.3 3 .3.7 0 1.5.1 2.3 0 .5.4 1 .7 1.4.5-.4 1.3-.6 1.6-1 1.3-1.8 2.3-3.8 3.7-5.5.2-.3 2.1.1 2.1.2v11.7c0 .5-1 1-1.6 1.6-.2-.7-.6-1.3-.6-2v-5.9c0-.5-.4-1-.7-1.4l-.5 1.5c-.8 1.6-1.5 3.3-2.4 4.8-.4.7-1.3 1-2 1.6-.5-.8-1.2-1.5-1.5-2.3-.5-1.5-.7-3-1.1-4.5-2.6 1.1-.7 3.3-1.2 5-.2.5 0 1.2-.3 1.6-.5.9-1.3 1.6-2 2.3-1-1-1.6-1.5-.6-3.3.9-1.7.4-4 .5-6.8zM116 186.9c-.2 2.7-.2 4.8-.5 6.8 0 .5-.7.9-1.2 1.3-.2-.4-.6-.8-.6-1.3 0-3.3-.3-6.6 0-9.9.2-1 1.8-2.2 3-2.7.6-.2 2.2.8 2.6 1.6.8 1.6 1 3.5 1.4 5.3l.8 2.2c.5-.8 1.1-1.5 1.5-2.3.2-.5-.1-1.3.1-1.7l4.8-5.2c.3 2.1.8 4.2 1 6.4v7c0 .6-.5 1.1-.7 1.7-.6-.5-1.5-1-1.6-1.7-.2-1.9 0-3.9 0-5.8 0-.5-.3-1-.5-1.6l-.8 1.7c-.3.5-1 .9-1 1.3-.5 2-1.8 3.3-3.6 2.6-1-.4-1.9-2-2.3-3.3-.4-1.3 0-2.7-.1-4 0-.4-1.2-.8-1.3-.7-.5.4-.7 1.1-1 2.3zM72.5 194a8 8 0 00-.4-2.2c-.2-.6-3.4-.2-1-1.6 3.8-2 2.5-4.9 2.4-7.6 0-1-1-2.1-.9-3 .3-1.6 1.2-3 1.8-4.4l.5 4c.4 2.3.7 4.7 1.2 7 .1 1 .5 1.9.8 2.8l1.5-2.9 1-1.6c.5.5 1.2 1 1.3 1.4.1 1.2 0 2.5 1.8 2.1v1.2c-2.5-.3-1.5 1.6-1.7 2.8l2.6-.2c.3 0 .8.3.8.3 0 .6-.2 1.6-.3 1.6-3.6-.3-4.3 2.1-4.9 4.8 0 .5-.8.9-1.2 1.3-.2-.5-.5-1-.5-1.5 0-2.6-1.2-2.7-2.7-1.1-1.8 2-2.3 1.4-2-1V194zm4.1 0c.6-.8 1.3-1.4 1.7-2.2.1-.2-1-1.4-1-1.3-1.3.7-3.5 1.1-.7 3.4zM154.4 204.2c.3-.9.4-1.5.3-2 0-2.4 1-3.3 3.4-3.7 3-.5 2.7 2.1 3.6 3.4 1 1.4-1.2 4.8 1.3 4.6 2.3 0 .6-3.4 1.1-5.3.3-.9.2-2 .7-2.6.5-.6 1.6-.7 2.4-1v2c-.2 1.8-.6 3.7-.7 5.5 0 2.6-1 5.9-3 6.1-2.7.3-2.9-3.4-4-5.5-.2-.3 0-.8 0-1.1l-1.5-2.5-.9 3c-.5 2.3-.8 4.7-1.2 7 0 .6-.3 1.1-.5 1.7-.5-.5-1.5-1-1.5-1.5 0-2.6.1-5.2.5-8.1zM219.6 33.3c.9-.5 1.8-1 1.9-.9.6.7 1.1 1.5 1.3 2.4.3 1.7.3 3.4.4 5 1.4-.6 2.8-1.5 4.3-2 .6-.2 1.4.2 2.2.3-.4.5-.7 1.2-1.3 1.6-1.1 1-2.4 1.7-3.6 2.5-2 1.3-4 1.4-4.8-1-1.3-3.6-2.2-1-3.5-.2-1.3.8-1.7 3.9-4 2.2-1.7-1.3-3.9-2.7-2-5.7.8-1.1.4-3 .6-4.4.1-.8.5-1.5.8-2.2l1.5 2.3c.2.4 0 .8 0 1.2l.6 5.7c.3-.3.7-.5.8-.8.9-2.4 5.4-1.9 4.8-6zM207.3 80.9c-1.8-.9-4-1.3-3.3-4.3.5-2 0-4.2.1-6.4 0-.6.8-1.3 1.3-2 .3.8.9 1.5 1 2.3v4c.1 1.1.5 2.1.8 3.2l3-1.2c2.6-1.4 3.2-3.9 3.3-6.6 0-.6.7-1.1 1-1.6.5.5 1.2.9 1.2 1.4.2 1.4 0 2.7.1 4 .1 1.8.4 3.4.6 5.1 1-1 1.8-2 2.9-2.8.5-.4 1.3-.6 2-.6 1 0 1.8.3 2.7.5-.5.5-1 1.2-1.6 1.6l-5.3 3c-1.4.6-2.4 2-3.9-.8s-3.7.6-6 1.2zM165.6 218.9l-3.7 2.7c1.6 1 2.8.7 4-.6.5-.5 1.3-.8 2-.9l3.2.1c-.7.7-1.2 1.4-2 1.9-1.6.9-3.3 1.4-4.8 2.4-1.1.8-1.7 2.2-2.8 3-1 1-.6 1.7.2 2.1.4.2 1.2 0 1.6-.3 1-.7 1.7-1.7 2.6-2.4.4-.4 1-.6 1.6-.8 0 .5.4 1.3.1 1.6-1.6 1.7-3.2 3.6-5.2 4.8-.5.3-2.5-1.2-3.5-2.2-.5-.6-.7-1.8-.6-2.7.3-3.1.6-6.3 1.2-9.4.2-.7.7-2.5 2.8-1.2 1.1.7 3.4-.5 5.2-.7.8 0 1.6.4 2.4.6l-2 .9-2.3 1zM269 73.3c-.7 1-1.1 1.9-1.5 2.7l2.4-.2 2.2-.5c.3 0 .7.3 1 .4l-.4.8c-1.3 1.8-3 3-5.4 2.3-2.4-.7-2.1-2.7-2.2-4.7-.1-2.4 2.8-4.7.4-7.4-.1 0 .8-1.8 1.4-1.9l13.5-1.2c.4 0 .8.6 1.2 1-.5.4-.9 1.2-1.4 1.3-2.9.5-5.9.7-8.8 1.2-.8.2-1.8.7-2.3 1.4-.5.7-.3 1.8-.5 2.7h2.5l4.3-.3c0 .3-.1.8-.3.8A51 51 0 01271 73c-.6.2-1.2 0-2 .4zM157 56.5l.5-3.3c.6.6 1.6 1 1.9 1.8.8 2.5 1.8 5.2 2 7.8.2 1.4-.8 3-1.7 4.2-.2.3-2.6-.5-3.3-1.3-1-1.2-1.4-3-2.2-4.3-.2-.5-.8-.9-1.2-1.3l-.6 1.4V65c-.2.7-.8 1.4-1.2 2.1l-1.4-2c-.7-1.8-2.1-3.8-1.8-5.5.2-1.3 2.6-2.5 4.3-2.9 1-.2 2.8.9 3.5 2 .9 1.2 1 3 1.6 4.5 0 .3 1 .2 1.5.3 0-.4 0-.8-.2-1.2l-1.6-5.8zM295.6 57.7c-2.4-3-3-6-1.2-9.4 1.6-3.2 3.3-4.5 6.8-3.2 2.5.8 5 5 3.7 7-1.6 2.6-3 5.6-6.3 6.6-.6.2-1.6-.6-3-1zm3.6-10H298l-2.3 6.6c0 .1 1.7 1.2 2 1 1.4-1 2.7-2.3 3.8-3.7 1.6-2.1.4-3-2.3-3.9zM313.3 53c.4-3-1-5.5 1.1-7.7 1.7-1.7 3-2.4 4.5-.1l.4.4 3 5c0-1.8.1-3.5.4-5.1 0-.3.9-.6 1.4-.7.3 0 .9.4.9.6L323.8 56c-.5-.2-1.3-.2-1.6-.6l-3.7-6-1.3-2.1-.4 2.1c-.4 2.2-.7 4.4-1.2 6.5-.2.7-1 1.2-1.4 1.8l-1-2.4V53zM76 206.8c.3 1.1.6 1.6.9 2.2 2.2-3.6 4.2 0 6.3.2.3 0 .6.3 1 .5-.4.2-.8.6-1.3.6-1 .2-2 0-2.8.2-1.8.4-3.5 1-5.2 1.6l5.6.6c.5.1 1 .4 1.4.6-.5.2-1.2.2-1.5.6a28 28 0 00-2 3.7c-.3.7-.4 1.4-.5 2.1l-1.7-1.6c-.4-.5-.5-1.2-.8-1.8l-.5 2.1-1.4 2.5-1-2.2c-.1-.4-.1-1-.3-1-3.9-1.5-1.5-2.6.2-3.8.3-.3.8-.5 1.2-.7-.5-.2-1.1-.2-1.5-.5a3 3 0 01-.7-1.3c2-1.3 1.5-5 4.7-4.6zM286.5 53.3c.8 1.5 1.7 2.7 3.1.6.3-.5 1.6-.3 2.4-.5-.3.9-.5 1.9-1 2.4-.8.8-1.8 1.2-2.8 1.7-.6.3-1.8.8-2 .6a7.4 7.4 0 01-1.6-2.8c-.1-.7.4-1.4.4-2.2 0-.4-.4-.8-.7-1.3-.5.4-1.2.7-1.5 1.2-.4.6-.1 1.6-.5 2.1-1.6 2.4-4.4 1.7-6-.8-1.7-2.7 1.2-4.5.8-6.8.9-.1 1.8-.4 2.7-.3.9.1 1.6.9 2.4 1.2.5.1 1.4 6.2 1.8 0 0-.8 1-1.6 1.5-2.3.3.8.4 1.6.8 2.4.6 1.4 2.1 2.8.2 4.8zm-6.1.3c1.7-1.3 1.4-2.5-.2-3.6 0 0-.9.5-1 .9-.2 1.1-3.3 2.8 1.2 2.7zM333.5 47.4c2.7-.4 4.5.1 4.4 3.1V54l-.3 3.4c-.8-.6-1.9-1-2.4-2-1-1.7-2.1-.4-3.1 0-5.1 2-6 1.5-6-4 0-3.4 2-5.9 3.8-8.4.4-.6 1.7-.4 2.6-.6l-.7 2c-1 2.1-2.4 4.1-3.2 6.3-.2.8.8 2 1.2 3l2-1c.7-.4 1.5-.5 2-1 2.2-1.4 1.6-2.3-.6-2.9 0 0 0-.7.3-1.4zM291.8 37.4c-1.6-1-3-2.3-4.3-3.7-.6-.7-.8-1.7-1.3-2.4-.3-.4-1.3-.7-1.4-.6-.5.5-1 1.3-.8 1.9.2 2 .8 4 1 6 0 .4-.6 1-1.1 1.4 0 .1-1-.4-1.1-.8-2-3.2-1.2-6.7-1.2-10 0-1.1 3.8-2.3 4.6-1.4 1.3 1.5 2.4 3.3 3.6 4.9l1.1 1.5c.4-.5 1.1-1 1.2-1.5V28c.1-.3.8-.6 1.3-.8l1 .4c-.2 3.3 1.4 7-2.6 9.8zM125 71.5c-3.1 1-3.8-1.4-4.2-3-.7-2.7.6-5.7-1.2-8.4-.2-.2 1-1.4 1.5-2.2l.7 1.6.5 1.6 1.2 5.9c.7-1.8 1.3-3.6 2.1-5.3.1-.2 1.7 0 2 .5.5.5 0 1.5.4 2.1.3.7 1 1 1.6 1.5l.5-1.5v-.6l2-4.6c2.3 1.4 1 3 .3 4.7l-1 3.7c-.4 2.9-1.7 2.5-3.1.7-.6-.6-.9-1.4-1.3-2.1-.5.9-1.2 1.8-1.6 2.8-.2.7 0 1.5-.3 2.6zM244 71.8c0-1.6-.2-2.6 0-3.5.3-.8 1-1.5 1.6-2.3.3.8.6 1.6.7 2.5.4 3.2 1 6.4 1.1 9.7 0 .9-1 1.9-1.5 2.8-.6-.8-1.8-1.5-1.8-2.4-.1-3.6-1.5-2.2-3.2-1-1 .7-2.3 1-3.5 1.2-3.7.5-4 .3-4-3.4v-5.3c0-.5.5-1 .8-1.7.5.6 1.3 1 1.5 1.7.5 2.1.2 4.7 1.3 6.2.6.9 2.6-2.6 5-1.4.2 0 1.3-1.6 2-3.1zM242 52.1c2-.1 3.6 0 5.3.1l-4.6 2c-1.2.5-2.8.9-3.3 1.8-.5 1 .1 2.5.3 3.9.6-.8 1.2-1.6 2-2.3.7-.7 1.6-1.3 2.5-1.8.1 0 .9.3 1 .5 0 2.6-3.5 6-6.2 6.1-1.4 0-2.2-.1-2.1-1.8v-9.4c.1-.8.7-2.1 1.3-2.3 2.6-.8 5.3-1.3 8-1.7.4 0 .9.9 1.3 1.4-.4.3-.7.7-1.2.9-1.7.4-3.6.7-5.3 1.2-.5.1-1 .5-1.4.8.7.3 1.3.6 2.3.6zM259.2 35.4c0-3.1.2-4.8 3.1-6.3 3.1-1.6 5-.2 7.2.8 2.6 1.3 1.5 4.1 1.4 6.3 0 2.2-3.8 5.1-6 5-3 0-5-1.8-5.7-5.8zm9.4.6v-1.2c.8-2.8-1.7-3.3-3.3-4-.7-.3-2.8.5-3.2 1.4a4 4 0 00.7 5c2.2 2.4 3.7 1 5.8-1.2zM234.3 59.8c-1.7 1-3.1 2.3-4.6 2.5-3.7.5-4.4-.3-4.5-4v-5.9c0-1.5 0-2.5 1.9-3.3 1.8-.8 3-1.3 4.5.3 1 1.2 2.8 1.9.9 4.2-2.2 2.5 2.4 3.5 1.8 6.2zm-3.8-9.1c-2.5.1-3.1 1.7-3 3.9.1.3.5.5.8.8l2.7-3.6c.1-.1 0-.4-.5-1.1zm1.7 7.6c-2-1.6-3.4-.3-4.6 1.2-.2.2 0 .7 0 1.1 1.2-.2 2.5-.3 3.7-.6.4 0 .6-.3 1-1.7zM256.6 69.2c.8-.9 1.3-1.6 2-2 .3-.1 1.2 0 1.5.2.3.3.4 1.2.2 1.5-.6.8-1.4 1.4-2 2.1-2.8 3-2.8 3 1.2 4.3.7.3 1.4.8 2 1.2-.6.4-1.3.9-2 1.1-2.2.8-5.4-1.7-6.5 2.2-.6-.4-1.6-.8-1.6-1.2-.2-3.3-.4-6.5-.2-9.8 0-.6 1.3-1.1 2-1.7.5.8 1 1.7 1.3 2.5.9 2.2 1.2-.2 2.1-.4zM156.2 83.8c-4.2 4-5.4 4.3-7.5 1.2-.7-1-1-2.4-1-3.6 0-.9.9-1.6 1.1-2.5.5-1.4.4-3.5 1.3-4 2-1 4.5-1.4 6.8-1.9.4 0 .9.8 1.4 1.3-.4.3-.7.9-1.1 1-.8.1-1.6-.2-2.3 0l-3.5 2 3.4.4c.7 0 1.4.2 2.1.4-.7.4-1.5.7-2 1.2-1.2 1.2-5-.2-3.7 3.6l.4 1.6 1.2-.8 3.2-2c.3-.1.7.2 1 .3-.1.5-.3 1-.8 1.8zM150 169.3c-3.1-4 .7-6.7 1.4-9.5.2-.7 2.8-.8 4.4-1.1 3-.5 3.7 2.5 3.4 3.7a24 24 0 01-3.6 7.7c-1.7 2.6-3.8 2-5.6-.8zm6-5.3c1.5-1 .8-2-.3-2.4-.6-.3-2.1 0-2.3.3a23 23 0 00-1 4.8c0 .4.5 1 .7 1.4.6-.4 1.2-.7 1.6-1.1.5-.5.8-1.2 1.2-3zM99.8 166l-2.6 9.8-.5 1.6c-.6-.5-1.6-1-1.6-1.5 0-1.8.2-3.7.4-5.5 0-.7.2-1.3.3-2l-2 .2c-1 0-2.3.1-2.7-.4-.5-.5-.2-1.8 0-2.7 0-1 .2-2.3.8-3.1.4-.7 1.5-1 2.3-1.4-.2.7-.5 1.5-.5 2.2 0 .8.4 1.7.7 2.5l1.9-2c.5-.8.8-1.7 1.3-2.4.3-.5.8-.8 1.2-1.3.2.6.4 1.2.8 1.7l2 3.2-1.8 1.1zM139.2 78.5c1.3-1.1 2.8-3 3.4-2.7 2.3.8 1.5 3.2 1.6 5v6c0 .4-.4 1-.6 1.4-.4-.4-1-.7-1.2-1.2-.3-1-.7-2.2-.5-3.3.2-2.1-.6-2.5-2.6-2.6-2.6-.1-2.2 1.4-2.2 3v1.1l-.8 3c-1-1-2.4-1.9-2.6-3-.4-2.5-.1-5 0-7.6 0-.4.6-.7.9-1.1.4.4 1.3 1 1.3 1.3-.3 4.3 2.2 0 3.3.7zM105.1 162c2-.6 3.7-1 5.3-1 3.5.3 5 3.2 3.3 6.3-1 1.8-2.2 3.6-3.7 4.9-1.4 1-3.4 1.2-5.1 1.8-.2-1.5-.6-3-.6-4.4 0-2.5.3-5 .8-7.7zm2 2.6l-.5 5.5c0 .5.4 1 .5 1.5l1.3-1.2 2-2c.8-1 3-1.6 1.7-3.6-1-1.5-2.6-2.2-5-.2zM116 167c.8-2.7 1.5-4.7 2.5-6.6.4-.8 1.4-1.6 2.2-1.6.7 0 2 .9 2.1 1.6 1 3.5 1.8 7 2.5 10.6.1.5-.5 1.2-.8 1.8-.5-.4-1.2-.8-1.4-1.3-1.8-4.2-1.8-4.2-4.6-1.9-1 .8-2.1 1.3-3.2 1.9l.7-4.6zm3.5-1.9l1.9.5.2-.7c-.5-.1-1-.2-2 .2zM139.5 66c-.6 1.5-1.1 2.4-1.7 3.3-.5-.4-1.3-.8-1.6-1.4-.8-1.6 1.4-9.1 2.8-10.3 2.1-1.8 3.3-1.6 4.4 1.2.8 2 1.5 4 1.8 6.2.2 1-.6 2.2-1 3.3l-1.2-2.7c-1-2.3-2.2-2-3.5.3zM132.1 231.2c-.7 1-1.1 1.9-1.5 2.6-.8-.4-2-.6-2.3-1.3-1.7-3-2-6.4-1.7-9.7 0-.7 1-1.2 1.6-1.7.2.5.6 1 .8 1.7l1 4.8.6 1.5c.4-.4 1-.7 1.2-1.1 1-2.1 1.8-4.4 3-6.4.7-1.1 2.1-1.8 3.2-2.7-.3 1.3-.3 2.8-1 4-1.3 2.8-3 5.4-4.9 8.3zM318 70.6c2.7 0 3 2 1.6 2.1-2.9.3-3 1.5-2.9 3.6 0 .4-.8 1-1.2 1.4-.4-.6-.8-1.1-1-1.7-.2-.3 0-.8 0-1.1l-.9-2-1.9 1a2 2 0 00-.8.9l-1.7 4c-.1-1.8-.8-3.7-.4-5.4.7-2.4 2-4.6 3.3-6.8.3-.7 1.3-1 2-1.6l1.5 2.3c.6 1 1.2 2.2 2.4 3.3zM269.8 48.3c.3-1.2.6-1.8 1-2.3.4.4 1.3.8 1.3 1.2v7l.5 3.4.2 1.2c-.5 0-1.3 0-1.6-.3-.6-1-1-2-1.4-3-.4-.8-.7-2.2-1.3-2.4-1.8-.5-3 .5-3.4 2.3v2.3c-.1.4-.6.8-1 1.2-.4-.4-1.2-.8-1.3-1.3-.1-2.3-.2-4.7 0-7 .1-1 .8-2 1.3-3 .5.6 1.1 1.2 1.6 2 1.8 2.3 2.9.5 4.1-1.3zM193.8 69.2c.4 1.3 1 2.9.6 3.3-2.4 2.3-2.6 3.6 1.2 4 .5.1 1 .8 1.4 1.2-.7.4-1.4 1-2.1 1-.6 0-1.2-.8-2-.9-1.5-.3-3.8-2.5-4.2 1.4 0 .3-1 .9-1.1.8-.5-.4-1-1-1.1-1.6-.2-1.3 0-2.7 0-4 0-5.2 1.5-6.3 7.3-5.2zm-1.5 3.2v-.6l-1.8-1V74l1.8-1.7zM158.6 46.8c-1.2-.7-2-3.2-3.1-.8-1 2-2.4 3-4.2 2.2-.8-.4-1-2.4-1.3-3.7-.4-1.8-.8-3.6-1-5.4-.1-.4.7-.9 1.1-1.4.4.4 1 .7 1 1 .4 2-.8 5.2 1.7 5.5 1.4.2 2-3.1 2-5.3 0-.8 1.4-1.6 2.2-2.3.4.8 1 1.6 1.2 2.5.3 2.7.4 5.4.4 7.7zM152.4 221c-3.4 2.1-4.5 5.4-3.2 7.8.4.8 1.1 2 2.5.5 1.1-1.2 2.7-2 4-2.9.4-.2.9-.2 1.3-.3v1.1c-.2 2-3.2 5.3-5.1 5.4-2.5.2-4.5-.6-5.7-3.1-1.5-3.4.8-6.2 1.6-9.2.6-1.9 2.7-2 4.5-1.7 1.8.2 1.5 1.2 0 2.3zM130 42.4c0 2.8 1 3.1 2.4 1.7.7-1 .8-2.4 1.2-3.6l.5-2.7c.6.9 1.7 1.7 1.8 2.7.2 3.7.1 7.4 0 11 0 .9-.8 1.7-1.5 2.4-.3.3-1.2.3-1.5 0-.3-.2-.6-1-.4-1.4.2-.7.8-1.2 1-1.9.5-1 2.2-2.4-1-2.4s-5.7-4.2-4.7-7.3c.2-.7 1.2-1.2 1.9-1.8l.4 3.3zM207.6 60a8.5 8.5 0 01-2.5 3c-1 .7-2.8 1.5-3.1 1.2-1.2-1-2.3-2.6-2.5-4.1-.2-1.7.2-3.8 1.2-5.3 1-1.6 2.5-3.8 5-3 2.8 1 3.4 4 1.9 8.3zm-4.7-2.9l-.7 4c2.3.3 2.7-1.3 3.2-3 .2-.5 1-1 1-1.3-.4-.8-1-1.5-1.5-2.3-.6.5-1.3 1-2 2.6zM198.2 41.3c.4-2.4 1-4.2 1-6 .1-1.8.8-3 2.5-3.4 2-.4 3 .8 3.5 2.7l2.3 8.4c.2.5-.2 1.5-.3 1.5-.7 0-1.6 0-2-.4-.6-.7-1-1.6-1.1-2.5-.2-1 0-2.3-.2-3.4-.3-1-1-1.8-1.6-2.8l-.6 2.7v3c-.1.8-.5 1.7-.7 2.5-1-.6-1.9-1.2-2.8-2.3zM81.6 166.6c-3.4 1.1-6.6 2-9.7 2.7l-1.7.6c.3-.7.3-1.6.8-2 1.1-.8 2.6-1.3 3.7-2.2 1-.9 1.7-2 2.5-3.1l1.1-1.6 1.3 2 .6 1.6c.4-.5 1-.8 1.2-1.3.3-.8.1-2 .6-2.6.3-.4 1.4-.2 2.2-.3.2 2.3 1.6 3.1 3.9 3 .2 0 .9 1 .8 1.1-.4.5-.9 1.1-1.4 1.2-1.8.3-3.7.4-5.9 1zM177 40c-2.3 1.6-.6 3.9-1.1 5.7l-.7 1.4c-.4-.4-1.1-.8-1.1-1.2l-.6-11 1.6.3c1.8.3 4.6-2.6 5.3 1 .6 2.7-.4 5.9 3.5 6.7.1 0 .3.8.2 1-.3.4-.8.8-1.3.9-3 .2-4.5-1.8-5.5-4.4.6-.6 1-.8 1.1-1.1l.8-2.3-1.4-.4-.7 2.4v1zM189 39.8c2-.5 3.6-1.3 5.3-2 .4-.2 1 .3 1.5.5-.4.4-.7 1-1.2 1.2-1.4.8-3 1.3-4.3 2.1-.3.2-.2 1-.2 1.6l1.3-.4 2.7-.3c.2 0 .7 1.1.5 1.5-1 2.2-5 2.5-6.6.6-2-2.5-1.8-5.4-1.5-8.2.3-2 2.3-2.9 4-2 1.6.7 2.7-3.7 4-.3 0 .2-2.1 1.4-3.3 1.8-1.8.6-3 1.5-2.1 3.9zM178.5 80.3c1.7-1.4 2.8-2.7 1.8-4.7-1-2-3-1.6-4.6-1.3-.5 0-.8 1.7-1 2.7-.1 1 .2 2 0 3-.2.4-1 .8-1.4 1.2-.3-.4-.9-.8-1-1.2v-3.5c0-1.9-.2-4.3 2.2-4.6 2-.2 5-.1 6.3 1.1 1.4 1.2 3.8 3.6 1.2 6.2-1 1-1.5 2.8-2.6 3.6-.8.5-2.3.2-3.5.2l2.6-2.7zM90.2 236.2c-1.2-.6-1.9-1-2.3-1.7-.4-.8-.6-1.8-1-2.8l3 1.2c.7.3 1.5.4 2.3.6l-.7-2.4c-.1-.5-.1-1.1-.4-1.6-.6-1-2.2-2.3-2-3.1.4-1.5 1.6-3 2.7-4 .9-.9 2.3-1 3.5-1.5-.5 1-.8 2-1.5 2.8-2 2-2 4-.1 6 1.3 1.4 3.2 2.6 2.2 4.8-1 2.2-3.3 1.6-5.8 1.7zM143 208c.8-2.6-1.9-5.5 1.4-7l1 6.4.3 1.6c.6-.4 1.4-.7 1.6-1.3l2.1-6.6c.2-.5.8-.9 1.2-1.3l.6 1.5c.5 3.3-.8 6-2.2 9-1 1.8-2 2.8-3.8 2.3-2-.4-2.5-2.1-2.2-4.6zM164.1 159.9v2.3l.4 2.2c.7-.6 1.7-1 2-1.8.5-1.7.7-3.6 1.2-5.4.1-.3.8-.8 1.2-.8.4 0 1 .6 1 1 .2 3.6-.1 7.1-3 9.7-1.8 1.6-4.5 1.3-4.8-.6a34 34 0 010-8.6c0-.6 1.8-1 2.7-1.5l-.7 3.5zM175.9 159.9c-1.2-1-2.3-1.4-3.5-1.9 1.1-.5 2.2-1.3 3.4-1.6a33 33 0 015.4-1.2c.9-.1 1.8.3 2.7.4l-2.4 2h-.5c-2.5 1.5-4 3.3-4 6.5 0 2.1-1 4.2-1.7 6.3-.2.5-.8.8-1.2 1.2-.2-.6-.5-1-.6-1.6-.1-3.4 0-6.7 2.4-10.1zM237 40c-.4-1-.6-1.8-1-2.2l-4.3-4.8c-.2-.3.1-1.3.5-1.5.3-.3 1.3-.1 1.5.2.6.7.8 1.7 1.4 2.3.6.7 1.5 1 2.3 1.4l.7-2c.4-.8.8-1.8 1.4-2.2.4-.3 2 .4 2 .4L239 43.4h-1.5c-.3-.9-.3-1.8-.5-3.3zM71.4 172.8c3-2.6 7.5-1.3 10-4.7.3-.3 1.2 0 1.8 0l4.5.4c-1.2.7-2.8 1-3.6 2-1.4 1.6-2.2 3.6-3.4 5.4-.4.6-1 1-1.7 1.6 0-.8-.3-1.8 0-2.4 1.6-2.7-.6-2.8-1.9-2.2-2 .9-3.7 1.7-5.7-.1zM141.8 39c2.8-2.2 4.3-1 4.7 1.9.4 2.6-.2 5.2-1.8 7.4-.4.5-1.3 1.2-1.8 1-.8-.1-2.1-1-2.1-1.5.2-2.8-1.3-5.8 1-8.9zm1.2 2.9v1.6c-.2.8-.6 1.5-.9 2.2l1 .2c.4-.6 1-1.3 1-2 0-1-.3-1.8-1.1-2zM274.5 29.5c1-.4 1.7-1.1 1.8-1 2.5 1.5 4 6.7 2.5 9-.8 1-2.3 1.7-3.5 2.6-1-2-2.5-4-3-6.1-.3-1.3 1-3 2.2-4.5zm2.4 4.1l-.4-1.5c-2 .6-2.3 2.2-2 3.9.1.3 1.3.7 1.4.5.5-.4.7-1.1 1-2.9zM193.5 53h3.5c.4.1.8.6 1.2.9-.4.5-.9 1.4-1.2 1.4-2.4-.4-2.4 1-2.4 2.7v7c0 .3-.7.8-1 .9-.5 0-1.2-.5-1.2-.8-.2-1.6 0-3.1-.1-4.7 0-1.9.9-4.5-2.8-4-.2 0-.7-.8-.6-1.2 0-.4.6-.8 1-1 1-.5 2-.8 3.6-1.2zM313.3 34.2c-.3 1.6-.6 2.6-1 3.5l-1.8-2.1c-1.7-2.4-.7-6.5-4.8-7.3.2-.3.3-1 .5-1 1.8-.6 3.5-1 5.3-1.3 2.2-.2 2.5 1 1.1 2.3-2.4 2.3-1 3.7.7 6zM124 77.4c1.3-.5 2.4-.9 3.4-.9 1.3 0 2.6.4 3.8.6-1 .6-2.1 1.4-3.3 1.7-1.7.3-.8.6-.5 1.6.5 1.6.3 3.4.3 5 0 1.4-.3 2.7-.5 4l-1.8-4.4c-.2-.9-.1-2 0-2.9.3-2-.7-2.2-2.3-2.1-1 0-2.7.5-2.3-1.4.1-.5 1.8-.6 3.1-1.2zM172.3 196.3c2.3 4.7-.2 9-1.1 13.4-.2.7-1 1.2-1.5 1.8-.3-.6-1-1.2-.8-1.8.7-4.5.6-9.2 3.4-13.4zM323.8 66c1.6-.5 2.6-1.2 3.6-1.1.8 0 1.5 1 2.2 1.6-.6.2-1.2.5-2 .6-2.4.4-2.6 2.1-2.7 4.2 0 2.1-.5 4.2-.9 6.4-3.1-1.6-.6-4.5-1.3-6.6-.3-.9-.2-1.8-.6-2.7-.2-.5-.8-.8-1.3-1.2.8-.5 1.6-.9 3-1.3zM171.2 62.4v-2.3c.3-2.4 0-4.3-3.2-3.6-.4 0-1-.7-1.5-1.1.5-.4 1-1.1 1.4-1.2h4c2.1 0 1.9 0 1.7 2.3-.3 2.7 0 5.4-.1 8.1 0 .8-.5 1.6-.7 2.4l-.8-2c-.3-.7-.6-1.3-.8-2.6zM310.6 51.5c-.5 2-.6 3.7-1 5.3 0 .4-.7.8-1 .8-.4 0-1.2-.5-1.2-.8v-11c.1-.8 1.2-1.5 1.8-2.2.4.8 1 1.6 1.2 2.5.3 1.7.3 3.4.2 5.4zM141.8 221c.6 3 .6 6.2.6 9.4 0 .8.2 1.6 0 2.4 0 .5-.4 1-.6 1.6-.4-.4-1-.7-1.2-1.2-.5-1.6-1.2-3.3-1-4.8.2-2.5 1-5 2.2-7.5zM201.7 78.8c-.7.8-1.3.9-2 1l-1.5-9.2c0-.3.6-.8.9-1.2.5.5 1.3.8 1.4 1.3.5 2.5.8 5 1.2 8.1zM299.5 31.6c0-1.7.4-3.1.9-4.5.1-.4.6-.7 1-1.1.4.4 1.2.9 1.2 1.3 0 1.8 1 4-1.2 5.2-.3.2-1.1-.4-2-1zM332.3 76.2c-.3-1-.5-2.3-.2-2.4.8-.5 2-.6 3-.8-.4 1.5 0 3.4-2.8 3.2zM347.6 72c.7.6 1 1.4 1.4 2.2-.7 0-1.5.4-2 .2-1.6-.8-.1-1.4.6-2.3zM342.3 75c-.4.2-.5 0-.7 0l-2.2-1.7 1.2-1.2c.7.9 1.3 1.7 1.7 3zM260 738c.2 1.1-.2 1.4-1.1 1.2-.4-.1-.6-.5-1-.8l2.2-.4zM325 765.3c.4.4.6 1 .7 1.6l-.7.2c-.1-.5-.2-1 0-1.8zM174 852.8c-.3 0-.3-.4-.4-.7.3.1.5.3.5.7z"/>
  <defs>
    <pattern id="pattern0" width="1" height="1" patternContentUnits="objectBoundingBox">
      <use transform="matrix(.001 0 0 .00058 0 0)" xlink:href="#image0"/>
    </pattern>
    <image id="image0" width="1008" height="1738" xlink:href="4a_fakeactivism.jpg" />
  </defs>
</svg>
