<svg xmlns="http://www.w3.org/2000/svg" xmlns:xlink="http://www.w3.org/1999/xlink" fill="none" width="873" height="729" viewBox="0 0 873 729">
  <defs/>
  <path fill="url(#pattern0)" d="M43.3 38h386v419h-386z"/>
  <path fill="url(#pattern1)" d="M466.3 39h378v419h-378z"/>
  <path fill="#00EBAB" d="M184 362.5a34 34 0 0116.9-3c1.7 0 3.5-.4 5.2-.5l-3.2-4.3c-1.6-2.6-3.7-5.2-4.7-8-1.9-5.3-6.2-8.5-9.2-12.9-.7-1-1.2-1.5-2.9-.3-3.7 2.8-7.4 2.4-11-.2-2-1.6-2.9-3.8-3.2-6.3-.4-3.5-.2-7.1-.6-10.7-.5-3.3 1-7.4 4.1-10.2 2.6-2.3 6.8-3 10.2-.8 2.9 1.9 5.7 4.1 7.7 6.8 1.2 1.8 1.5 4.8 1.1 7-.6 3.4-1.9 6.7-3.5 9.6-.8 1.6-.7 2 .2 3.3 3.4 4 6.7 8.3 9.7 12.6 2.6 3.9 3.8 8.6 7 12.2 1 1 1.4 1.7 2.8 1.7 5.7 0 11.5.2 17.1 0 6.1-.4 11.9 1.4 17.8 2.1 4.4.5 10.8 5.5 14.1 9.5 1.5 1.7 3.5 2.8 5.3 4.3 2.7 2.3 2.8 6.2-.5 9.1-5.3 4.7-11.7 5.8-18.2 7.2-6.9 1.6-14 1.3-20.9 3-1.9.4-4 .2-6 0-2.3-.2-3.5.5-4.4 2.8-2.4 6.7-5.2 13.3-7.7 20-.6 1.6.1 2.5 2.3 2.5 8.2-.2 16.5-.3 24.7 0 4.4.2 8.8 1.1 13 2.4 4 1.1 6.9 4.1 9.4 7.4 1 1.5 2.4 3 3.9 4.2 3 2.2 3 5-.1 7-5.7 3.7-11.3 7.3-17.8 9.4a46.3 46.3 0 01-14.5 2.8h-19c-5.4 0-10.7-.7-15.9-2-2-.4-4.1-.6-5.5 2.5-1.3 3-4.2 5.4-6.6 7.9a194.8 194.8 0 00-16.8 19.7c-1.8 2.4-4.6 4-7 6.1-.7.7-1.5 1.3-2 2.1l-9.7 12.7-.7 1 1.4.3 10.2-1c.8 0 1.8.4 2.6.9.4.3.5 1 .7 1.7-.4.1-.9.4-1.3.4h-6.6c-1.7 0-3.2 1.7-5.3.2-.6-.5-2.5.7-3.8 1.3-2.8 1-4.1.4-4-2.5 0-4 .5-8.1 1-12.2 0-.2 1-.4 1.7-.6.4 1.4 1 2.7 1.1 4 .1.7-.9 1.5-.8 2.1 0 1 .8 1.7 1.2 2.5l1.1-1.7c6.2-8.3 13.3-15.8 20.1-23.5 6.1-6.9 12.2-13.8 18.7-20.4.7-.7 1.2-1.8 1.8-2.7.7-1.2.4-1.7-1-1.9-4.5-.6-8.2-3.1-11.8-5.5-1-.7-2-1.5-3.2-2.2-4-2.2-4.6-4.6-2.9-9 2.3-5.6 6.6-8.7 12.2-10.5 4.1-1.3 8.4-3.8 12.4-3.6 4 .3 7.8-1.3 11.8-.4.9.2 1.6.2 2-1.3 2.2-7.1 4.8-14.1 8.4-20.7 1.2-2 .4-2-1.3-2.2-5.7-.3-11.6 0-17.2-1.1-5.2-1-10.5-.1-15.7-1-3.9-.7-8.3 0-11.6-3.4a26 26 0 01-6.5-10.5c-.6-1.7-.4-2.6.7-3.8 4-4.2 8.8-6.6 14.2-8.4 2.8-.9 5.5-2 8.8-3zm63.5 62l-1-.1c.3.2.6.4 1 1l3.4 3.5.6-.5-3-3.4c-.2-.2-.7 0-1-.5zm-67-58c-2 .7-4.1 1.6-6.2 2-4.4.8-7.5 3.6-10.4 6.6-.5.5-1.2 1.6-1 2 1.5 3 2.6 6.3 4.8 8.5 3 2.8 7 3.6 11.2 3 1 0 2-.3 3-.6-1-.4-2-1-3-1.3-1.4-.2-2.8.2-4 0-6.5-1.6-10.2-5.3-6.9-11.3 1.2-2.2 3-4.4 6.4-5 2.3-.4 4.4-2.5 7-3.9l.2-.9c-.2.3-.4.6-1.1 1zm69.5 20.2c2.5-.7 5.2-1.2 7.7-2 3.6-1.2 5.8-7.9 3-10.3-3.8-3.1-6.9-7.4-11.8-9-1-.3-1.8-.7-2.7-.8-5.6-.8-11.2-1-16.7-2.2-8.8-1.7-17.3-1-26 1-9.1 2.1-18.1 4.7-26.8 8.3-2.8 1.2-6.3 2.3-6 7.2.1 2.4-.3 3.6 2.5 3.8 2.5.2 5.3.2 7.4 1.3a42.2 42.2 0 0017.6 3.7c3.6.2 7.2.4 10.6 1.2a54.2 54.2 0 0019.8.5c6.7-.8 13.5-2.5 21.4-2.7zm4.5 48.8L244 426c-.6-.5-1.4-.9-2.1-1-5.8-1-11.6-2.8-17.4-2.9-12-.2-24-1-35.8 1.8-8.6 2-9.1 2-16.2 7.1-2.3 1.7-2 4 .5 5.5 1.8 1 3.5 2 5.2 3.2 4.1 3 8.5 5 13.8 4.5 1.5-.2 3 .6 4.6.8 3 .4 6 .6 9.1 1.1 3.8.7 7.5 0 11.2 0H229c3-.2 6-1 9.1-1 5.6 0 9.4-4.1 14.3-5.5 1-.3 1.5-2 2.2-4zM190 312.7c-.4-3.7-4-4.5-6-4.3-2.8.3-6.4.5-8.1 4.3-2.3 5-1.3 10.2-.6 15.2.6 4.4 6.1 6 9.3 3a24 24 0 006-8c1.2-3 3.4-6.5-.6-10.2zm-18 125.9l-1.4-.5c0 .3-.4.7-.3.9 4 4.1 8.8 6.8 14.6 7 .3.1.7-.3 1-.5l-1-.4c-4.7-.8-8.6-3.3-13-6.5zm14.5-75l-.3.6.4.3 9.2-2c.5 0 .9-.3 1.3-.5-.5-.2-1-.5-1.3-.5-2.8.7-5.5 1.4-9.3 2zM258 435c-.1.5-.5 1-.4 1.3 0 .6.3 1.2.5 1.7l.7-.7c1.2-.8.2-1.2-.8-2.3zM139 534c-2.5.5-2.3-1-2.3-2.4 0-2.9-.2-5.7 0-8.6.1-2-.5-2.6-2.5-2.4-1.6.2-4 .6-4.2-1.3-.2-2 2.3-1.4 3.8-1.7 2.9-.5 5.7-1.4 8.7-2 2.5-.4 5.3 0 6.1 2.8.7 2.2 1.5.7 1.6.2.7-2 2.3-2.6 3.8-2.9 1.5-.3 3.4-.6 4.5 1.1.9 1.4.2 4.5-1.1 5.8l-3.6 3.5 3.7 2.9c.2 0 .3.2.4.3l2.7 3.2-5.1-.6c-.6 0-1.3-.3-1.7-.7l-3.6-3.5-1.4 4.5c-.3.6-.8 1-1.3 1.5-.6-.6-1.7-1.3-1.7-2 0-3.4.3-6.9.7-10.3.2-1.3.2-1.7-1.2-1.8-4.5-.4-5.5.5-5.6 5.3-.1 3-.4 5.9-.8 9.1zm17.3-14.4c.1-.2.4-.5.3-.6-1.6-2.1-2.9-.4-4 .5-.8.6-1.3 1.7-1.8 2.6l3.6-.6c.6-.2 1-.9 1.9-1.9zM176.7 516.9c3.4 1.1 7 .5 9.8 2.7.2.1.8.2 1 0 2-2.3 4.3-.7 6 .2 2.3 1.3 4 3.5 4.3 6.2.3 3.3 1.3 6.6-1.9 9.6-2 2-4 2.8-6.1 2-2.3-.8-3.7-3.1-3.8-5.7v-9c.1-1.8-.3-2.3-2.1-2.3-2.2 0-4.4-.9-6.6-.9-2.1 0-3 2.1-2 3.8.4.5.6 1.2 1.9.7 1.7-.8 3.8-.5 5.8-.5.3 0 .7.5 1 .8-.4.4-.7 1-1.1 1.1-1.2.5-2.5 1.2-3.6 1-3.9-.6-4.6 1-4.6 4.6 0 1.2-1 1.8 1 1.3l.3-.3 5 .2c-.8 1.8-2.4 2-4 2.4-4.7 1.3-5.1 1.1-5-3.6 0-2.5-.7-5.2.9-7.6.3-.5.1-1.3 0-2-.2-1.2-1.1-3.2-.8-3.4 1.2-.9 2.9-1.1 4.6-1.3zm12.3 13.3c0 1.3-.2 2.7.1 4 .2.5 1 2.4 2.4.6.7-.9 1.8-1.5 2.4-2.4 2.2-3.2 1.3-8.1-1.9-10.2-.6-.4-1.6-.7-2.2-.4-.5.1-.7 1.2-.7 2-.1 1.8 0 3.6 0 6.4zM146 639.3c-2.1-2-.4-2.6.7-2.8 3.7-.5 7.4-.7 11.1-1h4.6c3.6-.3 4.3.4 3 3.8-.4 1.3-1.2 2.5.3 3.2 2.4 1 4.8-.2 5.2-2.2.1-.6-.2-1.4 0-2 .4-1 1-1.9 1.6-2.8.4.8 1.3 1.6 1.3 2.5 0 5.4.9 11-1.9 16.2l-.4 1.3c-.5-.4-1.4-.8-1.4-1.2 0-2.6-.2-5.3.5-7.7.4-1.7.3-2-1.3-2-3.7-.1-5.3 1.4-5.5 5 0 1 0 2-.4 2.9-.2.4-1 1.8-1.6.4-.4-.7-2.2.8-1.5-1.4 1.2-4 .2-8.3 2.5-12 .7-1.2-.1-2.3-1.8-2-2 .3-4 .5-6 1-.6.2-1.2 1.5-1.2 2.2.2 4.4-1 8.5-2 12.7-.3.8-1.1 1.4-1.7 2-.4-.7-1.3-1.6-1.3-2.4.2-3.5-.2-7.4 1.2-10.5 1.4-3.5 0-3.1-2.3-3-.5 0-1 0-1.7-.2zM82.3 673.8v-1c.6-2.9 1-5.5-3-6.2-.7 0-1.2-1.1-1.8-1.7l2-1.2h.5l19.2-1c.7 0 1.5-.2 2 0 1.1.4 3 1.3 3 1.6-.6 2-1.9.5-3 .4-1.7-.1-4-.6-4.7 1.6-.5 1.3.1 2.9.3 4.3l3-.8c.9-.1 1.7-.2 2.5 0 1 0 2.1.4 3.1.6-1 .8-2 1.7-3.1 2.3-.7.3-1.6 0-2.5 0-2.8.2-4.6 3-3.4 5.5.2.3 1.3.6 1.6.4 1.4-.9 2.6-2 4-2.8.2-.2 1 0 1.2.4.2.2.2 1 0 1.2-1.6 1.8-3.2 3.5-5 5-1.3 1.1-5-1.1-4.8-3 .3-3.8-1.1-7.6.9-11.3.9-1.6-.5-2.8-2.3-2.4-.3 0-.5.5-.7.6-1.8.5-4.6.4-5.3 1.5-1 1.8-.6 4.4-.7 6.7v5.5c0 .6-.4 1.2-.5 1.8-.5-.5-1.3-.9-1.4-1.5-.5-2-.8-4-1.1-6.5zM39.2 633.7c3.8-.6 7.4.5 11-1.1a4 4 0 014.6.9c.7.8 2.4 1 3.5.9 2.7-.3 3.6 1.5 3.7 3.2.3 3 .6 6.2-1.4 9-.8 1.2-1.2 2.9-2.2 4-.7 1-2.2 2-3.1 1.8-1.2-.3-3-1.6-3-2.7-.5-2.3-1.6-4.7-.3-7.2a8 8 0 001-4c-.1-1.5 3.5-1.6 1.1-3.3-.8-.6-2.5.2-3.8.3-4.3.1-4.8.6-5.3 5l-1 10.2c-.2.7-1 1.3-1.5 1.9-.3-.6-.4-1.3-.8-1.7-1.3-1.1.2-2 .1-2.8-.2-2.1.5-4.1.3-6.2-.2-1.5-2-5-3.2-5.5-2-.8-.7-1.6.3-2.7zM58.1 645c.7-2 1.5-4 2-6.1 0-.7-.8-2-1.5-2.3-.6-.1-2.1.7-2.3 1.3-.6 2.4-1 5-1.2 7.5 0 1.3.3 2.7.5 4.1.9-1.1 1.7-2.3 2.5-4.5zM152 607.5c-.9 5-1.6 9.8-2.3 14.5 0 .5-.6 1-.9 1.4-.3-.6-1-1.2-1-1.7.3-3.7.7-7.4 1.2-11 .1-1.5.3-3 .8-4.2.4-1 1.5-2.2 2.2-2.1a4 4 0 012.7 2c.7 1.5.7 3.4 1.1 5 .2.7.6 1.3 1 2 .3-.8 1-1.6 1-2.3-.1-2.6.3-4.9 2.3-6.6.8-.6 2-1 3-1.2 1-.3 1.6 0 1.8 1.5 1 5.4-1.2 10.9.7 16.3.3.8-1.2 2.2-1.8 3.3-.7-1.2-1.8-2.3-1.9-3.5-.2-3-.3-6.1.8-9.2.5-1.2-.4-3-.7-4.4-1.7.9-2 2.4-2.2 4.2a64 64 0 01-1 7c-.1.6-.7 1.3-1.2 1.5-.3.1-1.2-.4-1.4-.8-.9-1.6-1.8-3.3-2.4-5-.7-2.3-1-4.6-1.8-6.7zM188 561l.6-7c-1.3 1.6-2.4 3.3-4 4.7-2.6 2.3-5.7 1.5-8.7.6-3-.8-4-3-4.2-6.2-.2-4.3 1.8-7.4 4-10.5 2-2.8 6.2-2.7 8.5 0 .3.2.4.7.5 1-.5 0-1 .2-1.4 0-4.3-1.2-4.7-1.1-6.5 3-.8 1.8-1.4 3.7-1.8 5.7-.5 2.5 1.3 4.5 4.3 4.5 2 0 4-1 5.8-1.6.5-.2.6-1 1-1.6-.6-.3-1.1-.6-1.7-.7h-2c-.5 0-.9-.3-1.3-.4.3-.4.5-1 .9-1 2.3-1 4.6-2 7-2.5.8-.2 2.8 1.3 3 2.2.3 3.8-.3 7.6-2 11.2-.2.6-.8 1-1.2 1.6l-.8-3zM219 649.8c1.8 2.3 0 3-1.2 2.7-2.7-.6-5.3-1.7-7.9-2.7-1-.4-1.8-1.3-2.8-1.8-2.2-1-2.7-.7-3 1.7 0 .5.2 1.1 0 1.5l-1.8 3c-1.1-1.1-2.7-2-2.2-4l1-3.7c1-2.2.7-4.3.1-6.7-.8-3.5 1.3-5.2 5-5.4 3.7-.2 5.9 2 7.8 4.5 1.4 1.9.2 4.7-2.5 6.6-.4.3-.9.4-1.3.5.5.5.8 1.2 1.4 1.4l7.4 2.4zm-7.8-7.8c-.6-1.2-.9-3.2-1.8-3.6-1.6-.6-4.4-.9-5 0-1.6 2 0 4 2.8 4.1 1.1 0 2.3 0 4-.5zM202.1 672.7c-.7-.3-.9-3.3-2-.8-1.2 2.7-3.3 5-3.1 8.3 0 1.2-1.5 2.4-2.3 3.5-1.3-1.1-2.8-2-2.7-4.2.2-3.7 0-7.4 0-11.1 0-.7-.1-1.4.1-2 .4-1 1-1.7 1.6-2.6.5.8 1.2 1.6 1.3 2.5.2 2.1 0 4.3.1 6.5 0 .6.2 1.2.4 1.8l1-1.8c.3-.6.6-1.1.7-1.7.6-2.5 2.5-2.6 4.5-2.4 2.2.2 2.5 1.7 2.5 3.5 0 .5.8 1 1.2 1.5.3-.5.7-1 .7-1.5l.1-6c0-.6.8-1.3 1.3-1.5 1.2-.3 1.9.2 1.7 1.6-.7 4.6-1.3 9.2-2.1 13.7-.2.8-1.6 1.5-2.6 1.7-1.6.5-1-1-1.4-1.8-1.3-2.1-.9-4.4-1-7.2zM205.4 579.8c-.9.6-2.1 4.5-2.3 6-.1 1.2-.4 2.4-.8 3.6-.2.7-.8 1.2-1.2 1.8-.6-.8-2-1.9-1.8-2.4 1.7-4.7 1.3-10 4-14.3.4-.7 1.2-1 1.9-1.5.4.6.9 1.1 1.1 1.8 1.4 3.1 3 6.2 3 9.8 0 .5.4 1 .7 1.5.4-.5 1.2-1 1.1-1.6-.2-4.7 2.4-8.8 3.2-13.2.2-1 1.6-1.7 2.6-2.2.5-.3 1.3-.5.8 1a213 213 0 00-4.4 19.3c-.3 1.6-1.2 1.5-2 2.2-1.4 1.1-1.7-.5-2-1-1.7-2.3-3.4-4.6-3.2-7.7 0-1-.3-1.9-.7-3zM39 693.9c.3-2.3.8-3.7 3.1-2.5.8.5 1.9.4 2.8.5 3 .1 4 .9 4 3.8a6 6 0 002 4.8c.7.6 1 2 1.1 3 0 5.2-6.3 10-11.2 8.5-1.4-.4-1.9-1.5-1.9-3v-15.1zm9.5 8c-1.5 0-3-.3-4.4.2-1 .3-1.8 1.7-2 2.7-.2 1.3.3 2.8.4 4.2 1.4-.4 3.2-.3 4-1.2 1.2-1.4 1.7-3.5 2-5.8zm-3-4c.4-.9 1-1.8 1.2-2.7 0-.4-1.2-1.2-1.9-1.2-.8 0-2.1.5-2.4 1.1-.4 1 0 2.4 0 3.7a10 10 0 003.1-.9zM129.6 709c.1-1.3 0-2.3.4-2.8 1.6-1.7 0-2.7-.9-3.1-1.5-.7-3 0-3.5 1.7-.5 2.1-.6 4.4-1 6.6-.2.6-1 1.2-1.7 1.4-.3 0-1.3-1-1.3-1.4.5-3.5-1.2-7 1.3-10.5 1.3-1.8 1.2-4.5 1.7-6.8.1-.6 0-1.5.2-1.9.5-.6 1.3-.9 2-1.3.2.6.8 1.3.7 2l-.9 6c0 .6.5 1.2.7 1.8 1.1-.6 2.8-1 3.2-2 .8-1.7 1-3.7 1-5.6.3-2 1.8-1 2.7-1.2l-.1 2c-.2 1-.1 2-.5 2.9-1 2.2 3.2 3.4.8 6.3-1.2 1.4-.8 4.3-.7 6.6.1 2.2-1.4 4.1-2.7 4-1.8-.2-1.3-2.6-1.4-4.7zM45.3 557.7c-1-4.2-1.6-8.1-2.3-12l-.5-1.8c-.5.6-1.3 1-1.5 1.7-.2 1 0 2 0 3a588 588 0 01-1 13.2c-.1.4-.8.8-1.2 1.2-.3-.5-.8-1-.8-1.5a50 50 0 011.9-16.8c.4-1.3.8-3 2-2.7 1.2.3 2.6 1.9 3 3.2.7 2.3.7 4.8 1.1 7.1.2 1 .7 1.7 1 2.6l.4.9.6-1 1-6.1c.1-.8-.2-1.8.2-2.4.8-1.3 2-3.3 3-3.3 2 0 1.8 2.2 1.9 3.8l1 12.7c0 .4-.6 1-.8 1.4-.4-.3-1-.6-1.2-1-1.7-2.6-1.5-5.4-.5-8 .6-1.4.7-2.4-.4-3.4-.4-.4-.5-1-.7-1.6-.2.5-.4.9-.4 1.4-.4 2.7-.6 5.4-1.1 8-.3 1.3-1.2 2.4-1.8 3.6l-3-2.2zM86.3 527.7v3.5c-.2.6-.8 1.4-1.3 1.4-.5.1-1.5-.5-1.7-1-.5-2-1-4-1-6 0-2.8.4-5.5.8-8.2 0-.7.7-1.2 1.1-1.8.4.6.8 1.2 1 1.8l.6 1.2c.4-.3.8-.6 1-1 3-4 5-4 8.4-.8 2.4 2.3.2 3.5-.5 5-.8 1.6-2.9 3-3 4.5 0 1 2.5 2.1 4 3.2l1 1 .6.8c-.4.1-.8.4-1.3.4-3 .2-4.8-2-7-3.7-.7-.7-1.3-2.2-2.7-.3zm2.5-9l-1.5 2.3c1 0 2.2.6 2.9.2 1.2-.8 2.1-2 3.2-3-1.4 0-2.7 0-4.6.4zM216.5 667c-.2 1.4-.8 3.1 1.5 2.7l6.2-1c.6 0 1.4.4 2.1.7-.5.8-.9 2-1.6 2.2-2 .6-4 .7-6 1.2-1.3.2-2.2 4.4-1.2 4.6 1 .3 2.3-.5 3.4-.8l2.1-.6c-.3.8-.4 1.7-1 2.4-.6 1-1.5 1.7-2.4 2.5-1 1-2 2.7-3.7 1.8-1.7-.9-3-2.3-2.7-4.7.2-2.8 0-5.7 0-8.5v-2.6c-.1-1.4-.8-4-.3-4.1 1.6-.8 3.7-1 5.5-1 2.5-.2 5-.1 7.5 0 .5 0 1 1 1.4 1.4l-1.3.5c-2.3.3-4.5 1-6.7.9-2-.2-2 1-2.8 2.4zM87.3 579c0-2-.2-3.5 0-5 .2-.7 1.3-1.3 1.9-2l1.1 2.2c.2.4 0 1 0 1.5 0 4.5 0 4.5 4.5 4.4 1.5 0 2.9.3 2.7-2.2-.2-1.8.5-3.7.9-5.6 0-.4.3-.9.5-1.3.6.3 1.2.4 1.7.8.4.2.8.7.8 1.1 0 4.3 0 8.6-.3 13 0 2-.4 4.1-.7 6.2-.2.7-.9 1.3-1.3 2-.6-.7-1.6-1.4-1.6-2-.2-2.4-.2-4.8-.1-7.1 0-2-1-3-3-3s-3.1.8-3 3v6.5l-.7 1.7c-.6-.4-1.5-.6-2-1.2-.3-.6-.4-1.5-.4-2.3v-7.5c0-1-.7-1.8-1-3.1zM162 546c.3-1.1 0-2.1.2-3 .2-.5 1.2-.8 1.9-1.2l.8 1.5c2 5.2.7 10.5.8 15.7 0 1-2 2.2-3.4 2.9-1.2.5-2-.1-2.8-1.6-1-1.8-3-3.2-4.5-4.7-.5-.4-1.1-.5-1.7-.7-.2.6-.5 1.2-.5 1.8v5c-.2.8-1.1 1.4-1.6 2.2-.5-.7-1.4-1.3-1.4-2 .1-2.7.5-5.5.7-8.2.1-2.1.1-4.3.3-6.4 0-.5.5-1 .8-1.5l1.2 1.2 8.6 11 1 .8.4-.8c-.2-4 .8-8-.7-12zM147 588.9c2.3-.5 4.4-1 6.4-2 .6-.2 1.4-1.3 1.3-1.8-.3-.8-1.1-1.5-1.9-2-.5-.2-1.3 0-2 0-.3 0-.6-.4-.9-.6.2-.3.5-.7.7-.7 2-.2 4.2-.6 6-.1.7.1 1.2 2.5 1.1 3.9 0 2.5-.5 5-1 7.6 0 .7-.9 1.3-1.3 2-.6-.7-1.3-1.2-1.6-1.8-.2-.6 0-1.3 0-2 0-1.2-.3-1.5-1.3-.5-.4.4-1.1.5-1.7.7-4.3 1.8-6 .5-7.2-4-1.2-4.8.1-8.5 3.1-12 2-2.6 3.5-3.2 6.2-2 1 .6 1.8 1.5 2.7 2.2-1.2 0-2.8.6-3.3 0-1.7-1.5-2.1.3-2.6.9-2.6 3.5-4 7.4-2.7 12.2zM165.9 697c-.4 3.6-1.2 6.4-5.1 7-1.6.2-1.3 1.5-.3 2 2.1 1.2 4.5 2 6.8 3l1.6 1.2c-.5.6-1 1.8-1.6 1.7-1.7 0-3.4-.5-5-.9-.7-.1-1.2-.5-1.8-.8-1-.7-2.5-2.3-3-2-1.8 1-.4 2.4.3 3.6 0 .2-.6 1.1-1 1.2-1 .1-2.1.4-2-1.3 0-2 .2-4 0-6-.3-2.4 1-5-.9-7.3-.2-.2.3-1 .5-1.6 1.1-3 4.5-2.2 6.5-3.8.4-.3 2.1 1 3.2 1.7.7.4 1.2 1.1 1.8 2.2zm-4.6-1c-.2.1-.4.6-.7.6-3.3-.2-3 2.1-2.7 4.2 0 .4 1.4 1 1.5 1 1.6-1.6 3.9-3 2-5.9zM242.7 672.5c.3 3.8-.4 7-4.2 8.2-1.6.6-2.4 3-4.6 2.1-1.5 2.5-3.5.3-4-.2-1-1.1-2-2.6-1.3-4.7 1.1-3 1.6-6.2.8-9.5-.2-.9.6-2 .8-3.1.3-2 .8-1.8 2.5-1 3.8 2 8 3.5 10 8.2zm-10.4-3.3v5.5l.4 5 3.8-2.6c.7-.4 1.7-.5 2-1 .6-.8 1.1-2.4.8-2.6-2-1.8-3-5.1-7-4.3zM116.5 666.7c0-1-.2-1.6 0-2 .5-1 1.2-1.9 1.8-2.8.4 1 1.1 2 1.2 3l1 15.2-.2 1.4-1.4-.8c-3.3-2-6.4-4.3-7.5-8.4 0-.4-.6-.8-1-1l-1.7-1.3c-.1.7-.5 1.5-.2 2 1.9 2.7.6 5.7 1 8.6 0 .3-.4.8-.6 1.2l-.7-.8c-.6-1-1.7-2.2-1.7-3.3.2-4.7.6-9.4 1-14.1 0-.3.5-.8.9-.9.3 0 1 .4 1 .7.7 4.3 4.5 6.8 6.2 10.5.1.4.9.6 1.4.9.2-.5.5-1 .5-1.3l-1-6.8zM57.3 603.5c.6.8.7 2 1.4 2.8 2.4 2.4 4.8 4.8 4.6 8.7 0 .4 1 .8 1.4 1.3.1-.6.5-1.2.4-1.8l-1-10.7c0-.8.5-1.7.8-2.6.7.9 2 1.7 2.2 2.7.3 2.4 0 5 .1 7.5.1 1.9.7 3.7 1 5.6 0 1 .2 2.1-.1 3-.4.9-1.1 2-2 2.3-1.3.6-1.8-.4-2.2-1.6-1.1-3-2.5-6-3.8-9-.2-.5-.6-1-1-1.4-.3.6-1 1.1-1 1.7 0 1.5 0 3 .6 4.3 1.4 3-.4 5.7-.6 8.5 0 .2-.8.5-1.2.6-.2 0-.8-.3-.7-.5.4-7-1.3-14.2 1.1-21.4zM133.9 616.6c.4 3.8.4 3.7 3.7 2.8 1.6-.4 4.6-1 4.7-.6 1 2.8-2.1 2.5-3.4 3.6-1.3 1.2-3.5 2-5 1.8-1.3-.2-3.3-2.5-3-3.6.4-3.3-2.3-6.8.6-9.9.6-.6.2-2.3.1-3.4 0-2 .8-3.1 2.9-3h9c.4 0 .8.3 1.1.5-.3.4-.6 1-1 1-2.3.5-4.5.9-6.8 1-1.7.2-2 .4-2.2 2.5 0 1.3 0 2.2 1.8 2h6c.5 0 .9.3 1.3.5-.3.4-.6.8-1 1-1.9 1.2-3.8 2-6 1.5-2-.5-2 1-2.8 2.3zM178.7 675.5a9.5 9.5 0 00-.7 3c0 .8.3 1.6.5 2.3.7-.4 1.6-.6 2-1.2 1.1-1 2-1.1 2.9 0 1.2 1.5-.5 1.7-1 2.2-.9.8-2 1.6-3.1 2-2.6.8-4-.3-4.4-3-.4-3.3-1-6.4.8-9.5.4-.8-.5-2.3-.8-3.5-.5-3 .4-3.8 3.5-3.3.8.2 1.8-.4 2.7-.4l7.5.6c-.3.3-.4.9-.7 1-2.2.7-4.4 1.6-6.7 2-1.6.1-2.3.2-2.3 2 0 2.3 1 2.1 2.4 2l3.5-.2h2.2c-.5.7-1 2-1.6 2.2-2.1.7-4.3 1-6.7 1.8zM191.8 643.3c-1.8.6-3.6.5-4.8 1.4-1 .7-3.2 0-3 2.3l.3 3.4 3-.8c.8-.3 1.4-1 2.1-1 .5 0 1 .8 1.4 1.3.1.2-.3.8-.7 1-.8.7-1.9 1.2-2.7 1.9-1.4 1.1-2.7 3.2-4.5 2-2.3-1.4-4-4.3-2.7-6.6 1.1-2 .1-3.1.2-4.6l.1-5.1c.1-1 .9-3 1.1-2.9 3.5.5 6.9-2 10.3-.1l1 .6c-.3.3-.6.9-1 1-2 .5-4 1.3-6 1.3-2.7 0-2 1.7-1.8 3 .2 2 1.2.7 2.3.4 1.6-.4 3.5-.1 5.3 0 .1 0 .2.8.1 1.5zM72.5 533c-3.7.6-5-.5-5.3-4-.2-2.3 0-4.7 0-7v-3.5c-.5-2.7 0-3.9 2.6-3.8 2.8 0 5.7.6 8.6 1 .3 0 .5.2.8.4-.3.3-.6 1-1 1l-5.8.6c-.7 0-1.7.7-1.8 1.2a3 3 0 00.8 2.3c.5.5 1.5.5 2.3.4.9-.1 1.7-.8 2.6-.9 1.3 0 2.5.2 3.8.3-1.2 1-2.3 2.2-3.7 2.6-1.8.4-4-.5-5.3 1.7-.4.9-.6 2-.7 3 0 .2.8 2.1 2 .7.6-.5 1.4-1 2.1-1 .9-.2 1.8.1 2.7.2-.3.7-.5 1.5-1 2-1.1 1-2.3 1.7-3.7 2.8zM179.2 695.2c-3.1 3.5-3 3.5.3 6.8 1.2 1.2 2 2.8 3.2 4.2 2.1 2.4 1.6 4.7-1.6 6.2-2.8 1.3-7.6.1-9.1-2.4-.8-1.2-1.1-2.6-1.6-4 1.3.3 2.7.5 4 1 1.5.6 2.5 2.6 4.5 1.5-.9-1.3-1.7-2.6-2.8-3.8-2-2.2-4-4.3-2.9-7.6a7 7 0 019.2-4.2c.3 0 .6.5.6.7 0 .5-.3 1.2-.5 1.2-1 .2-2 .1-3.3.4zM90.3 635.5c-1 2.4-1.5 4.9-2 7.4-.4 2.3 1.3 4.5 2.8 4.4 1.8-.2 3.5-2.3 5.3-3.6l-.2-.8h-1.7l-2.1.2c.3-.7.6-2 1-2 1.6-.2 3.5-.5 5 .1.7.4.9 2.6.8 4 0 1.6-.3 3.4-.9 5-.3 1-1.3 1.6-2 2.4-.3-.6-.8-1.2-.9-1.8-.2-2-1.8-1.3-2.6-1.1-4 1-5.4.4-7-3-1.6-3.8-.2-10.3 2.8-13a5 5 0 017.8 1.4l-.1 1-1.1-.3-4.9-.3zM106.4 559l-1 4-.4 1.9c-.5-.6-1.6-1.3-1.5-1.6 1-3.2-1.8-6-.4-9.4.7-1.6-.2-4.5-.2-7 0-2.6.5-3.3 3.2-3.1 1.5 0 3.1-.5 4.7-.8.4 0 1-.3 1.4-.2l4.3 1.6-4 1.4c-.7.2-1.6 0-2.4 0-3.2.2-4.6 2.2-3.6 5.3h1.2l10-.2c.2 0 .7.5.8.9 0 .3-.4 1-.7 1-2.3.5-4.7 1-7 1-4.3.2-4.3.1-4.4 5.1zM65.1 693.9c.7-.5 2-.5 2-.4 0 1.6.6 3.5 0 5-2 4.6-1.7 9.6-3 14.3-.3.9-1.7 1.6-2.6 2.2-.2.1-1.3-.5-1.3-.9 0-2-.5-4.2.3-5.8 1.1-2.2.3-2.7-1.3-4-2.9-2.2-5.3-5-7.8-7.6-.1-.1.2-.9.4-1 .4-.2 1.1-.3 1.4-.1 2 1.5 3.8 3 5.6 4.6 2.7 2.5 3 2.4 4.3-1.1.6-1.6 1.4-3.1 2-5.2zM88 553.6c-3 3.1-5.8 6-8.7 8.7-1.8 1.7-2.7-.1-3-1.4-.4-1.5 0-3.3 0-5-.3-3.2 2.2-6.1.2-9.7-1-1.9 4.6-4.2 7.6-3 3 1 3.3 3.9 4.1 6.2.5 1.2.1 2.6-.1 4.2zm-9.3 4.3c.6.5 1 1.4 1.8.3 1-1.5 2-3 3.3-4.2 2-2.1 1.6-4 .7-6.6-.8-2.8-2.6-1.3-3.9-1.5-2.1-.4-1.3 1.4-1.3 2.4-.2 3 .4 6.2-.6 9.6zM41 573c.4-1 1-1.4 1.4-1.9l.6 1c0 1-.2 2.1 0 3.1s-1 3.1 1.4 2.8c1.6-.2 3.6-.1 3.7-2.8 0-1.4.5-2.7 1-4 .1-.5.7-.8 1.1-1.2.3.5.8 1 .8 1.5v20.1c0 .5-.2 1-.3 1.4l-1.4-1c-2-3.4-1.7-7.1-1-10.5.4-1.7.2-1.4-.9-1.4-3.6 0-4.4.7-4.4 4.5v8c0 .5-.8 1-1.3 1.6-.2-.5-.7-1-.7-1.6V576v-3zM149 702.2c-1.5.5-3 .4-4 1-1 .7-1.8 1.9-2.2 3-.3.8 0 2 .5 2.7.2.3 1.6.1 2.2-.3a8.1 8.1 0 015.9-1.6c.4 0 .9.3 1.3.4l-.6.7c-2.4 2.5-5.3 4.2-8.9 3.9-2-.1-4.3-2.7-3.4-4.4 1.2-2-1.3-3.6.2-5.6 1.3-1.7 1.1-4-.3-5.8 0-.2.6-1 1-1.3 3-1.3 6-1.7 9.2-1 .7.2 1.3.6 1.9 1-.6.3-1.2.8-1.8 1-1.5.4-3 .7-4.7.8-1.6.1-1.5 1.1-1.6 2.3-.3 2.2 1 2.1 2.4 2 1.4-.3 2.7-.8 4.1-1 .1 0 .6 1 .5 1.1-.4.4-1 .6-1.7 1.1zM90 711.3c-1.3-1.8-3.4-3.2-3.5-4.8-.3-3.4 0-6.9 1-10 .7-2.7 4.7-3.8 7.4-2.5 4.3 1.9 5 4 4.6 9.1-.2 2.3-1 3.9-2 5.8-1.7 3.2-4 3.8-7.4 2.4zm.3-12.9c-2 2.7-1 5.6-.6 8.4.5 2.5 3.1 3.1 5 1.3 1-1 2.2-2.2 2.4-3.5.2-2.3.4-5-.7-6.8-1-1.7-3.7-1.6-6 .6zM89.3 606.3l1-2.1c.9-1.6 2.6-1.3 3-.3 1 3.5 2.6 6.5 5.7 8.6 1.6 1.1-2.9-.1-1 2.2 1 1.2.3 3.8.3 5.8 0 .3-.5.8-.8.8-.4 0-1-.3-1-.6-.5-1.2-.6-2.5-1.2-3.6-.5-1-1.4-1.9-2-2.8-1.4 1-3 1.8-3.9 3.2-.8 1.4-.7 3.3-1.1 5-.1.3-.6.6-.9.9-.4-.4-1-.8-1-1.2-.4-2.2.7-4.6-1-6.6-.2-.2.1-1 .4-1.2 3-1.8 2.2-5.2 3.5-8.1zm3.5 2H92l-.1 4h.9c.2-1.2.4-2.3.1-4zM114.3 642.3c-2 .6-3.7.8-5.4 1.3-1.1.4-2.2 3.6-1.4 4.3.8.6 2.2.8 3.2.6 1.3-.3 2.4-1.3 3.7-2l.9.3c-.1.2-.1.6-.3.7-1.5 1.4-2.8 2.8-5.1 3.3-5 1.2-5.4 1.2-5.5-3.8v-9.6c0-3.9.6-4.5 4.5-5h4c1.2.2 3.4.3 3.5.8.5 2.6-2.3.5-3.2 1.8-.5.7-2.5.5-3.7.4-1.5 0-2 .2-2.1 1.9 0 3.2.4 3.7 3.6 3.2 1-.2 1.8-.9 2.6-1 .6 0 1.3.6 2 1l-1.3 1.8zM171.2 609c-1-3-.6-4.6 2-5.3 2-.6 3.7-1.8 6.6-.8 3 1 4 2.8 4 5 0 2.3-1.4 4.6-4 5.4-2 .6-4.8.4-5.6 1.7-1 1.5-.2 4.2-.3 6.4 0 .7-.5 1.3-.8 2-.4-.5-1-1-1.2-1.6a14.4 14.4 0 01-.2-10.8c.1-.5-.2-1.1-.5-2zm3.7-3.2l-1 4.7c0 .2.4.7.5.7 1.8-.4 3.7-.5 5.3-1.3.7-.3 1.4-2 1.2-2.8-.5-2.1-2.3-2-4-1.8-.5 0-1 0-2 .5zM75 678.5c-4.8.4-6-2.7-6.9-6.3-.1-.6-.8-1-1.3-1.5-.2.6-.6 1.1-.6 1.7-.1 1.6.2 3.4-.1 5-.2.9-1.3 1.6-2 2.4-.3-.8-1-1.6-1-2.3l1-12.7c.2-.7 1-1.3 1.4-2 .6.5 1.4.9 1.7 1.5 1 2.2 2.4 4.4 2.9 6.8.5 2.4 2 4 3.5 5.6.2-2.2.5-4.4.4-6.6 0-2.4-.6-4.8-.7-7.2 0-.4.6-.8 1-1.2.3.2.9.5.9.8l1 14.2c0 .5-.6 1-1.2 1.8zM47 602.2c3.1 5.3 5.6 10.6 5 16.7 0 .5-.5 1-.8 1.5-.4-.4-.9-.7-1.1-1.1-.5-.7-1-1.4-1-2.1 0-1.8 0-3-2.5-3-2.5-.1-2.8 1.6-3.5 3-.7 1.2-.7 2.7-1.2 4-.1.5-.7.8-1 1.2-.3-.5-1-1-.9-1.4l2-9.7c.3-1.5 1-3 1-4.6 0-2.6 1.3-3.8 4-4.5zm-1.5 10.1c3.6-.1 3.6-.1 2.5-3.4-.2-.7-.6-1.4-1-2-.3-.6-.8-1.1-1.2-1.6-.3.5-.7 1-.8 1.5 0 1.7 0 3.3.5 5.5zM126.3 561.7c.3-1 0-1.8.3-2.2 2.3-2.7.8-4.5-1.2-6.3-2.2-2-4.3-4-4.8-7-.1-.8.3-1.6.4-2.3.7.3 1.7.4 2 1 1 1.4 1.6 3 2.6 4.4 1 1.6 2.3 3 3.5 4.6.5-1.7 1.1-3.3 1.5-5l1-5.6c.1-.4.5-.9.7-1.3.4.4 1 .7 1 1 .2 1.5.5 3 .3 4.5-1 5.7-1.8 11.5-5 16.5-.3.5-.6 1.2-1.1 1.5-1 .9-1.9.8-1.9-.7 0-1 .3-2 .7-3.1zM63.1 571c1.4.6 2.7 1.1 3 2 1.5 4.8 2.8 9.8 4 14.8.2.7-.6 1.7-1 2.6l-.4 1.8c-.5-.7-1.3-1.2-1.5-2a47 47 0 01-1-7c0-1.8-.6-3-2.3-3-2.2-.3-2.6 1.1-2.9 3-.2 2.2-1 4.2-1.8 6.3-.1.3-1 .4-1.7.6-.1-.4-.5-1-.4-1.3l4-15.4c.3-.9 1-1.6 2-2.4zm-1 6.6h2c0-1.2-.2-2.3-.3-3.4l-.7.8a6 6 0 00-1 2.6zM188 620.4c.7-4.3 1-8.2 2.3-11.6.9-2.2 1.1-2.6-1.3-2.6-1.7 0-4.7.6-4.6-1.3 0-2.5 3-1.7 4.9-1.6 3.4.3 6.8-1.3 10.2 0l1.6.6c-.4.7-.7 1.4-1.2 2-.2.3-.9.3-1.3.4-1.6 0-3.5-.4-4.4 1.4-.8 1.7-2.4 3.7-2 5 1 3.1-.7 5.4-1.2 8-.2.9-1 1.7-1.6 2.6a16 16 0 01-1.4-3zM103.4 692.9a64.3 64.3 0 0116.8-2c.4 0 .9.6 1.4.9-.4.3-.8 1-1.2 1-1.5.5-3 1-4.6 1-5 .3-5.2.4-5.4 5.2-.1 3.7-.5 7.4-1 11.1 0 .7-1 1.3-1.4 2-.3-.6-.6-1.2-.7-1.8-.3-1-.9-2.1-.8-3.2.2-3.2.6-6.4 1-9.6.2-2 .3-2-1.5-1.6-3 .5-3.5 0-2.6-3zM154.8 675.8c-.2-3 .5-5.7-.9-8.2-.3-.5.8-1.9 1.3-2.8.5.7 1.4 1.4 1.5 2.2.5 2.6.8 5.4 1.1 8 .1.6.4 1.2.6 1.7l.4-1.8c.4-2.4.5-4.8 1-7 .4-1.4 1.3-2.6 2.1-3.7.3-.3 1.1-.3 1.7-.2 0 0 .3.8.2 1.2l-4 16.4c-.2.8-.7 1.5-1 2.2-1-.5-2.6-.8-2.9-1.5-.6-1.9-.8-4-1.1-6.5zM127.6 638.5c-.3 4.4-.5 8.3-1.1 12.1-.2 1.4-2 3.9-2.4 3.8-1.8-.5-1.8-2.5-1.5-4.1.5-2.8 1.3-5.5 2-8.3.3-1.6-.2-2.9-1.9-3.5-.8-.3-1.8-.5-2.6-1-.6-.4-1-1.1-1.4-1.7.7-.5 1.3-1.3 2-1.3h13c.3 0 .6.5 1 .8-.4.4-.8 1-1.2 1.1-2 .6-4 1-5.9 2.1zM109.5 532.7c-1.8-2.2-3.8-3.8-5.3-5.8-2.8-3.9-3.3-10 2.4-12 .8-.2 1.6-.4 2.4-.2.5.1 1 .8 1.3 1.4l-.8 1-1.3.5c-3.1 2.2-3.4 4.5-.9 7.4 1 1.2 2.4 2 3.2 3.3.9 1.4 1.7 3 2 4.6.3 3.1-.4 3.8-3.6 3.8-1.4 0-3 0-4.3-.4-.5-.1-.8-1.2-1.2-2h2c1.1 0 2.2.4 3.3.4.2 0 .5-1 .8-2zM61.1 667.7c-.3 1.4-1 2.2-1 3 .2 3.2-1.4 5.4-3.6 7-1 .8-3.1 1.4-4 .9-1.4-1-3.4-3-3.3-4.4.4-3.3 1.6-6.6 3-9.7.5-1.3 2.2-2.3 3.6-2.8 4-1.2 5.3.2 5.3 6zm-4 4.5c.7-2 1.4-4 2-6.2 0-.3-.6-1.2-1-1.3-1.6-.2-3.3-.3-4 1.8-.7 1.7-1.7 3.4-2 5.2-.2 1.6-.8 4 1.4 4.7.4.2 1.8-2.1 2.7-3.3l.9-.9zM65.4 561.2c-1.6.2-3 .4-4.3.1-1.3-.2-2-.7-2.1-2.5-.2-4.7.6-8.9 3-13 1.1-1.7 2.6-2.9 4.2-2.3 2.1.8 5 1 5 4.7.1 4.6-.4 8.7-3.9 12-.4.4-1 .5-1.9 1zm3.3-14.4c-1.4-1.5-2.7-1.3-4.2.1-2.6 2.7-2.9 6.3-3.3 9.6-.2 2.3 2.2 3.1 4.1 1.8 3.8-2.8 4.2-6.7 3.4-11.5zM132.4 575.3c1.3 4 2.4 7.7 3.4 11.5.4 1.7.6 3.4.8 5.1 0 .4-.3.8-.5 1.2-.3-.3-.8-.6-1-1-.6-1.3-1-2.6-1.4-4-.7-2.4-2.7-2-4.5-2-1.8 0-2.4 1-2.7 2.7-.3 1.8-1.2 3.5-2 5.2 0 .4-.3.7-.5 1-.4-.3-1-.6-1-1-.3-.7-.6-1.7-.4-2.3l6-14.6c.6-1.1 1.6-2 2.5-3l1.3 1.2zM129 581v3c.8-.1 1.7 0 2.4-.4 1.6-.7.3-1.6.2-2.6-.2-1 0-2-.1-3 0-.3-.4-.6-.6-1-.2.3-.6.5-.7.8-.3.9-.5 1.8-1.2 3.2zM131.6 677.8v7c0 .2-.9.6-1 .4-2.4-2-3.1-4.8-3-7.7.1-1.8.8-3.4 1-5.2.2-2.3.4-4.9-3.3-4.6-.2 0-.7-.7-.7-1 0-.4.5-1 .8-1l12.2-1c.6 0 1.3.9 2 1.3l-1.8 1.1c-.3.2-.5.5-.8.6-1.7.3-4-.9-5 1.2-.6 1.6-.3 3.6-.4 5.4v3.5zM114.5 605.5c3.8-1.7 8-.4 11.7-2.2.6-.3 1.8.3 2.6.8.5.2.6 1 .8 1.6 0 .1-.8.5-1.2.5-.8.1-1.7-.1-2.5.1-2 .5-3.7 1-3.4 4 .3 3.6.2 7.3 0 11 0 1-.8 2-1.3 3-.6-.9-1.3-1.6-1.7-2.5-.5-1-1-2.1-.8-3 .5-2.8 1.4-5.6 1.7-8.3 0-.7-1.6-2-2.5-2.1-1.8-.3-3.3-.5-3.4-2.9z"/>
  <path fill="#00EBAB" d="M48 664.7c-5.6-2.4-5.7-2.4-7 3.1-.4 1.9-1 3.8-1 5.7 0 4 2.3 5.5 6.3 4.3.9-.3 1.7-2.2 2.6-.3.2.3-1.1 1.6-1.9 2.3-2.1 1.7-4.7.8-7.1 1-.3 0-.8-.5-1-.9-.6-2.8-3-5.1-1.3-8.4 1-2 1.1-4.3 1.3-6.5.2-2.8 1.6-4.2 4.3-4.3 3-.2 5.6 1.2 6.7 3.6l-1.9.4zM53.8 529c1.2 1.7 2.7 2 4.2 1.7 1.4-.4 2.7-1.1 4.1-1.7-.9-1.1-1.7-2.3-2.7-3.3-.4-.4-1-.7-1.7-.8-2.7-.6-3.5-3-3.5-5 0-2.1 1.3-4.3 3.9-4.7 1-.2 2-.2 3 0 .7.1 1.3.7 2 1-.8.2-.7 1.9-2.3.9-.5-.3-3 1.4-3.5 2.7-.4.7 1 2.5 2 3.5.7.7 2 .9 3 1.4 2.2 1.3 2.6 4.5.8 6.6-1.8 1.9-4.3 2.8-6.5 2.2-1.8-.5-3-2.8-4.6-4.3-.3-.4-.3-1-.5-1.4.7.3 1.4.6 2.3 1.2zM169.6 589.9c1-4.4-1.7-7.4-3.2-10.8-.9-2-.1-4 2.5-5.5 1.5-1 3-1.2 4.4.3.3.5.4 1.2.5 1.7-.4-.2-.9-.5-1.4-.5-2.8 0-3.6 1.6-2.6 4.4 1 3.2 3.8 5.9 3.2 9.7-.4 2-2.8 4.7-4.7 5-1.5.2-5-2.4-5.4-4.2-.1-.5.2-1.2.4-1.8.5.2 1.4.2 1.6.6 1.2 1.7 2.9 1.3 4.7 1.1zM77.2 582c-2-2.6-1-5.2-.7-7.5.1-1 1.7-3 3.8-2.5l2.9.4c-1 .5-1.7 1.2-2.7 1.6-1.7.9-2.7 3-1.8 5 1 2.2 2.4 4.3 3.5 6.6.5 1 1 2 1 3 .1 1.1.1 3.1-.3 3.3-1.4.4-3.2.6-4.3 0-2.2-1.3-4-3.2-6-5-.3-.2-.3-.8-.4-1.3l1.4.4 4 1.1 1.5.7c0-.7.3-1.5.1-2-.5-1.1-1.3-2.1-2-3.7zM114.5 605c-.7.3-1.3.2-2 .3-5 .6-5 .6-5 5.3v10c0 1-.3 2-.7 2.8 0 .3-.9 2-1.4 0-.3-1.2-.8-2.3-1-3.6v-6.5c.1-2.7.8-5.7-3.7-5.3-.3 0-1-.8-1.1-1.4-.1-.1.5-.9 1-1 3.6-.8 7.3-1.7 11-2.3.9 0 2 1 2.9 1.7zM113.5 590.1c.5-3.8-1-7.4 1-10.6 0-.2-.5-1.3-.8-1.4-.8-.2-1.8.2-2.5 0-1.2-.5-3.3 1.3-3.6-1.2 0-.5 2.1-1.6 3.3-1.7 3.5-.3 7-.2 10.6-.1.3 0 .6.4 1 .6-.3.2-.5.6-.8.7-.7.3-1.5.6-2.2.6-2.5 0-3 1.4-3 3.5v9.5c0 1 0 2-.3 2.9-.3.6-1.3.9-2 1.3l-.7-2v-2zM43 521.7v8c.1.7 1 1.3 1.4 2 .5-.5 1.2-.8 1.4-1.3 1.4-4.1 4.3-7.7 4.3-12.3 0-.4.1-1 .3-1.3.3-.5.7-.8 1-1.1.3.4.6.7.6 1.1.6 6-2 10.8-5.1 15.4-.6.9-2.5 1.7-3.3 1.4-1.1-.6-2.4-2-2.5-3.3-.3-4.5-.2-9 0-13.5 0-.7.8-1.3 1.2-2 .2.6.6 1.2.7 1.8v5zM166.6 683c-.8-3.7-1.4-7.1 0-10.7.6-1.4.2-3.2.3-4.9 0-.9.1-2 .6-2.7.4-.8 1.3-1.3 2-1.9.2.8.4 1.6.4 2.4l-1 17.5c-.1 1.6-1 1.3-2.3.4zM196.8 573.3c.4 6.9-2.6 12.8-3.8 19.2 0 .3-.7.6-1 .6-.4 0-1-.6-1-.8l1.4-10c.4-2.3 1-4.7 1.8-6.9.3-1 1.6-1.6 2.6-2.1zM143.7 547.8l-1 8.3-1 8c0 .3-.3.6-.5.9-.5-.5-1.3-1-1.3-1.4a51.5 51.5 0 01.9-15.5c.1-1 .7-2 1.2-3 .5.7 1.1 1.5 1.7 2.7zM164.9 526.7v6c-.1.4-.9.7-1.3 1-.2-.3-.7-.6-.7-1a467 467 0 01-1-13c0-.7.2-1.6.7-2.2.3-.5 1-.6 1.6-.9.2.6.6 1 .6 1.6v8.5zM195 642.5c0-2-.1-3.5.2-5 .1-.8 1.1-1.4 1.8-2 .3.7 1 1.4 1 2.2.4 4.7-.1 9.3-2 13.7-.1.5-.7.8-1 1.2-.3-.5-1-1-.9-1.4l1-8.7zM93.4 545.8c1.1-2 2.8-2.3 2.8-.2.1 4.9-.5 9.8-.9 14.7 0 .2-.4.6-.5.5-.3-.1-.6-.4-.7-.7-.3-.9-.7-1.8-.7-2.7v-11.6zM45.7 244.9c2.4 0 1.8 4.3 5.4 2.9 2-.8 4.6 0 7-.3 1.5 0 3-.8 4.5-.8h49c1.5 0 2.9.5 4.3.7.6.1 1.3.3 1.9.2 12.5-2.2 25-.4 37.6-1h8.5c5.7.3 11.4.8 17.1 1 2.3 0 2.6 2.6 2.5 2.7-1.1 2 .5 3.9.2 5.8-.1 1.1 0 3 .8 3.4a8 8 0 004.9.9c5-1 9.8-1.4 14.8.2 1 .3 2.2-.2 3.3-.3l2.4.1c1.2 0 2.5.6 3.4.2 3.7-1.7 7.4-.9 11.1-1h114.2c2.3 0 4.7.3 6-2.2.2-.3.5-.6.8-.7 8.8-3.4 16.8-8.8 26.7-9.2 6-.3 11.9-2.4 17.8-2.7 3.2-.1 6.5-.7 9.7-.1 3 .5 6.1 1.5 9.2 1.9 9.3 1 17.9 4.2 26.6 7 3 1 5.4 2.4 6.7 5.5.9 2 1.6 4 3.4 5.7 1.7 1.5.5 4.4-2.3 5.8-3 1.5-6.2 2.8-9.3 4-1.7.8-3.6 1.1-5.1 2.1a41.6 41.6 0 01-25.4 6.8c-5.8-.3-11.8-.1-17.6-1-4.4-.7-8.8-.2-13-.9-7.3-1.2-14.9-1.3-21.5-5-2.6-1.4-5.2-3-7.6-4.7-1.6-1.2-3-2.6-3-5.3.1-1.6-1-3.1-3.7-3-11.4.2-22.7 0-34 0-4.7 0-5.3.6-5.1 4.9 0 3.8-.9 7.8 1 11.6-2 3.5.2 7 0 10.6-.3 8.4-.2 16.7 0 25 .1 7.4 0 15 1.1 22.2 1 6.4.5 12.7.8 19 .4 6 1.1 11.8 1 17.7-.3 11.4.6 22.7-.7 34.2-.6 5.2 0 10.8-.4 16.1-1.5 15.6-.5 31.1-.9 46.7v.5l-.5 2.9c.8-.8 1.8-1.5 2.5-2.4l6-7c.2-.2 1 0 1.3.2.3.1.5.8.4 1-.8 1.5-1.5 3.1-2.5 4.5-2.7 3.6-5.6 7-8 10.7-1 1.2-1.4 1.3-2.2.5a707 707 0 01-11.6-12.7c-1.3-1.4.5-2 1-2.8.8-1 1.6-1.7 2.9-.3 1.8 2 4 3.7 4.8 6.5.2.7 1 1.1 1.5 1.7.2-.8.5-1.6.4-2.3-.2-1.6-1-3-1-4.6v-27.5c0-1.8-.6-3.6 1-5.2.5-.7.4-2.4 0-3.4-2-4.3-1.1-8.8-.8-13.1.3-4.6-.1-9-1-13.4-.3-1.5.8-3.3.8-5 0-11.4.3-22.7 0-34-.2-4.8.6-9.6 0-14.2-.6-4 0-7.8 0-11.7 0-4.2-.5-8.4.2-12.5.6-3.6.2-7.2.7-10.8.5-3.2.4-6.6-.7-9.8-.2-.5-.1-1-.2-1.5-.3-7-.9-14-.9-21 0-3.8.1-7.6.8-11.4.4-2.6-.2-5.5-1-8-.7-2.4-3.2-2.9-5.6-2.8h-26c-4.2 0-8.4.6-12.7.7-1.6 0-3.3-.6-5-.7h-21c-3.3 0-6.7-.3-10 0-3.3.4-6.5-.5-9.7 0-2.4.3-5 1.5-7 .8-2.7-1-5.2-.6-7.7-.8h-1.5c-3.5 0-3.8.3-3.8 4v.5l-.4 12.4h-38.5c-4.4 0-8.6.2-12.7 2-.9.4-2 .2-3 0-25-1.8-50-.6-74.9-1h-6.6c-2.4 0-4-1.5-3-3.1 1.5-2.6.7-5.1.8-7.7.2-4.5.3-9 0-13.5-.4-3.7-1-7.4.3-11.4zm306.7 11.7c-2.7-.3-4.9.8-6.7 2.8l-.5 1c.3 0 .6.3.8.2 1-.2 2.3-.2 3.1-.8 1.4-.8 2.6-2 4.3-3.2l2.4-1.4c-.2-.2-.4-.6-.5-.5l-2 1.1c-.2.2-.3.6-.9.8zm-288.4-5H51c-3.2.1-3.7.7-3.5 4 0 1.6.2 3.3 0 5-.1 2 .8 3.8.9 5.7.2 2.6.2 5.3 0 8-.1 2 .5 2.4 2.4 2.4h37c.7 0 1.4.2 2 0 4.2-1.4 8.4-2 12.7-2 3 0 5.8.6 8.6 1 3.4.4 6.7 0 10.2.6 2.9.6 6.4.5 9.6.4 5.9-.3 11.7.5 17.6-.9 2.5-.6 5.4.8 8 .8 7.4.2 14.8 0 22.1.1 1.3 0 2.1 0 2-1.8v-22.5c0-1.8-.8-2.8-2.5-2.7-7.3.1-14.5-.7-21.6 1-1.9.3-3.8 1-5.6.9-12.2-.1-24.4-.1-36.7-.7-16.3-.9-32.8-.6-50.2.7zm309.5 1c-5.8-.4-11.3-.1-16 4-.5.5-1.3.7-2 1-4.5 2.3-5.2 6.2-1.5 9.5 2.3 2.2 5 4 7.7 5.5a50.5 50.5 0 0023 4.9c10.5.2 21 .8 31.6-.6a37.3 37.3 0 0023.6-10.7c.6-.7 2.1-2.7-.6-3.6a27 27 0 01-7.1-3.4c-8-5.9-17.2-7.7-27-7.6-9.1.2-18.3 0-27.5 0a12 12 0 00-4.2 1zm-74.7 149.8c.4-1.7 1.3-3.6 1-5-1.3-4.7.2-9.2 0-13.7 0-.8.2-1.8-.1-2.4-1.7-2.7-.6-5.4-.7-8.1l-.2-7.7c0-.2-.4-.4-.6-.6 0 0-.3.2-.3.4-.4 2-1.6 4.5-.9 6 1.1 2 .8 3.8.8 5.6v26.4c0 1.8.5 3.6.7 5.4l.3-6.3zM345 265.2c-1.1 2.5-.7 4.6 1.5 5.4 2.8 1 5.7 1.4 8.6 2 .5.2 1.2-.2 1.8-.3-.4-.5-.7-1.2-1.1-1.3-3-1.2-5.1-3.5-6.7-6-1.3-2.1-2.3-1.7-4 .2zm39.6-15.6h11.4c1.3 0 2.6-.4 4-.6-1.3-.4-2.6-1-4-1.3-.7-.2-1.6 0-2.4 0-3.9 0-7.8-.4-11.6.9-1.5.5-3.2.5-4.8.7l4.9.3h2.5zm-23 26l-8.7-1.9c-.5-.1-1.2.2-1.8.4.4.5.8 1.2 1.2 1.3 6.2 1.4 12.1 4 18.6 3.3.4 0 .7-.4 1-.6-.2-.1-.5-.4-.8-.4-3 .4-5.7-1.4-9.6-2zm43 6c3.4-.2 6.7-.6 10.1-1l1.3-.3c-.5-.2-1-.6-1.6-.6h-6.5c-2 0-4 .4-6.1 0-.9-.1-1.8.4-2.6.6.8.4 1.5 1 2.4 1.3.6.3 1.3 0 3 0zm33.6-24.5c-1.9-.8-3.6-1.7-5.5-2.4-.3-.2-.9.1-1.3.2.3.5.5 1.1 1 1.4l6.4 3.5 2 .7-1.1-1.8-1.5-1.6zm-326 21.6H125c.5 0 1-.5 1.4-.7l-1.3-.3h-16.5l-1 .6 1.4.4h3zm329-11.5l-1.4 1.4-.6.7c.3 0 .7.4.8.3 1.2-.6 3-.9 1.2-2.4zm-97.7-2.5v-2h-1c0 .6 0 1.3 1 2zm99.7 1.5l.2 1.2.6-.1c0-.6-.2-1.1-.8-1.1zM655.4 262.7c-4.9.3-9.3.3-13.6.6-4 .3-8.4 0-12.5.2-4.4 0-9.2-1.2-13.5 1-1 .6-2.3.2-3.5.2h-18.5c-1.7 0-3.4.3-5.2-.9-1-.7-3.6-1-3.4 2.3.1 2.8-.7 5.7-.9 8.6 0 1.5-.5 2.6-1.9 3-2.5.4-5 1-7.6 1h-47.5c-4.6 0-9.2-.7-13.7.9-1.6.6-3.8.5-5.4 0-2-.7-3.5.4-5.2.1-1.8-.2-4 .5-5.5-.1-2.9-1.2-6-1.5-8.6-.8-5.2 1.4-10.4.5-15.6.9h-2c-1.4 0-2.7-.2-4-.3.3-1 .8-2 .7-3-.1-2.7-.2-5.5-1-8-1.6-5-.5-10.1-1-15.2 0-1.7.4-3.3-.8-5.1-1-1.7 2-5 5-5.4 1-.2 2 0 3 0 7.3 0 14.7-.5 22 0 14.4 1.2 29 0 43.3 1.2 12.6 1 25.1.2 37.6.7 1.4 0 2.9-.3 4.3-.6 2-.4 3.8.8 3.9 3l.6 9.7c.1 2.4 1.2 3 3.6 3 9.2-.2 18.4-.4 27.5.1 3.7.3 7.4-1.3 10.7 0 4 1.5 7.8.6 11.6.8 3.9.2 7.8.6 11.5 0 10.6-1.8 21.2-1.5 31.7-.7 16.7 1.2 33.4.2 50.1.8 4 .1 7.8.8 11.6.9 2.2 0 4.4-.5 5.4-3.1 1.1-3.2 4.1-4.4 6.8-5.8 2.8-1.6 5.8-3 8.8-4.1 3-1.2 6.1-2.4 9.3-2.9 10-1.4 20-3.6 30.3-3.2 8.7.4 17.1 1.7 25.3 4.3 5.3 1.6 11 2.1 15.7 5.5 1.6 1.2 3 2.7 4.2 4.2 1.2 1.6 2.1 3.5 3.2 5.2 1.7 2.6 1.4 4.5-1.4 6-7.5 3.7-14.8 7.8-22.6 10.6a33.2 33.2 0 01-13.5 2.5c-8.7-.6-17.5-.3-26.1-1.3-4.8-.6-9.5-.2-14.2-.9-8.6-1.4-17.4-3-24-9.6-1.2-1.2-1.9-3.5-3.3-4-2-.7-4.5-.3-6.8-.3-8.7-.4-17.5-.1-26.1-1.3-5-.6-9.8-.5-14.7-.7-1.5 0-3 .6-4.6 1-1.4.2-2.3-1.6-4.3-.3-1.4 1-4.2-.6-6.4-.7-3.4 0-3.7.3-3.8 3.6 0 10.5-.6 21.1.3 31.5.5 7-.1 13.9.9 20.7 1.5 9.5.3 19 .8 28.6.2 3 .6 5.9.6 8.8 0 2.6-.5 5.3-.5 7.9v9l-.1 8.5c-.1 2 1 4.3-.9 6.2-.3.3.3 1.5.3 2.3.1 2.6.2 5.3.1 8 0 1-.7 2-.4 2.8 1.5 4.8-.3 9.5-.1 14.2.2 5 .1 10 0 15 0 1.9.2 3.7-.7 5.7-.8 1.7.7 4.3.7 6.5v30c0 1.4.6 2.7.9 4 .7-1 1.3-2.3 2.2-3.2 2-2.6 3.2-6 6.8-7.1.4-.2 1.1-.2 1.3 0 .3.3.4 1.1.2 1.4-3 4.5-6 9-9.3 13.2-1.8 2.4-3.4 2.5-5.7.5-3.5-3.1-6.7-6.6-10-10-.2-.3 0-1.6.3-1.9.6-.4 1.8-.6 2.3-.3 1.7 1 3 2.4 4.7 3.3 2.3 1.3 3.3.7 3.3-2l-.1-25.6c0-2.1.3-4.2 0-6.3-.6-5.7.3-11.5.2-17.2-.2-6 0-12 0-18v-22.6c0-1.8 1.4-4.1.7-5.4-1.1-2.2.1-3.6.1-5.3 0-2.7.8-5.5-.7-8.2-.8-1.4-.5-3.7-.1-5.4a37.2 37.2 0 000-18.2c-.2-.9.2-2 .4-2.9.2-1.4.8-3 .4-4.2-1.7-5.7-.4-11.4-.9-17.1-.7-9.6-1-19.2-1-28.8-.2-5.1-1.3-10.2-2-15.2a7 7 0 01.2-2.5c.8-3.4.3-2.2-2.8-3.6-4.2-1.9-8 2-12-.6-1.1-.8-3.2-.1-5.4-.1zm106.7-10l-4 2c-3.5.5-6.6 1.6-8.2 5.1-.2.5 0 1.2 0 1.7.5 0 1 .2 1.3 0 2.5-2.3 5-4.6 7.9-6.9 1.6.2 3 0 4-2v-.9c-.2.3-.3.6-1 1zm-293 5.5c.3 1 1 2 1 3v13c-.1 2 .3 2.7 2.4 2.5l21-1h1c1.5-1.5 2.6-.8 4.3-.2 1.8.7 4.2 0 6.3-.3.6 0 1.4-.7 1.7-.5 2.4 2.1 5 0 7.5.5 2.9.5 5.8.5 8.8.5h56.5c1.3.1 1.7-.3 1.7-1.7v-25.5c0-1.5-.4-2.1-2-1.9-2.1.4-4.3 1-6.5 1-3.5-.1-7 .6-10.7-.8-1.8-.8-4.3-.3-6.4 0-2 .2-4.1-.2-6.2-.2h-62c-1.6 0-3.1-.7-4.7-.7-4.4-.2-8.9-.1-13.4-.1 0 3.3-.2 6.6-.3 9.8v2.6zm305-8.6c-4.7 1-8.3 4.1-12.4 6.4-3.7 2-4.3 4.6-1.4 7.9a33 33 0 0012.3 7.7c5.3 2.3 11 2.5 16.7 3 1.8.2 4-.5 5.5.2 3.3 1.7 6.8.8 10.1.8 3.2 0 6.5.5 9.7 0 4-.5 8-1.8 12.2-1.8 8 0 13.8-4.8 19.6-9.4 2.3-1.9 2-3.3-.8-4.7l-16.6-8.2c-.7-.4-1.4-.7-2.2-.8l-10.5-1c-3.7-.4-7.4-1-11.1-1-10 .2-20 .6-31.1 1zm-17 15h-4.5c-.6 0-1.3.3-1.9.4.5.6.9 1.3 1.4 1.7 3.4 2.5 7.6 2.4 11.3 4l1-.3c-.3-.3-.4-.8-.7-1l-6.6-4.7zm11 8c-1 0-2.5.5-3 0-1.6-1.6-3.4-.7-5.1-.9-.4 0-.9.2-1.3.4l1.5.7c4.6 1.3 9.2 2.7 13.9 3.8 1.3.3 2.9-.1 4.3-.3-1.3-.5-2.6-1.2-4-1.6-1.9-.6-3.9-1-6.3-2zm50 6c1.2 0 2.4.2 3.5 0 .7-.1 1.3-.8 2-1.3-.7-.2-1.4-.6-2-.6l-11 1h-4c-.3 0-.6.2-.8.4.3.2.6.6 1 .6H818zm-21.5-31.5l8.3-.5c.6 0 1.1-.3 1.7-.5-.6-.2-1.2-.4-1.8-.4h-9c-1.7 0-3.4.3-5.1.5l4 1c.5.2 1 .3 2 0zm51 10c-2-3-5.4-4-8.6-5.4-.3-.2-.8.2-1.2.4l.5.7c3 1.6 6 3.2 9.4 4.3zm-244.8 5.6l4.4-.4-4.4-.6h-1l-7.3.3 8.3.7zm183.3-17l-2.4 1.3 2.9.6c.5.1 1.1.2 1.4 0 .6-.4 1-1.1 1.4-1.7l-3.3-.3zm61.6 21.5l2-2.1v-1c-.1-.1-.6-.3-.7-.2l-3.1 3.4c.4.1.9.3 1.8-.1zm-91.1-6l-.3-1.3-1.5 1.5c.4 0 .8.2 1.8-.2zm-78.2 5l.6.4c0-.3 0-.6-.6-.4zm172.8-1.5l.4-.6c-.3 0-.6 0-.4.6zM397.2 586a7.3 7.3 0 01-.4-5c.9-4.3 1-8.7 1.2-13.1.2-3.4.4-3.7 3.6-3.8h8c.5 0 1 .3 1.3.5l-1.1.5-6 1c-2.3.3-4 4-2.6 5.6.3.4 1.2.5 1.8.4l9-1c.4-.1.8-1.1 1-1.8.3-1.4.3-2.9.7-4.2 0-.5 1-.7 1.5-1 .3.5.7 1 .8 1.5l1 14.1c.1.5.6 1 .9 1.5.4-.4 1-.8 1.1-1.2l3-8.3c.3-.5 1-1 1.4-1.4 2.2-2.1 5-1.4 5.6 1.6l1 5c.1.5.4.8.6 1.2.4-.4 1-.7 1-1.1.3-1.1.5-2.3.4-3.4-.2-2.8 1.2-5.1 2-7.6.2-.4.7-.6 1-.9.4.5 1 .9 1 1.3-.1 2.2.2 4.4-.8 6.6-1.5 3.3-2 6.9-3.2 10.2-.3.8-1.3 1.8-2 1.8-.6 0-1.4-1-2-1.7-1.7-2.7-.7-5.7-1-8.6 0-.9-.4-1.7-.7-2.6-.7.7-1.8 1.3-2.2 2.2-.9 1.6-1.4 3.4-2 5.1-.8 1.9-1.4 3.8-2.5 5.5-.4.8-1 2.5-2.7 1.6-1.4-.7-3-1-3-3.2.2-2.8 0-5.7.2-8.5 0-2-1.2-1.9-2.2-1.6-2.4.5-4.8 1.4-7.2 2-3.6.8-4.7 2-4.7 5.2 0 1.6 1.2 2.4 2.5 1.7 2.4-1.2 4.6-2.6 7-3.9.3-.1.8.2 1.3.2-.2.4-.5.7-.6 1.1-2.6 5.3-7.2 7-13 6.4zM623.3 548.1c.4-6.2 2.3-11.2 6-15.5 1.2-1.3 2.2-1.8 4.2-1 3.4 1.1 6.8-.5 10.1-1.3 3.5-.8 4.5 0 3.8 3.9l-1.1 4.5-.9 4.2c0 .3.7.8 1 1.2.4-.5.8-.9 1-1.4A46.7 46.7 0 01654 528c.5-.7 1.8-1.8 2-1.6 1 .6 2 1.5 2.3 2.5a8 8 0 010 4.4c-1.5 4.2-.7 8.5-1 12.7 0 .7-.3 1.4-.6 2.1-.8-.7-2.1-1.3-2.2-2-.3-2.5-.3-5 0-7.5.3-2.3 1.1-4.6 1.7-6.8l-.3-.7h-1c-.5 1-1.1 2.2-1.5 3.4a60 60 0 01-6.8 14.2c-1 1.7-2.1 1.6-3 1.3-.9-.4-2.2-1.7-2.1-2.5.2-4.6.4-9.3 3.2-13.2 1-1.3.3-1.2-.6-1.2h-6c-2.3.1-3.1 1.4-2.6 3.6 1 4-.6 10.3-3.2 13-3.6 3.6-6 3.3-9-1.6zm10-10.5V536c.4-2.3-.6-2-1.8-1-.5.4-.8 1.1-1.3 1.6-2.7 2.8-2.3 6.7-3.8 10-.2.4.5 1.5 1 1.9.5.3 1.6.2 2-.2 1.7-1.5 3.6-2.8 3-5.7-.2-1.3.6-2.7 1-5.1zM621.3 576.1c-.6 4-1.3 7.3-2 10.7l.1 1 1.1-.3 1.4-.4c2.8-1.1 6.3-1.7 8.3-3.7 1.9-1.8 2.1-5.3 3.2-8 .5-1.3 1.1-2.6 2-3.7.6-.7 2-1.4 2.7-1.2 1.2.4 2.7 1.4 3.2 2.5 1.5 3.9-1.1 12.2-4.3 15.1-1.6 1.5-3.4 1.8-4.8.3-2-2.1-4-1.2-6-.2-2.3 1-4.5 2.4-6.8 2.9-3.2.6-3.4.1-2.6-3 .2-.5.2-1 .3-1.6-.8-.1-1.7-.5-2.3-.2-1.8.9-3.5 2-5.2 3.1-.8.5-1.6 1.2-2.4 1.3-1 .2-2.3.2-3-.3-.6-.4-1-1.8-.8-2.6 1.1-4.3 2.5-8.6 3.7-13 .5-1.7.8-3.6 1.2-5.4l.5-1.2c.2.4.5.8.5 1.3.6 5.5-1.1 10.7-2.6 15.9-.3.8 0 1.8 0 2.7.8-.4 1.8-.7 2.4-1.3 1.7-1.5 3.5-2.5 5.9-2.8 1.2-.2 2.8-1.7 3.2-3 .8-2.6.8-5.3 1.1-8 0-.5-.2-1.2 0-1.5.8-1.2 1.8-2.2 2.6-3.3.2 1.1.5 2.3.4 3.4-.1 1.3-.6 2.7-1 4.5zm12.6 9c1 1.9 1.4 2.1 2 1 2.1-3.6 2.9-7.4 2.4-11.4 0-.6-.4-1-.7-1.6l-1.2 1.5c-2.4 3-2 6.6-2.5 10.6zM279.8 574.1c1.4-.6 2.3-1.3 3.2-2l2.8-2c-1.1-.3-2.2-.9-3.3-1h-7c-.6 0-1.1-.7-1.7-1.1.5-.3 1-.8 1.4-.8 3.5-.1 7-.2 10.5 0 1 0 2.9 1 2.8 1.3 0 1.2-.5 2.8-1.4 3.6-1.6 1.4-3.6 2.4-5.4 3.7-1.5 1-3 2-4.2 3.2-1 1.1-1.7 2.5-2.5 3.8 1.6.1 3.2.5 4.8.3 3.8-.5 7.5-1.4 11.2-1.9 2.1-.2 2.8-1.2 2.9-3.1.2-4.3.6-8.5 1-12.8 0-.4.3-.8.5-1.2.5.3 1.3.6 1.4 1 .5 1.8 1.4 2 3 1 .4-.2 1.3-.1 1.9 0 1.7.6 4-1.3 5.1 1.2l-5 .9c-1.1.2-2.3.8-3.5.9-2.5 0-1.3 1.9-1.4 2.9 0 .3 1.4 1.1 2 1 2.6 0 5.1-.6 7.7-.8.4 0 .8.6 1.2 1-.4.3-.8.8-1.3 1-2.3.3-4.7.4-7 1-1 .3-2.2 1.3-2.6 2.2-.6 1.7-.6 3.7-.8 5.5.7-.2 1.4-.3 2-.6 2.8-1.2 5.4-2.8 8.6-2.1.4 0 1 .3 1 .6.2.4 0 1.2-.3 1.3-4 1-6.9 4.7-11.4 4-.6 0-1.4.1-1.9-.2-3.4-2.1-4-2-8.6-1-3 .7-6.3.8-9.4 1.3-2.1.3-3.6-1.1-4-2.4-.3-1.3.4-3.4 1.4-4.6 1.6-2 3.8-3.4 6.3-5zM636.4 499c0 2.8-1 4.5-2.5 6-.6.5-1.4.9-2 1-1.2.2-3.1-1.6-3.4.5-.3 2.1-1 4.6 1.2 6.5 1.5 1.3 2.9 1.2 4.5.7l1.7-.7 4-1.8c-1.1 1.3-2.2 2.7-3.6 3.8-2 1.8-4.7 1.3-7 1-1.6-.3-3.3-1.8-3-4 .5-2.8-1.1-5.9 1-8.6 0 0-.9-1.3-1.3-1.3-2.6.2-5.1.4-7.6 1-.8.3-1.8 1.7-2 2.8-.3 1.7.1 3.6-.2 5.4 0 .7-1.3 1.2-2 1.7-.3-.6-.8-1.2-.8-1.9l.2-4.9.4-2c-.6.1-1.2.4-1.7.4l-2-.2 1.5-1.4 1.6-1 .7-.7-.9-.3c-3.2.8-6.5 1.2-9.5 2.4a3.6 3.6 0 00-2.4 3.9c.2 1.4.2 3 0 4.5-.2.8-1 1.4-1.6 2.2-.3-1-1-1.9-1-2.8 0-1.6.4-3.1.6-4.7.3-1.8-.2-2.9-2.3-2.5-.5 0-1-.3-1.6-.5.3-.4.6-1 1-1 3-1.1 4-3.5 4-6.4 0-.7.3-1.5.6-2.2 0-.3.4-.5.7-.7.2.3.6.6.6 1 0 1.4.2 3 0 4.4-.4 2.5 1.3 3 2.8 2.3 3.7-1.6 9-.4 10.6-5.7 0 0 1.2 0 1.6.4.2.2 0 1 0 1.5.1 1.2 0 3.4.5 3.6 1.4.6 3.2.4 4.9.3 1.5-.1 3-1 4.5-.9 1.8 0 3.2-.3 4.3-1.7 1.7-2.2 3.3-1.8 4.9.6zm-5 1.5c-1 .8-1.6 1.5-.4 2.8 1.3 1.3 1.6 0 2-.6.7-.6.9-1.6 1.5-2.3 1.2-1.2.8-1.5-.6-1.3-.7 0-1.4.6-2.5 1.4zM574 580.4l-.6-.6-3-1 3.1-1.7c1.4-.7 1-4.8-.5-6-2.2-1.6-2.2-1.7.3-3 1.4-.7 2.7-1.8 4.3-.2.4.4 1.8.4 2.3 0 2.7-2.2 5.2.3 7.7.3.3 0 .7.7.6 1 0 .4-.5.9-.8.9-2.5 0-5 .3-7.5 0-3.5-.4-2.4 2-2.7 3.7-.4 2.8 1.4 2.5 3 2.3 3.2-.3 6.4-.5 9.6-1 .9-.1 1.7-.8 2.4-1.4.4-.4.5-1.1.7-1.7.7-1.7 1.4-3 3.8-3 2.5.1 3.1 2.4 3.3 3.5a21 21 0 01-4.1 16.6c-1.5 1.9-2.6 1-3.5-.3-1.6-2.7-1.3-5.7-1-8.6.2-2.7-.8-3.5-3.3-3-3.2.6-6.5 1.2-9.6 2-.6.2-1 1.3-1.2 2l-1 8.1c-.2.7-1 1.2-1.6 1.8l-.7-1.7c-.3-.9-1-2.2-.7-2.6 1.8-2 .6-4.1.7-6.4zm23.3.3c-.8-2.6 2.6-5 0-7.7-.3-.3-.3-1.2-.4-1.8-.5.6-1.4 1-1.5 1.7-.8 3-1.6 6-2 9-.2 1.7-.8 3.7 1.1 5l1.8-4.2c.2-.4.7-.7 1-2zM366 612.2v-12.5c0-1 .6-2 1-3 .2-.3 1-.6 1.3-.5.3.1.6.7.6 1.1 0 6.9.1 13.7 0 20.5 0 .8-1.2 2.1-2 2.3-1.6.4-3.3.3-4-1.8-1-2.7-2.1-5.4-3-8.2-.5-2-.6-4-1-6.1 0-.3-.6-.8-1-.8-.3 0-1 .5-1 .8 0 1.5.2 3 0 4.5-.5 3.4-1.3 6.8-2 10.2 0 .5-.4.9-.6 1.4-.4-.4-1-.7-1-1.1-.6-1.3-.8-2.7-1.4-4-1-2.1 2-3.8.3-6.3-1-1.5-.2-4.2-.3-6.4-.1-2.3 1-3.1 3.2-3.2 4.4 0 5.8 1 6.8 5.8l2 8.6c.1.5 0 1 .3 1.4.3.5 1 .8 1.4 1.2l.3-1.9v-2zM379.2 617.5c-.2.9 0 1.6-.3 2.2-.7 1.5-2 1.5-2.7.2-.5-.8-1.2-1.7-1.2-2.5.4-5.9-1-11.8.9-17.6.3-1 .4-1.6 1.7-1.7 1.6 0 1.4 1 1.3 2l-.9 9.6c0 .5.5 1 .7 1.5.4-.5 1-1 1.2-1.6.7-1.5 1-3.2 2-4.7.6-1.2 2-2.4 3.5-1.6.9.6 1.3 2.2 1.5 3.3.5 2.9.7 5.7 1 8.6l.4.9c.2-.4.6-.6.7-1l1-3.5 2-11.7c0-.3.7-.6 1-.7.3 0 .8.3.8.4-.4 1.3 2.2 2 .6 3.8-1 1.2-.7 3.3-1.1 5l-2.3 9.5c-.2 1 .6 2.4-1.5 2.4-1.7 0-3.1-.3-3.5-2-.5-2.4-.7-5-1-7.5v-3.5c0-.4-.5-.7-.7-1.1-.5.3-1.2.6-1.3 1-.9 3.4-1.5 7-3.8 10.3zM782.8 536c.1-3.3.4-6.6.8-10 0-.3.6-.6.8-1 .4.4 1 .8 1.1 1.2.3 1.6.4 3.2.5 4.8l2.5-4.3c1.2-2 4.7-2.3 6.8-.5 3.8 3.4 5.3 9.7 3 14.6-1.3 2.8-3 5.6-5 7.9-1.4 1.6-4 2-6.3 1.3-2.4-1-4.4-2.7-4.4-5.5 0-2 .7-4 1-6.1 0-.8-.3-1.6-.8-2.3zm5.8-5.4c-2.7 4.3-1.9 9.4-3 14.1-.1.7.3 1.6.4 2.3 1-.1 2-.1 2.7-.6a15 15 0 006-16.5c-1-2.6-3.2-3-5.4-1-.2.2-.5.4-.7 1.7zM689.4 579.2c-.7-3-1.2-5.4-2.1-7.6-.4-1-1.6-2.3-2.4-2.3-.8 0-2 1.3-2.4 2.2a67.6 67.6 0 00-3 14.8c0 1.5-.7 2.8-2 2.7-.8 0-2-1.7-2-2.7 0-2.1.4-4.4 1-6.5.8-3.1 2.3-6.1 2.8-9.3.5-2.8 2.8-3.5 4.4-5 .3-.3 1.3-.2 1.7.1 3.2 3 6.2 6 6 11 0 .6-.2 1.5.1 1.9.5.7 1.5 1.1 2.2 1.7.3-.7.8-1.5.7-2-.6-4 1.2-7.6 2.1-11.2.2-.6 1.2-1 1.8-1.5.3.8 1 1.7.8 2.4l-2.6 12.9-1 4.5c-.5 1.4-1.7 2.3-3 1.8-1-.4-1.7-1.5-2-2.4-.5-1.6-.7-3.4-1-5.5zM286.8 497c.3.8.6 1 .7 1.2.1 1 2 5.2 2.9 5.9 1.7 1.5 2.1 3.1.8 5a17 17 0 01-15.6 7.9c-1 0-2.6-1.2-2.7-2a20 20 0 010-7.4c.8-3.3 1.8-6.4 1-9.8-.5-1.7 1.5-3.5 4-3.7 3.2-.3 6.5-.5 9 3zm-1.5 8c-3.7-.3-5.5 3.3-8.7 4.2-.8.3-1 2.7-1.5 4-.9 2 .5 2.2 1.6 1.8 3.4-1.2 7.1-2 10-4.4 1.2-1 2.1-2.5 3.1-3.7-1.1-.6-2.3-1.2-4.5-1.9zm-8 0l2.6-2c1.3-.8 2.8-1.5 3.9-2.5 1.4-1.4 1-3.2-.9-3.4-2-.2-4-.2-5.8.3-.5.2-.2 2.7-.3 4.2 0 1 0 2 .5 3.4zM349.7 541.8c-1.1 2.1-1.7 4.1-2.8 5.7-1.2 1.7-3.6 3.5-5.3 2.4-2.7-1.6-4-.4-5.3 1.3-2.4 3.2-5.7 1.8-8.7 1.8-1.8 0-4.4-4.9-4.8-7.3-.5-3.8.6-7 4-8.8 1.5-.8 4-.9 5.8-.3 1 .4 2.2 3.1 1.8 4.2-.5 1.4.2 4-2.4 4.2-1.7.1-3.3 2-5.2.1-.2-.2-1.1.2-1.8.3.2.6.1 1.3.5 1.7 1 1.2 1.9 2.6 3.1 3.1 1.5.6 3.9 1.2 5 .5 1.2-1 3.5-1.7 2.8-4.8-.9-4 1.5-8 4.4-9.1 4.6-1.7 9.7-1.2 8.9 5zm-5.3-3.7l-2.6 1c-2.6 1.1-3.4 3.5-1.8 7 .4.7 2.6 1.2 3.7.9 1-.4 2-1.8 2.6-2.9 1.3-2.4.8-4.6-1.9-6zm-17 5c.8 0 1.7.2 2.4 0 1.8-.5 3-3.9 1.8-4.6-.9-.5-2.7-.5-3.5 0-1 1-3.8 1.9-.7 4.6zM717.5 574.1c5.6.3 6.2 1.7 5.1 6.6-.8 3.8-2.9 6.8-4.1 10.3-.2.5-.8.8-1.2 1.2l-.8-1.5c-.7-1.9-.2-3.7.4-5.5.2-.6 0-1.3.1-2l-1.7.6c-1.1.5-.3 2.8-2.5 2.4-2.3-.5-5-.3-7-1.3-3.6-2-4.3-5.4-2.3-9.6 1.7-3.7 3.5-7.4 7.6-9.2.7-.4 1.6-.5 2.4-.4.4.1.7 1 1 1.5l-1.9 1c-2.8 1.1-7.2 8-7.2 11.1 0 1.5.6 2.8 2.1 2.8a24 24 0 007-1c1.8-.6 3-2.6 5.3-2 .1 0 .7-.7.6-1 0-.3-.5-.9-.8-1h-8c-.4 0-.7-.7-1.1-1 .3-.4.6-.8 1-1l6-1zM285 533.3c1.5.8 2.4 1.8 1.6 3.6-.3.6 0 1.4 0 2.2 1-.4 2.4-.6 2.9-1.3.7-1.3.9-3 1.3-4.4.2-.5.7-.9 1-1.3.4.4 1 .8 1 1.3v3c.1.6.4 1.6.6 1.6 4.7.3 1.2 1.2.2 2.1-.8.9-1.4 2-1.7 3.1-.5 1.5.3 2.1 1.8 1.9l6.6-1c.5 0 1 .2 1.4.3-.4.5-.7 1.2-1.1 1.4-2.4.9-4.7 1.5-7 2.3-1 .3-2.4.7-2.5 1.3-1.2 6.8-2.6 2.2-4.3.2-1.2-1.3-2.5-.6-3 1.1-.5 1.5-1.3 3-2 4.4-2-1.5-1-3.3-.5-5l.3-1.7-1.7.1c-1.7 0-3.9 2.6-4.7.3-.7-2.2 2.8-1 3.9-2.4.2-.3 1 0 1.3-.3.9-.6 1.6-1.3 2.4-2l-2.8-1c-1-.3-2-.4-3.1-.6 1-.4 1.9-1.2 2.9-1.4 4.6-.6 3.7-4.8 5.3-7.8zm.3 9.8v3c1-.2 1.9-.4 2.7-.8.6-.2 1-.8 1.4-1.3.8-1.1.6-1.9-.8-1.9-1 0-1.9.3-3.3 1zM698.5 602.2v2.5l.3 1.3c.4-.2.9-.4 1-.7 1.4-3.1 3.8-5 7-6.2 3-1.2 5.5 0 5.7 3.4.1 2.6 0 5.4-2.8 6.6-2.5 1-1.2 2-.1 2.6 2.4 1.3 5 2.3 7.5 3.5 1.2.6 2.5 1.1 3.7 1.9.4.2.5 1 .7 1.6-.6.2-1.3.7-1.8.5-5.7-2.4-12-3.6-16.4-8.6-.5-.7-1-1.3-1.8-1.8-.4-.3-1-.4-1.6-.4-.2 0-.4.8-.4 1.2-.4 2.2-.6 4.5-1.1 6.6-.2.8-1.2 1.3-1.8 2-.7-.7-1.8-1.4-2-2.3-.4-1.2-.7-3 0-3.8 1.4-2.2.5-4.5.9-6.7.3-1.7.7-3.3 1.3-5 .1-.3 1-.5 1.7-.7v2.5zm3.5 3c-.2.4-.6 1.1-.5 1.2.9 1 6 1.5 6.6.6 1-1.4 1.7-3 2.3-4.5.1-.3-.5-1.1-1-1.3-3.3-1-5 1.5-7.4 4zM782.3 536c-1 1-2.2 2.4-3.7 3-3.8 1.6-3.8 1.4-4 5.4-.1 1.2-.7 2.4-1 3.6-.1.4-.4.6-.7 1-.3-.4-.9-.7-1-1l-.3-4c0-1.8.1-3.6-2.5-4-2-.1-4 1.3-4.6 3.5-.5 1.9-1.2 3.8-2 5.6-.3.7-1.1 1.2-1.7 1.7-.4-.8-1.3-1.7-1.2-2.5.3-2.1 1-4.2 1.6-6.3 1-4.2 2.2-8.4 3.4-12.6.2-.7.5-1.4 1-2 .4-.6 1-.9 1.5-1.3l.2 1.7c0 .3-.6.5-.6.7 0 .8 0 1.6.2 2.4.5-.5 1.3-.8 1.6-1.4.6-1 .7-2 1.2-3 .3-.6 1-1 1.4-1.4.5.6 1.3 1.2 1.4 1.9.5 2.7.9 5.4 1 8 .2 2.2.5 3.2 3 2.2 1.7-.8 3.7-.8 5.8-1.1zm-11.2 0c.7-2 1.2-4-.7-5.6l-2 4.4-.4.4.2 2.9 2.9-2zM673.4 604.2v-3c.5-1.8 1.4-2.5 2.8-.7 1.1 1.5 2.5 2 4.3 1.7 3.1-.5 6.3.3 9.3-1 .5-.2 1.3-.2 2 0 .6.2 1 .7 1.7 1-.5.4-1 1-1.4 1l-14.1 1c-.9 0-2.4.3-2.5.7-.2 1.3 0 2.6 0 4l1.1-.4 12.6-2.3.9.1c-.1.4-.2.8-.4 1-1.8 2.7-4.9 2-7.3 2.8-1 .4-2.3 0-3.5.1-3.2.4-6 3.8-5.4 7 .2 1.7 1 1 2 .5 2.7-1.6 5.2-3.3 8.5-3.8 1.1-.1 1.7-.2 2 .6.2.3-.5 1.3-1 1.6L680 619c-1.6 1-3.1 2-4.8 2.8-2.2 1.2-4.8.3-4.8-1.9-.2-5.2-.3-10.6 3-15.7zM501.9 578.9c-.8 2.2-1.2 4.2-2.1 6-.4.7-1.9.8-2.9 1.3-.2-.9-.8-1.8-.7-2.5l2.4-10.5 1.6-6.8c0-.4.3-.8.5-1.2l.4 1.3c.6 1.5-1 3.5 1.1 4.6.5-1.3.9-2.8 1.6-4 .7-1.2 1.8-2 2.7-3 .9 1.3 2 2.4 2.6 3.8.6 1.6.7 3.4 1 5 .7 3.5.8 3.5 4.4 2.4h1.3c0 .4-.1.9-.4 1-1.4 1-3.2 1.5-4.1 2.7-.9 1.1-.6 3-1 4.5-.2.6-.8 1.1-1.2 1.7l-1-2v-1.4c-.1-3.3-.4-3.6-3.7-3.6-.7 0-1.5.3-2.5.7zm2.8-8.8l-.7 2.7-.6 2.1c1 0 2 .4 2.9.2.4-.2.8-1.2.8-1.9.2-1.3.1-2.7 0-4 0-.9.5-2.3-1.1-2-.4.1-.6 1.6-1.3 3zM393 496c.2 2-1.1 4.6 2.3 4 .2 0 .7.8.6 1.1 0 .3-.4.7-.8 1-.8.3-2.1.4-2.5 1-.4.7-.3 2 0 3 .2.4 1.5.4 2.3.5.4 0 .9-.6 1.3-.5 1.3 0 2.5.3 3.8.4-1.1.5-2.2 1.3-3.4 1.5-3.5.5-5 3-6.6 5.6l-1.3 1.5-.7-1.7c-.3-.8-.7-2.3-1-2.2-1.5 0-3 .4-4.5 1-.5.1-.6 1.4-1.1 1.9-.5.4-1.4.6-2 .8 0-.7 0-1.4.3-2 .2-1 .3-1-1.2-1-.4.1-1.3 0-1.3-.2 0-.5 0-1.3.3-1.6.7-.6 1.7-.9 2.4-1.5.8-.8 1.4-1.7 2-2.6l-2.8-1c-.4-.2-.8-.7-1.1-1.1.3-.3.7-.9.9-.8 3.6.9 3.8-2 4.7-4.1.3-.8 1-1.3 1.6-2 .2.9.7 1.7.7 2.5s-.3 1.6-.5 2.4c1-.3 2.4-.2 3-.9 1-1.4 2-3.2 2.5-5 .6-1.4 1.1-1.2 2 0zm-9 10.5v1c1.7.8 4.4 0 5.6-1.7.3-.3.3-.8.4-1.3h-5c-.4 0-.7.7-1 2zM666.2 571.9c-1.5 4.6-2.5 9-4.7 13-1 1.7-1.8 2.3-3.6 2.3-2.2 0-2-2-2.4-3-.8-2-.7-4.3-1.1-6.5-.1-.5-.4-1-.7-1.4-.4.5-1.1 1-1.3 1.5l-1 6.5c0 .5.2 1.2 0 1.5-1 1.2-2 3-3.2 3.2-1.5.1-2-1.7-1.9-3.3.2-4.5-1-9 .1-13.4.2-.7.7-1.4 1-2.2.4.8 1 1.6 1 2.4v8c0 .5.4 1 .6 1.5.5-.4 1.2-.8 1.3-1.4.5-1.7.6-3.4 1.1-5 .4-1.4 1-2.7 1.9-3.8.4-.5 1.5-.7 2.1-.6.5.1.9 1.2 1 1.8l1 10c0 .5.5.8.7 1.2.4-.4 1-.6 1.3-1l3-7.8c.6-1.6 1.5-3.1 1.9-4.7.3-1.1.5-2 1.7-1.3.4.2.3 1.5.2 2.5zM703.7 495.3c1.1 0 2.5 0 2.7.5 1 3 3.7 5.3 3 8.7l.1 1 1.4 1.4.6-1.5c0-2-.2-4 0-6 .2-2.4.7-4.7 1.2-7 0-.4 1.1-.7 1.7-1 .2.6 1.2.6.6 1.8-.7 1.5-.5 3.5-.5 5.3 0 3.6-1.4 7.1 0 10.7v1l-2.2 3.5c-1-.7-2.4-1.2-2.7-2.2-1.6-3.9-2.8-7.9-4.1-11.8l-1.1-1.7c-.3.7-.8 1.3-.9 2l-2 14c-.2.7-1 1.3-1.4 2-.6-.8-1.6-1.5-1.5-2.2 0-1.7.7-3.4.8-5 .2-3 0-6 0-9 0-1.5-.4-3.4 2.3-1.9l2-2.6zM372 637.2c-.4-.8-.7-1.2-1-1.5 1.6-1.4 2.6-3.2 5.7-2.7 3.5.6 7.5 1.2 11-.7.3-.2.9.3 1.3.5-.3.5-.5 1.3-.8 1.4l-10.3 3c-.8.3-2-.3-2 1.4 0 1.1-.4 2.3-.7 3.4 1.1 0 2.3.2 3.4.1l6-.8c.5 0 1 .3 1.4.5-.4.3-.7.9-1.1 1l-6.9 1.5c-1 .3-2.6.7-2.8 1.4-.4 1.6 0 3.5 0 5.3 1-.2 2.3 0 3-.6 1.6-1.4 3.4-2.3 5.6-2.1l.9.2c-.2.3-.2.8-.5 1-2.4 1.8-4.7 3.8-7.3 5.3-2.3 1.3-6-1.2-5.9-3.8.3-3.6 1-7.2 1.5-10.9.1-.7-.4-1.6-.6-2.9zM705.5 532c.3-1.3-.9-2.8 1.3-3 1.7 0 1.6.9 1.7 2.1.1 1.6.7 3 0 4.7-.3 1 .2 2.6.9 3.6 1.7 2.4 2.6 2.3 4-.3l5.4-9.8c.3-.5 1-.7 1.4-1 .1.6.4 1.3.3 1.8-1.2 4-2 8.3-3.7 12-1.9 4-2.4 8.3-4.3 12.2v1l-2.6 2.7c-.5-1.3-1.7-2.3-.5-4 .7-1 .8-2.3 1-3.5.4-1.4.9-2.7 1-4.1.3-2.7-2.3-.5-3.2-2-1.2-1.8-2.8-3.4-2.7-5.8V532zM442 598.2l6.1 1 3.9.4c-1.4.5-2.7 1.4-4.2 1.5-2.4.3-5 .2-7.5 0-2.2 0-3.3.8-3.3 3.2 0 2.4 1.4 3 3.5 3 1.3-.1 2.7-.2 4 0 1.1 0 2.3.3 3.4.6-1.1.4-2.3 1-3.4 1.2-1.5.3-3 .3-4.5 0-2.9-.4-3.5 1.5-4 3.6v3l.4 3.3c.8-.7 1.5-1.6 2.5-2 2.5-1 5.2-2 7.8-2.8.4 0 .9.3 1.3.5-.3.3-.6.8-1 1-3.3 1.9-6.7 3.7-10.2 5.5-.7.4-2 1-2.4.7-1-1-2.2-2.2-2.2-3.4 0-3.2.5-6.4.9-9.6.2-2 .8-4 1-6.1.2-3.4 1.2-4.2 4.9-3.7.8.1 1.7-.6 3-1zM722.5 506l1-11.6c0-.5.5-1.3.9-1.3 3.5-.5 7-.9 10.6-1 1.8-.1 4 2.7 4.5 5 1.2 5.9-5 15-11.1 15.4-1.6.2-3.3-1.1-4.8-2-1.7-.8-1-2.6-1.1-4.5zm3-3.5v4c.1.9.4 2.3.8 2.4 1 .2 2.6.2 3.2-.5 2.5-2.5 5.7-4.6 6.2-8.9.4-3.8-.5-5.5-4.3-5.5-4.6 0-5.9 1.3-5.9 6v2.5zM365 643.3c-2.3-2.1-5-.6-7.4-1l-1.6-.6c.5-.5.9-1.3 1.4-1.4 2.5-.1 5-.4 7.5.1 1.2.3 3 2.2 2.9 3.3-.3 3.4-1.2 6.8-2 10.1-.1.6-.9 1-1.3 1.4-.2-.5-.6-1.1-.5-1.7.2-1.9.7-3.7.9-5.6 0-.5-.4-1-.6-1.5 0 .4-.2.8-.4 1.3-.3.8-.5 1.8-1 2.6-2.7 4.9-8.4 5.2-10.9.3-1.4-2.9-3.4-6.1-1.1-9.7 1.4-2.2 1.2-5 2.8-7.4 1.3-2.2 2.6-.5 3.6-1.3l1.6 3.3h-1.2c-1.7-.8-2.4-.1-3.2 1.5-1.5 3.7-2.6 7.2-.4 10.9 2.1 3.5 5 3.1 7.3-.5.9-1.4.5-3.9 3.3-3.9l.5 1.5.7-.2-1-1.5zM615 535.8c-2 5.4-3.3 10.8-7.5 14.7-1.4 1.3-2.6 2.7-4.6.8-.1-.2-.6-.2-.9-.2-5.6.4-7.2-3.4-9.2-7.7-1-2.3 1.5-3.3.6-5.4-.7-1.7-.5-4 1.6-5.2.6-.4.9-1.3 1.3-2a5.9 5.9 0 0110 0l1.5 2.3.3.7c-.4 0-1 .4-1.3.2-1.2-1-2-2.3-3.3-2.8-3-1.2-6.7 1.5-7.2 5.2-.2 1.8 0 3.7 0 5.5-.1 4.2 3 5.5 6.1 6.8 2.3.9 4-.8 5.1-2.4 1.8-2.7 3.2-5.7 4.8-8.5l2.3-3.5c.3.4.5.9.5 1.5zM412.3 620c-2.4-2.8-2.4-5.9-2.3-9v-9.5c.2-1.2.5-2.7 2.7-1.4 1 .5 2.9 0 4.3-.4 1.9-.6 3.4-.6 5.4.2 5.1 2.1 6 3.4 3.6 8.1-3 5.7-7 10.4-13.7 12zm6.2-6.8c1.5-2 3.1-4 4.5-6.1.7-1.1 1.8-2.4.6-3.9-.7-.8-7.7-1.8-9-1-.8.6-1.1 1.9-1.6 2.8v8.5c0 1 .4 1.8.6 2.7 1-.4 2-.6 3-1.1.6-.3 1-1 2-1.9zM536.2 605.2a3 3 0 002-1.2c2-2.8 4.4-3.3 7-1.3 2.4 1.8 3 6.3.8 8.1-2.1 1.8-4.2 4-7.5 3.4-.4 0-.9.4-1.3.5.4.4.7.9 1.1 1 3.3 1.8 6.6 3.4 10 5l.9 1c-.5.2-1 .5-1.4.5-3.3.2-6.3-.4-8.6-3.3-1.6-1.9-3.3-1.4-4 .9v1c-.2.9.7 2.8-1.3 2.3-.8-.2-1.9-2.3-1.6-3 1.9-4.7 0-9.7 1.9-14.3.2-.5-.2-1.4 0-2 .4-.5 1.1-1 1.7-1.5l.3 2.9zm1 4.5v1.5l-.6 2 1.7-.6c2-1 4-1.6 5.7-2.9.8-.6 1.2-2.3 1-3.4 0-.8-1.3-2-2-2-1.2 0-2.7.4-3.5 1.2-.9 1-1.2 2.4-2.3 4.2zM333.9 647.3c-.3 1.7-.6 2.9-1 4-.3.9-.6 1.8-1.2 2.5-.2.3-1.7-.1-1.7-.3v-12.9c.1-1.9.6-3.7 1-5.6 0-.3.6-.7 1-.7.3 0 .7.4.9.8v1l.6 4 1.4-3.3 1-2.6c.6-2 2.2-2.2 3.9-2 1.9.3 2.3 1.7 2 3.3-.4 3 1.6 6.8-2.4 9-.2 0 0 2 .5 2.2 2.3 1.2 4.8 2.1 7.2 3.2l1.6 1c-.6.5-1.5 1.5-2 1.3-2.2-1-5-.3-6.9-2.5a27 27 0 00-4.3-4.2c-1-.8-1.7 0-1.6 1.8zm5-5.5c2-1.8.7-4 1-6 0-.5-.4-1.1-.8-1.5-.1-.1-1 .2-1.2.5-.8 1-1.5 2-2 3-1.7 3.2-1.4 3.7 3 4zM311.9 573.1c0-2.1-.3-3.8 0-5.4.2-.7 1.5-1 2.3-1.6l.2 2v2l1.5-1.3.9-1.1c.6-2 1.6-3.6 4-3.5 1.4 0 4.7 4 5 6 .4 2.2.2 4.5-2 5.4-1.6.7-3.6.4-5.4.6l-1.3.2c.3.5.5 1.2 1 1.4 2.9 1.5 5.8 3 8.7 4.3l2 .7c-.9.5-1.8 1.4-2.5 1.3-2.2-.6-4.3-1.6-6.4-2.5-.5-.2-.7-.7-1.1-1-3.3-2.2-3.6-2-4 1.8 0 .6-.3 1.2-.5 1.7-.3-.3-.6-.8-1-1-2.2-1.4-1.3-3.6-1.4-5.5v-4.5zm11-3.5c-1.7-2.7-3-3.3-4-1.8-1 1.6-1.8 3.5-2.5 5.4-.1.4.6 1.6.7 1.6 1.6-.3 3.3-.5 4.7-1.2.7-.4.7-2 1-4zM492.1 647.3c0-3.3 1.1-6 .2-8.7-.3-.9.8-2.3 1.4-3.4.8-1.8 1.7.1 2.6 0h6.5c2.9 0 5.5 1.4 6.2 3.8.6 2.4 1 5.3-1.6 7.8-2.4 2.2-5 4-7.8 5.4-5.5 2.8-7.4 1.6-7.5-5zm3-3.5v6.4c0 .2.9.6 1 .5 2.5-1.7 5-3.4 7.4-5.3 1.6-1.3 3.4-2.8 2.6-5.3-.8-2.7-3.2-1.6-5-1.9-5.5-.9-6-.6-6 5.6zM754.8 544.3c-.3 2.1 0 4-.3 5.8-.1.7-1.2 1.3-1.8 2-.4-.7-1-1.4-1.1-2.1 0-3.2-1-6.4.8-9.4.1-.2-.7-1.5-1-1.4-2.7.2-5.4.5-8.1 1-.4 0-.6 1.2-.8 2l-2 9.1c0 .3-.6.8-1 .8-.3 0-.9-.5-1-.8 0-1.1-.3-2.4 0-3.5 1.7-4.3.8-8.7 1-13 0-.9 0-1.7.3-2.4.1-.5.7-.8 1-1.1.3.4.6.8.7 1.3.5 1.8.4 4.4 1.6 5.2 1.2.7 3.5-.4 5.4-.7 2.3-.3 4.1-.6 4.3-3.8 0-1.1-.4-4.6 2.4-4.1 3 .5.8 3.2 1.3 4.9.2.9-.4 2.2-1 3-1.7 2.3-.7 4.6-.7 7.2zM591.3 507v2l-.8 2c-.7-.5-2-1-2.1-1.6-.2-1.8.2-3.5.4-5.3 0-.6.4-1.2.5-1.8 0-.4-.3-.8-.5-1.3-.5.3-1.2.4-1.5.8-2.3 2.9-4.4 6-7 8.5-1 1-2.7 2.8-4.9.8-1.3-1.2-2.6-2.5-2-4.2a18 18 0 018.3-11c3.3-2 5.8-.1 8.5.7.6.1 1 1.6 1 2.5.2 2.4 0 5 0 8zm-9-8.5l-5.3 7.3c-.3.5-.3 1.4-.4 2 .8 0 1.9.4 2.3 0l7.4-7.8c1.7-1.7 0-2.2-1.1-2.5-.7-.2-1.6.3-3 1zM372.2 558.9c-.3-1-.3-1.6-.2-2.3l.3-1.3 1 .7 1.5 1.4c.9.6 2.4 1.8 2.6 1.5 1-.8 2.3-2.1 2.5-3.3.3-3.7 0-7.4 0-11 0-.5-.5-1-.7-1.5l-1.2 1.1c-2.2 2.7-3.8 3.2-6.2 2-1.2-.8-1.9-1.6-1.9-3 0-3.5.5-6.6 3.9-8.4.6-.4 1.5-.8 2.1-.6 1 .2 2 .8 3 1.3-.7.5-1.4 1.2-2.2 1.6-3.6 1.4-4.6 3.3-3.7 7.2 0 .3.6.7 1 .7.3 0 .7-.3 1-.7 1.8-2.7 3.5-5.5 5.5-8.1.4-.6 1.3-.8 2-1.1.1.6.6 1.3.4 1.8-1.9 7-.5 14-1 21-.1 3.5-3.5 5.2-6.3 3.3l-3.4-2.3zM486.4 544.3c-.3 2-.2 3.6-.3 5.3 0 .5-.5 1-.8 1.5l-1.2-1.6c-1-1.8-1.6-3.7 0-5.7.2-.2 0-.9-.1-1.4l-1.4.8c-1.3 1-2.5 2.1-3.8 2.9-3.3 1.8-4.6 1.4-7-1.8-1.1-1.5-.8-5.1.3-6.8 2.4-3.5 5.9-3.7 9.6-3.4 2 .1 4 .5 3.5-2.9a9 9 0 011-4.5c.3-.7 1.5-1.1 2.2-1.6.3.7.9 1.5.7 2-1.9 5.5-1.7 11.3-2.7 17.2zm-12.3-.7c4 2 6-.9 8.2-3.2.6-.6 1.6-1.7 1.5-2-.6-1-1.6-2.1-2.5-2.2-1.8-.1-4 0-5.5.9-2 1.2-3.4 3.3-1.7 6.5zM339.6 505.8l3-1c2.3-1 4.7-1.8 4.3-5 0-.5 0-1.2.2-1.4.7-.5 1.6-.9 2.4-1.3l-.2 2c-.1.7-.3 1.3-.3 2 0 0 .7.4 1 .3.6-.2 1.2-.7 1.8-1l-.8 2c-.1.8 0 2-.4 2.3-3.6 3.1-3.4 7.4-3.7 11.5 0 .7-.6 1.3-1 1.9-.6-.5-1.8-1-1.8-1.4 0-2.4-1-4.9.7-7.1.5-.7.5-1.6.7-2.4-.8 0-1.6-.3-2.4-.1-1.2.2-2.4.8-3.6.9-1.8.2-2.5 1-2.7 2.8 0 1.7-.6 3.4-1 5.1 0 .4-.3.7-.5 1-.4-.3-1-.6-1-1-.2-2-.4-4-.4-5.9 0-1.7-1.6-4 1.5-5 .3-.2.3-1.5.5-2.3.3-1 .4-2.1 1-3 .5-1 1.8-2.7 2.2-2.5 2.6 1-.3 1.8-.3 3 0 1.3-.6 2.7-.9 4-.2 1.1 0 2.1 1.7 1.6zM343.2 619.5c-5.6 1-8.1-.9-8.3-6-.2-4.5.7-8.6 4-11.8 2.1-2 3.6-2 5.8-.2 4.4 3.5 4.3 9.5.4 16-.4.6-1.1 1.1-2 2zm-3.3-12.8c-2.2 2.8-.5 6-1 9 0 .4 1.2 1 1.9 1.5.4-.5.7-1.3 1.2-1.5 3.3-1.6 1-5.2 2.8-7.4.7-.8.5-3-1.2-3.9-1.6-.8-2.7.1-3.7 2.3zM605.6 618.5c-2.4 1-4.7 1.8-6.7 2.8-2.5 1.1-4-.2-4.5-2.1-.6-2-1.9-3.9-.2-6.3.9-1.4.1-3.9.6-5.7.5-1.8 1.7-3.4 2.5-5.1.6-1.4 1.7-1.4 2-.2.5 2.8 3 1.4 3.4 1.2 2.7-1.9 5.5-.5 8.2-.9.4 0 1 .6 1.4.8-.5.4-1.2 1.2-1.6 1.1-4-.9-7.4 2.4-11.3 1.2-.2-.1-1 .7-1 1.1-.2 1 0 2-.1 3-.4 2.3 1.7 2.3 2.4 1.7 2-1.7 4.2-.6 6.2-.8.4-.1 1 .5 1.4.8-.5.3-1 1-1.6 1-2.6.5-5 1-7.6 1-2.7.1-2.8 2.3-2.6 3.7.3 1.6 2.3 1.7 3.8 1.3 1.1-.2 2.2-1.1 3.3-1.6a21 21 0 013.5-1.3c.6-.1 1.2.1 1.9.2-.4.6-.6 1.3-1.1 1.7-.6.5-1.4.8-2.3 1.4zM333.9 570.1c.3-1.1.6-2.3 1-2.4 3.4-.7 6.9-2.3 10 .4.4.4 1 1 1 1.4 0 2.1.6 4.5-.1 6.4a27.4 27.4 0 01-5.7 10.6 5.1 5.1 0 01-4.3 1.7c-3.5-.2-3.9-.4-3.9-4 0-4.6-.6-9.3 2-14zm1 3.5c.7 3-.1 6.1 0 9.2 0 .8.6 1.6.9 2.4 1-.5 2.6-.7 2.8-1.4 1-3.5 4.9-5.8 4.5-10.1 0-.9 1.4-2.3.4-3.4-.9-.7-2.3-1-3.5-1.1-3.1-.4-3.5 0-5.1 4.4zM634.4 619.2a17.8 17.8 0 014.9-14.9c2.5-2.9 7.8-3.5 10.2-.5 1.7 2.3 1 4.9.4 7.4-.9 4.3-4 7.3-6 11-.8 1.4-5.2 1.5-6.7.3-1-.8-1.9-1.8-2.8-3.3zm12-5.5l.7-2.7c1.4-4.5-.2-6.6-4.4-5.8-.5 0-1 .3-1.3.5-3.6 2.5-4.4 6.5-4.9 10.3-.1 1.3 1.4 3.2 2.6 4.1 1.5 1 2.7-.7 3.6-1.8l3.7-4.6zM484.4 600.4c2.2-.2 4.2 0 6.2-.3 2.2-.1 3 1 3.9 2.8 2.1 4.6 1 13.8-3.2 16.8-4.1 2.8-10 2.5-11-3.3-1-5.4-.8-11.3 4-16zm8.7 8.3c0-.8.2-1.7 0-2.5-1-3.8-1.9-4-5.2-1.3-1 .8-1.7.4-1.8-1 0-.6-.4-1.1-.5-1.6-.4.3-.9.6-1 1a19.3 19.3 0 00-2.4 11 5.7 5.7 0 003 3.8c1.4.5 3.2.3 4.9-1.1 2.4-2.1 1.7-5 3-8.3zM453.3 543.8c-1.9-3.3-.2-6.3-.2-9.4 0-.4.6-.9 1-1.3.3.4 1 .8 1 1.2v6.5c0 .5.3.9.5 1.3l.7-.7c2-2.1 4.4-3.9 4.9-7 0-.9.9-1.7 1.6-2.3.4-.3 1.4-.2 1.8.1.4.3.7 1.4.4 1.8-3.7 6.3-1.3 13.1-1.9 19.7-.2 3-1.1 5-3 5.4-3.9 1-6.4-.1-7.7-3.2-.2-.4 0-1 0-1.7l1.8.5.7.7c3 1.9 6.1.5 6.1-3.2 0-3.3-.6-6.7-1-10l-.2-1c-.4.3-.8.5-1 .8-1.4 1.7-3 2.5-5.5 1.8zM597 635.5c-2.1.7-4.6 1.1-7 1.8-1 .3-2.2.9-2.6 1.7-.4.7-.7 2.5 1.4 2.2l7-.9c.8 0 1.7.5 2.5.8-.7.4-1.4.9-2.1 1.1-2.2.8-4.5 1.2-6.6 2.1-2.8 1.2-3.2 3.3-1.2 5.6.7.7 1 1.7 2.6.4 1.6-1.4 4-1.9 6-2.8.5 3-2.3 3.7-3.7 5.2-3.4 3.5-6.3 2.6-8-1.7-1-2.3-1.4-4-.2-6.3.8-1.4.8-4 0-5.3-1.7-3.1.2-4.2 2.3-4.7 3.1-.7 6.4-1.3 9.7.8zM453.3 581c-.6 1.4.7 3.6-1.4 4.1-2.2.5-4.3 2.2-6.7.1-2-1.8-4.3-3.2-6.4-4.9-.4-.3-.5-1.1-.7-1.7.7-.1 1.7-.6 2.2-.4 1.4.7 2.6 2 4 2.6 1.7.7 3.6 1.1 5.4 1.3 2.2.2.7-.7.4-1.5-1.1-3-4.1-3.7-6.2-5.4-2.3-1.9-3.6-5.1-2.4-7 2.1-3.4 7-5.3 9.6-3.5.4.3.6 1 1 1.5l-2 1c-1.6.4-3.3.6-4.8 1.3-1.4.7-1.8 1.9-.3 3.1l6.7 5.6c1.1 1 1.7 2 1.6 3.7zM652.4 644.3v6.5c-.2.8-1 1.6-1.4 2.4-.5-.8-1.3-1.5-1.4-2.3 0-2.5-.2-5.2.4-7.6.5-1.7.4-2-1.2-2-7.2-.6-8.3.3-8.4 7.4v1c0 1.5 0 3.4-1.8 3.2-1.7-.3-1.6-2.6-1.1-3.8 1.1-2.9 1.2-5.4.1-8.3-.6-1.7.4-4 .8-6 0-.2.5-.6.7-.5.4 0 1 .2 1.2.5.8 1.4 1 3.8 2 4.2 1.4.6 3.4-.6 5-.7 1.4 0 2.1-.1 2.2-1.8 0-2.4.5-4.8.9-7.1 0-.4.4-.7.6-1 .3.3 1 .6 1 1 .2 1 .4 2.2.4 3.4v11.5zM525.4 569.4c.6-1 .9-1.7 1.4-2.3l3.1-3.8c0 2 .3 4-.2 5.7-.9 3-2.3 6-3.5 9a23 23 0 00-2 10.1c.1 1.4 0 2.2-1.8 2.1-1.5 0-2.6 0-2.2-2 .3-2.5-.8-5.1 1.6-7.4 1.3-1.2.1-2.7-1.6-3.7-3-1.8-5.2-8.4-4-11.5 0-.2.5-.5.8-.4.4 0 1 .2 1.1.5.5 1.7.5 3.6 1.3 5 1 1.7 3 4.4 3.9 4.2 1.9-.6 2.1-3.1 2.1-5.5zM614.3 645.3a85 85 0 01-1 6c0 .4-.5.9-.8 1-.4 0-1-.4-1.1-.7-.5-1-.6-2.1-1.1-3-.6-1-1.7-2.2-2.5-2.2-.9 0-2 1.3-2.4 2.3-.7 1.7-.6 3.6-3.3 3.6-2.3 0-2.3-1.8-1.7-2.5 3.2-3.5 2.4-8.6 4.9-12.4v-1l3.4-4c1.3 1 2.4 2 2.8 4.1.4 2.8 1.8 5.5 2.8 8.8zm-7-7.6c-.2 1.3-.5 2.5-.6 3.8 0 .5.3 1.2.5 1.8.7-.4 2-.7 2-1.2.2-1.8 0-3.6 0-5.4-.4.1-1 .3-1.9 1zM390.2 550.9c-.8-3.8-2.4-7.4-.2-11-2.2-3.3 0-3.3 2.5-4 2.2-.7 3.8-2.8 6.4-.9 2.2 1.6 3.2 6.7.8 7.6-1.9.8-4.4.2-6.6 0-1.5 0-1.7 0-1.4 1.7.2 1 0 2 .3 3 .7 1.3 1.5 3.2 2.6 3.6 1.5.5 3.6.9 5-.9 1.6-1.9 3.5-3.5 5.3-5.2.4-.4 1.1-.4 1.7-.6.1.4.5 1 .4 1.2-2.3 2.9-4 6.4-7.7 7.7-3.3 1.2-6.5 1.2-9-2.2zm2.8-12.3c0 .5-.2 1 0 1.5 1.2 2 3.1 1 4.6.7.9-.2 2.3-1.7 2.2-2.3-.5-1.6-2.3-1.6-3.8-1.4-.8.1-1.7.7-3 1.5zM289.8 618.2c-.9-4 2.3-6.6 2.6-10 .2-2.3 1-4.8 2-7 1.2-2.4 2-2.1 3.5 0 2 3 2 6.5 2.9 9.8.7 2.9.8 6 1 9 0 .7-1 1.4-1.6 2.1-.4-.6-1.4-1.6-1.3-1.8 1.3-2-2.5-3.5-.3-5.3l-.7-.8c-1.8 0-3.7-.3-4.1 2.3a8.7 8.7 0 01-1.3 3.4c-.4.6-1.5.8-2.3 1.2l-.4-2.9zm7.5-13c-.5 0-.9-2-1.4-.1-.5 1.6-1 3.3-1 5 0 1 .8 2 1.2 2.9.6-.8 1.5-1.5 1.7-2.4.2-1.6 0-3.3-.5-5.4zM465.3 645.5c-1.6 2-2.8 4-4.5 5.4-1.2.9-2.8-.3-3.7-1.6-2.1-3-1.2-13.9 1.8-16.2a15 15 0 016.4-2.4c.8-.2 1.9 1.3 2.8 2 1.8 1.6 1.2 3.6.6 5.4-.9 2.4-2 4.8-3.4 7.4zm.8-8.8c-.1-.7 0-2-.4-2.2-2.3-1.2-5 .2-5.6 2.8-.9 3.2-1 6.4 0 9.6l.4 1.3c.4-.3.9-.6 1-1a99 99 0 004.6-10.5zM317.6 540.3c2.2 2.4 1 5 1.2 7.4 0 1-.6 2-1 3-.6 2-1 4-4 3.5-1.2-.3-2.6 0-4 0-3.2-.1-4.7-1.3-5-4.5-.2-3.9 0-7.7 2-11.2 1-1.7 1.6-3.7 2.6-5.4.8-1.3 2.3-1.7 3.3-.5 1 1 1.4 2.7 2 4l-.7.5c-.4-.3-.8-.7-1.1-1.2-.4-.5-.7-1.2-1-1.8-.6.4-1.6.8-1.8 1.4a113 113 0 00-3.2 11.1c-.5 2.7 1.3 5.3 3.4 5.5 2.3.3 5-2.1 5.5-5 .2-1 0-2 0-3 0-1.5.2-2.9-2-1.5-.8.5-1.9.4-2.8.5-.4 0-.8-.4-1.1-.6.3-.5.5-1 .9-1.4 2-1.5 4.3-1 6.8-.8zM587 613c.2-1.5.8-3.2-1.5-2.8-.7.1-1.3.7-2 .7-.7-.1-1.4-.7-2-1 .5-.4 1-.8 1.7-1 3.8-1.7 6-.3 6.1 3.8.1 2.6-.5 5-2.5 6.4-1.8 1.3-4.3 3-6.1 2.8-3.4-.7-5.8-3.8-6.2-7.1-.7-4.9.1-9.6 4-13.3 2.3-2.2 6.6-1.8 8.5.9.2.3.2.9.3 1.3-.6.1-1.3.4-1.7.2-.6-.3-1-1.3-1.5-1.3-1.3 0-3-.3-4 .4-3.4 2.8-3.8 11-1 14.5 1.2 1.8 2.8 1.3 3.7.5 1.6-1.3 2.7-3.2 4.2-5zM277 605l4.5 8.4.7 1.7c.2-.5.7-1 .6-1.6-.8-3.7 1.3-7.4 0-11.1-.1-.7.6-1.8 1-2.6.2-.3.8-.6 1.2-.6.3 0 .8.7.8 1-.5 3.5.6 7-.8 10.6-1 2.4-.1 5.6-.2 8.4 0 .7-.5 1.3-.8 2-.6-.4-1.6-.7-1.9-1.3l-4.3-9.2-.7-1.7-.7-.7-.6 1-1 11.6c0 .5-.6.9-1 1.3-.3-.4-1-.8-1-1.2.2-1.7.7-3.4.8-5.2.2-2.6.1-5.2.2-7.9 0-1.2.1-2.6.6-3.7.4-1 1.3-2 2-2.9.2 1.2.3 2.3.7 3.6zM561 504.8l-2 5c-.4.6-1.3.8-2 1.2-.3-.6-.8-1.3-.7-2 .2-2.9.6-5.7 1-8.6l.4-1.4c-.4.1-1 .2-1.3.4-2.3 1.4-2.4 4-3.1 6.2-.5 1.5-.7 3-1.1 4.5 0 .4-.6.9-.9.9-.3 0-.8-.3-1-.7-1.3-1.5-.1-3 0-4.6.1-2.9.6-5.8 1-8.6 0-.4.4-.7.7-1 .4.3 1 .5 1.2 1 .4.6.6 1.3.8 2 .5-.6.8-1.2 1.3-1.6 1.9-1.4 3.8-.5 4 1.7 0 .5-.2 1 0 1.5s.6.9 1 1.3l1-1.2c.7-1 1.2-2.1 2.1-2.7 3.4-2.3 7.2-.3 7.8 4.2.2 1.1.3 2.4 0 3.5-.3 1.4-1 2.8-1.5 4.2l-.4-3.9c0-.8.2-1.7 0-2.5-.7-1.5-1.7-3-2.5-4.5-1.1.8-2.4 1.4-3.4 2.4-.9.8-1.4 2-2.4 3.3zM484.1 566.1h6c4 .1 6.2 3.1 5.4 7.3-1.2 6-4.9 9.6-10.2 12-3 1.5-5.4.2-5.1-3 .2-3.2 1-6.3 1.6-9.4 0-.8.5-1.7.3-2.3-1-3-1.1-3 2-4.6zm-.5 9c-.4 1.8-1 3.6-1.3 5.4-.2 1.2.3 2.5.4 3.7l2-2c.3-.2.7 0 1-.1 3.2-1.7 5.4-4.1 6.7-7.6.8-2 1.2-3.5-.5-5.1-1.1-1-5-1.8-6.4-1.1-1.8 1-1.3 2.8-1.4 4.4 0 .6 0 1.3-.5 2.4zM553.5 621a21 21 0 011.7-10c.7-1.8 1.8-3.7 2-5.6 0-2.4 1.8-3.4 3.1-4.7 1.5-1.3 4-.3 3.8 1.7-.3 3 1.9 5 2.3 7.5.5 3.2.6 6.5.8 9.7 0 .2-.4.6-.6.6-.4 0-1.2-.2-1.3-.5-.4-1.3-1-2.7-1-4 .2-2.4-1-2.5-2.8-2.5-4 0-4.2-.1-5.2 3.7-.4 1.8-.3 3.7-2.8 4zm7.7-10.3c.4-.9 3.2-.1 1.7-2.4-.5-.7-.4-1.8-.7-2.7l-.8-2.4c-.7.8-1.6 1.4-1.9 2.3-.5 2-1 4.2 1.7 5.2zM501.2 613.2v4c0 .7.5 1.3.7 2 .5-.5 1-1 1.3-1.5l4-11.4c.5-1.6.8-3.3 1-5 0-1.3-.1-2.3 1.7-2.2 2.1.2 1.4 1.8 1.2 2.6-.8 3.8-1 7.7-2.9 11.3-1.4 2.7-1.5 6-4.3 8.2-1.7 1.3-2.6 1.1-3.6-.3-.8-1.2-2-2.4-2-3.6.1-5.2-1.1-10.5.9-15.6.2-.6.8-1 1.2-1.5.2.5.7 1 .7 1.5v11.5zM689.4 530c.8 5.1-3 8.5-3.1 12.8l-.4.3.1 4c1.2-.5 2.4-.9 3.4-1.5 2.6-1.5 5-3.2 7.7-4.4 1-.4 2.4.4 3.6.7v1.1c-5 1-8.3 4.9-12.6 7.2-1.3.7-2.4 1.6-3.8.3-1.5-1.5-3.1-3-2.5-5.2 1.4-5.2 3-10.4 4.7-15.5.2-.8 1.4-1.2 2.2-1.7.2.5.5 1 .7 2zM515.4 528.3c3.1-2.5 6.6-2.3 10-2.2.5 0 1.2.6 1.8.9-.6.3-1 1-1.7 1-2.2.5-4.5.5-6.5 1.1-2.7.9-3 2.5-1 4.4 2.6 2.3 5.1 4.5 7.8 6.6 1.6 1.3 1.8 3 1.2 4.4-.2.8-2 1-3.1 1.6-3.8 2.1-7.2-.7-10.7-1-.9-.2-1.6-1.1-2.3-1.8-.4-.4-.5-1.1-.7-1.7.7-.1 2-.7 2.1-.4 2.3 2.7 5.4 1.7 8.3 2 1.1 0 2.3.4 3.4.6-.7-1.2-1.2-2.5-2.1-3.4-1.9-1.8-4-3.3-5.9-5-2.5-2.4-2.5-3-.6-7zM561.2 529c.6-1 1-1.8 1.8-2 4-2 8.6-1.2 11.5 1.8 2.8 3 1.8 7.6-2.2 9.3h-1c-2.2.7-6.9 4.7-8 6.8-.3.5-.8.8-1.2 1.2-.3-.5-.9-1-.8-1.4.3-2.4-.6-4.7-.2-7.2.5-2.5.1-5.3.1-8.4zm4 7.6c1.5-.2 3-.2 4.3-.5 2.8-.7 4.4-3 3.8-5.2-.6-1.8-4.2-3.2-7.6-2.8-2.8.3-1.2 2.5-1.4 3.7-.1 1.8.3 3.5 1 4.8zM533.5 582.4c1.8 1.4 3.4 3 6 2.8l4.7-.5-3-3.2-2.2-2c-3.9-4.1-3.8-6.3.4-10 2.8-2.6 6.3-3 9.6-1.4l1.2.6c-.4.3-.7 1-1 1l-3.9.5c-1 .1-2.4 0-3.2.6-3.8 2.6-3.8 3.9-.5 7.3 1.6 1.5 3.3 2.9 4.5 4.6.8 1 1.2 2.8 1 4-.3.7-2.1 1.2-3.3 1.4-1.6.2-3.3.1-5 0-3.2 0-5.5-1.6-6.5-4.4 0-.2.6-.7 1.2-1.3zM572 652c3.8-2.3 5.3-6 7.1-9.3.6-1-.4-3-2.2-3.4-1.9-.5-3.7-.8-5.6-1-1.8-.3-2.8.6-3 2.3v11.5c-.1.7-.8 1.5-1.2 2.2-.3-.7-.8-1.3-.8-2v-8.5c0-1 .4-2.4-.1-3-2.5-2.6.7-4.3 1.6-4.3 3.2-.3 6.6-.3 9.6.6 3.9 1.1 5.7 6.6 3.4 10-1.8 2.7-4.5 4.8-6.9 7.1-.6.5-1.6.5-2.4.8 0-1 .2-1.8.5-3zM695.5 510v2.5c-.3 1.2-.5 3.4-.8 3.4-2.4.1-1-1.8-1.2-2.9-.9-3-5.2-4.3-7.4-2-1.3 1.3-1.9 3.2-3 4.8-.3.4-1.2.8-1.6.7-.7-.2-.7-.7-.5-1.7 1.1-4.9 3.2-9.4 5.1-13.9.7-1.6-.2-3.4 1.6-4.9 1.7-1.3 2.8-1.2 3.5.4 1.6 3.3 3 6.8 3.3 10.6 0 .8.6 1.7 1 3zm-6.6-2c.8-.4 2.3-1 2.3-1.4 0-2.6-.4-5.3-.8-8 0-.1-.5-.5-.6-.4-.3.3-.9.6-1 1l-2.3 8.5v1c.5-.3 1-.5 2.4-.7zM294.8 648.3c-.1-3.6 1-6.6.1-9.7-.6-2 .5-3.4 3-3.4h8.4c.5 0 1 .5 1.4.7-.5.5-1 1.2-1.5 1.3-2 .5-4 .7-6 1-.6.2-1.4.5-1.6 1-.5.7-.5 1.7-.7 2.6.6-.2 1.2-.5 1.9-.5 2.3 0 4.7-.3 7 0 .8.2 1.2-2.1 2-.2 0 .2-1.1 1.3-1.9 1.5-2.4.7-4.8 1-7.3 1.7-.6.1-1.7.6-1.7 1 0 1.6.1 3.4.8 5 .4.7 2 1.1 3 0l1.3-.7c.8-.5 1.4-2.3 2.6-.8.3.2-.9 1.7-1.4 2.6a3 3 0 01-.7.7c-1.5 1.2-3.4 3-5 2-1.8-1-4.2-2.4-3.7-5.8zM409 494c2.1 2.4.2 4.6 0 6.9l.3 1.9 1.4-1 .7-.6 3-2.2c1 1.3 2.3 2.5 2.5 4 .4 2.2.4 4.6 0 7-.4 3.4-3.4 4.7-6 5.5-1.4.4-3.4-1-4.8-2-.7-.5-1-2-1-3 0-1.5.7-3 .9-4.5l1-9.6c.2-.8 1-1.6 2-2.4zm4.5 17l1.5-7.3c0-.5-.3-1.2-.7-1.6 0-.1-1 .1-1.2.4a17 17 0 00-4.6 7.6c-1 2.8-.6 3.3 2.1 2.9.9-.1 1.6-1 3-2zM284.8 645.3c-1.2 0-2.1.2-2.4 0-1-1.3-1.8 2.1-2.5 0 0-.3 1.4-1.5 2.2-1.8 4.4-1.6 8.2 1.3 7.7 6-.1 1.2-.6 2.4-1 3.5l-1.2 3-.8-2.7c-.7-2.2-1.3 0-1.7.2-3.7 3.2-9.6 2.2-11.6-2-2-4.5.1-13.1 4.3-15.6 1.3-.7 3.3-.2 5-.1.3 0 .6.6 1 1-.5.1-1 .5-1.3.4-4-1.1-5.5 1.6-6.5 4.4-.8 2.2-1.2 4.7-1.1 7 .1 3.9 3.5 5.8 7 4 2-1 3.8-2.5 5.2-4.2 1.5-1.9-1.6-1.8-2.3-3.1zM412 529c.1-.5.3-.8.4-.8 1.8.3 2.6 2.6 5 2 1.9-.5 4-.2 6-.1.5 0 1 .4 1.5.6-.4.4-.8 1.2-1.4 1.3-2.2.5-4.4 1.2-6.6 1-3-.3-3 1.3-3 3.4.2 1.6.4 1.7 2.1 1.4 3-.7 6.2-.5 9.2-.7.3 0 .6.3.8.5-.3.3-.6.9-1 1l-6 1.5c-1.6.3-4-.2-5 .8s-.7 3.3-1 5l-1 3.6c-.1.3-.8.6-1.1.5-.4 0-.7-.5-.9-.9v-1.4c.3-2.4 1.7-5.3.8-7-1.5-2.8.6-4 1-6 .1-.4.2-1.2 0-1.3-4-1.5-.5-2.6.2-4.3zM295.8 514c-1.3-2.4-3.1-4.1-1-6.7.4-.5 0-1.7 0-2.5a8 8 0 0110.3-7.7c2.1.6 4 2.1 3.7 4.7-.6 4.5-1 9-4.7 12.5-3.6 3.4-3.5 3.5-8.3-.2zm9.5-9c.2-1.2.6-2.5.5-3.7-.1-.8-.9-1.9-1.6-2.2-2.5-1.1-7.1 1.8-7.3 4.6-.2 2.3-.4 4.7 0 6.9a5.6 5.6 0 003 3.3c1.6.7 2.3-.7 3-2.2 1-2 2.3-3.8 2.4-6.7zM515 500.8c.3-1.4-1.5-2.8.6-3.8a9.6 9.6 0 003.5-2.5c1.8-2.3 4.2-1.5 6.4-1.4 1.6 0 2.6 3.8 1.1 4.8-1.8 1.3-3.3 3.5-6.2 3.2-1-.2-3 .3-3 .4 0 2-.1 4 .6 5.7.9 2 3 2.5 5 1.5l2-1c1-.6 1.6-2.8 3-1 .3.2-1 2.2-2 3a8.5 8.5 0 01-9 1.2c-1.3-.5-2.4-2.6-2.7-4-.4-2 .2-4 .6-6.1zm11.2-5.3c-2.2-.8-4.4-1-6 1l-1 1.1c.5.2 1 .5 1.4.4 1.7-.6 3.4-1.3 5.6-2.5zM657.4 620.2c-3.4-1-2.8-4.2-2.5-5.7.8-4-.9-7.7-1.2-11.5 0-.6-.1-1.5.1-1.6.5-.3 1.5-.5 1.9-.2 1.4 1 2.7 2 2.8 4.3 0 1.8-1.4 4.1 1 5.7.7-1.6 1.1-3.5 2.3-4.7 1.2-1.3 1.4-4.3 4.4-3.3l1 .2c-.2.4-.3.8-.6 1a17.1 17.1 0 00-4.4 8.7c-.6 2.5-1.3 5.7-4.8 7.1zM320.6 600c-5.2 1.8-6.4 5.3-5.9 10.2.4 2.6-.5 5.3-.9 8 0 .4-.4 1-.7 1-.4 0-1-.3-1.2-.6a11.4 11.4 0 01-.6-8.3c.2-.8.5-1.5.5-2.3.4-4.6.4-4.6-4.4-4.8-.6 0-1.4.2-2 0-.5-.3-1.4-1-1.3-1.3.2-.7.8-1.5 1.4-1.6 2.3-.5 4.7-.8 7-1.1 2.4-.4 4.7-.8 7.1-1 .4 0 .8 1 1 1.7zM674.4 547.1c0 3-2.4 3.5-4 3.8-1 .2-3-1.1-3.8-2.3-1.4-1.8-2.3-4-3.1-6.1-.3-.6.5-1.6.8-2.4l1.1 1.6c1.3 2 2.6 4 4 5.8.3.4 1.1.3 1.7.4 0-.6.4-1.2.3-1.8-.2-.6-.7-1-1-1.6-3.1-4.5-2.5-12.7 1.4-16.1.9-.9 2.5-1.2 3.9-1.2.5 0 1.1 1.3 1.7 2-.6.3-1.3 1-1.9.8-1.9-.5-2 1-2.5 2-1.5 3.8-2.8 7.5 0 11.2.7 1 1 2.3 1.4 3.9zM373 586.2c-.7-2.1-1.8-3.6-2-5.2-.3-3.5.4-7.2-1-10.6-.3-.6-.3-1.4 0-2 .3-.5 1-1.2 1.5-1.2s1.3.8 1.4 1.3l1 12 .7 2.8c.1.3.5.5.7.7.2-.3.6-.6.6-1 .7-2.8 1.1-5.8 2.2-8.6.7-2 2.3-3.7 3.6-5.4.2-.3 1-.4 1.3-.2.3.2.6 1.1.4 1.3-2.8 3.4-3.6 7.6-4.4 11.7-.8 3.7-2.7 5.2-6 4.4zM535 647.5c.5 1.3 1 2.3 1.2 3.3.2 2.1-.5 3.6-3 3.5-2.8-.1-5.8.6-8.2-1.8-.4-.4-.5-1-.8-1.6.6 0 1.3-.3 2-.1 1 .2 2 .8 3 1 1 0 2.2-.3 2.7-.9.4-.5.2-1.9-.2-2.6-.7-1-1.8-2-2.8-2.8-4.1-3.3-3.5-10.6 1.2-12.5 1.8-.7 4-.3 6-.3.4 0 .7.6 1 1l-1.1.5c-1.7.4-3.5.4-5 1.1-2.2 1-3 4.8-1.6 6.6 1.6 2 3.5 3.6 5.6 5.6zM320.6 636.5c4.2 2.4 5.3 4.2 4.2 8-1 3.5-2.6 6.8-5.7 9-.6.4-1.6.2-2.4 0-2.8-.6-3.8-2.8-3.8-5.2 0-3.3.4-6.7 1-10 .6-3 3-3.6 6.7-1.8zm-4.7 9.3c0 1.1-.3 2.4 0 3.4.3.8 1.1 1.7 1.9 2 .4.1 1.5-.7 1.8-1.3 1-1.8 1.6-3.7 2.3-5.6 1.1-3.5.9-4.3-1.9-6.3-.5-.4-1.7-.3-2.3 0-2.8 1.6-1.6 4.4-1.8 7.8zM419 646.3c0 1.7-1.3 2.8 0 4.2.2.2-.3 1.1-.4 1.7-.7-.3-1.5-.5-2-1-.4-.4-.6-1.1-.6-1.7V636c-.1-2.4 2-2.3 3.1-2.6 3.1-1 6.4-1.6 9.6-2.1.8-.1 1.8.4 2.6.8v1c-1.3.5-2.4.9-3.6 1.1l-6.6 1a3 3 0 00-2 4.3c.2.4 1 .7 1.5.7l6 .1c.5 0 .9 1 1.4 1.4l-1.6.5c-2 .4-4 .9-6.1 1-2.1.2-1 1.7-1.3 3zM476.1 647.3c2-2.5 2-4.3.2-6.5-1.6-2-3-4-4.1-6.3-.3-.5.2-1.5.4-2.2.5.4 1.1.7 1.5 1.2l4.9 6.7 3.4-6.7c.7-1.2 1.5-2.4 2.5-3.5.3-.4 1-.5 1.6-.8.2.8.8 1.6.6 2.2-.7 1.7-1.8 3.2-2.5 5-2 4.5-4.5 8.8-5.5 13.7 0 .4-.3 1-.6 1.2-.4.4-1 .7-1.6 1-.3-.5-.7-1-.8-1.5v-3.5zM439 500c4.1.5 3.9.4 3.2 4.5-.4 2.6 0 5.3-.2 8 0 .4-.3 1-.5 1.4-.5-.4-1.4-.9-1.4-1.4l.3-8.3.3-1c-.6.1-1.4.1-1.6.5-.8 1.3-1.4 2.7-2 4-.4.8-.6 1.7-1 2.1-1.4 1.2-3 3.1-4.3 3-2.3 0-1.5-2.6-1.8-4.3-.5-3.3 1-6 2.6-8.4 1.7-2.7 3.3-2.7 6.2-.3-1.4.3-3.1 0-3.4.6-1.6 2.7-3 5.6-2.3 8.9 0 .2.8.4.8.4l5.2-9.7zM626.3 645.3v-4c-.2-3.4-1.5-4.7-4.9-5l-2.2-.7c-.3-.1-.5-.5-.7-.7.3-.2.6-.5 1-.6 4.2-1.7 8.6-1 13-1 .6 0 1.2 1 1.8 1.4l-1.7.5-3 1c-.6.4-1.2 1.5-1.1 1.6 2.4 2-.1 4.5.7 6.8.8 2.3.2 5 .1 7.5 0 .7-.5 1.8-1 2-1.4.7-1.6-.6-2.3-1.5-1.6-2.5-.3-4.6.3-7.3zM464.8 501.8c.3-3.3.3-6.3.3-9.3l.3-1.3c.5.3 1.3.7 1.4 1l.3 5c0 1 .3 1.8.5 2.8.9-.6 1.9-1 2.7-1.7 1-.7 1.7-1.6 2.6-2.2.5-.3 1.3 0 1.9.1-.3.5-.4 1-.8 1.4l-6 6c-1.1 1.2-1.7 1.8.6 2.5 2.8 1 5.3 2.6 7.8 4 .4.2.4 1 .6 1.5-.4.2-1 .5-1.3.4a65 65 0 01-5.7-2c-1.1-.5-2.2-1.2-3.2-1.8-.3 1.1-.4 2.3-.8 3.4-.2.5-.9 1-1.4 1.4-.1-.6-.5-1.1-.5-1.7.1-3 .3-6.2.7-9.5zM649.4 502c1.6-1.8 3.1-3.3 5-4.3.8-.4 2.2 0 3.3.2.3 0 .7.9.6 1-.2.5-.8 1.1-1.2 1-3.2-.1-4.5 2-5.7 4.4l-4 7.4c-.5.8-1 1.7-1.6 2.3-.5.5-1.4 1-2 .9-.6-.2-1.3-1.1-1.4-1.8-.2-1.8-.7-4.1.1-5.4 1.4-2.1.4-4.2 1-6.2 0-.5.8-1 1.3-1.4.2.5.5 1 .6 1.6v5c0 .5.3.9.5 1.3.3-.3.8-.6 1-1 .9-1.5 1.7-3 2.5-5zM441.8 632.5c.6 1 1.3 1.7 1.2 2.3-.5 4-1 7.8-1.8 11.7-.2 1.3.3 2.3 1.2 1.7 2.2-1.6 4.5-.7 6.7-1 .9 0 1.8.3 2.8.4-.8.9-1.6 2.3-2.5 2.6-3 .6-6 1-9 1-1.7-.2-2.6-2.3-2.3-4 .8-5 .3-10.4 3.7-14.7zM451.3 504.3c-.2 2-.5 4-.1 5.7.2 1.2 1 3 3 1.5s4.1-3 6.3-4.3c.3-.2.8 0 1.3 0l-.5 1c-1.6 2.6-3.3 4.9-6.5 6-4.3 1.5-7.6-.4-7.8-5-.1-4.2 1.3-7.6 4.6-10.1.8-.6 2-.9 3-1 .5 0 1 1 1.5 1.4-.5.2-1 .2-1.3.5l-3.5 4.3zM532.2 535l.4-6.8c0-.4.7-.7 1-1l.6 1c1 2-.1 4.1 0 6.2v7c0 .5.4 1 .6 1.6.4-.4 1.2-.8 1.3-1.4l3.1-10.7c.2-.6.2-1.3.5-1.8.4-.5 1-.7 1.6-1 .3.6 1 1.4.8 1.8-1 2.3-.6 4.9-2.1 7.1-1.6 2.4-2.3 5.4-3.3 8.1-.5 1.2-.8 2.7-2.6 2-1.4-.5-2-1.5-2-3 .2-2.8.1-5.7.1-9zM517.2 603.2c-1.2.3-1.9.6-2.6 1 0-.7-.1-1.7.2-2 1.3-1.5 11.3-2.8 13-1.8.2 0 .4.6.4.8-.2.4-.5.9-.8 1-4.2 1.3-4.2 1.3-4.2 5.1 0 3.1.6 6.2.8 9.3 0 1.4-.5 3-1.1 4.4-.4.8-1.3 1.5-2 2.2-.2-.8-.7-1.7-.7-2.5.2-3.2-.4-6.3.8-9.6.9-2.1-1.2-5 1-7.2-.3-.3-.5-.7-.8-.7h-4zM445.3 543.3c1.2-2 2.5-3.7 1.5-6v-1.2c.8.2 2 0 2.2.5 1.6 3-1.7 10.2-5 11.5-4.2 1.6-7.8-.8-6.8-5 1-4 2-8.4 6.6-10.2.4-.2.8-.9 1.1-.8.7.3 1.3.9 2 1.3l-1.3.7c-3.8 2-6.1 6.5-5.5 10.6.1.7.7 1.4 1 2 .7-.3 1.3-.6 1.8-1 .8-.6 1.5-1.4 2.4-2.4zM550.5 538.8c.4 1.2.7 2.1.7 3 0 3.2-1.2 4.5-4 3.1-1.8-1-4.7-1.3-5-4.4 0-.4.3-.8.4-1.3l.7.5c1.5.8 4 2.5 4.3 2.2 1.8-1.8-.4-3.3-1-5-1.5-4 .2-8.9 3-11 1.7-1.3 2.5-.4 3.7.2.4.2.6.9 1 1.3-.4.2-.8.6-1.2.7-3.9 1-4 1-3.8 5 0 1.8.6 3.6 1.2 5.7zM542.2 505c-.2 5.4-1.8 6.3-5.9 4-2.3-1.2-4.2-2.9-4.4-5.8 0-.3-.2-.7-.4-1 .5 0 1-.2 1.4 0l5.6 4.5c.3.3 1.1 0 1.7-.1-.1-.5 0-1-.3-1.3-.8-1-2-1.6-2.4-2.6-1-2.2-2.1-4.4-.5-7 1.1-2 1.8-3.8 4.4-3.7.6 0 1.2.3 1.8.5l-1 1c-4 4.3-4 4.5-1 9.5.3.5.7 1 1 2zM500.1 501v-6c.1-.3.6-.6.8-1 .4.4 1.1.7 1.2 1l1 9.1.5 1.9c.5-.6 1.4-1.1 1.5-1.7.5-3.1 2.6-5.3 3.9-8 1-2 2-1.1 3-1.2 1.5-.2.9.4.4 1.3-1.8 3.2-4.4 6-5.4 9.7-.3 1.2-2.1 2.6-3.4 2.8-2 .3-2.4-1.5-2.5-3.3 0-1.4-.6-2.7-1-4.6zM368.2 535.8c.6.3 1 .2 1.2.3.2 0 .3.4.3.7l-.3.3c-7.2-1-8.8 4.9-11.5 9.4v.5l-2.7 2.9c-.4-1.2-1.2-2.3-1.2-3.5-.2-3.2-.1-6.3 0-9.5 0-.6.2-1.2.4-1.8.5.6 1.4 1.2 1.5 1.8.2 1.9 0 3.7 0 5.5 0 .6.4 1 .6 1.6.5-.5 1.4-1 1.4-1.4-.5-2.8 2-3.6 3.2-5.2 1.8-2.4 4-3.2 7-1.6zM617.6 548.4c-.3 1-.2 1.9-.3 2.7 0 .4-.5.9-.8 1-.3 0-1-.3-1.1-.6-.4-2.1-1.5-4.6-1-6.5 1.5-4.2 2.1-8.3 2-12.7 0-.6-.1-1.3.2-1.9.2-.5 1-1.2 1.3-1.1.6 0 1.4.8 1.4 1.3l-.3 6.3c-.4 3.8-.8 7.5-1.4 11.5zM582 548.9c-1.8-2-2.1-4.6-1.8-7.3.5-4 .7-8 1.1-12 0-.5.5-1 .7-1.5.5.5 1.3 1 1.2 1.5-.4 5.2 1.2 10.4-.9 15.5-.4 1 0 2.3-.3 3.8zM388 578.2c-.3-2 2.3-3.3 0-4.7-.2-.1 0-.6 0-1 0-2.5 2-5.8 3-5.3 2.1 1.2 1 3.5.9 5.2-.3 3.4-1.2 6.8-1.8 10.2l.1 1.3v2.3c-.7-.7-2-1.3-2.1-2.1-.4-1.8-.1-3.6-.1-6zM670.2 578.9c.2-2.6.2-4.9.2-7.2 0-1 .4-1.8.7-2.7.2-.6.7-1.1 1-1.7.4.7 1.2 1.3 1.3 2 .1 2.1.1 4.3 0 6.4-.2 1.5-1 3-1 4.6 0 2.7-.7 5.2-2 7.6l-.5 1.3c-.2-.5-.5-.9-.5-1.3.2-3 .3-5.8.8-9zM430 533c.2-1.5 0-2.7.5-3.7.2-.6 1.2-.8 2-1.2.1.5.6 1.1.5 1.6l-2 16.2c0 .5-.7.8-1 1.2-.4-.5-1-1-1-1.4l1-12.6zM482.1 510l3-15.6c.3-.9 1-1.6 1.5-2.4.2.8.5 1.5.5 2.3.5 5.5-.9 10.6-3 15.7-.5 1.4-1 1.3-2 0zM403 606.2v10.5c0 .5-.5 1-.8 1.5-.4-.3-1-.6-1.2-1-.4-1.5-1-3.1-1-4.6.5-4.3 1.2-8.5 1.9-12.7 0-.5.6-.9 1-1.3.2.5 1.2.5.6 1.8-.7 1.5-.4 3.5-.5 5.8zM327.9 605.2l-1 14c0 .3-.2.5-.3.8-.4-.2-.8-.4-1-.7-.3-.2-.7-.4-.7-.7 0-4.7.1-9.5.3-14.2 0-1.4.4-2.8.7-4.2 0-.4.5-.7.7-1 .5.3 1.2.7 1.2 1 .2 1.5 0 3 0 5zM321.9 502c.3 1 1 1.6 1 2.1l-2 11c-.2 1-.7 1.8-1 2.6l-.5 1.3c-.5-.4-1.3-.8-1.4-1.3a18 18 0 010-5 113 113 0 012-10c0-.5 1.2-.8 1.9-.7zM425 497c.3 5.7-.6 10.7-2 15.7l-.4 1.3c-.5-.4-1.3-.8-1.4-1.3-.2-1.3-.3-2.7-.1-4 .5-4.2 1.2-8.4 2-12.6 0-.4.7-.7 1.1-1 .3.4.6 1 .8 2zM328.9 497c.2.6 0 1.7-.3 1.7-5 .9-10 1.6-15 2.3-.6 0-1.2-.4-1.7-.6.4-.4.8-1.2 1.3-1.3 3.2-.8 6.4-1.5 9.7-2 1.8-.3 3.7 0 6 0zM491.1 505l1.1-7.5c.2-.6 1-1 1.4-1.4.2.5.6 1.1.5 1.7l-1 10c-.1.8-.8 1.4-1.3 2-.2-.7-.5-1.5-.6-2.3-.2-.6 0-1.3 0-2.5zM517.2 637.2l-.7-1.2-1.3-2.3c.4-.2 1-.5 1.3-.4 1 .4 2.2.8 2.6 1.6.4.8-.1 2-.3 3.2-.5-.1-1-.2-1.6-.9zM494.9 489.3c.2.5.4 1 .2 1.1l-1.6 1.5c-.1-.3-.3-.5-.3-.8 0-1-.4-2.4 1.7-1.8zM451.8 494.8c-.3 0-.3-.4-.3-.7.2.2.4.3.3.7z"/>
  <defs>
    <pattern id="pattern0" width="1" height="1" patternContentUnits="objectBoundingBox">
      <use transform="matrix(.00248 0 0 .00228 0 0)" xlink:href="#image0"/>
    </pattern>
    <pattern id="pattern1" width="1" height="1" patternContentUnits="objectBoundingBox">
      <use transform="scale(.00246 .00222)" xlink:href="#image1"/>
    </pattern>
    <image id="image0" width="404" height="815" xlink:href="ashadowbans.jpg" />
    <image id="image1" width="406" height="450" xlink:href="bshadowbans.jpg"/>
  </defs>
</svg>
