<svg xmlns="http://www.w3.org/2000/svg" xmlns:xlink="http://www.w3.org/1999/xlink" fill="none" width="387" height="993" viewBox="0 0 387 993">
  <defs/>
  <path fill="url(#pattern0)" d="M44 153h306v333H44z"/>
  <path fill="url(#pattern1)" d="M44 489h306v341H44z"/>
  <path fill="#00EBAB" d="M32.4 349.2c.3-3.1.7-6 .5-9-.1-2.7-2.3-2.6-4.4-2.7-2 0-2 .7-2.7.7-.4 16-1 27-1.4 43 0 2.5.7 5 .7 7.6V433c.3 40.4.7 80.9.7 121.4 0 36-.4 72.2-.7 108.3 0 4.7-.4 9.4-.7 14-.1 2 .4 2.5 2.6 2.2 3.2-.3 6.5.4 9.7.4.7 0 2-1 2-1.6-.1-3.4-.3-6.7-.8-10-.2-2.3 1.4-5.2 3.8-5.3 2.6-.1 5.3.5 8 .5 4.1 0 8.3-.3 12.5-.6 4.7-.3 9.4-1.1 14-1.3 6.3-.3 12.5 0 18.8-.1 6.3-.1 12.6-.6 19-.6 7.1 0 14.3.4 21.5.6 1.8.1 3.7.3 5.4.8.6.2 1.4 1.5 1.4 2.3.1 5.3.2 10.6 0 15.9 0 2.4 0 4.9-.8 7.1a5.5 5.5 0 01-3.5 3.1c-7.2 1.5-14.2 3.5-21.8 2.4-3-.5-6.2.5-9.3.6-10.5.3-21 .8-31.5.6-8.5-.2-17-1.4-25.6-2-2.4-.1-4.8.3-7.2.8-3 .6-5-1.4-4.3-4.4 1.1-4.1.2-5.5-4-5.7h-9.7c-.8 0-1.6 1-2.3 1.5l-1.4 1c-.2-.5-.8-1.1-.7-1.7.1-3.5.6-7 .6-10.4v-30l.7-64.6v-24c0-6.7-.7-13.3-.6-20 0-13.6.6-27.2.6-40.9l-.6-135.6c0-5.5.6-11 .6-16.5 0-5.2-.7-10.3-.6-15.5 0-13.4.4-27 .7-40.4 0-5 .6-9.8.6-14.7 0-6.3-.6-12.5-.6-18.7 0-9.5.5-19 .6-28.4.3-21.2.4-42.5.8-63.7.2-10.9 1.1-21.8 1.3-32.7 0-4.6-1-9.3-1.3-14 0-2.9.7-5.8.6-8.7 0-9.6-.2-19.3-.7-29-.2-4.4 3-6.6 7.6-5.9 3.6.6 7.2.6 10.8.8.7 0 1.5-.5 2.2-.8l-1-1.5c-.7-1-1.5-1.8-2-2.8-.4-.6-.4-1.5-.6-2.2 1.1 0 2.4-.5 3.2 0 4.7 3 6.2 9 3.6 14l-3 5.8c-.3.5-1.1.7-1.7 1-.4-.6-1.2-1.3-1-1.9.2-1.4 1-2.9 1.5-4.3l1-2.2c-.8-.3-1.5-.8-2.3-.8-3.8 0-7.6-.3-11.4.1-1.2.2-3.1 2-3 3 .2 6 1.2 11.9 1.7 17.8.1 2-.5 3.8-.5 5.7v11.5c-.2 14.2-.7 28.5-.6 42.7 0 6.2 2.7 12.5 1.8 18.4-3 19-1.4 38-2 57l-.6 24-.8 74.3c0 3 1.2 4 3.7 4.2 2.5.3 3.9-.4 3.5-3.2-.7-5.6 1.4-7.1 6.8-6.9 7.8.3 15.5.2 23.3 0 8.2 0 16.5-.4 24.7-.6 11-.3 22-.7 33-.7 9.5 0 19 .4 28.6.7 2.8 0 5.5.3 8.3.7.9.2 1.7 1.1 2.5 1.7-.6.4-1.4.7-1.9 1.2-.6.6-1.5 1.4-1.5 2.2-.2 4.2-.4 8.4 0 12.6.4 3.9-.3 7.4-1.6 11-.2.7-.7 1.3-1 2-.4-.5-.9-1-1-1.7-.8-2.3-2.4-2.7-4.6-2.6h-19.3c-11.2.4-22.3 1-33.4 1.5l-14 .7-37.7 1.4c-1.2 0-2.4-.5-3.6-.6-2.6-.4-3.9 1.2-4.8 3.4-.2.5-.8.9-1.2 1.4-.3-.5-.8-1-.9-1.4 0-2.4-3.6-4-1.3-6.9zm107.5-23c-4.8-.3-9.6-.8-14.4-.7l-52.2.6-34 .7c-2 0-2.8.5-2.8 2.6l.1 16.5c0 .8 1 2.2 1.7 2.3 2.6.5 5.3.8 8 .8 6.4-.1 12.8-.5 19.3-.7 3.4 0 6.8.2 10.1 0 12.6-.7 25.2-1.7 37.7-2 11.8-.4 23.6-.2 35.4 0 3.3 0 4.2-1.6 4.3-4.4l.7-9c.7-5.7-.2-6.8-6-6.8h-8zm-75.5 340c-6 .2-12.2.4-18.4.4-2.7 0-3.9 1-3.7 3.8.2 5 .3 10 .8 15 0 1 1.4 2.3 2.3 2.5 4.4.5 8.8 1 13.2.8 4.8 0 9.6-1.2 14.4-1.2 5.6-.1 11.2.7 16.8.5 8.4-.2 16.8-1 25.1-1.3 6.8-.2 13.6-.1 20.4 0 2.1 0 2.9-.7 2.8-2.9 0-5.5.1-11.1-.1-16.7 0-1-1.4-2.4-2.3-2.5-7.7-.4-15.5-.9-23.2-.7-8.6.1-17.2.9-25.9 1.3-7.2.3-14.5.5-22.2 1zM364.8 131.8v-50c0-3.3-1-4.6-4.3-4.4-2 .2-4 0-6 0-1.4.1-2.7.4-4 .6.8 1 1.7 1.9 2.3 3 .8 1.2 1.4 2.5 1.9 3.8.1.5-.4 1.4-.9 1.7-.3.2-1.3-.2-1.6-.6-3.4-3.5-6.7-7-9.9-10.6-2.1-2.4-1.5-4.6 1.2-6.4 1.7-1 3-3 4.8-3.8 2.3-1 5-1.4 7.4-1.9.6 0 1.3.8 2 1.2-.6.5-1 1.2-1.6 1.6-2.1 1.6-4.3 3-6.3 4.7-.5.4-.5 1.4-.8 2.1l1.8-.3 15.7.7c.7 0 1.7 1 1.8 1.7v13.6c3.3 5.5 2.1 11.6 2.1 17.4 0 6-.5 12-.6 18v62.4c.1 9.8.6 19.6.6 29.4 0 6.5-.5 13-.6 19.5v57.4c0 9.4.3 18.9.7 28.3.3 6.6 1.3 13.2 1.3 19.8.1 8.4-.3 16.8-.6 25.2l-.7 20.2c-.5 13.3-1.2 26.6-1.4 39.8-.1 8.9.6 17.7.6 26.5v51c0 7-.4 14-.6 21-.3 7.3-.6 14.4-.7 21.6v12c-.2 5.5-.6 11-.7 16.5 0 2.6.6 5.1.6 7.6 0 4-.5 8-.7 11.9-.2 6.1-.7 12.3-.6 18.4 0 12.9.3 25.8.7 38.7.2 8.1.8 16.3 1.4 24.4.2 2.5-1 4-3 4.3-2.7.5-5.5.4-8.2.4-2.1 0-4.4-.3-6.4.2-1 .2-2.1 2-2.4 3.1-1 4.7-6 9.9-10.6 10.3-4.9.4-9.8 1-14.7.6-10-.6-20-1.8-30-2.7l-6.8-.7c-4.2-.4-7.5-2.1-9-6.4a11 11 0 00-2-3.1c-2.1-2.7-4.4-5.3-3.1-9.1 1.7-5 6-7.5 10.3-8.4 9.6-2 19.5-3.4 29.2-3.5 6.9-.1 13.8 2 20.7 3.4 6.5 1.3 12 4.4 15 10.8.4.6 1.3 1.1 2 1.2l11.2.8c2.1.1 2.8-.8 2.8-2.9v-38.6l-.8-54.4v-27.7l.7-29v-14c.2-5.3.6-10.6.7-15.8.2-6.4.1-12.7 0-19.1 0-4.4-.6-8.9-.6-13.3 0-10 .5-20 .6-30v-15.6c.3-12.6.4-25.3.8-38 .3-10.2 1-14.5 1.4-24.8.2-2.9.7-5.8.6-8.6 0-1-1.4-2.4-2.3-2.5-4.4-.5-8.3-.2-11.4 4.4-2.9 4.3-8 6.4-13.4 7-6.6.6-13.2 1.6-19.9 2a60 60 0 01-11.5-.7c-5.7-.7-11.4-1.5-17-2.9-7.6-1.8-15.2-3.8-20.9-10-1.8-2.1-2.4-3.9-1.1-6.3.6-1.3 1.5-2.6 1.7-4 .6-5.4 4.6-7.7 9-8.8 5.8-1.5 11.7-2.4 17.7-2.9 7.1-.6 14.3-.7 21.5-.7 9.3 0 18.6.6 27 4.8 5 2.5 9.7 6 11.7 12 .3 1 2.5 2.4 3 2.1 1.8-1 5.7 1.2 5.4-3.8-.6-10-.6-26.3-.8-36.4v-7.6l-.7-37.4V235c0-4.2.6-8.3.6-12.4 0-4.3-.5-8.7-.6-13 0-2.8.7-5.6.6-8.3 0-11.4-.4-22.7-.6-34l-.7-35.5zm-60.5 218.4c5 .4 10.1 1.3 15.1 1.3 6 0 11.8-.7 17.6-1.4 6-.8 11.8-2.1 15.9-7.6 2.5-3.4 2.6-5.2-1.2-7.2-3.4-1.7-6.8-3.5-10.3-5.1-2.4-1.1-4.9-2.5-7.4-2.8-6-.8-12-.9-18-1.6a64.7 64.7 0 00-38.5 8.7c-3.5 1.8-3.9 4.3-1 7 1.1 1 2.7 1.7 4.1 2.2a243.9 243.9 0 0023.7 6.5zm6.5 315c-4.5.5-9 .7-13.4 1.5-6 1.2-11.9 3-16.4 7.6-2.8 2.7-3 4.4 0 6.8 2.5 2 5.5 4.1 8.4 4.7 9.5 1.8 19 3.3 28.6 4.3 4 .5 8.2-.3 12.2-.6 3-.2 5.9-.1 8.6-.8 1.7-.4 3.7-1.6 4.4-3 3.7-7.5 1.4-13.1-6-15.4-2.6-.9-5.4-1.1-8.1-1.8-5.8-1.5-11.3-4.4-18.3-3.3zm-30 5l2.4-2.4-3.4 1-.6.1-3 4 4.5-2.7zm66.4-343l-4.6-.1 4 2.3h.7l2.1.7-1.3-2-.9-.8zm-63.6 1.5v-1.4l-4.3 1.4-.2.5 4.5-.5z"/>
  <path fill="#00EBAB" d="M183.1 661v23.9c-.2 17.6-.7 35.3-.6 53 0 13 .9 26.2 1.4 39.4l.6 18c0 2.2.7 3 3 3 6.3-.4 11.1 3.2 16 6.4 2.1 1.4 1.2 6.8-1 9.7-3.4 4.1-8.2 5.3-13 5.9-4.6.6-9.3.6-14 .8H165c-.6 0-1.6 1-1.8 1.6a3821.4 3821.4 0 00-11.5 36.3l-.4 2.8c1-.2 2-.3 2.9-.7 2.8-1.3 5.5-2.8 8.4-4 .9-.3 2.2.5 3.3.8-.5.8-.9 2-1.7 2.4a73.4 73.4 0 01-7.3 3.8c-7.3 3.4-9.6 2.8-14.4-3.3-1.5-1.7-3-3.5-4-5.5-.4-1 .7-2.5 1-3.8 1 .4 2.2.6 2.7 1.4 1.7 2 3 4.2 4.5 6.3.3.3 1 .5 1.5.4.2 0 .6-.6.6-1 .5-10 5.3-18.9 8.4-28.3.8-2.6 2.2-5 3.1-7.6.2-.4-.5-1.5-1-1.5-6.8-1-13.7-1.8-20.5-3-4.8-.9-9.6-2.3-14.3-3.6-.8-.2-1.9-.6-2.3-1.2-1.5-2.4-4-5-3.8-7.2.4-4.2 4.7-6 8.2-7.1 5.5-1.8 11.4-2.4 17-3.9 1.5-.4 3.4-2.3 3.6-3.7.7-4.5.8-9 .8-13.6 0-.9-1.7-2.6-2.2-2.4-7.1 1.5-14 .4-21-1-.2 0-.3-.4-.5-.4-5-.3-8.8-2.8-9-8 0-4.5 1.4-9 5.5-11.6 2-1.2 4.7-1.4 7-2l1.7-1.1-1-1c-2.9-2.5-6-4.8-8.7-7.4-4.3-3.9-8.4-8-12.7-11.8-1-1-2.8-1.5-4.3-1.6-7.2-.2-10.6-5-8.3-12 1-3 2.7-5.4 6-6.8 3-1.2 5.2-.6 6.6 1.8 2.1 3.6 3.7 7.5 1 11.7-.4.8 0 2.7.7 3.3 2.8 2.7 6 5 8.9 7.7 3.2 3 6.5 6 9.2 9.4 4.2 5.1 9.6 6.7 15.8 7 8.3.5 16.4 2.3 24.4 5 2.7.9 5.5 1.4 6 4.8.5 3.2-1.7 8.1-5 9.4-3.8 1.6-8 2.9-12 3.6-2.6.5-3.6 1.3-3.8 3.9-.2 4.8-1 9.6-1.2 14.4 0 .8 1.2 2.4 2 2.5 8 .8 16 1.6 24.2 2 1 0 2.9-2 2.8-3.2-.1-5.9-.7-11.8-1.2-17.6v-.7c-.5-10.2-1.4-20.4-1.4-30.5 0-15.7.5-31.3.6-47 0-4.8-.7-9.6-.6-14.4 0-8.5.5-17 .6-25.5v-30.3c0-5-.7-9.9-.6-14.8.3-13.4 1-26.7 1.3-40.1.4-10.8.4-21.5.8-32.3.3-8.3 1.3-16.6 1.3-24.9.1-11.5-.3-23-.7-34.5 0-.7-1.4-2-2.3-2-2.7-.4-5.6.3-8.3-.3l-29.1-6.3c-4.6-1-5.5-5.1-5.7-8.6-.1-2.1 2-4.7 3.8-6.4 3.6-3.5 8.3-4.4 13.2-4.3h7.1c7.4 0 7.4 0 9.2-7 1.2-4.3 1.3-9 4.7-12.4-.8-.7-1.5-1.8-2.4-2-9.4-1.8-18.8-3.4-28.3-5.1-1.8-.4-3.5-1.4-5.1-2.2-2.8-1.4-2.3-6.7-.4-9.4 2.6-3.7 6.2-5.4 10.9-5.6 5-.3 10.1-1.3 15.2-2.2.4 0 1.2-1.4 1-1.7-3.4-6-6.8-11.8-10.4-17.6a3.2 3.2 0 00-2.2-1.3c-6.8 0-9.1-4.9-10-11.4-1-6.5 1.6-10.5 7-11.9 3.1-.8 10.4 2.3 12.7 5.6 2.4 3.5 2.2 6-1.4 10.2-2.3 2.7-3 4.8-.7 8.1 3.5 5 6.4 10.5 9.4 15.7 1.6 2.7 3.6 3.6 6.8 3.8 12 .7 23.9 1 35.2 5.6 5 2 7 6.5 6.6 11.9-.3 3.3-5.1 6.6-9.2 6.7l-22.6.7c-2.3.1-4.6.4-6.9.8-.7.1-1.7.8-2 1.4-1.7 5.5-3.2 11-4.8 16.6-.7 2.1.4 2.8 2.3 2.7 9.3-1 17.8 2.5 26.5 5 2.9.8 6.5 5.5 6.7 8.5a7.2 7.2 0 01-4.8 7.8 56.5 56.5 0 01-13 2.9c-4.6.5-5.8 1.5-5 5.8.3 1.9.6 3.8.6 5.7.1 15 .2 29.8 0 44.7 0 12.7-.4 25.3-.6 38v14.7c-.2 5-.7 9.9-.7 14.8-.1 19.7 0 39.4 0 59.4zM165 816.7c7.7 0 15.5.2 23.2-.1 2.8-.1 5.8-1 8.4-2.1 4.5-2 5.8-6.5 2.5-8.6a28.4 28.4 0 00-9-4c-4.6-1-9.3-1.2-14-1.6-3.8-.4-7.7-.3-11.5-.8-9.3-1.2-18.6-3-27.8.7-1.5.6-3.5.2-5 .8-3 1.2-6 2.8-9 4.4-.3.2-.4 1.8 0 2.6 1.8 4.5 6.2 4.2 9.9 5a129.8 129.8 0 0032.3 3.6zm-6.4-389.7c5.3.7 10.6 2 15.9 2 11 0 22-.9 33-1.2 2.7-.1 5.2-.6 5.7-3.6.4-2.9.3-6.2-3.4-7.3-3.9-1.2-8.2-1.4-12-3-5.9-2.6-12.1-2.4-18.1-2.4-11.3 0-22.5 1.2-33.8 2a7.6 7.6 0 00-6.6 5c-.7 1.8-1.3 3.7 2 4.3 5.7 1 11.3 2.5 17.3 4.2zm13.6 30c-.8-.2-1.5-.7-2.2-.6-4.6.4-9.2 1.6-13.7 1-5.7-.6-10.6.2-15.4 3.2-2.4 1.5-2.7 3.7-1.6 5.6 1 1.6 3 3.1 4.8 3.6 7.5 2 15 3.6 22.5 5 4 .8 8 1.5 12 1.4 4.2-.1 8.4-1.1 12.6-2a95 95 0 009.9-2.9c2.8-1 3-3.7 1.8-5.4-1.3-2.1-3.6-4.5-5.9-5.1-7.9-2-15.7-5-24.8-3.8zm-13.6 300.4l-4.4-.8c-4.3-.5-8.7-.7-12.9-1.6a27 27 0 00-18.2 2.4c-3.1 1.6-4 5-3.3 8.3.3 1.6 2 3.3 3.5 4 2 1.1 4.4 2 6.7 1.9 10.4-.3 20.8-.6 31.2-1.6 2.6-.2 5.3-2.3 7.4-4.2 2.3-2.3 1.4-4.5-1.8-5.6l-8.2-2.8zm-13.3-380c2.5 7.1 5.3 6.5 9.4 2l1.3-1.3c3.6-3.6 3.5-5.6-.6-8.6-4.4-3.3-9.2-2.2-10.4 2.6-.4 1.3.2 3 .3 5.2zM97.3 720.5c.9 1.8 1.5 3.8 2.7 5.3.3.4 3 0 3.3-.7 1.2-2.2 2.3-4.6 2.4-7 .1-1.4-1.4-3.6-2.7-4.1-1-.4-3 1.1-4.1 2.3-.9.8-1 2.3-1.6 4.2zM191.2 876c2 7-2.2 10.4-7.5 13l-1.8.7c-2.7 1.2-4.4.4-4.4-2.7 0-3.2.5-6.5.6-9.7.1-3.4-.8-4.1-4.2-3.3a28 28 0 00-4.7 1.6c-.5.2-.6 1.2-.8 1.9.6.1 1.3.4 2 .3l4.8-.2c.5 0 1 .8 1.5 1.3-.5.5-1 1.4-1.5 1.5-1.6.2-3.2-.2-4.7.1-1 .2-2 .9-2.8 1.6-.3.3 0 1.5.3 2 .2.3 1.1.2 1.7.1.5-.1 1-.7 1.5-.7 1 0 2 .4 3.1.6-.5.7-.9 1.5-1.5 2-1 .8-2.2 1.5-3.5 2-2.4 1-4.7-.8-4.7-3.5 0-2.8.1-5.7-.1-8.5-.2-2.7 1-3.6 3.3-4.3a34 34 0 0120.3.9c1.2.3 2 2 3 3.3zm-3.8.5c-3.8-2.5-5.9-2.2-6.3 1-.4 2.6-.2 5.3 0 7.9 0 .4 1 1.1 1.3 1 3.1-1.3 5.9-6.3 5-9.9zM152.2 872c1.7 3.3.5 6.2-1.5 8.1-2.7 2.7-.9 3.5 1 4.6 1 .5 2 .6 2.8 1.1.7.4 1.3 1.2 1.9 1.7-1 .5-2.1 1.6-3 1.4-1.6-.3-3.5-1-4.7-2.1-2.2-2.2-2.7-.8-3.4 1-.4 1.2-1 2.3-1.6 3.4-.7-1.5-2-3-2-4.4.2-3.5 1-7 1.3-10.5 0-.7-1.3-2-2.2-2.2-2.1-.3-4.5-.2-4.8 2.8-.4 3.7-.5 7.4-.8 11.1 0 .6-.6 1.2-1 1.7-.5-.4-1.4-.9-1.4-1.4-.2-3.4-1-7-.2-10.2.7-2.7.3-2.6-1.8-2.7-1.2-.1-2.3-1-3.4-1.5 1-.7 2.1-1.9 3.2-2 4.3-.2 8.7 0 13 0 1.3-.1 2.8-.2 4-.8 1.8-1.1 3.2-.8 4.6 1zm-2.7 4.5l.2-2.5c-1 .6-2.3 1-3 2-.3.7.2 2 .3 3l2.5-2.5zM110 871c2-.8 3.7-1.5 5.6-2 .5 0 1.2.9 1.8 1.3-.6.5-1 1.2-1.6 1.5-.7.4-1.5.5-2.3.7-2 .6-2.6 1.6-1 3.5a14 14 0 012.6 4.5c.4 1.5.6 3.7-.2 4.6-1 1-3 1-4.7 1.4-1.4.3-2.9.1-4.1.6-3.3 1.4-5.1-1.3-7.6-2.3-.5-.2-.8-.9-1.3-1.2l-2-1-.7 2-1.6 3.7c-.7-1.4-1.9-2.7-1.9-4 0-3.4.3-6.8.7-10.1.3-2.7 7.5-5.7 9.8-4.3 1.4 1 1 5.9-.5 8-.8 1-1.3 2.2-1.9 3.2 1.7.4 3 1.7 5.2.8 1.5-.6 3.7.4 5.5.7l2.7.2c-.3-.7-.5-1.4-.9-2-.7-1.3-1.3-2.7-2.3-3.7-2.2-2.3-1.5-4.2.7-6.1zm-10.5 3.4c0-.6-.2-1.1-.3-1.7-1 .8-2.4 1.5-3.2 2.6-.3.5.5 1.8.7 2.8l2-2.3c.3-.2.5-.5.8-1.4zM261.8 937c-.7.8-1.4 1.3-2 1.8-.5-1-1.5-2-1.5-2.9 0-3.2-.2-6.6.8-9.6 1-3.4-.7-3.1-2.6-3-1.7.3-3.2 1-4.9 1.2-1.3.2-2.7 0-4 0-.8 0-1.5.4-2.2.6.5.8 1 1.8 1.7 2.5.2.2 1-.1 1.3 0 .7.3 1.3.8 1.9 1.2-.6.3-1.2 1-1.8 1-3.7-.5-3.3 2-3.1 4.2 0 .7.6 1.4 1 2.1l1.6-.8c.4-.3.7-1 1-1 1.6.1 3.1.4 4.6.6l-2.1 2c-.4.4-.8 1-1.3 1.2-2 .7-4.4 3-6.4.9a8.5 8.5 0 01-1.9-6.2c.6-3.5 1.6-6.8-1.8-9.5-.2-.1.1-1.3.4-1.8.1-.3.8-.3 1.3-.3l22.3-.6c1 0 2.2 1 3.3 1.5-1 .4-1.8 1-2.8 1.2-3.8.8-2 4.1-2.6 6.2-.7 2.1-.2 4.7-.2 7.4zM297 920.7l3.5-1.6-.1 2.8c-.7 3.7-1.3 7.3-2.2 10.9-.2.7-1.2 1.3-1.8 1.9-.4-.7-.8-1.4-1-2.1-.2-1.5.6-3.6-2.1-3.5-2.2 0-2.7 1.4-3 3.4-.3 1.6-1.5 3-2.3 4.4-.4-1.4-1.2-3-1-4.4.1-2.6.7-5.2 1.6-7.6.5-1.6.7-2.2-1.3-2.3-3.1-.2-5.2 0-4.9 4.1.3 3.4-.3 6.8-.6 10.2 0 .4-.4 1-.7 1-.4.1-.9-.2-1.3-.5-3.8-2.6-1.7-6.2-1.5-9.4.2-2.3 3.9-5.3-1.9-5.4 0 0-.4-1-.3-1.3.4-.6 1-1.4 1.6-1.5 4-.3 7.9-.7 11.8-.6.8 0 1.8 1.5 2.3 2.5.6 1.4-1.2 4.4 1.8 4.3 2.6 0 3.3-2.7 3.4-5.3zM305.2 918.9l12-.6c4.7 0 4.7 0 4.6 5 0 3.8-.4 7.6-.7 11.4 0 .5-.3 1.4-.5 1.4-.6 0-1.7-.2-1.8-.5-.5-2-1-4-1.2-6 0-1.4.6-2.8.7-4.3 0-4.2-.6-4.7-4.7-4.1-1.5.2-3 .4-4.4.8-.6.1-1 .9-1.6 1.4.5.4 1.1 1.3 1.7 1.3 1.4 0 2.9-.6 4.3-.6 1 0 2.1.6 3.2 1-.9.6-1.7 1.4-2.7 1.8-1.2.4-2.6.7-4 .7-3 0-3.6 1.8-3.2 4.2.3 2 2 2.5 3.6 1.1.5-.5 1-1.2 1.5-1.4.6-.3 1.4-.2 2 0 .3.3.7 1.4.7 1.4-2.2 1.7-4.3 3.6-6.7 4.5-1 .3-3.5-1.8-4-3.2-.8-2.5-.8-5.4-.6-8 .1-2.4 1-4.8 1.8-7.3zM333.1 933.5c-1.7-.1-4-2-3.5 2 .2 1.3-1.4 2.2-2.5.5-.8-1.3-1.5-3-1.6-4.6-.2-3.7 0-7.4 0-11-.1-2 .4-2.8 2.5-2.8 2 0 4.1-.7 6.2-.6 2.6 0 4 1.8 4 4.4.2 3-.7 5.4-3.4 7l-1.5.8c.5.4.9 1 1.5 1.3 2 1 4 1.7 5.9 2.8.6.4.8 1.6 1.2 2.3-.8 0-1.6.3-2.3 0a74 74 0 01-6.5-2zm1-9l-.1-4.4c-1 .1-2.6-.2-3 .4-.8 1-.8 2.6-1.2 4 1.3 0 2.6.2 4.2 0zM119 929.6l-.8-2c-.5.7-1.4 1.2-1.5 2-.4 2.3-.4 4.8-.8 7.1-.2.9-1 1.6-1.5 2.4-.4-.9-1.3-1.7-1.3-2.5.1-3.6.2-7.2.8-10.8.2-1.2 1.9-3 2.8-3 1.5.1 3 1.4 4.2 2.5.6.7.4 2.1.8 3.2.2 1 .7 1.8 1 2.7l1.8-2.5v-.4c0-2.8 1.5-5.6 4-5.3 1.5 0 3.2 3.4 3.7 5.6.7 2.7.3 5.7.1 8.5 0 .7-1 1.3-1.5 2-.4-.6-1.2-1.2-1.2-1.9-.2-3 0-6.2-.1-9.4 0-.5-.5-1-.7-1.6-.5.4-1.2.8-1.4 1.4-1.3 3.1-2.3 6.4-3.7 9.5-.3.8-1.5 1.3-2.2 2-.4-.8-1-1.5-1.2-2.3l-1.3-7.2zM316 870.3c.7-.6 1.3-1.2 1.9-1.2 1 0 1.9.4 2.9.6l-1.3 2c-2.6 2.5-5.2 4.9-5.7 8.7-.2.8.2 1.7.3 2.6.9-.2 2-.2 2.6-.8 1-1 4.1-2.1.6-4-.1 0 0-.8.2-.9 2.2-.6 4.6-2 6.7-1.7 2 .3 3.3 2.6 2.6 5-.7 2.7-1.6 5.3-2.7 7.8-.4 1-1.7 1.4-2.6 2-.1-1-.5-2.1-.3-3.1.2-1.7 1-3.4 1.3-5.1.2-.5-.1-1.1-.2-1.7l-1.2 1.2c-1.5 1.4-2.8 3.3-4.6 4.3-1.5.8-3.9 1.5-5-.7-.9-1.6-2-4-1.3-5.4 1.3-3.4 3.7-6.4 5.8-9.6zM217.5 880.4a49 49 0 012.5-6.4c.3-.4 1.5-.7 2.1-.6.5.1 1 1 1 1.7.4 4.6.6 9.3.7 14 0 .6-.8 1.3-1.2 2-.5-.5-1.4-1-1.5-1.5-.2-2.2 0-4.4 0-6.6l-.5-2.6c-.6.9-1.3 1.7-1.7 2.6-.4.9-.3 2-.8 2.8-.6.8-1.6 1.6-2.5 1.7-.5 0-1.1-1.3-1.7-2l-1.6-2.2c-.2.7-.3 1.5-.6 2.2-.4 1.2-.7 2.6-1.3 3.7-.3.6-1.3.8-2 1.2-.3-.7-1-1.5-.9-2 1-4.8 2.2-9.5 3.6-14.2.3-1 1.7-1.5 2.6-2.2l.3 3c.2 1.8.2 3.8.7 5.6.5 1.7 1.7 1.6 2.8-.2zM85.2 939.8c-.3-3.4-.6-6.4-.7-9.3 0-1.7-.2-2.3-2-2.2-1.6 0-3.2-.4-4.8-.7-2.3-.3-3.5.5-3.3 3 .4 3 .6 5.8.7 8.7 0 .6-.4 1.3-.7 2-.7-.5-1.9-1-2-1.5-.7-3-1-6.2-1.6-9.4 0-.7-.5-1.5-1-2s-1.2-.7-1.8-1c.7-.9 1.2-1.9 2-2.6.5-.3 1.4 0 2.1 0h16.2c1 0 2 .3 3 .7.5.2 1 .8 1.6 1.2-.6.6-1.1 1.3-1.9 1.6-1 .5-3.2.4-3.3 1-.5 1.9-.4 4-.3 5.9 0 1.3.6 2.7.6 4 0 .8-.5 1.7-.8 2.5a10 10 0 01-2-2zM251 898.3c-.6 3.9-1.1 7.5-2.2 10.9-.5 1.8-2.1 3.2-3.3 4.8-1-2-2.1-3.9-3-5.9-.5-1.2-.4-2.7-.8-4-.2-1-.7-1.9-1.1-2.8-.3 1-.8 2-1 3.2-.3 2.4-.3 4.8-.8 7.1-.2 1-1.4 1.7-2.1 2.4-.5-.8-1.4-1.7-1.3-2.4.6-4.5 1.2-9 2.2-13.4.2-1 1.6-2.1 2.6-2.6.5-.2 2 1 2.3 1.8 1 2.2 1.4 4.6 2.2 7 .2.8.8 1.7 1.2 2.5l.9-2.2c.3-2.3.3-4.6.8-6.8.2-1.2 1.4-2.1 2.1-3.2.5 1.1 1 2.2 1.4 3.6zM227.5 952c0 1.4-.2 2.5 0 3.5s.6 1.9 1 2.8c.6-.8 1.4-1.4 1.8-2.3 1-2.2 1.9-4.5 3-6.6.3-.7 1-1.2 1.7-1.7.3.6 1 1.3 1 2-.4 4.6-2.7 8.5-5.7 11.8-1.6 1.7-4.6.1-5-2.2-.1-.9-.3-1.8-.6-2.6-.2-.5-.8-.8-1.2-1.2-.4.5-.9.9-1 1.4-.3 1.3-.3 2.7-.8 4-.4.9-1.3 1.6-2 2.5-.8-1-1.6-1.8-2.2-2.8a3 3 0 01-.4-1.6c0-3.3 0-6.7.3-10 0-.8 1.2-1.4 1.9-2 .3.7.8 1.5 1 2.4l1 4.6c.6-1.3 1-2.9 2-3.9 2.3-2.5 3.3-.4 4.2 1.8zM55.9 723.8c.2-2.5 0-4.8.8-6.8 1.5-4.3 7-6 10.2-2.4 2 2.2 3.8 4.6 5 7.2 1.5 3.2-.7 7.3-4.3 9.2-4 2.2-7.2 2-9.4-1-1.2-1.7-1.6-3.8-2.3-6.2zm5.7-7.5c-2.8 2.7-2.4 5.8-1.7 9.2.7 2.9 2.2 3.7 4.7 3.3 2.5-.3 3.8-1.7 4.2-4.4.5-3-2-6-7.2-8zM257.5 959c.2-4 0-8 .7-11.5.7-3.2 7.8-3.9 11-1.3 2.3 1.8 4.4 4 4 7.2-.6 4-3.4 6.5-7 7.7-2.3.8-5 .7-7.4.7-.4 0-.8-1.5-1.3-2.7zm8.2-11.3c-1.9-.2-3.9-.3-4.3 2.1-.3 2.4-.3 5-.2 7.3 0 .5 1.7 1.4 2 1.2 2.2-1.6 5-3 6.2-5.3 1.4-2.5-1.8-3.5-3.7-5.3zM200.1 959.3c0-3.2-.3-6.4.6-9.3.4-1.3 2.8-2.4 4.5-3 1.7-.5 3.6-.2 5.3 0 1 .1 1.8 1 2.7 1.5-.9.4-1.7 1-2.6 1.3l-6 1.8c-.3.2-.5 1-.7 1.5.5 0 .9.3 1.3.3 2.2-.2 4.3-.6 6.5-.7.7 0 1.5.5 2.2.8-.6.7-1.1 1.7-1.9 2-1.7.4-3.6.4-5.4.8-1 .2-2.4.5-2.6 1-.3 1 0 2.4.5 3.3.2.3 1.7.2 2.6 0 1.5-.5 3-1.3 4.6-1.8.6-.1 1.3.3 2 .4-.2.6-.2 1.4-.6 1.7-2.4 1.6-4.8 3.4-7.4 4.5-2.5 1-5.4-2.3-5.6-6.1zM112.4 959c0 3 0 5.2 3.3 2.3 1.3-1 3.5-1.2 5.2-1.8-1.2 1.7-2 3.8-3.6 4.9-4.9 3.2-7.7 2.6-8.9-1.2-.5-1.8.1-4 .4-6 .4-2.4.8-4.9 1.5-7.2.3-1.1 1.5-2.8 2.3-2.8 3.5-.2 7 .2 10.4.5.5 0 1 .8 1.4 1.2-.6.3-1.2.8-1.8.9-1.6 0-3.1-.2-4.6 0-1.3.2-2.7.7-3.7 1.4-.7.5-.8 1.8-1.1 2.6l2.5.3 4.7-.7c.4 0 .8.5 1.2.7-.3.5-.5 1.2-1 1.4-1.5.6-3.1.9-4.7 1.5a13 13 0 00-3.5 2zM82.3 959.8a65 65 0 00-1.8-5.7c-.2-.5-.7-1-1-1.4-.3.5-.7 1-.7 1.6-.1 1.9.2 3.8-.1 5.7-.2 1-1.2 1.8-1.8 2.7-.6-.9-1.6-1.7-1.6-2.5 0-3.3.1-6.5.7-9.7.3-1.3 1.8-2.4 2.8-3.6.8.8 2 1.4 2.5 2.3 1.2 2.4 2 4.9 3.2 7.2.4.8 1.2 1.3 1.8 1.9.2-.8.5-1.5.5-2.2 0-2-.2-4-.1-6 0-.6.5-1.5 1-1.6.4-.1 1.3.4 1.7.9 1.6 2.7.8 13-1.5 15-.6.5-2.6-.2-3.5-.9-1-.7-1.4-2.2-2-3.7zM51.4 901.7c.2-.6 0-1.2.2-1.6l2.3-4.4.7.3V903.2c.8-.2 1.6-.6 2.3-.5 3 .5 4.6-.8 5.6-3.5.3-.6 1.1-1 1.7-1.5.3.9 1 1.7 1 2.5l-.8 15.4c0 .5-.6 1.3-.7 1.2-.7-.2-2-.5-2-1-.3-2.4-.3-4.9-.6-7.4-.1-.7-.7-2-1.3-2.1-4.6-1-6.3.3-6.8 5.5 0 .7.2 1.5 0 2.2l-1.3 2.2c-.5-.8-1.5-1.5-1.5-2.2.2-4 .7-8 1.2-12.3zM133.3 953.2l1.7 3c.3-1.1.8-2.1 1-3.2 0-1.2-.3-2.5 0-3.6.2-.7 1-1.6 1.7-1.6.6 0 1.8 1 1.7 1.5-.5 4.4-1.2 8.7-2 13-.7 3-2.4 1.8-3.2.3-1.2-2.1-1.7-4.6-2.6-6.8l-1.8-3c-.3 1-.8 2.2-1 3.4-.3 2-.4 4.1-.9 6.1 0 .5-1.5 1-2.3 1-.4 0-1.1-1.3-1-2 .6-4 1.2-8 2.1-11.9.2-1 1.4-2.3 2-2.3 1.1 0 2.4 1 3 1.8.8 1.2 1 2.7 1.6 4.3zM248 961.8c-1.8 1.7-3.3 4-6.2 2.3-2.2-1.2-3.6-5.2-2.9-8.2.3-1.3.8-2.7.7-4-.3-3.6 1.6-5.7 4.8-6.3 2.6-.5 5.3-.2 7.9 0 .5 0 1 .6 1.6 1-.5.4-.9.9-1.4 1-1.4.4-2.9.5-4.3.8-1.2.2-2.5.4-3.5 1-.6.5-.8 1.6-1.2 2.5h2.6c1.4-.1 2.9-.6 4.3-.6 1 0 1.9.6 2.8 1-.8.6-1.6 1.4-2.5 1.7-1.4.5-2.9.9-4.3.7-4.1-.4-3.1 2.5-3.2 4.7 0 .4.5 1 .9 1 .4.1.9-.3 1.2-.6.6-.6 1-1.6 1.6-1.8 1-.3 2.2 0 3.3-.1L249 960l-1 1.7zM191.2 897.4c.8 1.8 1.4 3.5 2.2 5 .4.8 1.2 1.5 1.7 2.1l1-2.4c.4-1.6.7-3.3 1.4-4.8.2-.5 1.4-.5 2.1-.7.2.7.7 1.5.6 2.1l-2.8 12.8c-.1.6-.7 1.7-1 1.6-.6 0-1.6-.4-1.9-1l-3.5-8.5-1.8-3.1c-.6 1.2-1.4 2.3-1.7 3.5-.7 2.6-1.1 5.3-1.9 7.8-.3.9-1.4 1.5-2.2 2.2-.3-1-1-2.2-.9-3.1.3-2.3 1-4.6 1.7-6.8l.4-2c.3-4.5 1.7-5.6 6.6-4.7zM49.4 879.7c.3-2.7.3-5.2.9-7.5.2-1 1.5-1.7 2.4-2.5.2 1.2.8 2.3.8 3.4l-1.2 10.2c0 .5.4 1 .6 1.4.4-.3 1.1-.5 1.3-.9 1.1-2.3 2.2-4.6 3-7 .7-1.8.9-3.9 1.6-5.7.3-.9 1.4-1.4 2.2-2.1.4.8 1.3 1.7 1.2 2.5-.3 3.1-.9 6.2-1.4 9.4l-.6 3.3c-.4 1.4 1 5.1-2.8 2-.1-.1-1 .7-1.6 1-1 .7-2.2 1.8-3.1 1.7-1-.3-2.1-1.6-2.5-2.7-.5-2-.5-4-.8-6.5zM100.7 927.1c2.3.3 4.4.3 6.5.6.8 0 1.5.7 2.2 1-.7.7-1.4 1.6-2.1 1.7-1.5.3-3.2-.1-4.7.2-1 .2-2.3 1-3 1.8-.4.4.2 1.7.4 2.6l1.8-.7c.6-.3 1.2-1 1.8-.9 1 0 1.9.5 2.8.8-.4.6-.8 1.3-1.3 1.8-1 .8-2.1 1.9-3.3 2.3-3.5 1.3-6-.6-5.9-4.4.1-3.1.3-6.3.8-9.3.2-1 1.4-2.4 2.3-2.6 2.7-.5 5.5-.8 8.2-.7 1.2 0 2.4 1 3.6 1.6-1 .6-2 1.4-3 1.7-1.3.3-2.9-.1-4.2.3-1.1.3-2 1.3-2.9 2.2zM142.6 905.3c.9-1.3 2.2-3.4 3-3.2 1.7.4 4.3 1.9 4.4 3.2.4 2.8-.4 5.8-.9 8.7-.1.7-1.1 1.2-1.7 1.8-.5-1-1.3-2-1.3-2.9 0-1 1-2 1.2-3 .2-.5-.2-1-.3-1.6l-1 1c-1.5 1.1-2.8 2.8-4.4 3.2-3.6.8-6.2-1.6-6.3-5.7 0-2.6 3-9.3 6.3-10.1 1-.3 2 0 3.1 0-.4.8-.7 1.6-1.2 2.3-1.4 2.1-3 4.2-4.2 6.5-.4.8-.3 2.4.2 3 .6.5 2 0 3 0 .4 0 .8-.1 1-.3l2.4-1.7-3.3-1.2zM304 871.9c.5-.6 1.4-1 1.4-1 .6.8 1.4 1.8 1.4 2.6-.3 4.1-.9 8.2-1.4 12.3-.1.8-.6 1.6-1 2.4-.7-.4-1.8-.7-2.1-1.3-.8-2-1.2-4-2-6-.2-1-.7-1.7-1.2-2.6-.5.9-1.3 1.7-1.5 2.6-.4 1.8-.3 3.7-.9 5.4-.3.8-1.6 1.3-2.4 2-.4-1-1.1-2-1-2.9a112 112 0 012.1-9.8c.3-1 1-2 1.7-2.8.6-.7 1.6-1 2.4-1.5.5 1 1.2 1.9 1.6 3 .2.6-.2 1.4 0 2 .3.6 1 .9 1.6 1.3l.6-1.4.7-4.3zM248.2 871.9c3 2.7 4 6 2 9.3-1.4 2.7-3.7 4.7-7.2 4.3-.7-.1-1.6-.3-2.2 0-4.4 2-3.4-1.3-3.3-3.4.1-3.1.5-6.3.7-9.4.1-2 .3-3 2.7-1.5 1 .6 3-.1 4.4 0 .9 0 1.7.4 3 .7zm-.7 3.9c-1.6 0-4.2-.8-4.7 0-1 1.5-1.2 3.8-1.5 5.9 0 .2 1.3.9 2 .8 2.4-.2 4.7-3.6 4.2-6.7zM50.1 938.4c1.4-5.6 1.4-11.3 5.7-15.5 2.1-2 3.8-.7 4.1.8 1.2 4.2 1.8 8.5 2.3 12.9 0 1-1.5 2.1-2.4 3.2-.2-1.2-.3-2.5-.7-3.6-.4-1-1-2.2-1.7-2.7-.4-.3-2 .5-2.5 1.3-.8 1.2-1.3 2.7-1.9 4.1-1.1 2.5-2 2.2-2.9-.5zm8-10.4l-1.5.4.5 1.4c.3-.4.6-.7 1-1.8zM107.3 909.8l-.7 5.4c0 .3-.6.9-1 1-.3 0-1-.5-1-.8-.4-1.8-.5-3.7-.9-5.4-.3-1.3-1-2.6-1.4-3.8-1.4 1.2-3.1 2.2-4.2 3.7-1 1.3-1.2 3.2-1.8 4.9-.4-1.8-1-3.5-1-5.2 0-3.1.3-6.2.7-9.3 0-.8.8-1.6 1.3-2.3.4-.4 1-.5 1.5-.7.2.6.6 1.2.6 1.9 0 .3-.7.8-.6 1l1.1 3.8c1.5-.7 3.2-1.2 4.5-2.2 1-.7 1.3-2 2.2-3 .3-.4 1.2-.3 1.9-.4 0 .6.2 1.3 0 1.9l-1.2 9.5zM51.4 946.8c1.8-.8 3.9-2.3 5-1.8 1.8.8 3 3 4.4 4.6.3.2-.1 1-.2 1.6-.7-.2-1.5 0-2-.5-4-3.1-4.8-3-6.6 2-.6 1.5-1 3.4-.7 5 1.3 6.5 2.8 7 8.6 3.5.6-.4 1.6-.2 2.4-.3-.3.7-.3 1.6-.8 2.1-2 2.6-4.6 4.7-8.2 3.8-3-.7-5-4.7-5.4-8.7-.2-4.2 1-7.8 3.5-11.3zM121 909.8c.9-3.2 1.8-6 2.8-8.9.2-.6.5-1.3 1-1.7 3.4-2.7 5.8-2.1 6.8 2.2.9 3.8 1 7.8 1.4 11.7 0 .5-.9 1.1-1.4 1.7-.4-.7-1.3-1.4-1.3-2.1 0-1.9 0-3.5-2.2-4.1l.3-1.7c.3-.8 1-1.6 1-2.4 0-.8-.5-1.6-.8-2.5-.7.7-1.6 1.3-1.9 2.2-1 3-1.9 6.1-3 9.1-.3 1-1.3 1.8-2 2.7-1-1.1-2.5-2-.8-3.8.3-.4 0-1.4 0-2.4zM219.4 913.2c-3.4.3-2.1-2.2-1.7-3.2 1.9-4.3 4-8.6 6.3-12.7.5-.9 1.9-1.8 2.8-1.7.7.1 1.8 1.4 2 2.4 1.1 4.2 2.2 8.4 2.9 12.7.1 1.2-1 2.6-1.6 4-.6-1.1-1.4-2.2-1.9-3.3-.3-.8-.3-1.8-.7-2.6-.5-1.2-1.3-2.2-2-3.3-1.2 1.1-2.7 2-3.7 3.4-1 1.2-1.5 2.7-2.4 4.3zM233.4 930.3c-.3-.8-.3-1.5-.4-2.1 1.2-.1 2.9-.8 3.5-.2 1.2.9 2.1 2.5 2.3 4 .2 1.7-.1 3.6-.7 5.3-.4 1-1.5 2.2-3.2 1-.4-.3-1.4-.3-2 0-4.6 2.2-8.7 0-7.4-5.5.8-3.7 3-7 4.9-10.4.3-.7 1.9-1.2 2.5-1 .8.4 1.2 1.6 1.7 2.4-.7.4-1.7.5-2 1-1.4 2.3-2.8 4.7-3.6 7.2-.5 1.5.1 3.2.2 4.9l3.3-2.1 2-1.5 1.6-1.5-2.7-1.5zM176 949c2.6-2.9 3-.2 3.5 1.4.4 1.4 0 3 .1 4.6 0 .7.5 1.3.7 2 .5-.6 1.2-1.1 1.4-1.8.6-1.9.6-4 1.6-5.7 1-1.7 2.7-3 4.1-4.3-.2 1.8 0 3.8-.6 5.5-1.5 4.1-3.2 8.2-5 12.1-.4 1-2 2-2.6 1.9-1-.5-2.3-1.7-2.4-2.8-.5-4.1-.6-8.3-.8-12.8zM68 874c1.4-2 2.6-3.9 4.3-5.2 2-1.7 3.3.3 4.6 1.6 0 .1-.6 1.3-1 1.4-4.8 1.3-5.5 3.3-2.8 7.7.9 1.4 1.8 3.1 2 4.8.4 3.6-2 5-7 4-3.4-.7-5.8-4.7-4.4-7.6l1-1.7c.4.7.7 1.5 1.2 2 1.2 1.3 2.5 2.6 3.8 3.7.4.2 1.3-.3 1.9-.4l-.6-2-3-8.3zM71.4 910.3l-2 4.8c-.2.4-.8.6-1.2 1-.3-.5-.8-1-.8-1.5 0-1.4-.1-2.8.3-4.1 1.1-3.7 2.2-7.4 3.8-10.9.7-1.4 2.5-2.3 3.8-3.4.7 1.3 1.7 2.6 2 4 .6 3.8 1 7.7 1.4 11.5 0 .8-.7 1.5-1.1 2.3l-1.7-2.2c-.2-.2.1-.7 0-1l-1.8-3.9-2.7 3.4zm2.7-6.3l1-1.5-.9-.6c-.1.6-.3 1.2-.1 2.1zM138 927.6c1.8-2.7 3-5.7 6.7-5.7 3 0 4.4 2.4 4.1 7-.2 3-2.5 5-5 4.9-.7 0-1.8.5-2 1.1-.6 1.1-.5 2.5-.9 3.6-.3 1-1 1.8-1.4 2.7-.7-1-2-1.9-2-2.9-.2-2.4.2-4.8.4-7.2l.2-3.5zm3.7.4l1.2 3.2c1-1.2 2-2.4 2.8-3.8.2-.4-.5-1.2-.8-1.9-1 .7-2 1.4-3.2 2.5zM84.5 875.4c1.3-.2 2.3-.7 3.2-.6.6 0 1.2.8 1.8 1.3-.5.5-.8 1.2-1.3 1.4-1.2.4-2.5.5-3.6.8-1.3.3-2.3 4-1.4 4.7.2.2 1 0 1.4-.2l3.5-2c.2.7.8 1.6.6 1.9-1.1 1.2-2.3 2.9-3.8 3.3-3.6 1.2-5.5-.4-5.4-4.3 0-3.4.4-6.7.7-10 0-.6.3-1.4.6-1.5a73 73 0 018-1.4c.6-.1 1.3.9 2 1.4-.9.5-1.6 1.3-2.6 1.6-.8.3-2-.2-2.8.1-1.5.6-3.7 1.3-1 3.5zM83.8 906.2c-.5-4.3 1.8-7 4.6-9 1-.9 3-.4 4.6-.2.6 0 1 1 1.5 1.6-.7.4-1.3 1-2 1.1-5 1-6.6 4.8-3.2 8.7 1.5 1.8 3.6 3.3 1.8 5.7-1.8 2.4-4.6 2.8-7.3 1.3-1-.6-1.5-2.3-2.2-3.4.7-.2 1.4-.7 2-.6.7.2 1.3 1 2 1.2.7.2 1.4 0 2.2 0-.3-.7-.4-1.5-.8-2-1-1.4-2.2-2.7-3.2-4.4zM267.7 878.5c1.7.4 3.2 1 4.8 1.5-1.5.7-3 1.8-4.5 1.8-3.4-.2-5.5.4-4.9 4.5.1.8-1 1.8-1.7 2.7-.6-1-1.7-1.8-1.7-2.8 0-4.1.4-8.3.7-12.5 0-.5.4-1.4.7-1.4 3-.1 6.2 0 9.3 0-.1.7 0 2-.4 2.3-.7.4-1.9.2-2.8.1-2-.1-4.2.4-3.8 2.8.3 2.4 2.5 1.6 4.3 1zM276.8 885.4c2-4.3.3-7.6-2-10.8-.6-.7 0-2.1 0-3.2l2.5 1.3.2.2c2.5 4.7 3 2 3.8-.8.2-.7.5-1.4 1-1.7.8-.6 1.8-1 2.7-1.4.1 1 .6 2.1.3 3-1.6 5.1-3.3 10.3-5.1 15.3-.4 1-1.6 1.6-2.5 2.4l-.9-4.3zM229.6 873.3c1.6-.7 3.4-1.5 4.8-1 .8.2 1.7 2.4 1.5 3.6a32 32 0 01-2.2 9.4c-.6 1.4-3 2-4.7 3-.7-1.5-1.9-3-2.2-4.5-.6-3.7.7-7 2.8-10.5zm2.9 9l1-4.7-.3-2.2c-.7.6-1.8 1-2 1.7-.7 1.5-1 3.2-1.3 4.9 0 .7.3 1.6.5 2.4l2-2.2zM156.2 898.5c2.4-2.1 4.9-2 7.4-.7.4.2.6 1 1 1.6l-2 .8c-1.4.4-3.2.3-4 1.2-.6.6-.1 2.5.3 3.7.5 1.5 1.4 2.7 2 4.2.8 2.5-.6 5-2.6 5.2-2 .3-4.4-1.3-6.5-2.2-.1 0 0-1.5.3-1.8.4-.3 1.3-.2 2-.2l3.3.5-1.3-3.4c-1-2.9-2.9-5.8 0-9zM207 931.4c-1.3 2.1-2 4.3-3.4 6-.9 1-2.9 1.7-4.2 1.5-1-.2-2.7-2.3-2.5-3.2.7-3.6 1.8-7.1 3.4-10.3.5-1 3.6-1.5 4.8-.9 1.5.8 4 2.3 2.4 5-.3.5-.3 1.2-.6 1.9zm-3.1-1.3l-.3-3.1c-.7.6-1.5 1-2 1.8-.8 1.7-1.4 3.4-2 5.2 0 .4.5 1 .8 1.5.4-.3 1-.5 1.3-1 .8-1.2 1.5-2.4 2.2-4.4zM186.7 934c0-.9-.2-1.6 0-2 1.5-3 3-5.7-2.6-3.7-.3.1-1.2-.5-1.6-1-.1-.2.3-1 .7-1.4 1.2-1.6 10.8-4 12.5-3.2.7.3 1.1 1.1 1.7 1.7-.6.4-1.3 1-2 1-5.1.9-5 .9-5.1 6-.1 3-.4 6-.8 9 0 .5-1.2 1.4-1.8 1.4-.6 0-1.6-1-1.6-1.6 0-2 .4-3.9.6-6.1zM154.5 922.6c3 .3 5.4.4 8 .8.7.1 1.3.8 2 1.3-.6.5-1.3 1.5-2 1.4-3-.3-3 1.5-3 3.7v9c0 .5-.3 1.1-.5 1.7-.7-.2-1.6-.3-1.8-.7a20 20 0 01-1.7-4.8c-.2-1 .4-2.2.4-3.4 0-2.4 2.2-6.3-3.3-5.7-.5 0-1-1.5-1.6-2.4l3.5-.9zM155.8 947.1c1.2 1.6 1.8 2.6-.8 2.7-2.5.2-3.5 1.5-3.4 4.2.1 2.7-.3 5.5-.7 8.2 0 .7-.8 1.3-1.2 1.9-.5-.6-1.5-1.2-1.5-1.9-.2-3-.7-6.2 0-9 1-2.8-.2-2.5-2-2.8-1-.1-2-.9-3.1-1.4 1-.4 2-1.2 3.2-1.3 3-.4 6.2-.5 9.5-.6zM64.4 953.4c.7-3 2-5.2 5-4.2 2.8.9 3 3.5 2.2 6-.8 2.3-1.6 4.7-2.6 6.8-1 1.9-2.2 1.4-3.5 0-2.4-2.6-2.1-5.3-1-8.6zm3 2.5l.8 1 .5-2.8c0-.2-.6-.5-.9-.7l-.5 2.5zM97.9 952.8l-2.8-.7c-.5-.2-1-.7-1.3-1.1.4-.5.9-1.4 1.4-1.5l10-.4c.4 0 .8.6 1.3 1-.5.3-.9 1-1.4 1-5 .9-4.8 4-3.5 7.8.3 1 .2 2.3 0 3.5-.2 1-.7 2-1 3.1-.7-.9-1.9-1.7-2-2.7-.4-3.2-.4-6.5-.7-10zM113.2 915.3c-.1-3.5-.3-7 0-10.3.2-1.5 2.1-3-1.2-3.2-.4 0-1-1.3-1-2 0-.5 1-1.4 1.5-1.4a86 86 0 018 0c.6 0 1.2.5 1.9.8-.5.6-1 1.9-1.5 1.9-5 0-4.3 4-5 7-.3 1.8-.3 3.8-.8 5.7-.1.6-1 1.1-1.9 1.5zM195.8 953.2l-2 10.9c0 .7-.6 1.4-1 2-.5-.6-1.5-1.1-1.7-1.9-.3-1-.2-2.2-.1-3.3.2-4.5.4-9 .8-13.4 0-.7.8-1.8 1.4-1.9.6 0 1.9.7 2 1.3.5 2 .6 4 .6 6.3zM160.8 872.8c.4 4.9.7 9.6.8 14.4 0 .6-.5 1.2-.7 1.8-.7-.3-1.8-.5-2-1-2.1-5-2-10-.7-15 .1-.4 1.6-.3 2.6-.2zM253.2 881.9c.5-3.4.8-6.5 1.5-9.4.3-1 1.6-1.8 2.5-2.7.1 1 .4 2.1.3 3.2a371 371 0 01-1.5 13c0 .7-.7 1.5-1 2.3-.6-.8-1.5-1.6-1.7-2.5-.3-1.1 0-2.4 0-4zM291.8 878.3c-.7 3-1.3 5.7-2.2 8.4-.2.6-1 1-1.4 1.6-.5-.7-1.3-1.4-1.3-2.1 0-1.8.3-3.6.7-5.4.4-2.4.8-4.9 1.5-7.2.3-1 1.6-1.6 2.4-2.4.4 1 1 2 1 3.1 0 1.2-.4 2.4-.7 4zM177.4 908.3c1-2.9 1.8-5.5 3-8 .3-.8 1.4-1.3 2.1-2 .2 1 .6 1.9.4 2.7-.8 3.4-1.6 6.9-2.7 10.2-.3 1-1.3 1.7-2 2.6l-1-3.4c-.1-.6.1-1.2.2-2zM285.8 119.7c-3.2-.2-2.5-2.9-3-4.6-.5-1.6-.5-3.4-.5-5.1 0-.4.4-.7.6-1 .7.5 1.8.9 2 1.6.5 1.4.4 2.9.6 4.4 0 .3.2.6.4.9l.5-.8 2.5-6.1c.7-1.5 1.4-2.3 3.4-1.6 1.7.6 3.8 0 5.8.2 1.5 0 3.1.5 4.6.3 1.2 0 2.4-.7 3.4-1.3 1.3-1 2.5-2 4.3-1.9 1.4.1 2.8.2 3 1.8 0 1.2-.2 2.5-.7 3.6-.2.6-1 1-1.6 1.6l-.9.9 1.2.5c.8.2 1.5.4 2.3.4 1.4.2 2.6 0 2.9-1.7.2-1.4.8-2.8 1.3-4.1.6-1.7 3-3 4.5-2.4.7.3 1.4 1.3 1.5 2.1.5 3 .7 5.8 1 8.8 0 .4-.3 1.2-.6 1.3a3 3 0 01-1.8-.1c-.3-.1-.5-.7-.7-1.1l-1.5-2.7c-.6 1-1.7 2-1.8 3-.3 2.5-1.6 1.5-2.8 1-2.7-1-5.4-2.1-8.2-3-.4-.1-1.3.7-1.6 1.3-.2.4.2 1.3 0 1.7-.6.8-1.4 1.4-2 2-.6-.7-1.6-1.3-1.6-2-.1-1.9 0-3.8.4-5.6.3-1 .6-2-.5-2-1-.2-2.3.2-3.2.7-.5.3-.5 1.4-.5 2 0 2.6.3 5.1.4 7.6 0 .7-.4 1.4-.7 2-.8-.4-2-.6-2.5-1.3-1.9-2.4-1.3-5.2-.7-7.9.4-1.6.2-2.6-1.3-3.1-.9-.3-1.4-.4-1.9 1-1 3-2.8 5.8-4.3 8.6-.2.3-1 .2-1.7.1zm21.2-9c1.5.2 4.3-2.2 4-3.3-.1-.2-1.1-.5-1.3-.3-1 1.1-2 2.3-2.7 3.7zm12.8-.2l.1 1.6c.5-.5 1.1-1 1.2-1.4.2-.9 0-1.8-.2-2.7l-1.1 2.5zM126.4 105.2c-.8 1.4-1.3 2.8-2.4 3.7-1.6 1.2-3.4.5-4-1.5-.6-2-1-4.2-1.4-6.4-.4-2-1.4-3.2-3.6-3.7-1-.3-2-1.4-3-2.2-.2-.1-.2-.8 0-1 .1-.2.6-.2 1-.2 1.2 0 2.5 1.8 3.6.4.7-1 .5-2.5 1-3.7 1-1.9-.3-2.3-1.6-2.5-2-.3-2-1.2-1.2-2.6.3-.5.1-1.2.2-1.7h-1.6c-2.4.3-3.5 2-4.3 4-.2.9-1.2 1.4-1.8 2.1-.4-.8-1.1-1.6-1.2-2.4 0-1.5.1-3 .5-4.4.1-.6 1-1 1.6-1.5.7 1.9 1.8.6 2.7.4.6-.1 1.3-.6 1.7-.4 2.8 1.4 5.8-2 8.6.3.3.2 1.8-1 2.6-1.7 1.5-1.4 3-1.4 4.4-.3 1 .8 1.7 1.6 1.2 3.2-.5 2-2 2-3.3 2.6-.8.4-1.6.6-2.4.8.3.6.4 1.5.9 1.7.8.3 1.9.5 2.6.2 1.3-.7 2.4-1.8 3.6-2.6.3-.2 1-.3 1.2-.2.3.3.5 1 .3 1.4-.8 2.8-5.4 5.2-8.1 4.3-2.5-.8-3-2.8-2.9-5.1 0-.5-.2-1-.3-1.4l-.6 1.2-.2 2 .1 6.4.1 3.1a77 77 0 001.9 6.2c.2.6.6 1 1 1.5 0-.4.2-.9.4-1.3.6-2 1-3.9 1.9-5.7.2-.6 1.2-1 1.9-1.2.2-.1 1 .9 1 1.2-.6 2.3-1.4 4.5-2 7zm-1.8-22l.1.6 2.9-1.8-.3-.8-2.4 1.2c-.1 0-.2.2-.3.8zM182.2 131.8c-.1 2.6.7 3.2 3.3 2.6 1.4-.2 2.8-.6 4.2-.4 1.8.3 2.1-.4 2.1-1.9v-.7l.7-2.5c.1-.1 1.5 0 1.6.3.4.9.7 2 .7 3 0 1.8-.3 3.7-.5 5.5l.2.4 3-.4c1.8-.2 1.2-1.5 1.3-2.4a6.8 6.8 0 016.8-6.5c2.1 0 3 1.6 3.8 3 1.2 2.2.6 7.7-1 9.5-1.8 2-5 2-7.3-.1-2-2-3-2-5.1 0-.4.3-.7.9-1.2 1-.8.5-2 1.2-2.6 1-.8-.4-1.4-1.5-1.7-2.4a4 4 0 010-2.7c.8-2-.4-2-1.5-1.8-2.3.5-4.5 1.2-6.7 1.9-.3.1-.6.8-.7 1.3 0 .7.3 1.5 0 2-.5 1-.4 2.7-2.2 2.2-1.6-.5-.6-1.9-.9-2.8-.9-3 1.7-6-.3-8.9-.2-.3 1-2 1.8-2.6 2.3-1.5 4.9-1.3 7.4-.5.5.1.8.6 1.2.9-.5.3-.9.8-1.4.9h-3l-2 1zm24 4.7v-3.7c-.1-1-.8-1.6-1.9-.9-.6.4-1.2 1-1.6 1.6-.7 1 0 4.4 1.2 4.8.5.1 1.4-1 2.3-1.8zM103.4 105.3c-.4 4-3.4 5.7-6.6 4-.2-.2-.6-.3-1-.2-3.2 1-5.7-.6-8.3-2.2l-1.2-.7c-.2.6-.5 1-.6 1.6-.2.7 0 1.6-.3 2-.5.4-1.4.5-2 .4-.4 0-1-.8-1-1.2l.8-7.1c.1-1.5-.1-2.7-2-2.7-1.8 0-3.6.2-5.3.5-.4 0-.6.7-1 1h6c.4 0 .7.4 1 .6-.3.2-.5.6-.9.7-1.5.3-3.1.5-4.7 1-.8.2-1.7.8-2 1.4-.4.9-.2 2-.2 3l2-.3 3.8-.5c.3 0 .6.4 1 .5-.2.3-.3.7-.6.8-1.9 1.2-3.7 2.5-5.8 3.3-2.5.9-4.4-1.8-3.7-4.8.4-1.9.9-3.8.9-5.7 0-1.8 1-2.6 2.4-2.8 1.8-.4 3.6-.4 5.4-.6l4-.4c1-.1 2.2-.2 2.2 1.5 0 0 1 .3 1.1.2 1-2 2.5-1.8 3.8-.6 1.5 1.3.5 2.8-.5 3.9-2.5 2.5-2.5 2.5.7 4l2.4 1 2.3 1c0-.7-.3-1.6 0-2.3.6-2.4.6-5.1 2.9-6.9 1-.8 2.1-1.2 3.6-.6 1.5.7 1.8 1.6 1.7 3l-.3 4.2zm-3.4-5c-.5 1.6-1 3.1-1.3 4.7-.1.7.5 1.4.8 2l.5-1.6c.2-.7.6-1.3.6-2 0-1.1-.2-2.2-.6-3zM304.8 71.7c1.3-1.8 3.1-1.5 4.5-1.1.8.2 1.2 2 1.7 3l.4 1.7.7 2 .7-2.4V74l.4-2.2c.8.5 1.8.9 2.3 1.6.6.9.7 2 1 3 .4-1 .6-2.2 1.2-3 .7-1.2 1.8-2 2.8-3 1.1 1.4 0 2.6-.3 3.8-.5 2-1.5 4-2.3 6-.5 1.3-1.5 1.3-2.5.4-.5-.4-.7-1.3-1.2-1.5-.8-.3-1.8-.1-2.7-.2l.4 1.5v2.3c-.1.6-.6 1.1-.8 1.7l-1.5-1.6v-.6l-.3-2.4c-2-.1-4-.6-4.9 2-.2.7-1.2 1.1-1.8 1.6-.5-.8-1-1.5-1.3-2.3-.4-1 1-2.3-.5-2.9-.5-.2-1.7.3-1.8.6-.2 1 0 2.2-.1 3.3 0 .8-.4 1.5-.7 2.3-.7-.5-1.7-.8-2-1.5-.4-.8-.3-2-.5-3l-.5-1.6c-.6.4-1.5.6-1.8 1.1-.5 1.1-.6 2.4-1 3.6-.2.5-.7.9-1 1.4-.5-.6-1.2-1-1.2-1.6a17 17 0 011.7-9.7c.3-.6 1.1-.8 1.7-1.2.1.6.1 1.3.4 1.9.3.8.8 1.5 1.2 2.2l1.4-1.6c.8-1.5.5-4 3.3-4 .4 0 .7.4 1.1.5l-.5 1c-.3.8-.8 1.9-.5 2.5.4.7 1.4 1.2 2.3 1.6.3 0 1-.4 1.2-.7l1.3-3.6zm1.5 5c.4.2.8.7 1.2.7 2-.5.9-2.2 1.1-3.3 0-.4-.4-.9-.7-1.3l-1.1 2.5-.5 1.4zM324.9 112.6c.4-.8 1.1-1.4 1.3-2.1 1-3.9 4.5-7.3 7.8-6.7.8.2 1.6.5 2.2 1 .4.3.5 1 .7 1.5-.5 0-1 .3-1.6.3-3.4-.4-5 .7-5.7 4.1-.4 1.6-1.3 3.4.3 4.8.4.3 1.3.5 1.7.3 1.7-.7 3.2-1.6 4.8-2.4.2-.1.4-.5.4-.6-.1-.3-.4-.6-.7-.6h-2c-.7-.2-1.2-.7-1.8-1 .6-.5 1.1-1.3 1.7-1.3 1.6 0 3.3 0 5 .3 1.6.3 2.5-.2 2.6-2 .1-3.7 1.5-4.5 5.2-3.6.8.2 1.7 0 2.5.2.7.2 1.3.8 2 1.2l-1.9.6-3.5.5c-.3 0-.6.6-1 .8l1.4.7c.7 0 1.4-.2 2-.1.7.1 1.4.6 2 .9-.5.4-1 1.2-1.7 1.3-1.6.3-3.3.4-3.9 2.3-.2.6-.1 1.3-.2 1.9l1.6-.5c1.3-.7 2.5-1.5 3.8-2 .6-.1 1.4.5 2.1.7-.3.5-.5 1.1-1 1.4-1.8 1.3-3.7 2.6-5.7 3.6-.7.5-2 .5-2.8.2-1.4-.5-1.6-2-1.4-3.3 0-.4.5-.8.4-1.2 0-.7-.4-1.4-.6-2-.2.5-.6 1-.7 1.7v4.7c-.1.6-.6 1.4-1.1 1.8-.5.3-1.6.3-1.8 0-.4-.4-.3-1.3-.4-2v-.2l.3-2.3-1.6 1.5c-1.5 1.6-3.2 3.1-5.6 2.5-2.2-.5-3.4-2.3-3.8-4.7-.1-.7-.9-1.3-1.3-2.2zM96.9 121.4c0-4.5 1.4-6.9 4.9-8 1-.2 2.3-.2 3 .3 1.3.8 2.2 1.8 3.5.3.7.6 1.7 1.1 1.8 1.9.3 1.3.1 2.7.1 4.1l.1.9.8-.6c.5-1 .8-2 1.4-2.7.7-.8 1.6-2 2.5-2 .9 0 1.9 1 2.6 1.9.8 1 1.4 2.3 2 3.5l.3-4v-1.2l1.5-1.8c.5.5 1 .9 1.3 1.4 1.2 3 .4 6-1 8.7-.6 1-1.6 1.5-2.9.7-1.6-1-3-2.2-3-4.3 0-.6-.5-1.2-.7-1.8-.4.5-.9 1-1.1 1.6l-1.6 3.7c-.7 1.4-1.6 3.3-3.4 2.4-1-.5-1.8-2.4-2-3.7-.1-1.7.5-3.4.7-5l-.1-1.4c0-.3-.2-.6-.4-.8l-.2.7c-.5 2.2-.9 4.4-1.6 6.5-.8 2.4-2.8 3.6-5 3.4-2.7-.4-3.1-2.5-3.5-4.7zm6.1-.4c.5-1 .8-2.2 1.3-3.1.8-1.5.2-2-1.2-2-2-.1-3.6 2.4-3 5 .1.7.7 1.3 1.1 2l1.8-2zM169 85a64.4 64.4 0 01-2.7 20c-.6 1.9-2.5 2.3-3.8.8-.8-1-1.2-2.3-1.7-3.5-.2-.2-.2-.5-.3-.8-.2.3-.6.5-.7.9-.3 1.1-.4 2.5-1 3.5-.5 1-1.6 2.4-2.5 2.4-1 0-2.6-1.1-2.8-2-.7-3-.8-6-1-9 0-.5.4-1.1.9-1.6.4-.3 1-.7 1.5-.6.4.1.7 1 .7 1.4v6.8c0 .3.4.7.6 1l.4-.9 1.6-3.7c.5-1.6 1.7-1.8 2.8-1.3.9.3 1.4 1.4 2 2.3l1 1.7.5-1.5c.3-1 .8-2 .8-2.9 0-.5-.7-1.4-1.3-1.5-1-.3-2.1 0-3.2-.1-.5-.2-1-.8-1.4-1.3.4-.3.9-1 1.4-1 4.1-.4 6-2.4 6-6.7 0-.4-.2-.8-.4-1.2-.2.3-.4.7-.7.9-1 .5-2 1.4-2.9 1.3-1.8-.3-2.2-2-2.5-3.7-.1-.7-.2-1.6 0-2.3.2-.6.8-1.2 1.2-1.8.5.7 1.2 1.2 1.5 2 .3.6 0 1.5 0 2.2l.4 1c.4-.3.8-.4 1-.7.4-.8.7-1.8 1.3-2.6.5-.6 1.3-1 2-1.4l1 2c.1.5 0 1.1.3 1.8zM197 76.1l2.2-.4v1.7c0 .6-.1 1.2 0 1.6l1.4 1.6c.5-.5 1.1-1 1.4-1.6 1.4-4.1 5.6-5.6 9.3-3.2.9.6 1.5.6 2.5 0a8 8 0 014.8-1.3c1 0 2.4 2 2.3 3-.2 1.4-1.4 2.7-2.3 4-.2.3-.8.4-1.2.5a10 10 0 00-3.8 3.1c-.2.4-.6.8-1 1.1-.4-.5-1.2-1-1.2-1.6l.3-4.5c0-.4-.2-.9-.4-1.3-.1.3-.2.8-.5 1-1.3 1-2.6 2.4-4.2 3-1.2.6-1.7 1.1-1.9 2.4 0 .9-.8 1.6-1.2 2.4l-1.5-2.5v-.9c0-.6-.2-1.1-.3-1.7-.4.1-1 .1-1.2.4a4 4 0 00-.6 1.9c0 1 .3 2 .2 3 0 .5-.7 1-1.1 1.1-.3 0-1-.4-1.1-.8-.3-1.2-.4-2.5-.5-3.7v-1c-.3.3-.8.5-1 .8-.2 1-.1 2.2-.5 3.3-.2.6-.9 1-1.4 1.5-.4-.6-1.1-1-1.2-1.7-.2-1.3 1.3-2.8-.5-4l.2-.3c2.5-1.6 2.5-4.6 4-6.9zm18.5 1l-1 1c-.2.7-.1 1.4-.2 2h1.9c.4 0 .8-.3 1-.6.6-.7 1-1.6 1.5-2.4-1 0-2-.1-3.2 0zm-10.2 2l.3 2 1.6-1.2.8-.7 1.3-1.7c-.7-.2-1.6-.7-2.2-.5-.7.2-1.2 1-1.8 2zM238.6 55.6l1.1-2.3 1.7 2.2v1l.2 2.3c1-.8 2.2-1.5 3-2.5.7-.8 1-2 1.6-2.8.2-.3 1.2 0 1.8 0l-.4 1.2-.1 3.4c0 .3.7.8.8.7 1.7-1 4.1.5 5.6-1.5 1.2-1.7 2.8-2.5 4.4-.7 1 1 2.1 2.5 2 3.7-.3 1.8-1.8 3.1-4 3.2-.4 0-1 .3-1.4.5.6.4 1.4 1.4 1.8 1.2 1.3-.3 2.4-1.2 3.6-1.8.7-.3 1.4-.3 2-.5-.2.6-.2 1.5-.7 1.9-1.3 1-2.6 2.2-4.1 2.8-2.7 1.1-5-.5-5-3.4 0-1.7 0-3-2.3-3-2 0-3.5.1-3.2 2.7 0 .7-.1 1.6-.5 2-.6.7-1.5 1-2.3 1.3-.1-.6-.4-1.2-.4-1.7v-1.9c0-.6-.2-1.3-.4-2-.8.4-2 .4-2.4 1-.6 1-.6 2.5-1.3 3.6-.3.7-1.3 1-2 1.5-.2-.7-.5-1.3-.4-2 .1-1 .6-1.9.8-2.8 0-.4-.4-1-.7-1.2-.6-.3-1.3-.3-1.9-.6-.5-.3-1-1-1.5-1.4.6-.3 1.3-.8 1.9-.8 2.4.2 2.7-1.2 2.7-3.3zm17.4 5.6c1.4-.3 1.9-1.3 1.6-2.5 0-.3-.7-.5-1-.8l-1.2 2.7c-.1.1 0 .4.6.6zM121.3 143.2c-1 2.5-2.2 5-5.2 4.6a6.8 6.8 0 01-3.8-2.4c-.7-.8-.8-.8-1.6-.2a22 22 0 01-4.4 2.6c-2.6 1-4.4 0-4.4-2.7 0-3.2.5-6.4 1-9.5.1-.7 1.5-1.5 2.3-1.6 1.9 0 3.8.2 5.8.5.5 0 1 .6 1.5.9-.5.3-1 .7-1.5.8-1.3.3-2.7.3-4 .6-.5.1-1 .8-1.4 1.3.4.3 1 1 1.3 1 2.4-.7 5.1-.3 7-2.5 1.2-1.4 2.3-3.2 4.5-2.5 2.3.7 2.8 3 3.3 5 .3 1.2-.2 2.6-.4 4.1zm-3.9-5.5a6.4 6.4 0 00-2 5.5c0 .5.4 1 .8 1.4.2.1.8-.1 1.1-.4 1.5-1.4 1.7-4.7.1-6.5zm-9.3 3.7c-.8.1-1.9 0-2.2.5-.6.8-.6 2-.8 3 .6-.2 1.3-.3 1.9-.6l2.4-1.4c1-.5 2.6-.2 2.7-2l-4 .5zM56.4 68.1l1.9-8.7c.4-1.9 1.2-2.2 2.5-.7.1.2.6.2 1 .2.8 0 1.7-.2 2.4 0 1.4.4 2.9 1 1.5 3-1.3 1.7.6 2.5 1 3.8.3-.2.7-.3.8-.5l4-5.3c.3-.4 1.4-.6 2-.4 3.7 1.2 4.6 4.8 2 7.8-1 1.2-2.1 2.6-3.5 3.4-1.2.7-2.8.7-4.1.5-.5 0-.9-1.5-1.3-2.3l-.2-.7-.7.6c-1.4 2.7-4 3.8-6.7 4.9-.8.3-2 .5-2.4.2-.6-.5-.6-1.6-.6-2.5 0-1 .3-2 .4-3.3zm6-2.5c-1.9.3-3 1.4-3.2 3.4l.3 2 1.5-1 2.1-1.4c.7-.6 1.1-1.3 1.7-1.9-.7-.4-1.4-.9-2.3-1.1zm7 3.2c1.6-1.3 3.2-2.5 4.6-3.8.3-.3-.1-1.4-.2-2-.7 0-1.8 0-2 .3-1 1.6-1.6 3.4-2.4 5.5zm-8.6-7.2l-.7 1.6c.3 0 .6.3.7.3l2.2-1.3c.2-.2.2-.6.3-1h-1c-.4 0-.8.1-1.5.4zM65.6 136.9l1 .9.7 1.3c.1-.6.3-1 .2-1.6 0-1.3.5-1.8 1.8-1.7l7.9.5c.6.1 1.2.8 1.9 1.2-.7.4-1.4 1-2.1 1-1.5.2-3 0-4.4.1-.6.1-1.2.6-1.8 1 .6.4 1.2 1.1 1.9 1.3 1 .2 2.1 0 3.2 0 .5 0 .9.4 1.3.7l-1 .7c-.8.4-1.6.8-2.5 1-1.6.4-2.2 1.2-2 2.9 0 .5-.5 1.1-.7 1.7-.7-.5-1.8-.9-2-1.5-.4-1.3-.4-2.8-.5-4.2l-.2-1.3-.7 1.3c-1 1.9-1.7 4-3 5.5-2 2.2-4.4 2-6.4-.2-2.7-2.7-2.2-6.7.3-9.7 2.5-3.1 3.6-3.1 7-1zm-3.8 1.7c-1.7.6-2 1.9-2.2 3.5 0 1.7.2 3.3 2 3.9 2 .6 2-1.6 2.7-2.8 1.6-3.3 1-3.8-2.5-4.6zM297.6 132.2a8 8 0 005-5.4c.2-.5 1-.8 1.5-1.2.3.6.8 1.2.8 1.7a131 131 0 01-1 7.7c0 .5-.5 1.2-.6 1.2-.6-.1-1.5-.5-1.5-.8-.2-1.6-.6-1-1.4-.4-1.4 1-3 1.8-4.4 2.6-1.6.8-3.6-.4-4-2.2l-.6-1.3-.9 1c-1 1-2.1 2.4-3.4 2.9-1.2.4-2.9.8-3.8-1.3a13.8 13.8 0 01-.6-9.5c.2-.5 1.1-1 1.6-1 .4 0 1 .9 1.1 1.4l.6 6.3c0 .2.9.5 1.2.4.9-.4 1.6-1.2 2.4-1.4 2.6-.8 1.5-3.3 2.4-4.9.3-.6.3-1.4.8-2 .3-.3 1-.4 1.6-.3.3 0 .8.7.8 1.1 0 1.4-.3 2.7-.3 4 0 .9.2 1.7.4 2.5l2.3-1zM221.5 96.4c-.4 2-.8 4-1.4 5.7-.1.5-1 .8-1.5 1.3-.2-.6-.8-1.1-.8-1.7.2-1.8.4-3.6 1-5.3.5-1.4.3-1.7-1-1.9-.9-.1-1.6-.7-2.3-1.1.8-.4 1.7-1 2.5-1.1 3.3-.7 6.7-1.2 10-1.7.4 0 1 .5 1.4.8l1.2 1.8c.7-.5 1.5-.9 2-1.5.8-1.1.7-3.2 2.8-2.6.3.1.2 2.2 0 3.4-.5 2.6-1.2 5.2-1.9 7.8-.1.4-.6.8-1 1.2-.4-.5-1-1-1.2-1.5-.2-.9 0-1.8 0-2.7l-.4-1.8c-.6.5-1.6.8-2 1.4-.4.8-.2 2-.5 2.8-.2.6-.9 1.3-1.4 1.2-.4 0-1.3-.8-1.3-1.2.1-1.4.4-2.9.8-4.3.3-1.2 0-2-1.3-1.7-1.5.2-3.5 0-3.7 2.7zM156.5 69.9c3.6-2.2 7.4-4 7.5-9 0-.5.7-1.1 1.2-1.5.3-.3 1.2-.5 1.5-.3.3.2.4 1 .4 1.5l-.3 1.2-.5 2c.6-.4 1.2-.9 1.8-.9.8 0 1.7.3 2.5.5-.4.5-.8 1.1-1.3 1.5-1 .6-2.1 1.1-3.1 1.8-.4.2-.6.7-.8 1l1.1.4 3.3 1c.5.2.8.7 1.1 1.1-.5.2-1 .7-1.5.7-1 0-2-.1-2.8-.5-1.8-.8-2.6.3-2.8 1.5-.3 1.2-1 1.7-1.8 1.2-.5-.2-.6-1.3-.7-2 0-.5.2-1 .3-1.4l-1.5.7c-1.7 1.4-3.5 2.7-6 1.9a3.6 3.6 0 01-2.6-3.4c-.2-3.1 2-6.2 5-6.8.8-.1 1.9.2 2.7.5.5.2.7 1 1 1.4-.4.2-.8.4-1.3.4-2-.2-3.7.4-4.5 2.4-.5 1.7-.2 3 2 3zM154 115.5c2.5-1 4.9-.5 6.2 1.4 1.6 2.5 1.4 6.1-.1 7.2-.6.5-1.4.6-2 .9l-.9-2.5.1-1.5-1 .9c-3 3.5-4.2 2.5-6.9 1.3-1.8-.7-3.1-5.1-2.3-7.3.7-1.7 1.5-3.5 2.6-5 1.2-1.5 3.7-1.5 5.2-.2l.7.8c-.4.3-.7.6-1.1.7-3 .5-5 4.3-3.2 6.9.3.5 1.5 1 2 .9 1-.4 1.8-1.3 2.7-2-.4-.2-.8-.6-1.3-.7-1-.3-2-.3-.8-1.8zM160.3 137.2c-.8.5-1.8 1-1.8 1.6-.2 3.6 1.1 4.3 4.3 2.6.4-.2.8-.6 1.2-.6h2l-.4 1.5c-1.2 3.3-6.3 4-8.8 2.8-.6-.4-1.6-1.2-1.5-1.8.2-3.5-.9-6.9.3-10.4.9-2.7 1.4-3.5 4.6-3.5 2.7 0 5.4.2 8.1.4.3 0 .5.5.8.7-.4.3-.7.6-1.1.7l-7.7 1c-.6 0-1.1.4-1.5.8-.3.2-.3.8-.4 1.2.4 0 .9.2 1.3.1l5.9-.8c.5 0 1 .6 1.6.8-.4.4-.7 1-1.2 1-1.8.8-3.6 1.3-5.7 2zM88.5 89.3c-1.1-3.1-.1-5.6 2.3-7.5 1.3-1 2.8-1 4.2.1 1.2 1 1.4 2 .8 3.4-.5 1.3-1.5 1.4-2.8 1.4-.7 0-1.4.3-2 .5 0 .3.2.7.4.8.8.4 1.6 1 2.4 1 1.9-.1 3.1-.8 3.6-3 .3-1.4 1.5-2.8 2.7-3.7.9-.6 2.7-1 3.5-.4 1 .6 1.8 2.2 1.9 3.4.1 1.5-.5 3-1 4.5-1 2.6-3.8 3.3-5.8 1.3-.8-.8-1.3-1-2.4-.3-2.6 1.8-5.7 1.4-7.8-1.5zm14.3-2.9l-.4-2.2-1.6 1c-.4.4-.8 1-.7 1.5.1.9.6 1.7 1 2.6l1.2-1.9c.2-.2.3-.3.5-1zM94 83.2l-2.3.8.5.7c.6-.3 1.2-.7 1.8-1.5zM141.7 83c.7-.2 1.1-.6 1.5-.5.6.2 1 .7 1.6 1-.2.4-.5 1-.8 1.1-1.5.5-3 1.2-4.4 1-1.4-.1-1.7.2-1.6 1.4.1.8.5 1.7.4 2.6-.1.9-.6 1.7-1 2.5-.5-.4-1.3-.8-1.6-1.4-.4-.5-.5-1.3-.5-2 0-1.6.2-3.1-1.7-4-1.1-.5-.7-1.2.2-1.8.6-.4 1.4-1.2 1.4-1.7-.3-2.1 1-2.9 2.6-3.3 2.4-.6 5-1 7.5-1.4 1.5-.3 3.4 1.5 3.4 3.3a76 76 0 01-.6 8.6c0 .8-1.1 1.8-1.9 1.9-1.5.2-1.3-1.2-1.2-2l1.3-8.2c0-1 .5-1.7-1.1-1-1.5.8-3.3.6-5 1.1-.7.3-2 1-2 1.7-.2 1.5 1.3 1 2.2 1h1.3zM203.8 59.7a36 36 0 014-.8c.1 0 .5.3.6.6l-.5.6c-.5.3-1 .4-1.6.6-1.8.7-2.2 2.2-1 3.6.7.7 1.4 1.3 1.7 2.1.3 1 .7 2.4.2 3-.5.8-2.3 1.3-3 1-2.8-2-5.7-.5-8.5-.4-3.1 0-5.4-3.1-4.3-6 .5-1.7 1-3.5 2.2-4.7 2-2 6-.7 6.5 2.1.3 1.6-.9 2.6-2.3 3-.7.2-1.4 0-2 0-.8.1-1.5.4-2.1.7.7.7 1.2 1.6 2 2 .6.4 1.7.3 2.3 0 1.7-.7 3.1-.6 4.6.4.4.3.8.3 1.3.4-.2-.5-.3-1-.6-1.4-.2-.5-.8-.8-1-1.2-1.5-1.9-.9-4.2 1.5-5.6zm-6.2 1.5c-.3-.3-.6-.8-.8-.8-.6.1-1.3.4-1.8.7-.2 0-.3.6-.2.9 0 .2.4.5.5.5a6 6 0 002.3-1.3zM325.5 127.1c-.6 2-1.6 3.8-.2 5.9.7 1.1 1.1 1.2 2 .3.2-.4.6-.7 1-1 1.2-1.1 2-2.1-.6-2.5-.2 0-.5-.6-.5-.8.2-.4.6-.9 1-1 2-.7 5.8 1.2 6.4 3 .7 2.2-.7 6.7-2.4 7.3-.4.2-1.3-.7-1.7-1.3-.3-.5 0-1.2 0-1.8l-.2-.7-.3.6c-1.7 1.2-3.3 2.8-5.5 1.9-2.2-1-3.3-2.7-3.4-5 0-3.3.9-6 3.3-8 .5-.4 1-1 1.5-1 1 0 2 .3 3 .5l-1.6 2.1-1.8 1.5zM241.4 104.8c-3 0-4.6-2.1-4.2-4.7.4-2.5 1-5 1-7.4-.1-2.5 1.4-3.1 3.2-3.2 3-.2 6.1 0 9.2 0 .3 0 .7.3 1 .4-.2.3-.4.8-.8 1-2.2 1.7-4.8 1.3-7.3 1.4a5 5 0 00-2 .6c-.1.1 0 1.1.2 1.2.7.2 1.4.2 2 .2l.9-.2 2.3.6c-.5.4-1 .9-1.6 1.2-1.5 1-3.8 1-4.1 3.3-.1.7.1 1.4.2 2 .5-.3 1-.5 1.5-1 .9-.8 1.6-1.8 2.6-2.5.6-.3 1.6-.1 2.3-.2-.2.6-.3 1.3-.7 1.7a88.2 88.2 0 01-5.7 5.6zM140.7 133.4c3.6-3 5.3-2.9 7.1-.5l.4.7-1 .4c-1 .1-2.1 0-2.9.5-1.4 1-2.4 2.5-1.2 4.2 1.3 2.1 4 2.9 5.8 1.7l.6-.7c-.3-.2-.6-.6-.9-.6H146c-.5-.1-1-.5-1.4-.7l.7-1.1c1-1 6.2-1.5 7.3-.7 2.1 1.5 1.3 3.7 1.1 5.6 0 .6-.5 1-.6 1.6-.4 2-1.4 1.7-2.4.6-1-1.2-1.9-1.2-3.2-.7-3.5 1.1-7.6-1.7-8-5.3-.2-1.8-.2-3.5 1.3-5zM308.3 124.8c1.6-1.3 3.3-.7 4 1.4l2.3 5.6.3.8c0-.3.3-.6.2-.9l-.4-6.7c0-.5-.2-1.1 0-1.4.6-.5 1.4-1.2 2-1.1.5 0 1.1 1.2 1.2 1.8v8c0 1.5.2 3.2-1.5 4-1.4.5-3-1-4-3.3l-.4-1-.8-1.7-.2 2c-.3 1.4-.5 3-1 4.4-.2.4-1 1-1.5.9-.6-.1-1.6-.8-1.6-1.2.1-3.9-1-7.9 1.4-11.6zM133.9 134.9l-1.5 2.2-1.3 1.7 2.2.7c2 1 4 2.2 5.9 3.3.2.1.4.5.6.8-.4.2-.8.6-1.1.5-1.6-.2-3.2-.5-4.7-1-1.8-.5-3.5-1.3-5.2-2-1.1-.4-2-.6-2 1.2 0 1-.5 2-1 2.7-.5.5-1.4.5-2.1.5-.2 0-.5-.8-.5-1.2l.5-10c0-.5 1-1.3 1.2-1.2 2 .8 3.5-.6 5.2-1.1 2.6-1 3.7 0 3.8 2.9zm-3 1c.2-.6.5-1 .8-1.5-.7 0-1.4.1-2 .3-.4.2-.8.6-1 1-.3.3-.4.7-.6 1.1.5 0 1 0 1.5-.2.3-.1.5-.5 1.2-.8zM97.7 139c3.4 1.4 3.9 2.7 2.5 6-.2.7-.7 1.3-1 2-.4 1.7-1.5 1.7-2.6.8-1-.7-1.6-.8-3-.5a12 12 0 01-5.6-.7c-1.6-.5-3-1.5-2-3.8s1.4-4.9 2.5-7c.5-1 2.3-1.5 3.6-1.7.5-.1 1.2 1 1.8 1.4l-1.6.8c-.9.6-2 1.2-2.3 2-.6 1.3-.8 2.8-1.1 4.2-.2 1 1.8 2.8 3 2.6l4-1.4c.5-.2.9-.8 1.3-1.2-.6-.4-1.2-1-1.9-1-.9-.3-1.9 0-2.7-.2-.5 0-1-.7-1.4-1 .4-.5.9-1.1 1.3-1.2h5.2zM222.4 115.4c.2-1 .5-1.8.4-2.6 0-1.6.8-2.6 2.2-3 2.3-.4 4.4.5 4.8 2l1 3.8c0 .2.3.5.5.7l.4-.8c.2-2 .2-4 .5-6a3 3 0 011-1.7c.3-.4 1-.8 1.5-.6.4.1.7 1 .7 1.4a124 124 0 01-1.1 8.6 7.5 7.5 0 01-1.4 3.6c-.9 1-2.3 1.4-3-.5l-2.4-6.5c-.1-.4-.4-.7-.6-1.1l-.8 1c-.6 1.8-1.1 3.8-1.9 5.6-.3.7-1.2 1.1-1.8 1.7-.3-.8-.9-1.5-.8-2.3 0-1 .5-2 .8-3.3zM82.5 91.2l-2.4 1c-2.1 1-4 .5-5.5-1-1.6-1.8-2.6-4-1.7-6.3a17 17 0 013-4.8c1-1.3 4-1.2 5-.2.4.3.6.8.8 1.2-.4.1-1 .5-1.4.4-2.6-.3-3.7 1-4.5 3.5-.7 2.1 0 3.4 1.4 4.5s2.5 0 3.6-1c.5-.5 1.2-.8 1.8-1.3l1-1c-.6-.1-1.1-.4-1.7-.4-.9 0-1.7.4-2.6.4-.5 0-1-.6-1.5-1 .4-.4.8-1.1 1.4-1.3 1.2-.3 2.6-.4 4-.5 3.2 0 4.2 1.2 3.4 4.4l-1 3.8c-.2.7-.6 1.6-1.2 2-.5.2-1.4-.2-2.2-.4.2-.6.3-1.2.3-2zM61.9 81.5c.2-.7.1-1.4.5-1.8.5-.7 1.3-1.8 2-1.7 1.5 0 0 1.3.4 2v.9c0 .4.2.7.3 1.1.2-.3.5-.6.6-1 .2-.4.2-1 .5-1.3.3-.4.7-.8 1.1-.9.4 0 1.1.4 1.1.7 0 2.2 1.6 1.4 2.8 1.6.6.1 1.3.5 2 .8-.6.3-1.1.8-1.7 1-.5.3-1.1.5-1.7.5-1.2 0-1.8.2-1.8 1.6 0 1.3 0 2.4 1.8 2.2.3 0 .7.3 1 .5-.3.3-.6.8-1 .8-1.2 0-2 .2-2.6 1.4-.2.5-1.8.7-2.3.4-1.2-.8-2 0-2.3.7-.8 1.7-1.4.7-2 0-.7-.7-1.4-1.6-2-2.5l-.8-1 1.3-.8c.5-.2 1-.2 1.4-.5.4-.3.7-.8 1-1.3l-1.1-.5-1.7-.5c-.5-.3-.9-.8-1.3-1.2.5-.3 1-1 1.5-1 1-.3 2-.1 3-.2zm2 5.4l.5.2.8-3-.3-.1c-.3.8-.7 1.6-1 2.9zM135.8 115.5l-1 7.8c-.2.6-1 1-1.6 1.4-.4-.5-1.2-1-1.1-1.6.2-2.8.3-5.8 1-8.6.2-1 2-1.9 3.1-2.2 1.6-.5 2.7.7 3.2 2 .6 1.5 1 3 1.4 4.5.1.3.5.5.8.7 0-.3.2-.6.1-.8-.3-1.8-.7-3.6-.8-5.4-.1-1-.6-2.3 1-2.5 1.7-.2 1.5 1 1.8 2 .6 2.9 1.5 5.7.8 8.7-.2.8-.7 2-1.2 2.1-1 .2-2.6 0-3-.8-1.3-2-2.1-4.5-3.2-6.7-.2-.3-.8-.5-1.3-.6zM139.4 96.9c.7-.8 1.4-1.8 2.1-1.8 2.8-.2 5.6-.1 8.4 0 .4 0 .9 0 1.2.3.4.2.6.7.8 1l-1 .5c-2.4.1-4.7.4-7 .4-1.3 0-2 .6-1.6 1.8.1.3 1.3.6 2 .5l4.7-.8c.5 0 1 .3 1.4.5-.3.3-.6.7-1 .8-2 .7-4 1-6 2-.7.3-1 1.5-1.7 2.3l2.2-.1 4.9-1.7c.6-.1 1.4.3 2.2.5l-1.2 1.3c-2.4 1-4.7 2.3-7 3-2.3.8-3.9-.7-3.8-3 0-2.5.3-4.9.4-7.5zM195.5 95.5c1-1.4 1-3.8 3.3-3.2 2.4.6 2.5 3 3.2 4.7v1l1 1.7.4-1.7c.6-1.8 1.1-3.7 1.9-5.5.1-.4 1.2-.8 1.4-.7.5.4 1 1.2.8 1.6-.8 3.3-1.7 6.6-2.8 9.7-.1.3-2 .6-2.4.2a8 8 0 01-3-6.4c0-.5-.3-1-.4-1.4-.3.5-1 .9-1 1.4l-1 6.6c-.2.8-1.1 1.4-1.7 2.2-.5-.8-1.5-1.7-1.4-2.4.3-2.6 1.1-5 1.7-7.8zM218.4 69l.2-4.7-.1-1.7c-.4.4-1 .8-1.1 1.3-.5 1.3-.5 2.7-1 4-.3.5-1.4.8-2 1.2-.2-.7-.6-1.3-.5-2l1-3.4c.2-.3 0-.7 0-1-.3.1-.7.3-.8.6l-2.4 5.7-.8 1.4c-.6-.4-1.9-.8-1.8-1.2.1-3 .5-6 .8-9 0-.5.7-1.2 1-1.2.6 0 1.3.4 1.5.8.3.5 0 1.2 0 1.8l1-1.4c1.1-1.4 3.8-2 6-.8a3 3 0 011.6 3.4c-.3 1.7-.5 3.5-1 5.1-.1.5-1 .8-1.6 1zM114.8 62.6c.7-1.4 1.2-3 2-4.2.4-.6 1.3-1 2-1.4l.2 2.3-.3 1.3c.5 0 1-.3 1.4-.3.7 0 1.4.3 2 .6.2 0 .4.7.3.7-.6.4-1.3 1-1.9.9-2.2-.4-3.3.2-3.5 2.7-.1 1.4-1 2.9-1.8 4-.4.7-1.5.9-2.3 1.2 0-.5.1-1 0-1.6v-1c-.4.1-1 .2-1.1.5-.5.7-.7 1.7-1.3 2.5-.7 1-1.6.6-1.6-.4 0-1.6-.8-2-2.1-1.8-.4 0-.8-.4-1.2-.6.3-.4.5-.8.9-1 1.1-.5 2.3-.7 3.4-1.2.6-.3 1-.8 1.6-1.3-.6-.2-1.1-.3-1.6-.6l-2.4-1.2c.8-.3 1.7-1 2.5-1 2.2.2 2.3-1.5 3-2.7.4-.6 1-1.5 1.4-1.4 1 .2 1.1 1 .5 2-.4.7 0 1.8-.2 2.8l-1 1.1-.7 2 .5.3c.4-.5 1-1 1.2-1.5.2-.5.1-1.2.1-1.7zM174.2 124.2c-1.6 1.3-3 .8-2.7-1a96 96 0 012.4-10.8c.2-.7 1.5-1.1 2.2-1.6.5.7 1 1.4 1.3 2.1l1 5c.1.4.6.8 1 1.2l.3-1.3c.2-1.7.2-3.3.6-5 .1-.6.8-1.3 1.4-1.8.2-.2 1-.2 1.2 0 .3.2.6.8.5 1.1a146 146 0 01-1.4 8.7c-.1.7-.7 1.8-1.4 2-.6.1-1.9-.3-2.3-.8-1-1.4-1.5-3-2.3-4.4 0-.3-.3-.5-.5-.8 0 .3-.3.6-.4.9l-.9 6.5zM240 83.4v-7.2c.1-.7.8-1.4 1.2-2l1.1 1.8.7 1.3.6-1c1.9-2.1 4.4-2.9 6-1.7a3.2 3.2 0 01-.2 5.1l-1 1 1.4.9h1l2.7 1.9c-1 .1-1.9.5-2.8.3a33 33 0 01-5.5-1c-1.2-.4-1.7-.2-2 .9-.1.7-.4 1.5-.8 2.2-.3.5-1 .8-1.5 1.2-.3-.5-.7-1-.8-1.6-.2-.6 0-1.2 0-2zm6-4.4c.7-.5 1.4-.9 2-1.5.2-.3.2-.9.3-1.4-.5.1-1 0-1.4.3-.7.5-1.3 1.2-2 2 0 0 .6.5 1.2.6zM332.9 70.6l-6 2.2c-.7.3-1.2.9-1.8 1.3.8.1 1.6.3 2.5.3l2.9-.2c.4 0 .9.4 1.3.6-.4.3-.8.7-1.2.8-1.4.4-2.9.5-4.3 1-1 .2-2 .7-2.6 1.4-.3.4 0 1.5.1 2.3.5-.3 1-.4 1.5-.8A6 6 0 01330 78c.4 0 .8.4 1.2.6l-.8 1c-1.9 1.2-3.6 2.7-5.7 3.6-1 .5-2.8.2-4-.3-1.3-.6-.8-2.1-.5-3.3.6-2.4 1.1-4.9 1.8-7.3.2-.5.7-1.1 1.2-1.2 2.4-.6 4.7-1.1 7-1.4 1-.1 2 .3 2.8.5v.2l-.2.3zM206.2 120.5v-6.3c0-.5.3-1 .4-1.4-.6 0-1.4-.2-1.7 0-.8.8-1.7 1.7-1.9 2.7-.5 2.3-.6 4.8-1 7.2-.1.4-1.2 1.1-1.4 1-.7-.5-1.7-1.2-1.7-1.8 0-1.6.4-3.2.7-4.8.3-1.4.7-2.8-1.4-3.1-.5 0-.9-.6-1.3-1 .5-.3 1-.7 1.4-.8 2.8-.7 5.5-1.5 8.3-1.8 2.5-.3 3 .7 2.6 3.2-.4 2.3-.4 4.7-.7 7 0 .6-.5 1.2-.7 1.8l-1.6-1.9zM239.6 111.2c1.3-1.5 2.4-3 3.9-4 1.6-1 2.8.3 3 2.3l1.4 9.8c0 .7-.4 1.4-.6 2-.7-.3-1.5-.5-2-1-.4-.4-.3-1.3-.7-1.8-.5-.6-1.2-1.5-2-1.6-.6 0-1.5.6-2 1.2-.5.4-.6 1.4-1 1.6-.7.3-2 .4-2.2 0-.5-.5-.6-1.6-.4-2.3.7-2 1.7-4 2.6-6.2zm3.2.3c-.1.4-.4.8-.4 1.2l-.1 2 .4.1c.5-.7 1.2-1.4 1.4-2.1.2-.7 0-1.6-.2-2.4-.4.2-.7.5-1 1.2zM274.7 135.2c-2.3.3-4.5.6-6.6.6-1.9 0-3.1.3-3.1 2.6 0 .7-1.1 1.4-1.7 2-.4-.7-1-1.4-1-2.2.2-3.5.6-7 1-10.4 0-.5.8-.8 1.2-1.3.5.7 1.2 1.3 1.4 2 .3.8.2 1.7.2 2.6.7-.8 1.2-1.6 2-2.2 1.5-1 3-2 4.6-2.8.4-.1 1 .4 1.6.6-.2.4-.4 1-.7 1.3l-3.6 3.6c-.3.3-.5.8-.7 1.2l1.3.7c1.4.6 2.8 1 4 1.7zM231.1 130c2.4 1 2.8 3 2.9 5 0 2.5-.9 4.7-2.9 5.9-3.5 2-5.6 1.8-7 .1-.7-1-1.7-1.7-.8-3.2.4-.7 0-1.8 0-2.8.2-5.6 3.3-6.5 7.8-5zm-.6 2.6c-.8-.5-1.6-1-2.4-1.3-.5 1-1.2 2-1.4 3-.3 1.3 0 2.6-.1 3.9 0 1.5.2 1.6 1.6 1 2.9-1.5 2.5-4 2.3-6.6zM313.6 60.6c1.7-2 3.5-3.1 6.2-2.6.4.1 1.3-1.4 1.8-2.3.6-1 .8-2.3 1.3-3.4.2-.3 1-.4 1.4-.3.3.1.6.8.5 1.1-1 4.1 0 8.5-1.8 12.5-.2.5-.9.8-1.3 1.1l-.5-1.5-.3-3.1c-.5.7-1 1.6-1.6 2-1 .8-2.3 1.5-3.5 1.6-2.8.3-3.9-1.3-3-3.9l.8-1.2zm4.1-.4c-.7.8-1.5 1.4-2 2.2-.3.3 0 .9 0 1.3l1-.5 2-1.7c1.1-1 .2-1-1-1.3zM185.3 117.3c1.2-2.3 2.2-4.5 3.5-6.4.5-.7 1.8-1 2.6-1 .5.2 1 1.3 1.3 2 .6 2 1.2 3.8 1.5 5.7.2 1.7 0 3.4-.1 5 0 .6-.7 1.1-1.1 1.6-.6-.5-1.2-1-1.6-1.6-.2-.3 0-1 0-1.4-.3-.7-.9-2-1.1-2-1 .2-1.9.7-2.6 1.3-.5.4-.4 1.5-.9 1.9-.5.5-1.4.6-2.1.9-.2-.7-.7-1.5-.6-2.2.2-1.2.8-2.4 1.2-3.8zm3.7-2.6v.5l.7 2 .7-1.8v-.7l.3-1.6-1.7 1.6zM255.3 98.7l.5-6.5c.1-.6.7-1.6 1.2-1.7 1.6-.6 3.2-.9 4.9-1 2.6-.2 3.8 2 2.8 4.7-1.4 4-4.1 6.7-7.5 8.9-1 .6-1.7.3-1.8-1-.2-1 0-2 0-3.4zm5.1-1.6l1.9-3.8c.1-.4 0-1-.1-1.4-.5 0-1.3 0-1.4.3-.7 1.7-1.2 3.5-1.8 5.2.4 0 .8 0 1.4-.3zM182 85.7c0 .7.2 1.2 0 1.7-.2.7-.7 1.4-1 2-.6-.5-1.6-1.1-1.6-1.7-.1-2.2-.6-2.2-2-.8a4.3 4.3 0 01-6 0c-1.4-1.6-1.1-2.8.8-5a5 5 0 015.3-1.6c1.4.3 1.3-.2 1.3-1 0-.9-.2-1.7 0-2.4.4-.7 1.1-1.2 1.7-1.8.4.6 1 1.2 1 1.8.2 2.3 0 4.6.1 7 0 .5.3 1 .5 1.8zm-8.3-1.1c.4.2 1 .7 1.2.6a10 10 0 002.3-1.4c.3-.2.4-.8.5-1.2-.5-.2-1.2-.6-1.5-.4-1 .5-1.7 1.3-2.5 2.4zM131.4 68c-2.5 2.2-5 4.1-8.3 4.3-1.6 0-2.6-1.6-2.1-3l3.1-9.4c.2-.6.4-1.3.8-1.5.5-.3 1.2-.3 1.9-.4 0 .5.2 1 0 1.4l-1.1 3.7v1.2l1-.5c1.2-.5 2.2-1.5 3.3-1.6 2.2-.2 3.4 1.8 2.5 3.8l-1 2zm-5-1.5l-2.2 2.3c-.3.3-.3.7-.4 1.1h1.1c1.2-.9 2.5-1.7 3.5-2.7.7-.7 1.1-1.8 1.6-2.7l-2.6 1.3-1 .7zM271 118.3c-1.2-4 .8-7 3.4-9 1.4-1 4.4-1 6-.2 2 1 1.5 3.6.6 5.4-.9 1.7-2 3.3-3.3 4.7-2.1 2.3-5 1.8-6.7-.9zm4.7-5.9c-.4 1.4-1 2.8-1.3 4.3l1.4.7c1-1.6 2.1-3.3 3-5 .2-.3 0-1-.3-1.3-.2-.2-1-.2-1.3-.1-.5.2-1 .6-1.5 1.4zM296.3 61.7c0 1.6.2 3 .3 4.4 0 .5-.2 1.5-.4 1.5-.7 0-1.7 0-2-.4-1.2-1.7-2.6-1.2-4-.7-2 .6-5-.7-5.6-2.3-.5-1.1 1.3-4.4 2.5-5.4 2.9-2.2 6-1 9.2-.8.2 0 .7.7.7 1.1-.1.9-.4 1.7-.7 2.6zm-8 .2c-.7 1.6-.1 2.5 1.3 2 1.3-.5 2.4-1.4 3.5-2.3.3-.2.4-1 .2-1.4-.1-.3-1-.5-1.3-.4-1.3.5-2.5 1-3.7 2zM61 107c1 0 2-.4 3-.7 1.6-.4 3.3-.8 5-1 .4 0 1 .4 1.3.7-.3.3-.5.9-.9 1-3.2 1.6-6.5 3-9.8 4.4-.6.3-1.6 0-2.3-.5-.2-.2-.1-1.3 0-1.9 1-3 3.1-5 5.4-7 .5-.5.8-1.1 1.1-1.6l-2.1-.2-.2.2-3.1-.4c.8-.6 1.6-1.4 2.6-1.7 1-.3 2.4-.3 3.5 0 3.2.7 3.4 1.4 1.3 3.8-1.5 1.7-3.2 3.2-4.7 5zM179.2 105.1h-10.6c-.3 0-.6-.3-.9-.6.6-.5 1.2-1.4 1.9-1.5 1.3-.2 2.7 0 4 0 .6.1 1 .4 1.6.3.5 0 1-.3 1.6-.5-.4-.4-.7-1-1.2-1.3-1-.7-2.1-1.2-3.1-2-2.2-1.6-2.2-3.7 0-5.4 2-1.4 4.2-2.3 6.6-1.8.6.1 1 .9 1.6 1.4l-1.6.4c-1 .3-2 .5-2.8 1-2.2 1-2.2 2-.4 3.3l3.1 2.6c1.4 1.2 1.7 2.6.2 4.1zM243.2 141c-1-1-2.3-1.8-1.9-3.5l3.2 1.1 1.4.5c.5.2 1 .1 1.6.1 0-.4 0-1-.2-1.4-.5-1.5-1.3-2.9-1.7-4.4a5 5 0 015.4-6.4c.3 0 .7.3 1 .4 0 .4-.2.8-.4 1.2l-.3.3c-3.5 3.1-3.5 3.1-1.3 7.4.4.9 1.1 1.8 1 2.7 0 1.3-.2 3-1 3.6-1 .6-2.8.4-4.1.1-1-.2-1.8-1-2.7-1.7zM61.5 116.3c2 .2 3.9.2 5.6.6.6.1 1 1.2 1.4 1.8l-2.2.3c-1.7 0-3.4-.3-5.2-.3-.3 0-.8.8-1 1.2a3 3 0 00.1 2c.2.3.9.6 1.4.6h4.7c.4 0 .8.4 1.3.7-.4.3-.6.9-1 1-1.5.4-3 .8-4.5 1-1.4 0-1.6.8-1.5 1.9 0 .8.2 1.7 0 2.5-.2.6-1 1-1.4 1.6-.5-.6-1.1-1-1.3-1.7-.5-1.3-.8-2.8-1-4.2 0-.7.4-1.5.4-2.3.1-1 .3-1.9 0-2.7-.8-2.8 0-4 3-4h1.2zM263.3 101.4c.2-1.4.5-2.7 1-3.9.6-1.9 1.5-3.8 2.3-5.7 1-2 2.5-3 4.6-2.8 2.1.2 2 2.3 2.6 3.6 1 2.7.6 5.5 0 8.3 0 .4-1 1-1 1-.7-.4-1.4-.9-1.6-1.5-.3-.7 0-1.6-.1-2.3-.3-.8-.8-1.9-1.4-2-.6-.2-1.7.4-2.2 1a8 8 0 00-1.5 2.8c-.4 1.4-1.3 1.7-2.7 1.5zm7.6-10c-.6.4-1.1 1-1.6 1.5 0 .2.3.8.6 1 0 .2.8 0 .8-.2.2-.7.3-1.4.2-2.4zM222 130.8c-1.3 4.3-2.4 8.4-3.8 12.5-.3.9-1.7 2.2-2.3 2.1-1.4-.3-2-1.5-1-3 .3-.4 0-1 .4-1.5 1.2-1.8.2-3-1-4.3a17.3 17.3 0 01-3-4.8c-.2-.6.5-1.6.7-2.5.6.5 1.4.9 1.9 1.5l2.3 3.6c.6 1 1.2 1.4 1.6-.3.5-1.5 1.3-3 2.2-4.4.3-.5 1.3-.6 2-.8v2zM300.8 89c1.1.7 1.2 1.3 0 1.8-.5.3-1.2.3-1.8.6-3 1.5-3 2.2-.8 4.6l2.5 2.9c1.3 1.6.3 3.1-.6 4.3-1.2 1.6-3.2 1.5-4.7.9-1.4-.6-3.6-.3-3.9-2.6l4.3-.5 1.6-.1c0-.6 0-1.4-.4-1.8-.7-.9-1.6-1.5-2.5-2.2-1.8-1.3-1.7-3-.8-4.8 1-2 5-3.8 7-3.1zM95.8 69.5l.2-1.3c0-.6.2-1.1.3-1.7-.5 0-1 .3-1.6.2-3.3-.5-2.9 2.3-3.4 4-.4 1.2-.7 2-1.8 1.5-.5-.2-1-1.5-.8-2.2a62 62 0 012.1-7.7c.2-.7 1.3-1 2-1.6.2.7.7 1.6.5 2.2-.3 1.2-.2 1.3 1.1 1.1 1.8-.3 3-.8 3.5-2.7.1-.7.7-1.3 1.3-1.8.2-.2.9-.2 1.2 0 .2.2.5.8.4 1l-2.6 9.6c-.2.7-.8 1.2-1.3 1.7l-1-2.3zM222.3 63.4c1-3.8 6.3-5.8 9.1-3.7 2.1 1.6 1 3.9 1.2 5.8 0 .7-.5 1.9-1 2-1 .5-2-.1-1.8-1.5-.3.1-.7.1-.9.3-1 .8-1.7 2-2.8 2.5-2 1-4.1-.3-4.1-2.6 0-1 .1-1.8.3-2.8zm2.7 3.3l3.9-4.3.3-.7c-.3-.2-.7-.5-1.1-.5-2 0-4 3.3-3.1 5.5zM282.7 98.7l-3.6-6.6c-.3-.7-.3-2.2 0-2.4 1.2-.8 2.1 0 2.7 1.2l1.3 2.4c.2.3.7.5 1 .8l.5-1.1c.8-1.4 1.6-2.8 2.6-4 .3-.4 1.2-.3 1.8-.4 0 .5.3 1 .2 1.5l-3.8 11.4c-.2.6-1 1.4-1.3 1.3-.7-.1-1.6-.7-1.8-1.3-.2-.7.2-1.7.4-2.8zM232.5 76.4c.5-2 1.9-3.2 3.5-2.6 1 .4 2 2.2 2 3.4.4 2.3.3 4.7.1 7 0 .7-.7 1.3-1 2-.5-.7-1.3-1.6-1.2-2.2.7-2-.4-2.2-1.8-2-.4.2-.8.8-1 1.3-.7 1-1.2 2.2-2 3-.2.5-1.1.4-1.8.6 0-.6-.2-1.2 0-1.8l3.2-8.7zm2.4.3l-.4 2.8.4.7.5-.3c0-1.1-.1-2.3-.5-3.2zM271.6 73.7c.9-.5 1.7-1.2 2.6-1.4 3.6-.5 5.4 2.4 4.2 6.4l-1.5 3.3c-.8 2-2.2 2.8-4.3 2.3-1.8-.5-2.4-2.2-2.4-3.8 0-2 .6-4 1-6.2l.4-.6zm4.1 3l-.8-2c-.5.5-1.2 1-1.4 1.7-.4 1.1-.5 2.4-.5 3.7 0 .3.4.9.7 1 .3 0 1-.4 1-.7.5-1 .7-2.1 1-3.7zM221 112.2c-.2 4.2-1 8-4.8 10.2-1.6.8-2.5.2-3.3-1.3-1.3-2.7 1.5-9 3.5-10.2 2-1 3.4-.6 4.6 1.3zm-4.8 3.7c-.3.5-.6 1-.7 1.6l.2 2 1.1-1.5c.4-.6.8-1.2 1-2l.4-3.2-2 3zM308.2 58c2 .8 3 2.2 2.8 4.4 0 .9.4 1.9.4 2.8 0 .5-.4 1-.7 1.5-.4-.2-1-.4-1.2-.8-.4-.8-.5-1.8-.9-2.7l-1.4-2.8c-.7.4-1.6.8-2.1 1.4-1.2 1.5-2.2 3.2-3.4 4.8-.4.4-1 .8-1.5 1 0 0-.7-.7-.8-1-.2-2.4-.4-4.7-.4-7 0-.6.8-1.1 1.2-1.7l1.5 1.5c.2.4.2.9.2 1.3l1.3-.8c1.3-1.3 2.8-2.3 5-2zM75.6 124.3c-.7 1-1 2.2-1.8 2.6-1.1.6-2.6 1.1-3.7.8-.8-.2-1.6-2-1.5-2.9.3-2.4 1-5 1.8-7.3.4-1 1.7-2.1 3.2-1.6 1.5.5 2.8 1.5 2.7 3.3 0 1.7-.4 3.3-.7 5.1zm-2-2.6c0-.3.3-.6.3-.8l-.5-2.2c-.4.5-1 1-1.2 1.5-.4 1.4-.7 3-.9 4.4 0 .3.3.7.5 1 .3-.3.7-.5.8-.9.4-.8.7-1.7 1-3zM147.8 62.1c2.2.5 3.2 1.5 2.3 3.8-.5 1.2-.5 2.7-1 4-.3.6-1.2 1-1.9 1.5-.2-.8-.5-1.5-.6-2.3 0-.3.5-.7.6-1.1l-.1-1.3-1 .5c-1 .7-2 1.7-3 2-1 .3-2.4-.1-3-.7-.5-.6-.5-2.1-.2-3 1.4-3 5-4.5 7.9-3.4zm-3 1.9c-.8.6-1.6 1.1-2.3 1.8-.2.2-.2.8-.3 1.2.4 0 .9 0 1.2-.3l2.4-1.8c.3-.3.4-.8.5-1.2l-1.5.3z"/>
  <path fill="#00EBAB" d="M152.3 82c1-.9 1.8-2 2.7-2.2 1.2-.2 3 0 3.8.7.6.6.3 2.3.2 3.5a6.4 6.4 0 01-7.4 6.1c-2.4-.5-1.6-2.7-1.3-4.2.3-1.4 1.2-2.6 2-4zm3.6 3.7c.2-1.2 2-2 1-3.6-1.1.9-2.4 1.6-3.2 2.7-.5.7-.3 2-.5 3l2.1-1.5.6-.6zM226.6 75l3 .1c.6.1 1 .6 1.6.8-.5.4-1 .9-1.7 1-1.1.3-2.3.3-3.5.5-.3.1-.5.7-.8 1l1.1.4h.5l1.6.3c-.5.4-1 .8-1.6 1-1.1.5-2.4.8-2 2.4l.1.9 1-.4c.4-.3.7-1 1.1-1 .6-.3 1.4 0 2 0-.1.5-.1 1.2-.5 1.5-1 1-2 2-3.2 2.7-1.6.9-3.3-.2-3.3-2 0-2.4 0-4.7.5-7 .3-2.1 2-2.3 4-2.1zM251.2 111.7l.1-.4c.8-.8 2-2.4 2.4-2.2 1.5.5 1.4 2 1 3.5-.1.6-.3 1.3-.3 2 0 1.1-.6 2.7 1.9 1.8 1.1-.4 2.6.2 4 .5v1.2c-2.3 1.2-4.5 2.4-6.8 3.3-1.3.5-2.8-1.4-2.8-3.4s.3-4 .5-6.3zM96.7 121.4c-.9 2-1.8 4-4 5.3-2 1.1-3.4 1.1-4.2-.9-.7-2-.7-4.2-1-6.3-.1-1-.2-2 0-2.9.3-.9 1-1.7 1.5-2.6.4.7 1.1 1.3 1.2 2 .3 2.2.4 4.5.5 6.7l.3 1.5 1.1-1c1.2-1.3 2.4-2.7 4.6-1.8zM187.2 69.5c-1 1.3-2.2 2.6-3.6 1.6-1.5-1-1.9-2.6-1.2-4.5.3-1 .1-2.2.1-3.4 0-1-.2-2 1.4-2 1.7 0 1.5 1.1 1.4 2.2 0 .8-.3 1.7-.4 2.5l.2.8c.2-.2.6-.3.7-.6l1.5-3.5c.5-1.1 1.2-1.7 2.4-1.4.5 0 1 .3 1.4.4l-.7 1.2-3.2 6.7zM271.6 73.6l-.4.6-2.2.4c-1.4.5-2.5 1-2.6 2.8 0 2-.4 3.8-1 5.6-.1.7-1.2 1.8-1.8 1.7-1-.1-1.5-1-1-2.3.8-1.7.8-3.7 1.4-5.5.3-1.3 0-1.7-1.3-1.9-.8 0-1.5-.7-2.2-1.1.7-.4 1.5-1 2.3-1 2.5-.2 5-.2 7.4-.1.5 0 1 .4 1.4.8zM263.7 58.4c2.1-.5 4-1.3 6-1.6 1.4-.1 2.8.2 4.2.5.3 0 .6.6.8 1l-1.3.5c-1.3.4-2.6.5-3.8 1-2.1.7-2.4 2.7-3.2 4.5-.4.8-1.4 1.3-2.1 2-.4-.8-.9-1.6-1-2.4-.3-1.3-.5-2.6-.5-4 0-.5.4-1 .9-1.5zM83 122l3-.4c-.3 1-.6 1.9-1.2 2.7-.4.7-1 1.4-1.8 1.7-.8.5-2.2 1.2-2.7.8a6 6 0 01-2-3.2c-.3-1.7-.1-3.5 0-5.3 0-.7.2-1.5.7-2 .6-.5 1.5-.8 2.3-1.2 0 .7.2 1.5.1 2.3 0 1.3-.3 2.6-.4 4l.3 1.9L83 122zM82 69.5c-.2 1-.3 1.8-.6 2.6-.1.6-.5 1-.8 1.6-.4-.4-1-.8-1-1.3 0-1.4-.1-2.8.2-4.2.3-1.4 1.1-2.6 1.5-4 0-.2-.8-.8-1.3-1.2L78.2 62c.7-.4 1.3-1 2-1.1 1.9-.3 3.8-.5 5.6-.5.9 0 1.7.7 2.6 1-.7.5-1.3 1.1-2 1.2-1.9.3-3.4.6-3.2 3.2.1 1.2-.8 2.4-1.3 3.8zM193.7 92.7c-.8 5-1.5 9.7-2.4 14.5-.2 1-1.4 1.3-2 .2-.5-.9-.9-2.1-.7-3.1.6-3.4 1.6-6.7 2.3-10.1.3-1.7 1.2-2.1 2.8-1.5zM132 108.5c-2-1.7-1.3-3.8-1.3-5.8 0-1.6 0-3.3.4-4.8.2-.9 1-1.6 1.5-2.4.4.6 1 1.2 1.2 2 1 3.4.6 6.8-.4 10.1-.2.4-.8.6-1.4.9zM172.3 65.8l2.4-7.1c.2-.7.6-1.5 1-2 .4-.4 1-.4 1.6-.5 0 .5.3 1 .2 1.4-1 3.9-1.8 7.7-2.9 11.5-.3 1-1.4 1.5-2 .3-.4-1-.2-2.2-.3-3.6zM133.9 66.3c.4-1.5.8-2.8 1.4-4 .4-1 .9-1.7 1.5-2.4.4-.4 1-.3 1.6-.5 0 .5.2 1 0 1.5a372 372 0 01-3.7 10.7c-.1.5-.8.8-1.2 1.2-.4-.6-1-1.3-1-1.8.3-1.5.9-3 1.4-4.7zM277 139.6c-1-1.4-1.5-2.7-.9-4.5.6-2 .3-4.1.6-6.1.2-.8 1.3-1.3 2-2 .2.8.7 1.6.7 2.3-.2 3.2-.5 6.3-1 9.5 0 .3-.8.6-1.4.8zM129.6 113.4l-.5 9.6c0 .8-.8 1.4-1.2 2.2-.5-.5-1.4-1-1.4-1.5 0-3.6.2-7.2.5-10.7 0-.3.8-.9 1.1-.8.6.2 1 .7 1.5 1.2zM177.8 66.6l1-3.9c.2-.4.8-.7 1.1-1 .4.4 1.3.9 1.2 1.2l-2 8.8c0 .3-1 .6-1.3.5-.4 0-.8-.8-.8-1.1.1-1.5.4-3 .8-4.5zM235.9 133.5c-.1-2 .2-3.7 1.8-4.7.4-.4 1.3 0 2 0l-.1 1.5-.5 2.3-1.1 3.2-2.1-2.3zM179.8 58.9c.3-1.9 1.4-1.7 2.3-1 .3.2.5 1.4.2 1.8-1.2 1.4-1.8 0-2.5-.8zM249.9 115.5c-.7 0-1.3 0-1.8-.2.1-.2.4-.8.5-.7.5.2 1 .5 1.3 1z"/>
  <defs>
    <pattern id="pattern0" width="1" height="1" patternContentUnits="objectBoundingBox">
      <use transform="matrix(.00248 0 0 .00228 0 0)" xlink:href="#image0"/>
    </pattern>
    <pattern id="pattern1" width="1" height="1" patternContentUnits="objectBoundingBox">
      <use transform="matrix(.00248 0 0 .00222 0 0)" xlink:href="#image1"/>
    </pattern>
    <image id="image0" width="404" height="815" xlink:href="ashadowbans.jpg" />
    <image id="image1" width="406" height="450" xlink:href="bshadowbans.jpg"/>
  </defs>
</svg>
