<svg xmlns="http://www.w3.org/2000/svg" xmlns:xlink="http://www.w3.org/1999/xlink" fill="none" width="387" height="993" viewBox="0 0 387 993">
  <defs/>
  <path fill="url(#pattern0)" d="M40 159h306v333H40z"/>
  <path fill="url(#pattern1)" d="M40 495h306v341H40z"/>
  <path fill="#00EBAB" d="M23 680.3c.2-.3.7-.6.7-.8-.4-1.3-.7-2.6.3-3.8.3-.3-.2-1-.2-1.5l.6-8.8c0-.7-.5-1.5-.6-2.2 0-2.3 0-4.6-.3-6.9-.2-1.8.8-3.8.6-5.6-.2-1.9-.6-3.5.4-5.3.3-.6-.3-1.6-.3-2.4V467.5c0-2.6.6-5.3.3-7.8-1.4-17.6-.4-35.3-.7-52.9 0-3.3.4-6.6.4-10l-.8-20.1c0-2 .3-3.9.4-5.8v-10.4c0-1.8.6-3.5.7-5.3.1-1-.3-2-.3-3v-58.5c0-.7.4-1.4.4-2v-5l.8-11c0-1-.4-2.1-.4-3.1v-56.1c0-2.3.6-4.6.7-6.9.1-1.6-.3-3.2-.3-4.8v-22c0-2 .6-4 .7-6.1.1-1.2-.3-2.4-.3-3.6v-10.4c0-1.5.5-3 .7-4.5l-.1-1.8c0-3.7.2-7.4.3-11 0-.9-.2-1.6-.1-2.4.5-3.3.4-6.7.4-10l-.4-18-.4-13.5-.4-11.2v-5.7c0-1.9 2.9-3.7 4.8-3.3 1 .2 2-.2 3.1-.2l9.7.4c.7 0 1.4-.2 2-.4.1 0 .2-.9 0-1.1-.8-1.2-2-2.2-2.7-3.4-.3-.5 0-1.5 0-2.2.9.2 2.1.1 2.6.7 1.8 1.9 3.3 4 4.9 6 .7.9.8 2.7.2 4-1.2 2.5-2.5 5-3.3 7.5-.5 1.6-1.7 1.8-2.7 2.3l-.6-.7c-.6-1.4 0-2.7.5-3.9.6-1.2 1.4-2.2 2.1-3.3l-.4-.4-14.1-.3c-.9 0-2-.5-2.3.8-.2 1-.3 2.2-.3 3.3 0 .4.4.9.4 1.4.2 1.1 0 2.2.3 3.5.6 2 .7 4.3.5 6.4-.2 1.7-1.5 3.2-1.2 5.1.2 1.4 0 2.8.1 4.2.1 1 .6 1.8.8 2.7l.3 2.4c0 3.9.3 7.8 0 11.6-.5 6.8 1 13.6-.7 20.3-.2 1 .4 2.2.3 3.4l-.3 11v.2c1.4 3.5.1 7 0 10.5-.3 6.5-.7 13-.8 19.5l-.4 31.5c0 3.7.2 7.3.4 11 .1 1.8.6 3.6.7 5.4l-.3 3.7v55.9c0 2.3-.6 4.7-.8 7.1l.1 2 .1 19.1c0 .8 0 1.6.2 2.3.7 3.4 1.3 3.4 4.7 3 2.1-.3 1.5-1.6 1.6-2.5.2-2.4.3-4.6 2-6.4.4-.3.9-.7 1.3-.7h12.3l14.1-.4h2.8l13.2.3c2.7 0 5.3-.5 8-.7 2.4-.2 4.7-.4 7-.4 7.6-.2 15.1-.4 22.7-.4 2.3 0 4.6.6 7 .7l4-.3h9.6c1.5 0 3 .3 4.6.3h5.8c1.8.2 3.5.2 5.2 1.1.7.4 1.8 0 2.7.3 1 .2 1.7.7 2.6 1.1-.4.6-.6 1.7-1.7.8.1 1-1.1 1-1 2.2.2 5.3.2 10.6 0 16-.1 2-1 4-1.5 6.1l-.3 2-.6.8c-.5-.4-1.5-1-1.5-1.4.3-1.8-.3-2-2-2-2.6.3-5.3.1-8 .1h-20.1c-3.5 0-7 .3-10.5.4l-7.2.4-11.3.4-9.6.4-9.7.4-9.9.4-23 .4-1.7-.1c-.5 0-1.1.7-1.3 1.1l-1.8 3c-.5-.9-1.8-1-1.1-2.6.4-1-.5-2.5-.8-3.8l-.3-.9V340c0-1.4-1.2-2.7-2.6-2.4-.9.3-1.8.5-2.6 1-1.5 1.2-1.6 2.8-1.6 4.6 0 1.7-.3 3.4-.5 5.1l.2 1.6-.5 5.5v2.1l-.6 7.3c0 .8.3 1.7.3 2.6v54.1c0 11.1.2 22.2.4 33.4 0 5.9.2 11.8.4 17.8l.4 15.6v7.4c-.2 6.3-1 12.5-.6 18.7.3 4.4 1 8.8.4 13-.5 4-.5 8-.3 11.7.2 6.2.5 12.3.4 18.5 0 4.5-.5 9-.7 13.6 0 1.4.4 2.8.4 4.2v88c0 .7-.4 1.4-.4 2.2v3.4l-.5 11.6c0 .2.3.6.5.6l6.8-.5c1.5 0 3 0 4.5.5 1.9.5 2-1 2.1-1.9.3-1.2.6-3 0-3.7-1.4-1.8-.5-3.6-.6-5.3-.2-2.5 2-4.4 4.4-5.3 2.9-1.1 5.3 0 8 .4 1.1.2 2.4-.5 3.6-.6 2.3 0 5 .6 7-.2 2.8-1 5.7-.2 8.4-1 1.4-.3 2.9-.3 4.3-.3 8-.3 15.9-.3 23.8-.5 3.5 0 7-.3 10.6-.4 3.7 0 7.5-.3 11.2 0 4.1.5 8.3 0 12.4.6 1.6.2 3.7-.8 5.2 1 .2.3 1 0 1.5 0 2 .6 1.7 2.2 1.7 3.2.2 6 .2 12.2.1 18.3 0 2.6-1.2 4.7-3.3 6.1-1 .7-2.7.4-4 .7l-2.4.5c-10 2.7-20 1-30 1.4l-9 .4c-2.5.1-5.3-.5-7.5.3-2.3.8-4.5.4-6.7.5-2 0-4-.7-6-1-1.3-.1-2.7 0-4-.2-1 0-2-.3-2.9-.3H53.8l-6.2.3-4.5-.7c-2.3-.3-2-2.5-1.7-3.4.8-2-.5-3.3-.7-5 0-.3-.8-.7-1.2-.7l-5.1-.1-7.1-.4c-1 0-2-.3-2.4 1-.3.8-1 1.2-1.8.2l-.1-4.7zm72-332.7l8.5-1c1.5 0 3.4.8 4.7.3 2.9-1 5.7-.6 8.5-.6h34.2c2.3 0 2.7-.4 2.7-2.6l.2-1.5c.3-1.6.6-3.2.7-4.8l-.1-7.7c0-1.9-1.6-3.5-3.4-3.4-2.3.2-4.6.4-6.9.4-2.6 0-5.1-.3-7.7-.3h-31c-1.3 0-2.5-.5-3.8-.4-1.6 0-3.1.7-4.7.7H79.6c-1.2 0-2.4-.3-3.5-.2-1.6 0-3.2.6-4.7.6H54.2c-.7 0-1.3.4-2 .4-3.8 0-7.5-.2-11.3-.1-.6 0-1.6.9-1.7 1.4l.1 8.8c0 3-.2 5.9-.4 8.8 0 .9 1.9 3.1 2.7 2.9 3.9-1 7.8.4 11.8-.6 3.6-.8 7.5 0 11.4-.3 7-.8 14 .4 21-.6 1.6-.2 3.3.4 5-.3 1.2-.4 2.7.2 4.2.1zm-8.5 341.8c4.2 0 8.4.1 12.6-.4 2-.2 4.2 0 6.3 0 .7 0 1.4-.4 2.2-.4h9.4c1.2 0 2.4-.4 3.6-.4 2.1.1 4.1 0 6.3.6 2.4.7 5.2.2 7.9.2.6 0 1.5.4 2 0 1.5-.8 2.2-2.2 2-4 0-1.5.2-3 .4-4.5l.3-1.8.1-7c0-1 .2-2.1-.1-3-.6-1.8-1.9-2.3-3.8-2.1-2.5.2-5-.2-7.5-.3-2.4-.2-5-.4-7.4-.4-2.6 0-5.2.3-7.8.4-2.3 0-4.6-.5-7-.4-3.3.2-6.6.8-9.9 1.2-2.5.3-5-.5-7.5.3-2.5.7-5.3-.4-8 .4-2.3.7-4.7-.1-7.1.3-3.3.6-6.8.1-10.2.5-1.7.2-3.6-.6-5.2-.1-3 .8-6 .7-9-.2-1.5-.4-4 .3-4.2 1.3-.3 1.5-.4 3-.3 4.5 0 1.7.6 3.3.7 5l-.3 4.2c.1 1.4.7 2.9.6 4.3 0 1.1.4 1.5 1.3 1.8 2.7.6 5.4.8 8.1.7 4 0 7.8.4 11.7-.3.6-.1 1.3.3 2 .2 1.8-.2 3.6-1 5.4-1 2.2 0 4.4-.4 6.7.6 1.4.7 3.5-.1 5.7-.2zM368.5 376c-.2.5-.5 1-.5 1.3l-.3 4.8v2.8c-.2 4.1.5 8.2-.7 12.3-.3 1 .3 2.2.3 3.4-.2 4.4.1 8.7-.6 13.2-.7 4 .2 8 .2 12.1 0 1.8-.6 3.5-.7 5.3l.3 3v13.1c0 1.6 0 3.1.3 4.7.4 2.6.2 5.3.5 7.9.3 3.7.4 7.5.4 11.2 0 1.4-.6 2.7-.9 4l.1 1.6.4 12.6v13c0 1.8-.6 3.6-.7 5.4-.1 1.4.3 2.8.3 4.2 0 4 .5 8-.1 11.7-.6 4.2.4 8.3-.4 12.3-.6 2.6 0 5.1-.3 7.7-.3 3.4-.8 6.7-1 10.1-.1 1.6.3 3.2.2 4.8 0 1.8-.5 3.5-.7 5.3v.5c0 8.2-.1 16.4 0 24.6 0 4.1.3 8.2.3 12.4 0 2-.3 4.1-.3 6.2 0 2 .5 4 .3 6-.6 5.6-.3 11.3-.3 17 0 1.2.3 2.4.3 3.7l.4 14.4.4 14.4.4 6.7.4 7c.2 2.1-1 3.6-2.4 4.8-.6.6-1.9.7-2.9.7-4 0-8.1-.2-12.2-.1-.7 0-1.7 1-2 1.8-.6 1.6-.5 3.5-1.4 5-.8 1.3-2.4 2.3-3.7 3.4-1 .7-2 1.4-3.2 2-1.3.6-2.7 1.3-4 1.4-3 .2-5.8 0-8.7 0-1.4 0-2.8.7-4 .3-2.3-.7-4.7.3-7-1-1.3-.5-3.1 0-4.7 0l-5.8-1-.5-.2c-2 0-3.8.1-5.7-.1-1.9-.2-3.7-1-5.6-1-2-.2-4 .3-6 .2-3-.2-6-1.2-7.8-3.5a27.7 27.7 0 01-5.6-9.4c-.4-1.3-1.6-2.5-1.8-3.8-.2-1.2.1-3 .9-3.8a26.5 26.5 0 019.4-6l3.6-.7 5.2-1.3 2.6-.5 4.8-.3c1.5-.1 3-.5 4.5-.8l.6-.1c4.1-.1 8.3-.5 12.5-.3 2.4.1 4.8 1.2 7.2 1.8 2.7.6 5.4 1 8 1.7 3 1 5.9 2.1 8.6 3.6 2.5 1.4 4.4 3.6 5.4 6.4.3.8 1.4 1.5 2.4 1.9.8.3 1.4 1.4 2.8.3 1-.7 3-.6 4.5.1.4.3 1 0 1.6 0 1.5 0 3 0 4.4-.3.6 0 1.5-1 1.5-1.6l-.2-6.7-.4-23.6c0-2 .5-4 .3-6-1.5-13-.4-26-.7-39 0-2.5.5-4.9.3-7.3-1.4-14.9-.4-29.9-.7-44.8l.3-4v-9.6c.1-1.7.7-3.3.8-5 0-1-.3-2-.3-3.1v-20c0-1.9.6-3.8.7-5.8 0-1.4-.3-2.9-.3-4.4v-26c0-3.8.3-7.5.3-11.2 0-3.2-.4-6.4-.3-9.6 0-2.7.5-5.3.7-8 0-.8-.4-1.5-.3-2.3l.7-16.6c0-1-.7-2-.7-2.9 0-2 .3-4.1.3-6.2l-.3-14.7c0-1.3.3-2.6.3-3.8v-7l.4-5.9v-3.6c.2-3.2.2-6.3.5-9.5.1-1.3 1-2.6 1-3.9.3-1.4 0-2.9.2-4.3l.3-3v-4.3l-.1-9.7c0-.4-1.6-1.2-2.3-1.1-1.8.3-3.6-.5-5.4.4-1.3.6-3.2.8-4 1.8a26.8 26.8 0 01-8.7 7.7c-1.4.8-3.3.7-5 1-1.5.3-3 .8-4.5 1-1.7.4-3.4 0-5.1.4-3.5.5-7 .4-10.6.5h-11.8c-2.3-.2-4.4-.8-6.6-1-1.2-.2-2.4 0-3.5-.2l-5.3-1.4-3.5-.8-3.6-.8c-1.6-.6-3.3-1.1-4.8-1.8-1.8-.8-3.6-1.6-5-2.8a41.2 41.2 0 01-6.1-5.6c-.3-.3-1.6-1.8-.3-3.3 1-1 .6-3 1.1-4.4.5-1.4 1.2-2.7 2-4 .5-.8 1.2-1.7 2-2.4 1.8-1.5 4.3-2.7 7.7-3 1.6-.3 3.1-1.1 4.8-1.5 1.3-.2 2.6 0 4-.2.8 0 1.7-.3 2.6-.4l4.5-1h9.9c2.3-.2 4.7-1 7-.7 3.2.3 6.5 0 9.6.3 2.8.4 5.7.2 8.4.8 1.5.4 3.2.4 4.6 1.5.8.5 2.3.1 3.3.5 1.3.4 2.4 1.2 3.6 1.9 1.8 1 3.8 1.7 5.4 2.9a26.2 26.2 0 016.5 8c.2.6-.2 1.6.1 2 .9 1.1 2 1.5 3.5 1.3 2-.1 3-1.6 4.5-2.6.4-.3.7-1 .7-1.4l-.7-8.4v-1.5-13.8l-.5-29-.3-25.7c0-1.8.4-3.6.3-5.4-.2-6.2-.6-12.4-.7-18.6 0-2.1.6-4.3.7-6.4l-.3-3.6v-11.2c0-1.5.6-3 .7-4.6 0-1.2-.3-2.4-.3-3.7v-8l-.5-13-.3-13c-.2-5.2-.4-10.4-.4-15.6 0-2.4.3-4.7.3-7 0-1.8-.7-3.6-.3-5.2 1-3.6-.3-7.3.7-11 .3-1.2-.7-2.7-.7-4.2 0-3.3.8-6.8.2-10-1.3-6.7-.2-13.4-.6-20-.2-2.4 0-4.7 0-7 0-.6-.8-1.2-1.3-1.2l-4.3-.5-2.2.2-5.2-.4c-.3 0-.7.2-.8.5-.2.4-.4 1-.2 1.2.5.6 1.1 1 1.8 1.5 1.4 1 2.8 4.6 2.1 5.8 0 .1-.5.2-.7.1-1.3-1-3-1.3-3.7-3.2-.5-1.4-2-2.3-2.9-3.5-.9-1-1.7-2.2-2.5-3.3a181 181 0 01-1.8-2.2c-.3-.4-1-1-.8-1.2a12 12 0 012-3.2c1-1 2.2-1.8 3.3-2.6 1.7-1.2 3.3-2.6 5.1-3.3 1-.5 2.6.1 3.8.3 0 0 .2 1.2-.1 1.5l-4.8 4.6c-.3.3-.8.4-1.1.6l-1 1.3c.5.4 1 1 1.5 1 2.2.2 4.5 0 6.7.1 2.2.2 4.4 1 6.4.7 2-.3 3 .3 3.8 1.7.4.7.8 1.4.8 2.1l-.2 10.7c0 1.5.9 3 1 4.5.1 2.9 0 5.8 0 8.7l-.4 51c0 2.5-.6 5-.3 7.4a141 141 0 011.2 19.1l.3 12.3c.1 2.5.4 5 .4 7.6 0 3-.4 6-.4 9l.4 42.2c0 3.2-.6 6.3-.7 9.5-.1 2 .3 4 .3 6.2v41.8c0 2.3.3 4.7.4 7l.4 7.5.3 3.4v10.6a816 816 0 00-.2 16.7l.3.1V376zm-21.9-28.4c.4 0 .9 0 1-.3 1.7-1.9 3.4-3.8 4.7-5.9.4-.6 1.3-2 0-2.8l-2.5-1.3c-2.2-1-4.3-2-6.4-3.2l-6-3.5c-1.2-.7-2.7-.8-4-1.2a27 27 0 00-7-1l-8-.5c-1.6-.1-3.2-.7-4.8-.7l-6.6.3-4-.3-3.2.3c-1.2.1-2.4 0-3.4.4-2 .5-3.9 1.5-5.9 2-1.7.4-3.3 1-4.9 2-.8.4-1.7 1.1-2.5 1.1-2.1.1-3.5 1.7-5.3 2.2-1 .3-1.9.6-2.6 1.2-.8.6-1.8 1.4-1.9 2.3 0 1-.1 2 .9 3a19 19 0 008.5 4.6l4.2 1.5 5 1.6c2 .7 4 1.5 6.2 2.1.9.3 2 .3 3 .3l4.8.1c.8.1 1.6.6 2.3.7H320c.6 0 1.4.6 1.8.4 1.7-1.1 3.5.1 5.4-.6 2-.9 4.6-.4 7-.6.8-.1 1.7-.5 2.7-.8l3-.8c1.2-.3 2.4-.4 3.5-.8s2.2-1 3.2-1.8zm-36.8 343.8c3.9.2 7.8.5 11.6.4l2.2.1c1.7 0 3.4-.3 5-.4h.9c1.8-.2 3.7-.6 5.5-1 1.3-.2 2.7 0 3.6-.7 2-1.4 3.6-2.9 4.2-5.6.6-2.9-.2-5-1.5-7.1-.8-1.2-2-2-3-3a14.7 14.7 0 00-6.2-2.7c-1.3-.2-2.5-.5-3.7-.9l-3.8-1.1c-1.2-.4-2.5-.6-3.8-.9-1.3-.3-2.7-1-4-1-2.8 0-5.5.3-8.3.4-.7 0-1.3-.4-2-.3-2.4.3-4.9.8-7.4 1a55.4 55.4 0 00-10.8 2 23.1 23.1 0 00-9.5 6 3.7 3.7 0 00.1 5.4l2.6 2.2c1.3.9 2.5 2 3.8 2.5 2.2 1 4.5 1.4 6.8 2 2.2.7 4.3 1.4 6.6 1.8 1.5.3 3.4-.4 4.8.2 2 .8 4.2-.3 6.3.7zm-30.6-19.1c.3 0 .8 0 1-.2.7-.5 1.2-1.2 1.7-1.8-.8-.2-2-.7-2.5-.4-1.2.8-2 2-3 3.2-.2 0-.4.4-.4.4.3.2.7.7.8.6.8-.5 1.5-1 2.4-1.8zM347 330.9c-1-1.6-3-1.9-4.5-2.8-.4-.2-1.4.4-2.1.7l1 1c1.5 1.7 3.5 1.3 5.6 1.1zm-66.3-1l.4-.8-.5-.2-3 1.2c-.1 0-.4.5-.3.7 0 .4.4.7.6 1.1l2.8-2zM279.7 25v1.3c0 .3.5.7.4 1-1 3.5 1.7 3 3.6 3 .6 0 1.3-1.1 1.8-1.7l1.6-2 .6.2c.2.8.1 1.7.5 2.3.3.5 1 1 1.6 1 1.5 0 2.8.2 4.3-.2 2-.5 4.2-.3 6.2 0 .8 0 1.4 1.1 2.1 1.8l-1.6 1.4a18 18 0 01-3.3 1.8c-1.8.6-.1 1.8-.5 2.7-.1.2.8.8 1.7.6 1.5-.3 3 0 4.4-.8.2-.2.5 0 .8 0-.1.2-.1.6-.3.7-1.2 1.2-2.4 2.5-3.8 3.6-1 .6-3.8-1.2-4.3-2.4-.5-1-1.2-2.1-1.6-3.2-.3-.7-.3-1.6-.6-2.3-.8-1.4-2.3-1.4-3.6-1.4-.6 0-1.3 1-1.5 1.6-.5 1.3-.6 2.6-1 4 0 .2-.6.4-.6.4-.5-.6-1-1-1.2-1.7-.4-1-.6-2-.9-3.1 0-.2-.2-.4-.4-.4-1.3 0-2.7-.2-4 0-.5 0-1.3.6-1.4 1.1-.4 1.4-.4 2.8-.5 4.2-.1.7-.2 1.5-.5 2.2 0 .2-.9.3-1 .2-.4-.4-.6-1-.8-1.4-.9-1.9-.6-3.4 1-4.7.1-.2 0-1-.2-1-.8-.2-1.5-.2-2.2-.1-.4 0-1 .2-1.2 0-.5-.3-1-1-1-1.4.2-.5 1-.7 1.5-1.1 1-.8 2.5-1.6 2.6-2.5.2-1.8.6-3 2.6-3.1V25l.7-.1zM113 964c-.5-.2-1-.3-1.3-.7-.6-.7-1.4-1.5-1.4-2.3-.1-2 .2-4 .3-6l.1-1c.3-1.5 1-3.2.8-4.7-.2-1.6.4-2.6 1.5-3.4.9-.6 2-.9 3-1.3.5-.2 1-.5 1.4-.4l6 1 .7.3.8.8-1.3.4c-2 1-4.4-.1-6.3 1.4-.6.4-1.7.3-2 .9-.6.7-.7 1.8-1 2.8l.6.2c2-1 4.2-1.1 6.4-.8.3 0 .7.5 1 .8 0 .2-.2.7-.4.8a7 7 0 01-5.5 1.6c-1-.2-1.4.3-1.8.8-1 1-1.1 2.3-1.2 3.6 0 .2.5.8.8.8 2 .3 3.3-1 4.7-2l1-.7h2c-.1.7 0 1.7-.5 2-1.8 1.5-3.7 2.9-5.6 4.2l-1.6.8-1.1.1zM55.7 964v-.5c-3.2-.2-4.2-2.8-5.1-5-.8-1.8-1-4.3-.4-6.2.7-2.7 1.8-5.4 3.8-7.8 1-1.3 2.6-1 3.5-2.3 0-.1 1.5.4 2 1 .8.6 1.3 1.7 2 2.2 1.2.6.5 1.6.9 2.3l-.3.3c-.5-.2-1.1-.4-1.5-.7-2-2-4.6-1.6-5.7 1.1-.3 1-.8 2-1 2.9-.9 3.2-.2 6 1.6 8.8.3.5 3.8.5 4.5 0 .9-.6 1.8-1.2 2.7-1.6.3-.2.9 0 1.3.2-.3.6-.4 1.3-.8 1.7l-4 3.5-3.5.1z"/>
  <path fill="#00EBAB" d="M183 675c.2.7.4 1.2.4 1.7v16c0 1-.4 1.8-.4 2.7v30.2l-.3 17.1c0 3.2.2 6.3.3 9.4l.4 8.9.4 8.7c.2 8.1.2 16.3.5 24.5 0 1-1 2 .4 3.1s2.8.5 4.2 1c1.4.5 3 .3 4.5.8 2 .8 4 1.8 6 2.8 2 1 4 2.4 5 4.3.5 1-.2 2.8-.4 4.2-.3 3-2.5 4.6-4.5 6.2a8 8 0 01-4.4 1.9c-1.7.1-3.3 1.2-5 1.4-4.3.3-8.7.4-13 .4-2.7 0-5.4-.7-8-.7a8 8 0 00-4.6 1.3c-.9.6-1 2.3-1.5 3.5l-1.4 4.3-2 5.5-1.4 4.4-1.3 4-1.5 4.4c-.5 1.4-.6 3-1 4.3L152 857c-.2.5-.3 1-.3 1.6.1.6.4 1.8.6 1.8 1 0 2.2 0 3.1-.5 1.9-1 3.7-2 5.8-2.2.4 0 .6-.7 1-1 1.3-.7 2.5.3 3.7.3v.4l-5 3.3c-1.5 1-3 2-4.7 2.8-.9.4-2 .4-3 .6-.5.2-.8.7-1.2.8-1.8.2-3.3-.2-4.7-1.5-1.6-1.7-3.5-3.1-5-4.8-1.2-1.3-2.1-2.9-2.7-4.4-.3-1 .3-2.1.5-3.2.5.1 1.2 0 1.5.3l2.9 3.6 3.8 4.3.5-.5c1-.9.7-2 .8-3.2.1-2 .8-3.8 1.3-5.8.6-2.2 1.1-4.5 1.8-6.7.4-1.5 1.2-2.9 1.7-4.3l1.9-5.2 2.1-5.6 2.2-4.8.8-1.4c-.1 0-.3 0-.3-.2-.7-1.5-2.3-.7-3.3-1.2-1.2-.6-2.5-.6-3.8-.8l-3.2-.4c-1.3-.2-2.5-.6-3.8-1-.8-.3-1.4.5-2.5-.3-1.4-1-3.8-.4-5.7-.7-1.1-.2-2.2-.7-3.3-1-.8-.3-1.5.6-2.6-.3-1.3-1-3.7-.2-5.5-.7-1.4-.4-2.5-1.6-3.9-2.2-2.1-1-2.6-3.1-3.8-4.8-1.2-1.8 0-3.2.7-4 1.9-2.8 5-4 8.1-5 2-.6 3.7-1.7 5.7-2.2 1.6-.4 3.3-.3 5-.6 1.3-.2 2.6-.7 3.9-1 .9-.3 1.7 0 2.7-.3 2-.7 2-2 2.1-3.5.2-2 .7-4.1 1-6.2 0-.5-.3-1-.2-1.5.6-2.5.3-5 .4-7.5 0-.2-.3-.4-.5-.6h-.2c-3 .3-5.8.8-8.7.8-2.4 0-4.7-.7-7-1-1.2-.2-2.4 0-3.5-.2-1.4-.2-2.7-.6-4-1l-4.4-1.5c-2.3-.8-4-4-3.6-6.6v-.2c-1.1-1.8.2-3.6.5-5.3.3-1.3 1.3-2.5 2.2-3.6.4-.6 1.1-1 1.8-1.4 1.3-.8 2.6-1.5 4-2 .8-.4 1.8-.8 2.5-.6 1.1.3 1.6 0 1.7-1 0-.3-.3-.8-.6-1-1.9-2-3.7-4-5.7-5.8-1.9-1.7-4-3.1-6-4.8-1.8-1.7-3.5-3.7-5.4-5.4a47.7 47.7 0 00-5-4c-.5-.4-1.5-.3-2.3-.3-3.1 0-6.3-.7-8-3.3-1.2-1.8-2-4-1.1-6.8.6-1.6.8-3.3 1.8-4.8 1-1.4 2.3-2.7 3.7-3.3.7-.2 1.3-.7 2-.9.8-.1 1.7-.3 2.4 0 3 1.4 4.2 4.2 4.5 7 .2 1.2 1 3-.3 4.6-.8 1-.7 2.6-1 3.9 0 .4-.2 1.2 0 1.4 1.3 1.1 2.7 2 3.9 3.1 1.3 1.1 2.4 2.5 3.7 3.6l4.4 3.4.8.7c3 3 5.9 6 9 8.9 1.2 1.2 2.6 2.2 4.1 3 1 .4 2 .4 3.1.6l8.8 1c1.2.1 2.5 0 3.7.2a151.9 151.9 0 019.8 2c1.7.4 3.3 1 5 1.6l4.5 1.1c1.7.4 3 2.5 3.3 4.3.5 2.7-.5 5-2 6.8a10.8 10.8 0 01-5.7 3.8c-2.8.7-5.4 1.9-8.5 1.6-1.6 0-3.4 1.2-4 3-.5 1.2-.7 2.4-.8 3.6l-.2 6.2.1 5.5c0 .7-.7 1.6.5 2.2.7.4 1.3.7 2.2.5 1-.1 2 .5 3 .6.5 0 1.1-.3 1.7-.2l7.3.9c.4 0 1-.2 1.5-.1 2.4.4 5.3-.4 7.4.5 2.7 1.2 3.2-1.2 4.7-1.7l.3-.2-.4-6c0-2.3 0-4.4-.2-6.6 0-1-.4-2-.6-3-.3-1.9 0-3.8-.2-5.7-.4-4.3-.9-8.7-.9-13.1V625.2c0-2.9-.2-5.7-.4-8.5-.2-4 .2-8 .3-12 0-1-.3-1.8-.3-2.7 0-4-.1-8 .5-12 .3-2.4 0-4.7.2-7l1.2-12c0-.8-.4-1.6-.3-2.4 0-5.4-.2-10.7.5-16 .4-2.9-.4-5.7.3-8.5.8-3.1 0-6.2.4-9.3.9-6.8.2-13.7.3-20.6 0-5.4-.3-10.8-.4-16.2v-8.5c0-.8.3-1.6.4-2.4.4-2-.6-2.9-2.6-2.8-2.6.2-5.2.2-7.8 0-2-.2-3.9-1-5.9-1.3-1.5-.3-3-.3-4.5-.7-1.4-.3-2.8-1-4.3-1.3-1.3-.4-2.6-.5-4-.8-1.4-.4-2.8-.9-4.3-1.2l-4-.8c-3.1-.7-5.9-2-7-5.4-.8-2.3-.2-4.2 0-6.2 0-.9 1.2-1.9 2.1-2.5 2-1.4 4-3.2 6.3-3.8 3.6-1 7.3-2.2 11.2-1.1 1.7.4 3.7 0 5.5-.3 1.2-.2 2.3.4 3.7-.3 1.7-1 2-2.6 2.7-4 .7-1.6 1.2-3.2 1.6-4.9.5-2.2.8-4.4 1.4-6.6.4-1.5 1-3 1.7-4.4.2-.5.2-.5 0-.5-2.6-.3-5.3-.4-8-.9-2.2-.4-4.4-1.3-6.6-1.8l-8-1.6c-1.5-.3-3-.2-4.5-.5-1.8-.4-3.6-1-5.4-1.6-2.8-1-4.8-4-4.2-6.8.4-2.1 1.7-3.9 3.3-5.4 1.9-2 4.3-2.8 7-3.1l6.2-.8c1.7-.2 3.5-.3 5-.8 1.7-.5 3.5-.3 5-1 .6-.2 1.6-.4 1.6-.7.1-.8 0-1.7-.4-2.3l-4.1-6.7c-1.2-2-2-4.2-3.2-6.2-.5-1-1.2-2-2-2.8-.9-.8-1.8-1.6-3.3-1.7a8.7 8.7 0 01-6.8-4c-.8-1-1.8-2.4-1.8-4.3 0-1.3-1.1-2.8-1-4.3.3-2.7.7-5.4 3-7.3l2.2-1.7c1.7-1.1 3.4-1.7 5.7-.9 1.5.6 3 1 4.5 1.8 1.5 1 3.4 1.4 3.8 3.6.2.7.8 1.5 1.3 2 1.9 1.9.7 3.6-.1 5.2-.5 1.1-1.8 1.8-2.6 2.8-.8 1.1-2 2.3-2.1 3.6-.2 1.1.7 2.5 1.4 3.6l2.6 4 2.5 3.6 2 3.4 2.8 4.7c.6.9 1.2 1.8 2 2.6.8 1 2 1.2 3.4 1.3 2.9.2 5.8.6 8.6.9.5 0 1-.3 1.6-.2 2.4.5 5 0 7.4 1.1.5.2 1.4-.5 2-.2 1.8.9 4 .7 6 1.2 1.7.4 3.6 1.1 5.6 1.2 1.2 0 2.5.8 3.7 1.5 1.7 1 3.6 2 5 3.4 1 .9 1.4 2.5 1.9 3.8.3 1 .6 2.1.6 3.2 0 2.3-2 5-4 6.4-3.5 2.6-7.2 2-11 1.6-1.2-.2-2.4.6-3.5.7-3.3 0-6.6-.3-9.8-.3-1.8 0-3.5.6-5.2.7-1.8 0-3.7 0-5.4.7-.6.3-1.1 1-1.4 1.7-.5 1.1-.9 2.3-1.2 3.6l-1 5-1.5 4.6c-.4 1.2-1 2.3-1.2 3.6 0 .5.9 1.6 1.5 1.6 1 .2 2-.3 3.1-.5h1c2 .5 4 0 6 1 .9.5 2.1 0 3.2.2a9 9 0 013.1.8c1.4.8 2.9 1 4.3 1.4 2.7 1 5.7 1.3 8 2.7 1.8 1 2.8 3.3 4 5 .6.9 1.4 1.8 1.4 2.6a12 12 0 01-1.2 4.2c-.8 2-2.7 2.7-4.7 3.4-1.5.5-2.9 1.3-4.4 1.8a44.7 44.7 0 01-9.6 1.5c-2.3 0-2.8.5-2.7 2.7 0 2.2-.3 4.4-.4 6.6 0 1.2.4 2.4.4 3.6.2 4.8.6 9.6.3 14.4-.1 2.4.4 4.6.4 6.9.2 8.8.2 17.7 0 26.6 0 2.7-.6 5.4-.6 8 0 7 .3 13.9.3 20.8 0 2.4-.6 4.8-.7 7.2-.1 1.4.3 2.7.3 4v16.6c0 .9-.4 1.8-.4 2.8v13.2c0 2.5-.6 5-.7 7.6-.1 1.9.3 3.8.3 5.6 0 1.8-.6 3.5-.7 5.3 0 .8.3 1.7.3 2.6v16.3c0 2 .4 4 .4 6 0 5-.2 10-.4 15.1zm-31.6 123c-1.7-1-3.3.3-4.9.4-2 .1-3.8.4-5.8.7-2 .3-3.8 1-5.7 1.3-1.4.3-2.8.5-4.1 1l-6 2.8c-1.3.6-1.8 2.5-1.4 3.9.8 2.4 3 3 4.9 3.7 2 .8 4.4.9 6.7 1.6 2.1.8 4.6.7 7 1 1 0 2.5-.2 3.2.4 1.2 1.1 2.6 0 4 .8s3.5.3 5.3.4h.5c1.8.4 3.5 1 5.3.8 4-.1 8 .2 12-.4 1-.2 2.2.3 3.4.3l11.2-.3c.8 0 1.7.4 2.6.3 1.3-.2 2.6-.7 4-1.2 1.5-.5 3.2-1 4.6-2 1.4-.8 2-2.4 2.5-4.2.5-2 .8-2-1.2-3l-1.5-.7c-1.9-1.6-4-2.7-6.5-3.3-1.8-.4-3.5-1.4-5.3-1.8-1.6-.3-3.3 0-4.9 0l-7.5-.5-7.6-.4c-1.9 0-3.9 0-5.7-.4-2-.7-4-.7-6.2-.8-.9 0-1.8-.4-3-.4zm4.4-379h-3.1l-6.1.9c-.9.1-1.8.1-2.6.4-2 .8-2.6 2.9-3.8 4.5-.4.5-.6 1.8-.3 2.2 1.8 2.4 4.7 2.8 7.4 3.3l5 1c1.7.3 3.2.9 4.8 1.2 1.5.3 3.2 0 4.6.6 1.6.7 3.2.9 4.8 1 3.4.4 6.7.4 10.1.5l11.2.4c2.2 0 4.4-.3 6.6-.4h1.9l7.9-.8c.4 0 1 .4 1.4.3 1.7-.3 3.4-.6 5-1.1.8-.3 1.5-1 1.9-1.7.7-1.1.2-2.5.4-3.6.2-1.3-.6-2.1-1-3.1-1.1-2.3-3.5-2.2-5.4-3-2-.7-4.4-.9-6.7-1.5-2.1-.5-4.2-1.3-6.3-1.7-2.5-.4-5 .2-7.6-.8-1.5-.6-3.5 0-5.3-.1-.8 0-1.7-.3-2.6-.4-1.2-.1-2.4-.4-3.6-.3-1.4.1-2.7.5-4.1.7l-1.3-.1-6.9.9c-.5 0-1.2-.3-1.7-.2-1 0-2.1.3-3.1.5l-1.5.5zM195 466l-2.2-.7c-2.4-1-5-1.7-7.6-2-.8 0-1.7-.3-2.6-.5-1.4-.3-2.8-.9-4.2-1-1.4 0-3 .4-4.4.3-3.1 0-6.4-.8-9.3-.2-3 .7-5.8.5-8.7.7h-4.2c-.7 0-1.4.3-2 .4-1.4.2-3 0-4.1.6a17.1 17.1 0 00-6.3 5.4c-.3.5-.3 1.8 0 2.3 1 1 2.2 2.2 3.4 2.9 1.8 1 3.7 1.7 5.8 2 1.2 0 2.5.4 3.7.8 1.6.6 3.2 1.6 4.9 1.8l5.4 1.2c1.7.3 3.4.2 5.1.8 1.9.5 4 0 6 0 3.4 0 6.8.2 10.3 0 1.9-.2 3.7-1.2 5.6-1.5 2-.2 4.1-.7 6.2-1.1 2.1-.5 4.2-1 6-2a3.4 3.4 0 001.8-4c-.9-3-3.1-4.2-5.5-5.2l-3.1-1zm-25.7 300.3c.1-.4.5-.9.4-1.2-.2-1.2 1.4-2.7-.6-3.5l-1.2-.3c-2-1-4-2.2-6.2-2.9-2-.6-4.2-.4-6.2-1-1.2-.2-2.3 0-3.3-.3-1.6-.3-3.2-1-4.8-1.1-2.9-.2-5.8.2-8.7-.1-3.7-.4-7.3-.5-11 .3-2.5.5-3.7 2.2-5 3.6-1.4 1.5-1.7 4-2.4 6.2-.2.5.3 1.2.4 1.9.3 2.5 2.8 2.3 4 2.6 2.3.4 4.5.6 6.7 1.2 2.4.6 5 .4 7.4.6 1 0 1.9.6 2.8.6l8.7-.6 4.3-.1c2.1-.4 4.2-1.3 6.3-1.5 2.2-.1 4-1.2 5.8-2 1-.5 1.9-1.5 2.6-2.4zm-23.5-385.7l-.5.1c.7 1.6-.2 3.6 1 5.1.8 1 1 2.4 2 3 1.7 1.2 6-.3 7.3-2.1.4-.6.7-1.2 1.3-1.6.8-.6 2.3-3.3 2.3-4.2.3-2.6-1.6-3.6-3.3-4.4-1.5-.8-3.2-1.2-4.8-1.4-1-.2-2.3-.2-3 .3-1.6 1.2-2.1 3-2.3 5.2zm-41.2 345.7c.8-.7 2.1-1.4 2.2-2.1.1-2.4-.2-4.9-.4-7.3 0-.9-2.2-2-3-1.6-1.2.7-2.2 1.3-2.8 2.8-.7 2-1.2 3.9-1.2 5.9 0 .2-.2.4-.1.5.7.8 1.4 1.7 2.2 2.2.5.3.3 1.9 1.5 1l1.6-1.4zM73.2 137.7c.3-1.3 1-2.4 1-3.5.1-1.7.8-2.6 2.5-2.5 2.2 0 4.4.2 6.7.4.4 0 .9.4 1.3.6-.4.4-.7.9-1.1 1-1.1.6-2.2.9-3.3 1.3-.6.2-1.3.4-1.8.8-.4.3-.6.9-.9 1.3.4 0 .9-.3 1.2-.2 1.6.7 3.2.3 4.9.3 2.5.1 3.3-.6 4.3-3.2.2-.7 1.3-1 2-1.5.3 1 .8 2 .6 3-.3 1.3-1.2 2.6-1.5 4-.3 1.4-.3 2.9-.4 4.4-.1 1.1.8 1.8 1.7 1.2 2-1.3 3.8-2.8 5-5.2 1.5-2.6 2.8-5.6 5.2-7.4.7-.6 2-1.4 3.7-.4 1.3.8 3.2 1 4.6 1.9 1.2.8 2.3 1.7 3.3 2.7 1 1 1.5 1.6 2-.4.5-1.5 2-2.6 3.2-3.9l.3.2c0 1.3.3 2.7 0 3.8-.7 2.2-2 4.2-2.7 6.4-.4 1.4-.2 3-.5 4.5 0 .7-.6 1.3-.9 1.9l-1-1c-2.1-1-1-2.4-.3-3.8.4-.6-.8-4-1.5-4.8l-.6-.9-1.5-1.8-1.5 2c-.8 1.2-1.3 2.5-2.1 3.6-.7 1-1.8 1.8-2.3 2.8-.8 1.6-2 .8-3 .8-.8 0-1.4.4-1.9-.8-.2-.5-2.4-.8-3.2-.4-2.5 1.3-4.7 3-7 4.7-1 .6-1.5 0-1.8-.7-.5-1.2-1-2.4-1.1-3.7-.2-1.2.2-2.3.4-3.5.1-.6.4-1.3.7-1.9l-1.8-.2h-4.7c-1.8.3-3.4 3.4-3 5.5.1 1-.2 2.2-.4 3.3 0 .2-.9.5-1.2.3a2 2 0 01-1-1.1c-.2-1 0-2.2-.5-3.1-.8-1.8-.9-3.5 0-5.3.2-.3 0-.9-.1-1.5zm26.8-.4c-.3 1.2-.5 2.5-1 3.7-.4 1 .3 1.6.9 2 .8.8 1.8.2 2.2-.3 1-1.8 2-3.6 2.7-5.5.1-.5-.5-1.7-1-1.9-1.6-.4-2.5.8-3.8 2zM186.2 76c.7-1.6.8-3.3 1.7-4.5 1-1.2 0-2 0-2.9 0-1-.4-2.2-.5-3.4l.3-.4c.4.2 1.1.4 1.2.7.5 1.4 1.7 1.3 2.6 1.2.8-.1 1-1 1.2-2 .3-1.9 1.1-3.6 1.6-5.5.2-.5 0-1.2-.1-1.8l-1.4.6c-1 .3-2.2-.5-3 .4-.2-.2-.4-.3-.4-.5-.4-2.6.7-5.2 3.2-6.4 1.4-.6 3-.5 4.6-.5.3 0 1 1.2.9 1.8-.2 1.2-.7 2.4-1 3.7l-.5 3v5.3c-.1 1.6-2.5 4.6-4 5.5-.9.5-1.6 1.6-2.2 2.5-1.1 1.7-2.5 3.3-3.1 5.2-.5 1.6-1.5 2.1-2.7 2.8-.9.5-1.4.4-2-.5-.6-1-1.4-2-2.2-2.7-.3-.2-1.3 0-1.6.5-1 1-1.7 2.3-2.5 3.6-.4-.5-1.1-1-1.2-1.4l-.4-8.6c0-.4-.4-1.2-.6-1.2-1.7.2-3.3.6-5 .9l-.7.2-1.6.5 1.6.7 2.7.8.1.4c-.7.2-1.5.6-2.3.7-1.1.3-2.3.3-3.5.6-.2 0-.4.4-.5.6l-.4 3.3c0 .1.7.6 1 .5 1.1-.4 2.2-1 3.3-1.3.5-.1 1.2.3 1.8.4l-1 .9c-1.3.7-2.5 1.5-3.7 2-.7.4-1.6.7-2.3.5-1.4-.6-3.3-4.3-2.8-5.9.6-1.7 1-3.7 2.7-5 .7-.4 1.5-.9 2-1.5.8-1.3 2-1.5 3.4-1.4 2.1.1 4.3 0 6.4.5.8.1 1.7 1.2 2 2 .4 1 .2 2.3.4 3.4.1.4.5.8.7 1.2.3-.4.7-.7.8-1.2.2-1.4 1-2.4 2.2-3 1.2-.5 1-.4 1 1.6 0 1.4 1.2 2.9.2 4.4.6.4 1.2.9 1.8 1 .4 0 1-.7 1.3-1.1.2-.3.2-.8.5-1.2zM317.2 106.6c1.9-.3 3.8-.4 5.7-.3.8 0 1.5.6 2.3 1v.7l-4 .8c-1.3 0-4.6 2.2-4.7 3.4 0 .3.8.9 1.4 1 1.4.3 3 .3 4.4.6.3 0 .6.7.8 1-.5.4-1 1-1.5 1.2-1 .2-2.3 0-3.2.4-1 .5-3.1.2-2.4 2.5.1.5 0 1 0 1.6-.6 2 .6 2 2 2 2.3.1 4.1-.7 6-1.7.3-.2.8-.2 1 0 .3.1.5.6.5 1l-.7.5-7 4.4c-1.7 1.1-4.4-.5-4.7-2.7 0-.2-.5-.5-.7-.5-2.2 1-4 .3-6.1-.8-.7-.4-2 .2-3 .3-.3 0-.7.1-.8 0-1.4-1.6-3-3-3.9-5-.6-1-.3-2.8-.2-4.2.1-1 .7-2 1-2.9.7-2.3 2.3-4 4-5.7.2-.2 1.6.6 2.4 1 0 0-.3 1-.6 1.4-.8 1.2-2 1.7-2.7 3.3-.8 2-.8 4-1 5.8-.2.7 1.2 1.7 2.1 2.3.8.6 1.8.5 2.8 0 1.1-.7 2.5-1.1 3.6-1.8.3-.2.4-1 .2-1.5-.2-.3-.8-.7-1.2-.7l-4.5.3c-.4 0-.8-.5-1.2-.9l1-.7c1.8-1.8 4-1.8 6.4-2 1 0 2-1.5 2.9-2.4 1-1.1 1.9-2.4 3.6-2.7zM159.6 129.6c-1.6.4-3.2-.1-4.3-1-1-.7-1.3-2.3-1.7-3.6-.2-.8 0-1.7 0-2.5-.2-.7-.6-1.3-.9-2-.4.6-1.1 1-1.3 1.6-.3.9-.1 1.8-.2 2.8l-.5 1.6-2.1-1.6c-.3-.2-.8-.6-1-.6-1.7.7-3.3 1.6-5 2.2-2.2.8-4.4-1.3-5.5-3.7-1.4-3-.1-5 1.4-7.4 1-1.6 2-3.2 3.7-4 .7-.2 1.9 0 2.3.5.4.3 0 1.4-.2 2.2-.1.2-.6.3-1 .4-1 0-3.1 2.2-3.1 3.2l-.2 3.5c0 .6.1 1.7.3 1.7.8.2 1.7.3 2.5 0 1.2-.3 2.4-1 3.6-1.4l.4-.3c-.1-.3-.2-.7-.4-.8l-1.7-1-1.5-.3c.6-.5 1-1.4 1.7-1.6 2-.5 4.3-.6 6.3-1.2 1.3-.3 2.7-1 3.2-2.6.6-1.9 1.8-3 4.2-2.4.6.2 1.5-.8 2.1-.7 1.7.4 3.3 1 4.9 1.6l.3.2-.5.2c-1.7.3-3.3.8-5 1-.6.2-2.8 2-2.4 2.3.6.6 1.6 1 2.4 1 1.2.2 2.4 0 3.5-.2.8 0 1.6-.5 2.4-.5.5 0 1 .6 1.6.9-.5.3.2 1.4-1.4 1.3-2.1-.1-4.4.8-6.5 1.6a10 10 0 00-3.4 2.7c-.3.2.4 1.5.8 2.2.8 1.1 2.6 1 3.8 0a9 9 0 012.8-1.5c.4-.1 1.2.4 1.3.9.2.3-.1 1-.5 1.4-1.4 1.2-3 2.2-4.4 3.3-.2.2-.4.5-.8.6zM165.8 885.3c-.4-3-1.1-5.8-1-8.7.1-2 .5-4.6 3-5.5 1-.4 2-.9 2.9-1l6.8-.4c1.2 0 2.3-.2 3.4 0 2.4.5 5 .8 7.2 1.8 2.8 1.2 4 3.9 4 6.8a7 7 0 01-2 4.3c-2 2-4.4 3.8-6.9 5.2-1.2.8-3.2 1.4-4.4-.6-.2-.3-.5-.5-.5-.8v-12.7-.8c-.6-.3-1.3-.7-2-.6-.8 0-1.6.5-2.4.8-1.7.6-3.5 1.2-5.1 2-.3 0-.6.9-.4 1.1.1.4.8.8 1.1.8 1-.2 2-.8 3-.8a7 7 0 012.6.6c.2 0 .4 1 .2 1.1-.5.5-1.1 1.1-1.8 1.3a5 5 0 01-2.6 0c-2.1-.6-1.6 1.6-2.6 2.3.4.3.8.8 1.2.9h4c1.8 0 .1.3 0 .6-.3 2.2-2.3 2.2-3.7 3.2-2 1.5-2.6-.5-4-.9zm21.6-4.7c.3-1 .7-2 .8-3.1 0-2-1.7-2.2-2.9-3-.7-.3-1.6-1.2-2-1-.8.5-2 1.5-2.1 2.3-.2 2.6 0 5.3.3 8 0 .5.7 1 1 1.4l1-1 3.9-3.6zM113.5 884.7c-1.8.4-3.5 1-5.2 1.2-3 .2-5.4-1.4-7.8-3-.6-.4-1.3-.9-2-1.2-.5-.2-1-.4-1.4-.3-.2 0-.3.7-.5 1-.4 1.2-.7 2.5-1.3 3.5-.4.6-2.7-.8-2.6-1.8l.6-6 .3-4c0-2.7.9-3.6 3.6-4.1 1.1-.2 2.2-.7 3.3-1.1 1.2-.4 2.6.5 3 1.8.7 2.7-.2 5-1.9 6.9-1 1.3-.6 1.7.7 2.1.5.2.9.5 1.2.9 1 1.3 1.9-.1 2.3-.4 1.8-1.3 3 0 4.4.7.5.2 1 .5 1.5.5.8 0 1.5-.4 2.2-.6-.3-.9-.5-2-1.2-2.7a8.3 8.3 0 01-2.3-4c-.1-.5-.5-.8-.6-1.2-.2-1.2 1.6-3.9 2.7-4.3.5-.2 1-.8 1.5-.9 1.3-.2 2.8-.2 3.3 1 .4 1.3-1 1.8-2 2.4l-2.2 1.4c-.1.2-.2.8 0 1 1.1 2.2 2 4.6 3.7 6.4 1 1.2.4 2.2 0 2.6-.8 1-2.1 1.6-3.3 2.2zm-14-12c-1.1 1-2.3 1.9-1.3 3.6l-.2.6c.2-.1.5-.2.6-.4.8-.8 1.6-1.5 2.1-2.5.4-.7.2-1.6.3-2.5-.6.3-1.2.7-1.6 1.2zM152.5 883.5c1.3-.3 2.2.6 3 1.3.4.3.6.8 1 1.2v.4c-1.5 1-4.6.5-5.7-.7-.9-.8-1.8-1.6-2.8-2.1-.2-.2-1.2.3-1.4.8-.6 1-.9 2.1-1.3 3.2l-.8 1.5c-.3-.6-.7-1.1-.8-1.7-.4-2.2-1.1-4.4 0-6.6.3-.5-.1-1.3 0-2l.3-5c0-.3-.4-.9-.6-.9-1.8 0-3.6 0-5.3.2-.5 0-1 .7-1.1 1.1-.2 1.3 0 2.6-.2 3.9 0 1.4-.4 2.9-.5 4.3l.1 2.4c0 1-.2 1.8-1.3 2-1.4.1-2-.7-1.8-2l.4-8.3c0-.4.5-.7.6-1.2.1-.5 0-1 0-1.6-.5.2-1 .6-1.5.6-.7 0-1.4 0-2-.2l-1.6-.7c-.8-.3-.4-.2-.2-1 1-2.4 2.5-2.1 4.5-1.6.8.2 1.8-.3 2.7-.7 2.4-.8 4.8-.4 7 .3.9.3 1.5 1 2.6.6 1.2-.6 3-.6 3.6-1.5 1.2-1.7 1.8.5 2.6 0-.1 1 2 1.3.9 2.7-.2.2-.1.6 0 1 .5 2.3-.3 4.4-2 5.7-.7.6-1 1.6-1.5 2.4l2.1 1.3c.4.2.6.6 1 1zm-4.7-7c1.4.5 1.8 0 2.7-1.7.6-1 .4-1.7-.3-2.1-.3-.2-1.2.6-1.8 1-1 .6-.9 1.6-.6 2.8zM111.4 114.6c.8-.7 1.4-1.7 2.2-2 1-.3 2.4-.2 3.5 0 1 .2 1.9 2.7 1.4 3.7l-1.3 3c-.2.5-.5 1-.9 1.2-.2.2-.6.1-1 .2.3.3.6.8.9.8 2.2-.2 4 1.7 6.4 1.1 1-.2 1-.2 1.3-1.1 1-2.8 2.3-5.5 3.7-8.2 1.2-2.4 3.8-2.7 5.1-.5a11 11 0 011.7 5c.1 2.2-.3 4.5-.6 6.7 0 .1 0 .3-.2.4l-1.4 2-.8-2.3-1.5-3.6c0-.1-.7-.2-.8 0-1 1.4-2 2.8-2.8 4.3-1 2.2-1.2 2.2-3.4 1.1-1.8-.9-3.6-2-5.8-2-.8 0-1.7-.8-2.5-.7-.8 0-1.8.7-2.3 1.3-.9 1.2-1.4 2.7-2.1 4l-.4.1c.1-1-1.4-1.5-.8-2.9.4-1 .2-2.4.4-3.7a34.5 34.5 0 012-8zm18 4.7c.8-1 1.5-2 2-3.2.1-.1-.6-.8-1-1-.3-.2-.7 0-1 0 .4 1.4-1.5 2.7 0 4.2zm-13.7-3l-1.3-.6c-.1.6-.5 1.5-.2 1.8.7.6 1.4.3 1.5-1.1zM93 78c.5-1.8.6-3.5 1.4-5 .4-.7 1.8-1 2.8-1.4 1.7-.9 5.8-.5 7.1.8.1.1 0 .9-.2 1-1.6 1-3.4 1-5.3 1-.9 0-1.7 1.1-2.5 1.7l.4.3c1.2.8 2.4.7 3.6 0a3 3 0 014.2.9s-.5.8-.8 1l-3.5 1-2.9.6c-1.6.3-2.2 1.5-2.8 3 0 .3-.4.6-.4 1 0 .7 0 1.5.2 2.2l3-.6c1.7-.3 3.4-1.6 5.2 0l.5.4c-.7.6-1.3 1.5-2 1.5-1.7.2-3.4 1-4.9 1-1.6 0-3.7 1-5-1-.6-.9-1.3-1-2.4-.6-1.2.4-2.6.5-4 .7-1.3.2-2.7.7-4.1.7-1.2 0-2.3-.6-3.4-.9.3-.8.4-2 1-2.5 2-2.2 4.4-4.3 6.6-6.4l.4-.5-1-.7-4.7-1.5c-.2 0-.3-.4-.3-.4.7-.6 1.3-1.4 2.1-1.6.8-.3 2-.4 2.6 0 1.5.7 3.5.7 4.2 2.6.2.4.7 1 .5 1.2-.8 1.5-1.7 3-3.4 4-1 .4-1.6 1.4-2.4 2.2l.4.5c.3.1.8.4 1 .3 1.6-.3 3.1-.8 4.7-1 1.3 0 2.6-.9 3-2.2.3-.8.8-1.4 1.2-2.2V78zM180 142.1c.8 1.6 1.9 0 2-.2.8-1 1.8-.7 2.3-.3.6.7.8 1.4-.8 1.9-1.3.4-2.4 1.8-3.6 2.6-.3.2-1.4-.3-1.6-.7-.7-1.2-1.1-2.5-1.7-3.8-.1-.4-.4-.7-.6-1-.2-.3-.4-.7-.6-.7-.2 0-.6.2-.6.4-.6 2.4-2.5 3.4-4.5 4.4-2 1-4 1.2-6 0-1.1-.7-2.5-2.9-2.4-4.2 0-.4.2-.8 0-1.1-.8-1.7.4-3 .6-4.5.2-.8.8-1.6 1.2-2.4.7-1.2 4-2.2 5.2-1.6 1 .5 1.8 1.4 2.7 1.4 1.7 0 2.6 1.3 3.8 2.2.3.3 1 .3 1.5.4l.1-1.2c0-1.7 1.4-2.7 2.5-3a27 27 0 017-.5c.8 0 1.6.9 2.4 1.3-.9.5-1.7 1.2-2.6 1.3-1.1.2-4 .6-5.2 1.2-.2.1-.3.5-.5.8h.7l2.8 1.4.8.5-1 .5c-1.1.5-2.6.8-3.4 1.7-.7.8-.7 2.3-1 3.4h.2l.2-.2zm-10-.5c.8-.8 1.6-1.5 2.2-2.4.7-.9 1.5-2 .4-3-.8-.7-2-1-3.1-1.5-.8-.4-1.8-1.2-2.4-1a3.8 3.8 0 00-2.3 3c-.2 1.5-.2 3.1.1 4.6.1.6 1.3 1.4 2 1.4 1-.1 2-.8 3.2-1zM227.6 29c1.2 1.2 2.4 2.2 3.1 3.6.8 1.3-.7 3.3-2.3 3.4a2.6 2.6 0 00-2 4.1c.5.8 1.6.7 2.5-.3l3.7-4c1.2-1.3 2.3-2.7 3.7-3.6.8-.5 2.3-.2 3.4 0 .2 0 .4 1.6 0 2.2-.2.5-1.2.8-1.9 1-1.7.3-3 2.4-2.3 4 .5 1.2 1.1 2.4 1.2 3.6 0 1-.4 2.4-1.1 3.1-.8.9-2.1 1.2-3.3.3v-.7c.2-1.3 2.1-2 1.3-3.7-.2-.5-.3-1.3-.6-1.3-.4-.1-1 .2-1.5.5-1.4 1-2.7 2-4.2 2.9-1.1.6-3.3-.7-3.8-2.4-.4-1.5-.4-3.2-.7-4.8-.2-.8-.5-2-1-2.3-1.4-.6-1.3-.3-2.2 1.3-.8 1.4-2 2.6-3 3.8-.5.6-1 1.1-1.7 1.4-1 .5-2.7-1-2.8-2.5v-6.1c0-.5.7-1 1-1.5.5.6 1.1 1 1.3 1.6.2.7-.2 1.6 0 2.3 0 .5.8 1 1.3 1 .4 0 1-.6 1.1-1 .8-1.6 1.8-3.5 3.4-3.4 2.6.2 4.3-1.9 6.6-2 .2 0 .4-.3.8-.5zm.8 4.6l-1.5-.5v1.3l1.5-.8zM294 927.1c-1.4-1.2-3.6-.3-4.5 1-1.1 1.6-.7 3.4-1.3 5-.3 1-.3 1.6-1.4 1.1-1-.4-2-1.2-1.4-2 .7-1 .3-1.8.3-2.6 0-2.7 0-5.3 2.2-7.4v-.4c-.5-.4-1-.9-1.7-1-.7-.3-1.6 0-2.4-.2-1.3-.1-2.4 1.1-2.5 2.5-.1 1.4-.6 2.8-.9 4.2l-.2.7-.5 6.2c0 .3-1 .8-1.3.7-.4-.1-1-.8-1-1.2-.2-2.2-.4-4.4-.4-6.5 0-.9 0-2 .6-2.5 1.4-1.2 0-2.8.9-4l-.9-.1c-.4-.1-1-.1-1.4-.4-.5-.3-.8-1-1.2-1.4.9-.4 1.7-1.2 2.6-1.3 2.7-.2 5.4-.1 8.2-.2l.4-.1c2.2-1 4.3.4 4.3 2.7 0 1 0 2 .2 2.8 0 .3 1.1.6 1.4.4 1.1-.6 2.2-1.5 3.2-2.3v-.9c-.1-.8 2.2-3.1 2.5-2.8.6.8 1 2 .9 3-.1 1.6-.7 3-1 4.5a107 107 0 01-2 6c-.2.5-.8.8-1.2 1.2-.3-.4-.8-.8-.8-1.2l.3-3.5zM308.4 922.2c1-.1 1.7.4 2.5-.3.5-.3 1.7.2 2.6.5.2 0 .5 1 .4 1.2-.6.6-1.3 1.2-2 1.4-1.7.3-3.6 0-5.2 1.1-1 .7-2 1-1.1 2.4.2.5 0 1.1.1 1.7l.3 1.2 3.6-1c.6-.2 1-.7 1.6-1 .2 0 .8.7.8.9a8.2 8.2 0 01-4.2 4.6c-1.6.8-3 .5-4.2-1-1.6-2-2.3-3.8-1.7-6.3.3-1-.3-2.4-.2-3.5.2-1.8.6-3.6 1-5.3.4-1.3 1.4-1.7 2.6-1.5h1c1.2-.2 2.3-.6 3.4-.6l6.3.2c.7 0 1.4-.7 2.1-1 .4-.1 1 0 1.4.2.3.2.5.8.4 1.1-.5 2.8.7 5.6-.6 8.4-.6 1 .2 2.7.2 4.1a4 4 0 01-1.2 3.1l-1 1c-.3-.5-.8-1-.9-1.6-.2-2.1-.4-4.3-.4-6.4 0-1.6.3-3.2.7-4.8.2-1 0-1.5-1-1.5h-8c-.7.1-1.3 1.1-2 1.7 0 0 .4.9.7 1h2z"/>
  <path fill="#00EBAB" d="M170 54.2c.7-1 1.3-1.8 2-2.5 1.3-1.3 3.3-1.1 4.6 0 1 1 2.2 1.6 3.2 2.4 1.6 1.2 2.8.2 4-.7 1.2-.8 2.2-1.8 3.4-2.5.3-.1 1 .4 1.5.7l-.6.9c-1.6 1.4-3.4 2.6-4.7 4.3a11 11 0 00-2 5.3c-.2.7-1.5 1.2-2.2 1.9l-.6-3.2c-.3-1.2 1.5-2.3.3-3.6-.5-.5-1.4-.8-1.7-.3l-3 4.5c-.7 1.2-2.6 1.3-3.5.3-.5-.6-2.2-.6-2.9-.2-2 1-4.1 2-6.3 2.9-1.2.5-3.1-1-3.9-2.6-.9-1.8.1-3.3.4-5 .3-1.6 1.3-2.6 2.3-3.7a5 5 0 013.9-1.8c.4 0 .9.4 1.3.6l-1 1-2.4 1.6c-.2.2-.1.6-.2 1 .7 0 1.4 0 2-.2 1-.3 1.8-.9 2.7-1.3.1 0 .3 0 .5.2-.6 1.2-1 2.8-1.8 3.7-.7.7-2.1.6-3.2 1-.5.1-1.4.4-1.4.7 0 .5.2 1.3.5 1.7.2.3 1 .3 1.4.2l2-.8c2.6-.9 4.4-2.3 5-5.2 0-.3.4-.7.4-1.3zm5.7 1.5c-.5-1.2-.5-1.3-1.7-1.2-.6 0-1.3-.4-1 1 .1.7-1.1 1.7-1.4 2.7-.1.5.5 1.2.8 1.7.2 0 .4-.2.5-.4l1.2-1.5c.4-.7.8-1.6 1.6-2.3zM216 136.8c-.5-.9-1.1-1.6-1.7-2.3-1 1.1-3.6-.8-3.7 2 0 .7-.3 1.4-.5 2.2l-.6 3.3v.8c-.2 1.1-.2 2.2-.5 3.3-.1.4-.7.7-1.1 1.1-.5-.6-1.3-1.2-1.3-1.8 0-1.4.4-2.8.5-4.2 0-1-.4-2-.1-3 .3-1.7-.8-2.4-1.6-3.3-.6-.6-1.4-1.4-1.3-2 0-1.7 1.5-1.1 2.5-1.2l3.1-.4c2.2-.3 4.5.6 6.7-.3 1.3-.6 3 .9 3.3 2.3 0 .5.3 1.4.4 1.4.8 0 1.7-.2 2.3-.5.6-.3.8-1 1.2-1.5 1-1.2 3.4-1.3 4 0 .3.7.8 1.5.7 2.2a8.3 8.3 0 01-1 3.6c-.7 1-1 2-1 3.1.1 1.2-.2 2.4-.4 3.6-.1.5-.6.8-.9 1.2-.4-.5-1.1-1-1.3-1.6-.6-1.8-1-3.7-1.5-5.5-.1-.5-.5-1.1-.8-1.1-.5 0-1.1.3-1.5.6-1.2 1-2.3 2-2 4 0 .4-.7 1-1.1 1.6-.7-.6-1.8-1.3-1.8-2 0-1.8.5-3.7 1-5.6zM251.5 933c-.7.6-1 1.6-1.8 2-1.7.6-3.6 1.2-5.4 1.5-.7 0-2-1-2.2-1.7-.7-2.1-1.3-4.3-.4-6.7.5-1.6.3-3.5.1-5.3 0-.3-1.1-.6-1.7-1a3 3 0 01-.8-.8c.4-.5.9-1.3 1.4-1.4 4.6-.6 9.1-1.6 13.8-.6.4.1.9.2 1.1 0 2.4-1.3 4.9-.7 7.3-.6.8 0 1.7 1.1 2.5 1.7-.4.4-.7.9-1.1 1-.6.3-1.3.5-2 .3-1.7-.5-1.2.8-1.3 1.6 0 1-.3 2.1-.3 3.2v2.4a218 218 0 01-.5 6.7c0 .3-.5.8-.6.8-.6-.3-1.6-.7-1.7-1-.1-2.7-.2-5.5 0-8.2.1-1.7.6-3.4.9-5 0-.2-.4-.5-.7-.5-1-.2-2.1-.3-3.2-.3-.8.1-1.6.7-2.4.7-1.5 0-3.1-.3-4.7-.2-1.2.1-2.5.6-3.7 1.2-.5.2 1 2.6 1.7 2.6l3.4-.3c.8 0 1.6.2 2.4.4.2 0 .3.6.3 1 0 .2-.4.4-.6.5l-6.5 1.6-.4.2.4 5c1-.3 2.1-.2 2.7-.8 1.5-1.3 3-1.6 4.4-.5 0 0-.1.3-.4.5zM115.8 78c-.5.7-1.5 1.3-1.4 1.8 0 .8.6 1.7 1.7 1.7.5 0 1 .5 1.5.4.4 0 1-.5 1.1-.8.2-1.3-.1-2.8.3-4 .5-1.4 1.5-2.8 2.6-3.9.8-.8 2.1-1.2 3.3-1.7.1-.1.5 0 .6.1l3.4 3.8c1.3 1.2 1.6 2.9 1 4.3-.5 1.7-1.7 3.2-2.9 4.6-.7.9-1.9 1.9-3 2-1.4.2-2.9-.3-4.3-.7-1.6-.5-3.1-1-4.7-1.7l-3.4-1.6c-1-.5-2.1.2-2.5 1.2-.2.8-1 1.5-1.6 2-.2.2-1.2-.4-1.5-.8-.1-.4.2-1 .3-1.5l1.5-5.2 1.4-3.2c.3-.6 1-1.1 1.2-1.7 1.3-2.7 2.8-1 4-.2 1 .7 1.6 2 2 3.1.3.5-.3 1.3-.6 2zm9.1 4.1c2-1.3 2.1-3.4 2.2-5.5 0-.6-.6-1.4-1-2-.6.2-1.2.5-1.7.9-1.8 1.5-3.3 3.3-2.8 6 .2.7.8 1.6 1.4 2 .4.1 1.3-.6 2-1.4zm-12-6.3l-2.1 1.4c-.1.1.1.8.3 1.1l.6.5c.9-.7 2-1.3 1.3-3zM159.4 42.4h-.6c-1 1.4-3.8 2-4.7.7-1.2-1.4-3-2.5-2.6-4.8 0-.3-1.2-1.2-1.9-1.3-1.5-.2-3-.2-4.6.6-.8.5-2 .2-3 .4l-2.5.9c-.7.3-1.4 0-2.3.3-1.4.6-3.1.4-4.7.5l-.4-.6c.8-.5 1.7-1 2.4-1.6 1-.9 2-1.8 2.5-3 .8-1.5 1-3.3 1.5-5 0-.2.4-.3.6-.5l.5.8c.4.4.7 1 1.1 1.3.8.5 1.3.8 1-.7 0-.6.8-1.4 1.3-2.2.3.4.7.9 1 1l4.3 1c.7.1 1.4.4 2 .6-.7.4-1.5 1-2.4 1.3-.2.2-2.9.8-3.3.8-1 .2-2 .6-2.9.4-2.4-.7-.1 1.5-1.1 1.7.2.1.3.3.5.3.3 0 .5-.3.8-.3 2.4-.2 4.8 0 7-.6.9-.3 2.3-.3 3-1.5.5-.9 1.2-1.5 1-2.7-.1-.4 1-1 1.6-1.6l.6.6c-.8 1.1 1 2.6-.7 3.7-.3.2.3 1.8.5 2.8.8-.4 1.8-.6 2.4-1.2 1.6-1.4 4.1-1 4.5 1.1.2.8-.5 1.7-.8 2.5l-.3.7-1.3 3.6zm-3.8-3.7c-1.3.6-.5 1.5-.4 2.3.6 0 1.3.1 1.8-.1 1.6-.9 1.9-2.5 2-4.1 0-.1-.4-.4-.6-.4-.7 0-1.5.1-2 .5-.4.3-.6 1-.8 1.8zM244 52l.3 3c.1.8 0 1.7.4 2.2.5.7 2-.1 2.3-1 .3-1.1.4-2.3 1-3.2.3-.6 1.3-.9 2-1.3-.6.8 1.3 1.1.3 2.5-.8 1-1.1 3.2-1.4 4.9-.3 1.5.2 3-.2 4.5a68 68 0 01-1.6 5c-.1.2-.7.4-1 .6-2 .8-2.4 2.4-.9 3.8.8.7 1.8 1.2 2.6 2 .5.4 1 .8-.1 1.4-.9.5-1.3 1.8-2 2.8-.2.5-.2 1.2-.5 1.6-.2.4-.7.5-1.1.7-.5-.8-1.3-1.6-1.3-2.4 0-1.4-1-2.1-1.6-3-1.2.8-3.4-.7-4.2 2-.5 1.4-2.3 2.5-3.6 3.7-.2.2-1-.2-1.3-.6-.2-.2 0-.9.2-1.3l3.6-5.4 2.5-4.3c.3-.6.8-1.2 1.3-1.7 1.1-1.2 2.1-2.2 4.1-2.4 1-.1 1.8-2.4 2.7-3.7.1-.2 0-.4.2-.5.8-1 .5-1-.5-1.5-1.1-.7-2.6.1-3.5-1.3-1.4-2.3-2.1-4.6 1-7h.2zM241 73.5c1.4-.3.1-1.2.5-1.7l.5-.5h-1.5s-.1.5 0 .8c0 .5.2 1 .5 1.4zM328 930.6l-1.3 3-.5 1-.9-.8c-1.8-3.5-1.8-7.2-1.8-11v-1c-.8-2.5-.6-4.9 2.5-6 2.2-1 6.3-1.3 7.7-.2 1 .8 1.5 2.2 2.1 3.3 1 1.6.2 3.2-.6 4.5-.7 1-1.7 1.9-2.7 2.8l-1.4 1c.6.4 1 .8 1.7 1.1 1.6.8 3.3 1.4 4.8 2.3.5.4.8 1.3 1 2 0 .1-.6.7-.9.7-.7 0-1.4 0-2-.3l-7.1-3.5-.7 1.1zm3.1-7.4v-.4c1.6-.5 2.5-2.8 1.4-4-.5-.5-1.4-1.7-2.5-.7l-2.7 2.5c-.6.6 0 1 .2 1.4.8 1.2 2.2 1 3.6 1.2zM127 102.3c-.4.8-.4 1.7-1 2-1.5 1.3-3.1 2.3-4.8 3.4-.2.1-.8.2-.9 0l-1.7-2.5c-.2-.3-.4-.6-.6-.6-2.1-.6-3.4.8-4.9 2-1 .7-2.1 2-4 1.2-1.4-.6-2.4-3.5-1.4-4.8l.3-.7.4-3.7c.2-1 .3-2.1.6-3 .4-1.4 1-2.6 1.6-3.8 0-.2 1-.1 1.2.1.3.2.6.8.5 1.1-.8 3.2-1.1 6.5-1.2 9.7.8-.7 0 2.2 1.5.6.8-.9 3-.7 3.6-1.6 1-1.4 3.1-2.2 3.2-4.4 0-1.6 2.5-4.3 4-4.5 1-.1 2.3.3 3 1 2.3 2 2.3 3 1.5 6.7-.2.7-.5 1.2-1 1.8zm-4 .5s.4 0 .4-.2a124 124 0 002.1-5.2c0-.2-.3-.6-.5-.8h-.5c-1.4 1.6-3.1 3-3.7 5.2-.2.8 0 1.6 0 2.4.5 0 1.1.2 1.6 0 .3-.2.5-.8.5-1.4zM264.7 958.4c-2.1 1-6.1.8-7.2-.8-.8-1.3-1.1-3-1.2-4.6 0-2.4.1-4.8.4-7.2.1-.9 1-1.6 1.6-2.4.7-1 1.5-1.4 3-1 1.5.5 3.3.1 4.9.6 1.3.5 2.6 1.6 3.6 2.7 1 1 2 2.4 2.2 3.8.3 1.2-.4 2.6-1 3.8-.7 1.2-1.4 2.5-2.5 3.3-1 .9-2.4 1.3-3.8 1.8zm-1.9-13c-1-.5-1.3 0-1.4 1 0 .9-.2 1.8-.4 2.8-.4 1.4-1.1 2.9-1.4 4.4-.1.6.5 1.9.8 2 1.1 0 2.5 0 3.4-.6 1.4-.8 2.7-2 3.7-3.4.6-.8.8-2.5.4-3.4-.4-1-1.7-1.7-2.7-2.4-.6-.3-1.3-.3-2.4-.5zM114.6 933c0-1.6-.2-3 0-4.3.2-1.8.2-3.7 1-5.3.5-1 2-1.8 3.3-2.3.7-.2 2 .4 2.4 1 .7 1 .8 2.4 1.1 3.6.2.9.3 1.8.6 2.6.1.4 1 .8 1.1.7.6-.4 1.3-1 1.4-1.6.2-1.4.7-2.7 1.7-3.7.3-.3.1-1 .4-1.1.6-.5 1.5-1.3 1.9-1 1 .5 2.6 1.2 2.8 2.2.7 2.1.8 4.5 1 6.7 0 1.3-.4 2.5.3 3.7.2.5-.5 1.5-.8 2.2l-1.5-.6c.5-.9-.3-1.5-.3-2.3-.3-2.3-.2-4.6-.3-7 0-.7-.4-1.4-.7-2.1l-.5.2a10 10 0 00-2.7 5c-.2 1.3-.9 2.5-1.4 3.8l-.8 1.3-1.5 1.9c-.4-.7-1-1.3-1.2-2l-1-5.3c-.3-1.1-.4-2.2-.8-3.3-.2-.3-1-.5-1.5-.5-.2 0-.6.8-.6 1.2 0 1.1-.5 4.7-1 6-.2.7 0 1.5-.2 2.2-.1.3-.6.5-1 .8l-1-1.6c-.2-.2-.2-.6-.2-1.1zM86.7 937c-.1-1.1-.4-2-.4-3 0-2 .3-4.2.4-6.3 0-.8-1-1.5-1.8-1.5H78.2c-.5 0-.9-.2-1.3-.3l-.1 2.1.3 1.5c.1 1.5-.1 3 .3 4.5.3 1.2.2 3.3-1.4 4.3l-.7.2c-1-1.5-1.7-2.9-1.2-4.8.3-1-.4-2.4-.5-3.6-.1-.9.2-1.8 0-2.7 0-.5-.8-1.3-.8-1.3-1.6 1-1.7-1.2-2.8-1.3.8-1 1.6-1.7 2.8-1.7h7.7c2.6-.1 5.3-.8 7.8-.3 2 .3 4.3-.8 5.8 1.4l.5.2-.4.2-3.2 1c-.5 0-2.1 2.4-2 3 .1 2 .4 4 .4 5.9 0 1.4-.5 2.7-.7 4.1H88l-1.4-1.6zM70.5 726.3c-.3.8-.5 1.4-.9 1.8-1.8 1.8-3.4 3.7-5.4 5.2-2 1.4-5.8.6-7.4-1.4l-3-3.9c-.4-.8-.4-1.9-.6-2.9-.4-2.7-.4-5.5 1-8 .9-1.5 2-3 3.3-4.2 1.8-1.6 5.4-1 7 .8.6.8 1.7 1.2 2.2 2 1.2 2.2 3.7 3.8 3.4 6.8 2.2 1-.5 2.5.4 3.8zm-4.9-6.9c-1.2-1-2.2-2.2-3.6-3-.7-.6-2.1-1-2.8-.6-1.8 1-2.6 3.2-2.7 5-.2 2 .8 4.3 1.4 6.4 1 2.7 5 3.9 6.8 2 2.7-2.5 3-6.6 1-9.8zM245.6 109.7l2-2.9c.6-1 1.4-1.8 2.6-.7l2.9 2.8-.2.8h-1.4c-.6 0-1.4 0-1.9-.3-1.3-.9-.9 1-1.6 1l-.1 3.2c0 .8 0 1.8-.5 2.4-1.2 1.9 0 3.6.4 5.2.2.8 1.5.6 2.5.4 1.8-.5 2.9-1.9 4.2-3 1.3-1.2 1.2-2-.4-2.8-.8-.3-1.7-.3-2.5-.5-.2-.1-.3-.5-.5-.7l.8-.3c1.8-1.4 4.2-1.4 5.4.3.7 1 .4 2.5.5 3.7v1.1c0 1.7 0 3.5-1.1 5l-.2.4h-8c-.7 0-1.5-.3-2-.7-2-1.7-3.7-3.6-3.3-6.3.3-2 1.1-3.8 1.8-5.7l.8-2v-.2l-.2-.2zM222.8 876.9c-.1 1.4-.6 2.5.3 4 .8 1.2.6 3.1.5 4.7-.1.8-1 1.6-1.4 2.4-.7-.7-2-1.6-2-2 .7-2 .2-3.6-.2-5.4l-.1-.5-.3.2-3.1 4.9-.8.8-.4-.8-2.3-2.9-.9-.5-.4 1.2c-.7 2-1 4-2.5 5.6 0 0-1-.4-1-.8-.2-.7-.3-1.5 0-2.2.6-2.1.9-4.3 1.1-6.4.3-1.6 1-3.1 1.4-4.7l.2-1.6c0-1.7 1.9-.7 2.4-1.6l.8.5c-1.5 1-.2 1.8 0 2.8v5.6c.1.4 1 .8 1.6.8.3 0 .7-.6.9-1 .7-2 1.2-4 2.1-6 .4-.7 1.5-1.2 2.3-1.8 0 0 .8.3.9.6l1 4zM236 911c-1.6-2.1-1.6-3.8-.2-6.4.3-.6.2-1.5.4-2.2.4-1.6 1.4-3.2 1.1-4.5-.3-1.5.6-1.6 1.2-2.2.3-.5 1-1.3 1.2-1.2.8.3 2 .7 2.3 1.5.7 1.6 1 3.4 1.3 5.1l.8 3.2c.1.3.6.5 1 .7.3-.6 1-1.2 1-1.8.2-1.8.2-3.6.2-5.4 0-1.8 1.2-3 2-4.4l.6-.1c.5.7 1.3 1.5 1.3 2.3 0 1.1-.7 2.1-1 3.2-.2 1.6-.2 3.2-.5 4.7-.3 1.4-1.3 2.7-1.4 4 0 1.9-2.2 2.1-2.4 3.7-.3-.1-.8 0-.9-.2-.6-1.3-1.3-2.5-1.8-3.8a21 21 0 01-1-3.8c-.2-1-.1-2-.2-3.1 0-.2-.3-.4-.4-.3-.4 0-1 .2-1 .4-.4 1.4-.8 2.9-.8 4.3a14 14 0 01-1.6 6l-.1.5-.6 1-.5-1.1zM315.5 884c-1.7 1.3-3.5 1-5 .3-1-.4-1.3-2-2.2-2.4-1.8-1.2-.1-2 .2-2.6l5.2-9.7c.6-1 3.2-2.1 4-1.4.2.2-.2 1.5-.6 2.1a71.2 71.2 0 01-3.8 5c-1.5 1.8-1.1 4.1-1.7 6.2.6 0 .7.8 1.7.3 1.5-1 3-1.6 4-3.1.3-.7.3-.6-.4-.9-.5-.2-.6-1.3-1-2l1.6-.4 3.3-.8c1-.3 3 1 3.8 1.8 1.6 1.8-.7 2.9-.6 4.4.1 1.2-.7 2.4-1 3.6-.3.8-.3 1.7-.8 2.2-.5.6-1.4 1.2-2.1 1.3-.6 0-1-3.2-.6-3.9a40 40 0 002-4.3c.1-.3-.5-1.2-.7-1.2-.5 0-1 .4-1.4.8l-3.1 3.4-.8 1.2zM231.5 956.6c-.4.5-1 .8-1.5 1.3-1.7 2-3.3 1.7-4.3-.5l-1.8-3-.4-.8-1.3-1-.7 1.6-1.4 5c-.2.5-.7.8-1 1.2-.6-.8-1.5-1.5-1.6-2.4-.3-2.6-.6-5.4-.6-8 0-1.5.5-2.8 1-4.2h1.2c.4 1.4 1 2.9.8 4.2-.3 1.6 1.1 1.6 1.5 2.5.4-.8 1-1.5 1.3-2.3.4-.9.5-1.8 1-2.7.1-.3 1-.9 1-.8.7.7 1.6 1.4 1.9 2.2.4 1.7.4 3.5.6 5.3 0 .4.5.7.7 1 .6-.3 1.5-.6 1.8-1.2.7-1.6 1-3.5 1.7-5 .6-1.2 1.7-2.1 2.6-3.1l.6-.2v4.4c-.2 1-.6 2-1 2.8-.7 1.2-1.6 2.2-2.3 3.3v.1l.2.3zM202.8 945.6c2.2-1.9 6.5-2 8.3-.3.3.3.7.3 1 .4 0 0 .1.4 0 .4-1.5.7-2.8 1.8-4.8 1.6-.6 0-3.2-.8-3 2 0 1-.2.9.8.9 1.8 0 3.7.4 5.5.6h.5l1.8-.1c-.7.7-1.2 1.6-2 2-1 .4-2 .6-3 .5-2.5-.1-4.6 2-4 4.3 0 .3 1 .7 1.5.6 1.5-.3 3-.8 4.4-1.2l2.5-.4.5.1c0 .2-.2.3-.3.4-2.2 1.8-4.3 3.7-6.6 5.4-.9.6-4.3-1.4-4.9-2.6-1.6-3.6-.8-7.3-.7-11 0-1.2.5-3.1 2.5-3.6zM66.4 909.1c.2 1.7 1.3 3.3-.5 4.6-.9.7-2.3.1-2.3-1v-7.2c0-.8-1.3-2-1.8-1.5-1.2 1.2-2.2.7-3.4.2-1.8-.8-2.5 0-2.6 1.8 0 2-.3 4-.6 6-.1.6-.9 1-1.3 1.4l-1.4-1.5v-.6c.5-2.5-.2-5.1 1-7.5.2-.2-.2-.6-.2-.8.4-2.7-.1-5.7 2.2-7.9l.9-.6c.1.3.4.7.4 1l-.2 4.5c0 .4.5 1.1.5 1 1.3-.3 2.5.6 4 0 .6-.4 1.7-.7 2.5-1 .8-.4 1.3-1.6 2-2.4l1.1-1.1.2 1.5c.4 3 .3 6 .2 9 0 .7-.4 1.3-.7 2.1zM88.7 947.7c0-.3.2-.3.3-.4l1-1.2c.4 1.2 2.1 1.7 1.6 3.4-.2.4.6 1.1.6 1.7.1 2.5-.6 4.7-1.6 6.9-.5 1-.8 2.2-1.2 3.3-.2.4-.8 1-1.2 1-.6 0-1.6-.4-1.8-1-1-2.1-1.7-4.4-2.5-6.7-.4-1-.7-2.2-1.3-3.1-.2-.5-1-.9-1.5-.8-.4 0-.9.9-.9 1.3 0 1.3.6 2.6.4 3.9a8.8 8.8 0 01-1.4 3.3c-.3.5-2-1-2-2-.1-2.1.1-4.2 1-6.2.4-.8.4-2 .4-3-.1-1.2 1.4-3.8 2.4-3.5 1 .4 1.9 1.5 2.4 2.5.6 1 .6 2.3 1 3.3l2.2 4 1.4 1.3.3-.6c.2-1.5.5-3 .6-4.6l-.2-2.8zM189 895.7c1.2.6 2.4 1.3 3.2 2.2.8.8 1.5 1.8 1.7 2.9.3 1 .8 1.3 1.6 1 .3 0 .3-1 .4-1.5.1-.7-.2-1.5.2-2 1-1.2 2.2-2.3 3.3-3.4l.3.4c-.3 1.4.5 2.9-.6 4.5-.8 1.1-.4 3-.7 4.6-.5 2-1 4-1.7 5.8 0 .3-1.1.6-1.5.4a3 3 0 01-1.3-1.5c-1-2.7-2-5.5-3.3-8.2-.2-.6-.2-1.9-1.4-1.7-.2 0-.4.6-.6 1-1.8 2.5-1.4 5.8-2.6 8.5-.3.9-1 1.5-1.5 2.3h-.6c-.5-.7-1.3-1.5-1.2-2.1.4-2 1.2-3.9 1.7-5.8.3-1.1.7-2.3.8-3.5.2-2 1.9-2.9 2.7-4.3l.8.6h.1l.3-.2zM215.3 60l1.4-6.8c.2-1 .2-2 .1-2.9 0-1 1-2.3 2.4-2.8 1-.4 2-1.2 3.1-1.3 1-.1 2 .4 3 .7-.1.6-.1 1.4-.5 1.7-.6.4-1.6.2-2.3.6-.8.5-1.6 1.1-2 2-.2.5-2.4.8-.5 1.8 1 .5 2 1.1 3 1 1.7-.3 2.7-1.6 3.8-3.7.2-.3 1-.7 1.3-.6.5.2 1 .9 1 1.3 0 .8 0 1.6-.5 2.5-.7 1.3-.1 3.3-.2 5l-.6 4c0 .3-.3.7-.5 1-.5-.5-1.2-1-1.4-1.5-.5-1.3-.7-2.7-1-4-.5-2.2-.5-2.3-2.1-1.4-1 .5-1.7 1.4-2.6 1.8-1.6.9-1.4 2.7-2.5 3.8-.5.5-.9 1.6-1.2 1.5-1 0-1.5-2-1-3 0 0-.2-.3-.2-.7zM128.9 958c1 1.5-.9 1.5-.9 2.3l-1.1-.6c-2.4-1.8-.5-3.9-.4-5.8 0-1 .4-2 .6-3l.9-3.7c.1-.6.1-1.3.3-1.9.4-1.4 1-1.4 2.2-.6 2 1.4 2.4 3.6 3.7 5.4.6.7-.2 2.2 1.3 2.5l1.1-.1c.2-.2.3-.7.3-1-.7-2.3.8-4.2 1.1-6.3.3 0 .6 0 .7.2 1.2 2.1 2 4.4 1.7 7-.4 2.4-.3 5.1-2.6 7-.2 0-.2.4-.3.6l-.9 1.2-.7-1.1c-1-1.8-2.1-3.5-3-5.4-.4-1-.3-2.3-.7-3.4-.2-.5-.9-1-1.4-1.1-.2-.1-.8.2-.8 1.2l-.4 6c0 .2-.4.3-.7.7zM193.8 142c-2.2 1.2-4.3 2.3-5.7 4.3-.2.3-.6.6-1 .8v-1.4c0-.3.3-.5.3-.7-.9-2.7 1-4.5 2.1-6.5 1.2-2.2 2.5-4.2 3.9-6.2.3-.5 1-.8 1.6-1h1l1.1-1.2.3 1.2.5 2.8c.2 1.2 0 2.6.6 3.5.3.5 2.3.7 2.6.3 1.3-1.6 2 .2 3 .2.3 0-.5 1.5-2 2-.9.4-1.9.5-2.6.9-.5.3-1.1 1-1 1.4.3 1.4-.3 2.4-1 3.3l-.8.7-.7-.9c-.7-1.1-1.3-2.3-2.2-3.5zm.4-4.5l-.3.5 1.2-1.1v-.4c-.4.2-.6.4-1 1zM208.4 121.2c.7-.8 1.3-1.7 2-2.2.7-.4 1.7-.3 2.5-.4h.7l-.4.7c-1 1.4-1.7 3-2.9 4.3-1 1-2.7 1.7-4 2.4l-1.3.4c-.6 0-1.7.3-1.8 0-1.2-1.7-2-3.6-1.3-5.9.4-1.2.4-2.5.6-3.8l.8-3.5c.2-.7.6-1.5.6-2.2 0-1.6 1.7-3.4 3.3-3.5 1.5-.2 3.1-.5 4.7-.4 1.2 0 2.3.6 3.5 1l-.2.5c-1.2 2-3.2 1.8-5 1.5-1.5-.2-1.9 1.1-2.9 1.7-.4.2 1.2 1.7 2 1.8 1 0 2 .3 3 .6v.7c-1 .3-2 .8-3 .8-2 0-3.3 1.5-3.7 3.2l-.3 3.3v1.1c.6 0 1.2 0 1.6-.2.6-.5 1-1.2 1.5-1.9zM222.4 119c-2.4-.6-2 2-3.5 2.9v.6c-.4-.3-.8-.5-1-.8-.6-1.5-.6-1.7.1-3.8.1-.3-.2-.7-.3-1a8 8 0 013-8.1c.9-.8 2.8-1.1 4-.7 2 .5 2.9 2.4 2.6 4.6l-.1 3c-.2 2.4 1.7 3 3.2 3.8l3.5 1.6c.3.2.5 1 .4 1.4 0 .3-.7.8-1 .8a36.8 36.8 0 01-7.4-2c-.8-.3-1.5-.9-2.3-1.3a5 5 0 01-1.2-1zm1.2-3.4h.2c0 .1 0 .1.1 0 .4-.7 1-1.4 1-2.3.1-.4-.5-1.4-.7-1.4-.8.2-1.4.6-2 1l1.4 2.7zM109 907.9l-1 3.6-.7 2.3-1.6-1.8c-1.5-1.7-.5-3.7-.7-5.6-.1-2-.3-2.1-2.2-1.3-.6.2-1.8 0-2.1.4-.7 1-1 2.1-1.4 3.3-.3.7-.4 1.6-.6 2.4-.1.2-.8.5-.8.5-.5-.5-1.2-1-1.2-1.5-.1-2.8-.2-5.7 0-8.5a12 12 0 011.5-4.3c.3-.6 1.2-1 1.8-1.4.2.6.5 1.2.6 1.9l.1 3.7.1.3c1.4-.2 3.1.1 4.1-.6 1.5-1.1 2.5-3 3.7-4.5.1-.1.6-.3.7-.2.3.1.4.5.5.8.6 2.1 0 4-.6 6.1-.3 1.4-.1 2.8-.2 4.4zM239.2 958.6l-.2-2.2c-.1-.7-.4-1.5-.2-2.1.6-2.4.1-4.9.4-7.3.3-2.4 2.8-3.8 5.4-3.6h2.4c1.3 0 2.6.2 4 .4l.1.7c-1.5.6-3 1.3-4.7 1.6-1.5.2-3.2 1.2-3.6 2.7v.8l3.5-.6h.8l3.2.3c.4 0 .7.4 1.1.5l-1 .3-4.2 1.9c-.8.3-1.7.2-2.5.5-1.2.4-2 2.5-1.5 3.6.3.7.9 1.3 1.3 2l1.6-1.7c1-1 2.2-1.6 3.6-1 .2.2.1 1.4-.2 1.8-1.5 1.5-3 3.2-4.8 4.3-1.1.7-2.6-.1-3.6-1.1-.4-.5-.6-1.2-.9-1.8zM103 932.9l4.1-1.5h.6l-.2.5c-1.4 2-3.6 3-5.6 4.2-1 .6-4-1.3-4-2.4-.2-2.2-.4-4.3-.4-6.5 0-2.9.7-5.8 3.6-7 2-.8 4.4-.4 6.7-.5.9 0 1.7 0 2.6.2.4 0 .8.5 1.2.8-.5.5-.9 1.4-1.4 1.5-1.8.3-3.7.1-5.5.4-1 .2-2 .8-2.8 1.5-.4.2 1.8 1.7 2.7 1.6 1.4-.2 2.8-.3 4.2-.2.5 0 1 .7 1.4 1.1-.5.4-1 .8-1.6 1-1 .4-2.2.7-3.3.8-.8.1-1.4-.6-2.5 0-2.3 1.4-2.8 2.4-1 4.4.2.2.7.1 1.1 0zM149.7 901.8c.6 1.4 2.3 2.3 1 4.2-.6.6-.4 1.8-.4 2.8 0 1.3-1 3.6-2.2 4.4a1 1 0 01-.4.1c-.2-.4-.5-.8-.5-1.2 0-1.2-.2-2.8.5-3.4 1.5-1.3-1-1-.5-1.8l-1 1c-1.4 1.5-3 2.8-5 3.2-2 .3-3-1.3-3.8-2.7-.5-.7-.7-1.6-1-2.4-.3-1.5.5-2.8 1.2-4 1-1.8 2.2-3.4 3.3-5.1.5-.7 1-1.5 1.6-2 .4-.2 1.7-.1 1.8 0 .2.8.4 1.8 0 2.4-.7 1.4-1.8 2.5-2.7 3.8-1 1.5-2 3-1.8 4.9.1.5 1.5 1.5 1.9 1.3 1.4-.7 3.2-.6 4.3-2.2.7-1.3-.5-1.2-.8-1.3-.5-.3-1.2-.2-1.8-.3l-.2-.5c.4-.4.7-1 1.2-1.2 1.1-.5 2.3-.9 3.4-1 .6 0 1.2.6 1.9 1zM199.6 32.5l.4-4c.1-.5.5-1.1.9-1.6.3-.4.8-.6 1.2-1 .4 1 .9 2 1.1 3 .2.5-.2 1.2-.3 1.8l-1 6.2-.2.6c1 1.7.1 3-.7 4.5-.1.2-1 .6-1.2.4l-4.9-3.7c-.8-.6-3 .2-3.5 1.3l-.6 1.7c-.6-.8-1.7-1.6-1.7-2.3 0-1.8-.9-3.8.7-5.5l-.3-1 .7-4.7c.2-1 1.2-.4 1.4-.3 1.3 1 2.4 2 3.5 3.1.2.2.2 1 0 1.2-1 1-2.2 2-1.7 3.9 0 .3.2.8.4.8 1.3.3 2.7.6 4 .6.3 0 .7-.9.9-1.4l1-3.6zM74.3 38c-1.1-3.1.3-6 3.3-7.6 1.6-.9 1.9.2 2.8.8 2.2 1.4 1.4 3.4 1.4 5.3 0 1 .4 2 .8 2.8 1.2 2.3 1.3 3-.2 4.8a16.6 16.6 0 01-4.2 3.8c-1 .5-2.5.1-3.8 0-.3 0-.8-.6-.8-1 .1-2.9.4-5.8.7-8.9zm3.6 6.3c1.4 0 2.7-1.2 3.4-3l.2-.7c-2.6-.7-3.5-.2-4.4 2 0 .2-.4.3-.4.3l.5 2.2.7-.8zm-1.2-8c0 .2 0 .5.2.6l.6.1c.5-.6 1.1-1.3 1.4-2.1.2-.4-.1-1-.3-1.5h-1a3 3 0 00-.5 1.3c-.1.5-.1 1-.4 1.6zM62.7 868.4l.9-.2c.1 1.2.5 2.4.4 3.6-.2 2-.7 4-1 5.9-.2 1.4-.1 3-.2 4.4 0 1.2-.1 2.5-1.6 3l-.1.5-.3-.4c-1-1.4-1.6-1.2-2.8.2-.7.8-1.6 1.8-2.5 2-.7.2-2.3-.7-2.4-1.3-.4-1.7-.2-3.6-.3-5.3 0-2.6 0-5.2-.4-7.8-.2-1.8 1-2.7 2-3.8 0 0 .4.2.4.4v7.9c0 1.6-.6 3.2.5 4.7.2.4-1.1 1.3.3 1 .7-.2 1.4-1 1.7-1.6.7-1.4 1.1-2.9 1.6-4.3l1.4-4c.4-1.2.3-2.5 1.6-3.3.4-.3.5-1 .8-1.6zM135.6 104.5l-.6.5-1.2 1.5c.1-1.4-1.6-2-1.4-3.7.2-2-.7-4-.7-6 0-1.7.7-3.3 1-4.9l.2-.4c.6.7 1.6 1.3 1.9 2.2.4 1.2.3 2.6.5 3.8 0 .3.4.5.6.7l.3-.7c1-1.6 1.8-3.3 2.9-4.8.3-.5 1.2-.8 1.8-.7.3 0 .7 1 .8 1.6l.1 3c0 .2.3.4.4.5h.7l1.5-3.4c.3-.6.6-1.4 1.2-1.6.4-.3 1.6 0 1.6.2a5 5 0 01-.2 2.3c-.7 1.6-1.6 3-2.2 4.7a7.4 7.4 0 01-3 3.8c-1 .8-.9-.4-1-.5l-1.4-4.3-.6-.2-1.1 1.6-2.3 4.4.2.4zM242 870.5c1-.4 2-.8 3-.7 2 0 3.6 1 4.4 3 .8 1.9.6 4 .5 6-.1 1.3-3 4.2-4.3 4.7-2.2.9-4.5.4-6.7.4-.6 0-2-.4-1.8-2 .4-2.7.6-5.5.8-8.3l.1-3.3c0-.2.4-.4.6-.6.6 2 2.1 1 3.3.8zm5.1 5c0-.4 0-.8-.2-1l-1.6-1.3c-1-.7-3.2-.4-3.6.5-.5 1-1.5 5-1.2 6 .2.7 1 1.6 1.4 1.6 1.9.1 3.2-1 4.2-2.5.6-.9.8-2 1-3.3zM289.2 117.8c-1 .2-2.2.2-1.6 1.8 0 .2-1 1.1-1.5 1.3-1.5.4-1.4-1.4-1.5-1.8-.2-3.4-.1-6.8 0-10.3 0-.3.8-.8 1.3-1 .2 0 1 .6 1 .7-.6 1.3.3 1.7 1.2 1.8.5 0 1-.8 1.6-1.2 1.1-.7 2.2-1.5 3.4-2 1.3-.7 3.7.8 3.3 2-.7 2.2-.6 4.7-2.6 6.3-.2.2-.9.2-.9.3 0 .6-1.7 1.6.4 2 .8.2 1.4 1 2.1 1.6.3.2.5.6.7 1-.4.2-1 .7-1.2.6-1.4-.3-2.7-.7-3.9-1.3-.7-.3-1.1-1-1.8-1.8zm1.9-4l1.9-2.5.1-.7c-1.6-.1-3.8 1.1-4 2.6-.2.3.7.9 1.1 1.3l.9-.7zM117 40l-.1-.9c-1.6-.2-3.1-.6-4.7-.5-.6.1-1.4 1.2-1.7 2-.7 2-1 4.1-1.6 6.2l-.8.2c0-1.6-2.7-2.6-.8-4.8.8-1 .2-3.3.5-4.9.2-1.2.8-2.4 1.3-3.5.3-1 .5-2 .9-2.8l.8-1.3 1.3-1c.1.9.3 1.7.3 2.6l-.2 1.5a77 77 0 00-.4 3.5c0 .7 1.4 1.6 2 1.2 1.2-1 2.4-1.9 3.5-3 .3-.3.3-1.1.4-1.7 0-.2-.5-.5-.4-.6l1.5-2 1-.5 1-.7c0 .4.2.8.1 1.1-.2 1-.5 1.8-.6 2.8-.3 1.7-.3 3.5-.6 5.2l-.8 5.1v1.3a32 32 0 01-1 3.2s-.9 0-1-.2c-.2-1-.7-1.8-.6-2.7 0-1.5-.4-3.2 1-4.4v-.1l-.3-.3zM63.3 928c1.9 2.4 1.9 5.8-.1 8l-.8 1.2c-.1-.7-.2-1.4-.5-2-.6-1.5-1.3-2.9-2.1-4.2h-1.2l-3.2 4-1.1 1.5-.8 1.3c-.2-.5-.6-1-.6-1.4l.3-4.2c0-2 1.6-3.5 1.3-5.6 0-.7.7-1.6 1.2-2.2 1-1.1 2.3-2.2 3.5-3.1 1.2-1 3-.1 3.2 1.4l.5 4.5c0 .2.4.3.6.5l-.2.2zm-3.7-2.8c0-.2-.2-.3-.3-.5l.1 2.7h.8l-.6-2.2zM299 880.3c-.2-.9 0-1.8-.3-2.5-.2-.5-1.1-.7-1.7-.9l-.6 1c-.7 1.4-.8 3-1.2 4.5-.3 1.3-1 2.4-1.6 3.5-.7-.4-1.9-1-1.8-1.4.2-1.4.9-2.7 1.3-4 .3-1.3.2-2.6.6-3.8.5-1.6 1.2-3.2 2-4.7.4-.7 1.4-1 2.2-1.5l.5.3c.5 1.4.9 2.7 1.2 4.1.2.5.1 1 .2 1.5.4-.1 1-.1 1.3-.4.4-.2.8-.8.7-1.1-.3-2 1-3.7 1.4-5.6l.3-.3.1.5c.3 1.2.8 2.5.8 3.7 0 2-.5 3.8-.6 5.7 0 .7.3 1.5.2 2.2a38 38 0 01-1.2 4.7c-.2.6-.3 1.3-1.3.1-1.3-1.7-2-3.4-2.3-5.5h-.2zM275.7 97.3c-.4 1-.6 1.8-1 2.5-.2.6-.7 1.2-1.2 1.7l-1 .7c-.7-.7-1.8-1.4-1.8-2.2-.2-3.1-.4-6.4 0-9.5.2-1.5 1.5-3 2.3-4.4 0 0 .4 0 .5.2 1 1 .8 4.2 0 5.6-.4.6-.7 1.3-.6 2 0 .5.6 1 1 1.6.6-.5 1.4-.9 1.8-1.5l2.5-5 .3.2 1 3.9 1.3 2.3h.5c0-1.2 1.5-1.4 1.4-3 0-1.6.3-3.9 2.2-5 .3-.2.7-.2 1-.3 0 .3-.2.7-.1 1 .6 2.9-1.6 5.2-1.7 7.9 0 .8-.6 1.8-1.2 2.3-.7.8-1.8 1.2-2.7 1.8l-.8-1.7-1-2.8-1.4.4c-.5.3-.8.8-1.3 1.3zM102.3 54.6c.8-1.9 2.2-3.2 4-3.2 1.4 0 3 .5 4.2 1.3 1.2 1 2 2.5 2.8 3.9.8 1.4.6 2.8-.1 4.2l-1.8 4.2c-.6 1.2-4 3-5.2 2.3-1-.6-1.8-1.9-2.5-3-2-3-1.4-6.3-1.4-9.7zm6.7 8c.3-1.1.8-2.2 1-3.4.1-1 .3-2.1 0-3-.2-.5-1.4-.7-2-1l-.7-.4c-1.8.7-2.4 1.9-2 3.6.5 1.5 1 3.2.8 4.6-.4 1.7 1 1.2 1.4 1.7.4-.6.8-1.3 1.5-2zM140.5 923.1l2.7-2.3c1.3-1.2 3.5-.6 4.9.2 1.4 1 .9 2.4 1.8 3.4.2.2-.3 1-.3 1.6 0 1.3-1.5 4.4-2.6 4.5-1.1 0-2.2 0-3.3.8-.8.6-2 2-1.7 3 .6 1.8-.8 3-1.4 4.3l-.6-.2c-.6-1-1.2-1.7-1-3 .2-2.3-.6-4.6-.5-6.9.1-1.4 1-2.9 1.5-4.3l.5-1zm5.5 3.3c1.8-.6-.4-1.5.2-2.2l-.5-.4c-1.7-.4-2.6.6-2.5 2.8l.3 2.4 2.1-1.9.4-.7zM186.9 943.2c1.2 2.2 1 3 0 5-.7 1.5-.9 3.3-1.5 5-.7 1.8-1.3 3.6-2.4 5.2-.7 1.2-2 2.2-3.2 3-.3.3-1.4.2-1.4 0-.2-1-2-1.4-1-2.8-1.8-1.7-.3-4-1-6s-.6-4.6.7-6.8c0-.1.6-.2.7-.1 1.8 1.4 2.8 3.2 2.4 5.5v.4l.6 2.8c.4-.9 1-1.7 1.4-2.7.6-1.4 1-3 1.8-4.3.8-1.4 1.9-2.7 2.9-4.2zM94.7 56.4c.5.5 1 .8 1-.3-.1-1.1 0-2.2.2-3.3.1-1 .5-2 .8-3 0 0 .9.1 1.1.4 1.3 1.1 1.7 4.4.9 6.4-.2.6 0 1.2 0 1.8-.2 1.5-.3 2.9-.6 4.3-.1.4-1 1-1.5 1-.6-.1-1.5-.6-1.8-1.2-1.2-2-2.2-4.3-3.4-6.4-.1-.2-.8-.5-1-.4-.3.3-.6.8-.6 1.2 0 1.8-.1 3.2-1 5.7-.1.2.4.7.2 1-.3.7-.8 1.3-1.3 2-.5-.4-1-.4-.7-1.6.3-1.1-.6-2.6-.7-4v-4.8c0-1.4 1.9-3.8 2.9-3.5 1.4.5 3 1 4.3 1.9.6.5.8 1.7 1.2 2.8zM288.2 53c-1.6 1.4-1.8 3.3-2.2 5.1-.2 1.4-1.3 2.5-2 3.8l-.6-.5c-.3-.8-.9-1.9-.6-2.5a15 15 0 001.2-4.1c0-.2-.7-.7-1-.7-.7 0-1.6.3-1.8.7-.8 1.7-1.4 3.5-2 5.2l-1 2.3-.3.9c-.4-.4-1-.7-1.1-1.1-.2-1-.3-2.2 0-3.2a56.4 56.4 0 012.9-9.7c.7-1.7.8-1.6 2-2.4l1-1 .2 1.5v2.5c0 .4.2.7.3 1l1-.5c1-.9 1.6-2.1 2.4-3.2.9-1.2 1-1.1 1.8.2.9 1.3.8 4.1-.2 5.7zM264.1 118.4c-.2.8-.5 1.6-.3 2.1.7 1.8 2 1 3.2.6l2.8-1 .4.6c-.8 1.2-.8 3.3-3 3.2-.6 0-1.1.4-1.6.7-1.8 1-3.7.2-4.2-1.6l-.7-2.6v-1-8c0-1.6.9-3 2.3-3.5 1.2-.3 2.7.2 4 .6 1.4.3 2.8.8 4.2 1.3l.6.2-.5.2c-1.6.5-3.4.6-5 1.5-.5.3-1.2.3-1.9.5l-.2.7c.5.4 1 1 1.6 1 1.4 0 2.6 1.2 4 .7.2 0 .5.6.8 1-.3 0-.5.2-.8.3l-4.4 1.8c-.4.1-.8.4-1.3.7zM220 909.8c-.7.6-1.3 1-1.8 1.6-.1-.8 0-1.7-.2-2.4-.5-2.4 1.4-3.9 2-5.9a73.6 73.6 0 015.2-9.2c.1-.3 1.2-.5 1.3-.3.6.8 1.1 1.6 1.5 2.5.3.9.3 1.9.7 2.6.4.8-.4 1.7.4 2.5.5.5.4 1.7.5 2.6.3 2.2.8 4.4 1 6.6 0 .6-.5 1.3-.9 1.9l-.8-.1c-1.4-1.5-1.5-3.3-1.3-5.2.2-1.6-1.3-3.7-2.8-3.2-1 .4-2.7.4-3 2.4 0 1.2-1.1 2.3-1.9 3.6zM228.7 921.3l1.2-.5 2.8-1 .4.3c0 .6 0 1.3-.4 1.7-.8 1-2 1.8-2.6 2.9-.5.8-.6 2-1 3-.3 1.5-.8 3-1.3 4.5 0 .3-.2.9 0 1 .3.4.8.8 1.3.8 1 .2 3.5-1.2 4.2-2.1l.8-.9c.4-.4 1.1-1.1 1-1.2-.4-.6-1-1-1.5-1.4-.4-.3-1.1-.7-1-.8.2-.8.6-1.5 1.2-2 .1-.2.9.1 1.3.3l1.5 1.1c1.3.6 2.2 3 1.7 4.3-.3.9-.3 2-.9 2.7-.7.8-1.8 1.5-2.9 1.7-2.3.4-4.7.5-7 .4-2.4-.1-3.7-3-2.6-5.4l1-3.1a133.5 133.5 0 012.8-6.3zM224.8 67.6c2.7.7 5.7.1 7.2 2.8.5 1 .6 2.4.5 3.6 0 .8-.8 1.5-1.1 2.3-1 2.3-3.3 3.8-5.8 4.7a11 11 0 01-4.8.7c-.4 0-1-.8-1.1-1.2-.1-1.6-.2-3.3 0-5 .2-1.3.8-2.7 1-4 .2-.8-.2-1.7 0-2.3.8-1.5 2.4-1.6 4.1-1.6zm2.6 8.8c.4-.6.9-1 1.1-1.6.3-.7.7-1.5.6-2.2-.2-1.7-1.7-2-3-2.2-.7 0-2 .3-2.2.8-1 2.1-2.1 4.3-2 6.8 0 .3.5.7.8.7 2 .4 3.4-.5 4.7-2.3zM178.5 100.5c-.8.2-1.6.1-2.2.4-2.2.7-2.9-.1-3.8-2.3-1.2-2.7.7-4.3 1.3-6.3.5-1.4 1.5-2.7 2.5-3.8.4-.5 1.4-.4 2.1-.6l-.5 1.7c-.2 2.6-1.7 4.6-3 6.7-.2.4 0 1.3.3 1.8.1.2.9.4 1 .3.6-.5 1.2-1 1.5-1.7.3-.8 2-2.7 2.8-2.8.7 0 1.5.1 2-.2 2.2-1.5 3.6-.2 5.2 1 .2.2.5.6.5 1a9 9 0 01-1.1 5v.6l-.4 1.3-1.7-1c1-1.1-1.8-2.4.2-3.5l-.5-1.2-.6.4c-.6.6-1.4 0-2.2.4-1.5.6-2.1 2-3.4 2.8zM88.3 874c.5.3.7.7 1 .8h1.4l-1.2.7c-1 .6-2.1 1.3-3.2 1.5-1.3.2-1.6.7-1.6 1.8v1.8c.1.4.4.8.8 1 .1.1.6 0 .8-.2 1-1 1.8-2.3 3.5-1.7.3 0 .7.7.6.7-1.1 1.6-1.6 3.7-3.9 4.4-2.8.8-5.4-1.1-5.4-4.1 0-2.4-.1-4.9.6-7 .3-1.3-.6-3 1-3.8.4-.3.5-1 .9-1.4.2-.2.8-.3 1.2-.4 1.9-.2 3.8-.4 5.7-.3.4 0 .9.8 1.4 1.3l-1.5.9c-1.9.4-3.7.8-4.7 2.5-.5.8 0 1 .6 1l2 .6zM127.7 898l2.2-2c0 .2.1.5.3.6l2.2 2.6c.5.6 1.2 1.4 1.2 2.1.2 2.5 0 5 0 7.5 0 .7.5 1.5.4 2.1-.1.4-1 1-1.3.9-.5-.3-1-1-1.3-1.5-.9-1.3-.4-3.6-2.5-4.2.2-.3.2-.8.5-1 2-1 1.3-3 1.3-4.6 0-.3-.8-1-.8-.9-.6.5-1.3 1-1.6 1.6-.6 1.6-.9 3.4-1.4 5-.5 1.6-1.3 3-1.8 4.6-.2.4.3 1 .1 1.3l-1.7 1.3c-.3-1-1.8-1.4-1.4-3 .6-2 .6-4.1 1.3-6 .6-1.8 0-4.3 2.7-5.1.5-.2 1-.9 1.6-1.3zM128 60.7c.8-1.5 1-3 1-4.6-.1-1 .2-2.2.7-3.2 1-2 2.6-2.3 3.3-.3.4 1 1 1.1 1.4 1 .5-.2.8-1 1-1.5l1.5-3h.7a136.7 136.7 0 013.7 3.9c-.2.2-.5.6-.7.6-1.3 0-2.5 1.2-3 2.4-.7 2-.9 4-1.6 6-.2.5-1.1.6-1.7.8-.2-1-.9-.4-1.3-.4-1.3 0-2.5.3-3.8.2-.7 0-1.3-.4-2-.6l.8-1.3zm6-3.3l-1.4.3.6.8c.3-.3.7-.6.9-1zM231 92.2c1.6-2.2-.4-2.7-1.4-3.7-.4-.4-1-.6-1.5-.9.7-.5 1.5-1.6 2.2-1.6 2 0 4 .6 6 .9 1.5.1 3 0 4.4.2 1.1.2 2.3.6 3 1.4.4.4-.2 1.7-.4 2.6a27 27 0 01-1 3.2c-.8 2.1-.8 4.5-2.5 6.3a2 2 0 01-.5.3c-.5-.6-1.3-1.2-1.3-1.8 0-1.2.4-2.4.7-3.6l1.8-6.8-.4-.4c-2.7-.3-6 1.3-6.7 3.6-.5 1.4-.6 2.8-1 4.2l-1 3.3-.3.5-.7.7-.1-.6c-1.7-2-1.2-4-.1-6.3.2-.5-.3-1.3.9-1.5zM80.7 907.5l-.8 3.3-.4.3-.5-.7a7.1 7.1 0 00-2.3-4c-1.5-1.5-1.8-1.5-2.7.6l-2.6 6c-.2.4-.9.5-1.3.8-.3-.7-1-1.4-.9-2 .2-1.2.7-2.3 1-3.4l1-3.4c.4-1.8 1-3.6 1.5-5.3.3-1 3.6-4.7 4.4-4.4.6.2 1.2 1.1 1.4 1.8l1.8 6c.3 1.3.3 2.8.4 4.4zm-5-6.4l-.4 1.2c0 .2-.3.4-.3.4.3.3.7.8.8.7.4-.3 1-.7 1.2-1.2a4 4 0 00-.3-2c0-.2-.6-.2-1-.2 0 .3.2.6 0 1.1zM256 51.8c.9-.4 1.9-.4 2.4-1 1.5-1.5 3.1-3 4-4.8.7-1.6 1.3.6 1.6-.3.2.6.7 1.4.4 1.9-.6 1.5-1 3.1-1.5 4.6-.7 2 0 4-1.4 5.7-.3.5.6 1.7-.3 2.9-.8 1-.5 1.4-1.5.7-1.9-1.3-3.7-.9-5.6-.4-.5.2-1.7-.7-1.7-1-.1-1.9-.2-3.8.4-5.4.4-1 2-1.5 3-2.3 0 0 0-.4.2-.6zm1.9 4l-1.8-1.3-.9 1.6c-.1.4 0 1-.2 1.4 0 .3-.2.5-.3.8.4-.1.9-.2 1.2-.5l2-2zM72 886.7c-2.7.6-4.3-1.2-5.9-2.8-1.3-1.4-1-4.6.3-5.6.1-.1.6.2.8.4l1 2.6c.4.5.9 1.1 1.5 1.4 1 .5 2.2.8 3.4 1 .3.1.8-.3 1-.6l-.3-.7c-.6-2.4-2.2-4.3-3.3-6.5-1.4-2.5-.1-6 2.4-7.4.6-.4 1.2-1 2-1.4.2-.2.7-.2 1 0l2.3 1.7c-.5.4-1 1-1.6 1.3-.7.3-1.6 0-2 .5-.5.4-1.2.6-1.2 1.8 0 2.4.2 4.6 2 6.6.8.9 1.3 2.1 1.7 3.3.5 1.4-.7 2.1-1.5 3.1-1 1.2-2 1.4-3.5 1.3zM157.5 104.2c-1.3-1.8-2.4-3.9-1-6.4.4-.7.4-1.6.4-2.3a6 6 0 012.7-5l1 .5c1.3.6 2.8 2.8 3.1 4 .2 1 .9 1.8 1.4 2.6 0 0 .5 0 .6-.2.3-.4.7-.9.6-1.3-.4-2.6.2-4.9 2-6.8l.7-.5v.8c.2.8.7 1.8.4 2.2-1 1.5.4 3.3-1 4.7-.5.6 0 2.1-.1 3.2-.2 1.3 0 2.6-1.5 3.4-1 .6-1.8.4-2.3-.8-.8-2-1.4-4-2.3-5.8-.2-.6-1.2-.9-1.8-1.3-.4.6-.8 1.2-1 1.8a53.6 53.6 0 00-1.9 7.2zM313.6 99.4c-2 1.4-3.4.8-5-.6-2.5-2.3-.6-4.5-.5-6.8.1-1.3.4-2.6.3-3.8 0-2 .5-2.7 2.3-2.7l7.9-.3c.6 0 1.2.6 1.8.9-.4.5-.6 1.1-1 1.3-.7.4-1.4.4-2.1.5-1.4 0-2.8-.1-4.2.2-.6.2-1 1.3-1.5 2 .6.2 1.1.5 1.7.6l4.2.8.4.2-.5.2c-1.7.6-3.1 1.9-5.1 1.7-.3 0-.8 1.1-1 1.7-.2.4 0 1 0 1.3.6-.5 1.4 1.4 2.1-.2.2-.4 1.8 0 2.8-.1-.2.5-.3 1-.7 1.4l-2 1.7zM201.3 91.9c.3-1.5 2.7-4.4 4-4.6 1.7-.2 2 0 1.5 1.7-.5 1.6.1 2.8.6 4.2 0 .3.6.4 1 .6 0-.2.3-.4.3-.7l1.6-5.2c.2-.5 1-.8 1.5-1.2.4.6 1.1 1.4 1 2-.6 2.1-1.4 4.2-2.2 6.4l-1 3c-.6 1.4-1.2 3-2.8 4l-.5-.7-.6-6c0-.6-.3-1.3-.4-2-.7.6-1.6 1-2 1.8a6.5 6.5 0 00-.8 3.9c0 .3-.6 1-1 1-.4.1-1.1-.1-1.3-.5-1-1.8-.2-3.6.4-5.3.2-.8.3-1.6.7-2.4zM144.5 63.5c-.3-1-.2-2-.6-2.6-1.7-2.3-.4-4.4.4-6.4a8 8 0 012-3c1.1-.9 2.4-2 3.6-2 1.3-.2 2.6.9 4 1.4l-.6.5c-2 .9-4.2 1.4-5.7 3.4-1 1.5-1.7 5-.5 6.1 1.2 1.2 2 1.1 3-.4.6-1 1.2-1.9 1.6-2.9.2-.4.2-.9.3-1.4l-.3-1 1 .3c.5.2 1 .4 1.3.7 1.6 1.5 1.7 2.8.5 4.6-1.5 2.5-4 3.5-6.3 4.8-1 .5-2.2-.4-2.7-1.4 0-.3-.6-.4-1-.7zM252.6 35.8c-.5 1-1 2-1.7 2.8l-2.4 2.3s-.6-.4-.6-.7V36l-.1-.6c-.1 0-.2 0-.3.2-.6.8-1.8 1-1.7 2.5a16 16 0 01-.3 4.6c-.1.7-.8 1.2-1.2 1.8-.5-.7-1.5-1.3-1.5-2 0-2.3.4-4.6.6-6.9l-.3-1c-.2-1 1.3-2.7 2.1-2.4.4.2.6.7 1 1.1.5-.5 1-1.3 1.5-1.4.5-.1 1.1.8 1.8.9h3.8c.6 0 1.4-.7 1.5-.6.7.8 1.7 1.7 1.8 2.5 0 2-.3 4.2-.6 6.2 0 .4-.5.8-.8 1.2-.2-.4-.3-.7-.6-1-1-1.2-1-2.2 0-3.5.3-.6 0-1.7 0-2.6l-2.2.5v.1l.2.2zM84.3 115c0 1.8.3 3.6 0 5.2-.4 1.7-1.3 3.4-2 5.1l-.8 1.2c-.4.6-.7 1.4-1.2 1.5-1.3.3-2.7.5-4 .2-.9-.1-1.6-3.5-1.7-4.6-.4-2.3 1.3-4 1.8-6 .5-1.4 1.7-2.6 2.7-3.8.8-1 1.8-1.4 2.4-1.4 1.6 0 1.7.1 2.2 1.8l.1.4c.1 0 .3.1.5.4zm-4.6 2.7l-.4 1.2-1.7 4.8c-.1.4.1 1 .4 1.2.4.2 1 .1 1.5.2-.8-1.4 1-2 1-2.8.2-2.1 1.9-3.6 2-5.7l-.2-1.4c-.5 0-1.2 0-1.4.3-.4.6-.5 1.5-1.2 2.2zM129.2 132.8c1.1.8 2.6 1.6 3.2 2.8.5 1.1.6 2.8.2 4-.7 2-1.7 4.1-3 5.8-.7.7-2.6.3-3.8.5 0-.6-.2-1.4.1-1.8 1-1.4 2.2-2.6 3-4 .5-.9 1.6-2 .6-3.3-.9-1-1.7-2.3-3.3-2-.4 0-1 .5-1 .9l-.3 2.7c-.3 1.7-.5 3.4-1 5.1 0 .4-.8.6-1.3.8-.4-.8-1.1-1.7-1.1-2.5 0-1.6.3-3.1.6-4.6.4-1.7.3-3.6 1.6-5 1-1.1 1.7-1.2 3.2-.4l2.3 1zM87 898.3l2.5-2.5c.8-.9 4.2-1.4 4.8-.5.5.5.3 1.6.3 2.4 0 0-.8.3-1.2.2-1.7-.1-3.9 2.2-4 4-.1 2.8 1.5 4.7 3.2 6.5 1.3 1.4.8 4.3-1 5-1.8.8-3.8 1.7-5.7.2a6.1 6.1 0 01-2-2.2c-.3-1 1.7-1.5 3.2-1 .7.3 1.5.1 2.3.2l-.8-1.8c-1-2.3-3.2-4-2.7-6.8.2-1.2.7-2.4 1-3.7zM217.4 96.4l-2.7 3c-.2.2-.8.4-1 .3-.2-.3-.4-.8-.4-1.2a13 13 0 011.8-6.3c1-1.6 1.3-3.7 2.1-5.4.4-.7 1.5-1.7 2-1.6 1 .2 2.3 1 2.7 1.8 1 2.2 1.7 4.4 1 7-.3 1 .5 2.3.7 3.4.4 1.6-.8 2.4-1.6 3.3 0 0-.9-.4-1-.8l-1-3-.2-1c-.8 0-1.8-1-2.4.5zm2.8-7.3c-.8-.7-.7-.6-1.4.6-.3.6-1 1-1 1.6-.1.6.4 1.3.6 1.9 0 0 .6 0 .7-.2a19 19 0 001.1-4zM77.2 55.4l2.4-2.8c.4-.5.6-.6.9.2l1.5 3.6c.6 1.3 1.3 2.6 1.4 4 .3 2 .1 4.1 0 6.1l-.2 1.9-1.3-1.8-3.2-5-.6-.3c-.1.2-.3.5-.3.8 0 1.9 0 3.8-1.4 5.3l-.5.4c-.4-.9-1-1.8-1.2-2.7-.2-.6 0-1.5.3-1.9 1-1 .4-1.3-.4-2-1-.7-1.3-1.7-.1-2.7l2.7-3.1zM268 878c.5 0 1-.3 1.4-.1.4 0 .8.5 1.2.8-.5.2-1.1.3-1.4.6-1.5 1.6-3.1 1.2-4.8.8-1-.2-3.1 2.6-3 3.6l-.1 2.6c0 .4-1 1-1.1.9-.6-.5-1.5-1.1-1.5-1.7 0-2.6.4-5.3.6-7.9l-.2-3.1c0-3.4.6-4 3.8-4h3.4c1 .2 1.8.7 2.7 1l.2.6c-1.4.1-2 2.3-3.8 1.4-.8-.4-2-.5-2.6.6-.4.8-.6 1.7-.9 2.6l2.2.5 3.8.8zM155.2 901.5c0-3 1.2-4.7 3.9-5.8 2.7-1 3.2-.9 4.6 1.5 0 .1-.3.7-.5.7-1.3-.1-2.3.7-3.3 1.5-1.8 1.5-.5 3.2 0 4.7.7 1.7 1.7 3.2 1.4 5.3-.2 2.3-2.4 4-4.5 3.1-1.2-.4-2.4-.6-3.5-1.1-.4-.2-.8-1.2-.7-1.5.7-1 1.6-2.2 2.8-1.4 1 .6 1.5.1 2.1 0 0-.6-.2-1.1-.4-1.7l-2-5.3zM296.9 58.8c-.6-2.2-.5-2-2.6-1.2-2 .6-2.4 2.6-4 3.6l-1 .7v-1.1c-.3-2.4 1-4.3 2-6.3 1-2.2 2-4.5 3.4-6.4.4-.7 1-2.6 2.6-1.6.6.4 1 1.4 1.1 2.2.3 1.6.4 3.3.6 5 .2 1 .9 1.9 1 2.9 0 1.5-.3 3-.4 4.5 0 0-.4.2-.5.1a3 3 0 01-2.2-2.4zM230.3 886.7c-2.3 0-4-1.6-4.2-4.1-.3-3.2.2-6.4 2.5-9l3-2.9c.3-.2 1 .3 1.5.5 2.6 1 3 2.6 1.9 5.3-.6 1.4-.6 3-1 4.5a30 30 0 01-2 4.7c-.2.5-1 .6-1.7 1zm-.3-8.5c-.2 1 0 2.4-.5 2.8-1.3.8-.5 1.2 0 1.5.4.2 1.3-.2 1.5-.6a34 34 0 002.5-5.5c0-.4.2-2.4-1.5-2-.5 0-1 .8-1.3 1.3-.4.7-.6 1.6-.7 2.5zM263.5 93.2c1.6 1.4.7-1.7 1.8-1 .3-1.6.5-3.2 1-4.8.3-.7 1-1.3 1.6-1.9l.7.2c0 .8 0 1.7-.2 2.5 0 .5-.9 3.4-1 3.9a36 36 0 01-1.1 3.4l-.8 1.4c-.1.4-.8 1.4-1 1.3-.7-.2-1.7-.3-2-.8-1.1-1.7-2-3.5-3-5.2-.2-.3-.6-.5-.9-.7l-.2.8c-.6 2-1 4.2-1.8 6.2-.2.6-1 1-1.6 1.3-.2 0-1-.7-1-1.1-.2-3.6.3-7 2.7-9.8.5-.6 1.4-1.2 2-1.1a5 5 0 012.3 1.5 9.8 9.8 0 012.2 4v.1c.1 0 .2 0 .3-.2zM310 60l-3.8 1.6c-.2 0-.6-.8-1-1.1l2-1.5c1.2-1.1 2.7-2 2.8-4 .1-.9.5-1.8.8-2.7.2-.7-.4-2.1-1.1-2.5-1-.4-1.5 0-2.3.6-1.6 1.3-2 2.8-1.8 4.7 0 .9-.1 1.9-.4 2.7-.1.3-1 .7-1.3.6-.4-.2-1-.8-1-1.3 0-1.2.2-2.5.4-3.7l.6-2.5c0-2 1.3-3.7 3.6-4.4 2.8-1 5.5 1 6 4 .2 1.7.2 3.4-.3 4.8-.6 1.7-2 3.2-3.2 4.7zM273.4 115.8l2.2-5.2c.8-2.2 2-2.1 3.9-3 2.3-1 2.4.9 2.9 1.6.6 1 .6 2.3.5 3.5 0 1 1 2-.2 3-.7.8-1.1 2-1.6 3l-.4 1c-.6 1-4.6 2.1-5.5 1.6-1.6-.8-2.3-3.3-1.5-5l-.3-.5zm8-4.2l-1-1c-.2 0-.5-.2-.6-.1-.7.3-1.5 1.8-1.7 2.6a19 19 0 01-1 3.4c-.4 1-.2 1.5.7 1.7 1.8.4 1-1.3 1.6-1.9 1.2-1.2 1.3-3 2-4.7zM185.8 122.1c-1.1.8-2.4 2-3.3 1.8-1.2-.2-2.3-1.6-3-2.8-.5-1-.4-2.5-.4-3.7 0-3.6 2.2-6 4.5-8.3.8-.8 4 1.2 4.2 2.5.1 1.8.6 3.7.3 5.5-.3 1.7-1.5 3.2-2.3 5zm-1.8-8.7c-.3.2-.8.4-1 .7-1 1.3-.6 3-1 4.4.7.1 0 2.7 1.8 1.2.5-.3 1.2-1 1.1-1.4-.1-1.7 2-3.2.5-5-.2-.2-.2-.6-.3-.9l-1 1zM282 875.4l-1 3.6-1.8 4.2c-.4 1-.6 2.2-1.2 3.2-1 1.8-1.4 1.9-2.3 0-.5-1-.8-3.2-.2-3.7 1.4-1 .8-2.3 1.1-3.4.5-1.6-1-2.1-1.3-3.2-.2-.5-.4-1.2-.8-1.3-2.3-1-.2-2.6-.7-3.8l.2-.5c0 .2 0 .4.2.5 1.2 1 2.3 2 3.6 2.8.2.2.8 0 1-.2.5-.4 1-.9 1.2-1.4.4-1.5 1-2.5 2.5-3.1 1.3-.5 1.4-.5 1.2 1-.2 1.2-.8 2.4-1.3 3.6l-.6 1.3v.1l.2.3zM198.2 926.5c.5-.7 1.3-1.2 1.5-1.8.7-2 2.5-2.2 4-2.4 1.2-.2 2.8 1.3 3.6 3 .6 1 .2 2-.4 3-.9 1.2-1.6 2.5-2.2 3.9-1 2.5-2.8 4.2-4.8 4-2-.1-4.2-4.3-3.2-6 .6-1 .8-2.1 1.2-3.2l.6-.2-.3-.3zm5.3 1.7l.1-3.5-.3.1c-.8.7-1.8 1.3-2.3 2.2-.6 1-.8 2.4-1 3.6-.2.6-.3 1.3-.3 2 .5-.1 1.2 0 1.7-.3s1.1-.8 1.4-1.4l.7-2.7zM187.4 925.4l-4.1-.1c-.3 0-.7-.8-.6-1.1 0-.4.5-1 1-1.1 2-.5 4-.5 5.8-1.4 1.6-.7 3-1 4.6-.7.7 0 1.4.8 2 1.2-.6.4-1.3 1.1-2 1.2-2.5 0-3.4 1-3.6 3.6 0 1.8.6 3.6-.6 5.5-.7 1 0 2.9-.1 4.4 0 .4-.4.9-.7 1.2-.2.3-.6.3-.8.6-.2.3-.2.7-.3 1-.1-.3-.1-1-.4-1-2.3-1.1-1.4-3.2-1.3-4.8.2-2.3.7-4.7 2-6.7.6-1 .4-1.5-.9-1.8zM76.3 103.8a88 88 0 01-1.2 5c0 .2-.5.2-.7.3-.7-1.7-2.7-3-1-5.5.8-1.1.3-3.1.7-4.7.5-2 .7-4.4 3-5.4.4-.2.8-.4 1.1-.4l8 .8.5.2-.4.2-7 2.4c-.2 0-.4.3-.6.4l.6.7 2.4.8c.4.2 1 1 .9 1-.4.6-.9 1.2-1.4 1.4-1.2.3-2.5.2-3.6.7-.6.2-.9 1.3-1.3 2.1zM90 122.8c.8.5 1.6 1 2-.2l.7-1.4 2.2-6.7c.1-.3.7-.7.8-.6.6.4 1.3.8 1.6 1.4 1 1.7-.5 3-1 4.4-.6 1.6-1.2 3.2-2.2 4.5-.9 1.1-2.2 2.3-3.6 2.5-.9.2-2-.9-2.8-2.4-1.7-3.7-1-7.4-.5-11.2 0-.3 1-1 1.1-.9.6.5 1.5 1 1.5 1.7.2 2.3 0 4.6 0 6.9 0 .6 0 1.3.2 2zM203.8 58.7c2 .5 3.5-.7 5.1-1.3.8-.4 1.7-.4 2.6-.6-.2.8-.2 1.8-.7 2.2-1.5 1.2-3 2.2-4.7 3.2-.9.5-2.3 1.2-3 .9-1.3-.8-3-1.4-3-3.7 0-2.5.9-4.6 2.3-6.6 1.4-1.9 3.6-1.6 5.5-1.9.2 0 .5.3.6.5 1 1.9.2 3.1-2 4.1-1.1.6-2.1 1.5-3.1 2.3l.4 1zM190.9 118c-.5-1.4-1-2.7-.5-4.4.1-.7-1-1.7-.2-2.8l1-1.7c.1 1 2 1.1 1.3 2.6-.3.6 0 5 .4 5.8.2.5.2 1.1.6 1.4.6.5.8.3 1.2-.6 1.5-2.6 1.8-6 4.5-7.8l1.2-.6c.2.7.6 1.6.4 2.1-.9 2.2-2 4.3-3 6.5-.8 1.9-1.4 4-3 5.5-.8.9-2.5.6-3-.5-1-1.7-1.6-3.4-1-5.5zM155.6 924.2c-1.4-.7-2.5-1.5-3.6-2.2l.3-.7 2.7-.3h6.8c.8.2 1.3 1.3 2.3.9v.7c-1 .3-1 2.3-2.7 1.4 0 0-.9 1-1 1.6-.4 1.6-.6 3.1-.8 4.7 0 .3.2.5.3.8.2 2-.1 3.8-1 5.5-.6 1-1 1-1.5.3a5 5 0 01-1-2.3c-.1-3-.3-6.2 1.2-9.1.1-.2-.2-1-.5-1-.3-.3-.9-.2-1.5-.3zM261.5 66.9c.9 2.8-1.2 4.8-2 7.2-.7 2-2.1 3.5-2.6 5.7-.4 1.5-2 2.7-3.1 4h-.6V81c.1-.7.8-1.6.6-2-.8-1.9.6-4.3-2-5.6-1.2-.7-2.2-2.2-.8-3.8l.7-.4 2.8 2.7c1.6 1.6 1.5 1.6 2.5-.5a16 16 0 012.2-3.7c.4-.5 1.5-.6 2.3-.9zM268.1 39.2l-1.8 1.7c-.6-1-1.5-.3-2.3-.4-.7 0-1.5 0-2.1.3-1 .3-1.7.2-1.6-.7.2-1.9-.7-3.8.4-5.7 1.5-2.5 3.6-4 6.3-4.6 2-.4 3.1 1.4 2.3 3.5-.4 1-.5 2.2-.7 3.4l-.5 2.5zm-5.3-3h.2v.2l-.4.7 1 1.4 1.2-1.2c.3-.3.6-.7.6-1.2 0-.7.2-1.8-.2-2.2-.5-.5-1.4-.1-1.5 1 0 .3-.7.7-.9 1.2zM94.7 101c-1.1 1.7-1.5 3.4-3.1 4.6-1.4 1-3.1 1.4-4.3.2-2.1-2.1-2.5-4.4-.8-6.7 1.5-2 3.2-3.7 5-5.4.7-.7 2.4 0 2.6 1.3.3 1.7 1.9 3.3.3 5.2l.3.8zM90 99l.1.2v.1c-.5 1.2-1.1 2.3-1.5 3.5-.2.5 0 1.2.1 1.8.6-.3 1.4-.4 1.6-.8 1-1.6 1.7-3.3 2.3-5 .2-.6-.2-1.4-.3-2.1-.5.3-1.2.5-1.6.9-.4.3-.6.8-.7 1.4zM299.7 97.4c-.6.7-1.1 1.1-1.7 1.5-.6.4-2.6-.6-2.7-1.5-.2-1-.5-2-.4-3a25.8 25.8 0 012.2-7c1.1-2.1 2.5-.8 3.7-.3l2.7 1.2c1 .5 1.6 3 .9 3.8-1.6 1.7-3.2 3.4-4.7 5.3zm-1.2-1.7l2.9-3c1-.9.2-1.7-.2-2.4-.2-.3-1.5-.4-2 0-1.3.6-1.8 4-1 5.4h.3zM67.3 948.6c1-.8 2-1.6 3.1-2 1.8-.7 3.3 1.3 3 3.5-.3 1.5-.2 3-.2 4.4v.6l-4 5.1s-.6 0-.7-.3c-.7-1.2-1.8-2.6-1.8-3.9 0-1.4-2-2.9 0-4.5.5-.5.3-1.8.6-2.9zm2.5 3.9l-.2.1v.2c.6.5 1.2 1 1.4-.3 0-.3.5-.4.5-.6.1-.7.3-1.5-1-1.4-2.5 0 0 1.3-.7 2zM149.9 948.8c-.5-1.4-1.6-.6-2.5-.7-1 0-2.2.3-2.4-1.1-.2-1.2 1.4-2.1 2.8-2.1 1 0 2.2-.3 3.3-.4 1.8 0 3.7 0 5.3 1 .2 0 .3.2.3.2-.3.5-.7 1.6-1 1.5-3.2-.2-3 2.1-3.3 4-.3 2.3-.2 4.5-.5 6.8 0 .8-.6 1.5-1.1 2.2 0 0-.9 0-1-.2-.7-1.2-1.8-2.4-.5-3.8l.3-.7.3-6.7zM266.2 82l-2.4-.1c-.6-.2-1-.8-1.6-1.2.6-.4 1.2-1 1.8-1.1 1.1-.2 3.2-1.2 3.3-2.2.1-.9-.1-1.8-.5-2.6-.8-1.7-.5-4.3.7-5.5.8-.8 2-1.4 2.6-2.5 1-1.7 2.5.3 3.4-.8-.2.5-.3 1.1-.6 1.6-1 1.4-2.7 2.5-3.3 4.1-.5 1.5-.6 3.4.6 5.1.7 1 .8 2.6.6 3.8-.1.6-1.5 1-2.4 1.3-.6.2-1.3 0-2.2 0zM151.3 72.5c.9-.3 1.4-2.5 2.5-.5.2.3 0 .8 0 1.1A562.8 562.8 0 01148 84c-1 1-1.4.8-1.9-.5a11 11 0 00-1-2.1c-1.7-2.7-.5-5.7-.7-8.4 0-.7 1-1.4 1.6-2.1.4.4 1 .6 1.1 1 .2.7.2 1.5.1 2.1l-.4 4.6c0 .1.8.4 1 .3 1.3-.7 1.6-2.2 2.3-3.3.5-.7.8-1.6 1.2-2.5l-.1-.6zM250.2 99l-2 .5c-.5.1-1.2.7-1.3.7a9.3 9.3 0 01-1.4-2c-.7-1.3-1.3-2.5-.2-4 .7-1 .6-2.4.8-3.6.1-1.5 2.2-3 3.8-3.4 1.3-.3 2.1-.1 3 .8 1.4 1.2 1 2.9.8 4.1-.4 1.9-1.5 3.6-2.4 5.4l-1.1 1.4zm.3-4.7c.3-1 .8-2 1-3 0-.4-.2-1.2-.5-1.3-.6-.2-1.7-.2-1.7 0-.7 2.2-2.8 4-2.3 6.6.1.3.6.5 1 .7.6-1 2.1-1.5 2.5-3zM231.3 54.4c.7-.8 1.5-1.4 2.2-2 1.3-1.2 2.4-2.2 4.3-.8 1.8 1.3 2.9 3.6 1.7 5.5-.8 1.2-1.7 2.2-2.6 3.3-.8 1-3.7 1.6-4.3.7-.9-1.4-3-2.3-2.2-4.4l1.1-2v-.1l-.2-.2zm6.3.7l.2-.6c-1.2 0-2.9-.7-3.4 1.2-.2.8.1 1.8.2 2.7.8-.4 1.8-.8 2.5-1.4.4-.3.5-1.1.5-2zM122.1 897.2l1.1.9c-.6.5-1 1.2-1.8 1.3-1.9.4-3.1 1.2-3.7 3.2-.5 1.6 0 3.1-.4 4.5-.5 1.6.2 3.6-1.4 4.8l-.8.7c-.3-.4-.8-.8-1-1.3-.5-1.8-.5-3.6.2-5.5l1.2-3.6c.2-.7-1-1.9-1.8-2.8-.2-.4-.6-.7-1-1 .7-.4 1.3-1 2-1.2 1-.2 2 0 3.1 0l2.8-.7c.5 0 1 .3 1.5.7zM172.3 42.1c-.3 0-.5-.3-.5-.3-1.2.7-1.2.7-2-.7-.4-.9-.8-1.7-1-2.6-.6-1.7 1.6-5.5 3.1-6.5 2.1-1.4 4 0 6 .2 1 0-.2 1.5-.3 2.3 0 .7-.8 1.5-.7 2 .6 2.4-1 3.5-2.4 4.7-.5.5-1.3.6-2.2 1zm1.6-5.8l.7-1.6c-.4 0-1 0-1.3.3-1 .7-1.8 1.5-2.5 2.5-.3.5 0 1.3-.1 2 1 0 2 .1 2.6-.7.4-.5.4-1.4.6-2.5zM91.9 36.1c.2-.3.4-.5.7-.6.3.5 1 1.2.8 1.6a56 56 0 01-3 7.5c-.3.7-1.2 2.1-2.5 1.4-.8-.4-2.2-.8-1.3-2.5.2-.3-.6-1.1-.7-1.8-.2-1.2 1.2-4.8 1.3-6.4.1-2.2 1.8-3 2.7-4.5.3-.5 1-.8 1.5-1.2.2.2.5.4.4.6l-1.3 5.1-1.6 4c-.2.6 0 1.5-.3 2-.6.9.4.8.6 1.2.4-.4 1-.8 1.2-1.2l.8-4.7.7-.5zM99.3 954c.5-1 1.2-2 1.2-2.9 0-.6-1.1-1.2-1.8-1.7-.3-.2-.8 0-1.2-.3-1.5-.8-2-1.2-1.5-1.3.6-.3 1.2-.6 1.8-.7l5-.2c.5 0 1.1.2 1.4 0 1.3-1 1.9.1 2.6.8-.6.4-1.4.8-1.8 1.4-.8 1.1-2.2 1.7-2.6 3.5-.4 1.5.6 2.9 0 4.2l-.1.3c.5 1.3.5 1.5.1 2.5-.1.5 0 1-.2 1.4l-.5 1-.7-.8c-1.8-2-1.3-4.7-1.7-7.2zM309.3 32.3c.1.3.3.4.5.6.2.2.4.4.6.4.2 0 .5-.2.6-.4.8-1.9 4-3.5 5.9-2.8.4.2 1 .5 1 .9 0 .3-.5.7-.8 1-1.3 1-2.7 2-3.9 3.2-.8.8-1.3 2-2 3l-2.1 3.4-.6.8-.5-1-.8-6c-.1-.7-.8-1.5-.7-2.2 0-1.2.6-2.3 1-3.4h.3c.6.8 1 1.6 1.5 2.5zM140.7 146l-2.8-.4c-.2 0-.4-.4-.6-.6.6-.6 1.1-1.5 1.8-1.7 1.5-.3 2.1-1.8 1.6-3.3-.3-1-.7-2.3.5-3.4 1.4-1.3 2.5-3 3.8-4.4.3-.4 1-.5 1.5-.4.3 0 .6.8.6 1.2-.2.5-.6 1-1 1.5-.7 1-1.6 2-2.2 3.1-.6 1-.7 2.3.3 3.2 1.3 1.2 1.2 2.8 1.3 4.2 0 .5-1.5 1.2-2.3 1.3-.7.2-1.4-.4-2-.6h-.2l-.3.2zM107.7 114.5c-1.2.9-2.3 1.6-3.3 2.5-.2 0-.2.3-.2.5-.2 3.3-.3 6.5-.6 9.7 0 .7-.5 1.4-.8 2-.3-1-2-.8-1.8-2.4.3-2.1.2-4.3.5-6.4.2-1.8-1-3-1.8-4.3-.5-.6-.7-1.4-1-2.1 0 0 .1-.2.3-.2 2.2-.2 4.4-.4 6.6-.4.7 0 1.5.6 2 1zM103.1 101.5c.4-1.7 1.3.1 1.8-.4.7.7 1.5 1.4.3 2.3l-4.6 3.8c-1 .8-3-.5-3.5-1.7-.8-2.4.7-4.5.4-6.9-.1-1.1.3-2.5.8-3.6.2-.6 1.2-.8 1.9-1.1l.4 1.5c.1 1-.4 4-.6 4.9v2.7s.8.3 1 .1c.8-.4 1.4-1 2.1-1.6zM194 82.8l-1.3-1.2c.8 0 1.6 0 2.3-.2.7-.2 1.3-.6 2-.9 1.5-.7.2-2.1 0-2.4-1.5-4-1.2-6 1.8-8.5.8-.6 2.2-.6 3.3-.8 0 .7 0 1.4-.2 2-.3.6-1 1.2-1.5 1.5-1.6.9-1.2 2.4-1.2 3.6 0 1 .2 2 .8 3 .5.6.2 2-.1 3a3 3 0 01-3.5 2c-.8-.2-1.5-.7-2.3-1zM195 952.9l-.4 2.7c-.3 1.9 0 4-1.1 5.7-.2.3-.9.8-1 .7-.6-.3-1.3-.8-1.5-1.3-.1-.7.1-1.5.2-2.3 0-.6 0-1.3.2-2l1-7.2.2-.5c-1.2-1.8.2-3.3.5-4.9l.5-.4c.6.5 1.6 1 1.7 1.6.1 1.4-.2 2.8-.3 4.2v3.7zM99.5 30.5c2-.8 3.9-1.5 5.8 0l.3.4c-.8.5-1.7.8-2.4 1.4-.4.3-.5 1-.6 1.6l-.7 4.7v.7l-.6 4.9-.4.3c-.5-1-1.6-2.7-1.4-2.9 1-.9.4-1.7.4-2.6 0-1 .3-2.2.6-3.3.2-.8-.6-1.7-1.4-2-1-.4-2.8-1.3-2.7-1.8.2-1.4 1.5-2 3.1-1.4zM162.3 885.6l-1.9 1.5c.3-1-2-.8-1-2.4.2-.4-.6-1.4-.6-2.1 0-1.9.3-3.7.3-5.6 0-1.3-.4-2.7-.3-4 .1-.6 1.1-1.2 1.8-1.7.1 0 .9.4.9.6v6.3l.8 7.4zM287.7 872.5c.5-.7 1-1.3 1.6-1.7.3-.2 1-.2 1.3 0 .2.2.1.9.1 1.3 0 1-.2 1.9-.3 2.8l-1 4.8c-.1.9-.2 1.8-.5 2.7l-1.6 3.5c-.5-.3-1.5-.6-1.5-.9 0-1.5.3-3 .5-4.5l.5-3.2 1.2-4.3-.3-.5zM254 874.2c-.3-1.7.8-4.4 2.2-5.4l.4.2-.6 6 .3 1.7c0 2.2 0 4.3-1.2 6.3 1.3 1.2-.6 1.8-.6 2.7l-.4.3c-1.3-.6-1.8-2.6-1.2-4 .4-1 .4-2 .5-3l.1-4.1c0-.2.2-.4.5-.7zM152 105.1c-1 .6-1.3.4-1.4-.5-.4-3 .1-5.9.7-8.8.4-2.4 1.6-4.3 2.3-6.5l.1-.5c0 .1.3.3.3.5 0 1.8 1.5 3.4.2 5.5-.6 1 0 2.6-.3 4-.2 2.1-.5 4.3-1.8 6.3zM181.3 41.2c-.8-1-2.2-2.3-2.1-3.4.2-1.7 0-3.7 1.7-5 .7-.4.8-1.7 2.1-1.3.3.2.8-.2 1.2-.3.1.5.5 1.2.3 1.6-.6 1.2-1.7 2.1-2.2 3.4-.4.7-.2 1.9.1 2.6.3.7 1 .2 1.4-.2.5-.4 1.3-.6 2-.8h.7c0 .3.2.7 0 1-.5 1.2-1.4 2.2-2.7 2.3-.7 0-1.6 1.9-2 0l-.2-.1-.3.2zM290.5 88.3c.2-.3.5-.3.7-.5l1.2-1.7c.3.7.9 1.5.8 2.2-.2 2.8-.6 5.6-1 8.4l-.5 3.1s-.4.2-.5 0a5 5 0 01-1.5-5.1v-1.1l.8-5.3zM178.2 905.1c.4-.7 1-1.2 1.1-1.9.5-1.2.8-2.4 1.2-3.7.1-.5.2-1.1.6-1.5.3-.5 1-.7 1.5-1.1.2.6.7 1.4.5 2l-2.9 8.6-.8 2.3-.6 1.2c-.2-.4-.5-.9-.5-1.3V905zM158.6 74.3l-.4 3.6-.7 2.8c-.2.6-.6 1.1-1 1.6 0 0-.6-.2-.7-.4-.3-.7-.8-1.6-.6-2.1.6-1.4.6-2.8.8-4.2.3-1.7.8-3.4 1.3-5.1.1-.4.8-.6 1.2-1 .3.6 1 1 1 1.6 0 1-.5 2-.9 3.2zM167.1 34.2c-.4 1.8-.8 3.5-1.4 5.2 0 .3-.8.7-1.2.7-.4-.1-.7-.7-1-1.1v-1c.5-3.2 1-6.4 2.8-9.2l.7-.5v.7c-.3 1.5 1.2 3.1-.3 4.5 0 0 .3.3.4.7zM206.4 34.5v-.7c0-.7 0-1.4.3-2 .2-.2 1.2-.4 1.3-.3.4.6 1 1.7.8 2-1.2 1.5.8 3.7-1 5-.1 0-.1 0 0 .1.8 1.2-.3 1.9-1 1.8-.7 0-1.3-.9-1.1-2l.7-4zM136.5 133c.4.3.4 1 .8 1.2 2 1.2-.9 2.2-.1 3.3l-1.1.2-.1-1c-2-1.5.1-2.4.5-3.7z"/>
  <path fill="#00EBAB" d="M244 52h-.4c0-.1-.2-.4 0-.5l1-1c-.1.6-.3 1-.6 1.6z"/>
  <defs>
    <pattern id="pattern0" width="1" height="1" patternContentUnits="objectBoundingBox">
      <use transform="matrix(.00248 0 0 .00228 0 0)" xlink:href="#image0"/>
    </pattern>
    <pattern id="pattern1" width="1" height="1" patternContentUnits="objectBoundingBox">
      <use transform="matrix(.00248 0 0 .00222 0 0)" xlink:href="#image1"/>
    </pattern>
    <image id="image0" width="404" height="815" xlink:href="ashadowbans.jpg" />
    <image id="image1" width="406" height="450" xlink:href="bshadowbans.jpg"/>
  </defs>
</svg>
