<svg xmlns="http://www.w3.org/2000/svg" xmlns:xlink="http://www.w3.org/1999/xlink" fill="none" viewBox="0 0 354 973" width="354" height="973">
  <defs/>
  <path fill="url(#pattern0)" d="M19 223h306v600H19z"/>
  <path fill="#00EBAB" d="M25.3 840c-5.2-1.5-10-3-15-3.8-1.8-.4-3-1-4-2.1-4.3-4.8-7-10.3-6.2-17 .1-.5.9-1 1.3-1.6.3.5.8 1 .8 1.6a15.7 15.7 0 006.2 13.6c1.7 1.3 3.7 2.8 5.7 3A48 48 0 0128 837c2.6 1 6 .1 9.1.2 11.6.3 23.2 1.7 34.7.8 15.5-1.2 31-.2 46.6-.8 4-.2 8-1 12-1 6.2-.2 12.2 1.5 18.2 2.9 1.4.3 2.8.3 4.2.2a17 17 0 0113.9 5.9c4.6 5 4.4 4.6 8.8-.8 3-3.8 6.2-7.1 12-7.5 4.5-.3 9.2 0 13.6-.9 8-1.4 16-.5 24-1 6.1-.4 12.3-1.3 18.5-2.2 2.8-.3 5.4.8 8.3.2 2.8-.6 5.8-.1 8.6-.1h9.2c3 0 5.8-.1 8.7 0 3.6.2 7.2 0 11 .8 3 .7 6.5 1.2 9.8-.6 1.2-.7 3.2-.1 4.8-.2 8-.7 16-1.2 24-2.3 3.7-.6 7.9-1.7 9-6.3.5-1.9.4-3.8.7-5.7.1-.7.7-1.3 1-2 .8.6 2 1 2 1.6.2 2.3.7 4.9-.2 6.8-1.8 3.7-3.3 7.3-8.8 8.3-6.6 1-13.1 2.4-19.8 3-15 1.2-30 .9-45 .8-3.6 0-7.3-1-10.9-1-10 .3-20 .1-29.8 1.3-6.4.8-12.7.4-19 1-7 .5-13.9 1.2-20.8 2.1-3.5.5-5.5 3.5-7.8 6-1.6 1.7-2.9 3.8-4.6 5.5-2.3 2.3-5.2 1.9-7.3-.8-.4-.6-1-1-1.2-1.7-2-5.3-7-6.2-11.7-6.8-6-.7-12-2-18-3.1-3.7-.8-7.7.4-11.6.6-7 .4-14 2.5-21.2.5-4.4-1.2-9.3-.2-14-.3-7.7 0-15.4.8-23 2.2-3.2-2.2-7.2 1.7-10.5-1-7.3.3-14.5-2.5-22-.6-2.5.6-5.3-.3-8.2-.8zM224 218.2c.5-3-.7-5.7 1-8.3.6-.9-.9-2.8-.9-4.3v-15.1c0-.9.3-1.7.5-2.6-1 .5-2 .9-2.6 1.6-2.3 3-4.4 6.1-6.6 9.2-.6.8-1.2 1.7-1.9 2.4-.4.5-1.2.6-1.8.9-.2-.8-.8-1.8-.5-2.3.6-1.1 0-2 0-3 0-1.4.4-3.2 1.4-4.2 2.7-2.7 5.8-5 8.6-7.7 1.6-1.5 3-1.8 4.5-.1 3.7 4 7.4 8 11 12.2.7.7 1.3 1.7 1.3 2.6 0 .7-.7 1.5-1.3 2.1 0 .1-1-.4-1.4-.9l-5.8-7.8c-.3-.4-1.2-.4-1.8-.4-.2 0-.4 1-.4 1.4.5 3.6-.8 7.3.9 11 .8 1.7-.8 4.3-.8 6.5-.2 8.6.3 17.3-.2 26a83 83 0 01-2.5 16.7c-1.4 5.2-2.2 10.5-3.8 15.7-1 3-1.7 6.2-2.2 9.4-1.7 9.4-6.6 17.5-10 26.2-2.2 5.5-5.6 10.6-8.4 16-2 3.8-3.7 7.8-6 11.5-4.4 6.9-9.1 13.6-13.8 20.2-1.6 2.3-3.5 4.4-5.3 6.5a6 6 0 01-2.1 1.4c-.5.2-1 0-1.6 0 .2-.6.3-1.2.6-1.6 6-7 7-17.6 16-22.5 2.6-4.3 5.4-8.5 7.6-13 3-6.3 5.8-12.8 8.4-19.3 3-7.2 8-13.6 9.6-21.4 1.3-5.8 3.2-11.4 4-17.4.9-6.7 2.7-13.2 4-19.9.6-3 1-6.1 1.3-9.2l1-18.5zM59.6 180.4c.3-3.9-.4-7.2 0-10.5.3-3.6 0-7.2 0-10.8v-10.3V138c.2-2.9.8-5.8 1-8.7.1-1-.3-2-.4-3l-1.7 2.5c-.8 1.7-1.3 3.5-2.2 5-2.5 4.3-4.4 9-8.4 12.2-.3.3-.7.3-1.1.4l-.2-1c.3-1.1.6-2.3 1.1-3.3 2.8-4.8 6-9.4 8.5-14.3 1.3-2.6 2.7-4 5.6-3.7 3 .1 4.5 2.2 5.3 4.4 1.5 4.2 4 7.8 6.6 11.3.5.7.8 1.5 1 2.3.1.4-.1 1.1-.5 1.3-.3.2-1 0-1.4-.2-3.3-2.4-4.5-6.3-6.7-9.6-.5-.8-.8-1.8-1.3-2.7-.4-.5-1-.9-1.5-1.3-.2.7-.4 1.3-.4 2 0 10-1 20 .2 29.7 1.4 13 .2 26 .9 39 .1 3.8 1 7.7 1 11.5-.2 12-.7 24.2-1 36.3v1l-2.8 4.8c-.5-1.6-1.6-3.2-1.5-4.7.4-3.4-.1-6.6-.1-10v-58.8zM269.8 87.6c-.3 2.4-.4 4.6 3 3 .4-.2 1.4.5 2.1.8-.4.7-.8 2-1.3 2-2 .2-4.3.5-6.1-.2-2.3-1-1.1-3.5-1.2-5.3 0-1 .9-1.9 1-2.8.6-4.6 2-6.2 6.5-6.4h4.4c3.8.2 4.7 1.5 4.3 5.4v1c.3 1.4-1 3.6 2 3.3 2-.2 4.5.4 4.5-3 0-.6-.3-1.5 0-2a10 10 0 012.5-3.3c.4-.3 1.7.4 2.6.7l1.4.6c3 .7 4.2 3 4.2 5.6 0 2.9-2 5-4.6 5.4-2 .4-5.4 3.6-6.4-1.5 0-.3-1.7-.5-2.4-.3-1 .3-1.8 1-2.7 1.5-1.6 1-3.3 1.3-4.7-.3-1.5-1.5-.8-2.8.3-4.1.2-.3.1-.7.2-1l.7-5.5c-1.5-.1-3.1-.4-4.7-.3-1 0-1.8.8-2.8 1-1 .1-2.4-.2-1.9 1.5.1.4 2 .8 2.7.4 1.7-1 3.3-1.7 4.8.3-1.5.7-2.8 1.5-4.3 2-1.2.6-2.6.8-4.1 1.5zm24 1.9c2-.2 3.3-1.3 2.6-3-.5-1.4-2.1-3-3.4-3.1-1.9-.2-1.9 1.8-1.9 3.4 0 3.3 0 3.3 2.7 2.7zM127.5 939.6c.3-1.2.3-2 .3-3 0-1.7.5-3.5-2.5-3.3-3.2.3-4.1.6-4 3.5.2 3.5-1.1 7.1 1 10.4.2.2-.2 1.1-.6 1.3-.3.1-1.1 0-1.3-.4-.6-.8-1.2-1.8-1.2-2.7-.2-3.3-.2-6.5 0-9.7 0-3 3.3-5.6 6.2-5.2 4 .6 5.5 2.7 4.5 6.8v.5c-.2 1.4-1 3.5-.4 4.1 1.5 1.5 3.6 2.4 5.6 3.3.2.1 1.2-.6 1.3-1 .4-2.5.8-5.1 1-7.7.4-3.2 1.4-4.2 4.4-4.2 3.1 0 6.3-.4 9.3 1 .4.3 1 .4 1.4.5-.5.2-1 .6-1.6.7-2.8.4-5.5.6-8.2 1.1-.7.1-1.3.7-2 1 .6.7 1 2 1.6 2 1.6.3 3.2.1 4.8.2.4 0 .7.5 1 .7l-.8.4c-1.5.4-3 1-4.5 1-2.2.1-3 1-3.2 3.2-.2 2.2.8 2.7 2.5 2.2 1.9-.5 3.7-1.4 5.6-2 .4-.2 1.2.3 1.7.7 0 .1-.2 1.1-.5 1.3-2.1 1.1-4.1 2.4-6.4 3-2.1.7-4 .2-6.3-1.2-3.2-2-6.7-3.9-10.8-3.9h-.5l-2.5-1.6c.7-.6 1.3-1.2 2-1.6l3.1-1.4zM274.1 894.7l-1.4 4.2c-.2.7-.6 1.3-.9 2-.8-.8-2.2-1.6-2.2-2.4 0-2.6.4-5.2.9-7.7.7-3.2.2-3.9-3.3-4-1.6 0-3.2.2-4.8 0-1.8-.1-1.7 1-1.5 2 .3 2.6 1.2.1 1.8.2l5.7.6c-1.8.9-3.6 2.5-5.3 2.5-2.4 0-3.6.9-4.2 2.8-.2.6.3 1.7.9 2.1.4.4 1.5.4 2 .1 1.6-.9 2.9-2 4.3-3 .3-.2.7-.2 1.1-.3 0 .3.2.7.1 1-.4 3.9-5.8 6.8-9.2 5-1.8-.8-2.4-1.5-1.7-3.7.9-3.3.8-7 1.2-10.3.2-1.2.7-2.3 1.1-3.4.2-.4.6-.6 1-1 .4.5 1.1 1 1 1.3 0 1.8.8 2.2 2.3 2 4.7-.5 9.4.8 14.2-1 3.2-1.2 5.7.8 6.4 4.2.5 2.5-1.9 5.8-5 6.5-1.3.3-2.8 0-4.5.3zm1.4-7.8c-3.2 0-1 2.3-1.6 3.5-.2.5.3 1.3.5 1.9h.5c2-.8 4.3-1.2 6-2.4 1.4-1 .4-3.7-1.4-4-1-.3-2.3.2-4 1zM85.3 106c-2.1 3.2-8 5-11.4 3.7-1.7-.6-4-.8-5-2-2.5-2.9-3.7-1.8-5 .7-.3.4-1.3.6-1.4.5-.4-.5-.8-1.2-.7-1.7.6-2.8 1-5.8 2.3-8.2.8-1.5 3.2-2.4 5-2.9 1-.2 3 .8 3.3 1.6.6 1.6.4 3.5-1.4 4.8-.6.4-1 1.2-1.4 1.8.7.5 1.4 1.2 2.1 1.3 1.1.3 2 .2 2-1.5s.9-3.3 1-5c.1-2.1 1-3.2 3.2-3.2l7.5.1c.8 0 1.4 1 2.1 1.4-.6.2-1.3.6-2 .7L79 99.2c-.4.1-.7.6-1 1 .4.4.8 1 1.3 1.1l5.1.6c-1.1 2.2-3.2 1.5-5 1.7-.6 0-1.2.2-1.4.6-.5.6-.7 1.4-1 2.2.7.1 1.4.4 2 .3 2-.2 4-.6 6.3-.7zm-19.2-4c2.7 1.3 3-1.4 4.3-2.6l-.6-1.3-3.3 2.3c-.2.2-.3.3-.4 1.5zM149.1 73c-1.7 0-3.3-.2-2-2.5.3-.6-.4-1.8-.7-2.7-.8.4-2 .6-2.3 1.2-.7 1.6-1.6 1.3-2.3.3-1.9-2.6-3.2-1.2-4.6.4-.4.6-1 1-1.5 1.5l-1.1.7c-.1-.3-.3-.6-.3-1-.3-2.4 3.7-10.5 5.8-11.6 1.4-.7 2.6.2 2.8 2.1.4 3.8 1 4.8 3.7 4.1 1.2-.2 2-1.8 3-2.8.8-.8 1.6-2.4 2.2-2.3 1.4.2 2.1 1.5 2 3.2-.1.6.1 1.3.4 2 .2.4.7.7 1.1 1.1.2-.4.3-.9.6-1.3 1-1.5 2-3.1 3.3-4.5.4-.5 1.7-.8 2.3-.5.5.1.9 1.4.8 2-.2 3.2-.6 6.2-1.1 9.3-.1.6-1 1-1.5 1.5-.6-.6-1.3-1.2-1.6-2 0-.4 1-1.1 1-1.7l-.3-3.6c-.6.8-1.2 1.7-2 2.5-.4.6-.9 1.2-1.4 1.6l-2.3 1-.5-2-.6-2.3c-.6.7-1.5 1.2-1.8 2-.4 1.3-.5 2.7-1 4.3zm-8.3-6.8v-2.6c-.1-.4-.5-.7-.7-1.1-.5 1-1.1 2-1.4 3 0 .2 1 .8 2 .7zM230.8 890.4c.4 2-1.6 4.3 1.6 5.4 3.4 1.2 5.8 1 6.7-2.3 1-3.6 3.2-6 5.7-8.4.7-.7 1.7-1.2 2.6-1.4.8-.2 1.7.2 2.5.4-.6.5-1.1 1.2-1.8 1.7-3.2 2.2-5.4 6.3-4.5 9 .3.6.6 2.5 2.5 1 1.5-1.2 3.6-1.7 5.5-2.3.4-.2 1.2.3 1.6.7.2 0-.2 1.2-.5 1.3-2.9.8-4.8 3.8-8.3 3.4-2.8-.4-5.5-.7-8.5.7-1.8.9-4.9-.7-7.4-1.3-.5-.1-1-1-1.1-1.6-.6-5.2 1.1-10.4 6.3-12.3.7-.3 1.7 0 2.6 0l1.8.8-1.9.6c-2.3.7-4.5 1.6-5.4 4.6zM71.5 80.8c-2.5 1-5 1.6-7.4 2.2a5 5 0 00-2 1.4c-.3.3-.3 1.1-.1 1.4.2.3 1.2.6 1.4.4 1.4-1.5 3-1.3 4.8-.6-1.6 1.3-3 3-4.8 3.6-1 .4-3.3-.7-3.6-1.7-1-2.3-2.4-1.6-3.3-.8-1.3 1.1-2.4 2.1-4.2 1.7-1.5-.4-3.7 1.3-4.5-1.1-.7-2.1-1.2-4.4-1-6.5.1-2.6 5.4-5.7 8.1-5.4.5.1 1 .7 1.5 1-.5.4-1 1-1.4 1.1-3.2.3-4.5 2.3-5.3 5-.1.7-.2 1.7 0 2 .9.4.8 1.9 2.8 1 3.6-1.6 7.6-2 8.4-7.2.3-2 2.8-3.4 5.5-3 2 .4 4.1.5 6.2.7-1.5 2.3-3.8 1.3-5.9 1.6-.7.1-1.5.7-2.2 1l-1.4.8c.6.3 1.2.9 1.9.9 2.1 0 4.3 0 6.5.5zM224.3 172c0 .8.2 1.7.6 1.8 1.8.5 3.7 1 5.5 1.1 1.9.2 3.9.4 4.5-2.3.4-1.8 1.2-3.5 2.2-5 .6-1 1.8-1.9 3-2.3 1.6-.8 2 .7 2.8 1.8 2.2 2.9 1.7 6 1.7 9 0 .4-.3.7-.5 1-.2-.3-.6-.4-.7-.7-.4-.7-.7-1.6-1.2-2.2-1.4-2-3.8-2.2-4.7-.1-2.3 5.5-6.5 2.7-10 2.6-2.3 0-4.6-3-7 .2-.6-.9-1.8-1.8-1.7-2.5.4-2.3 1.3-4.5 2-6.7.7-2.1 2-3.6 4.5-3.6 2.9 0 5.3 1.7 5.3 3.9 0 1.9-2 3.4-5 3.7-.3 0-.6 0-1.3.3zm2.5-5.7c-1.3.9-2.6 1.7-3.7 2.7-.2.1.4 1 .7 1.6 1.3-.7 2.7-1.3 4-2.2.3-.2 0-1.4-1-2.1zm13 1l-.4 3h.7c.7-.9 2.1-1.5-.4-3zM225.1 51.6c-2.7 1.2-5.3 1.6-8 .2-1.1-.6-2.8 0-4.2-.2-1.3-.2-2.6-.6-3.9-1.1-1.8-.7-4-3.8-4.7.9-.7-.3-1.8-.6-1.8-.9.2-2.9.4-5.9 1-8.7.7-2.5 4-4 6.4-3 1.3.4 2.6 1.8 3.2 3 .2.5-1.2 2.1-2.1 2.8-.8.5-2 .2-3 .6-.5.1-.8.7-1.3 1.2.4.3.7.7 1 .8a512 512 0 0013.3 3.3c.6.1 1.3-.3 2-.5l-1.4-1.6c-.3-.4-.8-.6-1.2-1-1.2-1.5-3.8-2.5-2.6-5.2.9-2 5.6-4.2 7.6-3.5.4 0 .7.6.8 1 0 .3-.2.8-.4 1l-1.6.1c-4.3 1.5-4.4 1.7-1.3 4.7a6.4 6.4 0 012.2 6.1zm-17.8-10.8c-.2.6-.6 1.3-.5 1.9 0 .4.7.9 1 1.3l2.2-1.9a6 6 0 00-2.7-1.3zM60.7 935.6c2.9-.4 5.3-.7 7.6-1.2.4 0 .7-1 1-1.4l1.9-1.6c0 .7.3 1.4.3 2v6.5c0 .8.4 1.7.8 2.4.4.4 1.2.6 1.8.8.1 0 .5-.8.6-1.3l3.3-9.4c.2-.5.8-.8 1.3-1.1.2-.1.7.2.8.5 1 2.3-3.1 12.2-5.5 13.5-2.3 1.3-4.7.2-5.2-2.4-.4-2 1-4.8-1.4-5.7-1.6-.7-3.9.3-5.8.5l-2.5.5c-2.4.5-4.1 1.4-3.4 4.4a7 7 0 010 2.7c0 .7-.4 1.3-.7 2-.5-.8-1.4-1.5-1.3-2.2 0-3 .5-5.9.8-8.8l.2-2.6c-.1-1.2-.9-3.1-.4-3.5 1.4-1 3.3-1.6 5-2.2.6-.2 1.5-.2 2.1 0 .7.2 1.3.7 2 1.1l-2 1h-.6c-1.3.3-3.6.2-3.8.8-.5 1.6-.1 3.5 0 5.3l3-.6zM190.2 18.3c0 3.2-.3 6.1-.8 9-.1.8-.6 1.6-1 2.3-.5.5-1 1.3-1.6 1.3-.6 0-1.3-.6-1.7-1.2-1-1.7-1.8-3.6-2.9-5.3-.4-.6-1.2-1.6-1.4.2a63 63 0 01-1.1 5.5c-.1.4-.7.9-1 .9-.4 0-1-.4-1.1-.8-.9-2.9-2-3.6-5-3.5-1 0-2.3-.4-2.7.1-.6.7-.9 2-1 3 0 .4 1.2 1 1.8 1.2.6 0 1.2-.8 1.8-.8 1 0 2 .2 2.9.4-.7.6-1.2 1.4-2 1.8-5.8 3.2-6.8 2.7-6.7-4 .2-8.1 4.5-9.1 10.6-7.8.5 0 .9.7 1.3.7 4.7.2 5.1.4 6.5 4 .2.5.7 1 1 1.4.4-.6 1-1.2 1.1-1.8.2-1.7.2-3.3 0-4.9-.3-2.5 1.5-1.9 3-1.7zm-14.3 4c-1.8 0-3.5 0-5.3.2-.2 0-.7 1.4-.4 1.6 1 1.2 7 .4 8.2-1-.5-.2-1-.5-2.5-.7zM185.1 910.7c-.3-2.6-1.1-3.4-2.1-1a80.4 80.4 0 00-3.2 10c-.3 1.2-.4 2.2-1.8 1.7-1-.3-2.4-1.2-2.5-2-.4-2.1 0-4.3-.2-6.5 0-.4-.8-.8-1.3-1.1-.2.3-.8.7-.7 1 .4 3-.7 5.8-1.6 8.6-.2.4-.8.8-1.2 1.1-.2-.4-.6-.9-.5-1.3.6-4.8.3-9.8 3-14.4.7-1 .9-1.6 2.1-1.6 1.8 0 1.3 1.3 1.4 2.3.2 2.6.4 5.1.8 7.7 0 .7.4 1.3.7 1.9.2-.6.6-1.2.6-1.7-.4-3.2 1.6-5.5 2.9-8 .5-1 2.3-2.2 2.7-2 1.3.8 3 2.2 3 3.4 0 4 2.2 8 0 12l-.6 1.7c-.5-.6-1.4-1-1.4-1.6-.2-2.3 0-4.6 0-7v-3.2zM263.3 912c.8-1.1 1-2.2 1.8-2.8 1.5-1.4 2.6-.9 3.3 1.4l2.2 7.7c.2.8.4 1.6.8 2.4l1.9 3c.2-1.2 1-2.8.4-3.5-1.7-2.4-.7-4.8-1-7.2 0-.8.4-1.7.7-2.4.2-.4 1-.9 1.1-.8.6.4 1 1 1.4 1.5-2.7 1.9.8 3.6.2 5.6-.5 2 0 4.3-.2 6.4-.1 1.3-.8 3.1-1.7 3.4-1 .3-3.2-.6-3.4-1.4-.6-2.1-3.4-3.3-2.4-6 .3-.9.2-2-.1-2.7-.2-.6-1-1-1.5-1.6l-.5 1.9c-.5 2.1-.8 4.3-1.4 6.4-.2.6-1.4 1-2 1.4-.4-.7-1-1.4-1-2 .3-3.5.8-7 1.4-10.7zM150.8 47.5l2.9-2.8c.5-.6.6-1.7 1.1-2.2 1.8-1.8 5-1.1 5.3 1.3.5 3.1.2 6.3-2.4 8.7-2.3 2.1-4.3 2-4.9-1.1-.6-3.2-1.2-2-3-1-1.9 1.3-3.5 3-6 3.5-4.4.8-7.1-.7-6.2-4.8.7-2.6 2.3-5.2 4-7.4 1.3-1.7 3.6-1.3 4.5.4.4.6 2.5 1.8-.6 2-3.4.2-5.5 2.5-5.4 5.6 0 .6 1.2 1.8 1.7 1.8 1.4-.2 2.9-.8 4.2-1.4 1.6-.7 3-1.5 4.8-2.6zm7.3.3c-.3-1.3-.4-3.5-1-3.6-2.4-.4-.4 2.3-1.6 3-.3.1-.7.6-.6.8.2.8.6 1.7 1 2.5.5-.7 1-1.4 2.2-2.7zM267.6 858c.5 2.1.6 4.5.8 7l.6 2.4 1.6-2c.5-.8.8-1.7 1.5-2.1 1-.6 2.3-1.4 3.2-1.2.8.3 1.5 1.8 1.7 2.9.3 1.3 0 2.8.1 4.2 0 .5.3 1 .5 1.4.4-.3 1-.7 1.1-1.1l3.8-8.2.8-1.8.8-.7c.2.4.6 1 .5 1.3-1.8 4.5-3.6 9-5.5 13.3-.2.4-1.5.7-1.9.4-.9-.6-2-1.5-2.2-2.4-.4-1.5 0-3.2-.1-4.8 0-.5-.7-1-1.1-1.4-.4.3-.8.6-1 1l-4.5 8.3c-.3.6-1 1-1.5 1.5-.6-.6-1.5-1.3-1.6-2-.1-2.5-.3-5 0-7.5.5-2.8 1.4-5.5 2.4-8.6zM121.3 896.6c-.4 1.3-.7 2.1-1.2 2.7-.3.4-1.2.6-1.3.5-.4-.5-.8-1.2-.7-1.7.7-3.7 1.3-7.3 2.4-10.8.3-.8.3-3.4 2.5-2.5 1 .4 2.2 1.6 2.5 2.6.7 2.1.8 4.4 1.2 6.6 0 .4.3 1 .4 1.4.5-.4 1.3-.8 1.5-1.3.3-.8 0-1.8.3-2.5a19 19 0 012.8-4.8c.7-.7 2.3-1 3.2-.7.7.2 1.4 1.6 1.5 2.5v10.2c0 .4-.5 1-.9 1s-1.1-.3-1.2-.6c-.2-1-.2-2-.2-3l.1-7.4c0-.3-.3-.6-.5-.8-.2.2-.6.4-.7.7l-2 5.1c-.7 1.6-1.3 3.1-2.3 4.5-.5.7-1.6 1-2.5 1.6-.5-.9-1.4-1.7-1.5-2.6-.2-2.3 0-4.7-.2-7-.1-.7-.9-1.4-1.3-2-.3.5-.7 1.1-.8 1.8-.4 2-.8 4-1.1 6.5zM54.2 64.6c.9-2.1 3.1-4-1-4.4-.4 0-.8-.4-1.2-.7l1-1.4c3.3-2 7-.9 10.4-1 .5 0 1 1.6 1.6 2.5l1.8 2.6 2.6-2.6 1-1.7 1-.9c.5.5 1.1.9 1.1 1.4.3 3.1 0 6.2-2 8.8L69 69c-.3-.7-.4-1.7-.9-2.1-.8-.7 3.2-2.3-.3-2.1-1.3 0-4-1.7-4 1.7 0 1.5.2 3.6-2 3-1.6-.4-1.7-2.3-.6-3.9.5-.8.6-2 .8-2.9.2-1 .2-2.2.3-3.3-.8 0-2-.3-2.4.2-.8 1-2.8.4-2.7 2.6.2 2.2-.4 4.4-1 6.5-.3 1-1.5 1.7-2.3 2.5-.2-1-.5-2-.5-3s.4-2 .7-3.5zM56.6 870.4c.1-3.2.5-6.1.9-9 0-.5 0-1.2.4-1.4.6-.6 1.5-.9 2.2-1.3.2.7.6 1.3.5 2-.2 2.3-.7 4.7-1 7-.2 1.6.7 2.9 2 1.3 1.8-2 3.8-1.6 5.9-1.6 1.2 0 1.9-.1 2-1.7 0-1 .5-2.3 1-3.3.7-1 1.8-1.7 2.6-2.6.1 1.4.5 2.8.3 4-.4 1.6-1.3 3-1.8 4.7-.2.5.1 1.3.3 2 .6-.2 1.3-.2 1.8-.5 1.6-.8 3.2-1.9 4.9-2.5.5-.2 1.4.7 2.2 1l-1.3 1.2c-2.4 1.9-4.5 4.4-8 4.2-1.7 0-2.6-.6-3.2-2-1.2-2.5-2.4-3-4.3-1.8-1.3.8-2.4 2-3.8 2.6-1.7.7-3-.1-3.6-2.3zM177.8 899c-3.2 1-4.4-.8-4.5-3.2 0-2.2.7-4.4 1-6.6.3-2.2-.3-5 .8-6.5.9-1.2 3.8-.9 5.8-1.2 2.2-.4 4.4-.8 6.6-1 .6-.2 1.3.2 2 .4-.7.6-1.4 1.6-2 1.6-3.4-.1-5.9 1.7-8.4 3.3-.9.5-2.3 1.5-2.2 2 .6 1.6 1.7.3 2.7.2 1.6-.2 3.2-.1 4.9 0 .5 0 1 .4 1.5.6-.5.5-1 1.3-1.5 1.5-1.8.5-3.6.8-5.5 1-1.8.4-2.8 1.4-2.5 3.3 0 .7.2 1.4.3 2l1.5-1.2c1.6-1.5 3-3.3 5.6-2.5-1 1.5-2 3.1-3.3 4.5-.6.7-1.7 1-2.8 1.8zM239.2 865.2c2.3 0 4.6-.6 7-1 .5 0 1.1.5 1.7.7-.4.5-.7 1.3-1.1 1.4-2 .4-4 .8-6 1-1.4.2-2.7-.3-2.8 2.1-.1 2.7 1.4 2.5 3 2.3 2-.4 3.8-1.1 5.8-1.6.4 0 1.2.1 1.4.5.3.3.1 1.2-.2 1.4-3.1 2.2-6.6 3.7-10.6 2.9-1-.3-2.3-1.7-2.4-2.7-.2-2 .4-4 .6-6.1.1-1 .1-2-.1-3-.7-2.7 0-4 2.7-4.3 2.8-.3 5.7 0 8.6 0 .3 0 .7.5 1 .8-.3.4-.7 1.3-1 1.2-3 0-5.8 0-7.6 2.8-.1.3 0 .7 0 1.6zM238.4 114c.4-3.7 1-7.2 2-10.6.7-2.6 7.1-4.3 9.5-2.7 1.7 1 1.8 5.1.1 6.6-.7.6-1.7 1-2.5 1.5-.1.1.1 1.1.3 1.2l7.6 1.2c.7.1 1.4.9 2 1.4l-1.9 1.1c-4.2 1.7-7.8.3-10.9-2.7-1.6-1.6-2.2-1.3-3.3.8-.5 1-1.7 1.7-2.9 2.3zm10-8.3v-3.2c-1.4.3-2.9.5-4.2 1-.3.2-.4 1.5-.1 2.1 1 2.1 2.1-.4 4.3.1zM220.8 81.9l-1 6c-.1.8.2 1.7.4 2.5l2.2-.9 4.5-2.2c.4-.1 1 .3 1.4.5-.2.5-.3 1.3-.7 1.6-1.1 1-2.3 2.1-3.7 2.8-2 1.1-4.2 3-6.5.8-2-2-4-1.7-6-.3-.9.5-1.9.9-2.9 1-2.4.5-3.2-.3-2.8-2.7l1-7.1c.3-1 .8-2 1.4-2.7.2-.2 1.8.4 1.8.5 0 2-.4 3.8-.5 5.7 0 .9.4 1.7.6 2.6l2-.8c.4-.3.8-.8 1.2-.8 3.8.5 4.7-1.5 4.6-4.7 0-.1 0-4.3 3-1.8zM170 867.4c.6-2.6 1.2-4.7 2-6.8.1-.4 1-.5 1.7-.8.1.6.5 1.3.4 1.8-.6 3.2-1.2 6.3-2 9.5-.4 1.3-1 3-2 3.7-.5.4-2.5-.8-3.4-1.6-2.6-2.2-4-5-4.3-8.5 0-.5-.5-1-.7-1.4-.4.3-1 .7-1.2 1.1l-1.4 6.5-1 3.3c-.3.4-1.3.8-1.7.6-.6-.2-1.6-1.2-1.5-1.4 2.5-4.1 1-9.9 5.5-13.4 1.7-1.3 2.4-.8 3 .5 1.6 3.1 2.9 6.4 4.4 9.5.3.7.9 1.2 1.3 1.7l.8-2.2c.2-.5 0-1 0-2.1zM176.5 867.4c1.6-3.5 2.1-7.1 5.3-9.1.5-.3 1.2-.3 1.8-.5 0 .8 0 1.9-.4 2.2-3.4 2.4-3.3 6.2-4 9.7-.2.5.9 2 1.3 2 1.3-.1 2.7-.5 3.9-1.1 1.3-.7 2.5-1.7 3.8-2.5l-4.3-.7c-.7-.2-1.3-.6-2-1 .6-.4 1.1-1 1.8-1.1 1.4-.2 2.9-.1 4.3 0 2.8 0 5 2.2 4.6 5-.3 2.2-1.3 4.4-2.1 6.6-.2.5-.7.9-1.1 1.3-.4-.5-1-1-1-1.5 0-1.3.4-2.7.6-4l.1-1.8c-.6 0-1.3 0-1.8.3-1.3.8-2.4 2.1-3.8 2.6-4.8 1.8-7 .3-7-4.8v-1.6zM48.8 27.8c1.8-.4 3.3-.4 4.3-1.2 1.2-.8 3.7-.4 3.3-3-.3-1.7.4-3 2-3.3 1.6-.4 3 .3 3.4 2.2.2.8 1 1.4 1.6 2l1.1-2.2.5-.9c.5-1-1.2-3 1.3-3.3.2 1.3.7 2.8.5 4a35 35 0 01-2.3 6.7c-.5 1-1.6 1.5-2.2 0-.7-1.7-1-3.5-1.7-5.2-.1-.5-.8-.8-1.2-1.2-.3.3-.7.6-.9 1-.4 1.3-1 2.6-1 3.9 0 3.3-.9 3.6-3.1 1.3-.3-.3-1-.2-1.5 0-1 .3-1.7 1.2-2.6 1.3-1.6.1-3.1-.3-4.7-.4l1-3.8 1.5-4.3c1-2.4 3.6-3.8 6-3.3.5 0 .8.5 1.2.8-.4.4-.7 1.1-1.2 1.3-.6.2-1.5-.2-2.1 0-.8.4-1.4 1-2 1.6.7.2 1.5.5 2.3.6h2.1c.3 0 .6.3.9.5-.3.2-.6.5-.9.5-.5.1-1 0-1.6 0-3.2.3-3.2.3-4 4.4zM310.6 912.8c-1-.2-1.5-.5-2-.7.5-.4.8-1 1.2-1.1 4.5-1.1 8.8-3 13.6-2.5.4 0 .8.4 1.2.6l-1.4.5-6.6 2.2c-.6.3-1 1.2-1.4 1.9 1 .4 1.8.8 2.7 1 .3.1.8-.8 1.2-.7 1.5 0 4.3.3 4.3.6.1 3-2.5.6-3.5 1.5-1.7 1.7-5.3.2-5.9 3.7-.1.8 0 1.7.1 2.5.8-.2 1.6-.3 2.2-.6l4.5-2.3c.4-.2 1 .1 1.5.2-.1.3-.1.6-.3.8-2.1 1.4-3 4.4-6.3 4.4-2 0-3.1.1-4-1.4-1.4-2.4-1-6.6.8-8.7.4-.5.5-1.2.8-1.9h-2.7zM60.7 96c1.3 1 1.6 1.9 0 2.1-1.5.2-3.4-.2-4 .6-.8.8 0 2.7-.4 4-.5 2-1.4 3.8-2 5.7l-.8 1.4c-.5-.5-1.5-1-1.4-1.5.4-2.3.7-4.8 1.6-6.9.8-1.7.6-2-1.2-2.3-1 0-1.8-.9-2.8-1-1.9 0-4.2-.6-5.2 1.7-.9 2 1.1 3 2.2 4.4.8 1 1.3 2.2 1.9 3.3l-3.8 1.4c-.4.2-1 .1-1.6 0-.6 0-1.3-.3-2-.4.7-.6 1.3-1.7 2-1.6 2.7 0 2.7-.7.8-2.2l-.8-.8c-1.1-1.1-3-2.4-1.9-4 1.2-1.7 2.4-4.3 5.2-3.9 4.6.8 9.1-.6 14.2 0zM292.2 916l1 5c.4 1.6.5 3.2.7 4.8-1-1.4-1.8-2.9-2.8-4.2-.7-.8-1.7-2.3-2.4-2.1a11 11 0 00-4 2.2c-.4.3-.2 1.4-.6 1.9-.5.5-1.4.8-2.2 1.1-.1-.6-.5-1.3-.5-1.9a38 38 0 014.9-15.3c.8-1.8 2.7-1.6 3.6.4 1 2.4 1.6 5 2.3 8.2zm-6-1l1.9 2.2c.3-.7.7-1.4.8-2.1.2-1.1.2-2.2 0-3.3 0-.4-.8-.7-1.2-1.1-.3.3-.8.7-.8 1-.2 1 0 1.9-.6 3.3zM36.6 19.4c1.7.3 3.2.3 4.7.2 1 0 2-.5 3-.4.8.1 1.5.8 2.3 1.2-.7.3-1.3.7-2 .9l-5 1-1.4.8 1.4.4h1.6c.4 0 .7.2 1 .4-.4.2-.9.3-1 .7-1.1 1.7-4.5 0-4.7 3l-.3 1.2c.4 0 .8.2 1 0l4.5-2c.4-.2 1 .2 1.5.3l-.8 1.1c-1 .8-2.1 1.9-3.4 2.2-1.6.5-3.3.3-5 .4l.7-3.7c.1-.7-.2-1.6.2-2 1-1.4 2-2.8-.2-3.7-1.8-.8-4.8.8-5.4 2.4L27.1 30c-.1.4-.5.6-.7 1-.4-.6-1.3-1.2-1.2-1.6.4-1.4 1.2-2.7 1.8-4l1-2.7c-.8.3-1.5.5-2.3.6-.4.1-1 .2-1.4 0-.5-.2-.8-.7-1.2-1l1.2-.9c3.8-2 7.9-2.3 12.3-1.9zM225.4 109.2c0 1.5-1.2 4.3 2 2.4.5-.4 1-1.4 1.5-1.5 1.2-.1 2.4.2 3.6.3-.6.7-1.1 1.6-1.9 2.2-1 .9-2.1 1.7-3.3 2.3-3.6 1.6-5.5.4-5.3-3.5 0-3 .4-6.2 1-9.2.3-.8 2.2-2 2.8-1.8 3.5 1.6 7.3.7 10.9 1 .5 0 1 .7 1.4 1-.4.4-.9 1-1.3 1-3 .2-6.1 0-9.2.2-.5 0-1 .7-1.4 1 .5.4 1 1 1.4 1 1.7.4 3.4.5 5 .7-1.2 2-3.3 1.4-5.2 1.6-.6 0-1.1.7-2 1.3zM295.2 855.8c2.3 5.5 1 11 1.3 16.5 0 .5-1 1-1.5 1.5-.2-.6-.6-1.2-.6-1.7.3-2.1-.3-3.5-2.3-4.4-2.5-1.1-3.5.7-4.9 2l-.7.8-2.2 2.3c-.2-1.3-1-3-.5-3.8 2.5-3.4 2.4-8.3 6.3-10.8 1.6-1 3.2-1.8 5.1-2.4zm-.8 7.8v-1l-.3-3.6-3 2.5-.7.7c-1 1.5-.3 3 1.6 3 .8 0 1.6-.3 2.4-1.6zM114.5 909.3c1.5-1.7 5.1-2.9 6.9-2.3 4.9 1.5 7 6.4 4.6 11.3-1.2 2.2-3 4.2-5 6-1 1.1-2.5.6-3.6-.7-.7-1-.9-1.7.8-2.1 4.4-1 7-6.2 5.2-10.3-.9-2-3-1.5-4.7-1.7-2.1-.1-1.6 1.2-1.8 2.4l-1 7.6c-.1.4-.7.8-1 .8-.5 0-1.2-.4-1.1-.7 0-3.3.3-6.7.7-10.3zM94.2 916c.4-2 1.2-3.5 1-4.8-.5-3.3 2.2-3.9 4-4.7.7-.3 2.6 1.4 3.6 2.6 1 1 1.3 2.6 2 4l.7 1.8c.2-.6.6-1.1.6-1.7v-4.9c0-.3.7-.8 1-.8.4 0 1.1.5 1.1.7.1 4.2.2 8.3 0 12.4 0 .7-1 1.3-1.6 2-.5-.8-1.2-1.4-1.5-2.1l-4.4-10c-.6-1.4-1.6-1.5-2.1 0-.5 1.4-.9 2.9-1.1 4.4-.2 1.4 0 2.8-.4 4.1-.3 1-1.3 1.7-2 2.5-.3-1-.7-1.8-.8-2.7-.2-.7 0-1.5 0-2.7zM43.4 918.2c-1 1.8-1.8 3-2.7 4.3-.9-1.7-2-3.4-2.7-5.2-.6-2.1-.7-4.4-1.2-6.5 0-.5-.8-.8-1.2-1.2-.3.4-.8.7-.9 1-.4 2.4-.5 4.9-1.2 7.1-.3 1-1.6 1.8-2.5 2.7-.2-1.1-.7-2.4-.5-3.4.5-2.6 1-5.3 2.2-7.7.6-1.3 2.5-2.7 4-2.8 1.5 0 2.2 2 2.3 3.8l.5 4.6c.1.4.8.8 1.1 1.2l.6-1.4c.2-2.2-.8-4.7 1.7-6.3l1.1-.8c.2.4.4 1 .4 1.4.1 1 .5 2.6 0 3.1-1.7 1.8-.7 3.8-1 6.1zM200 65.4c-2 .3-4 0-5.6.4-.9.1-1.5 1.3-2.3 2 .6.6 1.2 1.7 1.6 1.6 2-.4 3.9-1.1 5.8-1.5.6-.1 1.2.4 1.8.6-.5.5-.9 1.2-1.5 1.5-2.2 1.1-4.4 2.4-6.7 3.2-1.8.5-3.7-.3-3.6-2.6.1-3.6.5-7.3 1.1-10.9.1-.6 1.6-1.4 2.5-1.5 2.3-.3 4.6-.2 7 0 .4 0 .8.7 1.2 1-.5.4-1 1-1.4 1-1.8.1-3.7-.1-5.4.1-.6.1-1.1 1.1-1.7 1.7.8.3 1 2.3 2.3.7 1 2.2 4.8-1.1 4.9 2.7zM136.4 111.1c0-4.2 1.2-7.5 2.7-10.7.5-1.2 1.5-1.4 2.2 0l3.8 7.5c.3.5 1 .7 1.4 1 .3-.4.7-.8.7-1.2-.2-1.8-.7-3.7-.7-5.6 0-1.2.6-2.4 1-3.6l1.8.5c-.4 3.8 1.1 7.7-.8 11.5-1.9 3.5-2.7 3.7-4.9.7-.8-1.2-1.2-2.8-1.8-4.1-.2-.5-.7-1-1-1.4-.4.5-1 .9-1 1.4-.2 1.4.2 3-.2 4.3-.7 2.2-2 2-3.2-.3zM155.6 897.4c-2.5.6-2-1.2-1.8-2.2 1-3.1 1.7-6.5 3.3-9.3 1-1.6 3.5-2.7 5.4-3.1.8-.2 2.3 2.2 3 3.6.5.8.5 2.3 0 3.2-1.5 3-.5 4.7 2.3 6 .3 0 .6.4.8.7-.5.4-1.2 1.3-1.4 1.2-2-1-4-2-5.6-3.4-3-2.6-3.4-2.6-4.6 1.3-.2.7-.7 1.2-1.4 2zm6.2-7.3c3.1 0 1-2.3 1.6-3.5l-1-.8c-.7.8-1.6 1.5-2.1 2.5-.2.4.3 1.2 1.5 1.8zM112.6 871.7c1.1-3.3 2.1-6 3.3-8.8.7-1.7 1.7-3.1 3.5-3.9 2-.8 3.4-.2 4 1.9.5 2 .8 4 1.1 6 .4 2.3 1 4.7 1 7 0 1-1 2.1-1.5 3.2-.5-1-1.2-2-1.6-3-.2-.4 0-1 0-1.6-.4-1-.7-2.7-1.2-2.8-1.8-.2-4-.7-5.2 1.4-.5.7-.8 1.5-1.2 2.2l-1.3 1.7c-.3-1-.6-1.8-.9-3.3zm5.4-7c.1 1.2-.6 3 1.8 2.7 1-.2 3 .7 2.5-1.5-.3-1.3 1.3-3.1-1-4-2.2-.6-2 1.2-3.3 2.8zM171.9 65.4c.2-1.5 0-2.8.3-4 .1-.5 1.2-1 1.8-1 .4-.1 1.3.7 1.3 1-.2 1.8-.7 3.6-1 5.4-.4 2.3.2 2 2.6 2.3 5.3.5 6-2.5 6-6.4.1-.6.6-1.2 1-1.8l.8-.6c.1.3.4.6.4 1 0 2.8.2 5.7-.1 8.5-.1.9-1.8 2.1-2.8 2.3-3.3.3-6.4-.2-9.5 2-1.5 1-3-.8-2.7-2.6.3-2 1-4 1.9-6.1zM206 178c-.8-4.6.8-8.4 1.8-12.4.4-1.8 1.3-2.8 3.3-2.6 2.2.3 5 .8 5.2 3.2.5 3.6 1 7.2-2.7 10.2-2.5 2.2-4.9 1.5-7.7 1.5zm8.3-6.8c-2.8-1.6-4.6 0-6.2 2-.4.5 0 1.6-.1 2.4.7 0 1.6 0 2.2-.4 1.4-.9 2.8-2 4.1-4zm0-4.4c-1-1.2-2.2-2.1-3.9-1.4-.3.1-.3.9-.4 1.3 1.3.2 2.5.5 4.3.1zM219.7 862c.4-1 .9-1.3 1-1.7.5-.9.7-2.5 1-2.5 2.3 0 1 1.7 1.3 2.7.3 1-.8 2.7 1.5 2.6 1.9-.2 4 .5 5-2 .4-1 .8-2.1 1.4-3.1.1-.3 1-.4 1.3-.2.4.2.6 1 .5 1.4-2 4.4-.8 9.2-2.2 13.6l-.8 2.2c-.5-.8-1.2-1.5-1.3-2.3v-4.9c.2-2.3-.3-3-2.1-2.6-3.6.7-4.7 2-5.5 5.8-.2.7-.8 1.2-1.2 1.8-.3-.7-1-1.4-.9-2 .2-2.8.7-5.5 1-8.8zM48.8 918.2c-1.1-4.8 2.6-7.3 3.8-10.8.2-.5 1.1-1 1.7-1 1 0 2 .2 3 .4-.6.6-1.1 1.2-1.8 1.7a14 14 0 00-4.5 8.4c-.5 2.7.6 3.4 3.4 2.4a13 13 0 003.8-2.5c1.6-1.3 3-3-.8-2.9-.3 0-.6-.3-1-.4.4-.4.6-.9 1-1.1 1.2-.8 4.2.2 4.3 1.6.2 2.9.1 5.7 0 8.6 0 .4-.5.7-.8 1-.5-.3-1-.7-1.2-1.2-.3-.6 0-1.4-.2-2.1 0-.2-1-.4-1-.2a8.3 8.3 0 01-6 2.5c-2.8 0-4-1.1-3.7-4.4zM207 101.6c1.9-.4 3.5-.7 5-.8.4 0 .8.7 1.2 1l-1.3.7c-2 1-4 1.8-5.6 3.3-1.2 1.1-1.3 2.9.5 4.3 1.9 1.4 3.3-.6 5-.3-.4-.6-.7-1.3-1.2-1.9l-1.5-.8c.5-.4 1.2-1.4 1.5-1.3 2 .6 4 1.2 5.4 2.4.6.5 0 2.9-.7 4.1-.6 1.3-.8 4.7-3.6 1.3-.6-.7-2.7-.5-4-.3-2.7.4-4.5-1-5.1-3-.6-1.8-.8-4.2 1.5-5.7 1-.7 1.8-1.8 3-3zM187.3 107.9c.3-1.7.6-2.9 1-3.9.7-1.2-1.6-3.7 1.5-3.7 2.3 0 4.7 2.5 5 4.6.2 1 0 2.2.1 3.2 0 .4.7.8 1 .8.4 0 1-.6 1-.9.2-1.8 0-3.6.2-5.4 0-.8.7-1.5 1.1-2.3.3.8 1 1.7 1 2.6L198 112c0 .5-1.2 1.1-1.8 1-.8 0-2.1-.4-2.3-1-.7-1.7-.8-3.6-1.2-5.4-.2-.7-.6-1.4-1-2-.3.7-1 1.4-1.1 2.2-.6 2-.8 4-1.4 6-.1.4-1.2.7-1.8 1-.4-.7-1.2-1.5-1.1-2.2 0-1 .6-2.2 1-3.8zM94 893.6c-2.3-.4-3.7 0-4.1 2.3-.2.8-.7 1.5-1 2.3l-.8 1.5c-.5-.5-1.3-1-1.4-1.6-.1-.7.1-1.6.4-2.4 1.3-3.8 2.5-7.6 4-11.3.3-.8 1.5-1.8 2.2-1.7.7 0 1.4 1.3 2 2 .2.3 0 .8 0 1.1 1 5.2 1 5.2 6.3 5.4.8 0 1.5.4 2.3.6l-2.2 1.2c-.3.1-.7.4-1 .3-3.5-.5-4.5 1-3.2 4.3v1l-1.3 1.3c-.3-.4-.8-.7-.9-1-.4-1.7-.7-3.4-1.3-5.3zm-.3-6.7c-3.1.2-1 2.6-1.6 3.9-.1.3.2.9.4 1.4.5-.5 1.3-.8 1.4-1.3.3-1.1.2-2.3-.2-4zM265.4 29.7c-2-5.1.9-10.4 5.4-10.5.7 0 1.3.3 2 .5l-1.2 1.1c-.6.4-1.3.4-1.8.8-1.8 1.4-3.2 3.2-2.4 5.5.8 2.4 3.2 1.8 5 1.7.5 0 1-.7 1.4-1l-1.4-1-1.8-1.3 2-1c.8-.2 1.6-.5 2.5-.6h2.9c-.3.7-.7 1.4-.8 2.2l-1.2 8.1c-.1.4-.5.8-.8 1.2-.5-.4-1.3-.8-1.3-1.1 0-1.6-.3-2.4-2-2.2-2.4.3-4.5-.3-6.5-2.4zM63.7 892.6c.7.4 1.3.5 1.6.8.4.4.5 1 .7 1.6-.4.2-1 .6-1.4.5-3.6-.7-7.2-1.5-10.9-2-.5-.2-1.1.3-1.7.6l-1.6 1.4c-.2-.6-.7-1.4-.5-1.9 1.6-3.3-.1-7.9 4.5-10 2-1 3.9-1.1 6-.9-.3 2-.5 4-1 5.9 0 .4-.8.7-1 1.1l-.8 2.2 2 .4c1.3 0 2.5 0 4 .3zm-9.5-4.1l.7 1.4c.8-.8 1.7-1.4 2.3-2.3.5-.7.7-1.7 1.1-2.6-.9.3-1.8.5-2.6 1-.6.3-1 1-1.5 2.5zM163.5 105.7c-.8 4.4-6 9-9.4 8.5-1-.1-2.5-1.8-2.4-2.5.4-3.4 1.3-6.6 2-10 .4-1.8 1.3-2.7 3.3-2.5 3.7.3 5.8 2.4 6.5 6.5zm-4.9-4.3c-.9.6-2.5 1.2-2.6 2-.3 2 0 4.2.1 6.3.6 0 1.4.2 1.8-.1 2.8-1.9 3-3.7.7-8.2zM272.7 168.4c-2 1.1-4.2 1.6-6.3 2.3-.5.1-1 .7-1.2 1.2v2.6l2.7-.7c.3 0 .5-.7.8-.7l4 .1-2.8 2-4.5 2.2c-2 1-3.5.3-3.4-1.8.1-3.6.5-7.2 1.1-10.8.2-.7 1.9-1.6 3-1.7 2.4-.2 5 0 7.5 0 .4 0 .8.3 1.3.5-.4.4-.7 1-1.2 1.1-1.1.3-2.4.4-3.6.5-1.2.1-2.4 0-3.6.4-.5 0-.7 1-1.1 1.4.6.3 1.2.9 1.9 1 1.8 0 3.6 0 5.4.4zM25 65.7c-.4.9-.7 1.4-1.2 1.6-.2 0-.7-.4-1-.7-2.1-3.1-.6-6.6-1-9.9 0-.2.3-.5.5-.7.4.3 1 .7 1.1 1.1.5 1.3.8 2.7 1.2 4 .8-1 1.4-2.3 2.3-3.3 1.4-1.4 2.8-1 4 .3 1 1 1 1 1.7-.5l.3-.4 2.6-2c.1 1 .5 2 .3 3-.6 2.7-1.3 5.3-2.2 7.8-.5 1.3-1.3 2.1-3 .6-2-1.8-1-4-1.3-6 0-.5-.3-1-.5-1.4-.4.4-.9.7-1.1 1.1-1 1.6-1.8 3.2-2.7 5.4zM310.9 859l.6-.6 3.4-1.3c-.3 1-.5 2.2-1 3.2-1.6 3.2-3.4 6.2-5 9.3l-2.2 5.5c-.3.7-.8 1.2-1.1 1.8l-1.5-2v-.6c2.6-5-.7-8.5-2.8-12.4-.2-.5-.4-1-.4-1.5s.2-1 .3-1.4c.4.2.9.3 1.1.7 1 1.3 2 2.8 3.1 4 1.9 2.2 2 2.1 3-.5l2.5-4.2zM194.8 48.4c1-.4 1.4-1.1 1.7-1 1.3 0 2.5.5 3.8.8-1 .8-2 1.7-3 2.3-1 .5-2.2.8-3.3 1-3.4.8-6.4-2.2-5.6-5.5.4-1.6 2-3.1 1.9-4.5-.4-4.5 2.4-4.3 5.2-4 2 .3 3.8 1 5.8 1.6l-5.7 1.7h-1l-2 1.1 2 1c.7.2 1.5 0 2.2 0 .4.1.8.5 1.2.7l-1.4.4c-1.1.4-2.2 1-3.3 1-1.6 0-1.7.7-1.7 2 0 2.3 1.7 1 3.2 1.4zM199 150.9c-1.6 1.8-1 2.7.8 2.3 1.8-.3 3.4-1.3 5.2-1.8.5-.2 1.1.2 1.8.3-.3.6-.4 1.6-.9 1.8-2.8 1.1-5.6 2.4-8.5 3-1.7.3-2.8-1.3-2.5-3.2.3-1.8.8-3.6 1.5-5.3 1.9-5 5.1-6.7 10.5-5.5.3 0 .6.3.9.4-.3.3-.5.6-.7.6h-1l-5.7 2.9 5.8.4h1.6c.3 0 .6.2 1 .4l-1 .7c-1.5.4-3 1-4.4 1-1.7.1-3.2.1-4.5 2zM112.3 865c-.8 3.4-3.9 4.4-6 5.4-2 .9-3.6 1.1-3.5 3.6 0 .3-.6.7-.9 1-.4-.5-1.2-1-1.1-1.3.2-4.7.5-9.4 1-14 .3-2 5.4-3.2 7.4-1.6s4.3 3.3 3.1 6.9zm-3-3.6c-1-1.2-2.3-2.5-3.9-1.3-.9.7-1.1 2.4-1.4 3.6-.2 1.2-.2 2.5 0 3.7 0 .4 1 1.1 1.4 1 2.2-.5 4.4-3.8 4-7zM211.9 907.7c1 3.2 2.7 6.4 2 9-.6 1.9.7 2.7.4 4-.3 1.3-.9 2.6-1.4 3.8-.6-1-1.3-2-1.8-3.1-.2-.6.1-1.4 0-2.1-.2-.8-.6-1.4-1-2.1-.7.4-1.5.8-2 1.4-1 1.2-1.7 2.6-2.5 4-.4-1.8-.9-3.5-1-5.3 0-1 .6-1.9 1-2.8.7-1.5 1.8-3 2.2-4.5.5-2.3 1.9-2.7 4-2.3zm.3 4.6c-2.2-1.5-2.8.4-3.2 1.8-.1.4 1 1.3 1.5 2 .4-1.1.7-2.2 1.7-3.8zM194.8 922.6c-.2 1.4-.5 2.3-.8 3.2l-1.4-1.6c-2-2.2-.8-4.8-1-7.2 0-2.1.7-4.4 1.1-6.5.3-1.3.6-3.5 1.3-3.6 2-.5 4.4-.8 6 0 3.5 1.6 3.1 9.6-.2 11.2-.7.3-1.7 0-2.5-.1.2-.8.2-1.8.6-2.2 1.6-1.5 2.3-2.6 1.5-5.2-.6-2.5-1.7-2-3.2-2-2.3-.1-1.3 1.7-1.3 2.7v11.3zM242.5 72.2c-1.6-2-1.3-3.6-.7-5.3.2-.6.7-1.6.5-1.8-2.7-3 .9-3.9 2-4.7 2-1.3 5.4.6 6.9 2.5 1 1.1.4 1.5 0 2.4-.6 1.4-1 2.9-1.1 4.4-.6 4.3-3.9 5.6-7.6 2.5zm3.7-6.5c.9-.5 1.8-1 2.5-1.6.1 0-.5-1.5-1-1.6-2.4-.7-3 .1-1.5 3.2zm1.7 4.8c1.8-1.5.7-1.7-.8-1.6-.9.2-2.3.6-2.4 1 0 2 1.7.8 3.2.6zM257.9 921.8c-1.2 2.1-1.2 4.5-4 5.2-2.7.6-4.7-.2-5-2.7-.1-2.7-.4-5.5.1-8 .8-3.7 4-7 8-4.5.8.6 1.5 2 1.6 3 .1 2.2-.3 4.4-.7 7zm-6.8-.8v2.1c0 2 .8 2.2 2.2 1 2.4-2 3.2-4.8 3.1-7.7 0-.9-.9-1.9-1.7-2.4-.3-.2-1.7.5-2 1.2-.7 1.4-1 3-1.6 5.8zM140.8 28.9c.3-1.8.8-3.1 1-4.4.4-2.9 1-3.2 4.8-3.2 2.6 0 4.1.6 3.9 3.5v2.1c-.3 1.9 0 4.5-1 5.4-2.1 1.8-4.7 3.4-7.9 3.1-2-.1-2.7-.4-1.3-2.4.6-.9.3-2.4.4-4.1zm7.5 1.6c.4-.7 1.2-1.7 1-2.2-.5-.9-5.3-.2-6 1-.5.5-.4 1.6-.2 2.4.1.3 1.3.5 1.9.4 1-.2 1.9-.7 3.3-1.6zM144 24c-.9 3.8 1.6 1.7 2.9 1.6.5 0 1-.6 1.4-1-.5-.3-1-.9-1.7-1-.6-.3-1.4-.1-2.6.4zM146.2 914v4.2c0 3.7.9 4.3 4.3 2.7 1.8-.8 3.4-2 5.2-3 .3-.2.7-.2 1.1-.3 0 .4.2 1.2 0 1.4-2.6 2-5.2 4-8 5.6-1.5 1-5.7-1.3-5.8-3-.4-5-.3-10 3.5-14 1.5-1.6 3-2 4.5-.2.7.7.6.5-1.1 1.2-2 .9-3.5 2.4-3.7 5.3zM28.2 883.6c-1 .4-1.8.6-2.2 1.1-.5.6-1 1.4-1 2 .2.5 1.1 1 1.8 1.2 2.1.5 4.3.8 6.5 1.1l1.4.5c-.5.2-.9.6-1.3.6H28c-3.6.1-4 .5-4.1 3.9v2.6c-.1.4-.6.7-.9 1-.4-.3-1.2-.7-1.2-1.1-.1-2-.5-4 0-5.9.6-2.1 1.6-4 0-6.2-.2-.3 1.3-2.7 2.2-2.8 3.9-.3 7.8-.2 11.8-.1.3 0 .7.5 1 .8-.3.4-.6 1.2-1 1.3h-7.6zM82.3 917.2l4.3-10.7c.5-1.5 1-1.4 2.1-.8 2 1 3.2 2.3 3.3 4.5.2 4.2-.3 8.4 1 12.5.3.5-.5 1.3-.8 2-.4-.6-1.3-1.3-1.1-1.7.6-2.1-3-4-.3-6.2-.3-.2-.6-.6-1-.7-2.4-.5-4.5 0-5.2 2.7-.3 1.2-.5 2.1-1.8 1.4-.5-.3-.4-1.6-.5-3zm4.4-3.8l1.8 1.4c.5-1 1.2-2 1.3-3.1.1-1-.3-3-.8-3-2.2-.4-.9 1.6-1.3 2.5-.2.4-.7.7-1 2.2zM134.3 869.6c.2 1.4.5 2.3.8 3.2.4-.6 1-1 1.3-1.7 1.6-3 3-6 4.7-8.9.3-.5 1-.7 1.5-1 .1.6.4 1.3.3 2a25.7 25.7 0 01-6.2 12c-1.7 1.6-3.8 1.1-4.6-1-1.6-4.5-1-9.1-1-13.7 0-.2.7-.7 1.1-.6.4 0 .9.6 1 1 .4 2.6.7 5.4 1 8.7zM214.6 887.1l.6-.6 3.7-4c1 1.7 2.6 3.3 2.9 5.1.4 3.6.1 7.2 0 10.8 0 .5-.6 1-1 1.5-.3-.5-.8-.9-1-1.4-.2-.3 0-.7 0-1-.3-1.4 2-3.8-.8-3.9-1.2 0-4.8-.6-4.8 3 0 .6-1.2 1.3-1.8 1.9-.8-1-1.8-1.4-.8-3 1.3-2.5 1.8-5.4 3-8.4zm3-.8c-.4 1.7-.8 3.3-1 5 0 .3 1.2 1 1.3 1 .7-.8 1.8-1.7 1.7-2.4-.2-1.4 1.6-3.8-2-3.6zM290 893.4v-1.7c1.3-4.6 1.3-4.5-3.5-4.9-.6 0-1.2-.4-1.8-.6.4-.3.8-1 1.2-1 4.8.1 9.6-3.5 14.6-.5l1.4.5-1.2.6c-1.1.4-2.2.8-3.3 1-4 .8-3.8.8-4.2 5-.3 3.4-1.3 6.9-2.1 10.3 0 .2-1 .4-1.2.3-1.1-1.4-2.2-2.7-1-4.7.7-1 .8-2.5 1.2-4.3zM237.9 155.2c-.9 0-1.9-.4-1.9-.6.3-1.6.3-3.5 1.1-4.9 1.5-2.6 3.4-5 5.2-7.5.2-.3 1-.2 1.4 0 .4.2.9.8.9 1.2.1 3.4 1.6 5 5.1 4.5.4 0 1 .7 1.4 1-.3.4-.6 1.1-.8 1.1-3.5-.7-3.9 1.2-3.6 4 0 .4-.5 1-.8 1.5l-1.3-1.8v-.5L243 150l-2.7 2.5c-.8.7-1.5 1.5-2.4 2.6zM200.3 79.7c2.6 4.1 2 8.6 2 13 0 .3-.4.7-.6 1.1l-1.4-1v-.6c-.9-1-1.5-2.2-2.6-2.7-1.7-.8-1.5 1.3-2.2 2-.8.7-2.2 2-2.6 1.8-1.5-.8-1.7-2.2-.7-4 2-3.6 3.1-7.8 8-9.6zm-1.1 7l.6-2.5c-.6.3-1.5.7-1.6 1.1 0 .6-2.9 2.2 1 1.5zM302 145.7v8.6c0 .4-.6.8-.8 1.2-.5-.4-1-.7-1.4-1.2v-1l-.9-3.2c-.7.8-1.3 1.7-2.1 2.4-1.3 1-3 3-4 2.7-2.4-.6-1.6-3.2-1.7-5V148c-.2-2 .4-5 1.9-5 2 0 1.3 2.8 1.4 4.5 0 .5-.1 1.1 0 1.6.2.4.6.9 1 .9s.9-.4 1.1-.7c1.3-1.8 2.2-4 3.7-5.4 1-1 2-.2 1.8 1.8zM78.8 69.7C75 68 75 68 75.8 64c.2-1-.1-2.1 0-3.2.4-2.3 1.2-4.2 4.2-3.8 1.8.2 3.6 0 5.4 0 .4 0 .8.4 1.2.6l-1.4.5c-.8.3-1.5 1-2.3 1-1.5.1-3.1 0-3.6 2l4-.2c.5 0 1-.7 1.3-.6.8.2 1.4.6 2 1-.4.4-.8 1-1.3 1-1.6.5-3.3.7-4.9 1.3-.8.3-2 1.5-1.8 2 .4 1.3 1.2.6 2.3.2 1-.4 2.4.5 3.6.8-1 .8-2 1.7-3 2.3-.7.4-1.6.4-2.7.8zM184 172.8c2-.2 2.9.8 1.9 1.7-1.3 1.2-3 2-4.8 2.6-3 1-5.2-1.1-4.6-4.4.3-2 .4-4 1.1-6 .4-1 1.6-2.3 2.6-2.5 2.2-.3 4.6-.1 7 0 .3 0 .7.4 1 .6l-1.4.4c-1.8.4-3.7.6-5.5 1.1-.6.2-1 1-1.5 1.5.6.2 1.1.7 1.7.6l5-.8 1.8.3c-.4.5-.7 1.3-1.3 1.6-1.2.5-2.6.8-3.8 1.1-.8.2-1.8.2-2.4.7-.6.4-.7 1.4-1 2.1.7.2 1.4.5 2 .4.6-.1 1.1-.7 2.2-1zM167.8 43l2.6 6.4 1.7-6.7c.2-.7.2-1.5.7-2 .5-.4 1.4-.6 2.1-1 .2.7.6 1.5.4 2-.6 2.8-1.4 5.6-2.1 8.3-.3 1 1 2.7-1.4 2.7-1.8 0-3.6 0-4-2.3l-1-3.9-.6-1.4-.6 1.4c-1 2.1-1.8 4.2-2.9 6.3-.1.4-.7.5-1 .7-.2-.3-.4-.6-.4-.9.5-3.9 1.4-7.6 3.8-10.8 1.5-1.9 1.9.2 2.7 1.1zM183 156.5c-1 0-2-.1-2-.3-.8-3.5 0-6.9 1.1-10.1.8-2.1 5.8-3.4 8-2.4.3.2.7.5.7.8.5 2.5 1.5 5 1.3 7.6-.2 2.2-1.9 3.9-4.8 3.5-1.2-.2-2.5.6-4.4 1zm2.7-3.2c.8-.1 1.8 0 2.5-.4.9-.5 1.5-1.4 2.3-2.2l-2.9-.6-2.4-.5 1.9-1.7 1.7-1 .5-.8-1-.4c-2.2-.6-4.2.6-4.8 2.4-.6 1.8.1 4.2.2 6.3.5-.2 1-.4 2-1.1zM104 70c-1.8-.5-3-1-4.3-1.5-.5-.2-1.3-.7-1.8-.5-2.7.8-2.9.8-2.6-2.3.2-2 .3-4.2 1.2-6 .7-1.2 2-3.3 4.1-2.6 1.2.3 2.9 1 3.2 1.9.7 1.6.2 3.5-1.5 4.6l-1.3 1-1.3.5 1.3.6c2.2.7 4.4 1.3 6.6 2.2.7.2 1 1.1 1.6 1.7l-2 .4H104zm-2.7-7.6c.1-.4.6-1 .4-1.4-.2-.6-.8-1.8-1-1.7-1.6.3-2.4 1.4-2.1 3 .2 1.7 1.1 1.4 2.7.1zM256.8 26.4c.8 0 1.8-.2 1.8-.5.2-1.3-.2-2.6.2-3.8.3-1 1.7-3 2.1-2.8 1.8.6.9 2 .4 3.2-.7 2.3-.9 4.7-1.6 7-.3 1-1.3 1.7-2 2.6-.5-.7-1.3-1.3-1.6-2.1-.7-1.7-1.1-3.5-1.8-5.2-.2-.5-.7-.9-1-1.3-.4.4-1 .9-1 1.4-.5 1.6-.7 3.3-1.2 5-.3.7-1.2 1.3-1.8 2-.5-.7-1.5-1.5-1.3-2 1-3.2 2.1-6.3 3.5-9.3.1-.3 2-.3 2.7.1 2 1.2 2.7 3.2 2.6 5.7zM105.3 944c3.9-.2 3-4.2 5.1-5.8.3-.2-.1-1.4 0-1.5 1.5-.8.2-3.7 2.6-3.1.4 0 .4 2.7.1 4-.5 2-1.7 3.7-2.1 5.6-.6 2.7-3.1 4.2-4.7 4-1.7-.3-3.7-2.7-4.2-4.6-.8-2.6-.4-5.7-.2-8.5 0-.7 1.5-1.2 2.3-1.8.3.7.8 1.5.8 2.2.1 3 0 6.1.3 9.4zM177.8 101.6c1.8-2 4-2 4.6 0 .7 2.6 3.2 5 1.6 8.1v1l-1.3 4.4c-.6-1.1-1.2-2.3-2-3.4-1.3-2.3-2.4-2.2-4.3.1-.4.6-1 1-1.5 1.5-.2-.7-.7-1.4-.6-2 .9-2.6 2-5.3 2.8-8l.7-1.7zm.8 4.6l.3 2.5c.7-.4 1.5-.8 1.8-1.4.3-.6.2-1.4 0-2 0-.6-.4-1.1-.6-1.6-.5.5-1 1-1.5 2.5zM154.8 23.5c2.2-3.3 7.1-4.4 9.9-2.6.3.2.5.8.7 1.1-.3.2-.6.4-.9.4-1.4 0-3-.2-4.3 0-1.1.3-2.1 1-3.1 1.6-.2 0-.3.8 0 1 .2.3.8.7 1.2.6 1-.2 1.8-.8 2.8-1 .4 0 .9.4 1.3.6-.3.5-.5 1.2-1 1.5-1.7 1-3.6 1.6-5.3 2.7-.4.2 0 1.6 0 2.4.6-.3 1-.8 1.6-.9l6-1c.3 0 .6.5.8.7-.3.2-.5.6-.8.7-1.7.7-3.4 1.2-5.1 2-4.5 1.9-5 1.7-4.8-2.7 0-2.2.7-4.4 1-7.1zM154.8 150c-1.3-1.6-2.4-1.1-3.7-.2-.4.3-1.7-.7-2.5-1.1l2-1.9h1c2.3.5 5-1.2 7 1.2l-4 4.9-1 1.1-.7 1.2c.5 0 1 .3 1.5.2 1.3-.2 2.5-.9 3.8-1 1 0 2 .7 3.1 1-.8.7-1.6 1.6-2.6 2-.9.4-2 .1-3 .2-2 .3-3.8.8-5.6.9-.8 0-2-.6-2.5-1.2-.3-.3 0-1.7.6-2.1 2-1.6 4.4-3 6.6-5.1zM27.1 85.4c1-.3 1.9-.5 2.7-.2 1.3.4 3 1.8 3.7 1.5 1-.7 1.6-2.5 2.3-3.8l3.1-5.7c.6-.9 1.7-1.5 2.3.2l3.2 10c.2.5-.5 1.3-.8 2-.4-.5-1-1-1.3-1.6-.8-1.7-2.6-2.2-4.4-1-5.6 3.7-5.7 3.7-10.8-1.4zm14.1-1.9c0-.5.1-1 0-1.6-.2-.7-.4-2-.8-2-1.8-.4-1.2 1-1.4 2 0 .5-.8 1-.7 1.3.4 1.1.8 2.8 3 .3zM143.2 90.8c-1.3.5-2.3.8-3.3.8-3-.1-3.7-.8-3.4-3.9a32 32 0 011.1-7c.4-1.3 1-2.8 3.5-1.4 2 1.1 5.3.5 6.1 3.7.9 3.3-1.2 5.3-3.4 7.2l-.6.6zm-3-9c-.2 1.3-.8 2.7-.4 3.6.6 1.3-2.4 2.6-.1 3.3.8.3 2.4-1.2 3.3-2.1.6-.7.8-1.8 1-2.8.5-2.5-1.4-1.8-3.8-2zM124.8 83.2l-1.4 4.7c-.3 1-1 1.7-1.5 2.6-.2-1-.6-2-.6-2.9 0-1.8-.2-3.6 0-5.4.3-2.5 2.5-3.3 4.6-1.6l3.8 3.2 1.3-4.9c.2-.5.8-.9 1.1-1.3.4.4 1 1 1 1.4-.2 3-.6 5.8-1 8.7-.2.7-.8 1.5-1.3 1.7-1 .3-1.6 0-2.1-1.5-.6-1.8-2.4-3.3-4-4.7zM44.2 865c1-2.2 1.9-4 2.4-6 .7-2.8 2.8-1.6 3.3-.6 2 4 3.8 8.1 3.2 12.8-.1.5-1 1-1.5 1.5l-.7-1.7c-.3-.8-.6-2.4-1-2.4-1.6 0-3.6-1-4.9 1-.5.7-.7 1.5-1.2 2.2-.4.6-1 1-1.5 1.6-.4-1-1.2-2-1-2.8.6-1.9 1.7-3.6 2.9-5.6zm5.1 1.3l.5-5.6c0-.3-.6-.7-1-.8-.2-.1-.8 0-.8.3l-1.3 6.8c.5-.2 1-.5 2.6-.7zM22.5 109.8c-2.6-1.4-2-3.7-1.6-6l.8-3.4c.5-1.5-1.2-3.7 1.3-4.4 2.9-.8 7.8 1 8.5 2.7.6 1.5-.7 5.4-2.4 6.6-2 1.5-4.2 2.8-6.6 4.5zM25 98.7c-.4 1.2-.9 2.5-1 3.8-.1.7.4 1.4.7 2.1.6-.3 1.3-.5 1.7-1 .9-.6 1.6-1.4 2.3-2.2.8-.9 1.2-1.7-.4-2.2-1-.3-1.9-.7-3.3-.5zM159.1 919.3c-.2-4.7.7-8.4 4.2-11.1 2-1.6 4.1-.7 4.5 1.8.6 3.9-.7 7.4-2.2 10.8-1 2.6-3.6 1.8-5.6 1.7-.3 0-.6-1.7-.9-3.2zm3.3-7c-.4 2.3-.8 4.7-1 7 0 .4.4 1 .8 1 .4.1 1.1-.2 1.2-.5.8-2.4 1.6-4.7 2.2-7.2 0-.5-.6-1.3-1-2l-2.2 1.7zM278.2 48.4l-.4-3.1c-.6.5-1.4 1-1.8 1.6-.8 1.7-1.3 3.4-2 5l-.8.7c-.1-.3-.4-.6-.4-.9-.5-2 1.6-8.2 3.3-9.4 1.5-1 3.8-.3 4.2 1.5.2 1-.2 2.2 0 3.2.3 1.1 1 2.2 1.4 3.2a45.8 45.8 0 013.1-7.8c.1-.3 1.1-.2 1.7-.3.1.5.3 1 .2 1.5-.6 1.7-1.5 3.4-1.8 5.1-.4 2.3-.6 4.1-3.6 4-2.8 0-2.5-2.2-3.1-4.3zM106.4 104.3c3.2 4.5 2.7 5.8-2.1 6.8-1.5.3-3 2-4.5 0-.5-.7-1.3-1.6-1.2-2.3.4-1.7 1.4-1 2.3-.3.2.2.6.5.9.4l3.2-.8-1.7-2.4h-.5c-2-1.4-3.7-4.6-3.1-6 .7-1.6 6-3.4 8-2.6.3.1.5.8.6 1.3 0 .2-.4.8-.6.8-1 0-2.2-.2-3.2 0-.7.3-1 1.3-1.6 2l1.7 1.4 1.8 1.7zM150.8 175.2c-.7 1.9-1.3 4.4-2.8 3.8-1.5-.5-1.1-2.7 0-4.4 1.5-2 2.3-4.5 3.6-6.7.6-1 1.8-2.6 2.5-2.5 1.4.3 3.3 1.3 3.7 2.4.8 3 1 6.1 1.3 9.2 0 .7-1 1.4-1.4 2-.2-.6-.6-1.3-.7-2-.6-3.5-1.7-4-6.2-1.8zm5.1-4V168c0-.2-1.2-.6-1.2-.6l-2 3.6c.9.2 1.8.5 3.2.2zM301.7 82.7c2.4-.8 4.5-1.4 6.6-1.8.3 0 .8.7 1.2 1.1-.3.3-.6.8-1 1l-3.2 1c-1.6.9-1.6 1.1 0 2.2 2.5 1.7 5.5 3.6 4 7-1.2 3-4.7 1.3-7.2 1.7-.5 0-1.2.2-1.6 0-.6-.5-1.3-1.2-1.5-1.8-.1-.3.9-1.3 1.4-1.4 1.5-.2 3 0 4.3 0l2.6-.5-1.8-1.7c-1.3-1.1-2.9-2-4-3.3-.5-.7 0-2.1.2-3.5zM300 909.9c-1.6.2-3 .2-4.5.2 1.3-.9 2.4-2.2 3.8-2.6a43 43 0 018.1-1c.7-.1 1.4.9 2 1.4-.6.6-1.3 1.7-1.8 1.6-4.3-1-3.3 2.1-3.5 4.4-.3 3.3-.6 6.6-1.1 9.8-.1.8-1 1.4-1.5 2-.2-.7-.6-1.5-.6-2.3.4-4.3-1-8.8 1-13 0 0-1-.5-1.8-.5zM237.9 81.6c1.2-1 2.8-1.1 2.3.3-1.6 4.6-2.8 9.4-6.1 13.2-.3.3-1.2.4-1.5.1-.3-.2-.5-1-.4-1.4 1-3.3 1-6.2-2-8.5a5 5 0 01-1.5-2.6c-.2-1 .1-2 .2-3l1.8 1.8 1.2 1.2c3.5 3.9 3.5 3.9 6-1zM125.6 101.4c3.4-3 3.4-3 4.3.6.2.5.2 1.3.5 1.4 3.5 1.7 1.6 4.6 1.6 7 0 .6-.8 1.2-1.2 1.8l-.9-1.6c-.3-1 1-2.8-1.3-2.7-1.5 0-3-.4-3.5 2-.3 1.3-2.1 2.2-3.2 3.4-2-2 .3-3.5.8-5 .6-2.3 1.9-4.3 2.9-7zm3.2 2.7l-.2-1.4-1.7 1.6c.5.1 1 .2 2-.2zM141.8 892.3c.4-1.7.5-3.2 1.2-3.7 1.1-.9.4-3.3 3-3 2.3.3 3.6 1.6 4.4 3.2 1.1 2.3-2.2 9.7-4.6 10.9-1.5.8-3.7-.3-4-2v-5.4zm4.4-2.7l-2.2 6c0 .3.3.9.5 1 .5 0 1.3 0 1.4-.3.9-2.2 1.7-4.4 2.3-6.6 0-.2-1.3-.8-2-.1zM230.6 71c-1 1.4-2.5 1.6-2.1 0a63 63 0 013.8-10.8c.8-1.7 2.6-1.5 4-.1 3.3 3.1 2.9 7.2 2.9 11.2 0 .3-.3.6-.5.8l-.8-.7c-3.3-3.2-3.9-3.3-7.3-.3zm5.4-7l-.4-2.4c-.6.4-1.3.8-1.8 1.4-.5.6-.8 1.4-1 2.1-.2.4 0 1.1.3 1.4.3.2 1 .3 1.4 0 .5-.3 1-.9 1.5-2.5zM206 31.9c-.7-1.2-1.5-2.3-1.3-3 .8-3.1 1.9-6 3-9 .2-.4 1.2-.5 1.8-.7l-.5 1.5v.5l.6 3.4c1.2-.6 2.5-1 3.6-1.7.6-.5.7-1.5 1.2-2.2.3-.3 1-.3 1.4-.5l-.2 1.4a19 19 0 01-2.4 9.2l-1.1 1.3c-.4-.6-1-1.4-1-2 .3-1.2 1.6-2.5-.4-3.2-1.8-.6-2.4.8-2.9 2.1-.4 1.1-1 2.1-1.9 2.9zM216.2 858l2.1 1c-.4.6-.7 1.3-1.3 1.8-.3.3-1 .2-1.5 0-2-.3-2.2.7-2.3 2.5A113 113 0 01212 874c-.1.7-1 1.3-1.6 1.9l-1.5-1.5c2.5-2.8-.2-6.5 1.7-9.5 1.2-2 .5-3.4-2.1-3h-2.2c-.3 0-.7-.5-.7-.7 0-.4.1-1.1.5-1.3.8-.6 1.7-1 2.7-1.2 2.3-.5 4.7-.8 7.3-.9zM36.9 891.2c.7-2.2 1.5-3.9 2.1-5.6.8-2.2 2.7-2.2 4.4-2 1.9.4 2.4 2 2.1 3.7-.8 4-1.2 8.2-5.4 10.4-1.7.9-1.8 1-2.4-.9-.5-1.6-.6-3.4-.8-5.6zm6-2.2c0-1 .2-1.9.3-2.9-.8.6-1.7 1-2.2 1.6-.8 1.2-1.5 2.6-1.8 4-.3 1.1 0 2.4.1 3.6.8-1 1.7-1.8 2.2-2.9.5-.8.6-1.9 1.3-3.4zM162.4 173.9c.3-1.3.9-2 1-2.8.7-4 2.3-5.5 6-6 1.6 0 2.2.4 3.1 1.9 1.3 2-.8 1.9-1.2 2.7-.2.5-1.2.5-1.7 1-1 .8-1.3 1.6.3 2l1.3.8 2.8 2.3c-1.4-.1-2.7 0-4-.4-1-.2-2-.8-2.6-1.5-1.5-1.5-1.9-1.2-1.8.8 0 .4-.3 1-.5 1.4l-1.2 2c-.5-.7-1.1-1.3-1.5-2.1-.2-.4 0-1 0-2.1zm7-4.4c.6-.6 1.2-1.3 1.6-2 .1-.2-.4-.7-.6-1-1.2 1-2.5 2-3.7 3.2.3.2.6.6.9.5.2 0 .5-.4 1.8-.7zM30.7 869.8c-.6 1.3-.8 2.3-1 3.2l-.8.8c-.2-.4-.7-.8-.6-1.1.3-2.2 1.4-4.7.8-6.5-.5-1.5-3.1-2.2-4.8-3.3-.2-.1-.3-.5-.4-.8-.3-1.5-1-4-.6-4.1 2.5-1.2 1.5 2 2.7 2.6 1 .5 1.8 2.1 2.8 2.4 2.3.5 2.2-2.1 2.5-3.1.6-1.8 1.4-4.7 2.5-4.2 2.4 1.2.5 3.5-.2 5.3-.9 2.8-1.8 5.7-3 8.8zM25.3 48c-2.7-3.2-1.1-6.7-1.2-10 0-.9 1.8-3.2 4.2-1.6.3.3 1 .1 1.5 0 2.6-.4 4.2 1.3 4.8 3.2.5 2-1 3.3-2.6 4.7-2 1.8-4.3 2.8-6.7 3.8zm4.5-9.4h-1.6c-2.6.7-2.2 2.8-2.1 4.7 0 .6.4 1.2.6 1.8l3.3-2.3c.7-.6 1.6-1.2 1.8-2 .2-.6-.5-1.4-2-2.2zM224.3 908.8c2.2-.2 4.2 0 6 0-1.4 1-2.9 2-4.4 2.8-3.4 1.7-3.8 3.8-1.3 6.6.7.8 1.6 1.5 2.2 2.3l1.6 2.6c-1.2.5-2.4 1.3-3.7 1.6-1.3.3-2.9.2-4.3 0-.6-.2-1-1.2-1.6-1.8.8-.3 1-2.1 2.4-.6.4.5 1.7.3 2.5.2.5 0 1-.6 1.4-1-.2-.4-.5-.8-.8-1-4.9-3.8-5-6.7 0-11.7zM115.6 76.8c1.4 3.9 4 7.2 3.5 11.3-.1.8-.7 1.6-1.1 2.4l-1-1.9c-.8-.8-1.6-2.1-2.4-2.2-1-.1-2.4.7-3 1.6-.6 1-.4 2.9-2.4 1.8-2-1.1-.3-2.3.2-3.5 1-2.6 2-5.2 3.3-7.8.5-.9 1.7-1.3 2.9-1.7zm-2.4 7.3c1.2-.2 3 .6 2.6-1.8-.1-.9-.5-1.7-.8-2.6l-2 2.4c-.3.4-.3 1 .2 2zM237.9 925.5c-2.2.2-4.2.1-6.1-.1-.4 0-.8-.7-1.2-1.1.4-.2.8-.6 1.2-.6h2.2l2-.6c-.4-.7-.7-1.5-1.2-2.2l-3-3c-2-1.8-1.8-4.2-.8-5.8 1.2-2 2.9-4.3 6-3.6.4.1.7.5 1.1.8-.3.5-.7 1-1.1 1.3-.2.2-.8 0-1 0-4 1.8-4.3 4.6-1 7.3 1.5 1.2 3 2.5 4 4.1.4.7-.5 2.2-1.1 3.5zM131 59.2c.4 3.4-2.3 2-4 2-2 .2-3.5.5-3.5 2.9 0 .6-.5 2.1 1.1 1 .6-.4 1.4-.5 2-.5 1.5.2 4.2.5 4.2.7 0 3-2.6.5-3.5 1.5-1.6 1.6-6 .5-5 4.8 0 0-.9.6-1.3.5-.3 0-.8-.7-.8-1 .4-3.5.7-7 1.3-10.4.1-.6 1.6-1.4 2.5-1.5 2.1-.2 4.3 0 7 0zM270.6 66.7a27 27 0 012.7-5.3c.4-.6 1.4-.8 2.1-1.1.2.6.6 1.2.6 1.8-.4 3.4-1.8 6.3-4.4 8.3-1 .7-3 .5-4.2 0-1-.5-2.5-1.4-1.3-3.5.8-1.3 0-3.5.2-5.2.2-1 1-1.7 1.6-2.5.5 1 1.5 2 1.5 3.1 0 1.5-.9 3-1 4.4 0 1.7 1.2 1.4 2.2 0zM235.2 42.7c1.9 2.9 3.7 5.4 2.9 8.8-.1.5-.5.8-.8 1.2-.4-.4-1-.7-1.3-1.1-.5-.9-.6-2.2-1.3-2.7-1-.7-2.5-1.6-3.1.7-.3 1.1-1 2.2-1.7 3-.5.6-1.4.7-2.2 1 .1-.7.1-1.5.3-2.2l3.7-9.8c.3-.7 1-1.2 1.7-1.8l1.8 2.9zm-2.5 3l2.2-.1v-1c-.7 0-1.5 0-2.2 1zM169.7 81.6c.6-.2 1-.2 1.3-.2-.3 4.4-2.4 8-5.1 11.2-.8 1-3 1.2-4.2.8-.8-.3-1.4-2.3-1.4-3.5 0-2.8.6-5.5 1-8.2.1-.3.7-.8 1-.8.4 0 1.1.5 1.1.7-.2 2-.7 4-.8 6.1-.1 1 .3 1.9.4 2.8.9-.5 2-.8 2.6-1.6 1.4-2.2 2.6-4.7 4-7.3zM293 42.7c.8-.5 1.2-.8 1.7-.8 1.3 0 2.7.3 4 .5L295 44c-.7.4-1.7.6-2.1 1.2-.4.4-.4 1.7 0 2 1.3 1.3 3.2 2.2 4.3 3.6 1.2 1.5.4 3.4-1.2 3.8-2 .6-4.2.3-6.3.2-.3 0-.7-1.2-.7-1.7s.6-1 1-1.5h1c1.1.2 3 1 3.1.6 1.3-2.3-1.9-1.2-2.1-2.5l-.4-.4c-3.7-3.3-3.6-3.6 1.4-6.6zM91 107.9c1.4-.2 2.7 0 3-.5.8-1.3-.4-1.3-1.4-1.8-2.1-1.2-3.4-3.3-2.7-5.8.5-1.7 4.2-4 6-3.8.5 0 1 .5 1.6.8-.4.4-.7 1-1.2 1.3l-3 1.6c-1.2.7-1.4 1.4-.1 2.3 1 .7 1.9 1.6 2.6 2.6.6 1 1.5 2.7 1.3 2.9a17.3 17.3 0 01-5.5 3.4c-1 .4-3.4-.8-3.7-1.7-.6-2.2 1.6-1 3-1.3zM123.2 27.8c-.1 1-.5 1.8-.9 2.7l-.5 1.6c.4-.1 1-.1 1.4-.3.5-.2.8-.6 1.3-.7l4.2-.7-3.4 2.8c-.5.4-1.1 1-1.7 1-1.2 0-2.3 2.5-3.5.5-.6-1.1-1-2.6-1-4 .1-1.2.7-2.5 1.1-3.8.4-1.4.5-3.6 1.4-4 1.9-1 4.2-1.3 6.4-1.5.5 0 1.3 1 2 1.5l-2 .6c-1.3.3-2.7.5-3.8 1.1-1 .6-2.8 1.4-1 3.2zM252.5 167.1l.8 1.1.6 2.4c.5-.7 1.5-1.4 1.4-2-.2-2.3 1.6-3 2.8-4.3.2-.2 1-.1 1.3.1.3.3.4 1 .3 1.4-1.8 3.4-3.5 6.8-5.4 10.1-.3.6-1.2 1.2-1.8 1.1-.5 0-1.2-.9-1.3-1.5-.5-3-.9-6.1-1.1-9.2-.1-.9-.5-2.5 1.2-2 .5 0 .6 1.6 1.2 2.8zM209.2 59.4c1.2-.2 2.1-.4 3-.2.7.3 1.3 1 2 1.5-.7.2-1.5.6-2.2.6-2.8-.2-2.3 1.5-1.7 3 .4 1 1.3 1.6 1.8 2.5 1.6 2.8 1.2 4.7-1.2 6.1-1.3.8-5-.4-6-2v-.7c.5-.4 1-1 1.6-1 .6 0 1.2.6 1.8.8.5 0 1.4-.2 1.4-.3 0-.6 0-1.5-.3-1.8-1.8-1.6-3.3-3.4-2.6-6 .3-.8 1.4-1.4 2.4-2.5zM175.1 157.4c-.8.2-1 2.3-2 .4-2.1-4.4-3.2-4.5-6.9-1.3l-1.5.8c0-.6-.3-1.2-.1-1.6 1.5-3 3-6 4.8-8.8 1.2-1.7 3-1.5 3.6.4.7 1.5 1 3.2 1.3 4.8.4 1.7.7 3.3.8 5.3zm-5.1-7.9l-.8 2.5c1 0 2.6 0 2.7-.3.3-1 1-2.9-2-2.2zM220 22.7c1.8-1.3 2.5-4 4.8-3.3 2.3.9 1.5 3.4 1.4 5.3-.2 2.2-.7 4.4-1 6.5-.1.4-.4.6-.6 1-.2-.4-.5-.6-.5-1 0-1.7.2-4.1-1.8-4.2-1.2-.1-2.5 2.3-3.7 3.6L217 32c-.2-.8-.8-1.8-.5-2.4.9-2.3 2-4.5 3.4-7zm3.5 1.9v-2.2l-1.6.7c.6.5-1.2 2.4 1.6 1.5zM79 47.3c2.6-.4 4.6-.8 6.6-1 .3-.1 1 .4 1 .8s-.3 1.1-.6 1.2c-1.6.5-3.3.8-5 1.1-2.7.6-4.9-.4-6.2-2.7-1.2-2.3.5-6.6 3-8.4 1.8-1.4 4.6-1 7 1.1l.5 1.1-1 .3c-.5 0-1.3.1-1.5-.2-2.4-2.4-4-.4-5.2 1.2-1.6 2-1 4 1.5 5.5zM99.4 40c-.2 4.6-1.3 8.4-5.7 10.8-2.2 1.2-3.2.4-3.7-1-1.3-3.1 0-6.5.1-9.7 0-.2.7-.5.9-.4.4.2 1 .6 1 .9V47c.1.4.5.8.7 1.3.5-.4 1.2-.6 1.5-1 1.4-2.7 2.3-5.7 5.2-7.4zM186.5 42.1c-1.4 2.9-2.4 5.6-3.8 8-.5.8-2 1-3 1.5-.4-.8-1-1.7-1-2.5-.2-3-.1-6.1 0-9.2 0-.4.3-.8.5-1.2.4.4 1 .7 1.1 1.1.3 1.8.3 3.5.5 5.2 0 .4.2.7.3 1l.8-.9c.7-1.5 1.2-3.1 2.2-4.4.5-.6 1.7-.7 2.6-1a8 8 0 01-.2 2.4zM253.5 68.1c.7-2.9 2.2-4.7 4.1-6.2 1.7-1.4 3.2-.6 4 .9 1.8 2.8-1 8.8-4.2 9.3-1.2.2-3 .4-3.6-.2-.7-.6-.4-2.3-.3-3.8zm5.2-4c-.4.3-1 .6-1.1 1l-1 3.4.9.4c.7-.8 1.6-1.6 2-2.5.3-.9-.2-2-.8-2.4zM100.7 23.5c-2.8 2-2 4.7-2.2 7.1 0 .5-.6 1-1 1.5-.3-.4-1-.8-1-1.3-.2-1-.2-2.1 0-3.2 0-.6.2-1.3.4-2-1 .3-2.3.2-2.8.9-1 1-1.3 2.6-2 4-.3.6-.9 1-1.3 1.6-.3-.7-1-1.5-.8-2.1.6-2.8 1.3-5.5 2.2-8.2.2-.6 1-1 1.4-1.5l.6 1.8c.8 1.9 2.2 2 3.9.2.9-1 1.7-.8 2.6 1.2zM48.5 43.8C45 42.8 46 46 45 47.3c-.5.6-.8 1.4-1.2 2l-.4-2c-.2-1.4-.7-3.1-.3-4.5 2-6.4 3.4-7.2 9.9-6.3.4 0 .7.4 1 .6-.3.4-.6 1-1 1.1-1 .3-2.1.2-3.1.4-.8.2-1.7.4-2.4.8-.4.3-.6 1.2-.9 1.7.6.3 1.2.6 1.8.7 1.5.3 3.1-2.8 4.7 0-1.4.6-2.9 1.1-4.6 2zM287.9 149l-.4 4.1c-.5 3.1-2.9 2.4-4.8 2.3-2 0-2.4-1.6-2.4-3.4-.1-2.7.3-5.2 2.4-7 .9-.7 2.2-1.5 3.2-1.3 1.4.2 2.2 1.5 2 3.1v2.2zm-3.3-2.7c-.7 1-1.9 2.2-2 3.3 0 1.2.9 2.5 1.5 3.6 0 .1 1.3 0 1.3-.2.5-2 1-3.8 1.2-5.8 0-.4-1-1-2-1zM44.2 56.7l-4 12.6c-.3.8-.7 1.6-1.2 2.3-.2.3-.9.6-1.3.5-.3 0-.7-.7-.8-1 0-1.3-.4-2.7 0-3.8l5.4-12.2c.4-.8 1.7-2 2-1.9 2 .9-.3 2.2-.1 3.5zM258.7 85.1c-1.1 3.3-2 6.2-3.3 8.8-.3.6-1.7.7-2.6 1-.1-.6-.6-1.4-.4-1.8 1.7-3.2 3.1-6.4-.1-9.6-.5-.5-.1-1.7 0-2.6l.2-1c.4.3.9.4 1.1.8 2.2 2.6 2.7 2.6 4.6.1.4-.5 1.4-.7 2.2-1-.2.7-.5 1.3-.6 2-.1.6.1 1.2 0 1.6-.3.5-.8.8-1.1 1.7z"/>
  <path fill="#00EBAB" d="M27.1 84.9c-1.9.7-2.2 2.1-2.2 3.9 0 .2-.8.6-1.1.6-.4 0-1-.6-1-1 .5-3.5.7-7.1 1.5-10.6.6-2.1 5-3.3 6.9-2 .9.5 2.3 1.4.8 2.9L28 83c-.4.4-.6 1-.9 1.9zm1.1-3.5c.7-.7 1.4-1.2 1.9-2 .2-.4-.1-1.2-.2-1.8-1.2.5-2.8.6-3.5 1.5-.7.8-1.3 2.9 1.8 2.3zM87 933.1c-1.4-1.3-2.8-2.6 0-2.9 2.7-.3 5.4-.1 8 0 .5 0 1 .7 1.4 1.1-.5.3-1 1-1.5 1-3.2-.7-2.9 1.3-2.9 3.4v10.2c0 .5-.5 1-.8 1.6-.4-.6-1.2-1.2-1.2-1.7-.2-3.6-.4-7.2 0-10.8.2-1 .8-1.8-.2-2.2-.7-.2-1.7.4-2.9.3zM105 28.9c-1.1.2-1.7.5-2.3.7-1.3.4-.3 3.4-2.6 2.3-.3-.2.2-2.4.7-3.6.7-2 1.6-4 2.6-5.9 1-1.7 2.4-1.5 3.3.1 2 3.3 2 7.1 2.6 10.8 0 .3-.5.9-.9 1-.3 0-1-.4-1.2-.7-.6-1.6-1-3.1-2.2-4.7zm0-4.9l-.3-.4h-.4c-.1.6-.4 1.1-.3 1.6.1.8.5 1.5.8 2.3.7-.8 2.3-1.5.2-3.5zM281.7 60c2.2.3 4.2.2 6.2.3.3 0 .7.5 1 .8-.3.4-.7 1.3-1 1.3-3.8-.5-4.7 1.6-4.3 4.7v.6l-3 4.2c-2-1.5-1.2-3-.5-5 .6-1.5 2.9-4.3-1.1-5.4-.4 0-.6-1.1-.8-1.7 1 0 2.1 0 3.5.2zM233 31.9c-1-2-2.7-9.7-2.4-10.7.1-.4.5-.9.9-1 .4 0 1 .4 1.2.7l1.1 5.4.5 1.5.6-1.3c.7-1.5 1.1-3.2 2.1-4.5.5-.6 1.9-.4 2.8-.6-.2.7-.3 1.4-.6 2-1 2.3-2 4.6-3.3 6.7-.5.9-1.7 1.4-3 1.8zM269.8 49.7c-3.3 3.1-5.4 3.9-6.9 2.3-1.9-2-.8-4.2 0-6.6 1-3.3 3.4-2.5 5.5-2.4 2.3.2 2.3 2.2 2.2 4-.1.8-.4 1.6-.8 2.7zm-4.6-3c-1.6 1.2-1.5 2.4 0 3.2.5.3 1.6-.6 2.3-1.2.4-.4.8-1 .9-1.7 0-.6-.3-1.2-.5-1.9-.7.4-1.5.7-2.7 1.6zM275.7 148.7l-3 7.3c-.1.5-.4 1-.7 1.4-.5-.5-1.4-1.3-1.3-1.5 2-3.3-1-5.5-1.8-8.1-.3-1.3.2-2.8.3-4.2l2.4 3.3c.5.7.7 1.4 1 2 .4-.7.9-1.5 1.2-2.3.2-.5 0-1.1.2-1.5.5-.8 1.5-2.2 1.8-2 2 .5.3 1.7.2 2.6 0 1 0 1.8-.3 3zM213 149.8c-.4 1.2-.5 2.2-.6 3.2l2-.8 5.1-2.1c.4-.1 1.1.3 1.2.6.2.4 0 1.2-.4 1.4-2.5 1.2-5 2.4-7.7 3.3-1.4.4-2.7.4-2.7-2 0-4.3 1.7-7.6 4.6-10.5.3-.3 1-.3 1.4-.4l-.4 1.5-2.5 5.8zM183.2 82.2c1 .7 2.8 1.2 1.3 3.1-.7 1-.4 2.7-.5 4.1 0 .3.2.6.4 1 .3-.3.9-.5 1-.8 1.3-2.2 2.3-4.5 3.6-6.6.3-.6 1.4-.7 2.1-1 0 .7 0 1.5-.2 2.2-.4 3.2-2 5.8-4.6 7.8-2 1.6-4.4.6-4.4-2 0-2.5.7-5 1.3-7.8zM170 90.5c.6-.7 1.2-1 1.9-1 1.7 0 3.3.2 1.7-2.5-1-1.8 1.6-6.7 3.5-7.2.6-.1 1.4.7 2.2 1.1l-1 1c-2.6 2.1-2.6 2.8-1 5.8.6 1 1.3 2.6 1 3.6-.6 2-2.7 1.6-4.2 1.3-1.4-.2-2.8-1-4.1-2zM56.4 38.6c3-.7 5.9-.9 8.9-1 .2 0 .5.3.8.5l-.9.5-5 1.1c-.6.2-1 .8-1.7 1.2.5.3 1 .8 1.6 1 1 0 2.1-.1 3.2 0 .5 0 1 .4 1.6.7-.5.4-1 1.1-1.6 1.4-.6.2-1.4 0-2.1 0-2.3-.1-3.8.5-3.8 3.2 0 .4-.8.8-1.2 1.2-.3-.6-1-1.1-.9-1.6l1-8.2zM224.3 149.2c1.2-1.6 2.2-3 3-4.5.6-1.3 1.1-2.7 2.8-1.9.3.2-.2 2.5-.8 3.5-.9 1.6-2.2 3-3.3 4.5l-.6 1.2c.5 0 1.1.3 1.5.2 1.7-.6 3.4-1.4 5.1-1.9.4-.1 1 .7 1.5 1.1-.2.3-.4.7-.7.8-1.7.8-3.3 1.6-5 2.2-4.4 1.4-5.5.4-4.5-4.1 0-.3.5-.5 1-1zM106.1 49.4c2.9-.9 4.9-3 7.7-2.1.3 0 .6.3 1 .4l-.7.8c-2.6 1.4-5.2 3-8 4.1-1.5.6-3.2-.5-3-1.9 0-3 1-6 1.6-9 0-.2 1-.5 1.4-.3.4.2.7 1 .6 1.4-.3 2.3-.7 4.4-.6 6.6zM77.2 26.4c1.6 3.4-1.1 3.7-2.8 4.6-.8.4-2.1.2-3.1 0-.7-.1-1.3-.7-2-1l2-1.1h.5l4-.6-3.4-2.3c-2.4-1.4-2.7-2.4-.9-4 1.4-1.2 3.1-2 4.8-2.8.4-.2 1.1.4 1.7.7l-1 1.4h-.6l-3.8 2 3.2 1.7 1.4 1.4zM246.8 40.8c1.4 0 2.4-.2 3.2 0 .7.3 1.4 1 2 1.5-.7.2-1.4.6-2 .6-2.3 0-3.2 1-3.3 3.2 0 1.7-.6 3.3-1 5-.3.9 1 2.8-1.3 2.5-.4 0-.7-2-.8-3-.2-1-.4-2.1 0-2.7 2.5-3 2.2-4.4-2-4-.4.1-.8-.3-1.2-.5.3-.4.7-1 1.1-1.1 1.6-.6 3.2-1 5.3-1.5zM120.5 44.3c-.8 3-1.3 5.6-1.9 8.3 0 .4-.7.7-1 1.1-.3-.4-.6-.8-.6-1.3l-.1-6.5c0-.6-.6-1.4-1-1.8-.6-.5-1.3-.6-2-.8.7-.5 1.4-1.2 2.2-1.4 1.4-.4 3-1 4.4-.8 1.4 0 2.6.9 4 1.4l-3.2 1.5c-.2 0-.4 0-.8.3zM113.4 34c-.8-.6-1.7-1.4-1.8-2.3-.2-3 0-6 0-9 0-.5.3-1 .5-1.3.4.3 1 .7 1.1 1.1.5 2 .8 4.2 1.2 6.2l3-5.1c.1-.2.8-.3 1 0 .2 0 .3.6.2.9-1 3.4-2.1 6.8-5.2 9.5zM148.3 860.9c1.1.7 2 1.3 2.1 2a30 30 0 01-2 12.6l-.8 1.4c-.4-.4-1-.7-1.1-1.1-.3-1-.4-2.1-.3-3.2.5-3.9 1-7.8 2.1-11.7zM23.9 909.6c.3-1.5.4-2.5.8-3.5.1-.3 1-.6 1-.5.5.4 1.3 1 1.2 1.5-.6 4.2-1.2 8.4-2 12.6 0 .7-.8 1.2-1.2 1.8-.3-.7-.9-1.4-.8-2.1.2-3.1.6-6.2 1-9.8zM243.8 914.2l2.6-4.6 1 .1c.1 0 .2.5.1.7-.6 4.4-1.1 8.8-1.9 13.2 0 .7-.9 1.4-1.4 2-.2-.6-.6-1.3-.6-2-.1-3 0-6.1.2-9.4zM169.7 933.1c.5-1.2.6-2.3 1-3.1.3-.5 1.2-.6 1.8-1 .2.8.9 1.8.6 2.3-1.9 3.7-2.3 7.5-2.1 11.5 0 .5-.7 1-1 1.4-.4-.4-1-1-1-1.4 0-3.1.2-6.3.7-9.7zM166.4 62.1l1.2-1.8c.4.3 1.3.8 1.2 1l-1.4 8.6-.7 2.4c-.2.4-.6.6-1 1-.4-.5-1-.9-1-1.4-.2-1.4-.4-2.9 0-4.2.2-1.8 1-3.5 1.7-5.6zM163.5 936.6c-.4 1.3-.7 2.1-1.1 2.8-.8 1.1 1.6 3.5-1.4 3.5-.3 0-.7-2.7-.7-4.1 0-1.5 0-3.3.8-4.4 1-1.4-1.5-4 1.6-4 .3 0 .5 3 .8 4.6v1.6zM254.6 52.4c-.6-.8-1.4-1.5-1.3-2 .6-2.5 1.3-5.1 2.2-7.5.4-1 1.7-1.4 2.6-2l-.3 2.4-1.3 8c-.2.6-1 1-1.9 1.1zM244.6 25.6c-.5 2.5-.9 4.5-1.5 6.4-.2.4-1 .6-1.5 1-.2-.7-.8-1.4-.7-2 .4-2.3 1-4.6 1.6-6.8.3-1 1.1-2 1.8-2.9l1.3.5-1 3.8zM91.3 64.9c-.4 2 .2 4-1.8 4.8-.6.2-2.6-1-1.3-2.9.3-.5.5-1.2.6-1.8.4-1.8.6-3.7 1.3-5.3.3-.8 1.6-1.1 2.5-1.6.2.8.6 1.6.5 2.4-.3 1.4-1 2.7-1.8 4.4zM68.3 45.1l1-5c.3-1-.8-3 1.5-2.4.5 0 .7 2.1.6 3.3-.1 1.8-.5 3.7-1 5.4-.3 1.1-1.1 2-1.8 3l-1.3-.4 1-3.9zM264.9 82.7c-.8 2.7-1.3 5.2-1.9 7.6-.1.5-.4.9-.6 1.3-.4-.4-.8-.7-1-1.2-.9-1.4.7-9.4 2-10.4.3-.3 1.3-.2 1.4 0 .2.7.3 1.6.1 2.7zM143.7 154.1l-1.9 4c-.5.9-1.2 1.7-1.8 2.6 0-1-.6-2.2-.3-3 1.1-3 2.5-5.9 3.8-8.8.2-.4.8-.6 1.1-.9.2.5.5 1 .4 1.4-.2 1.5-.6 3-1.3 4.7zM34.7 100.3c.1-1.4.2-2.3.4-3 .2-.5.8-.9 1.1-1.2.3.3.6.7.7 1.1v8.1c-.2.9-1.1 1.7-1.7 2.5-.5-1-1.4-2-1.5-3.1 0-1.3.7-2.6 1-4.4zM36.6 44.8c.6-1.9 1-3.5 1.3-5.1.2-1-.3-2.5 1.5-2 .4 0 .8 1.4.7 2-.4 2.2-.9 4.4-1.6 6.4-.3.9-1.4 1.5-2.1 2.3 0-1.1 0-2.2.2-3.6zM283.6 166.3c-.2 1-.2 1.8-.4 2-1.7.5.6 3.9-2.2 3.2-.5-.1-.6-2.8-.6-4.3 0-.8.6-1.6.8-2.3.5-1.6.9-3.1 3-2.8l-.6 4.2zM309.5 891.2c1.1.3 1.7.5 2.2.9 0 .1-.3 1.1-.6 1.2-.7.2-1.4.1-2.1 0l-7-.8c1.9-2.8 4.7-.6 7.5-1.3zM251.4 159.5c-.2-.7-.2-1.3.1-1.7l3.2-3.4.6.6c-1.8 1.2 0 5-4 4.5zM101.5 85.4c-.2 3.2-1 3.8-3 2.4-.7-.5-1.4-1.3-.1-1.9a7 7 0 013.1-.5zM90.2 86.5a13 13 0 013-1.3c.3 0 1 .8 1 .8-.6.9-1 2-1.9 2.3-1 .3-2.7.7-2.1-1.8zM168 949.9c1.5-.1 3.5-1 3 1.5-.1.6-.9 1.3-1.4 1.4-2.5.5-1.7-1.4-1.5-3zM81.5 85.4c1.1.4 2 1 2.7 1.6-.8.5-1.8 1.4-2.6 1.3-2.9-.3-1.4-1.6 0-2.9zM158.3 951.5c-1.6-1-1.2-2-.1-2.4.7-.3 1.7.2 2.5.5 0 0 0 1.1-.3 1.4-.5.4-1.2.5-2 .5zM39.9 860.6c-.5-.3-1-1.3-.8-1.6.8-.9 1.8-1.6 2.7-2.4l-1 3c0 .3-.4.5-1 1zM278.2 178.2c-1.3-1-1.7-2 0-2.1.7 0 1.4.5 2.1.7-.5.5-1 1-2.1 1.4zM123.7 27.8c-.3-.2-.3-.5-.3-.5l5-.5.2.7-4.9.3z"/>
  <defs>
    <pattern id="pattern0" width="1" height="1" patternContentUnits="objectBoundingBox">
      <use transform="matrix(.00112 0 0 .00057 0 0)" xlink:href="#image0"/>
    </pattern>
    <image id="image0" width="892" height="1750" xlink:href="tiktok.jpg" />
  </defs>
</svg>
