<svg xmlns="http://www.w3.org/2000/svg" xmlns:xlink="http://www.w3.org/1999/xlink" fill="none" viewBox="0 0 857 813" width="857" height="813">
  <defs/>
  <path fill="url(#pattern0)" d="M26 17h398v780H26z"/>
  <path fill="#00EBAB" d="M459.9 597.1c.4 3.7.8 7.2.6 10.6-.3 6.3 1.1 12.7-.8 18.9 2.5 5.4-.7 11.5 1.8 16.9-1.2 3.2.8 6.5-.6 10-1 2.2-.7 5.4 0 7.9.8 2.8.6 5.3.1 8.1a23 23 0 00-.2 8.7c.8 2.9.8 5.6.6 8.3-.3 5.4 1.3 10.4 2.1 15.5.5 3 1.8 4 4.8 3.8 3.6-.2 6.8.8 10 2.7 2 1.2 4.7 1.4 7.2 2.2.8.2 1.8.4 2.4 1 .7.5 1 1.4 1.5 2.2-.9.2-1.7.5-2.6.6-4.4.5-8.4-1-12.3-2.8-1.3-.6-2.9-.9-4.4-1-5.8-.5-10.4-2.5-11.4-10-.6-4.6-.7-9.4-1-14.1l-1-15.5a60 60 0 01.2-6.9c.1-2.2.8-4.5.7-6.7 0-2.5-.7-4.9-.8-7.3-.1-2.2.1-4.4.3-6.6 0-1.8.3-3.5.4-5.3 0-.4-.7-.9-.7-1.4a55 55 0 01-.3-10.4c.2-2.4 0-5.2 0-7.8-.1-1.8-.7-3.7-.7-5.6 0-2 .9-4.2.9-6.3v-18.7c0-2.8-.2-5.6-.1-8.5.3-14.4.3-28.8 0-43.2 0-4.2.4-8.4.2-12.6-.2-4.3-.4-8.7 0-13 .5-4.1.4-8.2 0-12.3-.2-3 .5-6 .7-9v-2.2c-.2-3.1-.7-6.2-.7-9.3 0-2.8.7-5.6.9-8.4.4-5.3.1-10.7 1-15.9 1-5.2.3-10.4 1-15.4.7-4 .7-8 1-12.1 0-2-.7-3.9-.2-6 .4-2.1-.4-4.6.2-6.6 1.3-5-.6-10.4 1.6-15.4.6-1.5-.7-3.3-.4-5.5.8-5.4.9-11 .5-16.4-.4-4 .2-7.8.1-11.7-.1-4.2-.3-8.4 0-12.5a38 38 0 013.3-12c2.2-5 6.6-5.8 10.7-6.6 2.7-.5 5.7-.3 8.8.6 3.6 1.2 7.6.9 11.5 1.2.4 0 .8.3 1.2.5l-1.3.4c-3.2 1-6.3 1-9.8.3a26 26 0 00-16.3 1.8c-.8.4-1.8 1.2-2 2-1.2 3.9-3 7.8-3 11.7-.1 6.4-1.4 13 .7 19.3-2.1 5.5-.6 11.2-.9 16.8-.3 5.8.5 11.6-.2 17.3-.7 5.5 0 11-1 16.4-1.1 6.6-.4 13.2-.7 19.7-.4 7.1 0 14.3-1.2 21.2-1.2 7.4-.3 14.8-.8 22.2-.2 3.7.7 7.5-1 11.1-1 2.2.8 4.2.5 6.6-.5 5.2-.5 10.6-.4 16 0 4.8.2 9.6-.1 14.4-.4 5 .2 10 0 15V579.2l-.1 6c-.2 2-.7 3.8-.7 5.8 0 1.3.6 2.6.8 4 0 .6-.6 1.2-.6 2.1zM820.6 626.2c0 9.9-.3 19.3 0 28.8.2 4.2 0 8.4 0 12.6V681c0 2.2.4 4.4.4 6.6 0 2.4-.4 4.7-.4 7 0 2.5-.7 4.7-1.8 7-.8 1.4-1.3 2.1-2.9 2.4-1.5.3-3 1.3-4.5 1.8-1.6.5-3.2 1-4.9 1-3 0-4.2 3.3-7.1 3.6-2.7.3-5.1 1.8-7.8 2-2 .3-4.2-.4-6.2-1-1.7-.5-1.8-2.3-.2-3.2 1.4-.7 3.1-1.3 4.7-1.3 3.3 0 6.2-.5 9.3-2 3.1-1.6 6.8-2 10.3-2.9.9-.2 1.7-.5 2.6-.6 5-.8 4.2-5.2 4.5-8 1.7-16.4 1-32.8 1.2-49.2 0-2-2.5-3.7-.3-6 1.3-1.3.2-3.7 0-5.4-1.8-14-.4-28.2-.7-42.3-.3-14 0-28.2-.1-42.2v-11.7V524l-.3-8.2.1-4.2c0-.8.4-1.6.2-2.3a27.5 27.5 0 010-15.5c-2.1-8.8.1-17.8-1.1-26.5-.6-4.2-.5-8.4-.8-12.6l-.9-13.5c0-1.6.3-3.4 1-4.8.7-1.7-2.5-3-.2-4.6-2-2.8 0-5.9-.7-8.9-.5-2-.2-4.4-.1-6.7 0-7-.2-14-2-20.8-.2-1 0-2.2 0-3.3 0-11-.1-22 .1-33.1 0-3.8-2.3-5.6-4.6-7.7a13.6 13.6 0 00-12.8-3.4c-2.3.5-4.6.9-6.8.6-2.4-.2-4.7-1-6.9-1.9-.7-.3-1.5-1.7-1.3-2.4.4-2 1.8-.7 2.8-.3 3 1.2 5.8 1.7 9.4 1.2 4.8-.7 10.4-2 15 1.6 2.6 2.2 5.7 4.2 7.5 7 1.4 2 1.4 5.3 1.4 8 .2 8.1 0 16.3.1 24.5.1 6.4.5 12.8 1 19.2.3 4.5 1.5 9 1.2 13.3-.2 2.6.7 4.8.6 7.2 0 4-1.2 7.8 0 11.7.7 1.9-2.3 3.4-.1 5.6 1 1-.2 3.1 0 4.8.7 7 1 14.1 1 21.2 0 2.6 1 5.1.3 7.9-.6 2 .9 5 .5 6.9-.5 2.5.5 5-.6 7.5-.4 1 0 2.5.1 3.7l.8 4c.3 4.2-.6 8.4-.3 12.7.2 5 .6 10 .3 15-.2 5.4 0 10.9 0 16.3V607.1c0 2.2-.4 4.4-.4 6.6l.3 6.6c0 1.8-1.4 3.6 0 5.9zM377.3 125.3c5.6-1.2 11-2.5 16.4-2.8 5.4-.4 10.4-2.5 15.9-2.5 4.6 0 9.5.1 14-1.6.8-.3 1.7 0 2.5 0 5.4-.4 11-.2 16.3-1.1 10-1.8 20-.5 29.9-.8 3.5-.1 7.1-.3 10.7 0 3 .1 5.8.6 8.7.8.5 0 1-.3 1.5-.7 0-.1-.2-.8-.5-1.2l-6.4-7.4c-2.6-2.9-5.3-5.8-7.8-8.8-.4-.4-.4-1-.6-1.6l1.8-.4c.4 0 1.1-.2 1.4 0 3.5 3.3 8.2 5 11.2 9 2.2 2.7 5.1 5 7.9 7.3 3.2 2.7 5.5 5.5 1 9.8-4 3.9-8.3 7.6-12.4 11.5-1.7 1.6-3 3.5-4.4 5.3-1.1 1.4-3.4 1.8-4.6.8-1.5-1.3-1.2-2.5 0-4 3.7-4.5 7.7-8.7 12.7-11.9.6-.3 1-1 1.6-1.5l-1.8-.4c-3.8 0-7.7.5-11.2-1.8-.7-.5-2 0-2.9 0-9 0-18.2-.4-27.3 0-5.6.3-11.2.1-16.7 1.7-1.3.3-2.8-.5-4.5 0-3.4.8-7 1-10.6 1-5.4 0-10.8.5-16 2.1-2.1.7-4.2-.9-6.6.7-1.6 1.2-4.4.8-6.6 1.1-2.5.4-5 .5-7.3 1a573.6 573.6 0 00-32.3 7.7c-2.2.6-4.2 1.5-6.4 2.1-6.5 2-12.8 4.4-19.3 6.6-5.7 1.9-11.3 4.3-16.9 6.7-5.9 2.4-11.8 4.7-17.8 6.7-2.7.9-5 2.5-7.6 3.8-5.1 2.6-10.3 5-15.5 7.7-2.5 1.2-5 2.6-7.5 4-1.7 1-1.2 2.6-1.3 4.2 0 .4-.2.8-.4 1.3-.4-.4-1.2-.7-1.3-1.2-.4-2-.8-4 1.3-5.5 3.1-2.2 6-4.6 9.4-6.4a375 375 0 0123.4-11.7c8-3.6 16.2-6.5 24.3-9.7a436.2 436.2 0 0141.5-14.4l17.3-4.6c1.2-.3 2.4-.4 3.8-1zM645.1 230l3.6-7c1-1.8 2-3.1 4.4-3 2.6.2 3.2.6 3.3 3.3v1.5c.1 3.6 1.8 4.6 5 3 .5-.3.6-1 .8-1.6.7-3.2 3.8-6 7-6.1a5.2 5.2 0 015 6.8l-.7 2.5c-1.1 3.3-.8 4.4 1.6 6 2.5 1.7 3 1.4 3.4-1.6.2-1.8.3-3.8 1-5.3.8-1.6 1.2-2.5 0-4.2-1-1.5.5-3.2 2.7-3.2 4.6 0 9.1.4 13.7.5.4 0 .9-.4 1.3-.5 1.6-.3 3.3.2 3.3 1.8 0 3.3 3.3 4.6 4.1 7.4 0 .2 1 .4 1.2.3.3-.2.6-1 .5-1.2-2.7-3 .6-6.2.2-9.3-.1-.5 1.3-1.3 2-2 .3.8.7 1.4.7 2.1 0 2.7-.3 5.5 0 8.1.4 2.6-1.1 5-.1 7.5-1 0-2.1.6-2.6.2-1.8-1.6-3.4-3.4-5-5.1-.4-.6-.6-1.4-1.2-1.9-1.3-1 0-3.6-2.3-3.9-.1 1.7-.3 3.4-.3 5.2 0 2.2.2 4.5-.1 6.7-.1.8-1.3 1.8-2.3 2.2-1.3.6-1.5-.5-1.5-1.6 0-1 0-1.3-1.2-.6-2.8 1.6-5.8 2.8-8.8 4.2-.6.3-1.8 1-1.9.9-3.4-4-10-2.4-12.6-7.6-.7-1.2-2.6-1.8-4-2.7.2 1.6.5 3.2.4 4.8 0 1.5-.3 3-.9 4.2-.3.7-1.6 1.4-2.2 1.2-.6-.2-1.4-1.5-1.3-2.2.3-2.6-1-5.3.8-7.8.3-.4-.2-2-.3-2-1.2-.1-2.4 0-3.5.3-.2 0-.1 1-.1 1.6 0 1.1.4 2.3 0 3.3-.4 1.4-1.2 2.7-2 4-.5-1.2-1.4-2.4-1.6-3.8-.2-1.6-.7-2.7-2.4-2.8-1.6 0-3.2-.6-4 1.8-.6 1.5-.5 4.7-3.4 3.7-.7-.3-.8-3.2-.8-5 0-1 .6-2 1.1-3.2zm37.7 5.5c1 1.7 1.2 1.9 1.7 1 1.5-2.3 3.7-2 5.9-2 3.9 0 4.2-.5 4.4-4.5.1-1.7-.1-3.6.6-5 1-2.3-.3-2.1-1.6-2-1.8.2-3.6.5-5.3 1-1.6.4-3.2 1-4.5 1.8-.5.3-.5 1.6-.7 2.5l2-.1c2.3-.2 4.6-.4 7-.4.5 0 1.1 1 1.3 1.6 0 .3-.8 1.1-1.3 1.2-1.4.2-2.8 0-4.3 0-2.9.3-4.1 1.5-5.2 4.9zM670.3 223c-.8-1.8-1.7-.1-2.5 0-2 .5-2.3 2.5-1.6 3.7.5 1 2.3 1.8 3.5 2 1.8 0 2.2-1.5 2-3 0-1-.2-1.8-1.4-2.7zm-16.8 1.4l.7-.7-1-.7c-.9 1.2-1.8 2.4-2.5 3.7-.4.5-.5 1.2-.7 1.8.8.1 1.6.4 2.3.2.5-.2 1-.9 1.2-1.4.2-.6 0-1.3 0-2.9zM755 587.5c-1.7.6-3.1 1.1-4.6 1.2-2.4 0-2.8 1.4-2.8 3.4 0 1.2.3 1.7 1.6 1.3 1.6-.5 3.5-.3 4.8-1.2 1.5-1 1.5.5 2.1.7-.3.5-.5 1.2-1 1.6-2.8 2.8-7 2-10.3 3.7-.3.2-1.8-1-1.9-1.6-.1-1.3.3-2.7.5-4 .4-3.1 1-6.1 1.3-9.1 0-.5-.5-1.4-.7-1.4-3.1.1-6.3-.2-9.3 1-.7.2-1 1.4-1.5 2.2.7.2 1.4.5 2.1.5l6.7.1c.3 0 .8.6.8.9 0 .3-.4.9-.7 1l-6.3 1c-3 .2-5 3.9-3.3 6.3.1.2 1.5 0 1.8-.4 1.9-1.9 3.8-3.5 6.4-4.3l1-.4c0 .3.2.7.1 1a17 17 0 01-10.5 8.7c-1.2.4-3-1.3-2.8-3 .2-3.2.7-6.4 1.1-9.6.2-1.4.6-2.7.7-4 .3-2.7 1.5-3.4 4.3-3.1 3.7.3 7.5.8 11-.1 2.1-.6 3.7.4 5.5.2 1.9-.1 4-.5 5.7.2 2 1 3.5.9 5.6 0 1.9-.7 3.9-.6 4.6 2.3.5 2.3 1.7 4.4 2.7 6.5.2.6.7 1 1.1 1.6.3-.7 1-1.5.8-2-2-3.5-.5-7.4-.9-11 0-.5.6-1.4.8-1.4.5.1 1.1.5 1.5 1 .3.3.5 1 .5 1.6l1 11.1c0 1 .2 2 0 2.9-.5 1.2-1.2 3-2.2 3.4-1.6.6-3.1 0-3.7-2.3-.6-2.4-1.8-4.7-2.7-7l-1-2.5c-.2-.3-.8-.6-1.2-.5-.3 0-.7.6-.7.9v2.9c0 1.2-.2 2.6 0 3.8.3 2-1.5 2.6-2.4 3.8-1.2-1.2-2.6-2-1.6-4.3 1-2-.7-4.7 1-6.8 0 0-.8-1.2-1.2-1.3a64 64 0 00-8.7 0c-.9.2-1.6 1.4-2.5 2.1.9.6 1.7 1.6 2.5 1.6 1.3 0 2.6-.6 4-.8.3 0 .8 1 1 1.6zM700.6 497.5c1.1 1 1.4 1.9-.1 2-2.7 0-5.5.1-8.1-.1-1.9-.2-2.3.8-3 2-.6 1.2-.6 1.8.8 1.9h4.8c.6 0 1.2.3 1.7.5-.6.5-1.1 1.2-1.8 1.4-1.9.4-4 .5-5.8 1-2.1.6-.6 2.3-.8 3.5 1.2 0 .8 2.8 3 1.5 2.2-1.2 4.1-2.9 6.9-3.4 1.3-.3 2.6-3.2 3.3-5 1.2-3.6 4.5-4.3 7.1-6 .5-.4 1.5-.2 2.2 0 .5.2.8.9 1.2 1.3l-1.3.4a12 12 0 00-8.2 11.3c0 2.1.7 3.1 3 3.1 2.5 0 4.9 0 7-1.7.2-.2.8 0 1.2 0l-.4 1c-2.5 2.6-5.3 4.6-9.1 4.5-3 0-5-1-5.4-4-.5-3-1.2-1.8-2.6-.8a29.7 29.7 0 01-5 3.1c-3.4 1.7-4.9.8-5-2.9v-1.4l-.6-1.6c-.3.3-.8.6-1 1-.9 3-3.4 4-6 5-.5.3-1 .6-1.6.7-5.7.7-7.3-1.3-6.2-7.6.6-3 1.8-5.9 1.8-8.8 0-3.6 3-2.8 4.6-3.6 1.6-.9 4-.2 5 1.7 1.1 1.6 2 3.5.1 5.4-2.2 2.3 1.8 1 1.6 2.3 0 .2 1.2.6 1.9.9l.4-1.7 1-4.4c.5-2.2 1.7-3.7 4.2-3.4 2.9.4 6-1.2 9.2 1zm-24.5 2c-2.3 3.2-1.4 6.9-1.3 10.3 0 1.2-2 3-.1 3.4 1.5.4 3.5-.6 5.1-1.2.7-.3 1.2-1.1 1.8-1.7 2.3-2.4 2.2-3.2-1-4.1l-3.8-1.2c.9-1 1.8-2 2.5-3 .6-1 .8-2 1.1-3l-2.6-.5c-.4 0-.8.3-1.7 1zM624.5 650.9c-.6-.1-1.2-.4-1.2-.8-.4-3.5-3.2-3.6-5.5-3.7-3-.1-5.9-.1-8.5-1.6-1.3-.8-2.3-.5-3.3.5-.5.5-1.8.8-2.2.5-.7-.4-1.2-1.6-1-2.3.4-3.3 1.2-6.5 1.8-9.8.3-2 .3-2 3.5-2.9 1.7-.4 3.3-1.5 5-1.7 2.7-.2 3.1 1 2.6 3.8-.4 2-1.8 3-3.1 4-1 .8-2.3 1.5-3.3 2.4-1.4 1-.5 1 .6 1.4 3.5 1.4 7.2 2.8 10.4 4.8 2 1.2 2.3 0 2.5-1 .5-2.7.7-5.5 1-8.3 0-.6-.2-1.3 0-1.9l2.4-4.3.2 4.5c0 .6-.5 1-.7 1.6l.2 1.4c.4-.2.8-.3 1-.6 2.4-2 4.7-4.1 7.2-6 .7-.6 2-.7 3-.8.3 0 .7.6 1 1-.2.3-.5.7-.8.8-4.4 1.1-6 5.4-9.3 7.8.3.3.5.8.8.8.7.2 1.6.1 2.3 0 3-.3 5.5.7 7.5 2.9.5.5 1.3.7 2 1 .1-.6.4-1.1.4-1.7l1-10.2c.1-.5.7-1.4 1.2-1.4.5-.1 1.3.4 1.6.9.5.7 1 1.6 1 2.4-.6 4.5-1.2 9-2.2 13.5 0 .6-.1 2.6-2.2 2.4-2-.2-.9-1.7-1.3-2.4-2-3-5.4-3.8-8.7-4.4l-5.3-1-.4 5.7c-.2.8-.6 1.6-1.2 2.7zm-11.8-20l-4.2 4.3c-.2.2.3 1 .5 1.4 1-.7 2.3-1.3 3.2-2.3.6-.7.7-1.9.5-3.3zM710 429.1c-1.9 3-2.6 6.3-5.4 8.2-1.3.8-3.3 1.9-4.5 1.4-1.6-.5-3-2.2-2.4-4.6v-2.3c0-4 0-4-3.7-2.4-.5.2-1 1-1 1.6.1 1.6.7 3.2.8 4.9 0 .9-.7 1.9-1.1 2.8-.6-.5-1.4-1-1.7-1.7-.5-1.2-.6-2.6-1-3.9-.2-.9-.5-2.6-.8-2.6-1.7-.2-3.7-1-4.5 1.7-.5 1.7-1.4 3.2-2.4 4.7-.4.6-1.4.8-2 1.1l-.8-2.4.3-.3c.3-1.3 2.2-2.2 1.1-4-1.2 1-2.4 1.8-3.6 2.6-1.7 1.1-3.2 2.7-5 3-6.2 1.2-10.2-4.2-7.9-10.2.8-2 2-3.7 3.4-5.3a4.4 4.4 0 016.5-.5c.3.2.4 1 .3 1.3-.2.2-.8.5-1.2.4-1.1-.1-2.7-1-3.2-.5-1.4 1.1-2.8 2.7-3 4.3-.3 1.4-2 2.5-.4 4.6 1.9 2.8 2.9 4.3 5.7 2.8 5-2.6 10.4-4.7 12.8-10.6.5-1.4 1.6-2.6 2.6-3.7.5-.6 1.7-1.3 2-1.1.8.6 1.7 1.5 2 2.4.3 1.4 0 2.9 0 4.3.3 2.1 1.4 2.7 3.4 1.3 1.7-1.2 3-3 4.7-4.6.5-.5 1.3-.7 2-1 .1.6.6 1.4.5 2l-1.9 11.2c0 .7.4 1.3.6 2 .4-.5 1-.8 1.3-1.4 2.4-3.9 5.2-7.6 6.8-12 .2-.6 1-1 1.7-1.5.3 1 1 1.9 1 2.8 0 .8-.8 1.6-1.1 2.4-.4.8-.5 1.7-1 2.8zm-23.3-.7c3.5-.7 3.7-.9 3.3-5 0-.7-.7-1.2-1-1.7-.3.4-.7.8-.9 1.3-.7 1.6-1.3 3.3-1.4 5.4zM623 256.8c-.5 1.2-.7 2.3-1.2 3.2-.7 1-.8 3-3.2.8-2-1.8-5.4-2.2-8.2-3.3-1.9-.7-3.9-1.4-5.7-2.3-.6-.4-1-1.6-1-2.4 0-.4 1.4-1 2-1 3.5.4 4.4-2.8 6.4-4.3 0 0-.5-1.4-1-1.4-4-.8-9 3-9.4 6.9-.3 2.1-.5 4.2-1 6.3-.2.7-1 1.3-1.6 2-.4-.9-1.2-1.7-1-2.4.4-3.3.6-6.8 2-9.7 1.8-3.7 5.7-5 9.7-5 1 0 2.6-1.3 3.6 1 .6 1.5.9 2.4-.2 3.6-.8 1-1.4 2-2.3 2.9-2.6 2.7-2.6 2.6 1 4 1.6.5 3.2 1 4.5 1.9 2.1 1.6 3 .8 3.5-1.3 1-4.4 3.7-7.8 5.8-11.5 1.5-2.7 3.4-2.5 4.8.3.8 1.8 1.1 3.7 2 5.5 1.4 3 3.8 3.1 6 .4 2.9-3.7 6.4-5.9 11.3-5 .5 0 1.2-.1 1.4.1l1.4 2.3-1.8-.5c-5.2-.7-8.3.7-10 4.7-.7 1.7-1.2 3.6-1.5 5.5 0 .3.8 1.2 1.3 1.3 4.2.4 8-1 11.6-3 .5-.3.7-1 1-1.5.2.6.5 1.3.3 1.8-.6 1.2-1.1 3-2.1 3.3-3.1 1-6.4 2-9.6 2.2-2.9.3-4.3-1.7-4.5-5.3-.1-1.5 0-2.3-2-2.3s-2 .8-2 2.2c.1 1 .2 2 0 3 0 .5-.6 1-1 1.6-.6-.5-1.5-.9-1.7-1.5-.3-.8 0-1.8-.1-2.8-.2-3.4-1.7-4.3-4.9-2.8-.9.5-1.5 1.5-2.5 2.5zm6.5-9.3l-1.3-2.4-1 1.8c-.4.7-.8 1.3-1 2-.2.6-.2 1.7.1 2 .7.5 1.6.7 2.5.8.2 0 .5-1.2.7-1.9v-2.3zM576.7 161.5c-2.3.6-4.2 1-6 1.8a7 7 0 00-2.5 2.6c-.3.5.1 1.5.3 2.2.5-.1 1-.4 1.6-.4l6-.4c.5 0 1 .4 1.4.6-.4.4-.8 1.1-1.4 1.3l-5.8 1c-2.3.5-3 2.4-1.4 4 .3.4 1.4.2 2 0 .3 0 .5-1.1.6-1 1.4 0 3.5-.1 4.1.7 1.4 1.9-1.2 2-2 2.7-1.1 1.1-2.4 2.1-3.7 2.8-2.5 1.1-5.8-.7-5.6-3.4.4-4.9 1-9.7 2-14.5.2-.8 2.4-1.9 3.7-1.8 5.3.3 10.7-1.2 16 .8.6.3 1.6-.4 2.5-.6 3.3-1 4.6-.4 5.9 2.5 1.1 2.6.4 4-2.8 5.9-.5.3-1.1.5-1.5 1-.4.3-.6.8-.9 1.3.4.2.8.5 1.2.5 3.6 0 6.8 1.1 9.5 3.6.4.4.6 1 .8 1.6-.5.2-1 .6-1.6.6-2.7 0-5.6.6-7.9-1.9-.7-.7-2.4-.4-3.3-1-2.4-1.7-3.7-1.7-3.5 1.7 0 .7-.6 1.4-1 2l-.5 1c-.4-.3-1-.6-1-1-.2-1-.4-1.9-.3-2.8.3-3.7-1-7.5.8-11.1.2-.4-1-1.9-1.9-2.2-1-.4-2.2 0-3.8 0zm14.4 4.4c.2-.8.8-2 .6-2.2-.8-.6-2.2-1.4-2.7-1.1-1.4.9-2.6 2.2-3.6 3.5-.3.4.3 1.4.4 2.1l1.6-.6c1.1-.4 2.2-.8 3.7-1.7zm-5.2-3.4l-.5-1c-.2.4-.3.7.5 1zM748.3 510.3c1 .4 1.8.4 2.5.7l3.4 1.6c0-2-1.4-2.8-3-3.6-1.4-.7-2.7-1.9-4-2.8-2.1-1.3-1.8-3.4-1.4-5.1.6-2.6 6.2-5.8 9-5.5.5.1 1 .6 1.5.8-.4.4-.7.9-1.1 1.1-1.5.7-3.1 1.2-4.5 2-2.3 1.3-2.5 3-.6 4.8 2 1.9 4.3 3.5 6.3 5.5.7.7 1.6 2.4 1.3 2.8-.7 1-2 2-3.3 2.1-4.2.7-7.7-1.1-10.9-3.6-1.2-1-2.4-1-3.4.1-2.2 3-4 3.5-6 1.6-1-.9-1.3-2.5-1.8-3.9-.3-.6-.4-1.7-.8-2-1-.5-2-.7-3-.6-.5 0-1 1.3-1 2-.2 1.5 0 3 0 4.4-.1.4-.7.8-1 1.2-.4-.5-.8-.9-1-1.4l-.9-3c-.3-.8.8-2.5-1.2-2.3-1 .1-2 .7-2.7 1.5-1.4 1.7-2.5 3.8-3.8 5.6-.3.3-1 .2-1.6.4V513c2.1-5.4 4-10.8 7.4-15.7l1.4-1.6c.5.7 1.1 1.5 1.4 2.3a20 20 0 011 3.9c.2 2 1.5 2.5 3.3 2.4 1.7-.1 2.5-1 2.5-2.7 0-1-.2-2 0-2.9 0-.4.6-.8 1-1.2.3.5.8.9.8 1.4l1 9.3c.1.6.6 1.2 1 1.8.3-.5.8-1 1-1.6 1.6-2.7 4.2-4.9 4-8.5-.1-.7 1.4-1.6 2.2-2.3.2-.2.8-.2 1 0 .2.3.5.8.4 1.2l-1.2 4.3c-1.2 4 .2 6 4.8 7.2zm-26.6-5.6c2 1 2.7-.2 2.8-2 .1-1-.1-2-.2-3l-2.3 2.8c-.2.4-.2.9-.3 2.2zM659 147.9c2.8-2 2.4-4.9 3-7.3.5-1.6.6-3 2.7-3 1.8 0 3.8-.5 4.3 2.3.2 1.7 1.3 3.3 1.8 5 .4 1.5 1.2 2.3 2.9 2.3 1.3 0 1.8-.2 2-1.8.3-2 1-4 2.2-5.7 1.4-2 3.3-1.7 4.4.4 1.2 2.5 2.1 5.2 3.2 7.8.2.4.9.6 1.4 1l.2-1.4c0-.7 0-1.6-.4-2.2-1.5-2.8 0-5.4.5-8 0-.3 1.2-.6 1.9-.7.3 0 .9.8.9 1.2v6.7c0 1.2 0 2.6.6 3.6 1.2 2.5-.4 4.4-1 6.5-.5 1.6-2.7 1.8-3.7.2-1.8-2.7-3.1-5.7-4.5-8.6-.2-.6 0-1.3 0-2-.1-.3-.5-.6-.8-1-.4.4-1 .8-1.1 1.1v7.7c0 1.5-.6 2.7-1.9 2.7-.7 0-1.5-1.6-2-2.6-.2-.8.2-2 0-2.8-.2-.5-1-1.1-1.5-1.1s-1.3.8-1.3 1.2c0 1.2.4 2.4.5 3.6 0 1 0 2.5-.3 2.7-1.4.4-2 0-2.3-1.8-.8-3.7-2-4-5.6-4-1.5.1-2.4.6-3 1.9-.1.4-.2.8-.5 1.2l-3.6 3.7c-1-1.7-1-3.3 0-5 .6-1 .6-2.4 1-3.8zm8.5-1.7c.6-2 1.3-4.7-.8-5.2-2-.6-2.2 2.4-2.6 4.1 0 .3-.2.6-.3.8l-.4 2c.8 0 1.6.2 2.2 0 .6-.1 1-.8 1.9-1.7zM563.5 433.5c-.5 1-.7 1.8-1 2.6-.4-.5-1-1-1.2-1.5-1.1-3-3-6.1-1-9.6.1-.2-.6-1.2-1.1-1.3-2.1-.8-4.3-1.5-6.4-1.9-.6 0-1.9 1.3-1.9 2.1-.2 3.8-1.8 7-4 10-.4.7-.8 1.6-1.4 2.2-1.5 1.5-3.3 1.3-4.2-.5-.6-1.2-1-2.6-1-3.9-.2-2.2 0-4.5 0-6.7-.1-.8-.6-1.6-.8-2.3-1 .5-3 1-3 1.6.1 2.3-1.6 4-1.9 6-.4 2.7-2 4.4-3.8 6-.7.7-2.3 1.8-2.5 1.6-1.1-1-2.4-1.8-2.5-3.8-.3-4.6 1.9-8.1 4.5-11.5 1.2-1.6 2.6-3.4 5.2-2 .7.5 1.9.2 2.8.1 1 0 2.4-.8 2.7-.5 1 1.1 1.8 2.5 2 4 .4 1.8 0 3.8.2 5.7 0 .8.8 1.5 1.3 2.3.2-.7.3-1.4.6-2 .3-1.2.6-2.3 1.1-3.4.4-1 1.6-1.8 1.6-2.6-.3-3.6 1-3.8 4.3-3.7 2.6 0 5.3-1 8.1-.5 1.7.3 3.5 0 5.2 0 .8 0 1.6-.3 2.3-.2.7.2 1.5.6 1.9 1.1.2.3-.1 1.7-.3 1.7-2.3.2-5.3-.3-5.9 2.6-.4 2.3.5 4.8.8 7.3 0 .2-.3.5-.7 1zm-31.9-2.7c2-1.9 2-4.3 2-6.8l-.4-1.2-1 .7a14 14 0 00-3.5 9c0 .6-.2 1.1-.3 1.7.5-.3 1-.4 1.5-.8.6-.5 1.2-1 1.7-2.6zM649.5 170.4c-.4 4.2-4 2.7-6 3.4-4 1.3-4 .8-4.4 4.8 0 .8-.1 1.7-.6 2.1-.6.6-1.6.8-2.4.9-.2 0-.7-1.1-.8-1.8v-4.3c-.1-.8-.3-2.2-.7-2.3a6 6 0 00-3.1.4c-.7.2-1.4.9-.3 1.7.2 0 .1.6.3.8 1 1.5 1.8 3.4-.3 4.2-1.4.5-2.5-1.3-3.3-2.6-.7-1-1.7-2.4-2.7-2.6-1.8-.3-3 1.2-4 2.8-.7 1.3-1.6 2.6-2.7 3.6-.7.7-1.8.8-2.8 1.2 0-1-.4-2 0-3 1.3-3.3 2.8-6.7 4.3-10 .6-1.6 1-3.3 2-4.5.8-1.2 2.1-2.3 3.4-2.6 1.6-.3 2 1.2 2.3 2.8.3 1.9 1.1 3.7 1.9 5.5.2.5.9 1.1 1.4 1.1 3.4 0 5.1-1.5 5.3-4.7.1-3.6.2-2.8 4.2-3.2 2.6-.3 4.9-.4 7.3.3.6.2 1.4 0 1.7.4.6.5.8 1.3 1.2 2l-1.7.5h-6.2c-.8 0-1.7-.1-2.3.2-.6.3-1.3 1.2-1.3 1.8 0 .6.8 1.6 1.3 1.7 1.3.3 3 .6 3.8 0 1.6-1.3 3.3-.6 5.2-.6zm-24.3-2.1c-1.6 1-1.7 2.7-1.2 4.4 0 .2.7.4.7.3a71 71 0 002-4c0-.2-.4-.5-1.5-.7zM532.3 85c-1.2-1.7-1.4-4.6-4.3-2.2-.5.3-1.6-.1-2.4 0-4.3 1-4.4 1.4-4.6 6-.1 3.1-.5 6.2-1 9.3-.1 1.6-1.1 1.3-1.8.5a4 4 0 01-1-2.5c.2-2.7.5-5.5 1-8.2.6-2.7-.5-4.3-2.4-2.9-2.2 1.6-3.1-1.3-4.7-.3-.2-.3-.6-.7-.6-1 0-.4.6-.8.9-.9 5.6-.3 10.8-3.1 16.5-2.8 1.4 0 2.7.5 4 .7 1 .2 2.1.5 2.8.1 3.3-1.9 6.8-.4 10.2-.8.3 0 .7.3 1 .5-.3.3-.6.8-1 1-2.6 1-5.2 2.4-7.9 3-2.3.5-1.8 2-1.5 3.1.5 1.7 1.8.8 3 .4 2.1-.6 4.3-1 6.6-1.3.6 0 1.2.5 1.9.7-.4.7-.7 1.6-1.3 1.9-2.3.8-4.4 2.5-7.2 2.2-3.7-.3-5 1.6-4 5 0 .2.7.4.8.3 2.4-1.4 5.7.5 7.9-2 .1-.1 1 .1 1.2.4.2.3 0 1-.2 1.3-2.2 2.8-8.6 4.8-11.9 3.5-.7-.3-1.5-1.6-1.6-2.5-.1-3-.2-6 1.1-8.8.5-1 .5-2.3.5-3.7zM542.9 195.9c.9-2.9 1.4-5.5 2.4-8 .2-.7 1.7-1 2.7-1.4.1 0 .7.5.6.7-.8 3.3-1.6 6.6-2.6 9.9-.6 1.6-2 2.8-2.1 5 0 1.3-1.7 3.2-3.7 2.6-1.4-.5-2.8-1-3-3.3-.2-3.6-1.6-7.1.1-10.7.1-.3-.5-.9-.8-1.3-1 .7-2.4 1.2-2.9 2.2-1 2-1.7 4.2-1.9 6.4-.3 2.7-2 4.3-3.8 6-1 1.2-2 2.5-4 1.3-1.6-1.2-4.1-1.8-3.8-4.5.6-5.3 2.1-10.2 6.6-13.5.9-.7 2.5-.5 3.8-.4 1.8 0 3.7.7 5.5.4 2.8-.3 4.1.4 4.2 3.1v7.7c0 .6.3 1.1.4 1.7.5-.5 1.2-1 1.5-1.5.4-.7.4-1.5.8-2.4zm-13.2-2.2c-.4-1 1.5-2-.1-3-1.5-1-2 .4-2.7 1-2.6 2.2-3 5.2-3 8.3.1.6.6 1.2.9 1.9.5-.4 1.2-.5 1.5-1 1.2-2 2.3-4.2 3.4-7.2zM605.3 208.8c-4.7-1.8-4.7-5.8-4.5-9.4.2-2.4.5-5 2.3-7.2 2.7-3.4 3.6-3.7 7-.7l1 1.4c-.5 0-1.1.3-1.7.3-4.6.2-4.8.4-4.8 5.2v5.7c0 1.6 1.8 2.5 3.2 1.7 2.8-1.7 5.7-3.4 8.2-5.5.8-.7.8-2.5 1-3.8.7-2.8 2.5-5 4.5-5.2 3.4-.4 6.6.4 7 2.5.4 2.5 2.2 5 .1 7.9-1.5 2-2.4 4.7-3.6 7-1 2-3 2.3-4.5 1.7-1.6-.7-4-1.3-3.5-4.2.1-.7-.4-1.6-.6-2.4-.8.5-1.6.9-2.3 1.5-2.4 2.4-4.7 4.8-8.8 3.5zm14.6-9.3c-1.5 1.9-.3 3.9.2 5.7.4 1.8 2 1.8 3.2.5 2.4-2.7 2.7-6 2.4-9.4 0-.4-.6-.9-1-1.2-2.5-1.6-4-.5-4.8 4.4zM584.2 491.5c-2.7.5-3.9-.5-3.6-3 .4-3.2-1-6.5.8-9.7.2-.2 0-.8-.2-1.2-.3-1-1.4-2.6-1-3 1.2-1.1 2.8-2.8 4.3-2.8 3.9-.2 7.8.3 11.7.5 1.2 0 2.4.1 3.5-.2 3.7-1.2 7.3-.4 10.9.5.3 0 .7.7.6 1 0 .3-.4.8-.7.9-1.5.3-3.7.1-4.3 1-1 1.7-1.2 4-1.6 6l-1 7.3c0 .3-.3 1-.6 1-.4 0-1-.1-1.2-.4-.5-.8-1-1.6-1-2.4 0-3.7-.5-7.5 1.6-10.9.2-.3-.3-1.5-.7-1.5-4-1.1-12-.3-16 .8-2.3.6-1.2 2-1.2 2.9 0 1.5.9.8 1.9.6 1.7-.5 3.6-.4 5.5-.5.4 0 .7.3 1.1.5l-1.3.4c-1.6.6-3.2 1.4-5 1.9-2.5.6-4.3 3.7-3.2 6.1 0 .1.9 0 1.2-.2 2.1-1.4 4.2-3 6.4-4.3.7-.4 1.9-.1 2.9-.2-.3 1-.3 2.4-1 2.9l-8.8 6zM656.4 176.9c.4-2.1.2-4.1 1.1-5.3 2.2-2.8.2-2.4-1.5-2.4h-2.4c-.7-.1-1.3-.5-2-.7.7-.7 1.4-2 2-2 4.9 0 9.7-2.7 14.6-.2.6.3 1.7.2 2.3-.2 3.8-2.1 7.5.2 11.2.3.2 0 .6.7.6 1 0 .3-.6.8-.9.8l-8.7 1c-.6.2-1 1.2-1.6 1.7.6.5.8 1 2 .5 2.2-.7 4.8-.3 7.2-.2.6 0 1.2.8 1.8 1.2-.6.4-1.2 1.2-1.9 1.3-2 .2-4 .1-6 .4-1 0-2.2.4-3 1-.4.4-.6 1.6-.3 2.2.3.4 1.4.7 2 .5 1.9-.5 3.6-1.3 5.5-1.8.6-.2 1.3.4 2 .6l-1.4 1.2c-1.2 1-2.6 1.7-3.6 2.8-2 2-4.5.9-6.8 1-.5 0-1.6-2.2-1.5-3.4 0-2.6.6-5.1 1-7.7 0-.3.6-.8.5-1-.2-.7-5.3-1.7-6.6-1.2-1.6.5-2.3 2-1.7 3.3 1.6 3.4-.6 6.3-1 9.4-.2.6-1 1-1.5 1.6-.5-.7-1.2-1.2-1.3-1.9-.2-1 0-2.2 0-3.8zM742.6 394.6c1.3-.4 2.3-.6 3.4-.7 1.8-.2 3.5 0 3.5 2.5.1 1.8-1.3 3.8-3 4.2l-3.7.8 3.2 2.9c3.3 3.3 7.8 3.7 12 4.8.7.2 1.8-.7 2.8-1-.4-1-.6-2-1.2-2.7-2-1.9-4.2-3.6-6.3-5.4-.3-.3-.5-1-.4-1.3 1.6-3 7.7-5.7 10.5-4.8.5.2.9.8 1.4 1.2-.5.3-1 .7-1.4.6-2.5-.1-4.4.8-6.2 2.4-1.2 1-.7 1.5.1 2.1 1.1.8 2.4 1.5 3.3 2.4 1 1 2 2.3 2.7 3.7 1.8 3.6.2 6.4-3.8 6.7-1.6 0-3.3-.4-4.8-1-3.7-1.2-7.5-2.3-10.2-5.4-.5-.6-1.3-.9-2-1.2-.6-.4-1.6-2-1.7.5 0 1.3-1 2.5-1.7 3.6-.3.4-1.4.4-2 .2-.3-.1-.7-.6-.5-1.6.4-4 1.5-7.7 2.3-11.5.6-2.8.4-2.9 3.7-2zm-.7 3.6c2.2 1.5 3.7-1 5.7-1v-1c-2-1.4-3.6.2-5.4.7-.1 0-.2.2-.3 1.3zM653.5 447.6c4.3-.5 7.7-2.5 11.7-2 2.2.3 4.3.3 5.7 2.4.2.3 1.8.1 2.2-.3 1.3-1.6 2.9-2.2 5-2 1.2 0 2 0 2.6 1.6.7 1.5 1 2.5-.3 3.6l-1 1c-.8.8-1.3 1 .4 1.6 2.4.7 4 3.2 7 3 .4-.1.8.8 1.3 1.2l-1.7.7c-.7.1-1.5.3-2.3.1-3-.8-6.2-1.6-9.1-3.3-3-1.7-3.2-1.4-3.2 2 0 1.7.2 3.3-.1 4.8-.1.7-1.1 1.8-1.8 1.8-.6 0-1.6-.9-1.9-1.6-.3-1-.5-2.5 0-3.3 2-3.4-1.4-7 .5-10.5.1-.1-.3-.8-.3-.7-2.6.6-5.2 1.3-7.7 2.2-.3 0-.2 1.1-.2 1.8v5.7c-.2 1.3-.5 2.7-1 3.9-.6 1.2-1.5 1.2-1.9-.1-.4-1.5-.6-3.2-.7-4.7 0-.9.6-1.8.6-2.6.2-3.2.2-3.2-3-3.4-.5 0-1.1.2-1.5 0l-2-1.5c.7-.5 1.5-1 2.7-1.4zm21.2 1.5c0 .4-2 .8-.2 1.4h1.4a37 37 0 003.5-1.6v-1l-3.8.7c-.1 0-.3 0-1 .5zM615.4 151.7c-.3-.6-.3-.9-.3-1.2.1-1.1-.7-3 1.9-1.5 1.5.8 3.5.9 5.3 1 .7 0 1.5-.9 2.3-1.3l-1.5-1.6c-1.8-1.3-3.9-2.4-5.5-3.8-2.2-2-2-2.5-.3-4.7 2.5-3 5.8-3.2 9.3-3 .3 0 .7.1.8.3.5.6.8 1.3 1.2 2-.7.2-1.6.8-2 .5-2.9-1.6-4.5.3-6.1 2-.8.8-1 1.4.4 2 3.6 1.3 6 4 7.7 7.4.3.5 1 .8 1.5 1.2h.5c2.5-.4 6 2.7 7.2.3 1-2.3-3-3.5-5-5.2-2-1.8-2-4.4 0-6.5 3-3.3 4.5-3.7 7.9-2 .4.1.7.4 1 .7l-1.3 1c-1.3-2-2.7-.1-3.5.3-3 1.5-3 2.7-.6 5.2 1.3 1.3 2.8 2.6 4 4 .7.9 2.3 1.2 1.4 3-.8 1.6-2 2.9-3.5 3-3 0-6.1-.6-9.2-1-1.7-3.3-4.8-1.4-6.3-.7-3 1.4-5 .3-7.3-1.4zM568.8 227.5c-3.8-.6-6.5 1.2-7.4 5l-1 3.4c0 .4-.4.9-.6 1.3-.4-.4-1.2-.8-1.2-1.3-.2-1.1-.3-2.3 0-3.4l1.8-9.3c.3-1.4 0-2.2-2-2.2-4.1 0-4.4.2-4.7 4.3-.2 2.4-.6 4.8-1 7.2-.2 1-.8 1.9-1.3 2.8-.8-1.1-2.4-2.3-2.4-3.5.2-2.5 1.2-4.9 1.7-7.4.2-.9 1-3.2-1.7-1.5-.5.3-1.7-.3-2.4-.9-.8-.6-1.2-1.5.4-2 3.7-.9 7.4-2 11.2-2.7 1.1-.2 2.9 0 3.4.8 1 1.2 1.7 3.1 1.4 4.5-.2 1.3-1.7 2.4.4 3.2 1.3.5 4.3-1.4 4.7-2.8.1-.8-.3-2 0-2.4.7-.7 1.8-1 2.8-1.4.1 0 1 1.3 1 2 0 3-.4 6-.6 9l-.4 5.3a4 4 0 01-.7 2c-.3.5-1 .6-1.6.8 0 0-.5-.8-.5-1.1.1-3.2.3-6.3.7-9.7zM619 535v-8.6c0-.4.4-1 .7-1 .4 0 1 .2 1.1.5.5 1.3 1 2.6 1 3.9.2 2.5 0 5.1 0 7.7.1.4.6.9.9 1.3.3-.4 1-.7 1-1.1l2-7.3c.2-.7.1-1.7.6-2.2.6-.7 1.6-1.2 2.5-1.9.6 1 1.4 2 1.6 3 .5 2 .7 4.2 1 6.3.2.5.6 1 1 1.2.2.2 1-.2 1-.6.5-.7 1.1-1.9.9-2.4-1.4-2.9.6-5.6 0-8.4-.3-1.4.5-2.7 1.8-2.8 1.7-.1 2 1.4 2.1 3 .5 4.6-.5 9.1-2 13.4-.4 1-.3 3-2.5 2.7-1.8-.2-3.5-.2-4.2-2.4-.4-1.2-1.2-3.2-1.7-3.2-2.5.1-.2 2.7-1.6 3.6l-.5.8c-.7 1.5-.8 3.6-3.4 3.1-2.6-.4-2.7-2.6-3.3-4.3-.3-1.2 0-2.6 0-4.3zM604.8 370.6l4.7 1.2c1.5.3 3.3.3 3.7 2.3.4 2.3-.2 4.5-2 5.9a51 51 0 01-8.5 5.1c-1.7.8-3.6 1.6-5.5-.8-2.1-2.5-5.2-4.3-8-6.2-1.4-1-2.9-1.5-3 1.4 0 2-.5 3.9-.9 5.8 0 .3-.5.6-.8.9-.3-.4-1-.8-1-1.2.2-4.5.5-9 1-13.5 0-.5.5-2.2 2.2-1 .6.4 2.3-.8 3.5-1.2 1.8-.6 4 .3 4.7 1.9.6 1.3-.8 3.6-2.5 4.4-.5.2-.9.7-1.3 1 .3.3.6.9.8.9 3.2 0 5 2.3 6.9 4.3 1.5 1.8 2.8 2 4.7.3 2-2 4.6-3.4 7-5.2 1-1 1.7-2-.7-2.3-.8-.1-1.6-.6-2.5-.9-3.5-1.1-4.5-.4-4.6 3.4 0 1.3 0 2.6-.2 3.8 0 .5-.8 1.3-1.3 1.3-.4 0-1-.7-1.3-1.2-.2-.5-.2-1.3-.1-1.9.3-2 .8-3.8.9-5.8.2-3.5 0-3.5 4.1-2.7zm-17.5 3.6c2.1 1.2 3.8.4 5.1-1.4.2-.2.3-.7.2-1l-1-1c-1 1.4-3.7.4-4.3 3.4zM640.8 497.3c1.6-1.3 2.8-2.4 4.3-3.2.6-.4 1.7-.2 2.5 0 .4 0 .7.6 1 1-.3.2-.7.5-1 .5-2.7 0-3.6 2.4-5 4-1.3 1.3-1 3.2.6 4.4 1.2 1 2.6 1.8 3.7 2.8 1.3 1.1 3 2.4 2.1 4.3a5.3 5.3 0 01-6.8 2.4c-1.2-.4-2.8-.8-3.5-1.7-2.2-2.7-4.1-1.9-6.4-.3-1 .7-2.2 1-3.2 1.4-3.9 1.7-7.1-.2-7.2-4.4-.2-4.7.6-9 5.4-11 1.4-.7 3-.9 4.4-.8.6 0 1.7 1.4 1.6 2-.3 1.5-1.2.5-2 .2-1.8-.7-4.6 1-5.6 3-.7 1.5-1.2 3-1.7 4.6-.7 1.9.2 3.3 2.3 3.5 2.5.3 4.8-.3 6.8-2 1.6-1.4 3.2-2.8 5.4-.3 1 1.3 3 1.7 4.7 2.3.5.1 1.1-.3 1.7-.5l-.8-1.4c-.5-.4-1.1-.5-1.5-1-4.7-4-4.7-4-1.8-9.8zM739.7 542c-.4-1.7-1.2-3.5-.6-4.3 2.4-3.8-.7-2.6-2.2-2.7-3.6-.1-3.6 0-4.7 3.8-.2.7-.9 1.3-1.3 1.9-.5-.7-1.5-1.5-1.4-2.1.1-2.1.7-4.2 1-6.3l.8-3c0-.3-.2-.8-.3-.8-2 .2-3.9.4-5.7.8-.4 0-.8 1.3-.7 2 .4 3-1 6.2.8 9.2.1.2-1.4 1.7-2.3 2-1.4.6-1.4-.6-1.4-1.6v-7.7c0-3.4 0-3.4-3.5-4-.5 0-.9-.3-1.3-.4.3-.4.6-1 1-1 2-.6 4-1.1 6.1-1.4 1.7-.3 3.8.3 5-.5 2.3-1.4 3.3.5 4.4 1.3.5.4.4 2.1 0 3.1-.4 1.3-.3 1.7 1 1.8 3.3.3 4.9-.6 6-3.8.2-.7.1-1.7.6-2.2.3-.4 1.3-.8 1.9-.7 1.8.4 0 .9 0 1.4-.3 1.9.5 3.3 2 4.4.7.4 3.5 1.7-.1 2-.4 0-.8 1-1 1.5l-2 7.4c0 .2-1.2 0-2.1-.2zM713 567.6c-1.3-1.2-2.3-1.1-3.7-.6-2.1.7-4.3 1.3-6.6 1.5-1.8.2-3.5-2-3-3.8.1-.7.9-1.3 1.3-1.9.2.6.5 1.2.5 1.7 0 1.6 1.2 1.3 2 1.2 1-.2 2-.6 3-1 1.3-.5 1.2-1.3.1-1.9-2.7-1.3-4.4-3.3-3.9-6.4.5-2.4 4.7-5 7.8-5 1.5-.1 3.3-.6 4.3 1.2v1.2l-1-.3c-2.1-1-3.9 0-5.5 1.2-2.7 1.8-2.6 2.6 0 4.9 1.2 1 2.1 2 3.1 3 1.7 1.6 3 3.8 6 3.1.7-.1 1.5.4 2.3.6-.4-.8-.6-1.7-1.2-2.3-1.7-1.8-3.4-3.9-2.4-6a9 9 0 016.6-5.3c.5-.1 1.3-.4 1.6-.1.6.4.8 1.2 1.2 1.8-.5.3-1 .8-1.4.7-2.2-.4-3 1.3-4.3 2.4-1 .8-1.6 1.6-.3 2.7.4.4.4 1.1.7 1.6 3.1 4.3 3.3 4.8 1.1 6.6-.8.7-2.2.8-3.3 1.1-2 .5-3.3-.4-5-1.9zM686.2 171.1c0-2-.4-3.7 1.3-4.7.5-.3.8-.6 1.7-.6 3.7 0 7.5-1.6 10.7 1.4 1.5 1.3.7 5.3-1.2 6.8-2.5 2-2.5 2 .2 3.8 1.6 1.1 2.9 2.3 2.8 4.5l.3 2.3c-.9-.3-2-.3-2.6-.8l-8.4-6.3c-.4-.4-1-.3-1.6-.5v1.7c.4 1.6-1 4.1-2.3 3.9-1.4-.2-2.1-1.3-1.9-2.8.5-2.7-1.1-5.6 1-8.7zm8.1-2.8c-2.6-.6-2.6 1.6-3.3 3-.2.5.2 1.6.5 1.7 1.6.1 3.5.4 4.4-1.6.4-.8.5-1.9.6-2.8l-2.2-.3zM734.4 679.2c.8-.8 1.5-1.3 2-2l1.6-3-3.2-1-1.6-.6c.4-.6.6-1.7 1.1-1.8 2.6-.8 5.2-1 7.6.5.4.3.9.9.9 1.3l-1 11.6c0 .6-1 1.2-1.6 1.7l-1.6.8c-.2-.6-.6-1.1-.5-1.7.1-1.6.4-3.2.7-4.8l-4 3.5c-1.9 1.3-5.3 1.5-6.5.3-1.1-1-1.7-2.5-2.8-3.6-1.5-1.4-.4-2.5-.1-4 1-5 3.5-9 7-12.5 1.4-1.4 2.9-1.6 4.6-.8.4.2.7.7 1 1l-1.2.5c-3 .1-4.5 2-5.5 4.6l-2.6 6.1c0 .2-.3.3-.3.4 0 2-.6 4.3 1.8 5.5 1.7.8 2.9-.6 4.2-2zM668.9 121.2c1.1-.3 1.9-.5 2.5-1 .8-.7 1.8-1.4 2.2-2.3.4-1.1.4-2.5-1.5-2.7-.4 0-.8-.8-1.2-1.3.6-.4 1.2-1.1 1.8-1.3 3.7-.8 6.6 1.4 6.7 5.2.1 3.2.3 6.5-2.2 9.1-1.2 1.2-2.5 1.6-3 0-.7-2.5-2.4-1.8-4-1.8-2.2 0-4.2 0-6-2-1-1.4-1.3-2.6-1-4 1-4.5 2.4-9 6.2-12.2.6-.6 1.6-.9 2.4-1 .6 0 1.3.5 1.9.7-.3.5-.5 1.3-1 1.5-5 3.2-5.4 8-3.8 13.1zM588.3 119.3a7.8 7.8 0 00-2.9 1.8c-.2.4 0 1.3.3 1.8.1.2 1-.2 1.6-.2l9.8-.5c.5 0 1 .7 1.4 1.1l-1.4 1c-1.7 1.6-3.8 1.7-6 1.8-1.5 0-3 .5-4.4.9-2.8.6-4-.5-4.2-3.4-.4-3.7.8-7.4-.9-11.1-.7-1.5 1.4-3.3 3.8-3.8 2-.3 4.2-.8 6.3-.9 2 0 3.9.6 5.8 1 .5 0 .9.5 1.3.8-.4.4-.8 1-1.2 1-3.2 0-5.8 3-9.2 2-.4 0-1.1.5-1.5 1-.5.4-.9 1-1.3 1.6.6 0 1.2.3 1.8.2 2.5-.4 4.9 0 7.3 0 .4 0 .8.4 1.2.6-.2.4-.4 1-.8 1.4a8.1 8.1 0 01-6.8 1.9zM535.5 640.6c-1.9 1-3.2 2-4.6 2.8-1.6.9-3.3 1.4-4.8 2.3-2.3 1.3-4 .6-4-2.1 0-1.6.5-3.3.9-4.9l2.9-9.8c.1-.4.9-.5 1.3-.8l.6 1.2c.2 4-1.3 7.7-2.5 11.4-.2.5 0 1-.1 1.6.5 0 1.1 0 1.6-.3 2.8-1.4 5.5-3 8.9-2.7.5 0 1.4-1 1.6-1.6.5-2 .6-4 1.1-5.8.2-.7 1.2-1.3 1.8-1.9.3.7 1 1.5 1 2.1l-1.2 6.3c0 .5-.7 1-.7 1.6l.2 4.2c1-.8 1.8-1.7 2.8-2.2 2.6-1.5 5.3-3 8.6-2.4.3.1.8.5.8.8 0 .4-.2 1-.5 1.1l-10 6.2c-1.4.9-2.8 1.1-4.2-.2-1-1.2-2.3-2-1.2-4 .4-.8.1-2-.3-3z"/>
  <path fill="#00EBAB" d="M497 448.6c-1.3-1.8-2.2.3-3 0l-1.7-1.5c.4-.4.8-1.2 1.3-1.3 2.6-.4 5-.2 7.6-1.5 1.8-1 4.7 0 7 .5 2 .3 3.9 1 3.3 3.8-.3 1.6.6 2.8 2.3 2.8 1.7 0 4 .7 4.4-2.1 0-.5 0-1 .2-1.4.5-.8 1.2-1.5 1.8-2.2.3 1 .9 1.9.8 2.8-.2 3.9-.5 7.7-1 11.6 0 .6-.8 1.2-1.3 1.8-.5-.5-1.3-1-1.4-1.6-.3-1-.5-2.5 0-3.3 2.3-3.4-.4-2.6-2.1-2.7h-2c-2.3-.4-3.2.5-2.7 2.8 0 .5.2 1 0 1.4l-1.6 2.4c-.5-.8-1.3-1.6-1.2-2.4.3-3.3.6-6.7 1.5-10 .4-1.5.4-2-1.2-1.8-2 .2-4 .5-5.8 1.1-.6.2-1.4 1.7-1.2 2.2 1.4 2.9-1 5.6-.2 8.4.1.4-.8 1-.8 1.5-.2 1.2-.7 1.5-1.2.4-.6-1.1-2-1.8-1-3.8 1-1.9 1-4.4 1.1-6.7 0-.4-.9-.8-1.8-1.2zM726.7 468.5c.8 1.3.9 2.4 2.8 2.2 2.8-.3 5.7-.2 8.6 0 1 0 1.8.9 2.8 1.4-1 .4-1.8 1.2-2.7 1.4-1.6.2-3.3.3-4.8 0-1.3-.4-2.1 1.5-3.6.1-1-.8-2.5 0-3.2 1.3-.3.8-.6 1.9-.4 2.6.7 1.6 1.4 0 2.1-.2l7.3-.9 1.3.3c-.4.5-.6 1.2-1 1.3-1.6.6-3.2.9-4.8 1.3l-3 .8c-.9.3-2.4.4-2.5.7-.2 1.6-.1 3.2 0 4.8.1.2 1.7.6 2.2.3 1.7-1 3-2.6 4.8-3.4.7-.4 1.7-2 3-.4 1.2 1.3 0 1.9-.6 2.6-1.7 1.7-3.2 3.7-5.1 5-3 1.9-6.1.7-7.2-2.8-1-3-1.7-5.9-.2-9.3 1.3-3 1.5-6.6 3.3-9.6h.3c.2 0 .3.1.6.5zM571 637.7c0-2.2-.2-4 0-5.7.1-1 .9-2 1.3-2.8.5 1 1.4 2 1.5 3 .2 2.6 0 5.4 0 8l.1 2.5c0 .3.6.7.9.7.3 0 .9-.4 1-.7.6-2.7 1.2-5.5 2-8.3 0-.5.6-1.3 1-1.4 1-.3 1.8-.2 1.8 1.3 0 1.3.8 2.6.9 4 .2 1.5 0 3.1.1 4.7 0 .5.8.9 1.3 1.3l.5-1.5 2-7.8c.2-.9.4-1.8 1-2.4.4-.5 1.4-.8 2-.6.4.2.9 1.3.8 1.8-.9 3.5-1.8 7-2.9 10.3-1 3.1-2.6 3.4-5.5 2.4-1.8-.7-.9-1.7-1.2-2.5l-.7-1.5c-.4.5-1 1-1.2 1.5-.4 1.1-.4 2.4-1 3.4-.7 1-2.1 2.7-2.9 2.6-1.5-.3-3-1.5-2.9-3.7.2-2.7 0-5.4 0-8.6zM559.2 97c-2.2.9-4.5 1.1-6 2.3-2.4 2-3.9 0-5.3-.8-1.6-1-.7-2.8-.3-4.5.8-3.4 1.2-7 1.2-10.5 0-2.5 1.5-3.4 3.1-3.5 4.2-.3 8.3 0 12.5 0l.7.3-1 .6-6.4 1.9c-.6.2-1.4 0-1.8.3-1.1.8-2.1 1.9-3.2 2.9 1.3.2 3 1 3.8.5 1.8-1 3 .7 4.6.2.3 0 1.1 1 1.1 1.4 0 .5-.6 1.3-1.1 1.4-2.2.4-4.5.8-6.8 1-1.7.1-2.5.8-2.6 2.6 0 2 1 3.1 2.4 2 1.7-1.2 3.3-.6 5-.7.7-.1 1.4.2 2.2.3l-2 2.3zM550.8 202.8c-2.4-3.2.3-5.5.8-8 .7-3.4 3.4-5.4 5.8-7.6.6-.5 1.9-.3 2.9-.4-.3 1-.2 2.5-.8 2.9-3 1.6-3.8 4.7-5.3 7.3a5 5 0 00-.5 2.7c.2 1.6 1.3 2.4 3 2.1 1-.1 2-.4 2.9-1 1-.6 1.8-1.6 2.7-2.4-1-.1-2.4 0-3.2-.5-1.1-.7-1.7 2-2.5.3-1-2 1.1-2.4 2.1-2.7 2.2-.7 4.4-1 6.7-1.3 2-.2 2.9 1 2.7 2.9-.3 2.4-.5 4.9-1 7.2-.3 1-1.8 2.4-2.3 2.2-1.3-.5-2-1.8-1.3-3.4.2-.4.6-.7.7-1.1.1-.3-.1-.6-.2-.9-.2 0-.5.1-.7.3-1 .7-1.8 1.7-2.8 2.4-5.2 3.3-6 2.2-9.7-1zM639.1 198a58 58 0 003 7c.3.5 1.3 1.3 1.7 1.1 1.1-.3.3-1.1.3-2-.3-3.7-.3-7.6 0-11.4 0-.8 1-1.6 1.7-2.4.6.8 1.9 1.5 1.9 2.2.2 5 .2 10 0 14.9 0 2-2.2 3-4 2.1-3.7-1.7-6.2-4.3-6.5-8.6 0-.3-.8-.6-1.2-1l-.7 1c-.3 2.5-.5 5-1 7.3-.3.9-1.7 2.3-2.3 2.1-1.4-.2-.9-1.4-.7-2.7.7-4 .7-8.3 1.2-12.5 0-1 .8-1.8 1.3-2.8.9.5 2 .9 2.6 1.6 1 1 1.8 2.4 2.7 4.1zM510.5 214.3l1 6.3c0 .5.2.9.3 1.3.5-.4 1.2-.7 1.3-1.2.3-.7 0-1.7.3-2.2.6-.9 1.6-2.1 2.5-2 .7 0 1.8 1.2 2.2 2.1.5 1.4.5 3 .8 4.4 2.7-.5 0-3.6 2.1-4.5.3-.1.1-1.5 0-2.3-.1-1.5.4-2.3 1.8-1.8 1 .3 2.5 0 1.4 2.3-1 2.2-.8 5-1.3 7.6a7.6 7.6 0 01-1.3 3.3c-.7.9-1.9 1.4-2.9 2l-1.5-3-1.5-4.5c-.5 1.6-1.3 3.2-1.3 4.7.1 2.4-1.2 4-2 5.9-.7 1.4-2 1.2-2.8 0-.6-.9-.9-2.1-1-3.3-.6-4.6 1-9.4-.9-14-.3-.8.8-2.9 2.8-1zM579.9 95.5c-1.8 2.1-3.1 2.3-5 .5-2.4-2.5-3.3-5.7-5-8.5-.1-.4-.8-.6-1.3-.8.1.4.3.8.3 1.3 0 2.7.9 5.6-.8 8.2-.4.7.4 2.3-1.2 1.9-1-.3-1.8-1.2-2.6-2-.2-.1 0-.6 0-1 .6-4 1.2-8 2-12 0-.7.7-1.3 1-2 .8-1.1 1.7-1.2 2.4 0l4.1 7c.7 1.1 1.2 2.4 1.7 3.6l.7 1.6c.2-.5.5-1 .5-1.6V85c0-.8-.2-1.7 0-2.4.7-1.2 1.9-3.4 2.5-3.3 1.6.2 1.5 2.1 1.3 3.5-.2 2.2.2 4.2-.6 6.5-.6 1.5 1.4 3.8 0 6.2zM602 220.3c.4-.3 9.7-.2 9.9-.1 2.1 1 2.7 3.2 1.6 5.9-1.2 2.7-1.2 2.7 1.7 3.6 2.3.7 4.6 1.2 6.8 2 .7.2 1.2.9 1.7 1.4-.6.5-1.2 1.3-1.8 1.3-3.3 0-6.7.8-9.9-1.4-1.2-1-3-1-4.6-1.4-3.1-.6-3.7-.2-3.8 2.4 0 .7.3 1.5 0 2-.6.8-1.5 1.5-2.3 2.3-.5-1-1.4-2-1.4-3 0-2 1-4 .7-5.9-.3-1.7 1.4-3.1.3-5-.5-.9.5-2.5 1-4zm3 2.7l-1.4 3.2 3 .6c.8 0 1.7.3 2.3 0 1.2-.7 2.4-1.4 3.3-2.5.4-.5-3-2.6-4.2-2.3-.7.2-1.3.7-3 1zM751.5 558c1.4-2.4.1-5.4 2.6-7 1.3-.9 1.7-1.2 2.2.6 1.2 4.8.8 9.6 1 14.5 0 1.2-.5 1.8-1.7 1.5-.5-.2-1.2-1-1.2-1.4 0-2.1-.5-4.3.8-6.3.5-.7.2-2 0-2.9 0-.3-.4-.6-.7-.9-.4.3-1 .7-1 1a21 21 0 01-3.9 11c-1.8 3-3.3 3.4-5.3.5-.8-1.3-1.1-3-1.4-4.7-.3-1.2-.1-2.5-.4-3.7 0-.4-.8-.7-1.3-1l-.3 1.2c-.6 2.8-1.2 5.6-2 8.3-.1.4-1.2.9-1.8.7-.4 0-1-1-1-1.5l3.2-11.6c.2-.7.5-1.5 1-2 .7-.7 1.6-1.1 2.4-1.7.3 1 .8 1.9 1 2.9.8 3.5 1.3 7.1 2 10.7.2.5.9.9 1.4 1.3l.6-1.4c1.3-2.6 2.5-5 3.8-8zM582.5 537.9c0 1.4.2 2.4 0 3.3-.3.6-1.3 1.4-1.8 1.3-.7-.1-2-1-2-1.5-.1-5.4-.2-10.9 3.8-15.2 2-2 2.5-2 3.8.4 1.7 2.8 3.2 5.7 4.8 8.5.6 1 1.3 1.7 1.9 2.6l.7 1.4.3-1.3v-10c0-.7.4-1.3.7-1.9.7.7 1.7 1.2 2.1 2 .4.7 0 1.8 0 2.8 0 3 .2 6 0 9 0 1.2-.6 2.9-1.4 3.2-1.3.5-3.2.5-4.2-1.2l-3.9-7c-.4-.8-.5-1.7-1-2.4-.6-1-1.3-1.8-2-2.7l-.8 3.3c-.4 1.6-.7 3.3-1 5.4zM537.1 242.4c.3 2.2.3 4 .3 6 0 1.7-.2 3.4 1.6 4.6 1.5 1 2 2.4.4 4-1.8 1.7-3.3 3.8-5.4 5.2-2 1.3-7-1.3-7-3.6-.1-4.4.4-8.7.8-13 0-.4.6-1 1-1 2.8-.5 4.9-3.5 8.3-2.2zm-2.1 15.1l1.2-2.6c-1.1-.4-2.2-1.2-3.3-1-.8 0-2 1-2.1 1.8-.2 1 .5 2.2.9 3.3.7-.5 1.5-1 3.3-1.5zm-2.4-10l-1 2c.7-.1 1.7 0 2-.3.8-.9 1.3-2 1.8-3 0-.2-1-1-1.5-1-.5.1-.9.8-1.3 2.3zM652.6 97.2c-3.7-.2-6.2-1.8-8.4-4-.4-.4-1-.5-1.6-.8-.2.5-.5 1-.6 1.6 0 2 .2 4.9-2 5-2.8 0-1.7-3.2-1.8-5v-8.6c0-.6.3-1.5.6-1.5.7-.1 2 0 2.1.3.8 3.3 2 .1 2 0 .9-3 3.4-3.1 5.8-3.3 2.2-.2 3.2 1.3 3.8 2.8.9 2.2 0 4.9-1.7 5.8l-3 1.6 3 2c1.4 1 2.8 2 4 3.1.4.3.2 1.3.2 2-.6-.4-1.3-.7-2.4-1zm-6.7-13l-1 1-1.8 3 3.8-.2c.4 0 1-.1 1.2-.4.9-1 1.6-2.1 2.4-3.2l-3.2-.6c-.3 0-.7 0-1.4.5zM540.3 175c-3 1-4.6.5-5.8-2-.8-1.7-1.3-3.6-2-5.3-.3-.6-1-1-1.4-1.3l-.5 1.7c-.4 1.3 1.1 2.4.2 4-.6 1.3-.8 2.9-2.4 2.7-.6 0-1.5-1.9-1.5-2.9.1-3.9.4-7.7 1-11.5 0-1 1.2-1.8 1.9-2.7.5 1.3 2.5.3 2.9 2.3.5 3 1.8 5.6 2.7 8.4.5 1.5.3 3.4 2.5 3.7-.2-1.4-.1-3-.6-4.2-1.2-3.5-1.5-6.8.5-10 .5-1 1-1.2 2-.3.8.5 2 .7 1.2 1.7-2.8 3.4-.5 6.7 0 10 .1 1.5.8 2.9 1 4.3 0 .4-.8 1-1.7 1.4zM672.7 378.5h1.4c.2 2.2 3.9-.4 3.2 2.2 0 .6-2.7.5-4.2.7h-1c-1.6-.3-3.5-1.2-4.7-.6-1.2.6-1.6 2.7-2.4 4.1-.2.5-.6.9-.9 1.3-.3-.6-1-1.2-1-1.7.5-2.8-1.5-2.4-2.9-2-2.3.4-4.4 1.5-6.7 2.2-1.1.3-2.3.2-3.5.3-.1-1-.5-2.2-.2-3.2 1-3 2.2-6.1 3.4-9.1.3-.9.8-1.6 1.3-2.3.3-.3 1-.6 1.2-.5.3.4.8 1 .7 1.5-.6 1.6-1.2 3.3-2 5l-1.4 3.1c-.2.8-.1 1.8-.1 2.6.6-.2 1.4-.3 1.8-.8 2-1.6 4.3-.7 6.4-.9 3-.1 3.7-.7 4-3.6V372c0-.7.1-1.5.5-2.1.3-.5 1-.9 1.5-1 .2 0 .6.9.8 1.3v1l.7 2.5 2.2-1.5c.7-.4 1.2-1.2 1.9-1.3 1.2-.2 2.4.1 3.7.2-.9.7-1.7 1.5-2.6 2-1.2.7-2.5 1-3.6 1.8-.6.3-.9 1.2-1.3 1.8l1.8.8c.6.3 1 .7 2 1zM614 534.7c-1.4 2.7-2.8 5-3.6 7.5-.6 2-1.5 2.5-3.3 2.4-1.3 0-2.7.3-3.8-.1-1.3-.5-3.3-1.7-3.4-2.6-.2-4.1-.9-8.4 2.4-11.9.8-.8 1.3-2 2-3 1.8-1.9 4-3.3 6.5-2.4 2.5.8 3.2 3.2 3.4 5.6a20 20 0 01-.3 4.5zm-3.7-4l-1-3c-.8.5-1.9.8-2.3 1.5a56.4 56.4 0 00-4 8c-.2.6.9 1.9 1.4 2.8 1 2 1.8 2.2 2.9.4 1.6-2.7 2.8-5.6 3-9.7zM646.6 110.9l6.7 7.6 1.6 1.7c.2-.8.5-1.7.5-2.6l.1-8.1c0-1 1-1.8 1.5-2.6.4.7 1.2 1.5 1.3 2.3v13.4c0 .8-.7 2-1.3 2.2-.9.2-2.3 0-2.9-.7-2.2-2.5-4.2-5.2-6.3-7.8-.4-.4-1-.6-1.4-.8-.2.4-.5.8-.5 1.2v7.1c0 1.6-.3 3.1-2 3-1.4 0-1.8-1.3-2-2.7-.3-2.6 0-5.2.1-7.8.1-1.6-.1-3.4.6-4.5.5-.9 2.4-.8 4-1zM583.2 220.3c-.9.1-1.6.7-2.2.7-2 0-1.2 1.4-1.4 2.3-.2 1.3.4 1.7 1.6 1.6h5.8c.4 0 .8.6 1.3.9-.4.3-.8.8-1.2 1a32 32 0 01-3.5 1c-3 .7-5 2.7-5 5.1 0 1.5.3 2 2 1.2 2.6-1.4 5.4-1.8 8.4-1.5.4 0 .8.3 1.1.5l-.7.7c-3.1 2.6-7 3.3-11 3.6-1.6.1-2.6-.8-2.6-2.5 0-4.8-.2-9.6 0-14.3.1-1.2 1.6-3.2 2.4-3.2 3.5 0 7 .5 10.6.8l.4.8c-.1.4-.4 1-.6 1-1.7.3-3.4.4-5.4.3zM712.8 597.1c-3.3-.1-2.7-2.2-2.4-4.3.5-3.7 2.5-7.4.8-11.3-.2-.4.2-1.2.6-1.6 2.5-2.4 9-2.2 11.3.3.4.3.4 1 .5 1.6.1 1.5-.5 3 1.8 3.6 1.3.3 1.5 2 .8 3.1-1 1.4-1.7 3.2-3 4-3.3 1.7-6.8 3-10.4 4.6zm4.6-4.5l5.9-4c.2-.3.2-1.5 0-1.6-2.7-1.4-5.6-.8-8 .2-2.2.8-1.4 3.3-1.2 5 .2 2.6 1.4 1.3 3.3.4zm-3.4-9.1c2.1 1.1 4 .3 6-.5.3-.2.7-.7.7-1 0-.3-.5-1-.7-.9-2 .2-4.4-1-6 2.4zM612 136.3l-8.6 2c-.7.2-1.1 1-1.7 1.5.7.4.7 1.5 2.4 1 2.2-.8 5.2-1.3 7.6.5l1.5 1.2-1.4.8c-2.6 1.8-5.7-.5-8.4.9-.8.4-2 0-1.7 1.5.2 1.5-2.5 3-.2 4.5.3.2 1 .3 1.3.1l5-3c.3-.1 1-.2 1.2 0 .3.3.5 1 .3 1.3-1.3 2.8-6 5.4-8.7 5.3-2-.1-2.8-1-2.8-3 .1-4.3-.4-8.7 1-13 .4-.9 1.4-2 2.4-2.2a42 42 0 017.4-1.6c1.2-.2 2.6.2 3.8.6 1.8.5-.1 1-.4 1.6zM517.2 157.7c1.6 2.4 2 5.6 5.3 5.8.2 0 .6 1.1.4 1.2-3 2.5-1.5 5.8-1.9 8.8-.1.8-.9 1.6-1.3 2.3-.5-.8-1.4-1.6-1.5-2.5-.2-2 0-3.9-.1-5.8 0-.4-1-1.2-1.4-1-3.9.6-5.8 3-6.2 7.1v.5c.2 1.5-.5 2.4-2 2.7 0 0-.7-1.6-.9-2.6-1-5.7 2-10.6 3.6-15.7.3-.9.8-1.6 1.3-2.4 1.3-1.8 2.5-1.6 3.7 0 .3.5.7.8 1 1.6zm-3.8 2.4l.6.6c1 .7-.7 3 1.5 2.6.4 0 .4-2.3.4-3.5 0-.7-.4-1.6-1-1.9-1-.6-1.7 0-1.5 2.2zM631.2 87.9c1.6.9 2.1 4.2 4.6 1.7l.5 1.2c-4.5 1.3-1.6 4.6-2 7v.9l-.8 2.4c-.7-.7-1.5-1.3-2-2.2-.3-.6 0-1.5 0-2.3-.2-2.9-1.6-3.9-4.4-3.2-4 1-4.3 1-6.8 6-.7 1.4-1.4 2.1-2.6 1.6-.6-.3-1.8-.6-.9-2.3 2-3.9 3.4-8.2 5.1-12.3.4-1 1.4-1.7 2.2-2.4 2.1-2 4-1.7 5.4.9l1.7 3zm-3.1 1.6l-1-2.8c-.7.4-1.7.7-2.2 1.3-.5.7-.8 1.9-.5 2.6.7 1.8 1.6-.5 2.5-.2.5.2 1.1-.2 1.2-.9zM530.7 449.5v2.4c.4-.1.8-.3 1.3-.3l8.1-.1c.3 0 .7.3 1 .5l-1.3.4-7.8 2c-.5 0-1.3.5-1.3.8.2 1.4.5 3 1 4.4 0 .1 1.3.2 1.8 0 1.4-1 2.6-2.2 4-3 .7-.3 1.8 0 2.6 0 0 .8.3 1.8-.1 2.2-1.6 1.5-3.2 3-5 4.1-3.3 2-5 1.2-7-2-2.4-3.9-1-8-1-12 0-1.2.3-2.5.8-3.4.5-.8 2.3-1.6 2.4-1.5 2 2.7 5.6 1.2 8 2.7l2.8 1.6c-1 1.4-1.8 1-3.4.5-2.1-.7-4.6 0-7 .7zM527.8 106.6c-2.4.5-5 1.3-7.3 1-2.6-.2-3.2 1.2-3.9 3.1-.7 2-.7 3.1 1.8 2.8l4.9-.8c.3 0 .6-.2.9-.1l3.5 1.5c-.8 1.2-1.9 1.4-3.3 1.4-1.5 0-3 1-4.4.8-3-.5-3.7 1.8-4.6 3.5-.4.8.1 2.1.2 3.2.8-.4 1.5-1 2.3-1 2.5-.4 5-.6 7.4-.8.2 0 .5.5.5.7 0 .4-.2 1-.5 1.2l-10.8 3.8c-.2 0-.9-.6-1.1-1-2-3.2-1-6.7-.8-10 .2-2.9 1.3-5.6 1.7-8.4.2-2 1.2-2.7 3-2.6 3.6 0 7.2-.4 10.5 1.7zM735.1 610.8c-.1-2.9 1.8-2 2.7-1.8.8.2 1.9 1.2 2 2 .4 1.7.1 3.5.2 5.3 0 .4.2.8.4 1.2.3-.3.8-.6 1-1 .5-1.7.7-3.6 1.5-5 .6-1.1.7-3 3-2.7 2 .3 2.9.4 2.7 2.6-.2 3.3 0 6.7 0 10 0 .8.1 1.7-.1 2.4-.2.6-.9 1.2-1.3 1.3-.5 0-1.3-.8-1.3-1.2 0-2.2.3-4.3.3-6.4l-.2-4.8c-2.2.5-1.8 2.8-2 4a9.9 9.9 0 01-3 6c-1.1 1-1.3.8-2.2-.7-1.3-2.3-.4-4.6-.8-6.9-.1-.5-.5-1-.7-1.4-.4.5-1 1-1.2 1.5-1 3.1-1.9 6.3-3 9.4-.1.6-1 1-1.5 1.4-.3-.8-1-1.8-.8-2.6.3-1.9 1-3.7 1.6-5.5l2.7-7zM769.7 509c1 0 1.3-.2 1.8-.3l2.9-.2c-.4.8-.6 1.7-1.2 2.3-2.3 2.3-4.9 4-8.4 4-3 0-4.6-1.2-4.6-4.3 0-4.3.4-8.7 1-13 0-.7 1.4-1.8 2.2-1.8 4.1.1 8.3.5 12.5 1 .2 0 .5.7.5 1 0 .3-.6.8-1 .8h-7.1c-1.7 0-3.7-.5-4.3 1.8-.4 1.4 1.5 2.2 4.5 2h1.4c.9-.1 1.7-2 2.5-.3.2.3-1.3 1.7-2.2 2.2-1.4.6-3 1-4.4 1-2.4 0-2.6 1.9-2.7 3.3 0 .7 1.3 1.8 2.2 2.3.6.2 1.6-.5 2.4-.8l2-1zM521 260.4c-1-1.2-1.5-2.4-1.8-3.7-.3-.9 0-2.5-.4-2.6a7.3 7.3 0 00-3.6-.4c-3.5.6-4.3 1.4-5.6 6-.3 1.3-.6 2-1.9 1.6-.5-.2-1-1.4-1-2 .1-1.4.5-2.7 1-4 1.2-3.4 2.2-7 3.9-10.3a7 7 0 014.3-3.4c1-.2 2.5 2 3.6 3.4 1.9 2.2 1.2 6.2 5 6.9-.2.5-.3 1.2-.6 1.3-2.4.8-2.2 2.4-1.5 4.3.5 1.1 1.9 2.7-1.3 3zm-7.1-9.6h1.8c.8 0 1.5-.2 2.3-.3-.2-1.3-.3-2.6-.7-3.8-.3-1-1-1.7-1.6-2.5-.5.9-1 1.8-1.3 2.7a8.1 8.1 0 00-.5 4zM601.5 84.5c-4.6-1.6-8 .3-11.4 2.7-1 .8-1 1 .4 1.5 2 .7 3.8 1.5 5.5 3.1 3.6 3.5 3 8.5-1.7 10.2-1.8.6-3.9.8-5.8.9-1 0-2-.5-2.8-1.2-.6-.5-.8-1.5-1.2-2.2l2.3-.4c3 0 6.4.8 8.4-2.7.2-.3.2-1 0-1.3-1.4-2.2-3.8-3-6-3.6-1.6-.3-3.4 0-3.8-2-.4-2 .2-4.2 2-5.2 3-1.6 5.8-3.7 9.6-3.5 2.5.2 4.1 1 4.5 3.7zM742.6 421.5c-2.5.2-4.7.1-7 .2-1 .1-2 .5-2.9 1-.8.4-1.4 1.1-2 1.7.7.4 1.5 1 2.3 1 2.3.2 4.5 0 6.7.2.4 0 .8.6 1.2 1-.4.3-.9.8-1.3.8h-4.8c-2.8.3-4.3 2.4-3.5 5 .4 1.6 1.7 1.9 3.1 1a94 94 0 016-3c.3-.2.8.1 1.2.2-.2.3-.3.8-.6 1-2.5 2.3-5 4.6-7.7 6.7-.5.4-1.6.2-2.3-.1-3.3-1.7-2.4-5.1-3-7.9-.2-.6 0-1.4-.2-2-1.3-2.7.3-5 1-7.4.4-1 1.5-1.7 3.5-1.3 2.9.5 6-.5 9.1-.8 1 0 2-.1 2.9.1 1.1.3 2.2.9 3.3 1.3l-3.5.5c-.5.1-.9.4-1.5.8zM579.4 150.7c-2.1.8-3.2 0-3-1.9.5-3.6 1-7.2 1.2-11 .2-2 .7-3 3-3.2 2-.3 3.5-2.2 5.8-2 2.5.3 3.5 1 3.8 3.4v2.4c-.2 1.6-1 3.3-.5 4.7.4 1.3 2.2 2.2 3.2 3.4.5.6.6 1.6.9 2.3l-2-.5c-3.8-.6-6.2-3.5-9.2-5.4-1.3-.9-1.9-1-2 .8-.2 2.3-.7 4.5-1.2 7zm7.9-14.6c-1.2-.1-2.7-.7-3.5-.2-1 .7-1.6 2.2-2.2 3.3-.2.3.3.8.4 1.2 1.6-1.6 3.5 1.2 4.9-.2.6-.6.3-2 .4-4.1zM661.5 84c1.2 3.9 1.9 4.2 5.2 3.4.4-.2.9-.8 1.1-.7 1.4.5 3.8 1 3.8 1.7 0 2.5-2.1.7-3.3 1-1.7.6-3.5.7-5.3 1.1-2 .5-2 2.3-1.7 3.8.2 1.7 1.6 2.1 3.1 2l7.3-1 .5.9c-3 2-5.7 4.7-9.8 3.9-3-.6-4.2-1.8-4-5 .1-2.7-.6-5.5.7-8.3.6-1.1 1.6-4-2.2-4.2-1.3 0 .3-2.4.7-2.3 3 .5 5.6-2.6 8.8-.6 1.3.8 3.5.1 5.2.3.4 0 .7.6 1.1 1-.4.3-.8.8-1.3.8-2.9.2-6-.4-8.7 1-.4.2-.7.7-1.2 1.2zM698.9 647.5c1.7-3.9 3-7.6 4.7-11.3.7-1.7 1.8-3.5 3-4.9a4 4 0 013.2-1.1c1 .1 1.8 1.3 2.2 2.3.4 1 0 2.2.1 3.3a9 9 0 001.2 4.8c1.2 2 1.3 4.9 1.6 7.4 0 .6-.7 1.3-1.1 2l-1.7-1.3c-.4-.3-1-.7-1-1 1-4-1.8-3.2-4.1-3.3-2 0-3.4.3-3.7 2.5 0 .6-.5 1.1-.8 1.6-.7 1-1.5 2.5-2 2.5-1.6-.2-2.1-1.7-1.6-3.5zm8-6c1.6.2 3.2-.2 3.2-2.2 0-1.7-.5-3.5-.9-5.2 0-.4-.3-.8-.5-1.2l-.4 1.3c-.8 1.7-1.2 3.6-2.3 5.1-.8 1.1 0 1.2.8 2.2zM573.6 116.7c1.7 1.7 3.3 3 4.6 4.6.4.6.1 1.7.2 2.6-.9-.1-1.9.1-2.6-.3-2.2-1.4-4.3-3.3-6.6-4.6-2.4-1.4-2.9-1-3 1.6-.1 1.8.6 4.5-2.1 4.3-2.5-.2-1.8-3-1.7-4.7.1-2.4 1-4.8.7-7.2-.2-3 .1-3.6 2.6-5.4 2.3-1.7 4.3-.7 5.8.4s3.3 2.8 1.5 5.3c-.5.7.2 2 .6 3.4zM570 113c1-.8 1.7-1.9.2-2.6-.8-.4-2.7-.6-3-.1-.7 1-.7 2.4-1 3.7l2.4-.6c.3 0 .6 0 1.4-.4zM510.5 408.3c-1-.3-1.8-.5-1.9-.8V404l-.6-3.5c-.4 1.1-.8 2.3-1.4 3.3-.8 1.2-1.8 2.3-2.8 3.4l-2-4.1c-.5-1.5 1-3.4-1-4.5-.6 1.4-1.3 2.8-1.8 4.3s.4 3.2-.8 5c-.7.8-1 1.5-2 1.1-.5-.2-1.1-1.3-1-2 .8-4.2 1.6-8.5 3-12.6.4-1.2 2.6-1.7 4-2.6.5 1 1.3 2 1.5 3.1.3 1.7 0 3.5 0 5.3l.6 1.2 1-1c.9-1.5 1.7-3.2 2.7-4.6.5-.6 1.6-1 2.4-1 .4 0 1 1.3 1 2 0 3.8-.3 7.6-1 11.4zM583.5 560c2 1.5 4.2 2.6 6.2 3.8.5.4.8 1.1 1.1 1.7-.6 0-1.2.3-1.8.2-3-1-6-1.8-8.9-3a7.6 7.6 0 01-3-2c-1-1.2-.4-2.6 1.3-2.7.8 0 1.7.2 2.4 0 1-.4 2.3-.9 2.5-1.6.3-1 0-2.6-.7-3.4-.5-.5-2.2-.4-3.2 0-2.6 1-5.3 6-4.4 8.4 1 2.5-.7 4.6-.5 7 0 .3-1.2 1-1.8 1-.6 0-1.6-.8-1.6-1.4-.2-1.9-.3-3.8 0-5.7.3-2.2 1.2-4.3 1.8-6.4 1-3.7 7.4-7.2 10.8-5.4 1.3.6 2.2 2.8 2.5 4.5.5 2-.8 3.6-2.7 5zM652.6 645.4c-.3 1.3-.7 2.1-1 3-.5 1.5-1.3 1-2 .2-.6-.6-2.2 0-1.7-2 .8-3.3 1.6-6.8 1.7-10.3 0-2.5 1.7-3.6 3.1-5 1.2-1 4-.4 4.5 1 .8 2.2 2.7 4.2 2.1 6.9 0 .4.5.9.8 1.4.3-.5 1-1 1-1.6.5-2.4.7-4.8 1.1-7.2.1-.6.6-1.2.9-1.8.3.6 1 1.2 1 1.7l-1 13.5c-.1.8-1.3 1.7-2.1 2-1.5.7-1.7-.8-2-1.7-1-2.8-1.7-5.7-2.6-8.5v-1l-2-2.1c-.6.8-1.7 1.5-1.7 2.4-.3 2.8-.1 5.7-.1 9zM750.5 525.4l11.5 1c.3 0 .6.2.8.3-.2.3-.4.9-.7 1-1 .3-2 .5-3.1.5-2 .1-3.9-.2-5.8.1-1.6.3-1.8 1.7-1.8 3.3 0 2 1.3 1.5 2.2 1.4 1 0 2-.6 3-.8.5 0 1 .3 1.6.5-.3.4-.5 1-1 1.3-.7.4-1.6.5-2.3 1-1.2.8-2.4 1.8-3.4 2.8-.2.3 0 1.2.3 1.7 0 .2 1 .3 1.2.1 2.3-1.4 5.5-.7 7.3-3.3.1-.3 1.1-.4 1.2-.3.2.5.5 1 .5 1.6 0 .4-.3 1-.5 1.2a14.3 14.3 0 01-7.1 4.7c-3.3 1.1-7.9-3.7-7.4-7.4.2-1.5.6-3 .6-4.6-.1-2.4.7-4.4 2.9-6.1zM616 682.8c1.3 1 1.5 2 0 1.9-3.5-.3-7-.7-10.4-1.4-3.7-.8-4.1-.7-4.9 3-.2.8.8 2.2-1.2 2.3-2.4.2-1.6-1.5-1.7-2.5l-.9-11.8c0-.3.7-.7 1-1 .3.2.8.4.9.8v1.4l.7 1.6 1.2-1.5c1.7-2.8 5-4.4 8-3.2 1.4.5 3 2 3.2 3.1.2 1.3-1.1 2.9-2 4.3-.2.4-1 .4-1.4.7l1.7.4 5.9 2zm-14.3-3.3c2.6 1.2 4.6 0 6.4-1.7.6-.6.8-1.5 1.2-2.3-1-.4-1.8-1.2-2.7-1.3-2.3-.2-3.4 1.2-5 5.3zM648.7 432.3l.4 2.7c.6-.3 1.3-.4 2-.8l4.5-2.9c.4-.2 1.1.3 1.7.4-.2.6-.2 1.4-.6 1.6-2.4 1.7-5.2 3-7.5 4.9-1.2.9-1.5.3-2-.4-1.4-1.4-.8-3.6-1.7-5.8-1.6-3.8 1.7-6 1.5-9.4-.2-3.2 3.5-5.2 7-4.7 2.3.2 4.6.6 6.8 1 .5 0 1 .5 1.4.8-.4.3-.8 1-1.2 1-3.2.4-6.4.9-9.6 1-2.3 0-1.8 1.3-1.7 2.4.2 1.4.5 2.7 2.7 2.2 1.9-.5 4-.6 6-.7.2 0 .6.4.9.7-.3.4-.6 1-1 1.1-2.3.4-4.5.9-6.8 1-2.4 0-2.9 1.4-2.8 3.9zM699.6 396.7v11c0 .8-.9 1.6-1.3 2.4-.5-.7-1.3-1.4-1.3-2.1-.2-3-.1-6-.1-9l.2-1.3c-.4.3-1.1.5-1.3.9l-2 4.9c-.3.8-.5 1.7-1 2.5-.2.5-.8 1.2-1.3 1.2s-1.1-.6-1.5-1c-1.1-1.9-2.3-3.7-2-6 .2-.5.2-1 0-1.4-.4-1-1-2-1.5-2.9-.4 1-1.2 2-1.2 2.9 0 2.6-.7 5-2 7.3l-1 1.2c-.3-.4-1-1-.9-1.3.4-3.4.6-6.7 1.3-10 .4-2 2.1-3.4 4.3-3 2.2.3 2.6 2.4 3 4 .3 1.6-.1 3.3 0 4.9.2.5 1 1.1 1.6 1.3.3.1 1.3-.9 1.2-1.3-.4-2.5 1.2-4.3 2-6.3.4-.8 1.8-1.8 2.5-1.6.9.2 1.6 1.5 2.3 2.7zM498 603.1c2.4.4 4.5.5 6.3 1.1 1.9.7 2.2 2.7 1.7 5-.7 3.3-2.2 6-4.7 8.6-2 2-4 1.7-6 1.5-.8 0-1.5-1.2-2-2-.2-.4-.8-2.3 1.2-1 1.5 1 3.2.4 4.5-1.2 1.1-1.3 2.7-2.3 3.7-3.8 2.2-3 1.1-5-2.6-5.3h-4.3c-3.7 0-3.5 0-3.6 3.6 0 3.5-.3 7 0 10.4 0 .4-.4 1-.8 1.3-.2.1-1-.2-1.1-.5a6 6 0 01-.9-2.5v-13.4c-.1-1.7.6-1.8 1.9-1.8h6.7zM659.5 469c.3 3.4-.7 6.6.5 10 .8 1.9-.6 4.6-1.2 7-.1.7-.6 1.3-1 2-.8-.7-1.8-1.1-2.3-2-1-1.5-2-3.3-2.6-5-.9-2-1.5-4.2-2.3-6.3-.1-.4-.7-1.1-1-1-.5 0-1.2.4-1.4 1-.9 2.3-1.6 4.7-2.3 7.1v1c-.8 1.4-1.5 2.9-2.6 4-.4.5-2-3.5-1.2-5 1.4-3 2.7-6 4.7-8.6 2.3-2.8 5.5-2 6.7 1.5.5 1.4.6 2.9 1 4.3a5 5 0 001.2 2c.2.2.8 0 1.3.1l-.2-1c-.2-3.8-.4-7.5-.3-11.3 0-.7 1-1.3 1.7-2 .5.7 1 1.3 1.3 2.2zM643 409.2c.3-5.5 1-10.4 4.4-14.5.2-.3.7-.5 1-.7l.3 1.3 3 9.8c0 .5.6.8 1 1.2l.8-1.3 3-7.4c.4-1.3 1.4-2.4 2.7-1.7 1 .5 2 2.2 1.9 3-.7 3.2-1.6 6.2 0 9.4.3.5-.4 1.7-1 2.4-.2.2-1.7 0-1.7-.2-.2-1.4-1.8-2.4-.6-4.3.7-1.1.4-3 .5-4.5 0-.3-.3-.7-.5-1-.4.3-.8.6-1 1-.8 1.7-1.4 3.6-2.4 5.2-.5 1-1.5 2.2-2.3 2.1-.8 0-1.9-1.2-2.3-2.1-.7-1.3-1-2.9-1.4-4.3-.2-.4-.7-.6-1-1l-.6 1c-.3 2.3-.4 4.6-1 6.8-.5 2-1.7 1.8-2.8-.2zM545 169.2c.8-3.2 1.6-6 2.5-8.6.3-1 .5-2.7 2.4-2 1.2.6 2.3 1.4 3.4 2.1 0 0-.2.8-.4.8-4.9-.3-3.4 4.3-4.9 6.6-.5.7 0 2.2 0 3.3 0 2.9 0 2.8 2.8 1.3.6-.4 1.5-.3 2.1-.6.7-.4 1.1-1 1.7-1.5l-1.7-.4-3-.6c1-.5 1.9-1 2.9-1.3 1.7-.5 3.6-1 5.3-.9.8 0 2.3 1.7 2.2 2.3-.7 2.8-1.8 5.6-2.8 8.4 0 .2-.3.5-.5.7-.1-.3-.4-.5-.4-.8v-1.4c-.5-2.4-.7-2.4-3-1.1-1.3.7-2.8 1.2-4.2 1.3-4.6.4-6.3-2.6-4.3-7.6zM518.2 496.6l1 11.5c0 .8.2 1.9-.2 2.4-.7 1-2 2.4-2.7 2.2-1.4-.4-3.3-1.5-3.7-2.7-1-2.8-3.8-4.9-3.3-8.3 0-.3-.8-.8-1.3-1.2-.4.6-1.2 1.1-1.3 1.8l-1 7.2c-.2.7-.6 1.4-1 2-.3.3-1 .5-1.3.4-.3-.1-.5-.7-.6-1-.3-2.7.5-5.2 1.4-7.6.8-2 .6-4.2 2.7-5.7 1.2-.9 1.7-.8 2.4.2 1 1.6 2.1 3.3 3 5 .7 1.1 1.2 2.4 1.8 3.6.1.3.4.4.6.7.2-.4.6-.8.6-1.1l-.8-3c-.6-2.6.3-4.8 1.8-6.8.2-.3 1.2 0 1.9.4zM574 203l-1 3.7c-.6-1-1.9-2-2-3 0-3 .5-6 .8-8.9 0-1.7 0-3.5.2-5.2 0-.7.7-1.3 1.1-1.9l.7 1.6.7 2.1c.4 1.6.3 3.6 1.2 4.5.7.6 2.8-.8 4.3-.7 2.8.1 3.7-1.1 3.5-3.7 0-.7.2-1.5.5-2.1.3-.5 1-.7 1.5-1 .3.5.7.9.8 1.4 1.6 4.7 0 9.5 0 14.2 0 .6-.6 1.5-1 1.6-.9.3-1.9.4-2-1.2 0-1-1-2.3-.7-3 .7-1 1.5-2.4.4-3.1-1-.6-2.7-.2-4 0-.6 0-1.2.7-1.7.6-2.2-.3-2.7.7-2.5 2.7 0 .4-.3.8-.7 1.5zM493 488.2c-1.2-5.6-1.3-11 1.1-16 .5-1 1.5-1.7 2.3-2.5.5.8 1.3 1.6 1.6 2.5 1 3.3 1.9 6.6 3 9.8 0 .5.6.8 1 1.1.3-.4.8-1 .8-1.3-.3-3 .9-5.9 0-8.8 0-.4.9-1.3 1.3-1.3.5 0 1.5.7 1.5 1-.2 4.3.8 8.8-.9 13-1 2.6-3 3-4.7.8-.9-1.3-1.5-2.9-2-4.4-.5-1.7-.6-3.6-1-5.3 0-.8-.2-1.5-.4-2.3-.5 1-1.4 1.8-1.4 2.7-.1 3.4.3 6.8 0 10.2-.2 1.6-.6 2-2.2.8zM668.7 638.4c.4-4.9 5.3-9.4 9-8.3.7.1 1.1 1 1.7 1.4l-1.7.4c-3.3.6-7.5 5.6-6.8 8.6.3 1 .2 3.2 2.7 3 2.1-.1 4.7-1.2 4.8-2.8 0-.3-1-.7-1.5-1l-1.3-1c.6-.3 1-1 1.6-1 4.5-.4 6 .6 6 4.9 0 2.6-1.2 5.2-1.9 7.8 0 .3-.6.5-.9.7l-1-1.2v-1c-.1-2.4-1.4-3.6-3.3-2.4-2.4 1.6-4.2.6-5.9-.4-2.8-1.7-2.8-4.6-1.5-7.7zM660.3 614.7c-1.6 2.3-3.3 4.2-4.8 6.2-1 1.4-2.7 2-4.1 1.3-1.5-.6-2.7-1.8-2.7-4 0-2.5-.6-5.1-1-7.7-.5-3.7.4-5.5 4-6.8 2.2-.9 4.6-1.3 7-1.4.8 0 1.8 1.2 2.5 2 .4.6-.7 9.1-1 10.4zm-9.6-4.4v8.7c0 .5.4 1 .7 1.4.2 0 1-.2 1.2-.5l5-6c.4-.5.5-1.2.7-1.7-.6-.1-1.2-.4-1.8-.4-.7 0-1.4.4-2.1.6-.6 0-1.4.2-1.6 0-.3-.5-.5-1.5-.2-1.8.7-.7 1.7-1.1 2.4-1.8 1.4-1.2 3.9-3 3.6-3.6-1.1-2.6-3 .2-4.7 0-2.6-.3-3.6 1.6-3.2 5.1zM548.9 610.8h2.4c.4 0 .9.2 1.3.4-.3.3-.4.8-.8 1-1.3.5-2.7 1.1-4.1 1.4-1 .3-2.3 0-3.4.1-3.7 0-3.7 0-4 4-.1.6-.6 1.2-1 1.8-.3-.6-.9-1.1-1-1.7 0-1.9-.2-3.8 0-5.7.4-2.7 1-5.4 1.6-8 3.3-.2 6.6-.5 10-.4 1.5 0 5.5.6 7.1.5a2 2 0 011.5.6c1.4 1.8.4 10.1-1.3 11.6-.2.2-.7.3-.9.1-.3-.2-.6-.6-.7-1V608c0-1.4-.2-2-1.8-2-3.3.2-6.7.1-10 .1-1.8 0-2.6.9-2.6 2.6 0 1.5 0 2.5 2 2.3 1.7-.3 3.5 0 5.7 0zM706 139.7c4.8 3.7 4.3 11.7-1.2 15.2-2.3 1.5-7.8 1-9.4-1-.4-.5-.5-1.4-.6-2v-7.7c0-1.9.3-3.7.4-5.6 3 0 6-2.4 9 .2.5.3 1.1.4 1.9.9zm-.6 9.8c0-.7 0-1.5.3-2.2 1.3-3.7-.9-6.8-4.8-6.9-3.2 0-3.2 0-3.2 3.3v7.6c0 1.5-.6 3.6 2 1.2 1.3-1.3 4-.3 5.7-3zM527.8 107c1.8-.2 3.5-.4 5 1.4 2 2.2 3 2 4.5-.7 1.1-2.1 2.7-2 4.3-1.8.5 0 1 .8 1.4 1.3-.5.2-1 .3-1.4.6-1.9 1.9-4 3.5-3.4 6.8.4 2 2 2.8 3 4 .5.8 1.3 1.4 2 2.1l.8 1-1.2.5c-2.6.7-4.1-1-5.6-2.6-1.3-1.5-2.2-2-3 .4-.5 1.1-1.7 2-2.6 2.8l-2.4 2.2c-.2-1-.6-2.1-.4-3.1.2-1.3.8-2.6 1.5-3.7 3.1-4.7 3.1-5.2-.8-9.2-.6-.6-1.2-1.1-1.7-2zM722.7 410.2c-.4-1.2-1-2-1-2.5.9-4.3 1.8-8.5 3-12.7.5-2.1 2.6-2.2 4.4-2 1.5 0 3 .5 4.4.9.3 0 .6.7.6 1 0 .3-.5.8-.8.8-1.4.1-2.9-.1-4.3.1-.9.2-2 1-2.4 1.7-.4.8-.6 2.3 1.4 2.1l7-.4 1-.1c0 .4 0 1.2-.2 1.2l-7.3 2.2c-1 .3-2.8.3-2.8.6-.3 2-.1 3.8 0 5.7.3 0 .7 0 1-.2 2.3-1.4 4.6-2.8 7-4 .2-.2 1-.1 1.2.1.2.2.3 1 .1 1.2-2 2.1-3.9 4.4-6.1 6.1-2 1.5-4 .9-6.2-1.8zM576.5 400.8a13 13 0 01-1-1.9l-.7 1c-.3 2.3-.5 4.6-1 6.9-.2.8-.8 1.5-1.3 2.3-.5-.7-1.5-1.4-1.4-2 .5-3.7 1.2-7.4 2.1-11 .3-1.2 1.9-2.1 2.9-.4 1 1.8 1.8 3.7 2.5 5.6.3.7-.2 1.8.1 2.4.4.7 1.3 1.1 2 1.7.3-.6.8-1.3.8-1.9 0-3.1 1-6 3-8.3.6-.6 1.7-1.4 2.3-1.2.7.2 1.4 1.4 1.4 2.2v13l-.2.8-1-.7c-2.2-1.4-1.7-3.5-1.5-5.5l.8-5c0-.3-.3-.7-.5-1-.3.3-.8.5-1 1l-2.3 7.6-1.4 2.8c-1-.7-2.2-1.2-3-2-1.5-1.7-1.5-4-1.6-6.4zM557.8 499.7c1.3-1.4 2.4-2.6 3.6-3.6 1.8-1.4 4.5-.5 4.7 1.6a22 22 0 01-3.7 14.6c-1.9 2.7-4.9 3.3-6.9 2-1.9-1.4-2.5-4.4-1.3-7.2 1-2.4 2.2-4.8 3.6-7.4zm-1.2 9.8c0 .8.2 1.5.3 2.3.8-.4 1.8-.5 2.2-1 1-1.4 1.7-2.9 2.2-4.4.8-2 1.4-4.2 2-6.3l-.2-1.3c-.5.2-1 .4-1.4.8-2 3-4.2 5.7-5.1 10zM630.5 680.9a247 247 0 012.7-11.8l.6-1.6c.5.4 1.3.8 1.3 1.3.1 2.6.8 3 3.4 2 1.9-.8 4.4.2 6.6.5.3 0 .5.3.7.5l-.7.4c-1.2.4-2.3.8-3.5 1h-3.8c-2 .2-4 .8-3.4 3.6.4 2.1-1.5 4-.2 6.4 1.4 2.5 2.1 3.3 4.9 2 1.6-.7 3-1.8 4.6-2.6.4-.2 1-.2 1.3 0 .3.2.4.9.2 1.3-1.8 5-8.7 7.4-12.7 4.3-2.1-1.7-2.2-4.3-2-7.3zM563.3 528.3l.3 2.7c.7-.3 1.4-.4 2-.8 2.1-1.4 4.2-3 6.3-4.3.8-.4 1.8-.5 2.7-.5.4 0 .8.6 1.2 1-.3.3-.5.8-.8.9-3.6.4-5.2 4.1-8.5 5-.2 0-.4 1.2-.3 1.7.1.4.8.8 1.2 1 3 .6 5.9 1.2 8.8 2 .5 0 .9.3 1.3.5-.4.5-.9 1.3-1.3 1.3-2.7 0-5.4.1-8-.4-4.2-1-4.4-1.1-6.2 3.2l-.7 1.6c-.3.3-.8.4-1.2.4-.2 0-.6-.4-.6-.6 0-.8-.2-1.6 0-2.4l1.7-9.8c.2-1.5-.3-3-.1-4.6 0-.6 1-1.2 1.4-1.8l.8 2.4v1.5zM574.8 586.8c-.3 2.6-.4 4.8-1 6.8-.6 2.2-1.9 2.4-3.3.9-1.8-2-3.3-4.4-3.4-7.3 0-1-.1-2.1-.4-3.2-.2-1-.6-2-1-3l-.5 3.2c-.6 2.6-1.2 5.2-2 7.8-.2.8-1 1.5-1.5 2.3-.4-1-1.3-2.3-1.1-3.2.6-3 1.7-5.7 2.6-8.5v-1c.3-1-.6-2.6 1.7-2.5 1.8 0 2.9.4 3.2 2.5.5 2.5 1.3 4.9 2 7.3 0 .6.1 1.2.4 1.7.2.4.7.7 1 1 .1-.5.4-.9.4-1.3v-9.6-2.9l.6-2.5c.8.8 2.1 1.5 2.2 2.4.3 2.9.1 5.8.1 9.1zM571.2 478.6c2.2.4 4.3.8 6 2 .4.2 2.4 1.7.9 3.8-1 1.4-.9 3.7-1.4 5.6-.1.3-.9.5-1.3.8l-.6-1.1c-.8-1.4 1.7-3.1 0-4-1.8-.8-2.4 1.6-3.6 2.5-3.7 3-7.3 2.2-9.1-2-.4-.9-.7-2.2-.3-3a126 126 0 015.4-10c.4-.8 1.7-1.4 2.7-1.5.6 0 1.3 1 2 1.6-.4.4-.9 1-1.4 1.2-3.7 1.3-4.5 4.6-5.2 7.8-.1 1-1.7 2.1 0 3.5 1.3 1 2 1.6 3.5.3 1.3-1 3.2-1.5 4.8-2.3.4-.2 1-1 1-1.3-.1-.5-.8-1-1.3-1.3l-2.9-1 .8-1.6zM719.8 680.9c-3-1.9-4.3-4.7-5.8-7.4l-.5-1.2c-.4.4-1.2.8-1.2 1.3-.2 2.2 0 4.4-.2 6.6-.2 1.5-.5 3-1 4.4-.3.5-1.4.7-2 1.1-.3-.6-.9-1.3-.8-1.9.2-2 .6-3.9.9-5.8.4-2.7.5-5.5 1-8.2.2-.9 1.1-2 1.9-2.2.8-.2 2.2.5 2.7 1.2.8 1.4 1.1 3 1.8 4.5 0 .3.6.5 1 .7l.2-.8.1-6.2c0-.5.8-1.3 1.2-1.4.5 0 1.5.6 1.6 1 .4 3.7.8 7.4 1 11 0 1.1-1 2.2-2 3.3zM681.6 194.4l4.3-4.3c1.5-1.2 3.3-1 4 .5.4.6 2 1.5-.4 1.7-3.7.4-4.7 3.7-5.7 6.6 0 .4 0 1.1.4 1.4 1 .9 2 1.7 3.2 2.5 2.6 1.8 2.4 5-.4 6.4a7.9 7.9 0 01-9.5-1.2c-.5-.6-.7-1.6-.9-2.5 0-.5.3-1.1.4-1.7l1 1c.6.5 1.1 1.5 1.7 1.6 1.5.1 3-.1 4.5-.2l-2.3-2.3c-2.9-2.6-3.1-3.8-1.5-7.2l1.2-2.3zM626.7 429.4c.2-2.3.2-4.2.7-6 .4-1.5-.6-4 1.6-4.4 2.3-.5 4.8-.2 7 .2 1.3.3 2.4 1.4 3.4 2.3.5.5.9 1.9.6 2-2.4 2.2-.7 4 0 6.3 1 3-3.6 7.4-7.1 7.2-.5 0-1-.4-1.4-.7l1-1.2c1.6-1.1 3.3-2.2 4.8-3.5.4-.3.9-1.6.7-1.8a3.7 3.7 0 00-2.3-1.3c-.8 0-1.7.6-2.5.9l-1.7.4c0-.7 0-1.7.4-2.2.8-.8 2-1.4 3-2l2.9-2.1c.3-.3.4-1 .3-1.3-.1-.6-6.2-1.4-6.7-.9-1 1-2.1 1.8-2 3.6.3 2.5.2 5.1.1 7.7 0 .9-.2 1.8-.6 2.6-.2.4-1 .6-1.5.9-.2-.5-.7-1-.7-1.4v-5.3zM596.7 555.9c-1 1.8-1.6 3.4 1.2 3l5.8-.8c1-.1 1.8.2 2.7.3-.6.7-1.1 1.5-1.9 2-.6.4-1.4.4-2.2.5h-2.9c-3.6 0-4.5 1.3-3.5 5 .8 2.8.9 2.8 3.5 1.6l7.1-3.7c.5-.2 1.2.2 1.8.3-.3.4-.5.8-.8 1-2 1.7-3.9 3.6-6 5-2.4 1.7-6.6.3-7.4-2.5-1-2.9-2-5.8-.4-8.9a3 3 0 00-.2-2.5c-1.3-2 .4-2.6 1.5-3 2.2-.5 4.5-.7 6.8-1 .8 0 1.7-.1 2.4.1a16 16 0 014 1.8c-.6 2.2-2.5.8-3.9 1-2.4.3-5 .4-7.6.8zM508.6 564.7c-1.2-4.3-2-8.2 0-12 .4-1 1.2-1.7 2-2.3.2-.3.9 0 1.3 0-.1.4-.1.9-.4 1.3-2 3.5-.8 7.3-.6 11 0 .4 1.5.9 2.3 1 .3 0 1-.9 1.2-1.4l3.8-9c.4-1 .7-2 1.3-2.8.3-.3 1.3-.3 1.8-.1.4.2.8 1 .7 1.4-.5 1.9-1 3.7-1.7 5.5l-3 7.9-.4 1.3c-2.4 3.7-5.7 3.2-8.3-1.8zM732.5 224.2c2-2.2 4-3.6 6.7-3 1 .1 2.1 1 2.6 2 .4.8.1 2.5-1.6 1.4-1.5-1-2.7-1-3.6.3-.9 1.4-1 3 .4 4.3l4 4c1 1 2 2.3 2.6 3.6.4 1 .5 2-1.3 2.7-2.6 1-5.1 2-8 1.6-1.2-.2-2.4-1-3.4-1.8-.5-.5-.3-1.7-.4-2.6l2 .4 1.8.3 5.5-.4-3.5-3.7c-2.3-2.6-4.7-5-3.8-9.1zM717.9 377.5c-.3-.5-.1-1.5.2-1.6 1.6-.2 3.2-.5 4.7-.2 1.3.2 2 1.4 1.8 2.8-.4 1.8-.5 3.6-1.2 5.3-.2.7-1.5 1.5-2.2 1.3-2-.4-4-1.1-5.8-2-2.6-1.1-5-2.5-5.7-5.6-.1-.5-.5-1.1-.5-1.7.4-2.7 6.2-8.6 9.3-8.9 2.2-.2 3.1 1.3 4 2.6.4.5-.1 1.5-.3 2.2l-1.5-1.1c-1.3-1.4-2.7-1.1-4 0-1 .8-1.8 1.7-2.7 2.6-2.6 2.6-2.2 4.4 1.1 6.3 2 1.1 4 1.6 6 0l1.5-.6c-.5-.5-.9-1.2-1.4-1.3-1-.2-2 0-3.3 0zM513.4 138.5c.2-4.8.2-4.8 4.2-4.8 1.2 0 2.6-.2 3.8 0 5 1.1 7.2 6.1 4 10.3-2 2.7-4.5 5-8 6-2.3.7-4.2 0-4.8-2.2-.3-1-.3-2-.2-2.8.3-1.7 1.5-3.3 0-5 0 0 .7-.7 1-1.5zm2.9 2.4c-1.9 1.5-.7 3.5-1 5.3 0 .3.9 1 1.2.9 2.6-.4 7-5 7.4-7.6 0-.7-.3-2-.6-2-2-.5-4.2-.8-6.3-.8-.3 0-.5 2.1-.7 4.2zM674.9 410.4c-4.2 3.2-6.3 3-9.5-.3-1.5-1.5-1.3-2.9-1-4.7.5-2.6 3-5.1.9-8.2-.2-.2 1.1-2.2 2-2.3 2.1-.3 4.4-.3 6.6 0 1.2.1 2.4 1 3.6 1.4l-3.2.4c-.8.1-1.9 0-2.3.4-1.2 1.2-4.4-.1-3.9 2.8.1.5 2.8.6 4.3.7h4.8c.4 0 .9.6 1.3.9-.4.3-.8 1-1.2 1-2.2 0-4.5.2-6.7 0-2.7-.4-3 .9-2.7 2.9v1.4c.3 2.1 1.7 3 3.6 2 1.6-.8 3-2.2 4.4-3.2.3-.2 1-.2 1.3 0 .2.2.4 1 .3 1.2-.7 1.2-1.6 2.3-2.6 3.6zM560.7 565c3.4-2.8 4.7-6.6 6.4-10 .3-.9 0-2.3 1.4-1.7.6.3 1 2 .9 2.9-.5 2-1.3 4-2.3 5.7-1.6 2.9-3.2 5.8-5.2 8.4-2.4 3.1-6 2.1-7.3-1.7-1.5-4.4 0-8.7.2-13 0-.5 1.2-1 1.8-1.4.3.5.9 1.1.9 1.7l.1 9.6c0 1 1 2 1.5 3 1.1-.8 1.6-1.9 1.6-3.5zM704.4 369.9c0 4.2.4 8-1 11.6-.1.5 0 1.2-.4 1.7-.5.7-1.3 1.3-2 2l-1.4-2.3c-1.4-3.7-3.4-7-5.8-10-.3-.5-.7-.8-1.1-1.1-.3.5-.7 1-.7 1.4v6.3c0 .8.2 1.8-.1 2.3-.7.9-1.8 1.4-2.7 2.1-.3-1-1-2.2-.8-3.2.3-2.7 1-5.3 1.6-8 .2-.7.3-1.5.7-2 1.5-2.2 2.3-2.4 4-.4 1.8 2.1 3.3 4.6 5 7l1.4 2c.2-.7.4-1.4.4-2.2v-7.6c.1-.6.7-1.4 1.2-1.5 1-.3 2-.1 1.7 1.9zM631.5 224c0-3.8.8-4.7 3.6-4.8 2.6-.1 5.1-.2 7.6.3 1.2.2 2.6 1.6 3 2.8.5 1.6.1 3.5-1.9 4.5-2.2 1.2-4.2 2.8-6.5 3.8-2.5 1.1-3.5 2.4-3.4 5 0 .6 0 1.4-.2 1.9-.3.4-1 .6-1.6.8-.2-.5-.6-1-.6-1.5V224zm6.2 2.8c1.4-.4 3-.7 4.2-1.4.6-.4 1-1.6 1-2.4 0-.4-1.3-.9-2-1h-4.4c-1.6 0-3 .2-3.1 2-.2 2.5 1.4 3 4.3 2.8zM587.3 676.1c3.4 3 4.7 7.4 6.7 11.3.3.7.5 1.5.5 2.2 0 1 0 1.9-.2 2.8-.6-.7-1.4-1.3-1.9-2l-1.3-2.9c-.5-1.3-1.3-2-2.8-1.8h-3c-2.6-.2-5 0-5 3.6 0 .5-.3 1.3-.7 1.6-.6.3-1.5.7-2 .5-.5-.2-1-1.4-.8-1.8 2-4.5 3.9-9 6.1-13.3.6-1.1 2-1.8 3.3-2.4.8-.4 2-.2 2.9-.3l-2 2.3c-1.4 2-2.6 3.6-3.5 5.5-.2.4-1.4 3.4 1.5 1.5.7-.5 2.3-3 2.2-4v-2.8zM658 247.7c3.1-.4 6-.6 8.7-.7.4 0 .8.6 1.2 1-.4.3-.8.8-1.3.9l-6.2 1c-.5.1-1 1-1 1.6 0 .4.9 1.2 1.3 1.2 2.3-.3 4.7 1 6.8-.9.3-.2 1-.2 1.4 0 .7.3 1.2.9 1.8 1.3-.5.5-1 1.4-1.6 1.5-2.2.2-4.4 0-6.7 0-3.4 0-5.7 4.2-4 7.3.2.3 1.2.4 1.6.1 1.8-1 3.5-2.2 5.3-3.3.4-.2.9 0 1.3 0 0 .5.2 1 0 1.5-1 2.7-5.9 5.4-8.8 5-1.6-.2-3.3-2.1-3-3.7 1-4.5 2-9 3.3-13.8zM504 588c2-3.6 3.8-7 5.5-10.5.5-.8.9-1.6 1.5-2.2 2-1.8 4.6-1.1 5.2 1.4.2 1-.1 2 .1 2.9.2.8.7 1.9 1.3 2.2 1 .6 2.2.6 3.4.8-1 .1-2.2.1-3.2.4-.3.1-.6 1-.5 1.6.1 1.3.8 2.6.8 4 0 1.2-.5 2.5-1 3.8 0 .4-.6.8-1 1.1-.2-.4-.7-.8-.8-1.3-.3-1.5 0-3.4-.7-4.5-1-1.2 1.6-2.4-.1-2.7-2-.3-4.5-.8-6 1.5-.6.8-1.1 1.8-1.8 2.6-.6.9-1.4 1.7-2.2 2.5-.2-1.1-.5-2.2-.5-3.6zm9.4-7.4c0-.3-.2-.8 0-1 1.2-.7.8-1.4-.1-2-.3 0-1.1.3-1.3.6-.7 1.1-1 2.5-1.8 3.5-1.4 1.8.4 1.4.9 1.2.8-.2 1.5-.9 2.3-2.3zM706.3 394.8c3-.3 5.3-.8 7.8-.9 2.5 0 3.6 1.4 2.4 3.5-1 1.8 0 2.2.8 3 2.5 3 2 6-1.5 7.8-1.4.8-3 1.6-4.5 2-4.6 1-5.8 0-6-5 0-1.7-.7-3.5-.8-5.3-.1-1.8-.7-3.8 1.8-5zm6.3 6.7c-.8 0-1.5-.2-2.3-.3.4-.8.5-1.8 1.1-2.3 1-.6 2.2-.8 3.2-1.4.2-.2.2-1.4 0-1.5-1.8-1.2-7.2 1.3-7.3 3.4 0 1.7.2 3.4.5 5 .2 1 .5 2.5 1 2.8 1.2.4 2.7.4 3.8 0 1.4-.6 2.6-1.7 3.7-2.7 1.1-1 1-1.9-.8-2-.7-.1-1.3-.6-3-1zM565.5 260.7c-2.6 4.2-4.9 4.8-7.2 1.9-.4-.5-.9-1.3-.7-1.6 2-3.8.5-7.8.8-11.6.2-1.7.4-3.6 2.3-3.3 1.9.3 2.3 2.7 1.5 4-1.4 2.2-.6 4.5-.8 6.8 0 .5.7 1 1 1.6l.9-1.3 2.9-7c.4-1 1-1.8 1.8-2.6.3-.4 1-.4 1.6-.6.1.6.5 1.3.4 1.8a67.5 67.5 0 01-4.5 11.9zM504.7 530.2c-1.7 4.5-5.3 7.7-6.2 12.3 0 .4-1.5 1-2.2.8-.6-.2-1.5-.8-.4-2 .7-.8.2-2.5.8-3.5 1.6-2.6 1.4-4.9 0-7.6-1.4-2.7-2.1-5.8-3-8.8-.1-.2.6-.8.6-.8 1 .6 2.2 1.1 2.7 2 .9 1.9 1.3 4 2 5.9.3.6 1 1 1.5 1.6l.4-1.8a13 13 0 013.7-7c.4-.4 1-.5 1.6-.7-.2.5-.4.9-.4 1.4l-1 8.2zM546 152c-2.6 0-5 .4-6.3-2.1l-.4-1.3c.5-.1 1.2-.5 1.6-.3 3.1 1.2 6.2 1.4 9.3-.1l1.5-.7c-.5-.4-.9-1-1.4-1.3-2.6-1-5.2-2.1-8-2.9-2.6-.7-2.6-2.9-1.8-4.3 1-2 3.1-3.6 4.8-5.3 1.3-1.4 2.8-.2 3.3.3 1.2 1.6-.8 1.4-1.5 2l-2.7 2.7c-.4.4-1 1.4-.8 1.6.5.5 1.2.8 1.9 1l5.4 2c2.3 1 3.6 3.1 2.6 5.3-.7 1.6-2.3 3.3-4.6 3.3H546zM722.7 220c1.9 0 3.3 0 4.7.2.7 0 1.3.8 1.9 1.2-.5.6-1 1.4-1.6 1.5-1.7.4-4.4-.1-4.8.7-1 2-1 4.4-1.2 6.7V236.5c0 2-1 3-2.8 2.7-2-.3-2.3-1.7-1.8-3.5.7-2.8 1-5.6 1.7-8.4.7-2.6-.8-3.5-3-3.9-.8-.2-1.7-.2-2.6-.5-.7-.2-1.4-.7-2-1 .6-.6 1.1-1.5 1.9-1.7.8-.3 1.9-.1 2.8-.1h6.8zM525.6 526.6c1.5-1.7 2-1.6 2.2 0l1 8.8.2 1.3c.5-.3 1.1-.5 1.3-1 1.5-3.3 2.8-6.8 4.2-10.2.3-.7.2-1.5.6-2.1.3-.4 1-.6 1.5-.9.3.5.7 1 .7 1.4.5 6.2-2.5 11.3-5 16.6-1 2-3.2 1.4-4.7 1-.8-.2-1.6-2-1.7-3.2-.2-3.8 0-7.7-.3-11.7zM558.3 110.9c1.8 4.6.8 6.9-3.3 8.4-1.4.5-3.3.5-4 1.5-.7 1-.1 2.8-.2 4.2 0 .7-.5 1.3-.7 2-.7-.5-1.8-1-2-1.6-.4-.8-.1-1.9-.2-2.8l-.8-8.5c-.2-2-.7-4 1.4-5.5 2-1.4 4.1-1.2 6.2-.3 1.2.6 2.2 1.6 3.6 2.6zm-7-.2c-2.8.2-1 2.3-1.4 3.5-.2.7.2 1.5.4 2.2h.5c1.5.4 4.6-1 4.8-2.1.4-2.4-.2-3-4.3-3.6zM580.6 385.2c-1 1.2-1.8 1.5-2 0 0-1.5.2-3 0-4.3-.2-1.7-.6-2.5-3-2-3.3.7-5.4 2.1-6.6 5.3-.2.5-1.4.7-2 1-.3-.8-1-2-.8-2.3 3-4 4.1-8.9 6.7-13 1.5-2.5 3.4-3 4.5-.7 2.1 4.3 4.8 8.4 4.1 13.5-.1.7-.6 1.4-1 2.5zm-5.8-13c-.5 1-1.2 1.8-1.6 2.7-.3.7-.2 1.5-.2 2.2 1-.1 2.2-.2 3.2-.6.6-.2 1.2-1 1.2-1.6 0-1.2-.3-2.4-.7-3.5-.1-.2-1.2 0-1.9.9zM544.8 260.7c-1.9-4.4.1-8.4.6-12.4.2-1.7 2-3.8 4-3 1.7.5 3.8 2.2 4.1 3.8.9 3.7.3 7.6-1.9 11-1.8 2.8-3.5 3-6.8.6zm5-7.5l-.6-4.3c-2.4.6-.8 2.5-1.3 3.8-.3 1-.8 1.9-.9 2.9 0 1 .3 2.7.7 2.8 2 .3.9-1.4 1.2-2.3.3-.6.6-1.3 1-2.9zM644 552.3c4.2 2.5 4.8 5.3 2.4 10.4-.6 1.3-1.9 2.4-2.4 3.7-1 2.3-2.7 3.2-4.8 2.6-2.9-.8-5.5-3.9-4.8-6 1.4-4 2-8.6 6.8-10.4.7-.3 1.5-.2 2.7-.3zm-6.8 12c3 2.1 3.3 2 4.8-.7.7-1.3 1.4-2.6 1.9-4 .4-1 .5-2.1.8-3.2-1.5 0-3.1-.3-4.5.2-.9.4-1.5 1.8-2 2.8-.5 1.3-.7 2.6-1 4.9zM686.4 486.3c-3 2.8-3.8 3-5.9 1.3-.3-.3-1-.7-1-1 .2-3.1 0-6.3.7-9.3.5-2 2.2-3.8 3.6-5.6 1.1-1.6 2.5-1.4 3.9 0 2.8 2.7 3.2 7.8.6 11.7l-1.9 2.9zm-4-2.7c-.1 1.8 1 2.2 1.7.9 1.4-2.6 2.1-5.5 3-8.3.1-.5-.3-1.1-.5-1.7-.5.2-1.2.3-1.6.7-2.2 2-2.6 4.7-2.7 8.4zM511.5 480.3c1-2.7 1.7-4.9 2.9-7 .8-1.4 1.8-3 3.9-2.6 1.7.3 4.2 3.8 3.7 5.4a26.9 26.9 0 01-7.5 13.1c-1.3 1.2-2 .6-2.6-.4-1-1.8-2.4-3.6-.8-5.8.4-.6.2-1.5.4-2.7zm6.7-2.4l.9-3c0-.4-.5-.9-.8-1.4-.3.4-.9.7-1 1.1l-3 7.9c0 .4.4 1 .6 1.6.4-.4 1-.8 1.3-1.3.7-1.3 1.3-2.7 2-5zM693.6 553.5c1.8 4.6 3.4 9 4.9 13.5.2.8-.3 1.7-.4 2.5l-2.3-1.4c-.3-.3-.1-1-.4-1.3-.8-1.2-.3-3.7-3.3-3.1-2.3.4-4.6 0-5.5 2.9-.3 1-1.8 2.5-2.2 2.4-2.6-1-.4-2.7 0-3.8 1-3 2.4-6 3.7-9a31 31 0 012-3.4c1.3-2.4 2.3-.5 3.5.7zm-3.6 4c0 1.8-.7 4.3 2.6 3.4 2.7-.8-.3-2.1 0-3.4.7-2.5-1.4-1.2-2.6 0zM498 639.6c1.6 4 .7 6.1-3 7.4-3.7 1.2-6.9-.5-10.1-1.8-.2 0-.4-.6-.3-.8.1-.4.5-.9.8-.9 1.5 0 3.4-.4 4.6.3 1.3.7 1.8.6 2.7-.3.7-.7 1.6-1.2 2.4-1.8-.7-.7-1.3-1.5-2.1-2-1.3-.8-2.6-1.4-4-2-1.7-.9-1.9-2.5-1.5-4 .5-2.2 5.6-5.6 8-5.6.5 0 1 .2 1.3.3-.3.4-.5 1-1 1.3-1.6 1.4-3.3 2.6-4.9 4.1-1.1 1-1 2 .8 2 2.8-.2 4.6 1.5 6.3 3.8zM743.5 471.4l1.6-1.6c.2.5.6 1 .6 1.5v8.6c0 2.9.8 3.3 3.4 2.2 1.5-.6 3.2-1 4.5-2 1.1-.8 2.4-2.2 2.5-3.4.1-2.3-2.3-2.6-3.9-3-1.3-.5-2.9 0-4.3-.2-.4 0-.8-.6-1.2-1 .4-.2.7-.8 1.2-.9 5.7-.7 8.4.6 10.6 4.5.7 1.3.2 1.7-.2 2.7-1.6 4.3-5.6 4.8-9 6.2 0 .1-.3 0-.4 0-4.5 1-5.6.3-6-4-.3-3.1.2-6.3.6-9.6zM760.3 369.1c5.5 0 7.9 3 6.4 8.3a12 12 0 01-5.7 7.8c-2.6 1.4-6-.1-6.7-3a13 13 0 016-13zm.3 12.3l3.3-6.3c.5-1.3-.1-2.8-1.4-3.2-1-.3-2.6 0-3.4.6-2.3 1.6-2.7 8.7-.6 10.5 1 .9 1.7.1 2-1.6zM544 497.5c2.8.4 5.1.5 7.3 1 2.8.8 3.4 3.1 1.4 5.3a7.4 7.4 0 01-5.6 2.4c-4.8 0-4.8.1-5 5 0 .3.2.7 0 1l-2 3.6c-.5-1.4-2-3.4-1.6-4.2 1.5-2.5.8-5 .7-7.3-.2-3.6 1.3-5.6 4.9-6.8zm6.3 4.8c.2-.4.6-1 .5-1.2-1.4-1.6-6-2.3-7.6-1.2-.5.4-1 1.1-1 1.5.2.7 1 1.8 1.4 1.7 1.9 0 4 1.1 6.7-.8zM619 127c-1.7-.7-3-1.2-4-2-.5-.5-.6-1.5-.8-2.3h1.9c1.4 0 2.7.4 4 .4 1 0 1.8-.6 2.7-1-.4-.9-.7-2-1.4-2.7-1-1-2.4-1.4-3.2-2.4-.7-1-1.3-2.7-1-3.8.5-2.4 6-5.7 8.5-5.4a6 6 0 012.4 1c.3.2.5.9.4 1.2 0 .3-.7.6-1 .6-2 0-3.4.6-5.1 1.6-2.2 1.3-2 2.1-.8 3.5l3.7 3.7c1.7 1.8 1.9 4.3 0 5.5-1.8 1-3.9 1.4-6.3 2zM662.2 194.2c-1.5 5-1.3 10-4 14.2-.5.8-1.6 1.4-2.4 2-.8-.9-2-1.8-2.2-2.8-.5-3.4-.7-6.8-1-10.2-.2-1.6-.7-3.2-1-4.8 0-.4.3-.9.5-1.3.4.3 1.3.4 1.4.7.7 2.1 2.2 3.9 2 6.4 0 1.7 1 3.5 1.6 5.2.4-1.7 1.2-3.5 1.1-5.2 0-2.6.5-4.9 2-6.9l1.5-1.1c.6.7 2 1.2.5 2.4-.2 0 0 .6 0 1.4zM695 682.1l-1.2 2.2c-.3.5-.8 1-1.3 1.4-.2-.5-.6-1.1-.5-1.6a43.5 43.5 0 014.8-14.3c.4-1 1.5-2.2 2.3-2.2.8 0 1.6 1.4 2.4 2.1.2.2.6.5.6.7.2 3.2.8 6 5 6-.1.5 0 1-.3 1.5-.1.2-.9.1-1.3.1-1.6-.1-2.3-.2-1.2 1.8.5 1-.3 2.6-.4 4-1.8-.4-2.1-2-2.3-3.3-.3-1.7-1-2.5-2.8-2.5-1.8 0-3 .5-3 2.6 0 .4-.3.8-.7 1.5zm4.1-6c.5-1 1.2-2.1 1.2-3.2 0-1.2-.8-2.3-1.2-3.5-.5 1-1.2 2-1.3 3.2-.2 1.1.2 2.3 1.3 3.5zM694.6 464.7c-.5.4-.9.9-1 .8-1.1-.7-2.4-4.4-2-5.6.5-1 1.2-2 1.2-2.9 0-1 .8-2.1-1.3-2.9-2-.7-2.7-3.5-2.4-6 0-.5.4-1 .7-1.4.4.3.9.5 1.1 1 .5.6.7 1.3 1 2 2 3.3 2.7 3.4 5.5.6.8-.8 1.4-2 2.3-2.8.5-.5 1.5-.6 2.3-.8v2c-.1 1.3-2.7 2.5-.6 4.3.2.1-.8 2-1.6 2.5-3.2 2.2-4.6 5.2-5.2 9.2zM749.3 461.8c-.7.7-1 1.2-1.6 1.5-1 .7-2.2 2-3 1.9-2.2-.6-4-1.7-4.8-4.4-1.2-3.7 1-6.3 2.3-9.2.3-.7 1-1.2 1.6-1.7.8-.8 2-2.3 2.3-2.1 1.3.5 3 1.5 3.3 2.7 1 3 2.1 6.4.2 9.6-.3.4 0 1-.3 1.7zm-5-.7c1-1.1 2.7-2 3.1-3.4.5-1.5.2-3.4-.1-5-.1-.6-.9-1.7-2-.4-2.5 2.6-3.2 5.4-1 8.8zM626 583.7c.8 2.7 1.8 5-.2 7.5-2.2 2.8-4 4.2-7.2 3.3a5.8 5.8 0 01-4.4-6.2c.1-1.7.6-3.6 1.3-5.1 1-1.9 1.6-4.4 4.4-4 2.6.3 5 1.2 6 4.5zm-2.7.2c-1.3-.6-3-2-3.9-1.6-1.8.9-2.5 3-2.4 5.1v1c1.2 1 2.3 3 3.5 3 1 0 2.5-1.9 3.2-3.2.5-1 0-2.5-.4-4.3zM598 644.7c-1.7 2.5-4.1 1.5-6.2 1.5-.5 0-1.5-1.2-1.6-2-.5-5.3 1-10.1 4.4-14.3 1.2-1.5 2.4-.9 3 .3.9 2.3 1.7 4.8 2.1 7.2.4 2.4.2 4.9-1.6 7.3zm-4.5-5c-1.1 1.4-.6 2.8.8 3.3.5.2 2.2-1 2.5-2 .4-1.4.1-3.1 0-4.7l-1.4-.4c-.6 1-1 2.2-1.9 3.7zM498.7 418.6c4.5-.9 5.5-.1 6 3.8l2 11.2c0 .8-.4 1.6-.7 2.5-.7-.6-1.8-1.1-2.1-2-.6-1.5-.6-3.2-1.2-4.8-.3-.8-1.6-1.8-2.2-1.7-1 .2-1.9 1.2-2.4 2-.6 1-.9 2-.9 3 0 1.8-1.2 1.9-2.2 1.5-.5-.2-1-1.6-.8-2.2l4.5-13.3zm4.1 3.6l-1.3-2.3a7.1 7.1 0 00-2.5 3.6c-.5 1.5.6 2.6 2 2 .8-.4 1.2-1.6 1.8-3.3zM589.2 615.6c2.7-3.9 5.3-7.7 4.9-12.5 0-.3.4-.8.7-.9.4 0 1.1.3 1.2.6.4 1.7 1.3 3.8.8 5.3a19.7 19.7 0 01-5.8 10c-2.2 1.9-5.4 1.3-5.5-1.5-.3-4.5-.8-9 1.2-13.3.4-.8 1.3-1.4 2-2 .1.8.7 1.8.4 2.4-1.6 3.5-.6 7.1-.8 10.7 0 .4.3.8 1 1.2zM603.6 456.3c1.5-1.2 2.9-1.5 4.3-.2.5.5 1.3 1 2 1 1 0 2.2-.4 3.3-.6-.7-.6-1.3-1.4-2.1-1.9-2.3-1.1-4.7-2.3-4.5-5.2.1-3.1 2.4-4.9 4.8-6.7 1.8-1.4 2.8.1 4.1.2.2 0 .6.7.5 1 0 .4-.6.8-.9.8-1.7-.2-3.1.2-4 1.7-.6 1-1.2 2.2-1.3 3.3 0 .5 1.2 1.1 2 1.7l4 3c1 .9 1.8 2.1 1.1 3.2-.6 1.1-2 2.2-3.2 2.4-3.8.6-7.2-.6-10-3.7zM671 207.9c-4.8.9-5.3-.3-5.1-5 .1-4 2.7-6.8 4.1-10.2 1-2.3 3.4-2 4.6.4 2.4 4.6.6 8.8-1.6 12.8-.4.7-1.1 1.1-2 2zm1.7-10.4v-1.9c-.5.3-1.2.3-1.6.8-2.2 2.4-2.3 5.5-2.2 8.6 0 .2.3.4.5.7.2-.2.5-.4.6-.7 1-2.2 1.8-4.3 2.7-7.5zM672.7 470.7c1.1-1.6 2.2-2.8 3.3-3.9.8 1.8.7 3.3-.1 5.2-1.4 3-2.1 6.1-3.2 9.2-.3.8-1 1.5-1.7 2.1-.7.7-2.3 1.8-2.5 1.6-1-1-2.7-1.6-2.5-3.6.3-3.7-.7-7.4 0-11.2l.4-1.2c.4.3 1.2.6 1.3 1l1.2 7.2.5 2.2 1.4-2.3 2-6.3zM626.4 410.9c-1.4 2-2.4 3.8-3.7 5.5-.2.3-1 .2-1.5.3-.1-.5-.4-1-.2-1.3 1.8-2.5 0-6.2 2.6-8.6.1 0-.8-2-1.5-2.3-2.7-.8-4.5-2.7-6.1-4.7-.6-.7-.4-2.1-.2-3.2.1-.5.5-1.1 1.4.1 1.4 2 3.6 3.7 5.6 5.3 1.6 1.2 2.5.6 3-1.5.2-1.1.4-2.4 1-3.3.4-.7 1.5-1 2.2-1.4l-.3 2.3c-.7 4.2-1.4 8.4-2.3 12.8zM546.3 452.2c-1.5-2.1-2.8-4-4-6-.2-.2 0-.8.1-1.2.5 0 1.3-.1 1.6.2.8.7 1.4 1.7 2 2.5.4.5.6 1.1 1.1 1.5l4.3 3 1.3-4.7c.3-.8.6-1.8 1.2-2.4.4-.4 1.4-.2 2.2-.4v2c-1.1 4.2-2.1 8.4-3.4 12.5-.7 2-2 3.8-3 5.7-1.4-2-.9-4 0-6.2 1.2-3-1.5-4.5-3.4-6.5zM716.7 431.5c-2.8-2.5-2.9-4.6-.9-7.6 1.8-2.7 4-4.6 6.7-6 .5-.2 1.4.3 2 .5-.4.4-.7 1.1-1.2 1.3-2.3 1-3.4 3.3-5 5-1.4 1.6-.3 4.8 1.9 6.5 2.5 2 3 3.7 1.5 6.1-.3.4-1 .6-1.5.7-4.1.9-7.2-1.7-10.7-3-.2-.1-.3-.7-.3-.9.2-.3.6-.9.8-.8 1.8.2 3.8.2 5.3 1 1.3.6 2.3 1.4 3-.2.2-.5-1-1.5-1.6-2.6zM559.7 398.9l.7-1.5c1-2 2.2-4.5 4.2-4.2 2 .3 2.5 3 2.6 5.3.1 3.7.6 7.4.9 11 0 .5-.4 1-.6 1.5-.5-.4-1-.8-1.3-1.4-.2-.5 0-1.2 0-1.9 0-1.7-.3-3.2-2.4-3.3-1.8 0-3.9-.6-4.4 2.2-.1 1-.5 2-1 3-.3.5-1 .9-1.5 1.3-.4-.7-1.3-1.7-1.1-2.2 1-3.3 2.4-6.4 3.9-9.8zm5 .7l-.4-.7-.6-2.1c-.4.4-1 .8-1.3 1.3-.4.6-.8 1.3-1 2 0 .7 0 1.7.3 2.1.4.4 1.7.5 2.1.1.7-.5 1-1.4 1-2.7zM612.3 122.2c-.6 3-2.2 4-4.8 3.8-1.7 0-3.5.2-5.2 0-.6-.2-1-1.4-1.6-2.2.7-.2 1.3-.5 2-.6 2-.4 4.2-.8 6.3-1 1.8-.1 1.3-.7.4-1.4-.8-.6-1.8-1-2.7-1.5-.8-.4-1.7-.5-2.5-1-2.2-1.3-2.7-4-1-5.8 1.5-1.4 3-2.8 4.8-3.6.8-.5 2.3.2 3.4.5.4.2.7 1 .8 1.6 0 .1-.6.5-1 .6-1 .4-2.1.5-3 1-1 .7-1.7 1.6-2.6 2.5.9.5 2 .9 2.6 1.7 1.2 1.7 4.9 1.5 4 5.4zM504.7 628.1c1.7-.2 2.9-.6 4-.6 1.7 0 3.3.1 4.9.4.3 0 .5 1 .7 1.6l-1.2.5h-1.9c-2 0-2.6 1.1-2.7 3l-.9 10.6c0 1 .1 2.2-1.4 1.7-.9-.3-2-1-2.3-1.7-.4-1.1 0-2.5.1-3.7.1-1 .5-2 .7-3l1-4.5-4.6-.5c-.4 0-1.1-.4-1.1-.5.1-.5.3-1.3.7-1.6 1-.7 2.3-1.1 4-1.7zM513.6 433c-.5-.8-1.1-1.3-1.1-1.8l-.1-10.5c0-2 .8-3 2.8-2.8h1.9c4.2 0 5.5 2.4 3 6-.8 1.3-.7 1.7.3 2.4 1.7 1.2 2.3 3 1.4 4.5-.7 1.2-2.6 1.9-4.1 2.3-1.2.4-2.6.1-4-.1zm1.2-7.5l5-5v-.6c-1.2-1-5.2.3-5.4 1.9a8 8 0 00.4 3.7zm1 4.8c1 1.8 2-.2 3-.1.2 0 .6-1 1-1.6-.6-.4-1.2-1-1.8-1.1-1.7-.2-2.6.7-2.2 2.8zM696.5 535.2c-2.5-2-2-4-.7-6 1.2-1.9 2.4-4.1 5.3-3.8.5 0 1 .5 1.4.7l-1 1.2-1.2.7c-3.2 2.8-3.2 3.4-.5 6.7.9 1 1.4 2.4 2.4 3.3 1.7 1.5 1.2 2.7.4 4.4-.8 2-1.9 2.2-3.6 2.2-5 .1-7.7-1.6-8-5.5v-.9c.4.1.8.1 1 .3 1.9 1 3.6 2.3 5.5 3 .7.4 1.9-.6 2.8-1l-1.2-1.7-2.6-3.6zM515.3 539.8c-3.5.6-4.4-2-4.7-3.8-.7-4.4 1.3-8.3 3.6-11.8.7-1.1 4 0 4.9 1.6 2.1 3.8 1 10.8-2.4 14h-1.4zm1.4-10.6c-.8 0 0-3.4-2-.9-1.6 2.2-1.4 4.6-1.3 7 0 .6.4 1 .6 1.6.6-.4 1.7-.6 1.8-1.1.7-2 1-4 1-6.6zM554.7 577.2l2.4 1c-.4.4-1 .7-1 1-.2.6-.1 1.5.3 1.8 3.6 3.7 2.5 12-2 14.3-3 1.5-7-.5-7.4-3.8-.6-3.9.6-7.3 3.1-10.2 1.3-1.4 2.7-2.7 4.6-4zm-4.8 8.2c-.3.8-.3 1.8-.7 2.5-1 2 .2 3.6 1.2 4.5 1 .7 2.9.5 4.1-1 1.6-2 2.6-4 2-6.3-.4-1.5-1.7-2.7-2.6-4l-3 2.6c-.4.3-.4.8-1 1.7zM572.7 515c-2.9-2.2-4.2-5.4-3.4-7.7l2.6-7c.1-.3.3-.7.5-.8.7-.3 1.6-.8 2.2-.6.8.3 1 .8.4 2-1.1 2.6-1.5 5.4-2 8.2-.2.9.1 1.8.3 2.7l2.3-1.1c2-1.1 4.1-2.3 6.2-3.3.4-.2 1.2-.3 1.2-.1.3.5.3 1.1.4 1.7v.5c-3 2.5-5.6 5.6-9.8 6.3-.2 0-.5-.3-1-.7zM696 476.2c0 2-.2 4-.1 5.8 0 .7 1 1.4 1.5 2.1l1.3-1.4c2-1.4 3.5-3.5 6.2-3.4 1.3 0 2 .6 1.2 1.6-2.7 3.2-6 5.8-9.7 7.8-1.3.6-2.6.6-2.6-1.7 0-2.2-.9-4.3-.8-6.5 0-2.4.5-4.8.9-7.2.1-1 .5-2 1-3 0-.3.7-.6 1-.6.3 0 .8.6.8.9-.2 1.8-.6 3.6-.7 5.6zM606.3 513.6c-.9.8-1.3 1.5-2 1.9-.4.2-1.2 0-1.6-.2-.5-.4-.7-.7-.5-1.7.9-3.3.4-7 2.3-10.1.7-1.2 0-2.5-1.9-2.2-1 .2-2.2.2-3.3 0-.5 0-1-.5-1.4-.7.3-.5.4-1.2.9-1.5.6-.4 1.4-.5 2.1-.6 2.1-.3 4.4.7 6.4-1 .3-.2 1.2 0 1.8.2l4.9 2c-1.6.6-3.2 1-4.7 1.7-1.7.8-3 2-2.9 4.3a47 47 0 01-.1 8zM609.1 586.1c1 1.6 2 3 2 4.2 0 1.3-1 3-2 3.8-2.6 2-8.8 0-10.3-3-.3-.6-1.1-.8-.3-1.7 1-1 1.2 0 1.8.3l2 1c2 1.6 5.1 1.7 5.8.3 1-1.7-1.4-3.8-3-5.1-3.2-2.4-3.3-2.5-.8-5 1.3-1.3 2.7-2.4 4.3-3.3.7-.4 2 0 2.9.4.4.1.6 1 .7 1.5 0 .1-.7.5-1.1.6-.5 0-1.1-.2-1.4 0-1.1 1-2.5 1.8-3.1 3-1 2.2 2 1.5 2.5 3zM500 566.7c-4.1 1.5-6 1-7.8-2-2.5-4-.9-10.8 2.2-13.3 1.6-1.2 3-1.5 4.6-.5l1.9 1.4c-.8.3-1.5.8-2.3.9-3.2.3-4 1.2-4.4 4.6-.2 1.4-.9 3-.3 4 1.3 2.6 4.4 2.6 6.8.8 1.4-1 3-1.8 4.5-2.6.1 2.1-1.5 3.3-2.8 4.6-.6.7-1.3 1.4-2.5 2zM648.7 381.4c0 .8.2 1.2 0 1.4-.5.8-1 1.5-1.7 2.2-1-1-1.9-1.8-.4-3 .2-.2.2-1 0-1.3-.9-1-6.6-.1-7.4 1.1l-1 2.4-2.4 2.9c-.2-1.3-1-3-.4-4 2.2-3.8 3-8.4 6.4-11.7 1.4-1.4 3-2.2 4.5-1.4 1.4.7 2.7 2 2.5 4.2-.3 2.2 0 4.5 0 7.2zm-8.1-3c1 0 2.2.3 3.3 0 1-.3 2.6-.9 2.8-1.6.2-1.4-.3-3-.8-4.3 0-.3-1.8-.4-2 0a18.5 18.5 0 00-3.3 6zM594.3 454.6l5-6.9c.2-.4.8-.5 1.3-.7 0 .4.2 1 .1 1.3-1.3 4.5-3 8.8-6.6 12-.6.6-2.5.5-3 0-1.3-1-2.5-2.6-2.7-4a20 20 0 011.9-12.1c.2-.6.9-1 1.3-1.4.2.6.5 1.2.5 1.7l-1 7.3v2.8l1.2 3.3 2-3.3zM604.6 603.1l-1 11.1c0 .5.3.9.4 1.3l1-.8c2.4-2.5 5.6-3 8.8-2.7.5 0 .9.8 1.3 1.2l-1.2.5-7.6 3.8c-3.8 1.9-4 1.5-5.7-2.4-2-4.5 0-8.2 1.7-12 .2-.4 1.5-.3 2.3 0zM749.5 376.6c-.6 3.2-1.2 6-2 8.7-.1.7-.8 1.2-1.3 1.8-.5-.7-1.5-1.5-1.4-2.2.5-3.3.7-6.7 2-9.6 1-2 0-2.3-1-2.5-1.2-.3-2.6 0-3.8 0-.8-.1-1.6-.3-2.1-.7-.5-.3-.6-1-1-1.5.6-.3 1-.7 1.5-.7h6.2l7.8-1c.6 0 1.2.5 1.9.8-.5.6-.7 1.4-1.3 1.8-.4.3-1.2.2-1.8.3-3.5.4-3.5.4-3.7 4.8zM727.5 637.7l-1 9.6c-.1.7-.5 1.3-.8 2-.7-.6-2-1.1-2-1.7 0-2.3 0-4.7.4-7 .6-3 .6-3.2-2.5-3.9-1-.2-2-.5-3-1-.6-.3-1.1-.9-1.7-1.4.8-.5 1.6-1.4 2.3-1.3 4.2.6 8.4-.5 12.6 0 .5 0 1 .4 1.4.6-.3.6-.4 1.3-.9 1.6-1.5.7-3.2 1.3-4.8 2.5zM582.5 444.7l1.8.4c-1.9 3-.8 6.1-.8 9.3v2.8c-.4 2.1-.5 5-2.5 5.5-2.1.6-4.7 1-7.1-1-2.4-1.7-4.6-3.1-3.8-6.5.1-.6.9-1.2 1.3-1.8.2.6.6 1.1.5 1.6-.4 2 1 3 2.3 3.9 3.3 2.4 5.8 1.4 6.3-2.8.3-2.5.1-5.1 0-7.6 0-1.5.1-2.9 2-3.8zM529.5 582.7c-.1-1 1-2.4-1-2.7-1.7-.2-3.4-1.1-5-1.9-.3 0-.3-1-.3-1.5 0-.2 1-.5 1.2-.3 4.3 2 8.8.6 13.2 1 .6 0 1.1.6 1.7 1-.4.2-.8.7-1.3.8-5.4 1.1-6.4 2.3-6.4 7.6v6.7c-.1.7-1 1.8-1.7 2-1.6.3-.8-1.2-1.2-1.9-1-1.6-1-2.7-.1-4.6.8-1.6.5-4 .9-6.2zM534.3 211.7c2.8 2.8.2 5.2-.4 7.3-1.4 5.4-5.3 10-6.2 15.6-.1.8-1 1.6-1.7 2-.5.4-1.5.6-2 .3s-1-1.2-1-1.9c0-.8.5-1.7 1-2.4 4.2-6.3 6.2-13.7 9.3-20.5.2-.2.5-.4 1-.4zM543.4 471.4c.2.9.2 1.5.1 2.1l-2.5-.7c-2.6-.7-4.3.5-4.6 3.1-.4 3.8-2.5 7.2-2 11.2.1 1.2-1.4 2.3-2.7 1.7-.6-.3-1.3-2-1-2.5 2-3.6.4-8.3 3.8-11.4v-.9c-.4-.2-1-.6-1.2-.4-1.5 1.1-3 1.6-4.5.2-.5-.4 3-3 4.8-3 3.2-.1 6.4-1.2 9.8.6zM532.3 369.6c-1 .8-2.2 1.2-2.8 2-1.2 1.3-1.6 2.4.8 3.3 1.6.7 2.8 2.6 4.2 3.8 1.5 1.3 1 2.5 0 3.5-.7.6-1.8 1.2-2.6 1-2.7-.6-5.4-1.5-8-2.5-.5-.1-.5-1.2-.8-1.9.6 0 1.3-.4 1.8-.3l6 1.9c.4.1 1-.3 1.6-.4a36.8 36.8 0 00-4-3c-3.2-2-3.6-4.7-1-7.3 2.3-2.4 5-3 7.5-1.7.6.2 1 .8 1.4 1.2l-1.9.2c-.6 0-1.3 0-2.2.2zM511.5 199l.9-5c.1-1.3.4-3-.2-4.1-.3-.6-2.3-.3-3.5-.6-.5 0-1-.6-1.5-.8l-1.4-.7c.4-.4.8-1 1-1 4 .4 7.7-2.7 11.7-.5 1 .5 2.5 0 3.7.2.3 0 .7.7.7 1 0 .3-.4.6-.7.9h-.5c-2 .4-4.6-1.1-5.7 1-.9 1.6-.5 4-.7 6-.3 2-.5 4.1-1 6.2-.2.8-1 1.4-1.5 2-.4-.5-1-1-1.3-1.8-.2-.7 0-1.5 0-2.8zM572 134.7c1.1.8 1.4 1.6-.1 1.9-1.8.3-4.3-1-5.2 1.1-.8 1.6-.4 3.7-.5 5.6l-1 8.2c-.2.5-1 .9-1.4 1.3l-.7-1.5c-1.9-4-1-8.3.4-12.1.7-2.2 1.1-2.8-1.4-2.6h-1.4c-1-.4-2.8 1-3-1 0-.4 1.8-1.2 2.8-1.5 3.7-1 7.3-.3 11.4.6zM686 589c-1.1-1.4-2.3-2.4-2.6-3.6-.7-2.9 1.9-5.8 5.2-6.2 1-.2 2.2-.1 3.3 0 .3 0 .7.4 1 .7-.3.4-.7 1.1-1 1.1-2.2-.2-3.9.8-5.4 2.1-1.8 1.6-1.7 2.4.1 3.7 1.3.9 2.6 1.7 3.7 2.7 2.1 2 2 3.4-.5 4.6-4 2-8.2 1.8-12.2 0-.4-.3-1-.8-1-1 .1-.4.6-1 1-1 .9-.2 1.7-.3 2.6-.2 1.8.2 3.6.7 5.5.6 1 0 2.2-.8 3.2-1.3l-3-2.2zM621.9 612.7c-1 3.5-2 6.4-3 9.3 0 .4-.2.9-.4 1.3-.4-.5-1.3-1-1.3-1.3.1-3-1.1-6 .7-8.7.4-.6 1-1.3 1-2-.2-1.7.8-2.8 2-3.9-1.6-.1-3.1-.1-4.6-.5-.8-.2-1.4-1-2-1.5.8-.4 1.5-1.2 2.3-1.2 2.5-.2 5-.2 7.6 0 .9 0 1.6 1 2.5 1.6-.7.4-1.5.7-2 1.2-.7.7-1.4 1.5-1.9 2.3-.4 1-.6 2-1 3.4zM651.6 688.6c-4.7-1-4.2-4.4-3.7-7.1.6-3.5 2-6.8 3.2-10.1.1-.4.6-.7 1-1 .1.4.5.8.4 1.1-.4 3.2-.7 6.4-1.5 9.4-.4 1.4-.6 2.6.6 3.2.7.4 1.9 0 2.7-.4 1.8-.8 3.6-1.9 5.5-2.8.3-.1 1 0 1.2.4.2.2.2 1 0 1.2-2.7 2.3-4.5 6.1-9.4 6zM567.4 610.1c-.6.9-1 1.5-1.2 2.2-.7 3.2.6 4.4 3.8 3.3 3-1 5.8-2.3 8.7-3.4.5-.2 1-.1 1.6-.2-.1.7-.1 1.7-.5 2-4 2.4-8.1 4.3-12.6 5.3-.7.2-2.4-.7-3.3-2.3-2.2-4.2 1-6.7 2.4-9.5 1.2-2.1 3.7-2.8 6.1-2.4.8.2 1.6.8 2.3 1.3.2.2.2.8 0 1-.2.2-.9.6-1 .5-3-2.5-4.3.4-6.3 2.2zM676.6 608.9c-1 3.4-1.8 6.4-3.1 9.2-.8 1.7-2.6 3.1-4.7 2.2-1.7-.7-3-2-2.8-4.3.3-2.7-.4-5.5 0-8.3.2-.7.4-1.4.9-2 .3-.4 1-.4 1.6-.6 0 .5.3 1.2.1 1.6-1.4 3-.8 6 .6 8.8.8 1.4 2 .9 2.3-.2 1-2.3 1.4-4.9 2.3-7.2.3-.8 1.3-1.4 2-2l.8 2.8zM543.1 397.7c.2-4.6.2-4.5 4.2-4.8 1.8-.2 3.6-.8 5.4-.9.6 0 1.2.8 1.8 1.2-.6.4-1 1-1.7 1-1.6.3-3.3.5-5 .6-1.7 0-2.7.7-2.7 2.4 0 1.2-.8 2.6 1.8 1.6 2.3-.8 5-.2 7.6-.1.4 0 .7.7 1.1 1-.3.3-.6.8-.9.8-2 .4-3.9.9-5.8 1-4 .2-4 .1-4.8 3.8-.2.7 0 1.6 0 2.3-.1.3-.7.5-1.1.6l-.8-.4c.4-3.2-1-6.6 1-10.1zM610 406a52 52 0 017.1 0c.3 0 .5.6.8 1-.3 0-.6.3-.8.3-3.4-.9-5.6 1.9-8.3 3-1.7.7-3.2 3-5.2 1.2-1.6-1.6-2-3.3-1.2-6 1.1-3.6 2.4-6.8 4.6-9.7.2-.3.8-.4 1.3-.6 0 .4.2 1 0 1.4l-2.1 5.7c-.2.4-.6.8-.6 1.2 0 1.6.2 3.1.3 4.6l4.2-2zM580.8 261.6c-.4 2.6-1.7 2-2.4.8-.6-1-1-2.6-.6-3.5 1.1-2.6-.1-5.9 2.3-8.1 0 0-.4-1-.6-.9-2 .3-3.9-.4-5.6-1.4 1.5-2.5 4-1.3 6-1.5 1.9-.2 3.8-.1 5.7 0 .6.1 1 1 1.6 1.5-.5.2-1 .5-1.6.6-3 .4-3.2 2.2-3.2 4.8 0 2.5-.9 5-1.6 7.7zM556.6 375.6c1-.3 1.5-1 2-.9 2.6.5 3.5-1.2 4.4-3 .3-.7 1-1.3 1.5-1.8v2.1c.1.6.3 1.3.7 1.7.4.3 1.2.4 1.8.6-.5.5-1 1.3-1.4 1.2-3-1-2 2.1-2.8 3.1-.5.5-.2 1.5-.5 2.2-.4 1.1-1 2.2-1.6 3.3-1.4-1-1.6-2-.4-3.5.6-.7.5-2 .6-3l-.1-1c-2.7-1.3-6.3.7-7.1 3.8l-.7 3c-.2.6-.7 1-1 1.6-.3-.8-1-1.6-1-2.3.4-1.9 1.2-3.7 1.7-5.5l2-7.8c.1-.5.9-1 1.3-1.4.2.5.6 1 .5 1.5 0 2-.2 4 0 6.1zM760.8 640.3c-.4 1.6-.6 3-.7 4.4 0 .7.1 1.7-.2 2.2-.6.9-1.5 1.5-2.3 2.2-.5-1-1.4-2-1.3-2.8.6-2.9.2-6 2.3-8.5 1-1.2 1-2-.9-2h-1l-3.3-.7c.6-1.5 2-1.8 3.4-2.3 3-1 6.1-1.5 9.2.1l.8.9c-.4.3-.7.9-1.1 1-4.6 1-4.6 1-4.9 5.5zM495.9 590.4l-3.6 2.6c-1.7 1.2-3.8.5-3.8-1.5 0-2.1-.7-4.3.8-6.4 1-1.5 1.4-3.5 2-5.4.3-1 .4-2 1-2.9.7-.9 1.7-1.5 2.6-2.2l-.6 3c-1 2.9-2.1 5.8-3 8.8-.2 1 .2 2 .3 3.2.8-.4 1.7-.6 2.3-1.2 2-1.7 4.2-1.7 6.6-1.5.4 0 .9.5 1.4.7-.4.4-.7 1-1.1 1.1l-5 1.7zM709.5 472.3l1.2 3.2c.6 1 1.4 1.8 2 2.7.1-1 0-2 .4-2.8a40 40 0 012.8-6c.3-.5 1.6-.4 2.5-.6 0 .7 0 1.3-.2 2l-3.3 11.1c-.2.8-.9 2-1.5 2-.7.2-1.8-.6-2.2-1.3a56 56 0 01-3.4-7.2c-.5-1.2-.5-2.7-.4-4.1 0-.5 1-1 1.5-1.5 0 .8.2 1.5.6 2.5zM682.3 676.1c1.5-3.7 1.5-3.7-1.2-3.8h-2c-1.1 0-1.6-.3-1.6-1.6 0-1.5.9-1.4 1.8-1.3l12.5 1c.3 0 .7.3 1 .5-.3.3-.6.9-1 1l-2.7.3c-2.7.2-3.6 1-3.9 3.7l-1 7.2c0 .6-.7 1.1-1 1.6-.6-.6-1.8-1.2-1.7-1.8 0-2.1.5-4.2.8-6.8zM656.2 560.7c-.4 1.9-.4 3.6-.8 5.2-.2 1-1 1.7-1.5 2.6-.4-.8-1.2-1.6-1.3-2.3 0-1.8.5-3.7.6-5.5.1-1.2.2-2.4 0-3.5-.6-2.6.2-3.8 2.7-4 3-.2 5.8-.7 8.7-1 .7 0 1.6 0 2.2.5.6.3.8 1.2 1.1 1.9l-1.6.5c-2.1.3-4.2.9-6.3.7-3.8-.2-4 1.9-3.8 4.9zM719.8 450.5c4.6-3.3 9.8-1.4 14.7-1.9.1 0 .6.7.6 1 0 .3-.5.6-.8.9h-.5c-5.3.7-6 1.5-6.3 7v6.2c0 .4-.4.8-.5 1.2-.6-.2-1.3-.3-1.6-.7-.4-.6-.7-1.3-.8-2-.1-1.8-.2-3.6 0-5.3.3-1.8 1-3.5 1.6-5.3l-6-.3c-.2 0-.3-.2-.4-.8zM522.3 608.2c-.3 3-.2 6-.3 8.8 0 1.2-.5 2.4-1 3.5-.2.4-.8.6-1.2.9-.2-.4-.7-.8-.6-1.1.1-1.5-1.5-2.6-.3-4.6 1-1.7.4-4.4.2-6.6-.2-2 1-3.4 2.3-3.7 4-1.3 8.2-1.6 12.4-1.3.3 0 .7.7.6 1 0 .3-.4.8-.7.9l-6.8 1c-1.5.2-3 .6-4.6 1.2zM626.7 460c-1 1.3-1.6 1.5-2 0-1.2-3.9-2.4-7.8 1.2-11.1.8-.8.9-1-.4-1.3-1.9-.4-3.7-1-5.5-1.5 1.6-2.3 4-1.1 6-1.3 1.8-.2 3.6-.1 5.4 0 .3 0 .7.4 1 .6-.3.4-.6 1.2-1 1.2-2.6 0-2.7 1.7-2.9 3.7-.4 3.2-1.2 6.2-1.8 9.8zM528.7 563.8c1.8 1 3.5 1.4 5.2 1.9.5.1 1 .4 1.4.6-.4.4-.8 1.1-1.3 1.3-1 .2-2.2-.3-2.8.1-2 1.4-4.4 1.7-5.5 0-1-1.6-1.5-4.8-.6-6.2 2.3-3.4 1.5-6.9 1.7-10.4 0-.5.3-1.1.5-1.7.4.4.8 1 1.3 1.3 2 1.5 1.5 3.8 1 5.3-1 2.4-.7 4.9-.9 7.8zM521 405.4c-.3-1.5-.5-2.5-1-3.4-.7-1.3-2-2.4-2.6-3.7-.3-.7.2-1.7.3-2.5.6.5 1.2 1 1.6 1.6l2.4 3.3c.4.4 1 .6 1.6.8l.6-1.5 2.1-4.8c.3-.6.9-.9 1.4-1.3 0 .7.5 1.6.3 2.2-.7 2.5-1.6 5-2.5 7.5-.9 2.5-1.7 5-2.8 7.5-.2.4-1.5.8-2.1.6-.9-.3-1.4-1-.3-2 .7-.8.7-2.2 1-3.4v-1zM676.6 527.3l7.7-1c.3 0 .8.5.9.8 0 .4-.3 1-.6 1.1-.7.3-1.5.3-2.2.5-1.4.4-2 1.2-2 2.9-.1 3.4-.5 6.7-1 10-.1 1-1 1.9-1.6 2.7 0-1.2-2.8-.8-1.4-3 1-2 .7-4.5 1.1-6.7l1-4c-1.2-.2-2.4-.3-3.5-.7-.8-.2-1.7-.7-2.2-1.4-.3-.3 0-1.2 0-1.8l1.4.6h2.4zM598.8 433.2a24 24 0 01-.7 2.9l-1.3-1.5c-1.7-2.6-1.3-5.5-.3-8 .9-2.3-.1-2-1.5-2-1.7 0-4.6.5-4.5-1.4 0-2.3 3-1.3 4.7-1.5 2.6-.3 5.2-.7 7.8-.8.8 0 1.5.7 2.3 1-.5.4-1 1-1.5 1-5.5 1.4-4.5 6-5 10.3zM542 554c3.5-.5 6.7-.6 10-.7.2 0 .7.6.7 1 0 .2-.5.8-.8.8-2.5-.2-5.3 0-6.5 2.3-1.1 2-1 4.7-1.3 7.1-.2 1.5.4 3.8-1.6 3.8-1.5 0-1.4-2.2-1.3-3.6.3-1.8-.6-3.6.9-5.4.8-1 0-2.2-1.6-2.6-.5-.1-.7-1.4-1-2.2.7-.1 1.4-.2 2.4-.6zM637.2 114.5c.1 5.4-2.5 9.8-3 14.6 0 0-.7.2-1 0-1.5-.9-2.1-2.3-1.7-4 .9-4.4 1.8-8.8 3-13.2.1-.8 1.6-2.2 2.2-2 1.5.3 1.3 1.5.5 2.7-.2.3 0 1 0 1.9zM686.2 619.5c-.5 1.2-1 2-1.4 2.7-.5-.6-1.4-1.3-1.4-2 0-2.3.7-4.6.6-6.8 0-1.7 2.8-4.5-1.6-5-1-.1-1.3-1.4 0-2 .8-.3 2-.6 2.6-.3 2.2 1 4.3-2.2 6.4-.1l1.3.7c-.3.3-.6.8-1 1-.7.2-1.6 0-2.2.3-1 .4-2.1 1.1-2.3 1.8-.5 3-.7 6.1-1 9.7zM761.8 567.9c0-4 0-7.8.5-11.5.2-2 1-3.8 1.7-5.6.2-.5.7-1 1.2-1.4.2.5.7 1 .6 1.5-.4 2.5.6 5-.7 7.8-1 2 .2 4.8-.2 7.3l-.5 2.6-1 1.8-1.6-2.5zM504.7 371.8c-.4-.7-.5-1.9-.4-1.9l10.7-1c.4 0 .8.6 1.3.9-.4.3-.8 1-1.2 1-3 0-3.6 1.7-3.8 4.4-.2 3-1.2 5.8-2 8.7-.1.4-1.4 1-1.6.8-.5-.4-1-1.3-1-1.9.5-2.6 1.3-5.2 2-7.8.8-3.2.8-3.2-2.5-3.2h-1.5zM715 623.3c.6-3.4 1.2-6.3 2-9.2.4-1.9 1-3.7 1.7-5.5.1-.3 1-.4 1.5-.7.2.4.5.9.5 1.2l-1.1 10c-.2 1.5-.3 3-.9 4.5-.3 1-1.3 1.7-2 2.6-.5-.8-1.1-1.6-1.7-2.9zM631.5 382.3c-.8 1.5 1.3 4-1.3 3.8-2-.2-1.9-2.3-1.6-3.9.5-2.3 1-4.7 2-6.8.8-1.7.5-2.3-1.2-2.7-.6-.1-1.2-.6-1.8-.9.7-.3 1.4-.8 2.1-1 2.8-.4 5.6.8 8.3-.9.2-.1 1.2.7 1.8 1.1-.5.4-.9.8-1.4 1-.8.3-1.8.8-2.6.7-2.4-.3-3 .8-3 3-.2 2-.9 4.1-1.3 6.6zM617.3 500.7c0 3.7.5 7.3.6 10.8 0 1-.8 2.2-1.3 3.3-.8-1-2.3-1.9-2.3-2.8 0-4.3.5-8.7.9-13 0-.5.7-1.1 1.3-1.3.7-.2 1.5 0 2.2 0l-.7 2-.7 1zM667 591.6l-.8 2c-.4-.4-1-.7-1.1-1v-7.7c0-1.6.4-3.3-2.3-3-.4 0-1-1-1.5-1.4.7-.5 1.2-1.3 1.9-1.3h8.1c.5 0 1 .8 1.4 1.3-.4.2-.7.5-1.1.5-1.2.2-3.1 0-3.5.6-.8 1.3-1 3.1-1 4.8-.3 1.5-.1 3.1-.1 5.2zM587.3 502.3V501c.9-1 2.1-3 2.6-3 2.4.9.4 2.5.3 3.8l-1 11c-.2 1-1 2-1.5 3-.5-1-1.3-1.9-1.3-2.8.1-3.4.6-6.7.9-10.6zM534.3 149.8c-1 1.5-1.9 1-2.3 0a9 9 0 01-.4-3.1v-12.5c0-1.4.6-1.7 1.7-1.4.5.1 1.1.9 1.1 1.4.1 5.1 0 10.2-.1 15.6zM511.5 606l-1 12.2c0 .4-.6.8-1 1.3l-1-1.2c-2-5-1-9.8 1.1-14.5.2-.5 1.6-.4 2.4-.6-.2.8-.4 1.6-.5 2.8zM637 477.1c.5-2 .7-3.8 1.3-5.5.1-.5 1.3-.7 2-.9.2 0 .8 1 .7 1.4-.9 4-1.8 8.1-2.9 12.1-.4 1.6-1 3.3-2 4.6-.3.5-1.3-3-.7-5.3l1.6-6.4zM595.2 410c-.7-2.3-2-4-.4-6.3.8-1.2 0-3.4.2-5.1 0-1 .4-2 .7-3 .2-.6.6-1 1-1.5.4.5 1.1 1 1.1 1.4 0 4.8.6 9.7-1.1 14.3 0 .3-.8.3-1.5.1zM595.2 218.9c.3 2.2.9 4.3.2 6-1 3 .8 6.5-1.4 9.2l-.4 1.3c-.5-.4-1.2-.8-1.3-1.2-.2-2-.3-3.8-.2-5.7.2-3 .6-5.8 1-8.7.1-.5 1.2-.8 2.1-1zM624.5 685.5a13 13 0 00-1 1.8c-.2-.3-.6-.6-.7-1a227 227 0 01-1.9-7.8c-.4-1.9.9-4-.9-5.9-.2-.1.5-1.3 1-1.8.2-.1 1.5.4 1.6.8.7 2.7 2.1 5.6 1.6 8-.4 2.2 1.6 3.7.3 5.9zM768.7 668.4a8 8 0 012 .8c-.4.4-.7 1-1 1-2 .5-4 .8-5.9 1.1l-10.7 1.9c-.5 0-1-.3-1.6-.5.2-.5.3-1.4.7-1.6 1.8-.7 3.6-1.4 5.5-1.7 3.5-.5 7-.7 11-1zM495.1 505.2l1-9.1c.1-.5 1-1 1.4-1.4.2.5.5 1 .5 1.6l-1 14c-.1.8-1 1.7-1.4 2.5-.5-.9-1.3-1.8-1.3-2.7 0-1.5.5-3 .8-4.9zM684 382l-.7 2-.5 1.2c-.6-.2-1.4-.3-1.6-.7-.4-1-1-2.6-.7-3.4 1.3-2.7 2-5.3 1.9-8.3 0-.4.6-1 .9-1.5l.6-1.3c.4.5 1.2.9 1.3 1.4.1 1.5.6 3.6-.1 4.6-1.5 2-.5 4-1 6zM517.2 632v10.9c0 .5-.4 1-.6 1.5l-2-1.1-.3-.8c.4-3.8-1-7.8 1-11.5.3-.7-.4-2.2 1.2-1.8.4 0 .5 1.5.7 2.7zM497 380.4l3-12.6c0-.6.1-1.2.4-1.7.2-.4.6-.7 1-1 .1.4.5.8.4 1.2-.2 3.2-.5 6.4-1 9.6-.1 1.5-.5 3-.9 4.4-.1.7-.4 1.4-.6 2-.7-.4-1.5-1-2.2-1.9zM540 587.5c.3-3-.2-5.8 1.6-8.2.2-.4.6-.7 1-1 .2.5.5 1 .5 1.5l-1 12.9c0 .3-.5.8-.8.8-.4 0-.9-.3-1.1-.6-1.5-1.6-1-3.4-.2-5.4zM730.3 555.1c2.1-.7 2.1.8 2 2l-2 11.2c0 .5-.6.8-1 1.2-.2-.4-.7-.7-.9-1.2-2-4.6.2-8.6 2-13.2zM666.7 540.5c-.4 0-.8-.2-.9-.4-1.3-4.4-1.2-8.8.3-13.1.2-.6 1-1 1.5-1.5l.3 1.8v10.5c0 .8-.6 1.6-1.2 2.7zM749.5 633.9c-2.4 3.5-1.9 7.1-1.9 10.6 0 1.4 0 3.5-1.4 3.5s-1.5-1.9-1.5-3.4c0-3.4.5-6.6 2-9.6.5-1.2.9-3 2.8-1.1zM567.1 682.8c-2.7 2-5.5 2-8.2 2l-1.3-.5c.3-.3.5-.8.9-1a23 23 0 0112.8-2.4c.5 0 1 .8 1.4 1.3-.6.2-1.1.5-1.7.6H567zM584.4 425.5c.8-1.9 1.6-3.3 2.3-4.7.2 1.5.6 3 .5 4.4-.1 3-.5 6-.9 9 0 .4-.5.6-.8 1-.4-.4-1-.8-1-1.1v-8.6zM656.4 589.7c.1 1.8-.7 2.5-1.5 1.6-.8-.8-1.6-2.6-1.2-3.6 1.1-3.2.9-6.8 3.2-9.6l1-.8c.2.4.5.9.4 1.3-.1.9-.2 1.8-.6 2.6a17.8 17.8 0 00-1.3 8.5z"/>
  <path fill="#00EBAB" d="M664.3 562.1c-1.9.4-3.5.6-5.2.7-1 0-1.8.1-1.8-1.4 0-1.3.5-1.5 1.7-1.5h7.5c.5 0 1 .5 1.4.8-.5.4-.9 1-1.5 1.1-.5.2-1.2 0-2 .3zM530 610.1c.6-.2 1.1-.3 1.6-.2l2.9.7c-.8.7-1.6 1.8-2.5 2-2 .6-4.2.9-6.3 1-.5.1-1.2-.5-1.8-.8.5-.6.8-1.6 1.3-1.7 1.5-.5 3-.5 4.7-1zM781.2 511a47.4 47.4 0 01-5 5.5c-.3.2-1 .2-1.3 0-.2 0-.4-.4-.4-.7.1-2.2 4.7-7 6.8-6.7 1.9.3 0 1 0 1.9zM648.7 536.9a53 53 0 01-3.3 5.7l-1 1c-.2-.4-.5-.9-.4-1.3.2-1.6.3-3.3 1-4.8.6-1.5 2-2.4 3.7-.6zM639.9 678.7c-.4.3-.6.3-.8.3-1.2-.3-3.6-.4-3.6-.8-.3-2.4 2.9 0 3.4-2 0-.3 1.8-.2 2.7 0l3.2.3c-.7 1.6-2 1.6-3.5 1.5-.4 0-.8.3-1.4.7zM768.7 646.3c-1 .5-2.5.9-2.7.4-.7-1-1-2.4-1-3.7 0-.5 1-1.3 1.6-1.4.6 0 1.6.6 1.8 1.1.3 1 .2 2.1.3 3.6zM729.1 609.6c.7-.7 1.1-1.2 1.6-1.5.3-.2 1-.1 1.3.1.2.2.3 1 .2 1.2l-5 6c-.1 0-.6-.1-.7-.3-.2-.4-.7-1-.6-1.3l3.2-4.2zM774.5 560c2-1.8 3.8-1 5.6-.7-1.3.8-2.6 1.6-4 2.2-.7.4-1.7.3-2.6.3-.9 0-2.2.4-1.8-1.1.1-.5 1.5-.5 2.8-.8zM634.3 591.6c0 1 0 1.4-.3 1.8-.7 1-1.6 1.8-2.3 2.7l.5-3.8c.2-.8 0-1.7.4-2.2.6-.9 1.5-1.5 2.3-2.2.8 1.2.6 2.3-.6 3.7zM579.9 594.3c-.6-1-1.3-1.8-1.1-2.2.5-.9 1.4-1.6 2.2-2.3 0 0 .8.5 1 .8 1.2 2.2.4 3.4-2.1 3.7zM522.7 369.6l-.5.6-1.4 3.2-.6-.1c0-1.4 0-2.8.2-4.1 0-.4.5-.8 1-1 .4-.3 1-.5 1.6-.7 0 .6 0 1.2-.3 2.1zM634.6 620.7c-1.7-1.5-1.7-3.7-.2-4.6.2-.2.7 0 1 .1.3.2.8.7.7 1l-1.5 3.5zM678.3 582.3c0 2.6-1.2 2-2 .7-.5-.7-.2-1.9-.3-2.9l2.3 2.2zM686.2 529.2c.5-1.2 1.3-2.6 1.6-2.5 1.4.4.4 1.5.4 2.4 0 2.8-.9 1.9-2 .1zM658 511.7a14 14 0 01-3.5-.4v-.8h3.8l-.2 1.2z"/>
  <defs>
    <pattern id="pattern0" width="1" height="1" patternContentUnits="objectBoundingBox">
      <use transform="matrix(.00112 0 0 .00057 0 0)" xlink:href="#image0"/>
    </pattern>
    <image id="image0" width="892" height="1750" xlink:href="tiktok.jpg" />
  </defs>
</svg>
