<svg xmlns="http://www.w3.org/2000/svg" xmlns:xlink="http://www.w3.org/1999/xlink" fill="none" viewBox="0 0 859 820" width="859" height="820">
  <defs/>
  <path fill="url(#pattern0)" d="M36 23h426v781H36z"/>
  <path fill="#00EBAB" d="M241.5 113.5c-.7-2.1-1.6-4-1.5-5.9a22.6 22.6 0 0114.8-19.3c2.1-.8 4.2-1.6 6-2.7 5.3-3.4 11.3-4.6 17-6.5 4-1.3 8.4-.8 12.2-3 .3-.1.7-.3 1.1-.3 5.9-.3 11.7-1 17.5-.8 4.2.2 8.3 1.3 12.5 2.1 5.3 1 10.7 2 16 3.2 3.8.9 7.4 2.4 11.1 3.4 3.2.8 5.6 2.7 7.8 5 1.5 1.7 3.6 3 5.2 4.5 1.1 1.1 2.1 2.4 2.8 3.7 3.2 6.4 5 7.8 11.9 6.4 3.8-.7 7.5-.2 11.2-.8 7.3-1 14.7-.4 22-1 3-.2 6 .6 9-.3 3-.8 6.4.2 9.6.5 2.8.3 5.7-.5 8.6-.1 3 .4 6.2 0 9.3.1 6 .4 11.8.6 17.6 1.7 2.1.4 4.5 0 6.7.1 1 .1 1.9.9 2.8 1.4-.7 1-1.7 1.5-3 1.3h-46.8c-3 0-6 1-9 .7-2.5-.2-4.9.2-7.3.1H399l-26.8 1c-2.3 0-4.3 1.8-4.6 4.7-.5 4-2.7 7-5.3 9.9a42 42 0 01-25.8 13.2c-3.8.6-7.5.3-11.3.7-3.6.3-7.2 1-10.7.7-2.8-.1-5.5.3-8.2.2h-8.5c-2.5 0-5-.2-7.6 0-2.3.3-4.6-.1-6.8-.2a85 85 0 01-15.4-2.6c-2.5-.6-4.5-2.8-6.7-4.2-4.3-2.7-9.1-4.8-13.2-8-3-2.5-4.9-5.4-6.6-8.9zm117.5-10c-1.8-2.1-3.4-4.4-5.4-6.2-2.5-2.3-3.8-5.6-7.1-7.3a42.5 42.5 0 00-13-4.3c-7.8-1.3-15.8-2.2-23.8-2.6-5.2-.3-10.5.3-15.7.8-2.6.2-5.3.8-7.8 1.4-3.7 1-7.3 1.8-10.8 3-4.6 1.6-9 3.4-13.4 5.4-3.2 1.5-6 3.4-9 5.3-1.8 1.2-4 2.3-4.9 4-3 6.5-3.7 12.9 4.1 16.5 5.8 2.7 11.6 5.2 17.2 8.1a49.7 49.7 0 0022.8 5.3c3.3 0 6.5.2 9.8 0 3.2-.3 6.4-1.1 9.6-1.6 4.7-.8 9.4-1.2 14-2.8 3.2-1.1 6.9-1 10.1-2.5a40 40 0 018.2-2.9 41.4 41.4 0 0015.4-8.1c2.2-1.7 1.8-4.1 2.7-6.1.4-.9-.8-2.7-2.5-3.3-.2 0 0-1.1-.5-2.1zm3.6 16c.6-.9 1.3-1.8 1.8-2.8.3-.4.1-1 .1-1.5l-1 .7a40.7 40.7 0 01-15.6 10.3c-2.6.8-5 2.5-7.6 3-4.1 1-7.9 3-12.2 2.9-1.2 0-2.5.5-3.7.8-.2 0-.4.3-.6.5l.7.4c1 .3 1.9 1 2.8.8 3.6-.4 7.2-1.2 10.8-1.7 5.9-.8 11.1-3.4 16.2-6.1 3-1.6 5.2-4.5 8.3-7.3zM288 80.7l1.5-.6c-.3-.3-.6-.7-1-.7-1.1 0-2.4-.3-3.5 0-4.5 1.3-8.9 3-13.4 4.2-7.3 2-13.5 6.1-20.2 9.2-1.8.8-3.3 2.2-4.8 3.5-.4.4-.3 1.5-.5 2.3l1.6-.8c3.7-2.3 7.2-4.8 11-6.8 6-3 12.4-5.3 19-6.9 3.3-.8 6.2-3.2 10.3-3.4zm29-1.3c-2-.3-4-1-5.9-.9-3.9.1-7.7.6-11.6.9-.3 0-.5.2-.7.3l1 .6c1.3 1 2.6 1.2 4.3.5.7-.4 1.8 0 2.7 0l12.7.3c.2 0 .4-.3.5-.5-.4 0-.8-.1-1.2-.4-.3-.2-.6-.5-1.8-.8zM635.2 100.8c.5-2.7-1-5 0-7.3.3-.9.9-1.7 1.3-2.5.5.8 1.3 1.7 1.3 2.6v16.9c0 1-1 1.8-1.5 2.8-.7-.8-1.6-1.4-2-2.3l-5.4-12c-.1-.4-.4-.8-.6-1.1l-1.5-1.6c-.4.8-1.2 1.6-1.2 2.4.1 4.3.4 8.5.6 12.7 0 .8 0 1.7-.2 2.5-.1.4-.8.8-1.2 1-.3 0-.8-.6-1-1l-.2-2V96.7c0-.7 0-1.5.4-2 1.6-2.9 4-2.5 5.8.7 1.9 3.2 3.8 6.4 4.5 10.2.1.5.7 1 1 1.4.3-.5.8-1.1.7-1.7-.1-1.4-.5-2.7-.8-4.5zM544.8 101.5c2.4-5.5 4.6-7 9.3-7 3.8.1 6 3.6 5.5 7.5-.4 3.5-2 6.2-3.6 9.2-1.4 2.7-3.6 3.1-5.7 3.8-4 1.3-7-3.4-7-6.3.1-2.4.9-4.7 1.5-7.2zm3.4 10c2.8.7 5-.7 6.3-2.9 1.4-2.2 2.6-4.6 2.2-7.5-.4-3.5-2.5-4.9-5.6-3-1.6.8-3.7 2.4-3.9 3.9-.3 3-2.7 6.3 1 9.5zM648.8 111.3c1.4-.7 2.7-1.7 4-2.6.8-.7 1.8-1.3 2.7-1.9.3-.2 1-.2 1.2 0 .3.2.4 1 .2 1.2-1.3 1.7-2.6 3.5-4 5-2.4 2.3-5.9 1.5-7-1.6-.5-1.4-.6-3-1-4.5-.2-1-.6-2.1-1-3.1 0-.4-.5-1-.5-1 2.6-1.7 1.3-3.9.8-6.1-.1-.5 1.3-2 2-2 2.6-.3 5.1-.2 7.6-.1.3 0 .6.3.9.5-.3.3-.6.8-1 1l-3.4.2c-2.2 0-2.7 1.2-2.7 3 0 1.3.5 1.6 1.6 1.5l7.2-.9c.6 0 1.3.3 2 .5-.5.5-1 1.2-1.6 1.4-1.6.7-3.4 1.4-5.1 1.6-3.1.5-3.7 1.2-3.2 4.5.2 1 0 2.1.3 3.4zM672 96.5c1.6-5 5-6.2 9.3-3.5 5.2 3.2 4 3.3 3 8-.8 3.5-1.6 7-1.7 10.5 0 2-1.7 1.6-2.3 2.6-.4-1-1.6-2.2-1.3-2.7 1.3-2.9-.4-6.4 2.2-9 .4-.4.3-1.3.4-2l-.3-1.2c-.3.2-.7.3-1 .6-1 .9-2 2.2-3.3 2.7-1 .3-2.5-.1-3.6-.6-2.2-1.1-1.6-3.3-1.4-5.4zm7.8 1.2c1-.9 1.4-2 .5-3-.7-.6-2.1-1-2.9-.7a5.8 5.8 0 00-2.9 2.6c-.4.8.2 2.1.3 3.3l3-1.2 2-1zM498.7 99.9c.3-2.2.5-4 1-5.8.1-.6 1-1 1.6-1.3.3.4.8.9 1 1.4l1.7 5.5c.3 1 .4 2.3 1 3.2.6 1.2 1.2 3 3.2 2.4.4-.1.8.3 1.2.4-.4.1-.8.2-1.2.5-1.3.8-2.2 1.8-1.1 3.5.3.5.6 1.4.4 2-.2.8-.8 1.6-1.3 2.4-.4-.7-1.3-1.4-1.2-2.1.1-2.6-1.1-3.3-3.5-3.2-1.4 0-2.3.1-2 1.8.1.6-.1 1.2-.3 1.7l-1.2 2.5c-1-1-2.4-1.8-2-3.6l.9-5 1.8-6.3zm1.7 1.3l.1 4.4c0 .2 1.2.6 1.4.4 1-1 0-4.7-1.5-4.8zM727.3 90.7c5.6 4.5 7 10.7 8.7 16.8a21.6 21.6 0 01-9.7 11.4c-.8.4-1.8.2-2.7.2.5-.8.8-1.7 1.4-2.4 1.7-1.8 3.4-3.7 5.4-5.3 2.7-2.3 2.6-5.1 1.5-7.9a50.8 50.8 0 00-5.4-10.6c-1.5-2.3-4.3-3.7-6.5-5.5-.5-.3-1.2-.5-1.4-1-.2-.7-.2-1.5-.2-2.3.6.2 1.2.3 1.7.6l7.2 6zM521.2 106c-1.7-.8-3.2-1.1-4.6-1.7-2.7-1-3.6-4-1.6-6 1.3-1.3 2.8-2.6 4.4-3.4 2.2-1.1 3.9-.3 4.2 1.8l-.2 1.2c-.3-.2-.8-.3-1-.6-1.1-1.6-2-1-3 .2a10 10 0 01-2 1.9c-1 .7-.9 1.4 0 1.9l5.6 2.8c2.4 1.3 3.6 3.3 3.3 5.3-.2 1.5-2.5 3.7-4.6 3.8-3.6.4-7.1-.1-10.4-1.7-.4-.3-.6-1-1-1.4.7-.2.5-1.4 2-.8 2.1 1 4.7 1.2 7 1.2 1.4 0 3.2-.9 4-2 1.1-1.6-.5-2-2.1-2.6zM570 93.6h5c.4.1.8.5 1.3.8-.3.3-.6.9-1 1-2.4.7-4.8 1.2-7.3 1.8-.9.3-1.9.4-2.7.8-1.6.7-2 2.2-1.1 3.6.9 1.3 1.8 1.2 2.8 0 1.8-2 4.4-1.8 6.8-1.6.5 0 1 .8 1.5 1.3-.4.4-.8 1-1.3 1.2-2.4.7-4.9 1.1-7.2 2-.9.2-1.6 1.3-2 2.2-.4.7.1 1.8-.2 2.6-.3.8-1 1.5-1.6 2.2-.3-.7-.8-1.3-1-2-.8-2.5-.5-5.1 0-7.7.1-.6-.2-1.3 0-1.8 1-1.4-2.3-2.6-.2-3.8 1.5-.8 3.3-1.1 5-1.7l3.2-.9zM599.5 92.8c.9 5.9 3.2 11.6 2.8 17.7-.2 2-.7 3.8-2.3 4.3-1.7.6-4 1-5.6-.8l-4.7-5.6c-.3-.4-.4-.9-.6-1.3.5 0 1-.2 1.3 0 1.5 1 3.1 1.9 4.5 3 1 .8 1.9 2 3.4 1.2 1.4-.7 1.4-2.1 1.2-3.4l-1.6-9.1c-.3-2.1-1-4.4 1.6-6zM606.6 99v-2.2c-.2-1.4.7-1.6 1.6-1.3.5.1 1.1 1 1 1.3-.5 4.1 1.4 7.8 1.9 11.7 0 .4.2.8.4 1.2l1.4 1.8.9-2a46 46 0 002.7-15.8c0-.3.4-.6.6-1 .4.4 1 .7 1 1 .5 6.1.7 12.2-2.5 17.7-.8 1.4-1.6 3-3.5 2.7-1.6-.3-2.4-1.6-2.9-3.3-.7-3-1.9-5.9-1.7-9 0-.8-.6-1.6-.9-2.8zM489.7 91c-2.9 2.3-3.3 5.5-3.4 8.5-.2 3.4.2 6.9.8 10.2.7 3.7 3.2 6.2 6.5 8 .5.2 1 .6 1.5 1-.7.3-1.5.9-2 .8a9.4 9.4 0 01-6.9-5.4c-2-4-3.7-8.3-1.9-13.2.8-2.2.6-4.7 1-7.1.4-2 1.6-3.3 3.5-4.3 1.5-.7 1.8.3 2.5.8a6 6 0 01-1.6.7zM715.5 100.8c-1.6 1.7-.7 3.4-.9 5l-1 5.8c0 .3-.4.5-.7.8-.3-.4-1-.7-1-1v-4c0-1.3 0-3.6-.4-3.7-1.7-.5-3.5-.4-5.3-.1-.5 0-1.2 1.1-1.4 1.9l-1 5c0 .3-.6.6-.9 1-.3-.4-.7-.8-.8-1.2-.3-4.3 1-8.3 2.7-12.2.2-.4.8-.6 1.2-.9.2.5.6 1 .5 1.4 0 .7-.8 1.3-.8 1.9.1 1 .1 2.4 2 1.5.8-.4 2-.4 3-.3 1.7.2 2.4-.4 2.1-2.1 0-.4 0-1 .3-1.2.5-.5 1.1-.8 1.7-1.2l.7 1.8v1.8zM689.8 98.8c.6-2.6 2.9-1.5 4.4-2 2.6-.9 5.6-1 8.4-1.3.3-.1.8.1 1.2.3-.4.4-.6 1-1 1.2-1.4.5-2.8 1.2-4 1-3.6-.6-3 1.8-3 3.7v8.5c0 .4-.4.8-.7 1.3-.4-.3-1.2-.4-1.3-.8-.4-1-.7-2-.6-3 .2-1.6.8-3.2.8-4.9.2-3.8 0-3.8-4.2-4zM15.4 268.6c-.2-5-.2-5-4.5-5.2-3-.1-6-.5-8.9-1-.7-.1-1.3-1-2-1.4.7-.6 1.4-1.4 2.2-1.6.9-.2 1.9.3 2.9.5.8.1 1.5.4 2.3.4 10.3 0 9 1.3 9-8.4v-40.8c0-5.5 0-5.5-5.2-5.5h-2c-.3 0-.6-.3-1-.4l1.1-.7h4.1c2.2 0 3.4-1 3-3-.7-3.8 3.4-6.3 2.3-10 0 0 .6-.5.8-.4.4.1 1 .5 1 .7l-.1 5.1c-.4 2.6.1 3.7 2.4 3.4 4.6-.4 9.2-1.3 13.7-1.9h3.6c5.3-.1 10.7.4 16-.2 8-1 16 0 23.9-1.2a88 88 0 0121.8-.5c13.3 1.4 26.6.3 39.9.7 3.8.1 7.6-.8 11.5-.9 3.4 0 7-.5 10.4.9 1.6.6 3.7 0 5.6-.1 1.3-.2 2.5-.8 3.8-.8 35.7-.4 71.4-1.5 107-.8 18.2.4 36.4-.2 54.4 1 7.3.4 14.7-.1 21.8 1 6 .8 11.9.3 17.7.9 8.8.9 17.7 1.5 26.5 2.2 4.2.4 8.4.3 12.5.9 7.3 1 14.6 1.5 22 2.2 4.1.5 8.3.6 12.4.8l20.3 1c1.4.2 2.8 1 4.2 1 3.8.4 5.1-.7 5.9-4.3.2-.7-.2-1.5 0-2 .6-1.1 1.9-2.9 2.2-2.8 1.6.7 1 2 .3 3.1-.3.4-.3 1-.4 1.4-.5 4.4-.3 4.5 4 4.7 1 0 2.2.2 3.3.6.7.3 1.3 1 2 1.6l-3 1.5s-.2-.3-.4-.3c-5.2-1-6.3 0-7 5.4-.2 2.4.7 3.2 2.9 2.3l15.5-6.2c5.3-2 10.7-4.2 16.2-5.8 2.1-.7 2.1-1.2.8-2.5-1.5-1.6-3.2-3.1-4.7-4.8-.3-.4-.4-1.5-.1-2 .5-1.3 1.2-.9 2.2-.2 3.3 2.2 6.8 4.2 10.2 6.4.4.2.4 1.2.5 1.8.9 5.6-3.2 9.8-4.2 14.8-.1.4-1.4.9-2 .7-.5-.1-1.1-1.3-1-1.7 1-3.2 2.3-6.3 3.5-9.4l.5-1.8c-.7 0-1.5 0-2.1.3-4.7 1.5-9.5 3-14 4.8-5.4 2.2-10.5 4.8-15.7 7.2l-1.8.8c-1.8.8-4.6 1.2-5.4 2.6-1 1.8-.2 4.4-.2 6.6v28c0 3.7.4 4 4 4.1 4.5.2 9.1-.7 13.5 1 .5.3.8.9 1.1 1.3-.3.3-.8.8-1 .8-2.7-.5-5.3 1.3-8 .1a7 7 0 00-4.6 0c-2.1.7-5.7-.1-5 4.1 0 .3-.3.6-.4.9-.4-.3-1-.6-1-1-.4-4.7-3.9-3.6-7-4.2-8.5-1.6-17 0-25.4-1.1-10-1.4-19.8-1.2-29.6-.6-8.3.4-16.7 1.3-24.9.6-10.5-1-21-.6-31.6-.9-3.3-.1-6.6-.9-10-1-2 0-4.3 1.3-6.2 1-9.8-2-19.7-.6-29.6-1-4.6-.2-9.3-.5-14 0-17 2.2-34.2 1.6-51.2.7-22.1-1.1-44.2-1-66.3-.4-15 .5-30 .3-45 .7-3.5 0-7-1.2-10.5-.9-4.9.5-9.8 0-14.7.7-5.3.9-10.8-.5-16 .4-10 1.7-20 .5-30.1.8-14.9.5-29.7.8-44.6 1-1.8 0-2.2.5-2.2 2.3 0 1.8-.6 3.6-1 5.3-.4 1.3-1.1 2.5-1.6 3.8-.2-1.2-.2-2.3-.5-3.4-.2-1.1-.7-2.2-1-3.8zm65.7-10.3c18.6-.6 37.3.8 56-.9 14-1.2 28.2.2 42.4-.9 8-.5 16.3-2.4 24.5-.3.6.2 1.4.1 2 0 2-.3 3.9-1 5.8-1 18.8 0 37.6-.2 56.4 0 18.6.3 37.3-.9 56 1 12.3 1 24.8-.8 37.3 1 7.1 1 14.5.5 21.8.8 17.5.9 35.2.2 52.8 1.2 9.6.6 19.3 0 29 .2 2.7 0 5.6-.6 8.4.9 1.6.8 3.3-1 3-2.7-.6-5.2-1.7-10.5-1.8-15.7 0-8 .6-16 1-23.9.1-2.3.7-4.5 1-6.8 0-.5-.9-1.4-1.4-1.5-4-.4-8-.8-12-1-7.8-.5-15.5.3-23.4-1-7.1-1-14.4 0-21.8-1-9.7-1.1-19.6 0-29.5-1-12.2-1.3-24.5 0-36.8-1-14.8-1-29.7-.4-44.5-.1-14.7.3-29.3-.8-44 .8-11.3 1.2-22.8 1-34.2 1.1-4.4 0-8.7-1-13-.9-51.3.3-102.5-1-153.7 1-1 0-2.2-.3-3 0-4.3 2-9 1.5-13 .8-7.6-1.4-15.3-.5-22.7-2.8-.3-.1-.8.4-1.2.6-2.8 1-2.9 3.8-2.9 6l-.1 47c0 3.1 2 2.5 3.3 2 5.1-1.6 10.4-.6 15.6-.9 3.3-.1 6.5 0 9.8-.2 3.3-.1 7-1.5 9.9-.6 4.4 1.4 8.8 1 13 .6 3-.4 6-.6 10-.8zm171.7-60h-30.5l-84.4 1h-1.5l-.9.4 1 .7c6.8.7 13.6 1.9 20.4 2 19 .2 37.9.3 56.8 0 18.8-.3 37.7 0 56.5-.7 23.6-.7 47.3-1.5 70.9.7 5.5.5 11 0 16.5 0 2 0 4-.4 5.7.1 8.4 2.3 17 .3 25.4 1 .3 0 .6-.2 1-.4-.3-.3-.5-.8-.8-1a4 4 0 00-1.8-.7l-22.3-1c-4-.1-8.4 1-11.8-.3-3.8-1.5-7.1.1-10.8-.5-8-1.3-16.2-1.2-24.3-1.2-21.4-.2-42.7 0-65.1 0zm-211 6.2c2.4.4 4.8.9 7.3 1 1.2 0 2.5-1 3.7-1 10.4 0 20.7-.4 31-.8 17-.8 33.8-.2 50.7-.2h3.6c.5 0 1-.3 1.4-.5-.4-.2-.8-.5-1.3-.5-5.7-.8-11.4-2-17.2-2-7.6-.1-15.2.7-22.8.9H71.8c-1.7 0-3.5-.5-5.3 1-.9.6-4.1 0-4.2-.4-.4-2-1.8-1.6-3-1.6l-31.1 1h-.5c-.4.3-.8.6-.9 1 0 .3.4 1 .7 1h3.6c3.4.2 6.8.4 10.7 1.1zM747.4 316c-2.8-1.4-3.5-3-2.5-5.7.2-.8.7-1.5 1-2.2.2-.3.2-.7.3-1-.3-.1-.7-.3-1-.2-1.3 1-2.8 1.7-3.9 2.9-1.4 1.5-3.2 2-5 3-2.1 1-3-.3-4.3-1.4-1.8-1.3-.3-2.2.2-3.3 2-5.3 6-7.3 11.4-7.4 4.7-.2 9.4-.6 14-1 .6-.1 1.2-1 1.4-1.5.5-1.7.6-3.6 1.2-5.2.1-.6 1.1-.9 1.7-1.3.5.7 1 1.3 1.2 2 0 .5-.8 1.1-1 1.7-.5 3 .3 3.3 3.4 3.4 3.4 0 4.7-1.2 5-4.4 0-.7 1-1.3 1.5-2l.5 1.9c.3 5.4.3 5.5 5.7 5.3 2 0 4-.6 5.6-1.5 2.5-1.3 4.6-.2 6.2 1.2 2 1.8.1 7-2.6 7.6-1 .2-2.1-.2-3.1 0-1.2.4-2.4 1-3.5 1.6 1.2 1.2 2.2 2.8 3.6 3.4 1.1.5 2.8-.4 4.2-.9l4.8-2c2.7-1 4.6-2.5 4-5.9-.2-.7.1-1.6.4-2.3.4-.8 1-1.5 1.6-2.2l1 2.4.7 1.8 1.4-1.5c2.1-2.7 5.1-3 8.1-2.6 1.1.2 2.1 1.6 3.1 2.4-1 .2-2 .6-3 .6-4.5.3-8.3 3.6-9.3 8.1-.2 1-.8 1.8-.9 2.7 0 1.3-.5 1.7-1.8 1.7-1.8 0-1.4-1.2-1.4-2 .1-2.5-.4-3-2.5-1.3-1.7 1.3-4 2.1-5.8 3.3-3.7 2-6.6.9-9-1.4a7.3 7.3 0 01-1.2-8.3c1-1.6.9-1.9-.9-1.7h-2.6c-3.4 0-3.6.4-3.9 3.7-.1 2.1-.6 4.2-1 6.3-.1.5-.7 1-1 1.3-.3-.4-1-.8-1-1.3 0-2.6-.2-5.2 0-7.7.3-3.6-3-2.4-4.4-3.2-2.1-1.3-2.2 1.6-2.7 2.6-.7 1.1-.1 3-.2 4.5 0 1 0 2-.4 3-.3.6-1 1.2-1.4 1.9-.4-.7-1.2-1.4-1.2-2.1.1-2.1.5-4.2.9-6.3.3-1.8.2-3.1-2.2-2.7h-1.5c-2 0-4.8-.7-6 .3-1 1-.4 3.8-.6 5.8-.3 2.3-.7 4.5-1.3 7zm-5.4-10.1c.7-.4 1.5-.7 2-1.1.4-.3.7-1.2.5-1.3-.4-.4-1.2-.8-1.6-.7-3 1.4-6.4 2.2-7.8 5.8-.1.4-.4.7-.7 1 .6.2 1.5.6 1.9.4 1.8-1.1 3.5-2.4 5.7-4.1zm41.4-4.2l-.4 1.8c1.5 0 3 .3 4.5.2.2 0 .7-2 .5-2.2-1.3-.8-2.6-2.7-4.6.2zM635.7 195.5c.9.8 1.6 1.4 2 2 .3.4.2 1 .2 1.4-.6 0-1.3.3-1.7 0-.7-.3-1.2-1.5-2-1.5-1.4-.2-3-.7-3.8 1.7-1 2.7-3 5-2.8 8.2.3 3.3 1.4 5.3 3.8 5.5 2.9.2 6-2 6.7-4.8.7-3 1.9-5.8 2.5-8.7.6-2.5 2.7-2.7 3.7-1.9 2.3 1.9 4 .3 6-.2 4.2-1 6-.3 7.4 4.1.5 1.6.6 3.2 1 4.8.3 1 .6 2.1 1.1 3.1.3.6 1 1 1.4 1.5l.1-2v-3.2c0-1 .6-2.2.2-2.7-2.2-2.6 1.4-4.7.3-7l1.3-.6c.3 0 .8.4.8.6v14.4c0 .9.3 1.9 0 2.6-.7 1.4-1.7 3.8-2.6 3.9-1.5 0-2.1-2-3-3.6-2-3.6-.9-7.7-2.7-11.3-.2-.5-.6-1-.9-1.4-.4.5-1 1.1-1 1.7-.3 3.8.4 7.7-1.2 11.4-.2.6-.5 1.2-.9 1.7-.1.3-.5.4-.7.6l-.4-.8.6-13.7v-1.8h-3.4v1.8c1.9 4.5 0 8.7-1.5 12.8-.9 2.5-3.5 2.7-5.7.6-1.7-1.8-2.8-2.6-4.8-.2-1.9 2.4-4.7 1-6.5 0-1.8-1-3.7-2.6-3.7-5.6 0-4 .8-7.7 3.1-11.1 2.2-3.2 3.2-3.9 7.1-2.3zm5 15.2l2.6 3.1 1.6-3.2c.5-1.1 1.3-2.3 1.3-3.5 0-1.9-.3-3.8-1-5.6-.6-1.6-2.2-1.6-3-.1-.5 1.1-.8 2.4-1 3.6-.4 1.7-.7 3.5-.6 5.7zM716.4 194.4c.2 5.3.2 10.3.2 15.3 0 .8.3 1.8 0 2.5a6 6 0 01-2.4 2.6c-1.7.8-1.7-1.1-2.1-2l-5.8-11.5c-.3-.4-1-.6-1.4-1-.2.5-.6.9-.6 1.3l-1.1 9.9c-.1.8-.5 2-1.1 2.2-1.4.5-2.2-.1-2-1.8 0-1.4-.4-1-1.4-.4-3.5 2-7.2 3.3-11.2 4-2.7.6-4 0-3.9-2.6.1-2.3-.2-4.5.7-7 .6-1.7.6-4.1 1.3-6.3 1-3.1 2-4.2 5.3-4.4h8.8c1.9 0 4-1 5.5-.3 1.3.6 1.7 3 2.6 4.4l4.4 6.4 1.7 2c.2-1 1-2.1.6-2.8-1.4-2.9-.7-6-1-8.9-.2-2.4 1.4-1.8 2.9-1.6zm-27.2 7c2.6-2.1 5.6-.6 8.4-1 0 0 .4.6.4.9-.1.4-.4 1-.7 1.1-1.9.4-3.9 1.2-5.7 1-3-.4-4 1.6-4.6 3.5-.6 1.5-.3 3.4-.3 5 0 .3 1.1 1 1.5.8l9.6-4c.8-.4 1.9-.8 2-1.4.6-2.9 1-5.8 1.3-8.8 0-.3-.7-1.2-1-1.2-3.5 0-7-.3-10.4 0-1.7.3-3.2 1.7-.5 4.1zM635 274.8c-7.2 4.2-11.9 4.4-14.9-1.9a6 6 0 01-.6-2.8c0-1.6-1-1.7-2-1.4-.7.3-1.1 1.3-1.6 2-.1.2.5.6.4.8-.4 1.5 1.2 3.4-1.1 4.4-.3-1.2-.3-2.7-1-3.4-1-1-.5-3-2.8-3-2.6 0-4.2 1-5.4 3l-2.2 4.4c-2-1.5-1-3.8-.8-5.5.7-4.1 1.7-8.2 3.1-12.1.4-1.3 2.2-2.5 3.6-2.9.6-.1 2 1.6 2.7 2.8.9 1.5 1.3 3.2 1.9 4.9.3.8.4 2.3.9 2.4 1.4.3 3.1.5 4-1.3l1.3-3.1c1.2-3.6 5.2-6.8 8.7-6.9.6 0 1.2.4 1.8.7l.7.7-1 .7c-1.8 1-4.3 1.5-5.3 3a18.6 18.6 0 00-2.7 8.1c-.2 1.7 1 4.2 2.3 5 1.7 1 4.3 1 5.9-1.2l2-2.8c.4-.8.5-1.7.7-2.6l-2.8.2h-5.2c1.5-.7 2.8-1.6 4.3-2 3.6-1.3 6 .3 6 4 0 1.8 1 3.9-1 5.8zm-26.4-7.2c3.9-.8 4-.9 3-4.2l-.5-2.9c0-.4-.4-.7-.6-1-.3.3-.9.6-1 1-.6 2.2-1 4.4-1 7.1zM750.5 224.4c.6 2.6 1 4.8 1.3 7 .2 1.6 0 3-1.5 4.1-2 1.5-1.8 2.5.7 3.2 1.3.4 2.4 1.6 3.8 2 3 .8 4.2-.1 4.2-3.2 0-2.9 2-5.5.2-8.6-.9-1.4.7-2.7 2.6-2.7h7.3c.4.1.9.7 1.3 1-.4.4-.8 1-1.3 1-1.8.6-3.8.8-5.6 1.5-.6.2-1.3 1.7-1 2.3.3 1.1 1 1.1 2.5.6 1.8-.7 4-.2 6.1-.1.5 0 1 .6 1.4 1-.4.3-.8 1-1.3 1a52 52 0 01-5.7 0c-2.3-.1-3.5.8-3.3 3.2v1.6c0 1.5.2 3 .4 4.4 1.3-.5 2.5-1.2 3.9-1.6 1.1-.3 2.6.1 3.4-.5 1.2-.8 2.2-1.4 3.6-.4-.8.8-1.5 2-2.5 2.5a52.4 52.4 0 01-8.5 3c-.6.2-2.2-1.4-2.3-2.4-.2-1.5-.8-1.6-2-1.5-4.3.4-5.8 0-9-2.2l-2.6-1.4c-2.6-1.2-3-1-3 2.1 0 1.2.1 2.5-.1 3.6-.2.7-1 1.3-1.5 2-.5-.6-1.4-1.2-1.5-1.9a48.9 48.9 0 011-14.5c1.1-5.9 2.2-7.2 7.1-7.3.6 0 1.1.6 2 1.2zm-6 8.6c.2.4.2 1.2.5 1.3 1.7.5 4.6-1 4.6-2.6.1-2 1.2-4.5-1.1-6.1-.4-.3-1.3-.2-1.7 0-2.8 1.4-2.2 4-2.2 7.4zM730.9 270.5c-2.6 2.2-4.8 4.2-7.2 6-2.7 2.2-3.7 1.8-6.7-.6-1.2-1-2.5-3.4-5-1.3-.8.6-3-.7-4.5-1.1l-3.3-.7c-1.5-.3-2.3.3-2 1.9v2.6c-.2.6-.8 1.1-1.2 1.7-.3-.5-.8-1-.9-1.5-.4-1.7.8-3.8-1-5.2 2.5-1.5-.4-2.9 0-4.4.4-2.2.5-4.5 1-6.7.3-1.4 1.1-2.6 1.6-3.8l.5 3.4c.1 3 0 3 2.8 1.5 1-.6 2.5-.7 3.8-.9.5 0 1 .4 1.5.6-.3.4-.6 1-1 1.1-2.5 1-5 1.9-5.8 4.7-.1.5 0 1.2.1 1.8.4-.3.8-1 1.1-.9 3 1 6.1 1.8 9 3.1 1.8.8 2.7.7 3-1.2l1-11c.2-3 1.1-3.6 4.4-3.4 2.6.2 5.1 0 7.7 0 .5 0 .9.7 1.3 1.1-.4.3-.8.9-1.3 1l-6.8 1c-.8.2-1.6.8-2 1.5-.3.6-.2 1.6 0 2.3.2.3 1.3.4 2 .3 1.5-.2 3-.7 4.7-1 .4 0 .9.3 1.3.5-.3.4-.6.8-1 1-.4.3-.9.5-1.3.6-2 .6-4.6.6-5.7 1.9-1.2 1.4-1 4-1.2 6.1 0 .6.4 1.4.9 1.6.4.2 1.3 0 1.8-.5 2-1.7 3.5-3.8 6.4-4.5 1.6-.4 1.4 1 2 1.4zM710.7 351.1c-.3-.6-.3-1-.3-1.3l.7-5.6c-3-.4-2.5 2.7-4 3.8-2.2 2-5.2 1.9-6.3-.6-.2-.6-.5-1.6-.3-2 1.6-2.5 3.2-5 5.2-7.1.6-.6 2.6-2.9 4.1-.4 3.8-.4 7.7-.6 11.4-1.1.7 0 1.3-1.4 1.6-2.3.3-1.1 0-2.4.3-3.5.2-.5 1-.8 1.4-1.2.2.5.4 1 .4 1.4 0 1.2-.2 2.4 0 3.6.4 1 .2 2.5 2.6 1.3 3-1.3 6.3-1.3 5.8-5.8 0-.4.7-1 1.3-1.4.3-.2 1-.3 1.3 0 .3.2.5.9.4 1.3-.2.7-.9 1.4-1 2.1-.3 2.2.5 3.7 3 3.6h4.1c.7 0 1.3.2 2 .3-.6.3-1.1.9-1.8 1-1.4.4-2.9.6-4.3.7a4.4 4.4 0 00-4 4.2v1c-.2 2.3-1.3 5.2-1.9 4.9-2-1.3-1.8-3.8-1.1-5 1.3-2.4.8-3.4-1.4-4-2.4-.6-4.7 1.3-5 3.7 0 1.7.2 3.5 0 5.2-.2.9-1 1.6-1.5 2.4-.5-1-1.6-2-1.5-2.9.3-2.4 1-4.8 1.6-7.3l-8.2-.1c-1.8-.2-1.7.9-1.8 2.1-.2 3.2-.5 6.3-1 9.4-.4 2-1-.1-1.8-.4zm-6-3.9c1.4-1.6 2.8-3.2 4-5 .3-.5.2-1.3.3-2-.8 0-2-.3-2.3 0-1.5 2.1-3.6 4-2 7zM723.9 376.2a8.3 8.3 0 01-2.6 3c-1 .6-2.7 1.4-3.6 1-1-.5-1.9-2.2-2-3.4-.2-3 1.2-5.6 3.4-7.8 2.4-2.5 4.6-2.6 7.6-1.2 2.1 1 4.8 1.2 7.2 1 1.7 0 4-.7 3.4-3.5v-1l1-4.6c2.2.9 1 2.8 1 4.3.1 2.2.3 4 3.2 4 3.2 0 3.4-.1 4.2-3.6.2-1.2.4-2.5 1-3.6.4-.6 1.5-.8 2.3-1.1.1.6.5 1.3.4 1.9-.8 2.6-1.5 5.1.8 7.4.2.1.1 1 0 1-3.8.5-2.1 3.5-2.5 5.6v2c-.3 1 .9 3-1.2 2.6-1-.2-3-1-2.1-3.3.3-.9.2-2 .2-3s-.1-2.6-.5-2.7c-1.3-.4-2.8-.2-4.1-.1-.2 0-.5.8-.5 1.3l-1.1 6.7c-.1.5-.8.8-1.2 1.2-.3-.4-.8-1-.8-1.4-.2-1.2 0-2.4 0-3.6l-.4-4-3 .8c-1.7.4-3.5-2.9-4.8-.3-.8 1.5-.1 3.7-.1 5.6v2l-.5 3c-.5-1.2-1.3-2.2-1.5-3.4-.3-1.5 0-3-.1-4.6 0-.8-.4-1.5-.6-2.3l-1.5 2c-.3.5-.7 1-1 2.1zm-5.2-2.6v2.6c0 .6.2 1.3.4 2 .4-.5 1-.7 1.4-1.2l3.6-5.7 1.5-2.2c-1.2 0-2.7-.4-3.4.2-1.2 1-2 2.5-3.5 4.3zM755.2 379c-2-3.7 0-7.2-.2-10.7 0-.7.6-1.6 1.2-2 1.3-1.3 2.8-2.2 4.2-3.4 1-.7 1.5-1.8 3-.6 1 .8 2 1 2 2.8 0 5-.2 5.3-5.4 6-1.6.1-3.3 2.5-3 4 .3 1.8 3 3.7 4.6 3.1 3.2-1.3 6.4-2.7 9.5-4.3.8-.5 1.2-2 1.3-3 .3-1.5 0-3.1.2-4.7.2-1.3.3-2.5 2.7-1.6 1.2.5 3.4-1.3 5.1-2 3.2-1.4 4.3-1.2 6 1.2.4.5.3 1.2.3 1.8l-1.3.2c-1.4-.2-3.2-1.2-4.1-.7a9.5 9.5 0 00-3.5 4.1c-1 2.2-1.4 4.6-2.2 6.9-.5 1.3-1.2 3.4-3 1.6-2.2-2.1-3.4-.8-4.8.6-2 2-4.1 3.6-7 3-1.9-.3-3.6-1.3-5.6-2.2zm3.9-10.5c2.5 1.7 3.5-.7 4.9-2 0 0-.6-1-1-1.3-2.2-1.3-2.3 1.4-3.6 1.9-.1 0-.2.2-.3 1.4zM579.9 343.4c-.5-1-.7-1.5-.8-2.1-.2-1.6-1-1.7-2-.8-1.6 1.5-3 3.3-4.8 4.6-1.6 1.2-3 3-5.6 1.7-2.4-1.2-3-3-3.2-5.4 0-4.9 1.7-9.2 4.2-13.2 1.2-2 3-2.1 4.9-1.4 1.6.7 2.9 3.7 2.3 5.2 0 .3-.3.5-.5.7l-.5-.8-2.8-3c-1.1 1.2-3 2.4-3.3 3.8-.7 3.4-.8 7-1 10.4 0 .3 1.2 1 1.7 1 1-.2 2.2-.6 3-1.3 2.4-2 4.5-4.2 7.5-5.6 2.4-1.1 3.6-4.3 5.7-6.3 2.7-2.7 7-1.4 7.6 2.3.3 1.3-.4 2.8-.8 4.1-1 3-2 6-4.7 7.8a6.2 6.2 0 01-4.2 1c-1-.2-1.7-1.6-2.7-2.7zm3.8-7.5c-.5 1.8-1.1 3.6-1.5 5.5-.1.8.4 1.8.5 2.7l2.5-1.4c2.9-2.1 2.7-5.8 4.4-8.4.9-1.3.4-1.8-.4-2.2-.5-.2-1.5 0-2 .4-1 .8-2 1.9-3.5 3.4zM542.6 233.2c0-2.9-.2-5.6-.4-8.2v-.7c.4-.1 1-.3 1-.1.7.7 1.4 1.4 1.7 2.3 1.1 3.3 2 6.6.1 10-.3.5.2 1.3.3 2l1.4-1.1c1.7-1.7 3.5-3 6-3 2 .2 4.3-.4 3.8 3-.1.7 1.7 2 2.6 2.2 2.2.2 4.4-.3 6.5-.4l-4-5c-.2-.3-.5-.6-.8-.7-2.7-.7-4-3.4-3.2-5.2 1-2.1 3.6-3.6 5.8-5 .5-.4 2 .6 3 1.1.2.1.3.7.2.9-.1.4-.5.8-.9.9-.8.1-1.8-.2-2.5 0-1 .5-2.4 1.1-2.6 1.9-.2.9.5 2.3 1.2 3 1.4 1.4 3.3 2.3 4.6 3.7 3 3 1.9 6.7-2.2 8-3.8 1.2-7.1-.3-9.9-2.7-2.4-2.1-3.4-2.4-5.8-.4-.7.7-1.4 1.7-2.2 2.2-.8.5-2.1 1-2.7.8a3.9 3.9 0 01-1.7-2.7c0-2.2.3-4.4.7-6.8zM790.9 202.2c.5-2.8 2-4.2 4.3-4.9.6-.1 1.4.5 2.1.7-.3.5-.6 1-1 1.3-3.7 3-3.8 4.3-1 8 1.2 1.5 2.2 3.2 3 5 .8 1.8-.6 3.5-2.8 3.6-3.4.1-6.1-1.6-7.7-4.9l-.5-1c.4-.1 1-.4 1.3-.1 1.4.8 2.6 2 4 2.8.6.3 1.6-.1 2.4-.2l-.8-1.6c-.7-1.2-1.2-2.7-2.1-3.7a4 4 0 00-2.8-1.3c-1.7 0-3.7.3-5.1 1.1-.7.5-.2 2.6-.3 4l-.5 3.8c-1.5-.9-1.5-2.4-1.6-4-.2-2.7-.7-5.5-1-8.3l-.7-1c-.2.3-.6.5-.7.8l-.7 2.8c-.7 3.4-1.3 6.7-2.1 10 0 .3-.7.7-1 .7-.4 0-.8-.4-1-.8-.2-.2 0-.7 0-1 .3-6.2 2.4-12 4.2-17.9.2-.8 1.3-1.3 2-2 .3.9.8 1.6 1 2.5.4 2 .8 4.1 1 6.2.3 2 .6 2.6 3 2 1.9-.6 3.6-.7 5-2.6zM778.4 226.5c2.1 4.1 1.1 8.2 1.3 12.2.2 3.5.8 4 3.5 2a7.6 7.6 0 015.5-2.1c.4 0 1.2-.9 1.3-1.4.5-2 1.3-4 1-5.8-.6-2.7 2-3.7 2.4-5.8 0-.2 2.4-.4 2.6 0 3.1 5 6.9 9.8 7.5 16l-.2 2c-.6-.5-1.3-.8-1.8-1.4-.4-.4-.8-1.1-.7-1.7.1-3-1.8-2.9-3.9-3-2.5 0-4.4 0-3.8 3.4.1.5-.6 1.1-1 1.6l-1 1.3c-.4-.5-1-1-1-1.4.2-2.5-1-1.1-1.8-.7-2 1.1-4 2-6 3.2-2.1 1.3-4 .4-4.7-2-.7-2.4-.6-4.6-.1-7 .4-2.3 1-5-.8-7.4-.4-.5-.7-2.6 1.7-2zm16.9 8.5c.5-1.3 3.6.7 3-2-.4-1.5-1.3-3-2.1-4.2-.2-.3-1.6-.3-1.7-.2-.4 1.8-1 3.6-1.1 5.5 0 .4.9 1 1.9 1zM648.1 342.9c-.8 3 .8 4.2 3.1 4.3 2 0 3.9-.6 5.8-.8h1.4c-.1.4-.2.9-.5 1.1-4.2 4.2-10.7 3.6-12.8-1.9-.5-1.3-1.2-2.1-.4-3.6.5-1 .6-2.2.5-3.3 0-.6-1-1.3-1.6-1.6-.3 0-1.2.8-1.4 1.4-.8 2.3-1.2 4.7-2.2 6.9-.5 1-.8 2.3-2.4 3.2-1.9 1-2.5-.4-2.6-.9-.5-4.5-.8-9-1-13.5-.1-.4.2-.9.3-1.3.4.3 1 .5 1.1.9.6 1.5 1.2 3 1.6 4.5.2 1-.1 2 0 3 .2.7.8 1.2 1.2 1.8l.9-1.4c.4-1.4.5-3 1-4.2 1.4-3 3-3.7 5.6-1.6 1.5 1.3 2 .3 2.6-.5 1.7-2.3 3.9-3 6.6-2.7 1.9.2 2.7 1 2.8 2.8a6.3 6.3 0 01-6 6.6c-1 0-2.2.3-3.6.8zm.3-4.4c3.3 2.3 5.3 1.7 7.4-2.2.6-1.1 1.1-1.2-.6-1.5-3.1-.7-4.5 1.4-6.8 3.7zM713.8 312.3c.8-3 1.3-5.6 1.8-8.3 0-.4-.4-1-.7-1.2-.3 0-1 .1-1.3.5-1.5 2.4-2.2 5.2-3.2 7.9-.5 1.4-1.7 3.9-2 3.8-2.3-.7-1-2.8-1-4.3 0-2.7.6-5.5 1-8.3 0-.7.6-.7 2-.2.3.1.8-.3 1-.6 1-.6 1.7-1.5 2.7-1.9 2.3-.8 3.5.2 3.6 2.8v1.6l.5 1.8 1.1-1.1c.5-.8.8-1.9 1.5-2.5 1.2-1 2.5-2.1 4-2.9.8-.4 2.5-.8 3-.3 1 1.1 2.5 3.3 2.1 4-1.7 2.8-.3 5.7-.8 8.5-.2 1-.4 2-.8 2.7-.4.8-1.1 1.3-1.7 2-.6-.9-1.6-1.7-1.6-2.4.2-2.2.6-4.5 1.2-6.7 1.3-4.7 1.2-6.2.8-6-1.6 1-3 2.3-4.4 3.4-2.8 1.9-3 5.3-5 7.8-.6 1-1.4 1.8-2.1 2.8-.7-.9-1.3-1.7-1.7-2.9zM540.6 411.1c-1.1 1-1 4-3.1 1.6l-.8-.8-3.1-1.6c1-.7 1.9-1.7 3-2 2-.4 1.3-2 1-2.7-.4-1-1.6-1.7-2.5-2.5-.3-.3-.9-.2-1.4-.4.4-.4.8-1.3 1.2-1.4 3.8-.3 4.8-2.7 4.9-6 0-.5.3-1 .4-1.4.5.4 1.3.8 1.4 1.3.2 1.3 0 2.7.3 4 .1.6.6 1.2 1 1.8.6-.5 1.6-.8 1.9-1.5.3-.6 0-1.6.2-2.5 0-.7.2-1.6.6-2.2.3-.5 1-.7 1.6-1 .3.5.7 1 .8 1.5.2.9-.2 1.9.1 2.6.6 1.2 1 3 3.2 1.5.4-.2 1.3.2 2 .3-.6.4-1 1-1.6 1.3-1 .7-2 1.1-2.8 1.9-.8.8-1.3 1.8-1.9 2.8l3 .5h2c.4 0 .8.4 1.2.6l-1.1 1c-.3.2-.6.5-.9.4-3-.4-4.3 1-4.4 3.9 0 .4-1 .8-1.4 1.2-.2-.3-.4-.5-.4-.8-.1-3.9-2.5-1.8-4.4-1.4zm-.8-5.4l1.8 2.3c1.1-1 2.3-2 3.3-3.2.2-.2-.1-1.4-.2-1.4l-4.2.5c-.3.1-.5.5-.7 1.8zM535.9 332c3.5-1 3.8-4 5-6.5.3-.7.9-1.3 1.4-2l.6 2.2c0 .7-.2 1.4 0 2 .3.8 1 1.3 1.5 2l1.5-1.5c1.6-2.3 1.6-2.3 3.2-.5.4.4 1 .8 1.4.9.9.1 1.8-.2 2.6 0l3 1.8c-1 .4-2 1-3 1.3-.8.2-1.7-.1-2.5 0-.6.3-1.4 1-1.4 1.5s.6 1.3 1.1 1.6c.7.3 1.7 0 2.5.2.2 0 .4.5.4.8l-.3.9c-4.6-.6-5 2.8-6 6-.2.5-1 1-1.4 1.4-.2-.6-.5-1.2-.5-1.8-.1-1.7.6-3.8-2.7-3.4-2.1.2-1.1 1.5-1.5 2.4-.3.7-1 1.3-1.7 1.6-.2 0-1.3-1-1.3-1.4 0-2-2.2-4.3.8-6 2-1.2.5-2-.6-2.7-.7-.4-1.6-.4-2.1-.8zm6.5 3.9l2-1 2.5-1.5c-.3-.4-.5-1-.9-1-1-.2-2.4-.6-3 0-.7.5-.8 2-.6 3.5zM714.8 401.3c2-1.6 3.5-3.9 5.3-4.2 2.7-.5 5.7.1 8.3 1 3.5 1 5.1 5 3 8.2-2.3 3.2-5.1 6.2-8.3 8.3-4.4 2.8-7.2.9-8.6-4-1-3.2.2-6 .3-9.3zm7.5 10c2.8-1.2 4.2-3.8 5.8-6.2 1.3-2 1.3-3.4-1.2-4-2-.5-4.2-.9-6.3-1-.6 0-1.6.9-1.8 1.5-.6 2-.9 4.2-1 6.3-.4 2.6 1 3.7 4.5 3.5zM612 405c.2-1 .1-1.7.2-2.4 0-.5.2-1 .3-1.4.4.2.9.4 1.1.8 1 1.4 2.3 1.3 3.7-.4.3-.4.6-.8 1-1 1-.6 2-1 3-1.4.2 1.3.6 2.6.7 3.9 0 1-.4 1.9-.5 2.9 0 .4.4.8.6 1.2.5-.3 1.2-.4 1.4-.9 1.5-2.3 3.1-5.3 6-4 1.7.8 2.7 4 3.3 6.3.8 3.1-.6 7.3-1.6 6.7-2.5-1.4-1.1-4-1.4-6v-1l-.9-4.2c-1.1 1-2.5 1.7-3.4 2.8-1.5 2-2.7 4-4 6-.5.6-1.3.9-1.9 1.3-.4-1-1.2-1.8-1.1-2.6.3-2.2 1.1-4.4 1.5-6.6.2-.9-.2-2-.3-3l-1.7 2c-2.3 3.2-2.8 7-3.8 10.8-.4 1.3-2.2 3.6-2.7 3.4-2-.6-1.5-2.8-1.3-4.4a74 74 0 011.7-8.9zM678.4 259.3c.2-1.3.4-2.9.8-3 1.7-.3 1.3 1.2 1.2 2-.2 4.7.8 9.5-1 14-.2.7.3 1.7.4 2.5.9-.5 1.9-.7 2.5-1.4 1.3-1.4 2.4-3.1 3.7-4.6.5-.5 1.4-1 2.1-1 1.2 0 2.4.3 3.5.5l-.3-6.9c0-1-.2-2.2.1-3.1.2-.8 1-1.4 1.6-2 .3.8.8 1.6.9 2.4l1 16.1c0 .7-.5 1.4-.7 2.1l-1.7-2c-.2-.2-.6-.4-.7-.7l-.9-3.5c-1.2.7-2.6 1.3-3.7 2.1-1.2 1-2.4 2-3.3 3.3-1.3 1.9-3.3 2.5-4.8 1.7-1.4-.7-2.7-3-2.6-4.4.2-4.5 1.2-9 1.9-14zM563.8 403.9a14 14 0 00-2-1c.4-.6 1-1.8 1.2-1.8 5.2 1 5.4-2.6 5.8-6.1 0-.4.7-.8 1.1-1.2.3.5.8 1 .9 1.5v2l-1 3.2c1.5.2 3 .2 4.4.6 2.2.4 5.2-1.7 6.4 2 .5-.5 1-.8 1.6-1.2 2.1-1.8 4.3-3.6 7.4-2.9.3 0 .8.6.8 1 0 .3-.4.9-.7 1-6.4 2.2-7.1 3.2-7.5 9.7-.1 1.1-.5 2.3-1 3.2-.4.5-1.7.7-2.3.5-.5-.2-.9-1.3-.8-2 .2-2.1.9-4.2 1-6.3 0-2.7-1.3-3.4-4-2.6-.3 0-.5.6-.8.6-1.4.2-3.8-.2-4.3.6-1 1.5-.9 3.7-1.3 5.6v.5c0 2-.6 4.8-2.3 4.4-1.7-.4-.6-2.8.1-4.6.7-1.5.2-3.4.2-5.1 0-2.3-1.7-1-2.9-1.6zM547.3 362c.7-.2 1.2 0 1.6 0-2 3.1-1 4.2 2.4 4 .6-.1 1.3.5 2 .8-.7.4-1.2.9-1.9 1.1-.4.2-1.2-.2-1.5 0-.7.8-1.2 1.8-1.8 2.7 1 .5 1.3 2.3 3 1.2.2-.2.7 0 1.1.1-.2.4-.5 1.2-.7 1.2-4.1-.6-4.3 2.1-4.6 5.2 0 .7-1.5 1.4-2.3 2l-.7-2.2v-1.5c-.2-.9-.6-1.7-1-2.5-1 .7-2.4 1-3 2-1 1.1-1.2 2.7-1.8 4.1-2-1.2-1.4-3.3-1.4-5 0-1.2.5-2.3.7-3.4.2-.6.5-1.4.3-1.9-.5-1-1.3-1.8-2-2.6 1-.6 2.3-1 2.9-2 .7-1 .8-2.3 1.2-3.5l.7-3.3c0-.3.5-.5.7-.8.2.4.6.7.6 1 0 1.8.2 3.5 0 5.2-.1 1-1.2 2.6.2 2.4 1.2 0 3.7.8 4-1.9.1-.7.7-1.4 1.3-2.4zm-6.5 8.5c-.1 2.5 1.7 1.7 2.7 1.3 1-.4 1.6-1.5 2.4-2.4-.9-.1-1.8-.4-2.8-.4-.7 0-1.5.3-2.3 1.5zM705.3 238.6c0-4.9 2.5-8.4 4.4-12 1.3-2.6 4.3-3.4 6.4-2.5l1.4.8c-.4.3-.7 1-1.1 1-5 .8-6.3 4.7-7.6 8.6-.5 1.7-1 3.4.6 4.6 1.4 1 3 1.1 4.5-.3.6-.5 1.4-.8 2.1-1 1.7-.8 3.8-.8 4.5-3-1.5.2-3 .6-4.6.7-.7 0-1.4-.8-2-1.2.5-.3 1-.7 1.6-.8 2-.4 3.8-1 5.8-1 3.7-.2 4.6.8 3.6 4.3-.8 2.6-2 5-3 7.5l-.8 1.4c-.5-.5-1.3-1-1.3-1.5.2-1.8.8-3.5 1.2-5.2l.2-1.4c-.5.2-1 .2-1.4.5l-2.2 2.2c-2.5 2.9-6 2.8-9.2 2.3-1.2-.2-2.1-2.2-3.1-4zM696 378.3a9 9 0 01-1 2.6l-1.5 1.5c-.5-.8-1.8-1.8-1.6-2.3 1.8-4 2.2-8.2 2-12.5 0-.2.8-.7 1.2-.6.3 0 .7.5.8.9l.4 1.9c.6-.5 1.3-.9 1.7-1.5.7-1.2 1-2.8 2-3.7 1-1 2.2-2 3.3.5 1 2 1 3.7.7 5.7v1.3c.4-.2 1-.3 1.2-.6.5-.8.5-2 1.2-2.6 1-1.2 2.2-2.3 3.6-3 1.2-.4 2-.1 2.7 1.8 1.3 3.6.5 7 .8 10.5 0 .3-.8.7-1.2 1.1-.3-.5-.8-1-.8-1.5v-7.2c-.1-1-.5-1.8-.8-2.7-.8.6-1.9 1-2.4 1.7a42 42 0 00-3 6c-.5 1.3-.5 2.8-1.1 4.1-.4.8-1.5 1.1-2.3 1.7-.3-.7-.8-1.5-.7-2.2.2-3.4.7-6.9 1-10.4 0-.6-.7-1.3-1-1.9-.4.6-1 1-1.2 1.7-1.4 3-2.7 6.1-4 9.7zM540.8 311v-3.6c.1-1.2-.7-2.4-2-2.6-.4 0-1-.4-1-.7-.1-.4.2-1 .5-1.3.5-.4 1.2-.5 1.7-.8l2.9-1.8-3.4-.5h-1c-1-.5-1.8-1.1-2.7-1.7.8-.5 1.6-1.4 2.5-1.4 3 .2 5-.3 4.7-4-.1-.7.8-1.4 1.3-2 .2.6.5 1.2.6 1.9v1l1 4.1 2.2-3.8 1-1.4c.3.5.9.9 1 1.4.7 3 1 3.3 4 2.3.7-.1 1.4-.7 1.9-.5 1.2.3 2.3 1 3.4 1.5-1 .5-2 1.2-3 1.5-.8.2-1.7.1-2.5 0-2.6-.2-3.7.7-3.9 3.4-.1 2.2-1.2 4.3-1.9 6.4l-.7 1.5-1.4-2v-.5c1.3-1.2 2.1-2.8 0-3.4-.7-.2-2.4 2-3 3.4-.5 1.1 0 2.7-.2 4 0 .2-1.3.1-2-.4zm7.3-10.8c-.6-.2-1.2-.5-1.8-.5-.8 0-1.6.3-2.4.5.8.5 1.5 1.2 2.4 1.5.5.1 1.2-.3 1.8-1.5zM665 245.9c-5.8-2.5-5.7-2.5-4.3-8.8.5-2.2.2-4.6.8-6.8 1-3.9 3.7-5.1 7.3-3.9 4.2 1.5 5.9 5.8 5 10.3-1 5-4.8 6.8-8.9 9.2zm5.6-14.5c-.9-1.7-2.1-3.4-4.2-2.9-1.8.5-1.5 2.4-1.5 4v7.2c0 .7-.4 1.3-.6 2 1-.2 2.1-.1 2.8-.6 3-2.3 4.7-5.3 3.5-9.7zM579 299.7c.7-1.5 1.3-2.5 2-3.4.1-.3.4-.5.6-.7.2.4.6.9.6 1.2-1 4.4-2 8.9-3.2 13.2-.2.9-1.6 1.4-2.4 2-.5-.9-1.4-1.8-1.6-2.8-.5-2.2-.7-4.5-1.1-6.8-.1-.6-.4-1.1-.7-1.7-.7.4-1.6.6-2 1.2-.8 1.2-1.2 2.6-1.9 4l-2.6 5-2.4 3.3c-.6-1.5-2-3.4-1.6-4.2 1.5-3 .4-6 1-9 .2-1.5 1-3 1.6-4.4h.9l.2 4.9c0 .1-.4.2-.4.4v3.8l2.2-2.9c.7-1 1.3-2.2 2.2-3.2 2.6-2.8 4.1-2.4 5.6 1.4l1.6 3.8c.5-1.6 1-3 1.5-5.1zM584 270c0 .8-.2 1.4-.5 2-.5 1-1.2 1.9-1.8 2.8-.5-1.1-1.2-2.2-1.5-3.4-.3-1 0-2-.1-3-.2-2.3-4-4-5.7-2.7-.3.2-.4.8-.5 1.3v3c-.1 1.3-.3 3.6-.7 3.6-2.7.6-1.6-2.3-1.8-3.1-1.3-5-.7-10.2.9-15.2.1-.4.7-.7 1-1 .2.3.6.7.6 1.1v3.1c.1 1.3 0 3.5.6 3.7 1.5.6 3.4.5 5 .1.8-.2 1.3-1.7 1.6-2.8.6-1.6.8-3.4 1.4-5 .2-.6 1-1.2 1.4-1.1.5.2 1.3.9 1.3 1.4l-.3 5.5-.6 4.9c-.2 1.5-.4 3-.3 4.7zM751.8 342c-1.6-.3-2.6-.6-3.7-1 0 1.4-.6 3 0 3.8.6 1 2.5 2.3 3.4 2 2.9-.8 6-1.7 7.9-4.5.1-.2.9 0 1.3 0l-.3 1c-1.5 4.1-5.3 5.7-8.9 7-3.4 1.1-6.8-2-7-5.9 0-4 1-7.4 4.2-10.1 3.2-2.8 9.7-1 10.1 3 .2 1.6-1.5 3.5-2.6 5-1.2 1.5-2.7 1.1-4.4-.2zm-1.5-6.1c0 2.3 3.7 5.2 5.1 4 .5-.4.6-2 .3-2.6-.9-2-2.8-1.4-5.4-1.4zM705.5 409.6c2-.3 3.8-.5 5.4-.2.6 0 1 1.2 1.6 1.8-.6.4-1 1-1.7 1.2a28 28 0 01-13.7 1c-2.6-.8-3-1.7-1.2-3.4 2.2-2.2 4.8-4.1 7.1-6.3 1-.8 1.5-2 2.3-3.2-1.6 0-2.7-3-4.7-.6-.4.4-1.6.1-2.5 0-1 0-2 2-2.6 0-.2-.7 1-2.4 1.6-2.4 3-.4 6-.8 9-.2 2.3.5 2.5 4.5.6 7l-3 2.9-3.3 3 5.1-.6zM565.9 379c-1.5-6 .5-11.7.9-17.4 0-.6 1.4-1.6 1.8-1.4 1 .3.6 1 .3 2-.8 3.2-.9 6.6-1.1 10 0 .6.5 1.3.8 2 .4-.6.9-1.1 1.2-1.7.5-.7.7-1.5 1.2-2 1.4-1.7 3.3-2.4 5.3-1.7 3.2 1.1 4.7 3 3.7 5.4-1.5 4-2.7 8.2-7.8 9.6-4 1-5 1-5.5-3.2-.1-.4-.4-.8-.8-1.5zm5.4-4.9c-.8 1.2-2 2.3-2.4 3.6-.4 1 0 2.3.1 3.4 1.4-.2 3.2.1 4.1-.6 1.8-1.6 4-3 4.2-6 .1-1 1.2-2.1-.2-2.7-1-.4-2.3-.2-3.4 0-.7.3-1.3 1.2-2.4 2.3zM610.9 382.7c-2.6-2.6-4.7-5-2.9-8.7.2-.3.1-.7 0-1-.7-2.7.9-4.1 3-5.5 1.6-1 2.5-3 5-2.7 2.4.3 4.3 1.7 4.5 3.8.2 3.1-1.5 5.4-4.3 5.5h-3.6c-1 .2-2.5-.7-2.5 1.5 0 1.8 0 3.5 2.3 3.7 2.4.2 4.7-.1 6.4-2l3-2.9c.3-.2 1-.3 1.3-.1.3.2.6 1 .4 1.3-1.5 4-8 7.7-12.6 7zm3.9-11.7c.6 0 1.6.3 2 0 .6-.8 1.5-2 1.2-2.7-.4-1.1-1.5-2.3-3-.6-.9.9-2.2 1.4-3.2 2.2-.2.2 0 1 .2 1.4.7 1.3 1.2.2 2.8-.3zM824.2 232.4l4.4-.7 2.7.1c-.6.7-1.1 1.8-2 2.1-1.1.5-2.5.5-3.8.6-3.3.3-5.5 3.3-4.3 6.4.2.5 1.5 1 2 .8 1.4-.7 2.7-1.7 4-2.5l1.8-.4c.1.8.6 1.8.3 2.4-.7 1.8-8 4.6-9.7 3.6-.8-.5-1.5-2-1.5-3 .2-4.8.5-9.6 1-14.4.2-.8 1.8-2 2.8-2.1 2.7-.3 5.5-.1 8.2 0 .5 0 1 .3 1.3.4-.3.4-.6 1-1 1-2.2.7-4.5 1-6.6 1.6-.6.2-1.6.9-1.6 1.3.1 1-1 3 2 2.8zM632.1 297.3c.9 2.2 1.5 4.2-.2 5.8-1.2 1.2-3 1.9-4.5.7-2-1.6-2.5-.3-2.8 1.3-.3 1.6.4 2.8 1.6 4 1.5 1.4 3 1.3 4.5.4 2-1 3.8-2.5 5.8-3.5.6-.3 1.6.1 2.4.2-.4.5-.8 1-1 1.5-1.9 3.3-5.2 5-8.2 6.2-1.7.7-5-.6-6.6-2-2-2-2.3-5.1-1.2-7.9.8-2.2 2-4.4 3.2-6.4 1.9-2.7 3.5-2.8 7-.3zm-1.3 2.9c-.3-1.6-.8-3.2-2.8-2.3-.5.3-1.1 2-.8 2.7.7 1.5 2 1.6 3.6-.4zM549 272.8c-.3-1.3-.8-2-.9-2.7-.3-2.7-2.2-2.5-4.1-2.5-2 0-3.3.7-3.2 3 0 .6 0 1.3-.3 1.9-.5.8-1.3 1.6-2 2.3-.2-.8-.8-1.7-.7-2.5.2-2.8.1-5.8 1-8.3 1.3-3.5.5-7.4 3-10.7 1-1.6 1.4-1.5 2.4-.4.6.7 1.4 1.5 1.8 2.3 1.6 4.5 3.3 9 4.7 13.6.5 1.7.4 3.6.4 5.4 0 .2-1 .7-1.1.6-.4-.4-.6-1-1-2zm-4.6-7.3c2.5.1 1.6-1.6 1.4-2.7-.5-2-1.2-3.9-1.9-5.8l-.5-1.8c-.5.7-1.4 1.3-1.5 2 0 2.6 0 5.3.2 8l2.3.3zM552 195c-1.9 1.6-3.6 2.9-5 4.4-1.6 1.9-3 4-4.4 6-.2.2-.3.6-.4 1 .5 0 1.1.2 1.4 0 2.8-2.5 5.3.3 8 .2.2 0 .6.9.5 1.2 0 .4-.6.8-1 .8h-6.7c-2.6-.1-3.7 1-3.6 3.6 0 1.5-.4 3-.6 4.6-2.1-1.3-1.5-3.3-1.4-5.1.2-2.8 1-5.6.9-8.4-.1-4 1.1-8-.9-12-.3-.5.3-1.5.5-2.3.6.6 1.6 1.1 1.7 1.8.4 2.4.5 5 .9 7.4 0 .7.4 1.5.7 2.2l1.3-1.6c1.1-1.4 2-3.2 3.4-4.2 1.3-.9 3.3-2.9 4.6.3zM536.4 230.6c-.2 2 .7 3 2.3 3.4-.7 1.1-2.1 2.6-1.9 3.3.7 1.6 0 3-.2 4.3 0 .4-.7.8-1.1 1.2l-.9-1.5c-.1-.7.2-1.5 0-2-.6-1.3 1.6-3.8-1.8-3.8-2.3 0-4.3 1.5-4.3 3.8 0 2.4-.3 4.6-1.7 6.6-.2.4-.7.6-1 1-.2-.5-.5-1-.5-1.4 0-2 .3-3.9 0-5.7-.5-1.7 2.7-3.2 0-4.8 3.4-3 3.5-7.2 4.2-11.2.1-.6 1.2-1.7 1.7-1.6.8.1 2 .8 2.3 1.5 1 2.2 1.8 4.5 3 7zm-6 2.4h3.2l-.7-4.8c0-.3-.7-.5-1-.8l-1.4 4v1.6zM676.3 305.9l-.9.3c-.6 2.3 0 4.4 1.6 5.8 1.8 1.4 3.8.3 5.6-.5.5-.2 1.2-.1 1.7-.2-.3.5-.5 1-1 1.5-2.2 2.4-6 3.2-8 1.9-3-2-3.7-4-2.6-7.8.2-.6.6-1.3.5-1.8-1.6-5 2.7-6.2 5.2-8.5 2.3-2 4.3-.8 6.2.5 2 1.5 1.2 4 .9 5.7-.4 2-2 3.4-4.6 3.1-1.3-.2-2.7 0-4.6 0zm3.6-2c.9-.4 2-.4 2.6-1 .6-.6 1.2-2 1-2.5a4 4 0 00-2.8-1.7c-2 0-3.7 2.6-3.1 4.7 0 .3.8.3 2.3.4zM570 244.6c-.5-.5-1-.8-1-1 .8-6 .5-12.4 5.3-17.2.7-.6 1.8-1.2 2.6-1.1 4.5.4 7.2 5.6 5.3 9.8-2.4 5.3-5.5 9.5-12.2 9.5zm2.9-7.5c-1.5 1.3-1.3 3-.6 4.5 1-.6 2.3-1.1 3.1-2 1.3-1.3 2-3 3.4-4.2 1.5-1.2 1.2-2.6 1.3-4.1.1-1.6-.5-2.7-2-3-1.9-.3-2.7.7-3.2 2.4-.5 1.8-1.3 3.6-2 6.4zM688 245.6c-1.2-5.7 2-10.5 1.9-15.8 0-.6.5-1.3 1-1.7 1-1 2-2 3.2-2.9 1 1.2 2.3 2.4 2.8 3.8 1 2.5 1.4 5.2 2.2 7.8.1.4.7.8 1 .8.4 0 1-.5 1-.9l1-8.3c.2-.8.4-1.6.8-2.3.1-.3.9-.7 1-.7.5.4 1.3 1 1.2 1.4-.9 4.8-1.9 9.6-3 14.3-.1.6-1.2 1.6-1.7 1.6-.9-.2-2-.9-2.3-1.6-1.2-3.6-2.1-7.4-3.2-11-.2-.7-.7-1.2-1.1-1.8-.3.5-.8 1-1 1.5l-2 9.4c-.5 2.4-.6 4.9-2.9 6.4zM769.7 207.9c-.4 1-.3 2-.7 2.6-1 1.2-2.1 2.2-3.2 3.3l-2.6-3.5-.7-1.6-1.4 1.5-2 4.8c-.3.4-1 .6-1.5.9-.2-.4-.6-.9-.6-1.3v-16c0-.8 1-1.5 1.6-2.3.1.8.4 1.6.4 2.4v5.1c.4 1 1 1.7 1.4 2.6l.7-2.4c.3-.6.6-1.2 1-1.6l1.5-1 .6 1.2 1.1 5.8c.1.5.7.9 1 1.3.4-.5 1-.9 1-1.4.5-2.9.8-5.8 1.4-8.7.1-.8 1-1.4 1.4-2.1.5.8 1.4 1.7 1.3 2.5-.3 2.6-1 5-1.7 7.9zM833.5 234.5v-8.3c.1-.3.9-.8 1.4-1h3.8c3.4-1.8 8.5.8 9.2 5 .3 2 0 4.4-1 6.1-1.7 3-3.6 6.2-7.7 6.5-3.7.2-5.1-1-5.7-4.7v-3.6zm4.7-7.2c-3.2 4.5-.8 9.2-.5 13.8.4 0 1 0 1.3-.2a32.7 32.7 0 006.5-7.5c1.4-2.2-.3-4-1.4-5.2-1.1-1.2-2.8-3.3-6-1zM662 406.5l4-4c.5-.5 1-1.7.8-2-.5-.7-1.6-1.6-2.4-1.4-2 .3-4 1.1-6 1.7l-1.7-.3c.2-.5.3-1.3.7-1.7 2.6-2.5 5.9-2.2 9-1.8 2.4.3 3.5 3.7 2 6.2-1.3 2-3.3 3.4-5 5-.3.4-.4 1-.5 1.4h1.3c2.9-1 5.9-.2 8.8-.3.4 0 .8.4 1.2.6-.3.2-.5.6-.8.7-1.4.6-2.9 1.7-4.4 1.7-3 0-5.8.6-8.5 2-.7.3-1.8.3-2.5.1-.9-.3-1.8-.9-2.3-1.6-.2-.3.5-1.5 1.1-2 1.6-1.5 3.3-2.7 5.3-4.3zM683.8 336.1c4.3-2 4.7-1.9 6 2.3 0 .5.2 1 .3 1.4.2-.4.3-1.1.7-1.3 1.1-.6 2.3-1.5 3.5-1.4.6 0 1.6 1.7 1.6 2.6-.3 3.4 1.1 6.8-.8 10l-.8 1.6c-.1-.4-.4-1-.4-1.4.5-3-1.2-6.4 1-9.4.1-.2 0-1-.3-1.3-.3-.2-1.2-.2-1.4 0a52 52 0 00-3.4 4.7c-.5.8-.6 1.9-1 2.7-.5 1-1.2 1.7-1.8 2.6-1.2-1.1-1.8-2.2-1-4 .8-2 1.2-4.3 1.6-6.5.2-.5-.3-1.2-.5-1.8-.5.3-1.2.4-1.7.8-3.1 2.2-4.6 5.5-5.8 8.9-.3.7-.1 1.7-.5 2.4-.2.5-.9.8-1.4 1.2-.4-.6-1.4-1.4-1.3-2 .9-3.7 2-7.4 3-11 .1-.5.4-.9.6-1.3l.4.8c1 2 1.6 2 3.4-.6zM682.5 396.9c1.7 0 3-.2 4.1 0 3.2.6 4.7 2.4 4.1 5.5-.6 3.3-1.5 6.5-3.8 9.2-1.5 1.8-3.4 2.7-5.6 2.1-2.7-.7-3.9-2.4-4-5.4-.4-4.8.6-8.6 5.2-11.4zm-2 6.7c.3 2-.8 4.2.9 6.3.6.8.1 1.6 1.6.6 3.2-2.3 3.4-6 4.6-9.3.1-.4-1.3-1.9-2.1-2.2-3.2-1-3.7 2-5 4.6zM524.5 262.2c5.3 1.7 4.1 2.7 6-3.3l.7-1.8c.1-.3.4-.5.7-.7.2.3.6.6.6 1 .3 1.5-.6 3.4 1.2 4.6 1.4 1 3.9 2 .4 3.8-.8.5-.3 3.2-.6 4.9-.3 1.7-.9 3.3-1.3 5a6.7 6.7 0 01-1.7-5.2V269c-.4-1.3 1.2-3.7-2-3.5-3 .2-4.3 1.3-4.2 4 0 1.8.4 3.6.3 5.4 0 .7-1 1.4-1.6 2-.3-.7-.8-1.4-.8-2v-17c0-.6.8-1.1 1.3-1.7.2.6.7 1 .7 1.6.1 1.4 0 2.7.3 4.4zM606.8 339.7c-2.6 4.5-3.7 5.5-7.6 4.1-2.4-.8-2.2.6-2.5 1.6-.5 1.6-.8 3.4-1 5.2-.2 1 0 2.3-1.6 1.7-.7-.3-1.7-1.7-1.5-2.3 1.6-5 2-10 2-15.1 0-.7 1-1.3 1.4-2l.7 2 .4 2 1.4-1.3c1.4-1.2 2.2-3 4.6-2.9 3.2.1 3.8.4 4 3.7 0 1 0 2-.3 3.3zm-2.9-1.2v-1l1-2.2c-.9 0-1.9-.4-2.7-.2-2.8.6-2.8 3.5-4.2 5.2-.1.1 0 .6.2.7 2.1.3 4-.1 5.7-2.5zM646.6 413.7c-2.9 1.3-5.2 1.2-7-1.2l-1-1.1c-.2.6-.5 1.2-.5 1.8-.4 2.5-.6 5-1.2 7.3-.1.8-1 1.4-1.6 2-.5-.8-1.4-1.6-1.3-2.4.3-3.6.9-7.2 1.4-10.7.1-.7.6-1.3.5-1.9-.4-3.2.3-5.1 4-6 3.2-.8 5.8-.6 7.7 1.5 2.1 2.4 2.9 5.6 1 8.7-.5.7-1.2 1.2-2 2zm-6.5-10a4.6 4.6 0 00-1.8 6c.6 1.2 3.5 1.2 5.3 1.7h1c2.3 0 2.9-1.3 2.8-3.3-.2-3.3-2.1-4.8-7.3-4.5zM590.2 203.2c-1.4 4.3-1.7 8.7-5.3 11.5-1.6 1.3-3.3 3-5.2 2.1-2-.9-2.6-3-2.8-5.5-.3-5 3.1-8.7 4.4-13.1.3-1 2.7-2 4-1.8 1.5.3 3 1.7 4 3 .8.8.8 2.3 1 3.8zm-6.5 8.6c2.2-2.6 3.8-5.3 3.7-8.8 0-1.7-.3-3.2-2-3.6-1.7-.4-2.4.7-3.3 2.2-2.2 3.9-2 8-2 12 0 .5.5.9.7 1.3l1.4-1 1.5-2.1zM655.6 237.6c-2 2.3-1.6 5.7-5 6.7-3 .9-6.1.8-7.6-1.3-.5-.6-1-1.6-.8-2.2.8-3.2 1.9-6.4 2.8-9.6.8-3 3.2-3.7 6-4 2.9-.2 4.1 1.6 4.9 4 .2.7.1 1.6 0 2.4l-.3 4zm-10.3 1.6c.1 1.8 1.1 2.4 3 2.6 2 .2 3.4-1.2 4-2.5.8-2.4 1-5 1.2-7.7 0-.3-.6-1-1-1.2-3.4-.8-5.8 1-6.2 4.6-.1 1-.7 2-1 4.2zM649.4 257.3c1.3 1 1.5 1.5 0 2-5 1.8-5.5 4.1-2 8 2 2 3.7 4.3 5.6 6.4 1.5 1.8-.1 2.7-1.1 3.1-3.4 1.5-11.4-2.3-12.8-5.9-.2-.5.1-1.3.2-2l1.4.9c2.3 1.3 4.4 2.8 6.7 4 .4.2 1.3-.5 2-.8l-1.1-1.3c-1.4-1.2-2.7-2.5-4.2-3.6-2.3-1.8-3.6-3.8-2-6.7 1.6-2.5 3.3-4.7 7.3-4.1zM661.8 371c1.5-2 2.9-3.3 4.3-4.8 1.2-1.2 2.3-2.1 4.4-1.6 2.6.6 3 2.3 2.7 4.5-.1 1.6.2 3.5-.5 4.9-1.4 2.6-4 2.7-6.6 1.9-.3-.1-1 0-1.1.2-.8 3 .9 4.6 4 3.8.8-.3 1.6-.5 2.4-.5.6 0 1.2.3 1.8.4L672 381c-1.8 1.3-3.3 3.4-6 2.2-3.2-1.4-4.2-2.8-4.3-6.4V371zm7.8-4.1c-1.4 1.4-3 2.8-4.3 4.3-.9 1-.5 1.5.9 2 1.3.4 2.7 2 3.8.3 1-1.5 1.5-3.4 2-5.2 0-.3-.9-1-2.4-1.4zM596.7 305.9v2l-1.5 3c-.5-1.2-1.5-2.5-1.5-3.7 0-2.4.6-4.9.9-7.3 0-.4-.4-.8-.6-1.2l-.7.7c-2.5 2-3.6 5-5 7.7-.4 1-1.2 2.2-2.1 2.8-.7.5-2.2.4-2-1.3l2.2-15c0-.5.8-.8 1.2-1.2.3.4.8.8.8 1l-.7 6.5v1.7c.6-.3 1.3-.6 1.7-1l2-2.3c1-1.2 2.3-2.5 3.8-1.5.8.6 1.2 2.2 1.4 3.4.2 1.7 0 3.4 0 5.7zM642 235.3c-.9 2.3-1.3 4.3-2 6.3a6 6 0 01-6 4.3c-2.2-.1-4.7-2.4-5.3-5-.8-3.5 2.2-10.6 5.4-12.2 1.7-.8 3.9-1.1 5.6.7 1.5 1.6 2.6 3.3 2.2 5.9zm-3 .8c1-2.4.4-3.7-1.8-5-2.4-1.6-2.4.4-3.4 1.7-2 2.5-1.7 5.2-2 8-.4 2.2 1.4 2.3 2.3 2.5.8.2 2.3-.6 2.8-1.4 1-1.4 1.5-3.2 2.2-5.8zM604 409.3l-.1 5.7c0 .5-.5 1-.8 1.5-.5-.3-1.6-.5-1.6-.9v-5.5c.1-.6 0-1.2-.1-1.8-.6.2-1.4.3-1.8.7-.7 1-1 2.4-2 3.2-1 1-2.4 1.4-3.7 2.1-.6-1.4-3.5-1.5-1.7-4.4 1.2-1.9.9-4.7 1.4-7.1.2-.6 1-1.1 1.6-1.6l.4 1.9v1l.3 6 3.9-4.7c.6-.7.9-1.8 1.6-2.3.9-.6 2-.6 3.1-1 0 1 .2 2 .1 2.9-.1 1.3-.5 2.5-.7 4.3zM566.4 198c1-1 1.8-2.4 2.8-2.7 1.4-.4 3-.2 4.6 0 3.6.1 6 3.9 4 6.7-1.5 2-3 5-6.3 4.6-1.4-.2-1.9.3-1.7 1.7.2 2-1.8 3.8 0 5.9.1.2-.4 1.1-.6 1.7-.6-.3-1.6-.4-1.7-.8-.4-1.6-.7-3.2-.8-4.9 0-.5 1.3-.7.3-1.9-1-1.4-.2-4.4.2-6 .3-1.2-.6-2.7-.8-4.3zm7.5 5c2.5-2.9 2.8-4.5.9-5.2a8.6 8.6 0 00-5 .2c-1.4.4-1.4 4-.6 5.4 1.4 2.6 2.8-.3 4.7-.4zM593.3 200.6c-.1-3 2.2-6 4.7-6.4 2.6-.5 7 .9 7.8 2.4 1.2 2.3-1 7.8-3.7 9l-2.7.9c-1.6.3-4 0-4.6.9-.8 1.2-.2 3.3-.2 5v2c0 .5-.3 1-.4 1.4-.5-.4-1.1-.8-1.5-1.3-.2-.4-.2-1-.2-1.5 0-4 0-8.1.8-12.4zm10-3.3c-1.7-2-4.3-1.4-6-.9-2.6.9-1.6 3.8-1.6 5.9 0 2.1 1.7 1.1 2.6 1.1 4 0 5.2-1.7 5-6.1zM599.5 383.2c-1 .5-2.3 1.1-2.7.8-1.8-1.7-4.5-3.2-2.2-6.4-2.8-4 1.2-7.3 1.1-11 0-.6 1-1.1 1.6-1.6.2.6.4 1.3.4 1.9l-1 13c0 .4.5 1 .8 1.5.4-.4 1-.7 1.2-1.1l5.5-11.1 1.1-1.1c.2.5.6 1 .7 1.5 0 5.4-3 9.4-6.5 13.6zM604 231.4c-.4-1.4.8-3.1-1.4-3.1-.6 0-1.2-.4-1.7-.6.5-.5.9-1.2 1.4-1.4 3.9-1.5 8-1 12-1 .3 0 .6.2.8.3-.2.3-.4 1-.8 1l-2.8.7c-1.4.3-2.8.9-4.2 1-1.8 0-1.5 1.3-1.2 2 .1.6 1.1 1 1.8 1 1.7.2 3.4 0 5.1.1.4 0 .8.4 1.2.6l-1.1 1.1-.4.4c-2.5-.2-5.3.1-6.6 2-1.1 1.7-.7 4.4-1.2 6.7-.1.6-.8 1-1.2 1.6-.3-.5-.8-1-.8-1.5.1-1.3.5-2.6.7-3.9 0-.5.1-1.5-.1-1.7-4-2-.8-3.3.4-5.3zM556.6 268.4c-.8-.8-1.4-1.2-1.7-1.8-.3-.8-.4-1.8-.5-2.7l2.2 1.4 3.6 2.5c.6.3 1.4.4 2 .6-.1-.7-.1-1.6-.5-2.1-.8-1-1.7-1.7-2.6-2.6-3.8-4-3.1-7 2-9.8 1.3-.7 2-1 2.9.1.5.6 1 1 1.6 1.3l-2 1c-1.4.6-3.4.8-4 1.9-1 1.8.4 3.4 1.8 4.8 1.6 1.5 3 3.2 4.2 5 .5.6 1 2.1.7 2.4-.8.7-2.1 1.5-3 1.2-2.2-.7-4.3-2-6.7-3.2zM773.5 334.8c-4 3-6.6 6.8-7.8 11.4-.2.8-1 1.4-1.6 2-.6-.6-1.8-1.2-1.9-2v-11.8c0-.5.9-1 1.3-1.5.3.5.6 1 .7 1.5.1.8-.2 1.8 0 2.5.3.8 1 1.4 1.5 2l.7-1.6c1.1-3.3 4.4-4 7-5.5.6-.3 2 .8 3 1.2-.8.6-1.6 1.2-2.9 1.8zM595.6 269.7v2c-.2 1.4-.6 4-.8 4-2.7-.2-.6-2.4-1.2-3.5-1.8-3.2.5-6.3 0-9.5-.4-3.4 0-3.3-3.8-3.5-.9 0-1.6-1.3-2.4-2 .6-.3 1.2-.9 1.9-1l10.9-1c.8 0 1.7 0 2.4.3.5.2 1.1.8 1 1 0 .6-.5 1.4-1 1.5-1.3.2-2.7.3-4 .3-2.2 0-3 1-3 3.1v8.3zM730.4 198.6c-.6 1.3-1.3 2.3-1.3 3.4v10.3c-.1.9-.6 1.7-.9 2.6-.4-.8-1-1.4-1.2-2.2-1-3.5-1.3-7 0-10.7.4-1.3.4-3.2-2.2-2.7-.7.2-1.5.3-2 0-.8-.5-1.4-1.3-2-2 .8-.4 1.5-1 2.3-1 4-.5 8-.8 12-1 .7-.1 1.4.3 2.2.5-.7.5-1.3 1.2-2 1.4l-5 1.4zM613.5 295.8l.8-1.6 1-1.8 1 2v.4c-.5 2.5.1 4 3 4.3.7 0 1.3.9 1.9 1.4-.7.4-1.3 1-2 1.2-3.8 1-3.8 1-4 4.8 0 2.6-1 5.7-1.7 5.3-2.2-1.5-1-3.7-1.3-5.6 0-.5.3-1 .5-1.4 1-1.5.7-2-1.1-2-.7 0-1.5.2-2-.1-.7-.4-1-1.3-1.6-1.9.6-.4 1.1-.9 1.7-1.2.7-.4 1.5-.9 2.2-1 2.2 0 1-1.6 1.6-2.8zM662.9 339c.2-1.4.2-2.7.8-3a9 9 0 015.5-1.5c.7 0 1.3.2 2 .3l.8.4c-.2.4-.4 1-.8 1-1.2.4-2.5.5-3.8.7-2.4.4-3.3 2.5-1.7 4.3 1.3 1.5 2.9 2.9 4.6 4 1.5.8 2.2 1.9 1.9 3.6-.1.4-.2 1.3-.4 1.3-2.6.1-5.2.8-7.7-.7-2-1.2-3.7-2.4-3.3-5 0-.4.4-.8.5-1.3.4.4 1 .7 1 1.1.7 2.7 3 3.4 5 4 .5.2 1.2-.3 1.8-.6l-1-1.4c-1.6-1.4-3.3-2.8-4.8-4.3-.5-.5-.3-1.6-.4-3zM660.8 301.7v-2c0-.7.2-1.3.3-2 .6.6 1.6 1 1.7 1.6.2 2.4 0 4.8.1 7.2 0 .5.6 1 .9 1.4.4-.4 1-.7 1.1-1.2 1-2.9 1.3-6 3.8-8.2l1-.7c.2.4.5 1 .4 1.3-.5 1.7-1.2 3.3-1.8 5-.8 2.2-1.7 4.4-2.3 6.7-.5 2.2-2 2.5-3.8 2.3-.5 0-1-.6-1.4-1v-10.4zM811.8 235.5c.3 2.3-.8 4.3 1 5.8.1.2-.1 1-.4 1.3-.3.2-1 .2-1.3 0-1.2-1.3-2.7-2-2.5-4.2.3-1.9.1-3.8.1-5.7 0-3.7 0-3.7-4-3-.6 0-1.2-.3-1.8-.5.3-.6.6-1.6 1-1.7 3.5-.9 7-1.6 10.4-2.3.5 0 1.1.5 1.6.7-.3.5-.6 1.1-1 1.3-3.8 1.7-3.8 1.7-3.1 5.8v2.5zM698.8 308.2c.3.4.2.6.3.8l1.6 4c-2.1.4-4.6 1.6-6.2 1-1.7-.8-4.6-1-5-3.8l-.4-2.1c.8 0 1.8-.2 2.4.1 1.4.8 2.7 2 4 2.9.4.3 1 .3 1.5.5 0-.5.2-1 0-1.5a5 5 0 00-1.4-2c-2.3-1.6-1.9-4-1.6-6 .1-1 1.5-2 2.5-2.3 1-.4 2.3.1 3.5.2l-2.6 1.9c-2.2 1.6-2 2.8 1.4 6.3zM652.5 375.2c.4-2.1.5-3.8 1.1-5.2.4-.9 1.6-1.4 2.5-2l-.3 2.4c.1 3.3-1.2 6.3-2.3 9.3-.4 1-1.5 2-2.4 2.6-.2.2-1.6-.6-1.6-1-.5-4-.8-8-1-12-.1-.7.5-1.6.8-2.4.6 1 1.4 2 1.6 3.2.2 1.5-.2 3.2-.1 4.8 0 .3 1.1.5 1.7.3zM672.2 201.4h-2.6a3 3 0 01-1.5-.8c-.1-.2.2-1 .5-1.3.7-.4 1.4-1 2.2-1h9.3c.4 0 1 .6 1.4 1-.4.3-.8.9-1.3 1-.6.2-1.3.1-2 0-2.2 0-3 1.2-3 3.2v10.9c0 .8-.5 1.7-.7 2.5-.5-.7-.8-1.5-1.3-2.1-1-1.3-.5-2.3-.2-3.9.6-3-.1-6.3-.8-9.5zM618.1 244.6c-1.5.2-3.3.8-2.8-1.6l2.3-11.4c.3-1.2.4-2.6.8-3.8.4-.8 1.2-1.6 1.8-2.4.4 1 1.4 2.2 1.2 3-.6 3.2-1.7 6.2-2.5 9.3-.3.9-.2 1.9-.2 2.8.8-.3 1.7-.8 2.5-.7 1 0 1.8-2 2.9-.2.1.3.8.3 1.3.4l-1.3.7a199 199 0 00-6 3.9zM679.4 381.4c-1.3-1.7-1.9-3.4 1.1-3.1 1.1.1 2.2.6 3.3.7.5 0 1-.5 1.4-1 .1 0-.1-.7-.3-1-1.3-1.7-3-3.2-4-5-1.7-3.7.7-7.5 4.5-7.1.7 0 1.4.8 2 1.2l-1.7.8c-3.7 1.3-4 1.8-1.9 5 1.2 1.7 2.3 3.4 3.3 5.3 1.3 2.7.5 4-2.5 4.2h-5.2zM618.4 341v1.6c0 1.5.1 3.2-1.8 3.2-.4 0-1.4-2.3-1.2-3.4.8-4.9 2-9.7 3-14.6.2-.9.6-1.8 1-2.6.2-.3 1-.7 1.1-.7.4.4 1 1 1 1.4l-3.1 15.1zM642.4 313.9c-.6-.8-1.3-1.4-1.2-1.9l1.7-13.6c.2-1.7 0-3.4.4-5 .1-.7 1-1.3 1.4-2l.6 1.8a49 49 0 01-2.9 20.7zM633.9 365.9c-1 4.8-2 9.2-3.1 13.5-.2.7-.6 1.3-1 2-.3-.8-1.1-1.6-1-2.2.7-4.5 1.6-9 2.5-13.3.4-1.7 1-3.4 1.6-5 .1-.3.6-.5 1-.8.2.5.7 1 .7 1.4-.1 1.3-.5 2.6-.7 4.4zM679.7 246.1c-1-.4-2.3-1.3-2.1-1.9 1.2-5.6 2.7-11.1 4.2-16.7.1-.4 1-.7 1.4-1 .1.4.4.9.3 1.3l-2.1 12.5a41 41 0 01-1.7 5.8zM585.3 373.1l2-10 .5-2.3c.2-.5.7-.8 1.1-1.1.2.4.5.9.5 1.3-.3 4.5-.5 9-1 13.4-.4 2-1.6 3.9-2.4 5.8l-.7-6v-1zM606 300.7c-.4 3.1-.6 5.8-1.1 8.3-.2.8-1.3 1.4-2 2-.3-.7-1-1.5-1-2.2.2-2.8.4-5.7 1.1-8.3.2-.9 2.1-1.9 3.1-1.7 2 .2-.1.9-.1 1.9zM627.7 341c-.3 1.3-.7 2-1 2.7l-1.5 2.5c-.2-1-.7-2-.6-2.8.6-3.5 1.4-7 2.1-10.4 0-.3.6-.6 1-.8.2.4.7 1 .7 1.4l-.7 7.4zM642 368.2c-1.4 3.4-.7 6.8-.9 10 0 .8-.5 1.4-.7 2.1-.6-.6-1.7-1.4-1.6-1.9.8-3.6-.6-7.6 1.5-11 0-.1.9.3 1.6.8zM743.5 264.5c.6-3.5 3.3-5.3 5.6-4.1.3.2.7.8.6 1.2-.3 1.2-.4 2.7-1.2 3.5-1.5 1.4-3.3 1.1-5-.6zm3.7-2l-1.6 1.1.4.8c.6-.5 1.1-1 1.2-2zM749.5 272.5l1-.5c.4 2.1-1 4.7-2.8 4.8-1 0-2.9-.9-2.9-1.3 0-1.9.6-3.8 1.2-5.5 0-.3 1.5-.2 2.3-.2l-.6 1.4v1l-.6 2.5 2.4-2.2zM653.3 310.8c-.7.1-1.6 0-1.6-.1-.2-1-.2-2-.2-3 0-2.9.4-5.6 2.4-7.8l.3-.1c.4 2.6 1.2 5.2-.6 7.7-.5.7 0 2-.3 3.3zM561.2 203.2c-1.8.6-3.3 1-5 1.3-.2 0-.8-.5-.8-.8 0-.4.2-1.1.5-1.2 2-.4 3.9-1.2 5.7-1 2 .2-.1 1-.4 1.7zM628.5 328.4c-.8-.2-1.3-.6-1.8-1l.8-.8c.4.5.8 1 1 1.8zM652.8 293.7a4 4 0 011.8 1l-.9.8a4 4 0 01-1-1.8zM606.8 291.7c-.2.4-.7.7-1.1.7-.6 0-1.2-.3-1.7-.5l.7-.8c.8-1.2 1.3-.2 2 .6zM642 362l-.1 1.6-1.6-1.6c.5 0 1-.2 1.6 0zM489.2 493.5l2 9.4 1 6.8c.8 6.8 4.6 12.7 5.6 19.3 1.2 7.3 5.9 12.5 9.1 18.5 2.7 4.8 5.2 9.8 7.4 14.8 1.1 2.7 2.1 5.3 4.3 7.4 2.1 2.2 2.2 3.2.4 5.6-4.2 5.3-5.6 11.9-8.4 17.8-3.3 6.9-4.4 14.6-7.7 21.5.4 5.6-2.5 10.6-3.4 16-1.1 6.4-1.3 12.7-1.6 19-.3 5.1-1.8 10.2-1.8 15.2 0 4.6.4 9.3-.3 13.7-1.5 10.6-.6 21.3-.7 32 0 9 .2 18 1.8 26.9-1.8 2.9-.7 6.1-.8 9.2-.2 2.8.4 5.7.4 8.6 0 2.8-.5 5.6-.5 8.4 0 5.3-.8 10.5-1.7 15.7-.6 3.3-.7 6.9-1 10.4a28.8 28.8 0 01-6.5 14.6c-2.6 3.3-5 6.9-8.2 9.8-3 2.7-6.6 3.7-10.1 5-1.3.4-2.6.7-4 .9-.7 0-1.4-.2-2.2-.4l2-1.5c2.2-1 4.4-1.9 6.5-3 4.6-2.2 8-5.8 10.8-10 1.3-2.1 3.2-3.8 4.7-5.8.8-1.2 1.6-2.6 2-4 1.2-6 2.4-12 3-18.1 1.4-13.5.8-27 .6-40.4 0-4-.1-8.1-.8-12.1-1.7-9.5-.5-19-.9-28.6-.1-5-1-10 1-14.7-2.8-2.8.7-5.5 0-8.4-.5-3-.5-6.2 0-9.1 1.7-7.8.2-15.6 1-23.3.6-5 1.4-10 2.3-15 .8-5 3.3-9.3 3.7-14.5.4-4.8 3.1-9.5 5-14.2a456 456 0 018-17.5c.6-1.4 1.7-2.5 2.6-3.7 1.5-2 1.6-4.4-.4-5.2-3.6-1.5-3.8-5-5.3-7.5-2-3.5-2.7-7.6-5.2-11-1.4-1.7-2.5-3.7-3.8-5.6-.3-.5-1-1-1.1-1.4-.5-4.6-4-7.8-5.3-11.9-1.3-4-2.4-8-3.4-12-1.7-6.4-3.6-12.6-4-19.2 0-2-.6-4-1-6-.3-2-.7-4-.8-6.1-.4-6.6-1-13.2-1-19.9 0-6.4.3-12.8 1-19.2.6-4.3.8-8.4.2-12.8-.6-4.6.9-9.4 1.4-14.2.2-1 .6-2 .2-2.8-1.6-3.5.6-7.3-.8-10.9-.4-1 .3-2.4.5-3.6.1-.6.5-1.6.3-1.7-2.6-1.8.7-4-.6-6.3-1-1.7.2-4.5-.4-6.5-.6-2.2 2-3.7.3-6.2-1.2-1.6-.8-4.4-1.2-6.7-.3-2 0-4.6-1-6.3-2.6-4-1.7-8.8-3.7-13-.4-.7 0-1.8 0-2.8 0-6.5-1.8-12.7-3.5-18.9-.8-3-1.5-6.1-2.4-9.1-1-3.3-2.7-6.3-4-9.4-1.1-2.4-4.2-4.2-6.7-5.6-3.5-1.9-7.2-3.8-11-4.6-2.6-.6-5.6.8-8.4 1.4-.9.2-1.6 1-2.4 1.2-.7 0-1.8 0-2.1-.5-.4-.5-.1-1.6.2-2.2.5-.8 1.2-1.8 2-2 5-1.2 10-3.6 15.2-1.1l9 4c4.7 2 6.4 6.7 9.2 10.5 3 4.2 3.3 9.3 4.7 14 1.7 5.4 2.8 11 4 16.7.4 2.2.5 4.6.7 6.8.5 5 2 9.6 3.2 14.3 2.3 8.6 2.6 17.4 3 26.3.2 3.4 1.1 7.2.5 10.3-1.1 6.4 0 12.7-.7 19-.3 2.3 1.2 4.4.2 7-.8 2 0 4.8-.2 7.2-.2 4.2-.8 8.4-.9 12.6 0 2.4 1.5 5.3.7 7.2-1.1 2.6-.2 4.3.1 6.6.3 2-.7 4.2-.8 6.3 0 1.5 1 3 .8 4.4-.8 4.6.5 9.2.1 14.2zM708.8 546l-4 2.2c1.4.5 2.8 1 4.2 1.3l6 1.8c0-2 0-4.1.3-6.1.4-1.7 1.1-3.4 2-5 .5-.9 1.6-2 2.4-2 .8 0 1.9 1.2 2.2 2.1 1 2.7 1.7 5.5 2.5 8.2.2.7.7 1.3 1 2 .4-.9 1-1.7 1.2-2.7.2-1.8.1-3.7.3-5.5.2-2.6 1.6-3.7 3.7-3.3.3 0 .7.6.6.9-1.1 4.2-2.4 8.4-3.3 12.6-.3 1.6-.7 2.7-2.4 2.8-1.7 0-2.2-1-2.6-2.6-.7-2.8-2.2-5.4-1.9-8.4 0-.4-.8-1-1.3-1.4-.2.5-.5 1-.5 1.5-.4 2.7-.9 5.5-1 8.3 0 1.6-.8 2.2-2 1.6-3-1.6-6.4-.6-9.5-2.7-2.8-1.9-3.4-1.2-4 2.4 0 .5-.2 1-.4 1.3l-1.5 2c-.7-.8-1.8-1.6-1.9-2.3 0-4.3-1-8.5.1-12.7.3-1 1.2-1.5-.6-1.5l-10.1.1c-.9 0-1.7.5-2.5 1-.3.2-.5.8-.4 1.2 0 .3.7.6 1 .6l7-.7 1.6.3c-.2.5-.3 1.4-.7 1.5-1.8.8-3.7 1.5-5.5 1.8-3.3.5-3.5.6-3.5 3.7 0 2.4.7 2.8 2.8 1.7 2.2-1.2 4-2.8 6.1-4 .4-.3 1.1 0 1.6 0 0 .4.1 1-.1 1.3-2.7 3-5.5 5.9-9.7 6.8-1.7.4-4.3-1.8-4.5-3.8a28 28 0 011.4-11.5 3.8 3.8 0 013.6-2.7c3.6 0 7.2-.8 10.8.7 1.2.6 3 1.2 4.3-.2 1.3-1.6 3.1-2.3 4.5-1.4 1.9 1.3 4 2.8 3.4 5.8-.2.9-.3 1.8-.7 3zm-5.6-1.3h1c2 .4 2.7-.6 2.4-2.5-.2-.9.7-2.4-1.3-2.3-2 0-2.7 1.1-2.6 3 0 .4 0 .9.5 1.8zM767.4 570.8a33.4 33.4 0 01-4 4.5c-.4.4-1 .7-1.5 1 .5.4 1 1.2 1.4 1.2 2.9 0 4.6 1.8 6.2 3.7.4.4.5 1.7.2 2.2-.4.4-1.7.7-2.2.4-2-1-3.7-2.2-5.4-3.4-3.8-2.6-3.8-2.6-6.7 1-.4.5-1.3.6-2 1-.1-.6-.5-1.2-.4-1.7.4-3.4.8-6.7 1.6-10 .3-1.2.5-1.9-1-1.8-3 .2-6.1.6-9.2 1-.4 0-1 1-1 1.5s.7 1.2 1.3 1.3c1 .2 2.2 0 3.3 0 1 .1 2 .4 2.9.7-1 .5-1.7 1.3-2.7 1.6-1.1.4-2.4.5-3.6.6a3.5 3.5 0 00-3.2 3.4c0 1.8 1.3 2.6 3 1.8 1.6-.8 3-1.9 4.7-2.7.4-.3 1-.3 1.6-.4.1.6.4 1.3.3 1.8-.5 1.8-6.7 6-8.5 5.8-2.4-.2-4.1-2-4-4.6.1-2.6-.8-5.3.9-7.8.2-.4-.1-1.2-.2-1.8-.1-1-2.6-1.1-1-2.3 1.3-1 1.5-3.4 4.8-2.2 3.6 1.3 8-.2 12.2-.4l.8-.2c1.2-.2.5 3.6 2.7 1.3.8-.7 1.5-1.7 2.4-2.2 3.9-2 6.2-.7 6.3 3.8v1.9zm-8.7.5l.8 2.4c1.6-1.3 4.6-.3 5.3-3.4.2-1 1.2-2-.1-2.6-1-.4-2.3-.4-3.2 0-1 .5-1.9 1.7-2.8 3.6zM534.9 748.8c.4-.8.7-1.4.7-2-.2-3.2.7-5.8 2.7-8.6 1.2-1.6 2.4-2.8 3.9-2.7 2.3.1 3.6 2.3 4 4.4.2 1.9-.3 4-.7 6-.2 1.4-1 2.6 1.6 2.8 1 0 1.9 1.4 2.9 2.1.8.6 1.7 1.3 2.7 1.5 1.3.4 2.3.2 2.3-1.8 0-2.1-1-4.4.8-6.4.2-.2-.6-1.3-1-2-.5-1 .1-3 1.2-3.2l10.2-1c.4 0 .8.6 1.3.9-.4.4-.7.9-1.2 1-2.3.7-4.7 1.2-6.9 2-.7.4-1.5 1.8-1.3 2.5.2 1 1.1.9 2.4.5 1.9-.5 4.1-.2 6.2 0 .3 0 .7.5.7.8 0 .3-.4 1-.7 1l-5.8 1c-1 .2-2.6.6-2.7 1.2-.5 1.7-.2 3.5-.3 5.2 1.2 0 2.5.3 3.6 0 1.4-.5 2.6-1.4 4-2 .4-.1 1 0 1.3.3.2.3.2 1 0 1.3-3.4 4-7 4.6-11.7 2.7-4.3-1.8-8.8-3-12.2-6.6-.9-.8-3-1.2-4.1-.7-.8.3-.9 2.4-1.3 3.7v.5c-.2 1.7.8 4.6-1.5 4.7-2 0-1.3-2.9-1.4-4.5 0-1.5 0-3 .3-4.6zm8.4-3.6c.9-2.2 0-4.2-.4-6.2 0-.4-1-.9-1.3-.8-1.4.5-3.5 4.5-3 6.3.5 2.2 2.5.7 3.8 1.1.1 0 .3 0 1-.4zM564.8 599c-1.7 4.3-1.6 4.2 1.9 6.3 2 1.2 4 2.7 6 4.2.1 0 .2.7 0 .8-.3.5-1 1.1-1.4 1-1.5-.5-3-1.3-4.4-2-2.3-1.2-4.7-2.3-6.6-3.8-2-1.6-2.1 0-2.4 1-.5 1.6-.6 3.4-1.1 5-.2.4-1.2.8-1.7.7-.5 0-1.2-1.2-1-1.4 2-4.1-.2-8.7 1.7-12.8 1-2.1 0-2.8-2.5-2.1l-2.2.5c-1.8.4-4.5.4-5 1.5-1.3 2.1-1.3 4.9-1.8 7.4-.4 2-.7 3.9-1.2 5.8-.2.4-1 1.1-1.3 1-.5-.1-1.3-.9-1.3-1.3.3-3 .8-6 1.4-9 .2-1.3.8-2.5 1.2-3.7l-4.8-1.2-1.7-.5c.6-.5 1.1-1.3 1.8-1.4 3.2-.4 6.5-1 9.7-.9 2.8.2 5.6-1.9 8.4-.2.2.2 1 0 1.2-.3 1.7-2.1 4.1-2.3 5.9-1 1.7 1.4 2.9 3.7 1.2 6.5zm-2.1-2.6l-1.4-2.3c-.5.5-1.2 1-1.5 1.6-.5 1-.8 2.3-1 3.4 0 .5.6 1.5 1 1.6.6 0 1.5-.4 1.8-.9.5-.7.7-1.6 1-3.4zM686 520.8c-1.9 4-4.3 7.2-9.2 7.5-1.5.1-2.5-.2-2-2 .3-2.1-1-2.1-2.4-1.8-1.2.3-2.5 1-3.6 1.6-.7.4-1.3 1-1.7 1.7-1.1 1.5-2.7 2-4.2 1.3-.8-.3-1.6-2-1.4-3 .6-2.3-.6-3-2.3-2.5-.5.1-.7 2-.9 3.1 0 .2.5.5.6.8v1.6c-.6-.2-1.6-.3-1.9-.7-.7-1-.8-2.4-1.5-3.2-.6-.8-1.7-1.1-2.6-1.7-.6 1.1-3 .6-2.4 2.8.2.5.2 1 0 1.5-.4.8-1 1.5-1.6 2.2-.4-.8-1.1-1.6-1.2-2.4-.3-4.4.5-8.4 2.7-12.4 1-2 2-2.5 3.8-2.3 1.9.1 2.1 1.4 2.2 3 .1 1.7.3 3.4 1 4.9.4.8 2 1.6 3 1.6 1-.1 2.5-1 1.4-2.7-.2-.2-.6-.5-.5-.6.5-1.8 1.2-3.5 1.8-5.3 2.2 1.5.5 3.7 1 5.6v1.4l.5 5.6 4-3c0-.2.2-.4.3-.4 1.9-.6 4.5-.6 5.4-1.9 1-1.4.3-4 .4-6 0-.5.4-1.2.8-1.6.4-.3 1-.4 1.6-.6.2.4.5.8.5 1.2v9.2c0 .7.4 1.3.5 2 .7-.3 1.5-.5 2-1 1.7-1.6 3.2-3.4 6-3.5zm-34-3.1l-.5 2.1c0 1 0 1.8 1.4 1.8 1.3 0 1.6-.5 1.5-1.6v-3.3c0-.4-.8-.7-1.2-1l-1.2 2zM803.2 610.4c-3.1 2-6.7 2.5-9 5.4-1.4 1.8-4.5.1-4.5-2.4 0-2 .8-4 .4-6-.3-1.8-.3-3.2.4-4.9.7-1.5.3-3.2-2.2-2.7h-1.4c-2 0-5-.4-5.5.4-.8 1.8-1.3 4.9-.3 6.4 2.1 3-1.3 5.4-.2 8 0 0-.7.6-1 .6-.3 0-.8-.5-.8-.9-.4-3-.9-6.1-1-9.2 0-2.2 0-4.1-2.7-4.7-.4 0-1-1-1-1.3.2-.5.9-1.1 1.4-1.2 1.2-.2 2.6 0 3.8 0 2.5-.3 5-1.2 7.3-.9 2.3.3 4.1-.7 6.1-.9 3.2-.3 6.5.5 9.7.8.2 0 .5.5.4.8 0 .4-.3 1-.5 1-1.5.2-3 0-4.3.1-1.4.2-2.8.4-4 1-.5.5-.7 1.9-.7 2.9 0 .3 1 1 1.6.9 2.8-.3 5.7 1 8.4-.8.3-.2 1 .3 1.5.5-.2.5-.4 1.4-.8 1.5-1.6.7-3.3 1.3-5 1.7-1 .2-2 0-3 0-1.6.2-3.8 2.3-3.7 4 0 .5.6 1 1 1.4.2.1.8 0 1-.2 2.4-2 5-3.3 8.3-3.4l2.2-.2c-.5.8-1 1.5-2 2.3zM672 609.7l3.7-7 1-2.5 1.7-2c-1.5-1.1-1.8.6-2.7 1-.3.2-.7 0-1 .1.3-1 .5-2.1 1-2.9.6-.7 1.3-2.3 2.7-1.1 2 1.8 4.3 3.7 4 7-.3 2.6-.6 5.4-1.5 8-.4 1.3-2 2.4-3.2 3.3-.5.4-1.7.2-2.3-.2-.6-.4-1-1.3-1.4-2l-2.6 1.9c-1.2 1-2.5 2.1-3.4 3.4-1.7 2.3-4.2 1.7-6.1 1.3-2-.5-3-2.5-2.7-5 .5-3.8.6-7.7 1-11.6.2-1 .4-2.2 1-2.9.8-.8 2-1.2 3.1-1.6 2-.6 1.5 1.5 2.4 2.2.2.2 0 1-.1 1.6-.5-.2-1.5-.4-1.5-.6-.2-2.2-1.2-1-1.5-.3-1.4 3.8-3.4 7.4-1.8 11.8 1.6 4.4 1.4 4.5 5.6 1.7 1.6-1 3-2.2 4.6-3.6zm5.6-3.6c-.3 1-.8 1.9-1 2.9 0 .4.5 1 .8 1.4l1.2-1c1.5-1.8.8-4 1-6.2l-.7-.4-.3.8c-.3.5-.7 1-1 2.5zM734.8 613.5c-2.2 1.5-4.2 0-5-1-2-2-4.7-2-6.8-3.5-2-1.4-2.5.3-2.8 1.6-.3 1.2 0 2.5-.1 3.8-.1.6-.6 1.2-.9 1.8-.6-.4-1.5-.8-1.8-1.4-.3-.8-.2-1.8-.2-2.8 0-1.2.2-2.4.4-3.6.1-1.3.5-2.6.5-3.8 0-1-.5-2-.6-3.1 0-1.2 0-2.4.2-3.6 0-.4.6-.7 1-1l.4 1.2 1 1.7 1-1.3c.9-2.3 4.6-4 6.3-2.3 1.6 1.4 3 3.8 3 5.8.2 1.1-.3 4-2.9 4.4-.5 0-1 .4-1.6.6.5.5.9 1.2 1.4 1.3a15 15 0 017.6 3.8c.2.2.9 0 1.3 0-.1-.3-.3-.6-.3-1l-.3-11.4c0-.6.9-1.2 1.4-1.8.5.6 1.2 1 1.4 1.7.3.7 0 1.6 0 2.4l.7 12.4c0 .3-.8.9-1 .8-1-.6-2-1.3-3.3-1.7zm-7-13.2c-.2-3-3-3.2-4-2.3-1.5 1.4-1.9 4-2.7 6 0 .1.3.5.6.6 2.5 1.1 5.6-.5 6.1-4.3zM630 631.4c.3-.9.4-1.5.2-2.1 0-.6-.4-1-.7-1.5-.4.3-1 .6-1.1 1-.8 2.5-1.4 5-2.2 7.3 0 .5-.8.8-.7 1.1.5 2.8-2 2.8-3.3 4-1.2-1.4-2.8-2.5-3.4-4-.8-2-.7-4.3-1.1-6.4-.2-.6-.8-1.2-1.3-1.9l-.6 1.8-1 10.2c-.1.8-1 1.5-1.4 2.3-.4-.7-1-1.5-1.3-2.3-.2-.5-.2-1.2-.2-1.8l1-10.7c.1-.7.5-1.5 1-2 .7-.6 1.8-1.5 2.7-1.4.7.1 1.7 1.2 2 2 1 2.5 1.7 5.1 2.6 7.6.3.7 1 1.3 1.5 1.9l.8-2c1.6-3.8 2.4-8 5.8-11l1.7-1.3c.4.8 1.1 1.6 1.1 2.4.1 5.8.1 11.6 0 17.4 0 .4-.8 1.1-1.3 1.2-.5 0-1.4-.8-1.4-1.1 0-3.5.2-7 .6-10.7zM696.7 569.6c1.8-.4 3.3-.6 4.8-.7 3.5-.3 7 .2 10.5-1.7 2.3-1.3 6-.3 9-.2.3 0 .6.3.9.6-.2.2-.4.5-.7.6-.7.3-1.4.6-2.1.6-2.4 0-2.8 1.4-2.9 3.4-.2 3.6-.5 7.1-1 10.7 0 .8-.8 1.5-1.3 2.3-.5-.9-1.5-1.8-1.4-2.6.3-3.3.8-6.6 1.5-10 .2-1 .6-1.6-.8-1.8-1.7-.3-3.3-1-5-.9-2.4.3-4.9 1.1-7.3 2-.5.1-.7 1.3-1 2 .5.1 1.1.4 1.7.4l4-.2c-1.1.8-2.1 2-3.3 2.3-2.2.3-3.8 1.1-4.4 3.4 0 .4.3 1 .5 1.6l1.4-.8 5.9-3.5c.3-.2 1 .1 1.3.5.1.2 0 1-.3 1.3-2.7 2-5.3 4.2-8 6-1.7 1.2-3.7 0-3.6-2 0-2.3-.8-4.6.7-7 1.1-1.6-1.4-4.1.9-6.3zM584.9 541.8c1-.3 1.5-.9 2-.9h9.6c1.5-.1 2.1.3 1.9 1.8-.5 3.4 2.8 2.1 4.2 2.8 1.9 1 2-1.7 2.4-2.9.4-1.3.3-3.6 1.6-3.5 1.7.2 1.7 2.5 1.4 4-.5 3.8-1.2 7.6-2 11.3 0 .4-.4.9-.7.9-.4 0-.9-.2-1.2-.5-1.5-1.6-1.2-3.6-.3-5.2.7-1.6.5-2.2-1.1-2-1.5.4-3.2-1.3-4.2 0-.8 1.2-.8 3-1 4.4l-.1 1-1.7 2c-.7-.7-1.4-1.1-.8-2.7 1-2.4.9-5.1 1.2-7.7v-.7c-1.7 0-3.5-.2-5.1.2-.6.1-1 1.7-1.3 2.7l-2 10.3c0 .4-.6.8-1 1.1-.3-.4-.8-.8-.8-1.3-.4-4 .3-7.7 1.6-11.4.7-1.9-.3-1.9-1.5-1.7-1.7.2-3.3.7-5 .9-.2 0-1-.8-.9-1.1 0-.6.5-1.6 1-1.7 1-.2 2.2 0 3.8 0zM605.2 681.9c.7-1 1.5-1.5 2.2-2 0 .8 0 1.6-.2 2.3l-2 9.7c-.5 1.6-1 3.1-1.7 4.7-.8 1.9-1.6 3.9-4.2 3.6-1.5-.2-3.6-3.3-3.8-5.3-.1-.8-.6-1.6-.8-2.4l-1.1 2-2.2 4.5c-.6 1.1-1.5 1.4-2.4 0-.4-.5-1.1-1.1-1.2-1.8l-1-10.7c0-.6-.2-1.4 0-1.9.6-1 1.3-1.8 2-2.7.3 1 .8 1.8.9 2.8v7.7c0 .4.4.7.6 1 .5-.2 1.2-.4 1.3-.9.7-2.2 1.5-4.5 1.9-6.9.2-1.4.6-2.7 2-2.7 1.7 0 2 1.6 2 3.2v4.3c0 .7-.3 1.4 0 2 .6 1.6 1.4 3.2 2.2 4.8.9-1.5 2-2.9 2.5-4.5 1.1-3.4 2-6.9 3-10.8zM677.6 630.7l1 8.2c0 .5.5 1 .8 1.4.4-.3 1-.6 1-1 .8-3.5 1.4-6.9 2-10.3.2-.6.5-1.2 1-1.5.3-.4 1-.5 1.5-.5.1 0 .5.8.4 1.2-1 4.6-1.8 9.1-3 13.7-.2.9-1.4 2-2.3 2.2-.6.1-2-1-2.3-1.7-.6-1.8-.7-3.9-1-5.8l-.7-1c-.4.2-1.1.5-1.3.9l-2 6.8c-.1.8-.2 1.6-.7 2.1-.7.7-1.8 1.1-2.6 1.7-.5-1-1.4-1.9-1.4-2.8v-12c0-1.5-.2-3 0-4.3.1-.8 1-1.4 1.5-2 .5.6 1.3 1.2 1.3 1.9v9.6c0 .6.3 1.2.4 1.8.3-.6.8-1.2 1-1.8.6-1.5.8-3.2 1.6-4.6.7-1.5 1-4 3.8-2.2zM719.4 792.7c3.4.1 7-2.5 7.4-5.2 0-.3-.4-1-.8-1.2-.6-.3-1.3 0-2-.1-.6-.1-1.3-.4-2-.7.7-.7 1.3-1.9 2-2.1 4-1 7.2 1.6 6.7 5.7-.4 2.5-1.2 5-2.1 7.4-.2.6-1.5.8-2.3 1.3-.1-.8-.4-1.5-.4-2.3 0-.4.4-1 .7-1.4-.6.1-1.3 0-1.7.4-2.3 2-4.7 3.4-7.7 1.4-.8-.5-1.8-1.2-1.8-2-.5-5.4-.3-10.8 2.8-15.6 1.6-2.5 7.2-2 8.6.7.2.2.2.8 0 .9-.3.3-1 .6-1.2.5-1.7-1.3-3.6-1.7-4.9 0-1 1.3-1 3.2-1.6 4.7-1 2.5-1.8 5 .3 7.6zM710.7 777.3c.8 3 1.4 5.7-.1 8.4-.4.7-.5 2 0 2.7 1.4 2.8 0 5.4-.2 8.1-.1.8-1.1 1.9-2 2.2-1.3.5-2.4-.4-2.8-1.8l-1.9-6.9v-1.9l-1.4-2.8c-.2.9-.5 1.7-.5 2.6-.1 1.9.1 3.8-.1 5.7-.2.9-1.3 2.2-2 2.1-1.3 0-2-1.2-1.8-2.7.6-3.9 1.4-7.8 1.9-11.7.2-1.6.7-2.7 2.4-2.8 1.7 0 2.3 1 2.5 2.7.5 3.6 1.2 7.2 2 10.8 0 .4.7.6 1 1 .3-.4.8-.7.8-1 0-1.6-.3-3.1-.3-4.7-.2-3.2-1.5-6.5.6-9.5.3-.4 1-.5 1.9-.5zM561.7 638.4c-.8 1.3-1.5 2.7-2.3 2.7-.8 0-2.1-1-2.5-2-1.6-3.9-2.8-8-3-12.2 0-.7-.4-1.3-.6-2-.6.6-1.3 1.1-1.6 1.8-.4 1-.6 2-.6 3v6.8c0 1.5-.6 2.7-1.9 2.8-2 .1-1-1.6-1-2.5v-9.6a5 5 0 011.1-2.9c2.9-3.2 5.3-2.8 6.5 1.2 1 2.8 1.3 5.9 2 8.8.2.4.7.8 1 1.2.3-.4.8-.8 1-1.2v-3c0-2-.2-4.1 0-6.2.2-1.3 1-2.7 1.5-4 1.5.9 1.4 2.3 1.4 3.8-.1 4.3.3 8.8-1 13.5zM585.8 567c.5 5-1 9.6 1 14 .1.5-1 1.5-1.4 2.3-.5-.6-1.4-1.1-1.4-1.7-.2-3.8 0-7.7-.1-11.5 0-.8-.3-1.5-.5-2.2-.4.7-.8 1.3-1 2l-1.4 6.2a31 31 0 01-1.4 4.3c-.3.7-1 1.3-1.4 2-.7-1-1.8-1.7-2-2.7-.5-2.8-.6-5.6-1-8.3 0-.5-.4-1-.6-1.4-.4.4-1.2.9-1.3 1.3v7.7c-.1 1.4-.7 2.7-1 4l-.4 1.3c-.5-.5-1-.8-1.3-1.3-.2-.2-.2-.6-.2-.9-.3-5.1.7-10.1 2-15 .1-.8.7-1.7 1.2-1.9 1-.3 2.5-1 2.6 1.3.2 3 .6 6.2 1 9.2 0 .7.5 1.3.8 1.9.4-.6.9-1 1-1.7 1-3.1 1.8-6.3 3-9.4.8-2.2 2.1-2.1 3.8.4zM712.6 713c1.1 0 2.8-1 2.7 1l-1.2 14-.8 4c-.4 2-2.4 2.8-3.8 1.5a7 7 0 01-2-3l-2.8-10.5-.4-1.3-.6 1.4c-.7 3.8-1.2 7.5-2 11.3-.2.9-1 1.7-1.5 2.6-.4-1-1.3-1.9-1.3-2.8 0-1.5.6-3 1-4.4.6-3 1-6 2-8.9.2-.9 1.5-2 2.3-2 .8 0 2 1.2 2.3 2.2 1.2 3.5 2 7.2 3 10.8.1.5.6.9 1 1.3.3-.4 1-1 .9-1.2-2-5.4 2-10.4 1.2-16zM690.2 607.5l-1.8-5.8c-2.5 1.4-.6 3.6-1.1 5.4-.5 2-.6 4-1 5.9-.2.5-1 1.2-1.4 1.2-.5 0-1.3-.6-1.4-1.2a4 4 0 010-2.3c1.2-4 .8-8 1-12.1 0-.6.5-1.2.9-1.7l.9 1.8.6 2c.2-.6.3-1.4.7-1.6 1.6-1 3 0 3.5 2.2l2 8.3c.2.7 1 1.2 1.4 1.7.2-.6.5-1.1.5-1.7V599c0-1 0-2 .2-2.8.2-.5.8-.9 1.4-1 .2-.1.6.5 1 .9l.3.3c-.4 6 1 12-1 17.9-.8 2.4-2.2 2.7-3.6.6s-2.1-4.6-3.1-7.4zM639 645.2c-.7-2-1.5-4.4-.8-6 .8-2 1-2.7-1.1-3.2 0 0-2-.8-.2-1.4 3.4-1.2 3.1-3.9 3-6.6 0-1.6-.3-2.5 2.3-1.6 2.7 1 6 .3 9 .5.4 0 .8.5 1.3.8-.4.4-.7 1-1.2 1-2 .4-4.3.5-6.3 1.1-.9.3-1.9 1.5-2 2.5-.5 2 1.3 1.1 2.2 1.3h2.9c.8.1 1.5.4 2.3.6-.8.5-1.5 1-2.4 1.3l-3.9 1c-.8.3-2 .9-2.1 1.5-.3 1.3.1 2.8.2 4.2l3-1.9c.6-.3.9-1 1.4-1.3 1.2-.5 3.3-1.6 3.5-1.3 1.5 1.9-.9 2.4-1.7 3.2-1.7 1.8-3.7 3.3-5.7 4.8-1.2 1-2.3.7-3.7-.5zM753 685.8c2.3 3 0 4.6-1.2 6.4l-2.4 3 3 2 .3.4 3 2.4c-1.7-.2-3.4 0-5-.6-1.9-.6-3.7-1.6-5.5-2.6-1.7-1-1.9-.2-2 1.2a21 21 0 01-.4 4.1c-.2.6-.9 1.1-1.3 1.6-.7-.6-2-1.4-2-1.9 1.2-4.5.8-9 1-13.5 0-.7 1-.8 1.8 0 1.5 1.1 2.4-.2 2.6-1 .8-2.4 3.3-2.2 4.9-3.4.5-.3 2 .9 3.1 1.9zm-6.8 4.3l-1 2c.6.1 1.5.6 1.8.4l4-3.7c.2-.3 0-1.4-.3-1.8-.3-.3-1.3-.5-1.7-.2a8 8 0 00-2.8 3.3zM619 778.2c1.8.3 3.4.3 5 .3l2.2.3c-.7.5-1.5 1.3-2.3 1.6-1.5.4-3 .4-4.5.8-.4.1-.5 1-.7 1.6.4.2.8.5 1.2.5 2 0 4.1 0 6.2.2.7.1 1.4.9 2.2 1.3-.8.5-1.5 1.3-2.3 1.3-1.8.3-3.6.3-5.3 0-2.7-.3-3.3.9-3 3.2v2l.5 1.7c.5-.3 1.2-.3 1.6-.7 2-2 4.6-2.4 7.3-2.2.4 0 .8.3 1.2.4l-.6 1.7-.7.7c-2.8 1.3-5.8 2.4-8.4 4-2 1.2-3.1 1.1-3.8-1.1-.4-1.5-1-3-.9-4.4 0-2.1.6-4.2 1-6.4.2-2.2.4-4.6 1-6.8.5-2 1.7-1.7 3 0zM617.5 604.8c-1.4-1.6.2-4.1-2.3-5l-.4 4.7v6.8c0 .6-.8 1.2-1.3 1.8-.5-.6-1.4-1.2-1.5-1.9-.2-1.6 0-3.2-.1-4.8-.1-1.3-.6-2.7-.7-4 0-1.2-.3-2.7.3-3.5.8-1.2 2.3-2 3.5-3 1 1.2 2.1 2.2 2.8 3.5 1 2.1 1.8 4.4 2.8 6.6.2.5.7 1 1.2 1.5.2-.6.9-1.4.7-1.9-1.7-4 .3-8 0-11.9 0-.2.7-.6 1-.6.4 0 1 .4 1 .7v5.3c-.3 1.4 2.4 2.7 0 4 2 2.7.4 5.3-.1 7.9-.2.7-1.2 1.7-2 1.8-.8.2-2.3-.3-2.6-.9-.9-2.2-1.4-4.5-2.3-7zM745.2 603.6c.2-4.4 2-6.3 5.8-6.7 2-.2 5 2 5.8 4.3.5 1.4.7 3 1.4 4.3 1.9 3.6-.6 8.8-4.6 10.4-1 .4-2.4 0-3.5-.3-.5 0-.9-.9-1-1.4 0-.3.9-.9 1.3-.9 3 .1 4-2.1 5.5-4.2 1.2-1.7.2-2.2-.9-2.5-1.3-.3-2.8 0-4.3 0-1.7-.1-2.5.8-2.6 2.5-.1 1.3-1.2 3-.7 3.8 1 1.3-.1 1.5-.5 2.1-.6-.6-1.6-1.1-1.6-1.7-.2-3 0-6.1 0-9.7zm5.3-3.8c-.7 0-2 0-2.1.3-.2 1.4-.2 2.8-.1 4.1l.6.1c1.2-.2 2.6-.1 3.5-.8.8-.6 1-2 1.5-3-.8-.2-1.6-.5-3.4-.7zM684.1 584c-1.4 1-3.2 2.4-3.6 2.1-1.6-1.1-3.6-2.8-3.7-4.4-.3-5.3.4-10.7 3.7-15.2 1.7-2.2 4-2 4.8.2.1.6 1 3.2-1.6 1.3-.2-.1-1.8 1-2.2 1.8-2.1 5.2-2.1 6-1 11.4l.5 1.2c.5-.2 1.2-.3 1.6-.7a88 88 0 004-4.2c.2-.2.3-.7.2-.8-.4-.3-1-.8-1.3-.7-1.1.7-2.7 1.3-3-.3-.2-1.7 1.5-2 3-2 4.3-.2 5.7 1.4 4.6 5.4-.5 1.7-1.1 3.4-2 5-.3.8-1.2 1.4-2 2.2l-.8-2.4-.3-.3c-.2 0-.4.1-.9.5zM732.7 540.9c.5-3.4.5-3.4 3-2.3a5 5 0 002.8.3c2-.5 4-1.3 6-1.6.8-.2 1.6.5 2.4.9-.6.5-1 1.5-1.7 1.6-1.9.5-3.9.7-5.8 1l-3 1c-.3.2-.6.6-.8 1 .4.3.8 1 1.2.9 1.8 0 3.7-.4 5.5-.4.6 0 1.2.5 1.8.7-.4.5-.6 1.2-1 1.4l-4.3 1.3c-1.1.4-2.8.7-3.1 1.5-.5 1.4-.1 3.2-.1 4.8.7 0 1.5.1 2-.2 1.6-1.1 3-2.6 4.7-3.7.7-.4 1.7-.2 2.6-.3-.3.5-.6 1.2-1.1 1.7-2.1 2.1-4.2 4.4-6.4 6.4-1.7 1.4-3.7 0-4.5-1-1-1.4-1.6-3.8-1-5.2 1.2-3.2.5-6.3.8-9.8zM588 796.1l-1 1.7c-.1 0-1-.3-1.1-.6v-3.8c-.3-3.1.5-6.2-1-9.3-.4-1 .4-2.7.8-4 .1-.3 1-.4 1.6-.6 0 .5.3 1 .2 1.6 0 .7-.5 1.4-.7 2l.3 1c.3-.2.8-.3 1-.6l1.6-4.1c.9-1.5 1.8-3.4 3.9-2.8 1.8.6 2.9 2 3 4.3 0 2.8-.6 5-2.9 6.6-.9.7-1.2.8.3 1.9 2.4 1.8 5 2.5 7.7 3.6.6.2 1 .8 1.5 1.2-.5.2-1 .6-1.5.7-3 .7-5.6-1.1-8.1-2.4-1-.5-1.9-1-2.7-1.7-1.4-1.1-2.2-1.2-2.2 1 0 1.3-.3 2.7-.7 4.3zm3.1-9.9c1-.6 2.3-1 2.6-1.7.6-1.4.6-3 .8-4.5 0-.1-1-.6-1.1-.5-1 1-2 1.9-2.7 3-.5 1-.4 2.5.4 3.7zM538.5 723.4c-.2 1.4-.3 2.4-.7 3-.8 1.4-2 1.1-2.6 0-.7-1.4-1.3-2.8-1.5-4.2-.5-3.2-.7-6.5-1-9.7 0-.5-.2-1 0-1.4.4-.8 1-1.4 1.6-2 .4.6 1.2 1.2 1.2 1.8.2 2.3.1 4.5.1 6.8v3.3c.2.5 1 1 1.4 1.4l.5-1.6c.5-1.7.8-3.5 1.6-5 .7-1.6 2.7-1.3 3.2.4.5 1.4.7 2.9 1 4.4l.7 1.6c.4-.6 1.1-1.2 1.2-1.9.5-2.5.6-5.2 1.1-7.7.2-.7 1.3-1.2 2-1.7.2.7 1 1.6.8 2.2-.9 4-2 7.9-2.8 11.9-.4 1.6-1.3 2.5-2.9 2.3-1.8-.3-2.1-1.6-2-3.2v-2l-1.2-3.3c-.2 1-.4 2.1-.8 3-.1.5-.6.8-.9 1.6zM721.3 714c.7-.1 1.5 0 1.5.1 0 2.5-.2 5-.3 7.4l.2 2c.5-.3 1.2-.5 1.6-.9 1.8-2 3.5-4.3 5.4-6.3.7-.7 1.8-1 2.7-1.4-.2 1 0 2.2-.5 3l-6.1 7-.7 1.1 1.3.3h5.3c1 0 2 0 2.8.4 1 .5 2 1.3 3 2-1 .2-2.1.5-3.2.5h-10.1c-1.6 0-2.5.2-2.2 2 .1.5.2 1 0 1.4-.4.6-.9 1.3-1.4 1.3-.4 0-1.2-.7-1.3-1.2-.2-1.2-.5-2.7 0-3.8 1.2-3.3.6-6.8.8-10.2.1-1.5.6-3 1.2-4.7zM569.2 717.4c-.4 1-1 2-.7 2.4 1.8 2.8-.4 5.6 0 8.4 0 .3-.5.7-.7 1-.4-.3-1-.5-1.3-1-1.5-1.8-1-4.1-1-6.2.1-1.7 0-2.9-2.2-2.4h-.4c-4.1-.1-4.1-.1-4.1 3.9v5.2c-.1.5-1 1-1.4 1.4l-.6-1.5c-.4-.8-.9-1.6-.9-2.5v-12c0-.9.4-1.8.8-2.5.3-.4 1-.5 1.6-.7l.5 1.2v.5c.2 1.4 0 3.7.6 3.9 1.6.5 3.5.2 5.2.1.4 0 .7-.8 1-1.2.5-1.2.9-2.5 1.6-3.7.2-.4 1-.6 1.5-.8.2.5.7 1 .7 1.4 0 1.6 0 3.2-.2 5zM614 517l1.9-2.2c.3.6.8 1.2.8 1.8a514 514 0 01-1 14.5c0 1.2-1.8 1.7-2.7.6-1-1.2-1.6-2.6-2-4-.5-2.2-.7-4.6-1-6.8-.1-.5-.6-.9-1-1.3-.3.4-.9.8-.9 1.2-.1 2 .1 3.9-.1 5.8-.2 1.6-.8 3.2-1.5 4.6-.6 1.2-1.4 1.3-1.4-.4 0-.4-1-1-.9-1 2.4-4-.5-8.8 1.9-12.8.4-.7-.6-2.5 1.4-2.2 1.5.2 3 .6 3.4 2.2.6 1.7.8 3.5 1.3 5.2.1.5.9.8 1.3 1.1l.3-1.3c0-1.6 0-3.2.3-5zM714 685c4 2.3 3.9 6.2 3 9.1-.8 2.4-3.6 4.2-5.6 6.1a6.3 6.3 0 01-6.4 1.9c-.9-.3-2.1-1.5-2.2-2.3-.2-4.2-.3-8.4 0-12.6.2-1.2 2-3 3.2-3.2 2.6-.3 5.2.5 8 1zm-2.1 11.4l1-1c3.2-3.8 2.6-7.1-1.6-9.3-3-1.6-5.6 0-5.7 3.3v3.9l.5 7 5.8-4zM738.5 667.4c-.6 4.8-1.1 9.2-3 13.3-.2.4-.6.8-1 1.2-.2-.4-.5-.9-.9-1.3-1.6-2-1.3-4.2-.6-6.2 1.1-3.1.9-5.5-1.7-8-1.5-1.5-2.4-3.7-3.4-5.8-.2-.4.4-1.2.6-1.9.8.3 1.8.5 2.2 1 1 1.5 1.5 3.2 2.5 4.8.4.7 1.3 1.2 2 1.8.1-.7.1-1.5.4-2.2.7-1.8 1.3-3.7 2.4-5.3.5-.7 1.9-.7 2.8-1 .2.8.6 1.8.3 2.5-.7 2.3-1.7 4.4-2.6 7.1zM690.4 631c.9-3.7 1-3.5 3.2-5.3 1.2-1 1.8-.3 2 .4.9 2.7 1.6 5.4 2.3 8.2v1.4c0 2 4.4 1.6 2.4 3.2-1.9 1.5-1 2.9-1.5 4.3 0 .4-.4.9-.7 1-.3 0-1-.2-1.1-.5-.5-.8-.7-1.6-1-2.5-1-2.3-3.2-2.5-4.7-.5-.4.5-.4 1.3-.8 1.6-.6.6-1.5 1-2.3 1.4-.3-1-.7-2-.8-3-.1-1.3-.3-2.7.1-3.9.5-1.2 1.6-2.2 2.3-3.4.3-.6.2-1.5.6-2.5zm2.7 1.1c-.3.9-.3 1.9-.7 2.6-1 1.5.5 1.9 1 2.6.2.2 1.3 0 1.3 0l-.4-6.6c-.4.1-.8.3-1.2 1.4zM722 691.5c0-2-.3-3.7 1.4-4.7l1.4-.8-.4 1.7-.2 1.6c.4-.2 1-.4 1.3-.8.8-1.2 1.1-3.5 3-2.6 1.4.5 2.9 2.2 3 3.5.7 4.1.9 8.4 1.1 12.6 0 .3-.3.7-.5 1-.3-.3-.8-.5-1-1-.7-1.4-.1-3.7-3-3.8-4 0-4.9.1-6 4.2-.3 1.5-.8 2-2 1.6-.5-.2-1-1.5-.9-2 .6-2.6 1.4-5 2.2-7.4l.6-3zm7.8-2.4c-2.3.2-5.5 3.9-4.8 5.7 0 .2.3.5.5.6a3 3 0 004.2-2.4c.2-1 0-2 0-3.9zM714.3 657.7c2.3-.2 4.2-.6 6-.6.9 0 1.8.7 2.6 1-.3.7-.4 1.5-.9 2-1.4 1.9-2.9 3.7-4.4 5.4-.7.9-1.5 1.6-2.3 2.4 1.4.2 2.8.6 4.1.4 2.2-.4 4.3-1.8 6.5 0l.8.7-.8.3c-4.4 1.5-8.7 3.4-13.3 4-2.3.2-2.4-1.1-2.1-2.6.3-1.2 1-2.4 1.7-3.6.4-.6 1.1-1.1 1.7-1.7l4.1-4.4-6-.4c-.5 0-1.1.2-1.5 0-.4-.2-1-.8-1-1.1.1-.6.5-1.6 1-1.7 1-.2 2.2 0 3.8 0zM649.8 547.9c.4-2 .6-3.7.7-5.4.1-1.3-.5-3.1 2-2.7.5.1 1.1-.6 1.5-1 1-1.1 1.9-1.2 2.7 0l3.5 5.3 1.2 1.6c.2-.7.7-1.3.7-2 0-2.3-.2-4.6 1.4-6.6l1-1c.2.3.5.7.5 1.1-.3 4.2-.5 8.4-1 12.6 0 .6-1 1.5-1.6 1.6-.5 0-1.5-.5-1.8-1.1-1.5-2.6-2.8-5.3-4.2-8l-.7-1.3c-.4.5-1.1.9-1.2 1.4-.5 2-.7 4.2-1 6.3a52 52 0 01-1.2 5.3c-.2.5-1 1.2-1.3 1.2-.6-.1-1.3-.8-1.3-1.3-.2-2-.1-3.9.1-6zM574 776.3c2.2-1.6 3 .2 3 1.4 0 6.2 1.9 12 3 18v2c0 .3-.3.7-.5 1-.5-.2-1.2-.4-1.4-.8-.6-1.3-1.2-2.7-1.6-4.1-.4-1.4-1-2-2.6-1.9-1.7 0-1.5 1-1.6 2.1-.1 1-.5 2-1 3-.4.8-1.2 1.6-1.8 2.4-.3-1.1-1-2.3-1-3.4 0-1 .6-2 .9-3l4.6-16.7zm1.2 6.5v-.4l-1-.5-.9 4c-.1 1.2 0 2.5.1 3.8h.6c.8-1.2 1.6-2.5 2.1-4 .2-.4-.6-1.2-.9-2.9zM638 596c4 2.7 6 6 4.9 10.8-.4 1.6.4 3.6-1.6 4.6-2 1-4.3 2-6.5 2.8-.8.3-1.9 0-2.8 0-3.6 0-3.7-.5-3-4 .5-2.7.3-5.4.3-8.1 0-5.1 1-6.1 6.3-6.2h2.4zm-6.8 14.9c1 .1 2.2.5 3.2.4 2.5-.1 6.2-3.2 6.5-5.2.3-2.6-1.6-5.9-4.3-7.3-2.7-1.3-5.2 0-5.3 3v9zM546.2 661.6c2.6 1.6 5.2 2.7 7.8 3.9.6.3 1 1.1 1.6 1.7-.7.3-1.8 1.2-2.2.9-2.4-1.4-5.6-.2-7.7-2.5-.6-.6-2.7-.7-2.4 1.6.1.6.2 1.3 0 1.9l-1.5 3c-.5-1-1.3-2.1-1.3-3.2a310 310 0 010-15.4c0-.8.8-1.6 1.2-2.4.6.8 1.4 1.6 1.6 2.5.3 2 .3 4 .5 6 1.4-1 2.8-2.3 4.4-3.3 1-.6 2-1 3.2-1.4.4-.1 1 .3 1.6.5-.3.5-.5 1-.9 1.4-2 1.4-3.9 2.9-5.9 4.8zM781.7 709.2c-.4-1-2-.9-1.2-2.4.8-1.3.5-3.5 1.5-4.6 2.8-3.3.4-5-1.7-7-2.8-2.7-3.5-5.2-2.2-7.4.2-.4.7-.7 1.1-1 .3.4.6.8.8 1.4.4 1 .4 2.4 1 3.4 1 1.4 2.3 2.5 3.4 3.7l2.4-4.3c.8-1.6.7-4 3.4-4.3.1 1.7.8 3.6.3 5.1-2 5.8-4.4 11.4-6.6 17-.5 1.5-1 1.3-2.2.4zM567.5 668.4c-.3 1-.5 1.5-.8 1.9-.1 0-1-.3-1.1-.6-.2-.4 0-1 0-1.4.3-3.6.4-7.2 1-10.7.3-1.4 1.4-2.7 2.4-3.8 1.5-1.5 2.8-1.3 3.6.9.8 2.1 1.1 4.4 1.6 6.5l.5 1.3c.4-.4 1-.7 1.3-1.3.9-1.9-1-3.9.1-5.9.3-.5-.1-1.3.1-1.9.2-.5.9-.9 1.3-1.3.5.5 1.2 1 1.5 1.5.3.4.3 1.1 0 1.4-1.6 2.3-.6 5-.9 7.4 0 1 .3 2 0 2.8-.7 1.6-.9 4.2-3 4-1.1-.2-2.3-2.5-2.7-4-.6-2.6-.7-5.4-1-8.2-.2-.4-.7-.8-1-1.2-.4.4-.9.8-1 1.3a317 317 0 00-2 11.3zM609 718.6h3c1.2.1 2-.1 2-1.7-.1-.8.4-1.7.8-2.5.2-.3.8-.6 1.1-.6.3 0 .8.6.8.9V731c0 .3-.4.7-.6 1-.4-.3-1.2-.5-1.2-1-.5-1.9-.9-3.8-1-5.8-.1-1.8.1-3.6-2.4-3.8-2.4-.2-4.4 1.5-4.4 3.6v1.5c0 1.4 0 3.3-1.6 3.3-1.1 0-1.4-1.7-1.3-3.1.2-4.7-.7-9.5 1-14 .1-.4.5-.7.8-1 .3.4 1 .7 1 1.1.1 2-.2 4 .2 5.8.3 1.9.8-.1 1.8-.1zM583.7 591.8c1 .8 1.4 3.2 1.1 4.7l-1.9 11.2c-.6 3.3-1.4 6.6-1.8 9.9-.2 1.3-.6 1.5-1.8 1.5-1.6 0-1.2-1-1.2-2 .1-1 .5-2 .7-3 .4-3 1.5-6-1.9-8.4-1.3-1-2-3-2.6-4.7-.6-1.8-.5-4-1.3-5.7-.4-1-.5-1.5.3-1.7.5 0 1.6.5 1.8 1 1 2.3 1.7 4.8 2.6 7.2.2.5.3 1.2.7 1.6.5.5 1.2.8 1.9 1.2.2-.6.6-1.3.7-2l1-8.7c.1-.7 1-1.2 1.7-2zM563.6 683.8l-1 14c0 .9-.9 1.6-1.3 2.4-.5-.8-1.3-1.5-1.3-2.2-.1-2.2-.2-4.4.4-6.5.5-1.6.3-1.9-1.2-1.9-2.7 0-4.6 1.5-5.2 4.4-.2 1 0 2 0 2.9l-.8 2.4c-.7-.9-2.2-2.2-2-2.6 1.8-3.6-.3-7.5 1.4-11.1.6-1.5.4-3.4.3-5.1 0-1.5.7-1.6 1.8-1.5 2.3.2.2 1 .2 1.6v3.8c0 1.6.3 3.2 2 3.2 1.6 0 3.7 0 3.9-2.7 0-1 .5-2.2 1.2-2.7 1-.8 1.7-.2 1.6 1.6zM687.5 780.7c3.1-2.8 3.9-2.7 4.6.7l2.9 14.8c.1 1 0 2.2-.3 3.2 0 .5-.8.8-1.3 1.2l-.3-1.3-1-5c-.5-1.4-.4-3.4-2.8-3.3-2 0-4-.2-4 2.8 0 1-.7 2-1.2 2.8-.3.5-1 .7-1.4 1l-.3-1.3c-.2-4 1.3-7.5 2.5-11 .5-1.6 1.6-3 2.6-4.6zm1.2 7.4c2.3.2 1.3-1.6 1.4-2.6 0-1-.2-2-.4-3.1l-1.2.2c.2 2-2.3 3.5.2 5.5zM581.7 745c-.3 2.6 1.6 3.3 3.2 4.2.4.2 1.7 1.2 0 1.2-3.4 0-1.8 2.2-1.7 3.6 0 1.2.6 2.4.6 3.5 0 .5-.9 1.2-1.5 1.4-.2.1-1.1-.7-1.2-1.3-.2-.9-.1-1.9 0-2.8 0-1.7-.4-3-2.4-3.4-2-.5-2.7 1.1-3.2 2.3-.6 1.3-.3 3.4-2.3 3.3-.4 0-1.2-3-.8-4.4 1.1-3.8 2.6-7.4 3-11.3 0-.5.3-2.6 2.6-2.6 2.2 0 2.1 1.6 2.7 2.5.7.9.6 2.3 1 3.7zm-4 3.5c.4-.2 1.3-.4 1.3-.7V743c0-.4-.5-.8-.8-1.2-.4.4-1 .7-1 1.2a10 10 0 00.4 5.5zM811.1 576.8c-1.8 3.2-3.7 5.7-7.5 5.6-2.9 0-3.3-1.3-3.5-4.4 0-3.3 1.1-6 2.1-8.9.9-2.4 5.8-5.1 7.9-4 1.2.6 2.3 2.1 2.6 3.5.7 2.7-.3 5.4-1.6 8.2zm-7.4 2.7c4.3-2.1 6.8-5.3 6.2-10.3 0-.8-.6-1.5-.9-2.3-.9.5-2.4.7-2.7 1.4-1.6 3.4-4 6.6-2.6 11.2zM745 521.3c-1.2.2-2.2.2-3.2.2-3.4 0-3.3 0-3.4 3.7 0 2.3.7 1.9 2.1 1.2 2.5-1.2 5-2.1 7.4-3.2l1-.4c0 .5.2 1.1 0 1.3-3.5 2.8-6.8 5.8-11.9 5.2-1.3-.1-1.4-.6-1.5-1.7-.4-3.9 1-8-.8-11.7-.1-.3 1.3-2 2-2 4.2-.2 8.4-.1 12.5 0 .3 0 .6.2.8.4l-.7.5c-1.6.3-3.2.7-4.9.9-1.6.2-3.2-.2-4.8.1-.8.2-2 1.5-2 2 .2 1 .8 2.3 2.7 1.5 1.5-.6 3.4-.6 5-.6.6 0 1.3.5 1.9.8l-2.2 1.8zM638 778.5c-.3 4.4.7 8.3-1 12.2-.3.8 0 1.9 0 2.8.1.5.6 1 .9 1.4l1-1.1c2.3-1.8 4.6-3.6 7-5.2.6-.4 1.7-.4 2.6-.4.4 0 1 .3 1 .6.1.4 0 1-.4 1.2-3.1 2.6-6.1 5.2-9.5 7.4-1.1.8-2.6 2.4-4.5 1-1.8-1.4-2.4-3.2-1.9-5 1.2-4.4 2.1-8.8 2-13.3-.1-1.9.7-3 2.8-1.6zM581.2 694.7c-1.2 1.2-2.3 2.2-3.2 3.3-1.6 2-3.8 1.9-5.5.8a4.8 4.8 0 01-2-5.3 97 97 0 013.8-10c.7-1.5 4-2.4 5.9-1.5 1.5.7 2.8 1.7 2.8 3.9 0 3-.3 5.8-1.8 8.8zm-.7-9c-1.4-1.3-3-1.6-4.3 0-2.2 2.6-2.2 6-1.9 9.2 0 .4.8 2.1 2.4.6 2.6-2.6 4-5.7 3.8-9.8zM679.5 718.6c1-.4 1.7-.7 2-1.3.3-.8.2-1.8.6-2.6.2-.4 1-.6 1.5-1 .2.5.7 1 .7 1.5a695 695 0 01-1 16c0 .5-.6 1-.9 1.5l-.4 1.3c-.4-.4-1.2-.8-1.3-1.3-.2-1.2-.2-2.5-.2-3.7v-3.4c0-4.3 0-4.2-4.4-4.2-2.4 0-3.4 1-3.4 3.4v8.2c0 .4-.7.7-1 1-.3-.3-.8-.6-.8-.9v-16.4c0-.6.8-1.2 1.3-1.9l.6 1.5c.2 1 0 2.8.5 3 1 .6 2.5.4 3.7.2.7 0 1.4-.6 2.5-1zM761.6 514.8c-1.3.5-2.4 1-3 1.7-1.3 1.4-1.7 2.4.7 3.4a25 25 0 016.8 4.7c2.4 2.2 1.7 3.4-1.2 5-3 1.6-5.4 0-7.9-.7-1.5-.4-3-1.5-4.3-2.4-.5-.2-1-.6-1.3-1 .7-.2 1.6-.9 2.3-.7 2.3.5 4.5 1.3 6.9 1.9 1.2.3 2.6.2 3.9.2-1-.8-2-1.7-3.2-2.4-1.6-1.1-3.4-2-5-3-2.2-1.5-2.4-4-.6-6 1.1-1.2 2.6-2.2 4-3 .6-.5 1.6-.8 2.2-.6 1.2.7 2.3 1.7 3.5 2.5l-3.8.4zM702 672c-.3-1.8.2-4-1.6-4.3-1.7-.3-2.7 1.7-3.5 3.3v.5l-1.5 3.5c-1.7-1-1.6-2.7-1.3-4.2.8-4 1.9-7.8 2.8-11.8.4-1.6 1.2-2.3 3-2.3 1.6 0 2.4.7 2.8 2.3 1 3.7 2.4 7.3 2 11.2-.1 1-.2 2.2.3 2.7 1 1 0 1.4-.4 1.7-.2.2-1-.1-1.3-.4-.5-.6-.7-1.3-1.3-2.2zm-1.7-6.5v-5.8l-.3.3c-1.8 1.6-1.3 3.5.3 5.5zM689.4 761.8c-1.8-1.7-2.7-3.7-2-5.6 1.1-3.7 1-7.9 4.3-10.7 2.5-2 7.3-.8 8.1 2.2 1.3 4.4-1.4 11.8-5.2 14.3a4.2 4.2 0 01-5.2-.2zm2.2-1.7c4.2-1.9 5.2-5.9 6.2-9.8.2-.7-.7-2.4-1.4-2.6-1-.3-2.6 0-3.5.6-2.1 1.6-3 8.5-1.3 11.8zM617 569.1c1.1-1.5 2-2.8 3-3.9.2-.2 1.3.3 2 .7 0 .1 0 1-.2 1.3a18.6 18.6 0 00-4.8 8.6c-.4 1.3-.2 2 1 1.7a21 21 0 004-1c.6-.1 1-.7 1.5-1.1l-1.5-.7-1.3-.4c.3-.3.5-1 .8-1 1.8-.2 3.7-.4 5.5-.3.5 0 1.1 1 1.3 1.7 1 3.7-1.3 6.8-2 10.2-.1.2-1 .3-1.3.4-.2-.7-1.9-.6-1-2 1-1.6 1.5-3.3 2.1-5 .2-.4.2-.9.2-1.3-.4.2-1 .3-1.3.6-1.4.9-2.8 1.8-4.1 2.9-1.9 1.4-4 1.4-5.4-.1a5 5 0 01-.8-5.2l2.3-6zM677.6 669.3l1-10.2c.1-1.3 3.6-4 5.3-4.3 2-.2 3.7 1.2 4.3 3.4.4 1.5-1 4.3-2.8 5.3-.5.3-1 .8-1.5 1l-2.3.3 2 1.4 5.4 2.2 3 1.5c-1.1.1-2.2.6-3.2.3-2-.4-4.2-.9-5.9-2-2-1.3-2.5-1.3-2.4 1v1c-.3 1.1 1 3.3-1.7 3-2.6-.3-.5-2.4-1.2-3.9zm6.3-12.5c-.8 1-2 1.8-2.3 2.9-.2.7.8 1.8 1.2 2.8.8-.7 2.2-1.3 2.4-2.1.3-1-.2-2.4-1.3-3.6zM730.7 571.8c1.9-1 2-2.3 2-3.8.1-.6 1-1.2 1.6-1.9.4.6 1.2 1.3 1.2 1.9 0 2.6-.4 5.2-.6 7.9l-.3 4.2c-.1.8-.4 1.8-.8 2.5-.2.4-1 .6-1.6.7 0 0-.5-.7-.5-1.1 0-2.1 0-4.2.2-6.2 0-.6 1.4-1.2-.3-1.3-1.7-.1-3.5-.3-5.2 0-1 .3-2 1.4-2.3 2.3-.6 2-.7 4.2-1.1 6.3 0 .4-.4 1-.7 1-.4 0-1.2-.3-1.2-.5 0-5.2.2-10.4 2.7-15.2h1.1c-.8 4.2 2.3 3 4.4 3.2h1.4zM670.6 570c.4 5.8-2.8 9.6-6.6 12.8-2.2 2-5 .4-5.8-2.5-1.2-5 1.4-8.8 3.8-12.5.7-1 3.5-.6 5.3-.9 2.2-.2 2.3 1.7 3.3 3.2zm-7.5 10c2.5-1.9 3.4-4.6 4.5-7.3.9-2.3-1.3-2.5-2-3.6 0-.1-2 .5-2.2 1-.9 3-1.5 6-2.1 9.1-.1.3.8.8 1.8.8zM626.2 746.8c-1-1.1-2-2-2.7-3-.6-1.2-2-2.6.1-3.4.5-.3 1.7.8 2.3 1.5 1.2 1.2 2 2.7 3.2 4 1.2 1.2 2 1.2 2.2-1 .2-1.5 1.1-3 2-4.4.3-.7 1.3-1.1 2-1.6.3 1 .9 2 .7 2.9-.5 2.2-1.4 4.2-2 6.4l-2.8 10.4c-.2.8-.7 1.8-1.3 2.3-1 .8-2.6 0-2.5-1.3.2-1.8.6-3.6 1-5.4.5-2.7.8-5.3-2.2-7.4zM611 566c2 3.2-.4 6.2-.4 9.4 0 1.5-1.2 3-1.5 4.6-.4 2.3-1.7 1.8-2.3.5-1.7-3.3-4-6.3-4.6-10.1 0-.5-.4-1-.6-1.5-.4.4-1.1.9-1.2 1.4-.8 3.1-1.3 6.2-2 9.3l-.9 1.8c-.7-.7-2-1.5-1.9-2.2.4-3 1-6.3 2-9.2.4-1.5 2-2.8 3.2-3.9.5-.3 2.1-1 2.5 1 .4 2.2 1.3 4.3 2.1 6.3l1 2 1.4 1A65.2 65.2 0 01611 566zM771 607.3c-1 1.8-1.6 3.6-2.7 5-.9 1-2.4 2.6-3.5 2.5-1.2-.2-2.7-1-3.3-3.2-1.4-4.3-.4-8.5-.8-12.7 0-.3.3-.9.6-1.1.4-.4 1-.6 1.5-1 .3.6.7 1 .7 1.5l.1 8.7c.2 1.8.9 3.5 1.3 5.2l2.5-5c1.5-3.2 2.4-6.6 2-10.2 0-.3 1-1 1.6-1 .4 0 1.2.5 1.2.8 0 3.4.7 7-1.1 10.5zM615.8 548.6c-1.3.6-2.7 1-2.8 1.8-.2 1 .4 2.3 1 3.4 0 .3 1.2.3 1.8 0 1.5-.6 2.8-1.6 4.3-2.3.3-.1.9.2 1.3.3-.2.3-.4.8-.7 1-1.6 1.2-3 2.5-4.8 3.5-2.6 1.4-5.4 0-5.9-2.8a35 35 0 011-11.1c.3-1 1.9-2.5 2-2.4 3.3 1.9 6.7.4 9.9.9.5 0 1 .3 1.5.5l-1.7.7-7 1.6c-.4.1-1.2-.1-1.4.1l-1.4 2.3c.7.2 1.4.6 2.1.5 1.7-.2 3.3-.7 5-.9.4 0 1 .3 1.5.5-.3.3-.6.8-1 1-1.4.5-2.8 1-4.7 1.4zM661.2 672.2c0-3.9-.4-7.4 1-10.7.3-1 .4-2 1-3 .8-1.4 1.7-3 3.9-2.7 1.2.2 3.7 3.7 3.7 5 0 .3-.2.7-.4.7-.4 0-1 0-1.3-.2-.5-.7-.8-1.9-1.4-2.3-1-.5-2.5-1.2-2.7 1-.2 3.8-.8 7.5-.9 11.3 0 2.7 1.5 3.7 3.9 2.2 2.2-1.4 4.1-3.4 6.1-5 .4-.4 1-.5 1.4-.8 0 .5.3 1 .1 1.4-1 3.4-4.8 7.4-8.2 8-3.1.4-4.7-.7-6.2-4.9zM635.1 528.3c-2.1-.3-3.7-.8-5.4-1-2.1 0-5.2-1-4.3 3.3 0 .4-.8 1-1.2 1.4-.4-.6-1-1-1-1.6-.3-2.8-3.1-5.3 0-8.5 1.2-1 .2-4.2.3-6.5 0-.5.4-1 .6-1.5.4.4 1.2.9 1.3 1.4.2 1.4 0 2.8 0 4.3 0 .3.3.5.4.8.3-.2.8-.4 1-.7.6-1.7 1-3.6 2.7-4.6.6-.4 1.5-.2 2.3-.3-.2.7-.3 1.3-.6 1.9l-1 2c-.8 1.5-2.7 3.2-2.4 4.4.6 2.3 3.4.7 5 1.5 1.5.7 2.7 2 4 3-.4.2-.8.5-1.7.7zM607.3 638.7c-.8 1.3-1.1 3-2 3.5-1.4.7-3.4 1.1-4.7.6-1.5-.5-2.3-2-2.3-4.2 0-3.5 0-7 2-10.1 1-1.6 2.3-3.1 4.6-2.6 1.5.3 4 2.9 4 4.5.2 2.8.6 5.6-1.6 8.3zm-1.2-5.6c.5-1.6 1-3.5-.9-4.2-1.7-.6-2.8.5-3 2.5-.1 2.6-.7 5.2-.9 7.7 0 1.4.8 1.7 1.8.9a7.8 7.8 0 003-6.9zM705.6 763c-1.3-.2-2.8-.4-2.8-.7-.4-5.6.4-11 2.8-16.1.3-.6.8-1 1.4-1.4.3-.1.8 0 1.2.1.2 0 .3.6.3.8l-2.7 11.9c-.2.8.2 1.7.4 2.5l1.9-1c2.3-2 4.5-4 6.8-5.8.6-.5 1.6-.7 2.5-.9.5 0 1.1.3 1.7.4-.3.4-.6.8-1 1-3 2.9-6.2 5.8-9.4 8.5-.6.5-1.7.5-3 .7zM596.5 658.7c1.1 1.4 1.2 2.4.6 3.8-1.8 3.9-5.2 5.9-8.8 7.6-1.4.8-4.8-3.1-4.4-5 .4-1.5 1.1-3 1.5-4.6.3-.8.3-1.8 0-2.6-.1-.7-.7-1.3-1-2 1-.7 2.2-1.9 3.4-1.9 1.9 0 3.9.5 5.6 1.3 1.2.6 2 2 3 3.4zm-9.2 8.7c1.9-1.2 3.8-2.4 5.6-3.8.8-.6 1.3-1.7 1.6-2.7.6-1.7-1.5-3.9-4-4.1-2-.2-2.7.9-2.8 2.8-.1 2.5-.6 4.9-.4 7.8zM766.5 721.5V717c0-2.8 1.5-4.3 4.3-4.3.8 0 2.2.3 2.3.7.4 1.6-1 1-1.8 1.3-2 .9-2.5 4-1.3 6.8 1 2.5 2 5 3.5 7.3 1 1.5 1.1 2.9.1 4.2-1.3 1.8-2.7.8-4 0-1-.6-2.1-1.2-3.2-1.5-2.2-.6-3.8-2.5-3.2-4 .4-1 3-.4 4.4 1.1.4.5 1.6.2 2.5.3l-.7-2c-1-1.7-2-3.3-3-5.5zM747 637.7c1.5 1.6 3 2.8 4.2 4.4.6.9 1 2.5.6 3.4-.3.8-1.8 1.4-3 1.6-3.7.6-6.6-1-8.9-3.9-.3-.4-.2-1-.3-1.6l1.7.1 5.2 2.3c.5.2 1-.2 1.6-.3-.1-.5-.1-1-.4-1.3-1.4-1.5-3-2.8-4.3-4.4-.6-.8-1-2-1-2.9.2-4 5.7-8.1 9.7-7.3.3 0 .6.5.8.8-.3.4-.7 1-1 1-2.9.1-4.9 1.1-6.2 3.8-1 2-.3 3 1.2 4.3zM655.6 759c-.4-5.1 0-9.7 2.5-14.1 1.5-2.7 3.2-2.3 5-2 2 .1 2.2 2 1.9 3.6-.2 1.3 1.1 3.2-1.1 4l-.8-3.9-.7-2c-.5.4-1.1.5-1.6 1a7 7 0 00-2.5 5.6v6.3c-.1 1.5 0 3.2 1.5 3.5 1.6.3 3.5.8 4.9-1a43 43 0 014.4-4.4c.3-.2 1 0 1.6 0 0 .5.1 1.1-.1 1.4-2 2-3.9 4.3-6.2 6-3.1 2.3-5.4 1.3-8-3a8 8 0 00-.8-1zM607 600.7c.5 1.3 1 2.1 1.5 2.8.4.7 1.3 1.2 1.4 1.8.5 2.8.8 5.5 1 8.3 0 .5-.3 1-.5 1.6-.5-.5-1.1-.9-1.3-1.4-.5-1.3-.6-2.6-1-4-1-2.6-2.2-3.3-4.9-3.3-2 0-2.9.8-3 2.8 0 .7-.6 1.4-1 2-.3-.7-.9-1.6-.7-2.3.8-4.3 1.8-8.5 3-12.7.2-.6 1.5-1.2 2.3-1.2.5 0 1.2.9 1.6 1.5l1.7 4.1zm-4.7-.4l-.4 3.2.2 1c1.8.4 3.2-.9 2.9-2.5l-.8-3c-.1-.4-.4-.7-.6-1-.4.4-.9.8-1.3 2.3zM614.8 660.6c1.8-3.8 4-6.3 8.3-5.7.8.1 2.2 1.1 2.2 1.8.4 4.1.4 8.4-2.5 11.8-1.3 1.5-2.5 3.4-5 2.8-1.7-.5-4-3.5-3.9-5.8 0-1.5.6-3 1-4.9zm2 4.4c.6 1-1.5 3 1.1 3.3 1.9.3 3.3 0 3.8-2.4.2-1.4 1.3-2.6 1.8-4 .6-1.9-1-3-2.1-3.8-1.6-1.2-2.4.6-3 1.4-.8 1.3-1.1 3-1.7 5.5zM599.1 727c-2.4 2.4-4.4 4.1-7.9 2.4-3.5-1.7-4.4-4.3-4.4-7.8-.1-3.7 0-7.1 3.3-9.7 1-1 2-1.5 3.3-.7 1.1.8 2.2 1.9 3 3 .3.5-.1 1.5-.2 2.2-.6-.4-1.3-.7-1.7-1.2-1.5-2.3-2.8-1.4-4 .2a18 18 0 00-.2 10 4.5 4.5 0 007.1.3l2.5-3.2c-.2 1.5-.4 2.9-.8 4.5zM683.4 742.7c3.2 3.4 2 7.1 1.3 10.7-.4 1.7-1.6 3.2-2.2 4.9-.7 1.5-2 2.3-3.3 1.7-1.3-.5-3-1.5-3.4-2.7-1-3.6 1.4-12.3 5.2-14.5.5-.3 1.3 0 2.4 0zm-2.9 14c1-2.7 2-5.5 2.8-8.3.2-.8-.8-1.8-1.3-2.7-.7.6-1.6 1.1-2 1.9a15.7 15.7 0 00-1.4 8.9c0 .3 1 .5 1.9.2zM582 527.3c-.7-4.2 2.1-7 2.4-10.6 0-.3.6-.6 1-1 .1.5.4.9.4 1.3v2.4c.3 1-1 3.1 1 3 1.4-.2 2.8-1.7 3.8-3 .6-.6.4-2 .8-2.9.2-.4 1-.6 1.6-.7.1 0 .5.7.5 1.1.1 1.7-.3 3.6 1.6 4.7l.1.6c-3.6 1.4-2 5.3-3.6 7.7l-.8 1.3c-.4-.6-.9-1-1-1.7-.2-.5-.2-1.2 0-1.9l.3-3.2c-1.4 0-3-.2-4.3.2-.6.1-.8 1.6-1.2 2.5l-.7 2c-.2 1 .4 2.3-1.1 2-.5-.1-.6-1.5-.8-2.3v-1.5zM670.1 785.5c-.2 3.4-.1 6.6-.3 9.8 0 1-.4 2.2-1 3-.6.8-1.5.9-1.8-.6-1.2-4.4-.5-8.6.8-12.8.4-1.5.5-3-1.8-2.6-.4 0-.8.2-1 0l-1.8-1.3c.5-.5 1-1.5 1.6-1.5h14c.2 0 .7.6.7 1 0 .2-.4.8-.7.8-1.7.4-3.3 1-5 1-2.3-.2-2.7 1.5-3.7 3.2zM635.1 658.7c-1 1-1.4 2.2-2 3.3 1.2.2 2.5.8 3.6.5 2-.5 4-1.7 6 0 .3.3.7.4 1 .6l-1.3.4c-1.3.4-2.6.8-4 1-3.3.5-4.4 1.5-5.3 4.8 0 .4-.4.9-.7 1-.3 0-1-.3-1.1-.5-.4-1.3-1.3-3-1-4 1.2-2.7.7-5.5 1-8.3.2-1.6.3-3.5 3.2-2 1.8.8 4 .6 6.2-.5.9-.5 3.7-1.3 3.9.9.2 1.8-2 1.8-3.6 1.9-1.8.1-3.6.6-5.9.9zM544.3 575.6c2.6 8.1 3 8 10.2 4.8l1.4-.4c-.1.4 0 1-.4 1.2-1.4 1.2-2.7 2.6-4.3 3.4-3.7 1.9-8.6-1.1-8.8-5.2v-6.8c0-2.9 2-4.8 4.2-6.3 1.1-.9 2.9-.7 4.2.8 1 1.1 1.9 2 .8 3.6l-1 2c-.3-.6-.6-1.4-1-1.9-.6-.7-1.4-1.8-2-1.8-.7 0-1.5 1.1-2 2-.5 1.3-.9 2.7-1.3 4.6zM722.3 515c3.2-2.3 6.2-1.4 9 0 2.6 1.2 3 4.5 1.7 7.7-1.7 3.9-5 5.2-8.7 5.5-2.6.3-4.1-1.3-3.1-3.7 1.3-3.1.5-6.2 1-9.5zm1.7 3.2v4.7c0 2.8.5 3.2 2.8 2 1.5-.8 3-1.8 4-3 .6-.8.6-2.3.3-3.3-1-2.7-4.4-3.3-7.1-.4zM649.3 694.7c-2.6-3.8-2-7 1.6-9 1-.6 2-1.4 3-1.8 1.4-.5 2.6 0 3.3 1.3.1.3-.9 1.5-1 1.4-3.4-1.5-4.4 1.7-6.2 3.1-1 .9.3 3.5 2.4 4.7 1.7 1 2.7 2 3.1 4.2.7 3.6.3 4.2-3.3 4.6-3.2.4-4.6-1.5-6.3-3.4-.4-.4 0-1.4 0-2.2.7.2 1.5.2 2 .5.7.5 1 1.4 1.8 1.6 1 .4 2.3.2 3.5.3-.4-.9-.7-1.9-1.3-2.7-.6-.9-1.5-1.6-2.6-2.6zM549.4 554.6c-4.4 3-7.6 1.7-8-3-.4-4.3 2.7-9 7-10.4 1.7-.6 4.2 1.2 4.6 3.5.5 3.8-.9 7-3.6 10zm-2.7-1.2c3.2-.9 2.7-4.3 4.3-6.3.3-.4.8-2.1-1.2-2.5-1-.2-2-1.5-3 0-.8 1.2-2 2.2-2.3 3.4-.4 1.7-.1 3.5.1 5.2 0 .3 1 .4 2.1.2zM607 749.5c.6-3.4-1-6.5 1-9.2l1.3-1.4c.4.7 1.7.5 1 2.3-.6 1.9.4 4.4.6 6.6.2 1.7-.9 5.2 2.7 1.8.4-.4 1.6-.2 2.3 0 1 0 1.8.2 2.7.4l-2.1 1.4c-.6.5-1.4 1-1.6 1.7-.8 2.5-3 3.4-5 3-2.4-.4-2.7-3-2.8-5.2v-1.4zM623.3 699c-.6.6-1 1.2-1.3 1.2-3.2-.3-6.5-.6-9.7-1.1-.5 0-.9-1.2-1.3-1.8.5-.3 1-.8 1.7-.9 2.5-.3 4.8.6 7 1.5.5.2 1.2 0 1.7.1l-.8-1.4c-.4-.5-1.1-.8-1.5-1.3-1.4-2-3.4-3.8-4-6-.4-2 .9-4.2 2.5-6 1.6-1.8 3.4-1.5 5.3-1.3.6 0 1.6 1.4 1.5 2-.4 1.5-1.2.5-2 .2-1.8-.6-3.6.4-4.2 1.8-.6 1.3-.3 3.3.3 4.7.6 1.4 2 2.6 3.3 3.4 1.8 1.3 1.8 3 1.5 5zM670.1 695.7c-.9 1.8-1.3 3.6-2.3 5-1 1.5-2.6 2.7-4.6 2-2-.6-3.3-2.3-2.9-4.3.7-3.3 1-6.8 2.8-9.9.7-1.1 1.4-1.8 2.9-1.8 4.3-.2 4.9.2 4.8 4.6 0 1.4-.3 2.7-.7 4.4zM669 690c-3-2.1-3.7-2.1-4.5.8-.8 2.6-1 5.4-1.3 8 0 .5.3 1 .5 1.3.5-.2 1.4-.2 1.6-.6 1.4-2.8 3.5-5.2 3.7-9.5zM710.7 629a70 70 0 001.7-2.2c.3.8 1 1.6.9 2.3-1.4 5.1-3 10.2-4.6 15.3-.2.7-1 1.2-1.6 1.7-.4-.8-1.2-1.7-1.2-2.6.1-4.4.1-4.6-2.6-7-.5-.3-1-.7-1.3-1.3l-2-5.2c2.5-.6 3.1 1.8 4.4 3 3.4 3 3.3 3.2 5.4-1.2.3-.8.4-1.7.9-2.8zM595.3 754c2.4-1 4.8-1.7 6.7-3 1.5-1 2.1-.4 2.7.6.1.3-.7 1.4-1.3 1.7-2.4 1.3-4.7 2.7-7.2 3.6-3.5 1.3-6.8-.5-6.4-3.6.5-4.2 1.8-8.3 2.8-12.4.1-.4.7-.7 1.1-1 .3.4.8 1 .8 1.3-.4 3.4-.5 6.9-1.4 10-.7 2.5.2 2.8 2.2 2.9zM540.7 679.2c2-.2 3.8-.3 5.5-.2.4 0 .7.5 1 .7-.3.4-.6 1-1 1.2-.8.2-1.7 0-2.4 0-1.5.2-2.3 2.3-1.4 3.4 1.4 1.7 3 3.2 4 5.1.6 1.4.7 3.3.3 4.8-.1.6-2 1-3.2 1.2-3.2.4-5.2-1.5-7.1-3.6-.3-.3-.3-1-.1-1.3.2-.3 1-.5 1.3-.3 1.3.6 2.6 1.5 4 2 .8.2 1.7 0 2.6 0-.3-.7-.4-1.5-.8-2l-2.8-3.7c-2-2.5-2-4 0-7.3zM678.6 689.6c.2-1.3.3-2.7.7-2.8 1.6-.3 1.2 1 1.2 1.9v9.1c0 .5.5 1 .7 1.5.4-.4 1-.6 1.2-1 .5-2 2.5-1.5 3.6-2.3 1.5-.9 2.6-.8 3.7.4-.7.6-1.4 1.4-2.2 1.9-2 1.2-4 2.4-5.2 4.5-1 1.7-2.8 1.7-4.2 1.1-.8-.3-1.5-2-1.4-3 .4-3.7 1.2-7.2 1.9-11.3zM790.6 580.5c-.5 1.2-1.1 1.9-1.7 2.6-.3-1.1-1-2.2-1-3.3.2-3.3.6-6.5.7-9.8 0-.4-.6-.9-1-1.1-.4-.2-1 .1-1.4 0l-3.3-1.5c1-.5 2.1-1.2 3.3-1.4l10.7-1c.4 0 1 .5 1.4.7-.4.4-.9 1-1.5 1.2-1.7.6-4.2.4-5 1.6-.8 1.3 0 3.7-.2 5.6-.2 2-.7 4-1 6.4zM563.6 581.4c-.4 1-.9 1.5-1.4 1.9-2.7 2.1-5.1 1.2-5.3-2.2 0-3.2.3-6.6 1-9.7.4-1.4 2-3 4.1-2.5 2 .4 3.5 1.5 3.5 3.7.1 3 .1 5.9-1.9 8.8zm-1-4.3c.4-1.3.8-2.6 1-4 0-.4-.5-1.3-.8-1.3-.7 0-1.9.2-2 .6-.5 1.6-.9 3.3-1 5 0 1.3.3 2.6.5 4 .8-1.1 1.6-2.2 2.4-4.3zM751 553.4v-8.2c.1-1.5-.1-2.8-1.7-3.4-2.5-.8-1-2.3-.1-2.4 2.6-.1 5-2.7 7.8-.8.9.5 2.2.2 3.2.4.5 0 1 .5 1.4.7-.3.4-.6 1-1 1.1-2.2.6-5.3.3-6.4 1.7-1.1 1.3-.3 4.2-.3 6.5v5.7c0 .6-.4 1-.6 1.6L752 555a4 4 0 01-1-1.5zM780.7 675.8c-2.3.5-2.5-2-2.5-2.5.3-2.1 1.1-4.3 1.8-6.4.6-2 1.4-4 1.9-6 0-.2-.9-1.1-1.4-1.1-.6 0-1.3.8-2 .8-.8 0-1.6-.5-2.4-.7.4-.7.8-1.8 1.3-1.9 3.1-.5 6.3-.9 9.6-1.2.4 0 1 .7 1.4 1.1-.5.4-.9.8-1.4 1-2.4.8-3.1 2.4-3.3 5-.2 2.7-1.4 5.4-2 8.1-.4 1.2-.5 2.4-1 3.8zM591.6 632.6c1 2.2 2 3.8 2.9 5.6.4 1 .8 2.7.4 3a8.3 8.3 0 01-4.5 2c-2 0-5.6-5-5.4-7 0-.3 1.2-.7 1.3-.6.6.7.9 1.7 1.5 2.3 1 1 2 1.9 3.3 2.4 1 .4 2-.3 1.3-1.5-.5-1.1-1.2-2.1-2-3-1.9-2-1.9-4.6-1.6-7 .2-2.2 2.5-3.8 4.7-4 1.5 0 2.7.5 2.9 1.8.2 2-1.5 1-2.4 1.2-3.5.4-3.9.9-2.4 4.8zM648.6 582.4c-.2 1-.4 1.5-.8 1.9 0 0-1-.3-1-.5 0-4.3-.3-8.7.4-12.8.4-2 .4-2.2-1.3-2.1h-1l-2-1.6c.7-.5 1.3-1 2-1.3h11.9c.5 0 .9.2 1.3.3-.3.5-.6 1.2-1 1.3-1 .3-2.2.2-3.3.3-3.6.2-4.2.9-4.2 4.3v7.7c0 .7-.7 1.3-1 2.5zM567.5 549.5c-2.5.7-4.4 1.7-6.4 1.9-2.5.2-3.5 1-3.3 3.5l-.3 1.3c-.5-.4-1.2-.7-1.3-1.1-.3-.9-.3-1.9-.3-2.8 0-2.6.6-5.3-.2-7.6-.8-2.7.4-3.5 2.1-2.7 2.3 1 4.6.5 6.9.8.6.1 1.2.6 1.8.8-.7.4-1.4 1-2 1-1.8.2-3.6.1-5.4.1-2 0-.5.7-.4 1.5.4 2 1.6 2.5 3.3 2.4 1.9-.2 3.7-.5 5.6-.6 1.8 0 .7 1-.1 1.5zM659.2 716.7c3.1-.4 5.7-.8 8.3-1 .7 0 1.5.9 2.3 1.4-.6.3-1.2.9-1.8 1-4 .2-4.1 2.8-4 5.9.2 2.7.1 5.4 0 8.1 0 .7-.4 1.3-.7 2-.7-.6-1.5-1-2-1.7-.4-.4-.1-1.2-.1-1.8 0-2.4-.2-4.8 0-7.2.2-2.2 1.3-4.7-2.8-4-1.4.3-1.5-.3.8-2.7zM766.5 689.6l-2.8-.3c.4-.8.7-2.2 1-2.2 3.7-.3 7.3-.3 11-.3l.4.7c0 .4-.3 1-.6 1.1-1.2.4-2.6 1-3.9 1-1.6 0-1.4 1-1.2 1.9.2 1.1.2 2.6 1 3.4 2.6 2.7-1 5.2-.2 7.8-.6 0-1.7 0-1.8-.2-.4-1.6-.8-3.2-1-4.9-.1-2.7.5-5.6-2-8zM710.2 524.7c0 2.8-2.3 3-4 3.5a16 16 0 01-5.8 0c-.9-.1-1.8-1-2.5-1.7-.2-.3.1-1.2.2-1.8.4.2.9.6 1.4.7l6.3 1c.2 0 .6-.6.7-1 .1-.2 0-.7-.3-.8-.7-.5-1.6-.8-2.3-1.4-2.1-2-2.8-4.9-1.6-6.6 2-2.8 6.1-4.7 8.5-3.7.2 0 .3.3.5.5l-.8.4-3 1c-3 1.2-4 5.4-1.5 7.6 1.1.9 2.6 1.4 4.2 2.3zM707.3 617c-.7-.4-1.5-1-1.6-1.7-.5-3.2-1.1-6.5-1-9.7.2-2.8-1.3-3.3-3.2-4-.6-.1-1.1-.6-1.7-1l1.9-.8c1.1-.4 1.9-1.3 3.6-.3 1.5 1 4.2-.3 6.4-.4.7 0 1.5.5 2.3.8l-1.7 1.4c-.2.2-.5.4-.8.4-1.2.1-3.4-.2-3.6.3a7.3 7.3 0 00-.3 4.7c1 3.4-.2 6.7-.3 10.2zM669.9 553.4c.3-3.5.3-6.7 1-9.7.5-1.8.7-2.6-1.5-2.9-.8-.1-1.5-.8-2.3-1.3 1-.5 2.5-1.7 2.9-1.4 2.1 1.5 4 .6 6-.1.4-.2 1-.2 1.4 0l3 1.5c-1 .5-1.9 1-2.9 1.3-.4.2-1 .1-1.4 0-2.4-.4-2.3 1-2.4 2.8-.2 3.2-.5 6.5-1 9.7-.1.7-1.4 1.4-2 2-.3-.4-.6-1-.8-1.9zM569.4 519.6c-1.8.1-2.5-1.2-1.7-1.5 4.3-1.4 8.7-2.3 13-3.3.4 0 .9.3 1.3.5l-1 1-2.8 1.4c-2 .9-3 2.3-3.1 4.7-.2 3-1.2 5.8-1.8 8.8-.4 1.7-1.2.5-1.3 0a13.3 13.3 0 01.4-8.8c1-2.8-.4-3-3-2.8zM733.6 629.7v-2.4c.3-.5 1-.9 1.4-1.4.5.6 1.4 1 1.5 1.6.1 2.1.5 4.4 0 6.3-1.3 3.7-.7 7.4-1 11.2 0 .7-.6 1.4-1 2.1-.6-.6-1.8-1.3-1.7-1.9.3-4-1.2-8.2.8-12.1.4-.8 0-2 0-3.4zM770.3 667.4c-1.7 1.8-.5 3.8-1 5.3-.2.9-.9 1.6-1.3 2.4-.5-.7-1.5-1.5-1.4-2.2.2-3.3.5-6.7 1-10 .5-2.4 1.2-4.7 1.8-7 .1-.4.7-.7 1.1-1 .3.4.8 1 .8 1.4l-1 11.1zM606.1 794.9l1-15c.1-1 1.1-1.8 1.7-2.6l.7-.7c.1.4.5.8.5 1.2-.5 3 .7 6.1-.9 9.2-.7 1.4 0 3.5 0 5.3 0 1 .1 2-.1 2.8-.3 1-1 1.8-1.5 2.6-.5-.8-1-1.5-1.4-2.8zM757.8 700.2c.3-.8 1-1.3.9-1.5-1.3-3.7.8-7.5.1-11.2 0-.5.6-1.2 1-1.8l.9 1.8c2 4.7.5 9.7.9 14.5 0 .4-.7 1-1 1-.7 0-1.3-.4-1.8-.8s-.7-1-1-2zM641.9 553.4c.6-4.4 1.2-8.3 2-12.2a3 3 0 01.7-1.6c.4-.3 1-.4 1.6-.7.2.4.5.9.5 1.2l-1 7.8c-.3 2.1-.5 4.3-1 6.3-.2.8-1.4 1.4-2 2.1-.3-.8-.6-1.6-.8-2.9zM756.8 727.3c0 1.6.2 2.7 0 3.8-.2.7-.9 1.3-1.3 1.9-.2-.7-.3-1.4-.6-2-1.3-2.7.3-5.5-.8-8.5-.7-2 .4-4.8.8-7.2.1-.3 1.2-.6 1.6-.5.5.2 1.3 1 1.2 1.3-.3 2.3.9 4.7-.8 7-.6.8 0 2.4 0 4.2zM693 723.4c.3-2.3-.7-4.4 1.4-5.7 1.3-.7 2.1 1.3 1.5 4-.1.5-.8 1-.9 1.5l-1 10.2c0 1-.1 1.7-1.5 1.7-1.5 0-1.6-1-1.3-1.9.8-3 .3-6.4 1.9-9.8zM560.7 667.4c-.2 1-.4 1.6-.7 2.1l-1 1.5c-.4-.5-1-.9-1.1-1.4-.5-1.3-1.4-3-1-3.9 1.5-3 .5-6.2 1-9.3.1-.6 1.4-1 2-1.6.3.7.8 1.3.8 2v10.6zM580 712.8a651 651 0 01-1 14.4c0 .4-.7.7-1.1 1-.3-.3-.7-.6-.7-1 0-4.4-.2-8.9 0-13.3 0-1.2.9-3 2.8-1.1zM750 788.1c-1.7 0-3.3-.4-4.2.2-1 .6-1.6.8-2-.3-.2-.4.6-1.5 1.2-1.7 1.2-.6 2.6-.8 3.9-1 2.2-.4 4.6.5 6.8-1 .5-.2 1.6.5 2.5.9.5.1 1 .4 1.4.6-.4.5-.8 1.2-1.3 1.3-2.6.5-5.2.7-8.2 1zM697.2 693.7c-.3 2.5-.2 4.7-.3 7 0 .5-.4 1-.7 1.5-.4-.5-1-1-1.2-1.5-.4-1-1-2.3-1-3.4.2-3 .6-6.1 1-9.2.1-.5.8-1.2 1.3-1.3 1.1-.4 1.8.1 1.6 1.5-.2 1.7-.3 3.4-.7 5.4zM542.4 637.5c-.3 1.2-.4 2.7-.8 2.7-1.6.4-1-1-1.2-1.8-1.4-5 .2-9.8 1.6-14.5 0-.4.6-.6 1-.8 0 .4.3.8.3 1.3l-1 13zM635.3 723.2c.1-2.7.4-5.2.8-7.6 0-.4.9-.6 1.3-.9.2.4.6.8.6 1.2v14.8l-.3 1.3c-.5-.4-1.3-.7-1.3-1 0-1.9-1.4-3.5-.4-5.4.3-.5-.3-1.4-.7-2.4zM561.4 785c-2.9.7-5.6 1.1-8.3 1.6-.4 0-.8.6-1.2.5l-4.7-.8c1-2 2.7-2 4.5-2l8.8-1c.3 0 .8 1 1 1.7zM601.3 516.7l-1 11.2c0 .7-.6 1.3-1 2l-.7 1c-.4-.5-1.2-1.2-1.1-1.4 1.8-3.8.5-7.8 1-11.7 0-1 .5-2.2 1.2-2.8 1-.8 1.7 0 1.6 1.7zM717.2 525.4c-.2 1.3-.5 2-.7 2.9-.4-.5-1-1-1.2-1.5-.4-.7-1-1.6-1-2.4v-9c0-.5.4-1 .6-1.5.5.5 1.2 1 1.3 1.4l1 10.1zM552 520.6c-.6 2.7-1.2 5-2 7.3-.1.8-.5 2.2-.8 2.2-2 0-1-1.7-1-2.5.5-3.4 1.1-6.8 2-10.2.2-.7 1.6-1 2.4-1.6 0 1 .2 1.8 0 2.6 0 .6-.4 1.1-.6 2.2zM591.6 577.6v-8.7c.1-.6.9-1.2 1.3-1.8.2.6.6 1.2.6 1.8v9.6c0 .8.5 2.2-1.1 1.9-.4-.1-.5-1.6-.8-2.8zM728.8 757.2c-1.9.1-3.8 0-3.5-1.6.3-1.4 2-2.6 3.8-1.3l2.5 1.6c-.8.4-1.5.9-2.8 1.3zM748.1 675.1c-2.4-2.8-2.4-3.7-.5-3.8.8 0 1.6.4 2.4.7-.4 1-1 2-1.9 3.1z"/>
  <defs>
    <pattern id="pattern0" width="1" height="1" patternContentUnits="objectBoundingBox">
      <use transform="matrix(.00282 0 0 .00154 0 0)" xlink:href="#image0"/>
    </pattern>
      <image id="image0" width="356" height="649"  xlink:href="2_whiteoutwednesday1.jpg"/>
  </defs>
</svg>
