<svg xmlns="http://www.w3.org/2000/svg" xmlns:xlink="http://www.w3.org/1999/xlink" fill="none" width="289" height="946" viewBox="0 0 289 946">
  <defs/>
  <path fill="url(#pattern0)" d="M29.1 84.7h231v431.2h-231z"/>
  <path fill="#00EBAB" d="M60 71.7l-.6 2-2.1-1.4c-.2-.2 0-.7-.2-1l-1.6-2.2.2 2.7.2 1 .7 9.7c.2 3.2.4 6.5 1.3 9.7.2.8 0 1.6 0 2.4l.7 12c0 1 .4 2 .7 3 0 .3.5.6.8.7.4.2.9 0 1.3 0h49c1.9 0 3.7-.5 5.8-.1 1.7.3 3.8.5 5.7.2 1.5-.3 3 .3 4.4-.6.8-.4 2.2.5 3.4.5 5.4.1 10.9.4 16.3 0 9.1-.8 18.3-.6 27.5-.6 4.7 0 9.6 0 14.3.8 8 1.1 15.8 1.3 23.8 1.2 1.5 0 2.9.3 4.4 0 1.4-.1 3 .5 4.4.6 2.2.3 4.3-.2 6.5 0s4.4 0 6.6 0h7c2.2 0 4.5.3 6.6 0 1.7-.3 3.2.2 4.8 0 1.7 0 3.4-.2 5 .1 1.4.3 2.8 1.2 4.1 1.9.3.1.5.5.8.7l.5-1v-.2l.2-2.6 1.8 2 .4.5c0-.3.2-.6.3-.8l.7-3c0-.4.5-.6.7-.9.2.3.6.7.6 1v3.6c-.2 1.3.4 1.5 1.5 1.4a13 13 0 013.3 0c.5.2.8 1 1.2 1.4-.4.2-.8.6-1.3.6l-4.5.2c.1 1.3.4 2.7.4 4 0 12.9-.3 25.8.2 38.6.4 9.8.1 19.6.7 29.4.2 3.2-.5 6.3-.2 9.4.1 1.5 0 3 1 4.3.7.8.7 1.4-.6 1.4h-1c-1.5-.3-2.4 0-2 1.8 0 .5-.3 1-.4 1.5-.3-.4-.9-.7-.9-1-.1-1.8-1.5-1-2.2-1h-46.3c-1.3 0-2.7-.5-4-.8-.4-.1-.9-.6-1-.5-2.5 1.4-5 .4-7.5.6-6 .3-12 .3-18 .7-2.6.2-5.2 1.3-7.8 0-1.6 1.7-3.4-.6-4.7 0-1.8 1-3.5.6-5.1.6-5.6.1-11.2-.3-16.7.2-5.8.4-11.6.3-17.3.6-4.1.1-8.2 1.2-12.2 1-2.3-.1-4.4.3-6.4 1-1.1.3-2.1-1.3-3.2 0-5.7-1.5-11.5-.4-17.3-.7-1.6-.1-3.1-.2-4.7 0-12 1.3-24.2.2-36.3.7-2.6.1-5.2-.3-7.8-.1-1 0-1 .3-1.4 1.2-.5 1.6.2 3 0 4.5 0 1.4-1.3 2.7 0 4.1.3.3-.1 1-.2 1.5-.2.8-.5 1.6-.3 2.2.6 1.5.2 3 0 4.5-.4 5-.5 10.2-.7 15.3v6.8c-.2 2.4 0 4.9 0 7.3V271c0 1.4-.2 2.9.5 4.4.4 1-.5 2.4-.5 3.7v20.6c0 2.4.3 4.7 0 7.1-.2 2.6 0 5.1 0 7.7v15.3c0 1.5 1 3.1.5 4.3-.5 1.6-.5 3-.5 4.5-.1 2.1.2 4.2 0 6.4v13.5c-.3 2.9-.3 5.8 0 8.7.5 3.6-.2 7.2 0 10.8l.6 22.7-.1 4.2.1 4.6c.2 2.8.6 5.6.7 8.5v9c.1 2.2.6 4.5.6 6.8 0 2.2.3 4.5 0 6.7-.3 3.2 0 6.4.1 9.5.2 2.7-.2 5.4 0 8 0 1.5.6 2.7.2 4.3-.3.8-1.1 2.7.4 3.7-1.2 2 .4 4.1-.1 5.9-.9 2.8-.4 5.6-.5 8.4-.1 2.7-.1 5.5.5 8.2.3 1.1-.6 2.5-.5 3.7.5 4.6-.2 9.2 0 13.7 0 4.7.2 9.4-.1 14-.2 2.6.2 5.3-.6 7.9-.2.8.2 1.9.2 2.8l-.2 3.3-.7 16c-.3 4.6-.6 9.3-1.4 13.9-.5 2.7-.3 5.3-.5 8-.4 5.8-.5 11.7-.7 17.6-.2 4.2-.2 8.4-.8 12.5a160 160 0 00-.4 29c.6 11.9.3 23.7.4 35.5l.1 5.8v12.3l.3 1.9c.6-.3 1.2-.6 1.6-1 4-3.6 9-5.6 13.6-8.2.4-.2.9-.2 1.3-.1.8 0 2.1-.1 2.4.3.6 1-.4 1.8-1 2.5-4.1 4.5-8.4 8.6-14 11.3-1.3.8-2.3 1.9-4.2 2-1 0-2 1.3-3.1 2-.4.2-1 .2-1.4.3 0-.4-.2-.8-.1-1.2 0-1.7-.6-3.1-2-4.3l-9-7.5c-1.8-1.4-3.5-3.2-6.1-2.8-.3 0-1-.4-.9-.6 0-.4.3-.8.6-1 .9-.6 2.6-.2 2-2.1.4 0 1-.2 1.2 0 2.2 1.6 4.4 3.3 6.5 5.1l6.8 6c.3.3.8.4 1.1.6.2-.4.4-.8.4-1.1 0-2.6 0-5.1-1-7.6-.7-1.7-.7-3.7-1-5.6l-2-12.2v-.6c-.2-6-.8-11.8-.5-17.7.1-2.4-.2-4.8.4-7.2.6-2.4 0-5.1.1-7.7.3-3.9 1.3-7.9 1-11.8 0-2.8-.5-5.5.1-8.3-1.3-1.1.7-2 .3-3.2-1.3-3.4.2-7 0-10.4-.2-2.1-.2-4.3-.2-6.4 0-2.2.3-4.3.2-6.5-.2-2.3 0-4.6 0-7v-7-7-7-7-7-7c-.2-1.6.2-3.3 0-5-.2-1.6 0-3.2 0-4.8 0-2 .4-4 .6-6 .2-2-1.7-3.9 0-5.8-1.4-1.6 1.1-3.2-.2-4.7-1.4-1.6.3-3 .3-4.6-.2-2.8-.3-5.6-.1-8.4.2-2.2-.5-4.5 0-6.8.4-2-.3-4.2 0-6.4.2-2.4 0-4.9 0-7.3v-7c0-1.4.2-3-.4-4.2-.6-1.2 1.3-2.4-.2-3.4-.2 0 0-.8 0-1.2l.2-3.6c0-.6-.4-1.4-.2-1.9.9-2 .4-4.1.6-6.2.1-1.6-.3-3.4.1-5 .4-1.5-.5-2.9-.1-4.4.3-1.1-.5-2.4.6-3.4.3-.2.2-.9 0-1.3-1.3-4.6-.5-9.4-.5-14 0-2.3-.3-4.6 0-6.8.8-8.8.1-17.6.7-26.4.4-5.3.2-10.7.6-16V363c0-1.6-.3-3.3 0-4.8 1.3-7.3.6-14.7.5-22-.1-4.8 0-9.7-1.2-14.5-.2-.9.6-2 .6-3v-13.6c0-2.5-.4-5-.4-7.5 0-2.2.6-4.5.4-6.6-.5-3.2.5-6.4 0-9.5-.4-2.4.1-4.7 0-7.1 0-2.5-.3-5.2.1-7.6 1-5.6 0-11.2.7-16.7.8-5.6 0-11.4 1.9-16.9-1.7-1.4.6-3.3-.6-4.9-.3-.5.6-1.7.6-2.6-.3-2.8.2-5.6-.5-8.5-.5-2.2.3-4.8.5-7.3 0-.2.3-.3.5-.5l1.5-1.3c-.8-.2-1.5-.5-2.3-.5h-19c-2.4 0-2.6.2-2.7 2.6v.3c-.4 1.2 1 2.8-.7 3.7l-.6-3.2c-.2-.7-.7-1.4-.6-2 .1-1.5-.6-1.4-1.6-1.4H6c-.7 0-.7 0-1.6-1.6-.1-.2-.6-.3-1-.4l-2.8-.3c-.3 0-.5-.5-.7-.7.3-.1.5-.3.8-.3 1-.3 1.8-.6 2.7-.7h7.7c2.4 0 4-1.5 4-4 0-2.2-.3-4.4-.6-6.6-.3-2-1-4.1-1.3-6.2l-.7-8.3-.6-7c-.2-2.3.4-4.6-.7-6.8-.2-.6 0-1.3 0-2v-28.3c0-3.7.4-7.4.7-11 .1-1.8 1.4-2.8 2.5-4 .3-.2.3-.8.4-1.1h-1.5c-1.6-.3-3.4 1-4.8-.7l4.3-.6h1l.6-.2-.6-.4h-.3c-.8-.5-2.2-1-2.2-1.3.2-1.6 1.6-.5 2.4-.7l5-1.4c.4 0 .7-.3 1-.4l-.8-.2H9.7c-.6 0-1.2-.4-1.7-.6.6-.4 1-1.1 1.8-1.4.5-.2 1.3 0 2 0H51c2.1 0 3.4-.7 3.3-2.2 0-2.2-.4-4.3-.7-6.5l-.3-1.2-.7-12.7c-.2-4.4-.6-8.9-.6-13.4 0-1.9.4-3.8.6-5.7l-.3-1.5-1 1.4-1.4 2.4c-.2.4-.5 1-.9 1.3-.7.3-1.5.4-2.2.6 0-.7 0-1.5.4-2 1.5-2.4 3.2-4.6 4.9-7 .5-.8 1-.5 1.7-.2 3 1.2 4.7 3.7 6.8 5.9l1 1.5c.4.6 1.6 1 .7 1.8-.2.2-1.2-.6-1.8-1-.1 0-.2 0-.4-.3L59 69.8l-.4.4.8 1.3.5.2zm24.2 44l3.5-.2-.1-.4-3.7.3s0 .2-.3.3l-.1.6c.1-.2.3-.4.7-.6zm139.2.7c-10.9.3-21.8-.7-32.7.5-5.7.7-11.6.6-17.4.8-.5 0-1.3 0-1.4.3-1 2.2-2.7 1.7-4.3 1.7h-41c-1.6 0-3.3 0-4.7-.2-2.4-.4-4.8-.1-7.2-.4-6.1-.6-12.2.2-18.4-.6-5.2-.7-10.5-.5-15.8-.7-8-.4-15.9-.1-23.8-.7-3.3-.2-6.7-.2-10.1-.1-8.9.2-17.8-.2-26.7.7-2.3.2-2.3 0-2 2.7v1.3c.4 15.7-.4 31.3.6 47 .7 10.8 0 21.7.7 32.5.1 1.4 1 1.7 1.7 2.2.1.2.5 0 .8 0l-.5-.9-.5-.7 1-.2c4.5.1 9.1.5 13.7.3 1.5 0 3 1 4.3.3 1.3-.7 2.3.4 3.5 0l3.7-.6c1 0 2 .8 2.7.6 4.7-1.3 9.4-.3 14-.6.4 0 .7.4 1 .6-.3.3-.6.7-.9.7l-9 .7c-.5 0-1 .3-1.4.4.4 0 .8.3 1.2.2 3.7-.2 7.4.2 11.1-.5 4.7-.8 9.6-.5 14.3-.8 5.8-.3 11.6.3 17.4-.5 5-.7 10 0 15-.7 3.8-.6 7.6 0 11.5-.6 4.4-.8 9-.7 13.6-.8 5.6-.1 11.3 0 16.9.6 2.6.3 5.3 0 8 0h39.3l33.7-.7c3 0 5.8.3 8.8-.5 1.8-.5 4 .5 6 .5 2.1 0 4.2-.4 6.4-.6h.6c2 1.3 4 .4 6 .7 1.2.1 1.7-.8 1.2-1.3-1.6-2-.5-4-.6-6-.4-8 .4-16.2-.6-24.3-.8-6.6 0-13.3-.6-20-.8-8.9-.6-17.8-.8-26.7v-.7c-.3-.3-.6-.9-.9-.9h-4.7c-1.3-.2-2.7-.8-4-.6-1.4.2-2.7-.2-4.1-.2-4.2.2-8.5.1-12.7 0-.5 0-1 0-1.5-.2.5-.1 1.1-.4 1.7-.4 8.2.4 16.5-.8 24.7.7 1.7.3 2-1.2 2-1.8.4-1.6-1.1-.8-1.8-.8-3.7-.1-7.3-.2-11 0-3.5.2-7-.8-10.4-.1l-1.2-.3c-1.4-.4-7-1.4-8-1-1.9 1-3.8.5-6.4.7zm-181.5 332l-.6-21.2c0-2-.2-4 0-6 .1-1.4-.8-2.7 0-4.2l-1-.9c0 .3-.3.6-.4 1-.2 1.1-.6 2.2-.6 3.4 0 1 .5 2.2.6 3.3.1 1.7.3 3.4 0 5-.5 1.7.4 3.2 0 4.8-.3 1.6-.6 3.2-.6 4.7l-.7 29.7c0 1.7-1 3.5-.4 5 .6 1.9.4 3.7.4 5.4-.1 5.4-.5 10.7-.7 16 0 2.6.3 5 .1 7.5-.3 2.8 0 5.6 0 8.3 0 2.8-.3 5.6 0 8.4.3 2.6-.3 5.1 0 7.7.2 3 .6 6 .5 9 0 2.6-.2 5 0 7.6.4 5.3.1 10.7 0 16 0 1-.7 2.2-.5 3 1.3 4.6.2 9.2.6 13.8 0 .6-1.2 1.5.2 1.9.2 0 .8-1.4 1.1-2.2v-.6c-1-1-.5-2-.2-3.2.3-1-.7-2.6-.3-3.6 1-2.5.3-5 .5-7.4 0-1-.2-1.9 0-2.7 1.2-4.2.7-8.5 1.3-12.8.3-1.7 0-3.5.1-5.3.2-1.6-.4-3.3 0-4.7 1.2-4 .4-7.9.6-11.8v-7-6.6-7c.3-2.2 0-4.3 0-6.4v-11c.1-3.6.5-7.2.5-10.8 0-3.6-.4-7.1-.4-10.6 0-1.3.6-2.6.4-3.7-.6-3.7-1-7.5-.5-11.9zm112.2-330h4.7l4.2-.3-4.2-.4c-1-.2-2-.6-3-.6-8.4-.2-16.8.3-25-.7-2-.2-4 0-5.8 0h-6.4c-.5 0-1.3.2-1.6 0-2-2.4-4.7-1.1-7.1-1.3-1.7-.2-3.7-.4-5.2.2-2.2 1-4.3 1-6.6 1h-10l-.8.3c.2.2.4.4.7.4l10.3.7c6.8.4 13.6-.8 20.4.6h1c1.4-.2 3-.8 4.3-.5 2.2.5 4.3.6 6.5.6h23.6zm-20 83.2c-2.9 1-6 .7-9 .6-2.5 0-4.8.7-7 1.5-.4.2-.9.6-1.1.5-3-1.3-6.3-.3-9.4-.6-1.2 0-2.4.3-3.6.4l3.6 1h1l9.3-.1c.7 0 1.4-.3 2.1-.5 1-.2 1.8-.8 2.7-.8H139c1.9 0 3.8-.6 5.7-.6 1.5 0 3 .3 4.6.4 1.8.1 3.7.3 5.6.1 3-.2 6-.4 9.1-.4 1 0 2-.3 3.1-.3 1 0 2 1 3.2.2.9-.5 2.4 0 3.6 0l1.2-.4-1.2-.3c-9.1-.2-18.3.2-27.4-.6-3.9-.4-7.8-.1-12.3-.1zm38-89.2c-10 .3-20-.7-30 .6-5.5.7-11 1-16.6 1.4l-1 .2 1 .4c3 0 5.9.3 8.7 0 2.8-.4 5.4.2 8.1 0h.7c2.1-.4 4.3-1.3 6.4-1.2 2.2.1 4.3-.2 6.4-.1h20.6c.3 0 .5-.6.7-.8-.2-.2-.4-.5-.7-.5h-4.3zM14 130v-2.6c-.1-.4-.7-.7-1-1l-.4 1c-.2 2-1 4.2-.4 6 .7 2-.4 4 .3 5.6 1 2-1.6 3.9 0 5.7-1.1 2.7-.6 5.5-.2 8.3.3 2.4-.2 4.9.2 7.4.6 4 .3 8 .7 12 .4 4.7.6 9.4 1.4 14l.4 1.2.3-1.2c-.2-4.2-.2-8.5-.7-12.7-.6-4.3-1.3-8.7-1.3-13L14 130zm23.3 514.8v4.3c0 .8.3 1.7.4 2.6l.2 2.5c0 .3.3.6.4.9l.3-.9v-1.7c-.1-6.2 0-12.5-.6-18.8-.5-5 0-10.1 0-15.2l-.3-3.3c-.1 1 0 2.2-.5 2.9-1 1 .6 1.8 0 2.8-.4.9-.5 2-.6 3-.3 2.7.7 5.5-.6 8.1 1.3 2.7.2 5.6.6 8.4l.7 4.4zm38.3-438.5H58.9c-.3 0-.6.3-.9.4l1 .2h26.2c.4 0 1 0 1.2-.2 2.5-2.1 5.4-1 8.1-.8l8.8.3c.2 0 .4-.2.5-.3l-.4-.4c-.4-.2-.8-.6-1.1-.5-3.6.4-7.2-.9-10.9-.2-4 .8-8.2.6-12.3.8-1 0-2.1.2-3.5.7zm17.6-93c1 .2 2.2.5 3.2.3 1 0 1.7-.5 2.8 0 .9.3 2.4.3 3.3 0 1.2-.4 2-.5 3.2-.1 1 .3 2.2-.4 3.4-.4H126c.4 0 .8-.3 1.2-.4l-1.2-.3c-3 0-5.8-.2-8.7 0-2.7.1-5.3-.5-8-.1s-5.4 0-8 0H87c-.6 0-1.2.3-1.7.4l1.5.3c2 .8 4 0 6.4.4zM54.6 88.2c.2.3.6.6.6 1l.7 6c0 .5.2.9.3 1.3.1-.4.4-.8.4-1.2l-.7-6.7-.6-11v-1l-.8-.8c-.2.4-.6.7-.5 1 0 1 .5 1.8.6 2.7v8.7zm-10 600l2.7-2.2c.2-.1.3-.4.5-.7-.4 0-1-.3-1.2-.1l-7 5.3c-.2.2-.1.8-.2 1.1l1.2-.1 4-3.4zm-6.3-575H33c-.4 0-.7.5-1 .7.3.2.6.5 1 .5l12.3-.6.5-.2c-.2-.2-.4-.5-.6-.5h-7zm122.5 2c-1.4 0-2.8 0-4.2.2-.3 0-.5.4-.7.6.2.2.4.4.6.4h8.3c.7 0 1.5-.5 2.2-.8l-2.2-.5h-4zM40.9 408.6c0-.2-.2-.3-.3-.5l-.4-1.5-.3 1.2v6.6c0 .3.3.6.4.8.2-.2.6-.4.7-.7.1-.5.4-1.2.2-1.5-1.3-1.4-.3-2.7-.3-4.4zM266 194.3l-.3 6c0 .2.4.4.5.6.3-.2.8-.5.8-.7-.2-1.9-.4-3.7-1-6zm-77.2-80h2l.3-.8c0-.1-.2-.5-.3-.4-1.4 0-2.8 0-4.2.2-.3 0-.5.5-.7.8l.9.3h2zM17.6 197H17c-.2 1.7-.3 3.3-.3 5 0 .1.5.4.7.3.2 0 .5-.4.5-.6 0-1.5 0-2.9-.3-4.7zm32-85.2h-1l-2 .4c.8.3 1.6.9 2.3.9.7 0 1.5-.6 2.2-.9-.3-.1-.6-.3-1.5-.4zm41.3 4l3.5-.5-3.5-.2h-1l-1.2.5 2.2.2zm174.8 8.3l.2 2.2c.1-.7.4-1.4.4-2.2l-.2-1.5c-.1 0-.4 0-.4.2v1.3zm-254 81.6l-1.6.2c.4.2.8.4 1.2.4h1.3c.4 0 .8-.2 1.2-.4l-2.2-.2zm26.6 450.1l-.3 2.5.2.8c.1-.3.4-.7.4-1a5 5 0 00-.3-2.3zM55.9 104l.2 1 .5-.3V103l-.5-1.2-.2 2.2zm209.8 27.3v1.7c0 .2.4.6.4.5.5-.2.2-2-.4-2.2zM80.9 115.7l.9-.2-.3-.5H80l-1.2.5 2.2.2zM180 113h-1l-.6.5c.5.5 1.6.2 1.6-.5zM39.3 581.5l-.4-2.3-.2 2.4s.2.1.6-.1zM29.6 113l-1.5.2 1.4 1c.2-.2.3-.5.1-1.2zm47.6 3l-.7-1-.6.6c.3.2.7.5 1.3.4zM35 204.3l-.2.2v.2l1.9.2c.2 0 .4-.3.5-.4l-.8-.2h-1.4zm-11-89l-1.4-.3-.5.3.7.4c.3 0 .6 0 1.3-.3zm43.7.4h.6l1-.4c-.3 0-.6-.3-.8-.3-.4 0-.8.2-.8.7zm195.7 87.9h-.6c-.3 0-.6.3-1 .4.3 0 .6.3.9.2.3 0 .7-.2.7-.6zm-236.7-.3l-1-.3-.2.4c.3 0 .6.1 1.2-.1zm141.5-85.6l.9-.2-.2-.4c-.3 0-.7.2-.7.6zm98.2 2.3l-.6.4c.2 0 .4.2.6-.4zm-11.6 84.3l-.3-.7c-.2.2-.3.4.3.7zm-180.8-89l-1-.2-.2.4c.3 0 .6.1 1.2-.1zm-28.3 89l.8-.2v-.4c-.4 0-.8.1-.8.6zM259 114.7l-1-.3-.2.4c.3.1.6.2 1.2-.1zm-75.2-1.3l1 .2.1-.4c-.2 0-.5-.1-1.1.2zm2 89.2l-1-.3-.2.4c.3.1.6.2 1.2-.1zM38.6 583.5l.2.8h.4c0-.4-.2-.8-.6-.8zm154.2-380.6c.2 0 .5 0 .8-.2l-.1-.4c-.4.1-.7.2-.7.6zM69.9 116l.4.3c0-.2 0-.4-.4-.3zM38.3 595.1l.2-.4c-.2 0-.4 0-.2.4zM14.6 121.4l.4.2c0-.2 0-.4-.4-.2zM51 204.3l.3-.4c-.2 0-.4 0-.3.4zm-1.3-.7l-.3.4c.2 0 .4 0 .3-.4zm-21.7 1c.2 0 .3.2.4.3 0-.2 0-.4-.4-.3z"/>
  <path fill="#00EBAB" d="M170.5 471.3c0 9.7-.4 19.2 0 28.6.3 5.3.2 10.7.8 16 .4 3.4.3 6.7.5 10 .2 2.3.5 4.5.6 6.8.2 2.3 0 4.5-1 6.6-.1.3-.2.7 0 1 0 .4.4.6.6.8l.4-.6 2.9-4.5c.2-.2.4-.6.7-.7l3-.6c-.5.8-.8 1.7-1.4 2.3-1.9 2-3.8 4-4.8 6.7-.1.5-1.5.5-2.1 1-1.6 1.3-.7-.6-1.2-.9-1.2-.6-2.2-1.7-3.2-2.6l-3.8-3.7c-.8-.7-1.5-1.5-.8-2.5 1-1.3 2.2-.3 2.8.3 1.2 1 2 2.6 3 3.9l.7.6c0-.2.3-.5.2-.8-.3-4 .8-7.9-.6-11.7v-1c-.2-7-.2-13.8-.8-20.7-.2-2.7 1.1-5.6-.5-8.2 1.8-1.9-1.1-4.1.5-6.2.6-.8-.3-2.6-.2-3.9 0-2 .4-4.2.3-6.3-.8-9.3-.4-18.7-.8-28l-.5-11.1c0-1.6-1.3-2.6-3-2.6-3.9.2-7.7-.5-11.5.6-1.3.4-2.8 0-4.3 0-2.4 0-4.9.2-7.3 0-2.3 0-4.5.2-6.8.1h-21.6l-10-.7c-.8 0-1.9 0-2.1.5-1.7 2.8-2 .2-2.4-.6-.4-.9-.7-1.3-1.8-1.2h-4.7c-.4 0-.7-.5-1-.8.2-.2.5-.5.9-.5l4-.7c2.4-.5 2.6-.6 2.3-3-.4-3.2-.4-6.5-.7-9.7-.6-6-1-12-1.4-18.1-.3-5.2-1.2-10.3-1.2-15.4 0-1.2-.4-2.4.6-3.5.4-.4.3-1.5 0-2.3-1.2-4-.3-8.2-.6-12.3-.2-2.4.5-4.8-.6-7.1-.2-.5.1-1.2.3-1.8 0-.7.5-1.4.3-1.9-.7-1.6.3-3.1-.1-4.7-.5-1.6-1-3.8-.4-5 1.2-2.3-.2-2.5-1.5-3-.3-.3-.8-.3-1.2-.3l1-1.1 2.5-2.7.7-.7.3.9c.3 1.7 1 2.4 2.5 1.1h.7c3.2 1 6.5-.3 9.8 0 3.5.2 7 0 10.6 0h10.3l29.4-.6c1.1 0 2.6-.5 3 1.3.2.2 1 .4 1.6.3l4.2-.3h15.6c2.3 0 2.7-.4 2.9-2.7 0-.6-.1-1.2 0-1.6.3-.5.9-.7 1.3-1 .2.4.6.7.7 1.1.3 1.7.6 3.4.6 5 0 1.3-.6 2.5-.6 3.8 0 5.3-.3 10.7 0 16 .7 7.8.6 15.6.7 23.4 1.4 3.1-.2 6.7 1.3 9.8v.3c.2 3.5.6 7 .6 10.4V421l.7 14.4c0 1.4.7 2 2 2h1.3c.3 0 .5.3.7.4-.2.3-.4.7-.7.8-.5.1-1.2-.1-1.6 0-.9.5-1.6 1.2-2.3 1.7.5.6 1.3 1.2 0 1.6-.2 0-1-.9-1.2-1.5-.7-1.8-2.2-2-3.6-1.7-3.3 1-6.7.4-10 .6-1.5 0-3.6-.4-4.2.3-.7 1-.3 2.9-.3 4.4v27.3zm-37-36c1.6-.4 3.3.3 4.7 0 2.9-1 5.6-.5 8.4-.6 1.8 0 3.6-.1 5.2.4 1.7.6 3.3-.1 5 .1 2 .3 4-.5 6-.5h11c.8 0 1.7.2 2.3-.1 2.2-1.2 4.5-.7 6.7-.4 1.4.1 2.5-.6 3.8-.3.3 0 1.1-1.1 1-1.6-.4-2.6-1-5.1-1.6-7.7l-.2-1.5-.7-19.4c-.1-2.3-.3-4.7-.7-7-.7-3.8-1.2-7.6-1.3-11.4 0-1.6-.1-3.2-.4-4.6-.8-3.4.5-7-1-10.3 1.8-3.1-.3-6.5.7-9.6-1.3-1.4.2-2.7.1-4.1 0-1.5-.3-3 .5-4.5.9-1.6 0-2.2-2-1.7a8 8 0 01-2.3.2c-3.2 0-6.4-.1-9.7-.5a189 189 0 00-19-.7c-15.6-.1-31.3 0-46.9 0l-2.6-.1c-2.6-.4-2.6-.4-2.6 2v8c0 2.8-.4 5.7 0 8.4.6 2.5-.2 5-.1 7.4.4 6.9.5 13.8.7 20.7 0 .5.3 1 .4 1.5l.3 3v4c-1.3 1.3-.7 3-.6 4.4.2 2.1 1 4.2 1.2 6.4.4 2.4.6 4.9.7 7.4.2 3.7-1.5 7.3-.7 11.1.2 1.2.3 1.8 1.6 1.7 1.8-.2 3.6 0 5.4 0 1.9 0 3.8.2 5.6-.1 1.7-.3 3.2.1 4.8 0h16.3zm53.3 2l.9-.9c-.3-.1-.7-.4-1-.4h-2.3c-.2 0-.4.3-.6.5.2.3.4.7.7.8h2.3zm-91-80.9c0-1.2-.2-2.4-.4-3.6l-.2 3.9v1l1 1c.2-.2.4-.5.3-.6-.1-.3-.4-.7-.6-1.7zm0 4.7c0-.3 0-.6-.2-1-.1.2-.4.3-.4.3l.6 2c0 .4-1.2.8 0 1 .2 0 .7-.5.7-.8 0-.4-.2-.8-.6-1.5zm0-9.3v-.7l-.3-1-.3.9c0 .3.2.7.7.8zm88 31.3l.4.2c0-.2 0-.4-.4-.2zM193 725c-.2-1.7.5-3-.5-4.5-.4-.6.4-2 .4-3 0-1.7.4-3.6-.2-5-.7-1.6-2.6-.6-4-.8h-3.3c-1.8 0-3.7-.2-5.2 1.2h-.9l.5-1c.5-1.6 2-1.6 3.2-1.7 3-.2 6 0 9 0 2 0 2.4 1.4 2.4 3.1v7.4c.2 3.3.2 6.7.7 10 1.7 9.1 1.3 18.3 1.3 27.4-1.9 4.7.1 9.4.3 14.1 0 4.1.2 8.3.4 12.4 0 1.1.3 2.3-.6 3.4-.4.5-.3 1.6 0 2.3 1.2 4.4.4 9 .6 13.4v10c0 5.2.2 10.3 1.3 15.4v1.3c.2 3-.3 5.8.6 8.8.4 1.4 0 3.1 0 4.7.4 4.5-.6 9 .8 13.4-1 1.5.2 3 0 4.4-.2 1.7 0 3.4 0 5v5c.1 2.3.4 4.5.6 6.7.2 2.2-.5 4.4.6 6.4.3.6 0 1.3 0 2v11.7c0 6.6.5 13.2 1.3 19.8-1.4 2 .2 3.8.1 5.7l-.7 8.7c-.1 2-2 2.3-3.2 2.6-1.5.4-3.1.1-4.7.1l-.7-.4.6-.9c1.4-1 3-.7 4.4-.7 1.7 0 2.3-.6 2.3-2.3 0-5.7.5-11.6-.1-17.3-.6-5.1 0-10.3-.7-15.3-.4-2.4 0-4.8-.3-7.2-.3-2 0-4.4-.2-6.6-.3-5.2 0-10.5-.8-15.6-.7-5.6 0-11.3-.7-16.7-.7-5.4-.3-10.7-.5-16a70 70 0 00-1.3-12.2V823c0-3.3 0-6.6-.7-9.9-.2-.7 1.4-1.5 0-2.5-.2-.2.7-1.5.6-2.3-.8-12.3-.2-24.7-.8-37l-.4-14.7c0-1.3.4-2.7.6-4V751c-1.2-2.4-.7-4.9-.6-7.4 0-5.3-.3-10.5-1.4-15.7-.2-.9 0-1.8 0-3zM23.3 707c.4 1.1-.2 1.4-1.1 1.3h-4.7c-2.7.2-3.5 1-3.5 3.8 0 3.3-.5 6.7 0 10 1 4.7 1 9.4.5 14-.5 4.7-.4 9.4-.5 14 0 1.3.6 2.5.6 3.8 0 1.2-.3 2.5-.7 3.7-.7 2.7-.1 5.7-1.2 8.4-.3.7 0 1.6 0 2.3V781c0 3.3-.3 6.6-1.4 9.8v.6l-.7 12.7c-.1 4.5.2 9-.5 13.4-.4 2.7.3 5.6.6 8.4.2 2.6-.5 5.3.5 8 .5 1.4-.6 3.2-.5 4.7.2 5 .3 10.1 1.3 15.1v1l.6 32.3c0 1.2-.4 2.3-.6 3.4v1.7c1.2 5 .4 9.8 0 14.7 0 1.3.4 2.5.6 3.8.1.5.3 1.2 0 1.6-1.4 2-.4 3.9 0 5.8.3 1.2.3 2.5.7 3.7.3.7 1 1.6 1.5 1.6 2.3 0 4.5 1.6 6.8.2.7-.4 2 .3 3 .4-.4 1.5-2 1.4-2.7 1.4a34 34 0 01-8-.6c-2-.4-2.2-2.6-2.5-4.1-1.4-6.4-.8-13-.6-19.4 0-1.8-.3-3.6-.2-5.4.3-6.2.6-12.5.6-18.7 0-4-.6-8.1-.8-12.2-.1-.9.2-1.7.2-2.6-.2-5 0-10-.8-15-.5-3.3-.4-6.5-.5-9.7l-.5-15.7c-.3-8.2.1-16.5.6-24.7.2-4.3 1.2-8.6 1.9-12.8v-2V771c0-4.1.6-8.1 1.2-12.2.5-3.7 0-7.6-.4-11.4 0-1.2 1.5-2.5-.1-3.7.4-2.4 1-4.7 1.2-7.1.2-3 .6-6.3 0-9.3-.7-3.1-.4-6.2-.5-9.4v-6.6c0-2.8 1.4-4.3 4.3-4.4h6.3zM36.6 810.2l1.4-2.4c.4-.4 1-1 1.3-.8.5.1 1 .7 1.3 1.2l.7 3.4c0 .5.2 1 .5 1.4.2.5.9 1.2 1 1.2.7-.4 1.5-.9 1.7-1.5.3-1 0-2 .1-3l.3-.8c.3.3.7.5.7.7.2 1 .2 2.2.3 3.2.3 1.7-.5 3.4.6 5.1.4.7.2 1.1 1 .4.8-.7 1.6-1.6 2.6-1.8 2.6-.8 3.7-2.3 3.2-5-.1-.3-.2-.8 0-1l1.6-1-.3 1.3.7 6.7c.2 1.4 1.2 1.7 2.4 1.2.7-.2 1.2-.8 1.9-1 .4-.2 1 0 1.5 0-.2.4-.4.8-.7 1-1.1.8-2.2 1.8-3.4 2.1-1.8.5-3.4 0-3.7-2.8-.2-1.5-.6-1.3-1.6-.6-1.2 1-2.5 2-3.8 2.8-1.6 1-3.1 0-3.3-1.7v-2.7c0-.5-.3-1-.5-1.4-.4.7-1.7.3-1.5 1.7v3.3c0 .3-.5.5-.7.8l-.6-.5c-.3-.7-.8-1.5-.6-2 .5-1.3.6-2-1-2.1-1.3-.1-2.7-.3-3 1.5l-.1 2.3c-.1.5-.5.9-.8 1.3l-1.2-.8-.5-.9c0 .3 0 .7-.2.9-1.2 1-1.7 2.5-3.7 2.4-3-.2-4.8-2.4-4.6-5.4 0-1.7.2-3.3.8-4.8a3.4 3.4 0 015-1.4l.5.4-.7.4c-3.7.6-4 .9-4 4.8.1 1 0 2.3.4 3.2 1 1.8 3.3 2.4 4.7 0 1.4-2.8 3.8-5.1 3.9-8.5l.4-.8zm1.7 1.4l-.4 1.4c0 .7 0 1.3 1 1.3.9 0 1.1-.4 1-1.2v-2.3c0-.5.2-1.5-.8-1.2-.3.1-.3 1-.8 2zM209 617.8c0-1.4-.3-2.4-.4-3.5 0-.3.4-.6.6-1l.5.7c.7.7 1.2.8 1.4-.4.2-2 .8-1.8 4.1-1.8 1.4 0 2.2.9 2.5 2.1.4 1.4-.7 3.3-2 3.9l-1.3.6 1.5.7 2.5 1c.4.2.8.1 1.2.2 0-.4 0-.8-.2-1.2-1-3.4 0-6 2.5-8 1.3-1 2.1-.7 3.1 0 .6.4 1.4 1.3 1.3 1.5-.6 1.3-1.1 0-1.7-.1-1.9-.4-3.5.8-3.5 2.7 0 1.8-.5 3.8 1.4 5.1 1.4 1 3 1.2 4.4 0 1.4-1.3 2.6-2.5 2.2-4.8-.2-1 .4-2.2.6-3.3 0-.2.6-.4.8-.4.2 0 .5.4.5.7.1.5.1 1 0 1.6-.1 1.4 1 1 1.6 1 .8.1 1.2-.1 1.1-1l.1-3.3c0-.4.6-.9.9-1 .3 0 .9.6.9 1l.8 11c0 .2-.3.6-.5.6-.3 0-.7-.1-.8-.3-.3-.5-.6-1.1-.7-1.7v-3c0-1-.3-1-1.2-.8-2 .7-2.6 1.8-2.1 4.7l.2 1.1c-.4 0-1 .2-1.3 0-.4-.3-.7-.8-1-1.3-.3-1-.2-.6-.7 0a4.5 4.5 0 01-5.8 1.7c-1.3-.6-2.6-.8-3.9-1.1-1.8-.5-3.9-.6-5.5-2-1.2-1.3-1.9-.8-2 1v1l-.8.7c-.2-.2-.5-.3-.5-.6l-.7-4zm5-4.7c-.5.2-1.5-.6-1.6.9 0 .9-.5 1.8-.6 2.7l.4.4c.7.3 4-1 4.2-1.7.2-1.2-.2-2.2-2.3-2.3zM170.3 812.7c3.4-.6 3.4-.6 3.5 2.3 0 1.6.3 3.4-1.5 4.4-.8.4-.3.8.1 1.1 1 .8 2 1.4 2.8 2.2.2.1.3.4.4.7-.3 0-.7.2-.9.1-1.4-.7-2.9-1.5-4.3-2.4-1.3-.8-1.7-.7-2 .7 0 .3.2.8 0 1-.2.3-.7.7-1 .7-.4 0-1-.6-.9-1l.9-6.2.1-2c-.8.2-1.6.3-2.3.6-.4.2-.7.8-.7 1.2-.1 2 0 3.9-1.2 5.8a5 5 0 01-2.8 2.2c-1.6.7-2.6-.2-2.7-2-.2-3.2-.2-3.2-3.5-3.2-.5 0-1.1-.1-1.6 0-.4.1-.8.6-.9 1v3.6c0 .5-.6.9-1 1.3-.3-.4-1-.7-1-1v-9c0-.5 1-1.2 1.4-1.2h6.6c.2 0 .5.3.7.5-.3.3-.5.7-.8.8h-3.6c-.7 0-1.4.4-2 .8l.2 1.1c2 .1 3.8.2 5.7 0 1.9-.1 2.7-2 3.8-3.1.4-.4 1.2-.9 1.4-.8 1.1.8 2 .6 3.2.1.9-.4 2.1.2 3.3.3l.6-.6zm-8.5 9.2l1.3-5.4c0-.2 0-.6-.2-.8-.2-.2-.7-.1-.9 0-1.3.8-2.6 5.2-2 6.5.4.6 1 .9 1.8-.3zm8.7-6.7c-.8.7-1.4 1.5-.8 2.5.1.3 1 .6 1 .5.7-.8 1.2-1.7 1.7-2.6v-.6c0-.5-.2-1-.4-1.4-.5.3-1 .6-1.5 1.6zM168 37.3c-2 .8-3.6-.1-5.2-.8l-1.8-1.2c-2.9-1.5-3-1.4-3.2 1.8 0 .4-.3.9-.5 1.3-.5-.3-1.3-.6-1.4-1-.4-1.3-.5-2.7-.8-4l-.6-3.4.1-1.3c.2-.4.6-.6 1-.9l.2 1 .4 1.7c0 .2.3.3.5.5.1-.2.4-.4.4-.6.1-1.7 1.1-3 2.4-4 .7-.4 2-.7 2.6-.4.8.3 1.5 1.3 1.6 2.2.3 1.3.4 2.8-1.1 3.8s-.8 1.8.3 2.4c.4.3.9.7 1.4.8l2 .4-.5-1.6c-.4-.9-.5-1.5.3-2.3.8-.8 1.2-2 1.7-3l1-2.2c.3-.7.4-2 1.6-1.3.6.3 1.3 1.2 1.3 1.9.2 1.7.2 3.3 2.5 3.5v1c-2 .5-1 1.7-.8 2.8v3.4l-2-2.8c-.2-.1-.2-.3-.3-.5l-.5-2c-.6.6-1.3 1.2-1.7 2-.5.7-.5 1.7-1 2.8zm-7.5-5.8c.4-.7 1-1.4 1.2-2.1.1-.6-.4-1.3-.6-2-.5.4-1.3.6-1.6 1-.5.8-.8 1.7-1 2.6-.5 2.1 1 .6 2 .5zm9.3-2.7c-.8.6-.9 1.3-.5 2.2l.6.1.5-1.8c0-.3-.2-.6-.6-.5zM149 743.8c-2-.7-3.3.3-3 1.8l.5.4-.3 3.6c-.6-1-1.3-2.1-1.7-3.2-.2-.7.2-1.6-1.1-1.5-1.2.2-2.5-.2-3 1.4 0 .7-.2 1.4-.4 2.1-.1.4-.5.7-.7 1-.3-.3-.7-.6-.8-1l.3-1.4c.6-1.8 1.3-3.4 1-5.3-.1-1.3.3-3.2 1.1-3 1.6 0 1.7-1.6 2.7-1.7.5 0 1.2.5 1.5 1 .2.5 0 1.3 0 2 .2 1 .5 2 1.6 2.3 1.1.2 2.3-1.2 2.4-2.5v-2c.1-.3.5-.6.8-.8.2.3.5.6.5.9l.8 8c0 .4.5.7.8 1l.5-1 .7-6c0-.4.2-.8.5-1 .2-.3.7-.5 1-.5l.4.7c0 .9-.1 1.7-.3 2.5-.7 2.5 1 4.7 3.6 4.7 1 0 .5-.3.2-.9-.8-1.7-1.9-3.3-1.5-5.3.3-1.3.6-2.6 2-3 .5-.3 1.2 0 1.9 0l-1.2 1.2c-1 .9-1.3 2.5-.4 4.5.3 1 .8 2 1.4 2.8 1 1.4-.3 2-1 2-1.5 0-3-.3-4.4-.8-.9-.3-1.4-1.1-1.6.5 0 .4-.7.6-1 1-.6.8-1.2.9-2 0a6 6 0 01-1.8-4.5zm-6.8-.8c1.1 0 2.3-.2 2.2-1.6 0-.8-.6-1.6-1-2.4l-1.1 2.5a2 2 0 00-.2 1.5zM153.1 35.1a32 32 0 01-.6 3l-.6 1.7c-.3-.5-.4-1-.8-1.4-.2-.3-1.1-.4-1.1-.4-.6 1.5-2 2.2-3.2 1.6-1.6-.7-3.4-1.5-3.7-3.6 0-.6-.4-1-.6-1.5-.5.5-1.2 1-1.3 1.6 0 1 .3 2 .4 3.1l-.3 1.2c-.5-.2-1.3-.3-1.4-.7-.3-.6 0-1.3 0-2-.2-.8.5-2-1.3-2-1.3.2-2.7-.1-2.8 2 0 1-.3 2-.7 3-.1.4-.7.6-1 1-.3-.6-.9-1.1-.9-1.6 0-1 .2-2.2.7-3 1.2-2.7 1-5.7 2.5-8.4.7-1.3 1.1-1.1 1.7-.3.7 1.1 1.4 2.4 1.7 3.6.2 1.4.9 1.7 2.1 1.8 1.5.2 1.8-1.3 1.8-1.7.2-2.2 1.8-3.3 3-4.9 1-1.4 1.8-.1 2.7 0l.4.7c0 .2-.4.6-.6.5-3.2-.4-3 2.5-4 4.1-.4.8-.1 2.2.3 3.2.3.8 1.3 2 2 2 .8-.1 1.6-1.2 2.3-1.9.3-.3.2-1 .5-1.4.3-.5 1-.7 1.5-1-.9 0-1.8-.3-2.5 0-.8.4-1.4.7-2.2-.1l1.8-1.5h.6c3.6-1.3 3.6-1.3 3.6 2.3v1zm-16.6-2.3l.2 1.5c.5-.2 1.5-.4 1.5-.7.1-.8 0-1.8-.2-2.6 0-.2-.3-.4-.5-.5l-.3.8-.7 1.5zM93.7 818.7c1.6-.3.8 1 .7 1.2-1 1.1-2 2.2-3.6 2.3-1.6.1-3.5-1.7-2.8-3 .9-1.5.4-3 .5-4.4.2-2.6.5-3 3-3.3 2.3-.1 4.5-.4 6.8-.6h.3l2-1c.4 1 1 2 1.2 3.1.2 1.6 0 3.1 0 4.7 0 .4.3.8.4 1.2.3-.4.9-.8 1-1.3l.7-4.7v-.6c.7-1 1.5-1.8 2.3-2.7.5.8 1.6 1.7 1.6 2.6 0 2.8-.4 5.6-.6 8.4l-.6.3-.7-.4.5-6.5-.2-2.4c-.3.7-.8 1.4-1 2.2l-.7 4-.6 1.8c-.3 1-1 1.6-2 1.2-.5-.2-1.2-1.1-1.3-1.8-.2-2 0-4-.1-6 0-.2-.4-.5-.7-.8l-.6.6a23 23 0 00-.7 2.7c-.2 1.5-.3 3-.7 4.4-.1.4-1 .6-1.5 1-.1-.5-.4-1-.4-1.4l.6-6c.2-1.2-.4-1.5-1.3-1.3-1.4.4-2.8.8-4 1.4-.4.2-.5 1-.7 1.6l1.3-.3 1.2-.2h1.5c-.3.5-.6 1.2-1 1.5-.8.3-1.7.2-2.5.6a2.2 2.2 0 00-1 3c.6 1.1 1.7 0 2.5-.3.4-.1.7-.4 1.2-.8zM25.8 828c.2-1-.2-2 1.3-1.8h4c2.1.1 3.1 1.7 1.8 3.2-1.2 1.5-1.2 2 .5 2.7.4.1.6.6 1 .9l.7.4.2-1v-4.6c0-1.2.4-1 1-.3.7.9 1.4.7 2.5.3 1-.4 2.5 0 3.7 0l-3.1 1.7c-.8.3-1.7.3-2.4.7-.3.2-.2 1.1-.3 1.7.4 0 1 0 1.3-.2 1.2-.4 2.3-1 3.5-1.3.2 0 .6.4.9.6l-.4.5c-1.3.7-2.7 1.9-4.1 1.9-1.6 0-1.1 1.4-2 1.8.3.4.4 1 .7 1.3.1.1.7 0 1-.3l2.3-2.3c.3-.2.8-.2 1.1-.3 0 .5 0 1-.2 1.4-1 1.1-2.1 2.3-3.3 3.3-1.4 1.2-2.5.7-2.9-1.2-.4-2-.4-1.9-2-.7-1 .8-2.1 1.6-3.3 2.1-2.2 1-4 0-4-2.5 0-2.6.2-5.2.5-8zm2.1 5.9c-.2.4-.6 1-.6 1.3 0 .7.4 1.5.8 2 .1.2 1 0 1.5-.4l3-2.3c1.1-.8 0-1.5-.3-1.5-1.3 0-2.7.3-4.4.9zm-.6-5.4c0 .7-.2 1.4 0 2 .3.5 1.3 1 1.4 1 1.2-1.1 2.2-2.3 3.2-3.5-1-.1-2.2-.4-3.3-.4-.3 0-.6.4-1.3 1zM251.7 619.8c-2.1-.4-4 .7-5.7-.6-.2-.2-.8.2-1.1.4-.6.5-1.2 1.5-1.7 1.4-1.3 0-2.6 2-3.8.1-1.1-1.5-2-3.1-1.5-5.2.3-1.2.6-2.5.4-3.8-.2-2.1-.3-2.3 1.7-2.3h7.3c1 0 2.2.2 3-.9.2-.3 1-.4 1.5-.4l2.5.2c-.7.4-1.5.6-2 1.1-.8.6-1.6 1.3-1.9 2.2-.3 1 .8 1.3 1.6 2 1.3.8 2.7 1.8 2.4 3.9-.2 1.6-1 2-2.7 1.9zm-2.3-5.3c-.4-.7-1-1.2-1.2-1.9-.5-1.2-1.3-1.8-2.7-1.5-1.4.3-3 .3-4.3.8-.6.1-1 1-1.4 1.6.6.4.7 1.3 1.9.7 1.1-.6 2.5-.8 3.8-1 .4 0 .9.5 1.3.7-.3.3-.6.6-1 .7-1.1.4-2.3.9-3.5 1.2-1.5.4-2.1 1.3-2 3 .2 1 .4 1.3 1.4.7 2-1.4 4.2-2 6.6-1.8 1.4.1 2.7-.3 4-.4l-3-2.8zM105.2 834.2v-6.3c0-1 .1-1 1.4-.7.3.1.6-.1 1-.3 2-1.5 3-1.5 4.3-.3 1.4 1.2 1.5 2.6.6 4.8-.2.6-.7 1.7-.4 1.9.8.9 2 1.5 3 2.2 0 0 .6-.4.7-.8 1-1.9 1.8-3.9 2.7-5.8.2-.4 0-1 .3-1.2.7-.6 1.5-1.4 2.3-1.4.5 0 1.3 1.4 1.3 2.1.2 3.2.1 6.4 0 9.6 0 .5-.4 1-.7 1.4-.3-.5-.8-.8-1-1.3-.1-.8 0-1.7-.2-2.6 0-.4-.4-1.2-.5-1.2-.6 0-1.3.2-1.7.5-1 .8-1.7 2.5-2.5 2.6-1.3 0-2.7-1-4-1.6-1-.5-2-1.3-3.2-1.8-1.7-.9-2-.7-2 1.1v3l-.5.7c-.2-.2-.6-.5-.6-.7-.2-1.2-.2-2.4-.3-3.9zm2-3.7c1 1.3 2.2 1.7 3.3 1 .7-.4 1.1-2.3.7-3.2-.6-1-1.8-1.1-2.8-.2-.5.4-.8 1.2-1.2 2.4zm12.6-2l-.6 3.8c0 .1.3.5.6.5.2 0 .6-.2.7-.4.3-1 .5-2.2.6-3.3 0-.3-.6-.6-1.3-.6zM72.7 41.3c-.6.4-1 .7-1.5.8-1.7.6-2.5.2-2.6-1.5a24 24 0 010-3.6l.6-5.4c.2-1.2.2-1.5 1.9-1.3 3.2.2 6.5.9 9.8-1 2.5-1.5 6 1.5 6.4 4.5.3 3.8-1.8 6-4 7-2.1.9-3 .4-3.4-1.8-.4-1.9-1.6-3.5-1.6-5.7 0-.6-.7-1.9-2.2-1.5-1.3.3-2.6.5-4 .6-1.1 0-1 .9-.8 1.3.2.4 1 .7 1.5.7.3 0 .7-.6 1-.6.7 0 2 .2 2 .4.3 1.4-1 .7-1.5 1-.5.1-1 .6-1.4.5-1 0-2 .2-2.2 1-.3 1-.1 2.2-.1 3.3l.8-.1 2.8-2.1 1.4-.7c.3 0 .7.1.9.3l-.1.9-3.7 3zM86 32.8l-2-1.7c-2.3-1.3-4.2-.2-4 2.3a17 17 0 001.6 5c.5 1 1.2.9 2 0 1.6-1.3 2.2-3 2.4-5.6zM150.5 21.1c-3 0-5.6.5-7.6-1.8-.2-.3-1.3 0-1.7.2-1 .5-1.7 1.3-2.6 1.9-1.5 1-2.9.6-3.4-.9-1.1-2.8-.6-5.8-.7-8.7 0-.2.3-.6.5-.6 1.4-.3 2.7-.7 4-.7 1.4 0 2.7.6 4 .9-1 .3-2.1.8-3.3 1-.7.2-1.5 0-2.3.1-.3 0-.8.5-.9 1-.2.8.3 1.1 1.1 1 1-.2 2-.6 3-.7 1 0 2.3-.4 3 .8-.9.4-1.8 1-2.8 1.2-1 .2-2 0-3 0-.9 0-1.5 0-1.3 1.2.1 1 0 2.3.4 2.7 1 .7 1.7-.6 2.5-1 1.3-.8 2.7-1.2 4.4-.3 1.7.8 3.8 1 5.7 1.4.3 0 .8-.2.8-.3 0-.3 0-.8-.2-1a53 53 0 00-4-3.4c-1-.7-1.2-1.9-1-2.9.7-2 5.2-3.8 7-3 .2 0 .4.4.3.5-.1.3-.4.6-.7.8-1 .3-2.2.5-3.2 1-1.8.8-1.9 1.6-.4 3 1.2 1 2.6 1.8 3.7 3 1.1 1.4.8 2.2-1.3 3.6zM204.6 600c-1 .5-1.9 1-2.8 1-1.2 0-1.6.4-1.4 1.6l.3 2.5 1.6-1.5c.5-.4 1-.8 1.6-1l1.2.2c-.1.3 0 .7-.3.9l-2.3 2.3c-1.8 1.7-4.3 1-4.7-1.3-.2-1.3-.5-3 .1-4 1.4-2 0-1.5-1.2-1.6-1.3-.1-2.7-.6-4-.6-.8 0-1.5.6-2.3 1-.9.4-.5 1 .1 1.4l4 2.2c1.1.5 1.6 1.4 1.2 2.4-.2.6-1 1.4-1.6 1.5-2.2.6-4-.6-6-1.3-.3 0-.2-1-.3-1.5.4 0 .8.1 1.1.3 1.4.4 2.8 1 4.2 1.2.3.1.8-.5 1.2-.8l-1-.5c-1.4-1-3-1.9-4.3-3-1.2-1.2-.8-2.8.6-3.6 2.1-1.1 4.4-2.2 6.7-.4.9.7 1.3.3 1.8-.3.8-.8 1.4-1.7 2.4-.3.2.2 1.3-.3 2-.3l3.1.2c-.4 1.4-1.6 1-2.6 1.1h-.3l-2.2 1.3c.6 2 1.4-.4 2.2 0 .7.3 1.5.2 2.2.2v.3l-.3.4zM30.6 779h2c1 0 1.5-.1 1.3-1.3v-1c0-1 0-2 1.2-2.4 1.2-.4 2.4 0 3 1.2l1.8 3.3.4.8c.1-.3.3-.6.3-1v-4c0-.3.3-.6.4-1 .3.4.9.7.9 1 .3 3 .5 5.8.6 8.8 0 .5-.6 1-1 1.5l-.9-1.2c-1-1.9-1.7-3.8-2.7-5.6-.4-.9-1.4-2.4-1.7-2.3-1.3.4-1 1.8-1 2.9v4.6c0 1-.3 2-.5 3-1.5-.6-.7-1.9-.7-2.8-.2-3.2 0-3.2-3.4-3.2h-2.3c-2 0-2.1.2-1.7 2.3v.7a2 2 0 01-1 2.2c-.3-.7-.9-1.3-1-2-.3-2.8.6-5.5-.6-8.1-.1-.3 0-.7.1-1l1.3-1.5c.2.6.5 1.1.5 1.7l.3 3.6 2.8-2 3-2.3c.2-.2.6-.2.9-.3 0 .3 0 .7-.2.9l-3.7 3.7-1 .5 1.3.2h1.3zM186 30.6c-.9 2-1.2 3.8-2.2 5.4-1 1.7-2.4 1.4-3.3-.6-.4-.7-.5-1.5-.7-2.3l-.7-3-.5-1.4c-.3.5-.8 1-.8 1.6V37c-.2.9-.7 1.7-1.8 1.3-.6-.2-.4-.8-.3-1.6.3-2.9 0-5.8 0-8.7.1-1.4 1.1-2.2 2.8-2.2 1.3 0 1.8.5 2 2 .3 2 .8 4 1.3 6 0 .3.3.6.5.6.3 0 .7-.2.8-.4 1-2 1.8-4.1 2.7-6.2v-.3l2-2.4c.6.8 1.8 1.6 1.8 2.3-.1 3-.6 6.2-1 9.2l-.5 1.2c-.3-.3-.8-.6-1-1-.9-2-.4-4.2.3-6.3.2-.6.8-1.2-.3-1.3-.2 0-.6.8-1.2 1.4zm-8.2-3.1l-.4-.3c0 .2 0 .4.4.3z"/>
  <path fill="#00EBAB" d="M191.3 804.4l-2.3 2.3c-2 1.8-4.6 1-5.2-1.5-.2-.6 0-1.3 0-2l-.3-.9-.7.6c-1.1.9-2.2 2-3.5 2.7-1.9 1.1-2.8.6-2.8-1.5v-9c0-.3.2-.6.3-.8.3.1.8.2 1 .4.3.2.6.5.6.8 0 2.5-.2 5-.4 7.5v1.1c.4 0 .8 0 1.1-.2l4-3c.5-.3.5-1 .7-1.6.2-1.1-.6-2.5.7-3.4.5-.4 1-.8 1.5-1 2-.4 4.9 1.4 5.8 3.4 1 2 .5 4-.5 6.1zm-.9-4.5c.3-1.1-.4-1.8-1.1-2.5-.7-.7-1.4-1.6-2.5-1.1-1 .4-1 1.4-1 2.5 0 2.1.4 4.5-.3 6.5-.6 1.8.7 1 1 .9 2.5-.7 3.8-2.6 4-6.3zM181.8 760.3a6.1 6.1 0 001.4-4.1c0-.3.7-.7 1.2-1 .1.5.6 1.1.5 1.6l-2.5 9.6c-.1.6-.5 1.2-.8 1.7-.1 0-1-.2-1.1-.4 0-.7 0-1.3.2-2 .7-2.7.7-2.7-1.4-4.3l-.3-.2c-1.3-3-4-2.2-6.3-2.2-.5 0-1.3.2-1.5.6-.3.5 1 2 1.8 2l3.4-.6.5.1c0 .3-.2.6-.3.7-1 .4-2.2.7-3.2 1.2-.6.3-1.4.8-1.5 1.3-.3.8 0 1.7.1 2.5.4 0 .9 0 1-.3.6-.5.8-1.3 1.4-1.7.4-.4 1.1-.4 1.7-.5-.2.5-.4 1-.8 1.4l-3.2 3.2a6.1 6.1 0 01-2.3-4.7V759c0-1.4.6-1.9 2-2 1.6 0 3.5.7 4.8-1l1.2.7c1.3 1.3 2.6 2.7 4 3.7zM157.8 846.9v1.6c.4-.2 1-.2 1.1-.5.5-.7.6-1.6 1-2.2.8-1.3 2.8-1.4 3.6-.2 2.1 3.1.8 8.3-2.2 9.9-2.2 1.2-4.2-.4-4-3l.1-1-.9.3c-.4.3-.8 1-1.2 1-2.5-.3-2.7 1.3-2.9 3.1 0 .6-.6 1-1 1.6-.3-.6-1-1.5-.9-1.9 1.2-2.3.4-4.7.6-7 .2-1.6 2.3-4.5 3.7-4.3 1.2.1 2.8.4 3 2.6zm3 6.6c1.8-1.5 2.4-3.4 2.3-5.7 0-.3-.3-.9-.5-.9-.5 0-1.2 0-1.4.4-.8 1.3-1.5 2.7-2 4.1-.4 1 0 1.7 1.6 2.1zm-7.7-3v.7c1 .4 3-.5 3.4-1.5.3-1-.2-3.7-.8-4l-.7.3c-2.4.4-1.8 2.3-1.9 4.5zM53.4 23c-2.5-3-1.7-8.3 1.4-9.7.7-.3 1.5-.2 2.3-.1.3 0 .5.4.8.6-.3.3-.6.7-.9.6-1.4 0-2 .5-2.6 1.8-1 1.6-.9 3-.4 4.6.4 1.2 1.8 1.3 2.8 1 2-1 3.7-2.4 4.4-4.7v-1l1.3-3c1.5 1 .6 2.2.4 3.4v.6h.7l1-1.6c.6-1 1.5-1.2 2.5-1l.6.1-.3.7c-1 1.6-3.4 2.1-3.2 4.4l5.4 1.4 1.5.3c.3.1.5.5.8.7-.3.1-.6.4-.8.3-2.1-.2-4.3.7-6.4-.5-.3-.2-1.2.2-1.4.6-.3.5 0 1.6-1 1.2-.6-.2-1.7-.8-.7-2l.2-.1c0-.4-.2-.8-.3-1.1-.3.2-.7.3-1 .6-1.4 2.3-3.6 3-6.2 2.7-.3 0-.5-.4-.9-.8zM125.7 866.7c-.7 1.6-1.4 3-1.8 4.4-.2.8-.3 1.4-1.1 1-.4-.3-1-.5-.6-1.5.6-1 .3-2.6.3-3.9 0-.2-.4-.5-.6-.5-.3 0-.7.3-.7.5l-.7 4.3v.7c-.6.8-1.4 2.3-1.7 2.2-1.3-.4-1-1.7-.9-2.8l1.3-5.8c.1-.6 0-1.4.4-1.8 1-.8 2-1.4 3.1-2 .2 0 .8.4 1.1.7.2.2 0 .7 0 1l.3 2.9 1.2-2.4.7-.7c.6-1 1.7-1 2.6-.7.6.2 1.2 1.2 1.2 1.9v10c0 .2-.4.6-.5.6-.5-.3-1.4-.7-1.4-1l.2-5c.1-1.3.4-2.7.3-4 0-.5-.6-.9-1-1.3-.2.3-.7.6-.8 1-.4.6-.5 1.3-1 2.2zM206.6 566.3c-.6-2-1.1-3.7-1.5-5.6l-.1-2c-.2-.5-.6-1-1-1.5l-.2 1.5v6c0 .6-.2 1.3-.5 1.8-.1.3-.6.6-1 .6-.1 0-.5-.6-.5-.9V557c0-.4.2-.8.4-1.1 1.2-1.8 2-1.8 2.8.2 1 2.2 2.1 4.3 2.1 6.8 0 .3.3.6.4 1 .3-.4.8-.7.9-1l1.3-6.4v-.7l2.2-1.8c.4.7 1 1.5 1.1 2.3.4 2.7.5 5.4.7 8l-.3 1-.7-.7c-1.2-1.5-1-3.4-1-5.2 0-1-.2-1.8-.4-2.7-1 .6-.8 1.6-1 2.6-.3 2-.8 3.8-1.2 5.7-.3 1.4-1.2 1.7-2.5 1.4zM159.8 757.6c.2 1.3.3 2.2.7 3 .3.7 1 1.1 1.6 1.7.3-1.3 2.6.2 2.4-1.9-.1-1.1-.5-2.5.8-3.3.4 1.2 1 2.4 1.1 3.6.4 2.2.6 4.4.7 6.7 0 .5-.7 1-1 1.5l-1-1.6V766c0-2-1.6-3.1-3.5-2.4-.2.1-.4.5-.4.7v1.3l-.6 2c-.5-.7-1.3-1.4-1.4-2.1-.2-1.6 0-3.1-.1-4.7 0-.8-.4-2.1-.8-2.2-.9-.2-2 .2-2.9.5-.2 0-.3.6-.2.8 1.4 2.4.2 5 .6 7.4 0 .3-.4.7-.5 1-.3-.3-.8-.5-.8-.8l-.7-5.3c0-.8.2-1.8-.2-2.3-.3-.4-1.4-.2-2.1-.3-.4 0-.7-.3-1-.5l.7-.8c.2-.2.5-.5.8-.5 2.6.4 5.1-1.6 7.8-.2zM50.6 853.5l-.5 3.3c-1.7-.6-.8-2-.8-3 0-2.9.4-5.8.6-8.7l.3-.9c.2.2.6.4.7.7.2.3.3.7.3 1.1.1 1 .6 1.1 1.3.6l.2-.2 3-.1v.4l-2.6.8h-1.3c-.3.2-.5.7-.5 1l.2.9c1.6 0 3.3.1 4.9-.1.4-.1.5-1.6 1-2.2.7-1 1.5-2 2.5-2.5 2.1-1.1 3.9 0 4 2.4v3.6c-.1 2.5-2 4.6-4.2 4.8-1.7.1-3.1-1.3-3.8-3.7 0-.3-.4-.7-.7-.8-1.7-.5-3.5.4-4.6 2.6zm9.6-7.3c-1.8 1.5-2.4 3.4-2.3 5.6.1 1.5 1.4 2.2 2.5 1.5 2-1 3-5.4 1.7-7.1-.2-.4-1-.3-1.9 0zM45.3 884.8v-2.3c0-2.5.6-3.4 3-3.6 1.2 0 2 .9 2.3 2.2l1.1 5.1c0 .4.4.8.7 1.1.3-.4.9-1 .8-1.2-.6-1.7.3-3.2 0-4.8 0-.5 0-1.1.2-1.6.1-.3.6-.6 1-.8l.2.9c.5 1.8 1.2 3.4 0 5.4-.6 1.2-.5 2.9-.7 4.3 0 .7.2 1.5-.9 1.3-.6-.1-1.2.3-1.8-.7-1.2-1.8-1.5-3.6-2-5.5-.1-.6.7-1.8-.7-1.7-.2 0-.5 1.2-.6 1.9l-.7 5.3c0 .3-.7.7-1.1.6-.3 0-.8-.6-.8-1v-4.9zM26 879.5c0 1 0 1.8.2 2.5.2.8.7 2 1 2 1.5 0 .4-1.3.8-2 .7-1.7 1.5-3.5 2.4-5.2.2-.5.7-.9 1-1.3l.8 1.2c.2.4.4.8.4 1.2v9.3c0 .3-.4.6-.5 1l-.8-.8a4 4 0 01-.2-4.2c.4-.8-.1-2-.2-3-.5.8-1.2 1.7-1.6 2.6-.4 1-.3 2.1-.8 3-.3.5-1.2 1-1.8 1-.5-.2-1-1-1.4-1.5-.2-.5 0-1.1-.2-1.6-.1-.3-.6-.6-.9-.8l-.2.9v4.6c0 .4-.4.7-.5 1-.4-.1-.9-.2-1-.5-.4-.4-.6-1-.5-1.5.4-2.9.7-5.8 1.3-8.7.3-1.1 1.1-2.1 1.7-3.1 1.5.9.8 2.3 1 3.9zM60.4 783.8l-1.2-4.8c0-.3-.5-.5-.7-.7-.2.3-.6.6-.6 1 .2 2.3-.9 4.5-1.3 6.7-.2 1.3-.8 1.3-1.4.5a6.5 6.5 0 01-1.2-2.8c-.3-2.6.4-5.2-.7-7.8 0-.1.5-.9.8-.9.4 0 1 .4 1.1.6v4.4l.3.9c.3-.3.8-.5 1-.9l.1-1.5c.3-1.3 1.1-2.2 2.4-2.2 1.2 0 1.6.9 1.6 2s.4 2.3.7 3.4c.1.5.6.8 1 1.2l.3-1.2v-4.6c0-.7 0-1.4.2-2 .3-.7.9-1.4 1.3-2l.5 2.2v6c0 .8-.4 1.6-.5 2.5-.1 1-.6 2.2-1.6 2.1-.7 0-1.3-1.3-2-2.1zM33.1 50.3c.7-.8 1.2-1.7 1.8-1.7.5 0 1.4.7 1.7 1.4.8 1.8 1.3 3.8 2 5.8l.7 2c.1.3.6.4.9.6l.4-.8c.4-2.8.4-5.6 0-8.4 0-.5.3-1 .4-1.4.6.4 1.4.8 1.5 1.3 1 3 1.1 6.1 0 9.1-.3.9-1.2 2-2 2.1-1 .2-2-.3-2.7-1.5-1-1.8-1.2-3.7-1.8-5.6-.2-.4 0-.9-.2-1.2-.2-.4-.6-.6-1-.8l-.2.9v7.6c-.1.5-.6.9-1 1.3-.3-.5-1-1-1-1.4 0-3 .2-6.1.5-9.3zM87.4 881c.5-.3.9-.6 1.3-.6h1.8c-.4.4-.7.8-1.1 1-2.1 1.5-2.1 1.8.1 3.4l2.8 2 .9-3 .7-2.4c.4-1.4 1.5-1.3 2.6-1.2.3 0 .6.3.7.5l-.4.8c-2.8 1.6-3 4.3-2.9 7 .1.8 1 1.5 1.7 2.3.2-.9 1.9-.3 1.7-2 0-1 .7-2.3 1.3-3.3 1-2 .7-3.9-.1-5.8l-.3-.9c.3.1.7.1 1 .3.7.7 1.4 1.4 1.4 2.7 0 3-.4 5.6-2 8.2-1.8 2.8-4.2 3.2-6 .3-.6-1-.6-.7-1.5-.5-1.8.4-3.7.3-5.5.3-.3 0-.6-.6-1-.9.4-.1.7-.4 1-.4h4.7c.3 0 .6-.4 1-.6l-.9-.7-2.6-1.7c-2.2-1.8-2.2-2-.4-4.8zM51 31.6c1.1-.8 2-.7 2.5.1.9 1.2 1.7 2.4 2.4 3.7.3.6 0 1.5 0 2.3-.1 2-1 3.2-2.2 3.4-2 .4-3.7-.6-4.4-2.5l-.4-.8-.3.9c-.2.4-.6.7-.6 1-.1 1.8-1 2.6-2.7 2.7-1.9.2-3-.7-3.6-2.4-.7-2.2-.8-4.2.2-6.2.8-1.5 2-1.9 3.4-1 1.4 1 2.9 1.8 3.3 3.6 0 .2.3.4.4.6l.2-.6c.2-1.7.4-3.3 1.9-4.8zm-5.4 3.5l-1.8-1.3c-.4.8-1.1 1.6-1.1 2.3 0 1.6.3 3.2 1.6 4.3.2.2.7.5.9.4 1.8-.8 2.4-3.8.4-5.7zm5.3.7l-.3 1.2c-.1 1.4.5 2 2 2.2 1.6 0 1.6-1.3 1.9-2 .2-.7-.4-1.6-.5-2.4-.2-1.4-1-2-2.2-1.6-.4.1-.4 1.5-.9 2.6zM152.5 784.3l-.6 1.3c-.2-.2-.7-.5-.7-.7v-5.7c-.1-1.9-.1-1.8-2.1-1.3-1.5.4-2.2.8-2 2.5.2 2 0 4.2 0 6.3 0 .3-.4.6-.6.9-.2-.3-.6-.5-.7-.8-.3-.9-1-2.2-.6-2.7 1.3-1.5-.4-3.1.3-4.6 0-.2-.8-.8-1.3-1.2l-1-.8c.3-.4.6-1 1-1.2.6-.2 1.3 0 2 0h3.6c1.6-.1 2.6.6 2.6 2.2 0 1 .4 1.1 1.2 1.1 1.2 0 2.5.3 2.8-1.4.2-.6 0-1.3.1-2 .1-.4.6-.8 1-1.2l1 1.5c0 .3-.2.8-.4 1.1-.7 1-.2 1.3.8 1.3.4 0 1.4 0 .5.8-1.7 1.5-1.7 3.4-1.6 5.3 0 .4-.4.8-.6 1.3-.5-.3-1.1-.6-1.2-1-.2-.6-.3-1.5 0-2.2.4-.8 1.3-1.7-.3-2.1-2-.5-2.9 0-3.2 1.6v1.7zM77.9 57.8c-.3-2.7.5-5.1-.6-7.4-.2-.4.5-1.8.9-1.8.9-.1 2.3 0 2.6.6 1 1.6 1.6 3.5 2.4 5.2l.5 1.5 1.2 1.8.3-2.1V47c0-.4.5-.8.7-1.2.2.4.6.8.6 1.2l.7 9.7c0 1.2 0 2.6-1.5 3-1.6.5-2.6-.6-3.1-2l-2-5.5-1-1.7c0 .6-.4 1.1-.3 1.6.2 2-.6 4 .5 6.1.3.7-.9 2.2-1.4 3.3 0 0-.5 0-.7-.3-.7-1-.8-2.1.2-3.4zM96.5 56.4c.8-.2 1.3-.4 1.7-.7 1-.4 1.7-1.7 3-1-.6 1-1.1 2-2 2.6-.9.8-2 1.3-3.1 1.9-2.5 1.2-4 .3-4.2-2.3-.1-1-.4-1.8-.6-2.7 0-.2-.2-.6 0-.6 1.5-1.5.4-3.5.9-5 .4-1.4 1-2 2.8-1.6 2.2.5 4.6 0 7 .1l1.1.3c-.4.2-.8.6-1.2.7-2 .3-4 1-5.9.9-1.5 0-1.4 1-2 1.7-.5.7 0 1.2.8 1 1.5-.1 3-.4 4.4-.6.4 0 .9.4 1.3.5-.3.5-.5 1.2-.8 1.3-1 .2-2.2.1-3.3.2-2 .2-2.6.7-2.5 2.7 0 .7.3 1.3.5 2 .6-.5 1.2-1 2.1-1.4zM152.5 804.2a121 121 0 00-.6-4c-1.8.6 0 2.7-1.4 3.5-.3.3-.1 1.3-.4 1.8-.3.6-1 1.4-1.3 1.3-.6-.3-1.6-1-1.6-1.5v-9.7c0-.2.5-.4.7-.7l.6 1v6l.2.9c.3-.2.8-.4 1-.7.5-1.6 1-3.2 1.3-4.8.2-1 .8-1.2 1.5-1 .3 0 .6.8.6 1.2l.7 6c0 .3.4.5.5.7.3-.2.8-.4.8-.7l.7-6.4c.1-.5.7-1 1-1.5.3.5.7.9.7 1.4.1 1.5.2 3 0 4.4 0 1-.9 2-1 2.9-.1 1.4-1 2.4-2 2.5-.7 0-1.4-1.5-2-2.6zM125.2 767.6c-.9.6-1.7 1.4-2.1-.3-.5-2.4-1.2-4.6-2-6.9-.3-1-1-2.7-1.3-2.6-1.6.2-1.3 1.7-1.3 2.8v6.6c0 .6-.6 1.1-.9 1.7-.4-.6-1-1.2-1-1.7 0-3.1.2-6.3.7-9.4 0-.8 1.2-1.7 2-2 .5-.3 1.7.5 2 1 .8 1.7 1.3 3.5 1.9 5.3 0 .3.2.6.3.8.1-.2.3-.5.3-.8v-4.6c.1-.6.6-1.1.9-1.7l.5 1.4c1 2.9 1 8 0 10.4zM118 578c.7.1 1.7.6 1.7.7-.6 2.1 2 4 .1 6.1v.4l-.5 2.6c-.8-.7-1.8-1.2-2.4-2-1-1.4-1.6-3-2.4-4.3l-1-1-.3 1.2v6.3c0 .6-.1 1.3-.4 1.8-.1.3-.7.6-1 .6-.2 0-.6-.5-.6-.9l-.7-6.6c-.1-1-.5-1.9-.6-2.8 0-.4.4-.9.7-1.3l.6.8.3.9.4-.9c.2-.6.3-1.5.7-1.7 1-.4 1.5.4 2 1.2.9 1.6 2 3.2 3 4.7.1.3.4.4.6.6l.3-.9-.5-5.5zM259.7 558.5c-.2 2 .6 3.8-1.2 4.8-.4.3-1.2.3-1.6 0-2-1.4-2.6-3.7-3.2-5.9-.1-.3-.4-.6-.7-.9-.2.4-.7 1-.6 1.2.8 1.8-.1 3.6 0 5.4 0 .6-.4 1.2-.7 1.7-.2.2-.6.4-.9.3-.2 0-.4-.4-.4-.7v-9.6c0-1.5 1.3-1 2-1.5.7-.6 1.6.2 2 1.1l2 5.2.6 1.7.7.5c.2-.2.6-.5.6-.8-.2-2.6.7-5.2-.6-7.7-.2-.5.3-2 .4-2 1.1 0 1.6.7 1.6 1.9v5.3zM209.6 595c1.8-1.4 3-1.4 4.2 0 .9.7.9 2.6 0 3.7l-1 1c-.8.8 0 .7.5.8 1.1.2 2.2.3 3.3.7.4.1.7.7 1 1-.5.3-1.3 1-1.5.8-1.7-1-3.5-.3-5.1-.5-1-.2-1.4.3-1.3 1.2v.4c0 1.1.4 2.9-1.1 2.9-1.3 0-1.5-1.7-1.5-3v-7.9c0-.3.3-.7.6-1 0 0 .6.3.7.5 1.2 2 .4-1 1.2-.6zm.8 1.8c-.8.6-1.1 1.6-.3 2.2.9.6 1.7-.2 2.4-1 .7-.7 1-1.6.2-2.1-.6-.4-1.7-1.1-2.3 1zM62 833.5c0-3 .9-5.4 3-7.4 1.8-1.7 2-1.7 3.2.7l.4.6-.1.6c-.3-.1-.6-.1-.7-.3-.6-.7-1-.9-1.7 0-1.4 1.8-2.4 3.7-2.2 6 .2 1.5 1.2 2.3 2.4 1.7 1.5-.8 2.8-1.8 4.2-2.8v-.6c-.3-.2-.7-.5-1-.4l-3.4.6-.8-.3.6-.7c.8-.4 1.5-.8 2.3-1 3.4-.5 4.3.7 3.3 4l-1 3.6c0 .4-.5.7-.8 1-.1-.3-.5-.6-.4-1 .1-2-.6-1.7-2-1-2.9 1.5-4.7.4-5.4-3.3zM78.6 904.8v2.6c-.2.7-.7 1.3-1 2-.4-.6-.9-1.1-1.1-1.7l-2-5.2c0-.3-.2-.6-.4-1l-.2 1-.7 5c-.2 1-.6 2.1-1 3.2-1.3-.6-1-2-1-3l.7-8.4c0-.6.5-1.1.8-1.7.8-1.2 1.5-.5 1.8.3.6 1.4.9 3 1.4 4.4.2.4.7.7 1 1.1l.3-1.2v-4c.1-.6.6-1.3 1-2h.7c.2.2.4.7.3.9-1.5 2.4-.3 5-.6 7.7zM236.4 581.8v2.3c-.2.4-.6.7-1 1l-.4-1c-.5-.5-.8-1.3-1.7-.3-1 1.2-2.6 2-4 1.2a4.7 4.7 0 01-2.3-4.4c0-2.2-.2-4.5 1.8-6.2 1.6-1.4 3-1.7 4.8-.5.4.2.8 1 .7 1.4-.4 1.3-1-.1-1.3-.2-1.8-.6-3.6 0-3.9 1.8-.2 1.6-.2 3.3 0 5 .1 1.1 1.2 1.6 2.2 1.2 1-.4 1.7-1.2 2.4-1.9l1.3-1.7-2.2-.4c-.4 0-.7-.4-1-.7.2-.4.6-1.2 1-1.2 1.1 0 2.5-.5 3.5.9 1 1.2 1.1 2.2 0 3.7zM101.9 782.3l.6 3.7c0 .3-.4.9-.5.9-.4 0-1-.3-1-.6-.3-.7-.4-1.5-.5-2.2-.1-1.4-.9-2.3-2.1-2.5-1.4-.2-1.7.8-2 2 0 1.1-.7 2.1-1.2 3.1l-.7.9c-.2-.3-.6-.6-.6-.9.1-1.1.3-2.3.6-3.4l2-7.1c.2-.6.4-1.3.8-1.7 1.4-1.5 2.7-1.2 3.2.8l.7 3.4c.3 1.5 1.1 1.9 2.5 1.4l.7-.2c0 .3 0 .8-.3 1-.7.4-1.5.7-2.2 1.4zm-4-2.4H99c.1-.8.2-1.5 0-2.3l-.3-1.9-1 2v2.2zM168.6 607.3c-1.2 1.5-1.4 1.6-2.1.4l-2.9-5c-.2-.4-.6-.5-1-.8 0 .3-.2.6-.1 1 0 1 .4 2 .4 3 0 1.2-.3 2.4-.6 3.6 0 .1-.9.2-1 0-.4-.5-.8-1.2-.8-1.9V601c0-.6.1-1.8.3-1.8 1 0 2-.4 2.7.6l2.3 3.7 1 2.3.3-2.5-.6-4c-.1-.8-.2-1.6 0-2.3.1-.5.7-.8 1-1.1.1.5.6.6.6 1.4 0 2.9.7 5.8 1 8.6 0 .4-.2.8-.5 1.4zM165.1 856.2a865.6 865.6 0 011-10.6c2 .3 2-1.7 3.1-2.6 1.8-1.3 2.9-1.2 4 .8 1 2 1.2 4.2-.2 6-1 1.4-.2 1.4.6 2 .5.3 1.8.7 1 1.8-.7 1-1.4-.1-2-.3-1.5-.6-2.6-2.2-4.5-1.8-.4.1-.9.6-1 1l-.7 4s-.8 0-1.3-.3zm3-8.7c0 .4-.3.9-.1 1.1.6 1.2 1.9 1.2 2.8.8 1.4-.7 2-2 1.6-3.6-.2-.8-.8-1.5-1.3-2.3l-1.3 1.6-1.7 2.4zM42 864.8l-.8 6.4c0 .3-.3.6-.5 1-.3-.2-.9-.4-1-.7-.3-.5-.5-1.2-.4-1.8.1-1.7.4-3.3.6-5v-.3c.9-1.2 1.5-3.1 2.6-3.4 1.3-.3 2 1.4 2.2 3 .3 1.6.8 3.3 1.3 5 0 .4.6.7 1 1 .3-.4.8-.7.9-1.2l1.4-6.4c0-.3.4-.6.6-.9.2.4.7.8.6 1.2-.3 1.9-.7 3.8-1.3 5.7a11 11 0 01-1.3 3.4c-1 1.5-1.9 1.4-2.6-.1-1.2-2.4-2-4.8-2-7.5 0-.6.3-1.5-.8-1.3-.3 0-.4 1-.6 2zM141.2 579.2c.6-1 1.3-1.5 1.8-2.2 1-1.5 2.6-1.5 3.8-1 1.3.4 2 1.8 1.7 3.5-.3 1.6.9 4.3 2.1 5.5.3.3.4.7.5 1-.4.2-1 .6-1.4.4-1.7-.8-3.4-1.9-5.1-2.8l-1.1-.4v1.4l.3 3.5c.1 1-.3 1.2-1.1 1-.4-.1-.8-.6-.8-1l-.7-9zm5.6.6c.9-1.2.2-2.4-.7-2.5-.7 0-1.8 1.3-2.2 2.2-.2.5.5 1.4.8 2.2.5-.6 2-.2 2.1-1.9zM93.2 848.9v-3.4c.2-.5.8-.9 1.3-1.3.2.5.7 1 .7 1.4l-.7 8.7c0 .6-.5 1.2-.8 1.7-.2.3-.7.8-.9.7-.4-.1-.8-.5-.9-.9l-1.4-6-.6-2.8-.4-1.4c-.4.4-1 .7-1.1 1.2-.3.6-.4 1.4-.5 2l-.7 6.1c-.1.5-.6.9-1 1.3L86 855l.7-7.7c0-.4.1-1 .4-1.2.9-.7 1.5-2.5 2.7-1.8 1 .6 1.6 2.2 2.1 3.5.4.8.5 1.8.7 2.7l.5 1 .2-1.3v-1.3zM92.7 756.5h1c.5 1 .7 1 1.5.2.9-1 1.6-2 3.3-1.8 1.1.2 2.2 0 2.8 1.5.4 1.2.9 2-.3 3.1-.8.8-1.2 1.9.6 2.3.5 0 1 .3 1.4.7.3.2.6.8.5 1-.2.5-.4.8-1.2.3-1.3-.7-2.8-1-4.2-1.7-2-.8-2.7-.5-2.9 1.7 0 1 0 2.4-1 2.3-1 0-1-1.5-1-2.5l-.5-7.1zm3.2 2.1c.6 1 1.5 1.2 2.5 1 1.2-.2 2.1-1.7 1.4-2.8-.3-.4-1.6-.6-2.3-.4-.6.2-1 1-1.6 2.2zM41.1 888.6c-1.2 1.8-2.8 2-4.2 1.4-1.4-.6-2-2-1.6-3.6l1.5-8c0-.4.6-1.4 1.4-.4.6 1 1.4 1.2 2.5.5.5-.4 1.2-.4 1.8-.3.5 0 1 .6 1.3.9l-1.3.4c-1.3.5-2.6 1-3.9 1.7-.3.2-.5 1.2-.3 1.5.2.4 1 .6 1.5.5 1.1-.2 2.2-.7 3.3-1 .2 0 .7 0 .8.3 0 .2 0 .8-.2.8-1.2.6-2.5 1.2-3.7 1.4-1.2.2-2 .5-2 1.7l.3 1.7c.6-.1 1.3-.2 1.8-.5.6-.4 1-1 1.5-1.4.4-.3 1-.3 1.5-.5l-.7 1.6-1.3 1.3zM129.8 620.4c.7.2 1.9 0 1 .7-1.2.9-2.8 1.3-4.1 2-.7.4-1.3 1.1-1.5 1.8-.2.6.2 1.4.3 2.2l1.8-1.1.2-.3c1-.4 2.6-1.2 2.7-1 .8 1.3-.8 1.6-1.4 2.4a6 6 0 01-2.4 2c-2.2.6-4-1-3.8-3.7.1-2.4.8-4.8 1.2-7.2.1-.4.3-1 .5-1 2-.3 4-.6 6-.7.3 0 .6.4.9.6-.3.2-.6.6-.9.7l-3.3.7c-.6.1-1.3.4-1.6.8-.3.4-.3 1-.1 1.5 0 .2.8.3 1.2.3l3.3-.7zM107.9 746.3c-.2-2.2.2-4.2-.6-6-.6-1.3.7-2.2 2.3-2 .6 0 1.3-.6 2-.6 2.1 0 3.4 1.6 2.8 4-.2 1-.3 1.4.5 2 2.1 1.4 2.2 2.2.5 4-1.4 1.5-2.8 2.7-5 2.6-2.3-.1-2.4-.2-2.5-2.7v-1.3zm7.3-.3c-.1-1.2-.7-1.8-1.9-1.7-1 .2-2.5.2-3.2.9-.6.7-.7 2-.9 3.1 0 .2.6.6.9.6 2.1.3 3.4-1.2 5-3zm-6-5.4c0 1-.5 2.4.7 2.6.7.2 1.8-.6 2.5-1.2.5-.4.5-1.3.8-2l-1.8-.3c-.8 0-1.5.2-2.2 1zM145.1 902.1c0 2.2.4 4-.7 5.7-.5.8-1.1 1.4-2.3.4-2-1.7-1.9-4.2-3-6.2l-.6-1.7-.3-.8c-.3.3-1 .6-1 .9v5.6c-.1 1-.5 2-.7 3-.1.2-.6.4-.8.4-.2 0-.5-.4-.5-.6 0-2.7-.2-5.3 0-8 .2-1 1.2-2.2 2-3 .6-.5 1.5-1 2 .5.7 2.2 1.7 4.4 2.6 6.5.3.6.4 1.2.8 1.7.1.1 1.2-.1 1.2-.2 0-2.3-.2-4.6-.3-6.8 0-.4-.4-.9-.3-1.2.1-.5.5-.9.8-1.3.2.3.6.6.7 1l.4 4.1zM100.5 15.1c-.6 2.3-.9 4.2.7 5.9l-.7.8c-1.4-1.2-2.4 0-3.6.5-2.1 1-6.4-1.2-6.1-3.4.2-2.2-.2-5 2-6.3 2-1.2 4.5-2 6.8-1.3 1.5.4.8 2.3 1 3.8zm-1.3 1.7v-2.6c-.1-.6-.7-1.6-1-1.6-1.5.3-3.5.3-4.6 1.3-2 1.8-1.3 5.6 1 6.9.6.3 1.7-.2 2.5-.6.5-.2 1-.6.2-1.4-.6-.8-.8-2-1.2-3 1 .5 1.9 1 3.1 1zM114.3 623.6c-.2.5-.5.8-.4 1 0 .9.2 1.7.3 2.5l2.3-1c.3 0 .6-.3.8-.3l3.2.3c-.8.6-1.5 1.2-2.3 1.6-1.1.6-2.3 1.1-3.5 1.4-1.7.3-2.7-.5-2.8-2.3a81 81 0 010-7.4c0-1.2.4-1.8 2-1.3 1.7.5 3.5.3 5.3.4l.5.2c-.2.1-.3.4-.6.4l-3.3.7c-.5.2-.9.6-1.3 1l1.2.3 4.4-.6 1 .1c-.3.3-.4.8-.7 1-2 .6-4 1.2-6 2zM193 614.5h2l2 .2c-.7.4-1.3.8-2 1-1 .4-2 .4-3 .8-.6.2-1.2.6-1.5 1-.2.3-.2 1 0 1.3.2.3.8.4 1.2.3 1.1-.2 2.3-.4 3.2-1 .9-.5.9.3 1.3.4-.3.4-.4 1-.7 1.2-1 .3-2.3.4-3.3.8-.7.2-1.6.7-1.7 1.1 0 1 .3 2 .5 3.1.3 0 .6 0 .7-.2 1-1.4 2.3-2.4 4-2.7l.6.2c-1 1.3-1.9 2.8-3.1 4-2 1.8-3.2 1-4.2-1.5-.6-1.7-.5-3.4-.5-5 0-5.3-.6-3.4 4.6-5zM125.8 923.4v-1.6c0-1.3-.3-2.7 1.6-3 2.1-.4 4 .4 4.7 2 .2.3 0 .8 0 1.3l.1 1.3c2 2 2.1 2.8.5 4.8-.8 1-1.6 1.9-2.6 2.5-.7.5-2 .9-2.6.6-.7-.3-1.5-1.4-1.6-2.3-.2-1.7 0-3.5 0-5.6zm4 5c.8-.8 1.7-1.5 2.3-2.4.2-.2 0-.8 0-1.2-1.5.2-3 .2-4.3.7-.5.2-.6 1.7-.6 2.6 0 .6.6 1.3.9 2l1.7-1.7zm-1-5.6l1.7-1.6c-.7-.4-1.4-.8-2.1-1-.4-.1-1.2.4-1.2.5.2 1-.8 2.2.8 2.7l.8-.6zM88.5 827.5c.5.5 1.2.8 1.3 1.3.6 3.1 1 6.3 1.4 9.4 0 .4-.4.9-.6 1.3l-.8-1c-.2-.8-.3-1.7-.6-2.4-.1-.5-.4-1.1-.7-1.2-.4 0-1.1.1-1.4.5-.5.7-.7 1.7-1.2 2.4-.6.8-1.6 2.2-1.8 2-1.2-.4-1-1.7-.7-2.7l2.5-8.3c.3-.8.7-1.5 1.3-2.2.8-.9.8.5 1.2.8l-.5.1c-1.2 1.2-1.4 2.7-1.3 4.2 0 .2.2.3.3.5l1.4-3.4c.2-.4.2-.8.2-1.3zm-.3 4.7l-.2 1 .4.2-.2-1.2zM167.8 902.8l-.6-5c0-.3.3-.7.5-1 .2.2.6.5.7.8.3.5.7 1 .7 1.7v6.6c0 1.3-.9 1.5-2.1 1-2-.7-3-2.2-3.2-4.2v-1.3l-1-2.6-.3 2.5-.7 6c0 .3-.5.6-.8.8-.2-.3-.5-.6-.5-1V900c-.1-1.4.3-2.2 1.7-2.6 1.4-.4 2.2-.3 2.2 1 0 1.8.7 3.4 1.3 5 .3 1 .3 2 1.6 2 .2 0 .3-1.4.5-2.5zM72 852c.7.2 1.2 0 1.5.2.4.2.7.6 1 1l-1 .3c-2.1-.2-4.6.9-5.9-1.9 0 0-.8.1-1 .4-.2.1.1.7 0 1l-1.7 1.2-.2-1.8c.2-2 .3-4.1.6-6.1 0-.5.2-1.3.4-1.4 1.1-.2.8.7.9 1.3l.6.3 2-1.9c.8-1.1 2-1.4 3.1-1 1.1.5 1 1.6 1 2.6 0 1.8-.4 3.4-2.4 4-.4.1-.5.8-.8 1.2l1.3.1c.2 0 .3.2.7.5zm-2.4-2.5c.7-.7 1.6-1.3 2-2.1.3-.7 0-1.6 0-2.4-.5.3-1.2.5-1.7.9-.7.5-1.5 1.1-1.8 1.9-.3.6-.8 1.8 1.5 1.7zM125.7 21.6c-.5-.4-1.1-1-1.2-1.7v-8.3c0-.4.5-.7.7-1.1.2.3.5.6.6 1l.2.8.5-.8c.8-.8 1.4-2 3-1.7 1.2.1 1.2 1.2 1.9 1.7 1 1-.8 1.3-.2 2-.6.3-1.4.6-1.8 1.1-.5.7-2 .3-1.5 1.6.3.7 1 1.2 1.6 1.6 1.2.6 2.5 1 3.6 1.7.4.2.5.9.7 1.3-.5.1-1.1.5-1.5.3-1.3-.6-2.6-1.2-3.8-2-1.3-.7-2.2-1.2-2 1 0 .4-.4.9-.8 1.5zm4.5-9.1c-.2-1.2-.7-2-1.8-.8-.6.6-1.2 2.4-1 2.5 1.2.8 1.4-.8 2.2-1.2l.6-.5zM24.6 15.8l3-.6c1.8-.2 2.7.7 2.1 2.4-.2.7-.7 1 0 1.6 2.2 1.6 2.3 3.7.3 5.5-1 .9-2.3 1.7-3.6 2.3-1.4.6-3-.3-3-2-.2-1.3 0-2.6-.1-4 0-.9-.3-1.8-.5-2.7-.4-1.4-.1-2.3 1.8-2.5zm3.7 8c2-.1 2-1.8 1.5-2.9-.4-1-1.8-.7-2.7 0-.7.7-1.8 1-2.3 1.8-.5.9-.5 2 .6 2.9 1 .7 1.3-.4 1.8-.8l1-1zm-3.7-5.7c.2.7-.6 2.5 1.3 1.4 1-.6 1.9-1.4 2.8-2.1l.5-.7c-.3 0-.6-.3-.9-.2l-3.7 1.6zM58 830.2c0-.7.3-1 .4-1.3.3.2.8.4.8.7.4 2.3-.4 4.4-1 6.6 0 .3-.2.5-.3.8 0 1.4-1 2.5-2 2.4-.8 0-1.4-1.4-2-2.3-1-1.9-.5-4-.7-6 0-.3-.4-.6-.6-.9-.2.3-.6.5-.7.9l-.7 5.3c0 .3-1 .8-1.3.7-.9-.3-.1-.8 0-1.4l.7-5.6c.1-.7.3-1.5.7-2 .4-.6 1.1-.8 1.7-1.1.3.5.8 1 .9 1.6l1.4 7.7c0 .5.6.8 1 1.2l.3-1.2 1.3-6zM158 863.3c-.8 1.3-2.2 1-3.3 1.5-.3.2-1-.1-1.3.1l-1.6 2.3 2.3-.4 3.6-1c0 2-1.8 2-3 2.4-2.7.8-3.1 1.4-2.9 3.8 0 .3.2.5.3.8l.7-.7 1.7-2.3c.2-.2.6-.3.8-.3.2 0 .5.6.5.7-.8 1.3-1.3 3-2.5 3.8-.8.6-2.5.5-3.5-.8-.5-.7-.2-1.4-.3-1.8-.8-2.7 1.5-4.9 1-7.4-.2-.8.3-1.6 1-1.1 2.1 1.2 4.2.2 6.5.4zM119.3 54l3.5-4.9c.2-.3.2-.7.3-1.1-.5 0-1.3-.4-1.5-.2-1.1 1-2 2.3-3.1 3.4l-1 .6c0-.3-.3-.6-.3-.8-.4-2 1-2.9 2.2-3.7 1.2-.9 2.8-1.4 4.2-.7 1.3.7 1.3 2 .6 3.1l-3 4.4-.6.8.9.2 5.4-.6c.3 0 .6.3 1 .5-.3.2-.5.6-.8.7-1.3.5-2.5 1.2-3.8 1.3-1.6.2-3.2 0-4.5 1.4-.2.2-1.2 0-1.4-.2-.3-.3-.3-1.1 0-1.5.4-1 1.1-1.8 2-2.8zM166.5 739.6c-1 .6-1.8 1-2 1.6-.2.9-.7 2.6 1.6 1.3 1-.6 2.5-.2 3.8-.2.2 0 .4.2.5.4l-.5.3-3.8 1.3c-.5.2-1.5.3-1.6.5v3.3c.5 0 1 .1 1.2-.1l2.9-2.8c.2-.2.6-.3.8-.2.2.1.4.6.4.8-.6 1.5-4 3.9-5.4 3.8-1.3 0-2-.5-2-1.9v-8.3c.1-.4.5-1 .8-1l7.8-.7.8.3-1 .3c-1.3.5-2.6.9-4.3 1.3zM129.3 567.7l-.4-.4c-.9-2.7.1-9 1.7-11.3.8-1 1.6-1.2 2.3 0 .4.7.8 1.5 1 2.2a171 171 0 011.9 8.2c0 .4-.5 1-.7 1.4-.4-.4-1-.8-1.2-1.3-.2-.2 0-.7 0-1-.1-.8.3-1.8-1.3-1.7-1.2 0-2.1.3-2.1 1.8v2.3c-.4 1.3-.7 0-1.2-.2zm2.9-10.5c-1.8 1.3-.8 3.2-1 4.9 0 0 .8.4 1 .3.9-.5 1.2-1.3.8-2.4l-.8-2.8zM59.7 30.3c1.6-1.1 3-1.4 4.3 0 1.5 1.4 2 3.2 1.9 5.1 0 .8-.5 1.6-.7 2.4-.4 2-4 4.4-6.4 2.5-.4-.3-.8-1-.9-1.6l-.6-5.7c-.2-1.7.3-2.8 2.4-2.7zm-.5 5.2c.3.8.6 1.7.7 2.6.1 1.6 1.2 1.2 1.8.8 2-1 2.8-4.3 1.8-6.5-.3-.7-.4-1.5-1.7-1.3-1 .1-1.6.4-1.9 1.3a18 18 0 00-.7 3zM56 798c.4-1.4.5-3 .6-4.6 0-.4.2-.7.3-1.1.4.3 1 .6 1 1l-.2 6.8c0 .5-.3 1-.2 1.4.3.6.9 1.1-.2 1.4-.4 0-1.2-.4-1.3-.8a87 87 0 01-2-5.8c-.4-.9-.5-1.8-.8-2.7 0-.4-.3-.8-.4-1.2-.3.4-.8.8-.8 1.3l-.7 8c0 .7 0 1.5-1 1.1-.4-.1-.9-.5-.5-1.6.7-2.4.5-5 .8-7.6.2-.9.8-1.8 1.4-2.4.9-.8 2.2-.3 2.5 1 .4 1.4.5 2.9.8 4.3 0 .5.4 1 .8 1.6zM103.2 862.2h2.3l2.3.2c-.8.4-1.6.8-2.4 1-.6.4-1.3.6-2 .8-1.7.2-1.6 1.5-1.5 2.7l.7.2 2.8-1.4h1c-.2.4-.3 1-.7 1.1-1 .5-2 .8-3 1.4-.6.3-1.2.9-1.4 1.5-.2.5.1 1.2.2 1.8l1.6-1 1.7-1.5c.1-.2.5 0 .8 0 0 .3.2.8 0 1-1.2 1.3-2.4 2.7-3.7 3.8-1.3 1-2.7.2-2.7-1.4.1-2.9.4-5.8.8-8.6.2-1.6 1.5-1.8 3.2-1.6zM113.3 727.2c.5-.5.8-.9 1.2-1.1l1-.4c.2.4.5 1 .3 1.2-1 1.2-2 2.6-3.4 3.3-1.3.8-2.7-.3-2.5-1.8.4-2.7 0-5.4 0-8 0-1.1.3-1.9 1.2-2 2.3-.4 4.7-.5 7-.7.3 0 .7.3 1 .4-.3.3-.6.8-1 .9l-4 .7c-.5 0-1 .6-1.4.6-1.1 0-1 .8-.8 1.4 0 .3.7.6 1.1.6 1 0 2-.3 2.9-.3.4 0 .8.3 1.1.5l-.8.5-1.7.6c-2.4.5-3.4 2-2.6 4.3 0 .2.7.5.7.4l.7-1.1zM115 892.6c-1.6-.7-.7-2.3-1.2-3.3-.7-1.6.4-2.1 1-3.1 1-1.7 1.6-3.6 2.4-5.3.2-.6.3-1.3.7-1.7.2-.2 1.2-.1 1.2 0 1.3 4.4 2.8 8.8 2.7 13.5l-.4.7c-.2-.2-.6-.4-.7-.7-.3-1.3-.4-2.7-1-4-.1-.5-1-1.1-1.5-1.1-.6 0-1.4.6-1.6 1.1-.6 1.2-1 2.5-1.6 4zm2.2-6.1c.4 0 .8.3 1 .2 1.2-.6 1-1.6 1-2.6-.1-.6-.3-1.8-.5-1.9-1.4-.2-.7 1-.9 1.6a15 15 0 00-.6 2.7zM141.8 928.8c-.3.8-.6 1.4-1 1.9-.2-.8-1-1.7-.8-2.3.3-1 1.3-1.9-.3-2.2-1.3-.4-2.3 0-2.7 1.8-.1.8.2 2.4-1.4 2.8-.1-1-.2-2-.5-3-.6-3.3 1.6-6 1.5-9.1 0-.4 1.4-1 2-1 .6.2 1.8-.1 2 1.3.2 2 .9 3.8 1.2 5.8.2 1.2 0 2.4 0 4zm-2-5v-2c-.1-.8-.3-2.3-.5-2.3-1.5 0-1.6 1.2-1.5 2.4v2c.3 1.7 1 .9 2-.1zM113.8 905.5c1.5 2.8 3.5 3.4 5.7 2l1.2-1.2 1.1-1.9-2 .1c-1 0-2 .2-2.9.3l-.4-.8c0-.2.2-.5.3-.5 1.6-.3 3.2-.6 4.7-.6.6 0 1.6 1 1.6 1.5-.2 1.6-.7 3.2-1.4 4.7 0 .3-1.3 0-2 .1-2 .3-4 .6-5.9-.4-.5-.3-1.2-.9-1.2-1.3-.1-2.9-.4-5.9 2.2-8l1.4-1.4c.6-.7 1.2-1 1.9-.1l1 1.2-1.5.3c-.6.2-1.3.4-1.6.9-1 1.4-2.2 2.8-2.2 5zM31.3 800.2c-1.2 2.3-3.3 2.5-5.1 3.3-1 .5-2.2-.2-2.2-1.6v-8.6c0-1.5 1.3-1.6 2.2-1.6 2-.1 4.3-.9 5.6 1.5a6 6 0 01-.5 7zm-6-6.3l.7 5.4c0 .8.3 1.5.5 2.3l2.4-1.4c.5-.3.9-.7 1.2-1.1 1-1.2 1-4.4.2-5.5-.7-1-2.5-1-5 .3zM180.3 903.3l-4.9 4.8c-.2.2-1.2.4-1.7-.8-.8-2-.7-4-.2-6 .2-.7.2-1.6 0-2.4-.2-1.5.5-3.2 2-3.4 1.4-.2 3 0 4.6 0 .3 0 .6.6 1 .9-.4.1-.7.4-1 .4-1.6-.1-3 0-4.3 1-.4.4-.7 1.1-.6 1.7 0 .2 1 .5 1.5.6l1.6-.1h.8c-.1.2-.1.7-.3.8l-2 .7c-.6.3-1.5.7-1.6 1.3-.3.9 0 2 0 3 .2-.1.6 0 .8-.3 1.1-1 2.1-2.2 3.3-3.2.7-.6 1.2 0 1 1zM101.2 920.1v1.3c-.1 2.2.3 3 2 4.5.4.2.5.7.7 1-.5.2-1 .6-1.4.5-1.5-.4-3-1-4.5-1.3-1-.2-1.7 0-1.5 1.3a3 3 0 010 1.7c-.3.6-.8 1.5-1.2 1.6-1.4 0-.7-1.1-.7-1.7v-4l.2-4.2c1.6.3 2.2-1.2 3.3-1.8 1-.6 2.3-.4 3.1 1.1zm-2.3 3.3c1.1-.9 1.4-2 .6-3.3l-2.3 2v.3l-.4 1.6c.5 0 1.1-.2 2-.6zM138.3 863c1.5 1.6 1.1 3.4.7 4.8-.5 1.9-1.9 3.4-3 5.1-.6 1-1.7 1.7-2.7 1.2-.9-.5-1.9-1.6-2-2.5-.6-2.7.9-5.1 2.2-7.3 1-1.6 3-1.6 4.8-1.3zm-3.1 2.2c-1.9 1.6-1 4.1-2 6.1-.1.2.2.6.3.9.4-.2 1-.2 1-.5 1-1.4 1.9-2.8 2.6-4.3 1-2 1-2-2-2.2zM115.3 22.6l-.6 1.2c-.3-.2-.8-.5-.8-.7.1-1.6.2-3.2.7-4.7.6-2.1.3-4.6 2-6.4.4-.6 1-1.5 1.3-1.4 1 0 1.3.9 1.3 1.9 0 1.2.4 2.4.6 3.7l.3.9c.6 1.3 2 0 2.2.3 1 1.3-1.2.7-1.1 1.6.1 1 .5 1.8.6 2.7 0 .5-.3 1-.4 1.4l-.9-1-.9-1.5c-.4-1.1-1.1-1.7-2.3-1.5-1.3.3-1.5 1-1.5 2.2 0 .4-.2.8-.5 1.3zm2.5-5.1c1.7-1.2-.6-2.3 0-3.4l-.6.1-.6 4 1.2-.7zM167.1 929.4c-.4.3-1.2.4-1.2.3-.2-.5-.1-1.1-.1-1.7 0-1 0-2.3-1-2.4-.6 0-1.4 1.1-2 1.9-.5.5-.6 1.3-1 1.9-.3.5-.8.8-1.2 1.2-.4-.5-1-.8-.5-1.9 1-2.4 2-5 2.2-7.6.2-1.9 1-2.8 2-3.9.8-.7 1.1-.7 1.5.5 1.4 3.7 1.4 7.5 1.3 11.7zm-2.3-5.3v-4.6s-.2 0-.2.2c-1.4 1.3-.9 2.9.2 4.4zM138.5 617.1c2.8.7 5.1 1.6 5.6 4.6 0 .3.4.6.4.8-.3 3-5.7 5.9-8.3 4.7-.8-.3-1-.5-1-1.2l-.7-6.7c-.2-2.1-.2-2.1 2-2.2h2zm.3 2c-2.2-1-2.2-1-2.3.9v3c.1.8.3 2 .9 2.5 1 1 2-.3 3-.7.7-.3 1.2-1 1.7-1.6.8-1 .5-2.7-.6-3.4-.6-.3-1.3-.5-2.7-.7zM119.2 606.5c-.1 2.5-2 3-3.5 3.7-.3.2-1 0-1.3-.2-3.1-2.5-3.4-6-.8-9.6 1.7-2.4 5.2-2.4 6 .3.5 1.6 1.5 3.8-.4 5.8zm-5.4-2.4l1 3.6c.2.5.6.8 1.4.2 1.7-1.3 1.7-3.3 2.3-5 .5-1.5-.8-2-1.8-2.4-1-.3-2 .2-2.2 1.6 0 .5-.4 1-.7 2zM198.6 562.3c.6.4 1.1.6 1.5 1 .2.2.1.7.1 1-.3 0-.6.2-.8.1l-3.7-1.6c-1.5-.6-1.9-.4-2 1.2 0 .4.2.9 0 1.3-.2.6-.6 1.2-1 1.9-.3-.6-.8-1.1-.9-1.7 0-2.5-.4-5.1.1-7.5.3-1.3 1.9-2.6 3.2-3.4 1.2-.8 2.2.3 2.5 1.5.3 1.3.5 2.8 0 3.9-.6 1.3.4 1.5 1 2.3zm-2.2-4.1l-.5-2.3c-.5.4-1.4.8-1.4 1.3 0 1 .2 2.2.4 3.3a7 7 0 001.5-2.3zM105.2 765v-7.7c0-1.4.6-1.5 1.9-.8l1 .4c1.2-1.2 2.6-.7 3.8-.5.8.1 1.4-1.5 1.8 0 .1.1-1.1.8-1.8 1.2-.5.3-1.1.5-1.7.6-1 .2-2.6 0-2.8.4-.4 1-.3 2.3-.2 3.5.1 1.4-.8 3.3.9 3.8.7.3 2-1.3 3.2-2 .2-.2.4-.6.7-.7.2-.2.6-.3.8-.2.2.1.4.6.4.8 0 .4-.2.9-.4 1.2-1.2 2-3.4 2.7-5.3 3.1-1.4.4-2.4-1.1-2.3-3.2zM111.9 35.1l-.7 4c0 .2-.6.3-.7.2-1.7-1.2-2.4-3-3.3-4.9-.5-1-1.1-1.7-1.7-2.6 0 1-.4 2-.3 2.9.2 1.5-.6 3.2.6 4.7 0 .1-.5 1-.7 1-.4 0-1.2-.4-1.2-.6v-9.3c0-.4.5-1.2.9-1.2.5 0 1.3.3 1.5.7l2.9 4.8.5.8c0-.3.2-.6.1-.9l-.6-4.4.3-1.2.7.7c1.5 1.4 1 3.3 1.7 5.3zM165.6 780.1c1 0 1.7 0 2.4.2 0 .2 0 .5-.2.6l-2 .7c-.7.2-1.9.3-2 .6-.1 1 0 2.1.2 3.2 0 0 .7.2.8.1.3-.4.4-1 .8-1.3.6-.3 1.3-.3 2-.5-.2.6-.2 1.2-.6 1.6-.8 1-1.6 2-2.6 2.6-.6.4-1.6.2-2.4.2.1-.7-.6-1-.5-2 .5-2.7.3-5.5.1-8.3 0-2 .5-2.7 2.5-2.3l1.3.1c.6.2 1.7-.6 1.6.8 0 .2-1.2.6-1.8.5-1.3-.1-1.4.4-1.4 1.5 0 1.3 0 2.2 1.8 1.7zM104.5 726.3c-1-.6-1.7-1.5-2 .3v2.6c0 .4-.3.8-.4 1.1-.5-.2-1-.4-1.3-.8-.3-.3-.3-.8-.3-1.2v-7.6c0-.4.4-.7.6-1l.8.7.6.1c.2-.2.2-.6.3-.8.8-.8 1.5-1.8 2.8-1.3.9.3 1.7 2.8 1.3 3.9-.2.4-.4 1-.7 1.3-.6 1-.6 1.3.7 1.5.5 0 1 .8 1.4 1.3l.6 1.2-1.5-.1-2.9-1.2zm-.3-2.6c.5-.7 1-1.4 1.3-2.1.2-.4-.2-1-.3-1.6-.4.2-.9.2-1.1.5-.6.7-1.1 1.5-1.5 2.3 0 .1.6.6 1.6.9zM129.2 901.5c-.5.5-.6 1-.7 1.5 0 1 .1 1.4 1.3.9 1.2-.5 2.5-.8 3.8-1 .3-.1.6.1.9.2-.2.3-.4.6-.7.7-1.2.4-2.6.4-3.6 1-.6.5-2.1.4-1.7 1.9l.4 2 1.6-1c.8-.4 1.5-1 2.3-1.5.2-.1.7 0 .9.1v.9c-.8.9-1.6 1.9-2.6 2.6-1 .8-2.4 1.5-3.8.8-1.2-.7-.8-2-.8-3 0-2.7-.4-5.4.7-8 .1-.3.5-.5.7-.8 1.2 1.8 3.3.5 4.8 1.3l.4.4-.6.3-3.3.7zM163.8 559.8c0-.7-.2-1.3 0-1.6.6-.8 1.2-2 2-2.2.6-.2 1.6.7 2.4 1.3.3.3.4.9.7 1.3.1.2.5.3.7.4l.2-.5v-3c.1-.4.9-.7 1.3-1 .2.4.7.8.6 1.2l-.6 9.7c0 .1-.2.4-.4.4-.3 0-.8 0-.8-.2-.3-1-.7-1.8-.7-2.7 0-1.8-1-3.2-2-4.6-.5-.8-1.2-1-1.4.4l-.7 5.7c0 .9 0 1.8-.2 2.6 0 .3-.6.5-.9.7l-.2-.9v-7zM39.3 799.6c-.3-2-.7-3.5-.6-5 0-1.4.6-2.4 2.5-2.4 5 0 6.7 2.9 4.3 7.5-1.1 2.2-2.6 3.8-5.2 3.9-2.2 0-2.6-.7-1.7-2.6l.7-1.4zm5-.7c.2-.7.3-1.4.7-2 .6-1.4-.4-2.3-1.1-2.9-.6-.5-1.9-.5-2.7-.3-.4 0-.5 1.4-.6 2.1v3.7c0 .9.2 1.8.4 2.7l2.3-2.3 1-1zM24 51.1c.8-1 1-2.8 2.7-2.2 2.5.6 4.5 2.2 4.5 3.9 0 2.9-1 5.4-3.2 7.2-1.5 1.2-3.9-.1-4.7-2.4-.8-2.2-.7-3 .7-6.5zm5.3 3.7v-1c0-2-.7-2.5-2.6-2.7-1.9-.2-1.9 1.3-2 2.4a8 8 0 000 3c.1.7.7 1.6 1.3 1.8.4.2 1.3-.4 1.8-.8.6-.6 1-1.4 1.5-2.7zM218.2 554.4c.7-.5 1.3-1.9 1.8-.5 1.6 3.8 3 7.8 4.4 11.8 0 .2-.2.7-.4.8-.2 0-.7 0-.8-.3-1-1.4-2.2-2.8-2.2-4.7 0-1.3-.5-1.3-1.3-.6a3 3 0 00-1.4 2.8c.1.8-.2 1.7-.6 2.4-.1.4-.7.6-1.1 1l-.2-1.3c.4-3.8.6-7.6 1.8-11.4zm2.2 4.5l-.7-1.4-.4-.8-.2.8v2s.8 0 1.3-.6zM141.2 870.8c-.1-2.1.2-4 0-5.7 0-.6.2-1.3.5-1.8.2-.3.8-.3 1.1-.4.1.2.3.5.3.8v6.7c0 .4.5.7.8 1l.6-.8 3-5.8c.2-.3 1-.4 1.4-.6 0 .5.4 1.2.2 1.5-1.6 3-3.3 5.8-5.1 8.6-.4.5-1 1.9-2 1-.8-.8-2.1-1.7-1.1-3.2.2-.3.2-.6.3-1.3zM180.3 581c-1.3.2-2.4 0-3.5.2-.6.2-1.4 1-1.6 1.5-.3 1 0 2 0 3l2.4-1.2c.4-.2.7-.6 1.1-.6 1 0 2.8 0 3 .4.4 1.6-1.4.7-2 1.2-1.4 1-3.2 1.5-4.8 2.1-.3.2-1 0-1-.1-.4-1.2-1-2.7-.7-3.6.8-1.8.5-3.4.6-5.1.1-2 .5-2.4 2.6-2.3h4c.3 0 .5.3.7.5-.2.3-.4.7-.7.8l-4.7.7c-.2 0-.4.4-.6.6.3.2.5.7.8.7h4.6c1.3.3 0 .7-.2 1.2zM135.3 758.1c3.8 4 1.3 8.4-2.2 10-1.8.7-2.3.2-2.6-1.6-.4-2.3-1-4.5-1.3-6.7a7 7 0 01.1-2.6c.1-.3.8-.7 1.1-.6l5 1.5zm-.8 6.5c.6-1.1 1.8-2 1-3.6a4.7 4.7 0 00-2.8-2.7c-.6-.2-1.7-.4-1.5 1l.7 6c0 .4 1 1 1.2.9.4-.2.7-.8 1.4-1.6zM90.7 776.1c1 2.7.5 5.3 1.1 7.9.1.4-.6 1-.9 1.5-.3-.4-.9-.9-1-1.4v-2.7c-.1-.8 0-2.2-.4-2.4-1-.3-2.3-.4-3.3 0-1.3.6-1.1 1.9-.8 3.1.3 1.1.4 2.3.5 3.5 0 .2-.3.6-.5.6-.3 0-.7-.1-.8-.3-.3-.4-.7-1-.7-1.4v-9.6c0-.5.6-.9 1-1.3l.3 1.2v1l.7 1.7a10 10 0 003.2-1c.3-.1 0-1.2.1-1.8.1-.4.5-.7.8-1.1l.5 1c.1.4 0 .9.2 1.5zM33.3 744.3c.4-2.1.6-4 1.4-5.7.6-1.2 2-2.8 3-2.7 1 0 2.6 1.7 2.8 2.8.5 3 0 6.1-2.5 8.5-1.7 1.7-3.1 1.5-4.2-.8-.3-.5-.4-1.2-.5-2.1zm2 1.7c.3 0 .7.4.8.3.9-.8 2-1.5 2.4-2.5.6-1.6.7-3.3.7-5 0-1-1.3-1.4-2-.6A4 4 0 0036 740c-.4 1.7-.5 3.5-.7 6zM152.5 580.5c.2-.6.5-.8.6-1 .3-.8.2-2 .7-2.2 1-.6 2.2-.7 3.3-.8 1.7 0 2.6 1.3 2.7 3.6a8 8 0 01-2 6.2 2.9 2.9 0 01-3.3.7c-.9-.3-1.7-1.5-2-2.5-.3-1.2 0-2.5 0-4zm2-.3c.3 1.5-.5 3.1.5 4.7.5.7.4 1.2 1 .3.8-1 1.3-2.1 2-3.2.7-1 .9-2.2-.2-3-1.2-1-2.4-.7-3.3 1.2zM75.9 717.7c1.6 0 1.8.6.9 1.2-.8.6-2 .4-3 .8-.5.3-1.3 1.2-1.1 1.6.2 1 1 .9 1.9.4.9-.4 2-.5 3-.7.3 0 .6.4 1 .5-.3.3-.5.7-.8.8l-4.4 1.4c-1 .3-2 2.2-1.4 3 .4.6.9 1.5 2 .6 1-.7 2.2-.7 3.3-1 .2 0 .4.2.5.3 0 .2-.2.4-.3.5l-4.4 2.3c-.8.4-2.6-1-2.5-2 .2-1.8-.4-3.6.5-5.5.6-1.2.1-3 .1-4.6l.3-.9c.2.2.6.3.6.5.7 2.4 2.2 1.1 3.8.8zM33.3 853.5c-.2.9-.3 1.9-.6 2-1 .2-.7-.8-.7-1.4v-7.3c0-.2.5-.5 1.1-.8.7-.3 1.2-1 1.9-1.2.8-.3 1.9-.7 2.6-.4.5.1.8 1.4 1 2.1v2.7c-.1.7-.6 1.4-.5 2 0 .4 1.1-.7 1.6.3 0 .2.5.2.8.3l-1 .4c-2.1 0-4.3-.5-6.2 1.3zm4-7c-2-.2-3.1.4-3.3 1.9-.1.5.2 1.2.3 1.8.7-.3 1.5-.3 2-.8s.7-1.5 1-2.9zM133.2 803.6l2-2.3c.2-.2.7-.2 1-.3 0 .4.2.8 0 1.1-.3.7-.6 1.5-1.2 1.8-1 .7-2.2 1.1-3.3 1.7-.4-1.3-1.2-2.5-1.1-3.7.1-2.1 1.4-4.2.7-6.5-.1-.3.2-2.2 1.6-1.8 1.8.5 3.6-.1 5.4 0 .3 0 .6.4.9.7-.3.2-.6.5-1 .6l-3.6.7c-.6.2-1 .7-1.4 1.2-.2.3 0 .9.1 1.2.1.2.7 0 1.1 0l.2-.2h2.5c-.7.4-1.4 1-2.1 1-1.2.2-1.8.7-1.9 1.9 0 1-.2 1.9 0 2.9zM133 591c-1.4-1-2-2.4-1.9-4.1v-6.6c0-1.3.1-2.3 1.8-2.5 1.5-.3 3-1.3 4.3.4 1.1 1.4 1.3 4.6 0 5.8-.5.6-1.4 1-2.1 1.1-2 .3-2.4.8-1.7 2.5.5 1.2.8 2.2-.4 3.4zm.2-7.5c.6 0 1.4.2 2 0 .5-.4 1.1-1.2 1.2-1.8a4 4 0 00-.6-2.5c-.7-1-1.8-.1-2.6 0-.4.1-.6 1.4-.7 2.1 0 .6.2 1.2.7 2.2zM202 612.6c.5 0 1 0 1.2.3 1.3 3.8 3.5 7.4 3.2 11.7 0 .4-.4.8-.6 1.2-.3-.4-.7-.7-.8-1.2l-.6-2.7c-.2-.5-.5-1.4-.7-1.4-.7 0-2-.8-2 .9 0 1-.4 2-.6 3-.1.3-.4.6-.6.7-.2 0-.6-.2-.7-.4-.3-.3-.6-.8-.5-1.1 1-3.5 0-7.6 2.6-11zm0 2.5l-.3 3.2c0 1 .8.9 1.3.8.3-.1.7-.8.6-1-.2-1-.6-2-1.5-3zM106.5 619.8h-.6c-1.4-.1-2.6.9-2.4 1.8.3 1.2 1.8 1 2.9.7l2.7-.5c.5 0 .9.3 1.3.4-.3.3-.6.7-1 .9l-1.7.5c-1.2.3-3 .3-3.5 1-.6 1-.3 2.6-.3 3.9l-.1 1.6c0 .2-1 .3-1 .1-.4-.5-.8-1.2-1-2-.3-2.8.7-5.8-.5-8.7 0-.2.6-1 1-1l6.4-.7 1 .1c.3.2.5.6.8 1l-1 .2c-.8.2-1.7.5-3 .7zM98.4 797.7c1.6-.1 3-.5 4.4-.8.3 0 .7.3 1 .5-.2.3-.3.7-.6.8-1.2.5-2.3 1-3.5 1.2-1.5.2-2.2.6-1.8 2.2l.2 1.2c.5-.2 1-.2 1.4-.5.5-.4.8-1 1.4-1.4.6-.3 1.3-.4 2-.6l-1 1.6c-1.3 1.8-2.7 3.3-5.1 3-.3 0-.9-.6-.9-1l.7-9c0-.2.5-.6.8-.6h4.6c.2 0 .5.4.5.6 0 .3-.3.6-.5.6l-2.7.1c-.8.2-2 .6-1 2.1zM64.4 764.8l-1.8 3.1c-.2.2-.6.4-.8.3-.3 0-.5-.4-.5-.6-.1-.7-.3-1.4 0-2 1.1-2.6 1.3-5.3 1.3-8.1 0-.6.8-1.5 1.4-1.8.4-.1 1.7.4 1.8 1 1 3.5 3.2 6.8 2.8 10.7 0 .3-.3.6-.4.9l-.7-.8a4 4 0 01-.3-1.2c-.2-2-.2-2-2.8-1.5zm.8-5.5c-.1-.6-.2-1.5-.5-1.6-1-.3-.8.7-.8 1.3v1.6l.5 2.3h1.3l-.2-2.7c0-.1-.2-.2-.3-1zM71.4 739.5l.5.7 2.5 4 .2-4.6c0-.5-.2-1 0-1.4.2-.4.6-.8 1-1.2l.3 1.2v7c0 2-1.1.5-1.4.4-2.2-1-2.8-3.3-4-5.2l-1-1.9c-1.2.5-1.1 1.6-.9 2.5.6 2.5.9 4.9 0 7.3l-.5.6-.4-.5-.3-.2c0-3.5-.9-7 .5-10.3.3-.6 1-1 1.4-1.6l1.3 1.6.8 1.6zM32 726.3c-.6-3 0-5.7 0-8.4 0-.3.6-.6.9-.9 1.1 1.3 2.6.4 4 .7.3 0 .6.3 1 .4-.4.3-.6.8-1 .9h-1.7c-1 0-1.7 1.2-1.2 2.2h.8l1.8-.5h2.7l-2.4 1.6c-.3.2-.8 0-1.3 0-1.5-.2-1.8.5-1.7 1.8l.4 2.2 1.8-1.1c.4-.3 1-.7 1.4-.7.5 0 1 .4 1.6.6l-1 .7-2.5 1.9c-1.5 1.2-2.5.9-3.7-1.4zM113.2 795.6c-.2-.6-.7-1-.6-1 2-2.7 6.2-2.7 8 0 1.4 2.4-.3 6-3.2 6.3h-2c-.3.1-.8.6-.8 1-.2 1 0 2.1-.1 3.2 0 .4-.5.8-.7 1.1-.2-.3-.5-.6-.6-1-1-2.2 0-4.4 0-6.6v-3zm3.6 4c1.9-.3 2.7-1.8 2.7-3.3 0-1.5-1.4-2.2-3.3-2-1.7 0-1.8 1.2-1.7 2.4v2c0 1.5 1 .7 2.3.9zM180 880.3c-.6.3-1 .5-1.4.5-1.2 0-.9.9-.8 1.4.1.3 1 .7 1.2.6 1.7-1 3.6-.6 5.4-.6.2 0 .5.5.7.8l-.7.5-4.3.6c-2.2.4-2.7 1.2-2.1 3.3.1.3.5.8.4 1-.2.7-.6 1.2-1 1.7-.1-.4-.6-.9-.6-1.3-.2-3.2-.3-6.3-.3-9.5 0-.1.6-.5 1-.5 2.8.1 5.4-.3 8-1.3.4 0 1 .5 1.4.8l-1 .7c-1.8.7-3.7 1.3-6 1.3zM239 579.2c0-2.3.4-4.2 1.9-5.5.5-.5 1.5-1.3 1.8-1.1 1 .7 2.7 1.6 2.9 2.6.2 2.4.6 5-.8 7.2-1 1.6-3 2.6-4.3 1.9-2-1.2-2.4-2.6-1.5-5.1zm5 0c.7-1.4.6-2.7-.3-3.9-.3-.3-.7-.8-1-.7-.4 0-.9.4-1 .8-.5 1.8-1 3.6-1.3 5.4 0 .5-.6 1.6.8 1.7 1 0 2.2 0 2.5-1.4 0-.5 0-1 .3-2zM241.9 558c.6-1 .9-2.1 1.6-2.8 1.3-1.4 2.9-.8 3.5 1 1.2 3.2 1.1 6.2-1.5 8.7-.5.5-1.7 1-2.1.8a3.4 3.4 0 01-1.6-2.2c-.3-1.8-.1-3.6 0-5.5zm3.5-1.5c-.6.3-1.5.6-1.6 1v6s.4.3.7.3c.2 0 .5-.4.5-.6.3-2.1.5-4.2.4-6.7zM96 728.2c-.3-2.1-1.8-1-2.6-1.2-1.1-.2-.7.8-.9 1.3-.1.6-.4 1.2-.7 1.7-.1.2-.6.4-.8.3-.2 0-.5-.5-.4-.7.3-2.2.5-4.4 1-6.6.2-1 .5-2.2 1-3.2.3-.6 1.1-1.4 1.7-1.4.5 0 1.5 1 1.5 1.6 0 2.7 1 5 2 7.4v.7l-.6 1.6-1.2-1.5zm-2.5-2.5c1-.2 1.8-.3 1.1-1.7-.3-.7 0-1.7 0-2.6l-.5-1c-.3.3-.8.6-.9 1a15 15 0 00.3 4.3zM117 29.6c1-.7 1.7-1.3 2.5-1.7.3-.2.9.4 1.4.6l-.8.7c-.2.2-.4.5-.7.6-1.7.4-2.1 1.8-2.1 3 0 .8 1.2 1.6 2 2.3.5.4 1.3.6 1.8 1 1 .7 1.1 1.6.3 2.5-1.3 1.3-6.7 1.8-7.8.4-.6-.6-.2-2-.3-3 .3 0 .5.2.7.3.5.4.8 1 1.2 1.1 1.3.2 2.5.2 3.8.2l-2-1.6c-2.4-2-2.5-3.1 0-6.4zM94.5 871.5c-.1.7-.3 1-.5 1.3 0 0-.8-.2-.8-.4v-4c0-.5.5-1.3.3-1.5-.5-.5-2.6.1-2.9.9l-.7 3c-.3.9-.8 1.7-1.2 2.6-1.2-1-.7-1.9-.2-3.1.5-1.7.5-3.6.7-5.3.1-.9.4-1.7.7-2.4 0-.3.7-.3 1-.3.2 0 .2.6.3.9.3.7-1.1 1.4 0 2 1.2.6 2-.4 2.8-.9.3-.1.3-.5.5-.7l.8-.8c.2.4.5.7.5 1 0 1 .3 1.2 1 .5.2-.2.7.1 1 .3.1.1-.1.8-.3.8-2.2.5-2.4 2.2-2.3 4 0 .6-.4 1.2-.7 2zM132.7 838.7c-3.4-1-6-4-4.2-7.5l.7-2.3c.5-1.2 1.3-2 3-2 1.5-.1 2.3.7 2.6 2 .1.5 0 1.3-.3 1.6-1.2.9-.6-.6-.8-1-1.3-1.2-2.6-1.3-3 .3-.5 1.6-1.6 3.3-.2 5.1 1.2 1.8 2.9 2 4 .2v-.4l1.7-2.4c.7 1.2 0 2.1-.3 3.2a5.3 5.3 0 01-3.2 3.2zM44.1 783.4c-.4-2.7 0-5.2 1.1-7.5.6-1.2 1.1-2.5 2.7-2.3a3 3 0 012.6 2.9c.3 2.7 0 5.3-2.3 7.2-2 1.6-1.8 1.7-4.1-.3zm1.8-4.1c0 .4.2 1 0 1.3-1 1 .3 1.5.3 2.3.6-.4 1.3-.7 1.7-1.2.4-.6.6-1.5.7-2.3 0-1.3-.3-2.5-.4-3.8-2.2 0-1 2.4-2.3 3.7zM156 606.6c-.6 2-1.7 2.9-3.5 2.5-1.6-.3-2-1.9-2-3.2 0-2 0-4.1.4-6 .3-1.5 1.1-3 3-2.7 1.5.1 3.4 2.7 3.2 4-.2 1.8-.6 3.5-1.1 5.4zm-.9-3.8c0-.9.2-1.8 0-2.6-.1-.4-.8-1-1.2-1-.4 0-1.1.4-1.2.8-.4 1.5-.9 3-.8 4.6 0 1 .9 2 1.4 3l1.6-2.6c.2-.4.2-1 .2-2.2zM183 614.3c1-.3 1.8-.5 2.6-.5.7 0 1.3.5 2 .8-.6.2-1.2.5-1.8.5-2 0-3.3 1.4-4.4 2.8-.9 1-.2 2 1 2.6 1.2.7 2.4 1.5 3.5 2.5.8.7.4 2-.7 2-2.8.3-5.4-.4-7.5-2.4-.2-.1-.3-.4-.4-.7.3 0 .6-.2.9-.1l4.7 1.4.9.2c-.2-.4-.4-.8-.7-1-.6-.3-1.3-.5-1.9-.9-2.3-1.1-2.8-3-1.2-5 .8-.8 1.8-1.3 3-2.2zM103.7 579.7c2.6-2 4.4-1.3 4.8 1.6.2 1.9.3 3.8 0 5.6a5 5 0 01-2.4 2.8c-1 .6-2.2 0-3.2-1-2-2-2-4.3-1.6-6.6.2-.8 1.5-1.5 2.4-2.4zm.5 1.5c-1.9 2-2.2 3.5-1 5.6.4.5 1.5.7 2.2 1 1.2.4 1.2-.7 1.4-1.3.3-1.1.3-2.3.4-3.4 0-1.7-1-2-3-2zM81.2 13.1c1.2-1.5 2.4-2.8 4.4-2.6.5 0 1 .6 1.6 1-.5 0-1 .2-1.4.3-.9.3-1.8.5-2.6 1-1.2 1-.9 2.5.5 3.2 1.3.6 2.6 1.3 4 1.8 1 .3 1.4.8 1.5 2 .2 1.4-1 2.5-1.6 2.5-2.6.1-5.4.9-7.8-1-.2-.1-.3-.4-.4-.6l.5-.2c.8 0 1.8-.3 2.3 0 1.8 1.6 3.4 0 5.1 0 .2 0 .5-.5.5-.7 0-.2-.2-.5-.4-.6l-4.8-2c-2.2-1.2-2.3-1.7-1.4-4zM124.3 746.8l-2 2c-.8 1-2 1.2-2.9.6-1-.6-1.5-1.6-1.3-3.1.3-2 1.6-4 .5-6.3-.1-.3.9-1.5 1.4-1.6 1-.1 2 .3 3 .6.3 0 .5.2.8.4l-.9.2c-.7.3-1.5.4-2 .8-.3.2-.3 1-.4 1.4l1.3.2.2-.2c1.3 0 3.2-1 3.6.5.3.8-2 1.3-3.2 1.3-1.3 0-2.5 0-2.5 1.8l.2 2.2 1.8-1 1.6-1c.5-.2 1.1-.2 1.6-.3l-.8 1.5zM182.4 604.5l.6 1.3c.2-.2.7-.5.7-.7l.8-6.7c0-.7.2-1.5.5-2.1.1-.3.7-.3 1.1-.5l.3.9c0 3-.6 6-1.2 9-.3 1.2-.6 2.2-1.6 2-1-.2-2.3-1-2.4-1.8-.5-2.7-.6-5.5-.7-8.3 0-.4.1-.9.4-1.2.2-.3.7-.4 1-.6.2.3.5.7.5 1v7.7zM106 566.7c-.4 1.5.7 3.6-1.7 3.7-2 .2-1.5-1.8-1.9-3L100 559l.2-.9c.4 0 1 0 1 .2.6 1.2 1.1 2.5 1.4 3.8l.7 4.7c.1.4.7.7 1 1 .1-.3.3-.7.3-1.1l.7-6.7c0-.6.3-1.3.7-1.7.3-.3 1-.2 1.5-.3l-.2 1-1.2 7.8zM113 926.3c-2-.2-.6 2-1.8 2.4-.3 0-.5.5-.8.7-.2-.3-.5-.6-.5-.9.2-3 .3-6 .7-9 .1-.7 1-1.8 1.8-2 1.2-.2 1.3 1 1.5 2 .6 3.4 1.5 6.7 1.3 10 0 .5-.5.9-.7 1.3l-.6-1.2-.9-3.3zm.2-4.5c-.2-.6-.3-1.6-.5-1.6-1.1-.3-.8.7-.8 1.3v1l.5 3c1.6-.7.4-2 .8-3.7zM43.1 19c.2-1.7 0-3.2 1.5-4.3 1.6-1.1 2-1.3 2.6.4 1 2.7 1.9 5.6 2.7 8.5 0 .2-.3.6-.6.8 0 0-.6-.2-.7-.4l-.7-2c-.3-.6-.8-1.3-1.4-1.5-1-.3-1.7.3-1.9 1.3L44 25c0 .3-.3.6-.5.7-.3 0-.6-.2-.8-.4-.3-.4-.6-1-.6-1.3.3-1.7.6-3.3 1.1-5.1zm3.5-2.9c-.5 0-1.2-.1-1.3.1-.3.5-.4 1.1-.5 1.7l.3 1.2c.5-.2 1.2-.3 1.4-.7.3-.4 0-1 0-2.3zM47.4 720.2c1.4 2.8-.2 4.7-1.7 6.7-1 1.4-2.6.8-3.9.6-.5 0-1-1.6-1.1-2.5-.2-2.3.4-4.4 2.2-6 2.3-2 2.6-2 4.5 1.2zM44 720a7 7 0 00-1.3 5c0 .5.3.9.5 1.3.4-.2.8-.3 1-.6.7-.7 1.4-1.4 1.6-2.3.3-.8.3-1.9 0-2.8 0-.4-1-.6-1.8-.6zM32.6 739.6c-.8 2.5-2.2 3.8-4.7 3.4-1.5-.3-2.2.1-2 1.9 0 .6.7 2-.7 2-.4 0-1.1-1.5-1.2-2.3v-7.3c0-.3.2-.9.5-1 2.9-1 5.7-.3 7.9 2.1l.2 1.2zm-3.7-2c-3.9 0-3.8 0-3.6 2.9 0 .8 0 1.3 1 1.2H28l3.3-1.7c-.6-.8-1.1-1.6-2.4-2.4zM163.1 806.2c-2.5.6-3.8-.2-4-2.3 0-2.8 1.2-5.2 2.4-7.6.6-1.2 1.7-1 2.7 0 2 1.9 2.2 5.4.4 8.1-.4.6-.8 1.2-1.5 1.8zm-1.3-7l-.6 4.4c0 .4.3.9.5 1.3.4-.3 1-.5 1.2-.9 1.2-1.5.9-3.4.9-5.2 0-.4-.4-.8-.6-1.2l-1.4 1.6zM148.5 51.1c0 2.4-1.2 3.8-2.7 4.8-.6.5-1.9.1-2.8 0-1.2-.2-2-.8-1.9-2.2.1-1.4.2-2.9 0-4.3-.2-1.5.8-2.6 1.7-2.8 1.3-.3 2.8-.8 4 .5 1 1 1.7 2.2 1.7 4zm-5.4-3c-1.3 1.4-.4 3.1-.6 4.7 0 .5.5 1.3 1 1.5.5.1 1.3-.2 1.9-.5 1.4-.8 1.4-2.3 1-3.4-.4-1.3-.8-3-3.3-2.3zM136 745.8l1.5-.8c0 .4.2.8.1 1.1-.9 2.4-4.4 4.3-6.7 3.5-.8-.3-1.5-1-1.8-1.8-1.3-2.3-.5-7.2 1.2-9 1.2-1.2 2.6-1.1 4.1.5.6.6 1 1.4 1.4 2-.8-.3-1.7-.5-2.3-1-.9-1-1.4-.7-2.1 0a6.2 6.2 0 00-1.5 5.4c.2 1.8 3 2.6 4.7 1.4.5-.3.8-.7 1.4-1.3zM124.5 815.6c.4 2.2-.9 3.7-1.7 5.2-.6 1.3-2 1.9-3.3 1.3-.9-.3-1.9-1.3-2.2-2.2-1-2.7 2.2-8.4 5-9 .3 0 1.1.4 1.2.8.5 1.1.7 2.3 1 3.9zm-3 4.6c.6-1.5 1.3-3 1.6-4.5.1-.7-.5-1.9-1-2-.6-.2-1.8.3-2.2.9-1 1.5-.8 3.4-.6 5.2 0 .6.8 1.7 2.2.4zM129.3 56.3c.3-2.6.7-5 1.2-7.3.2-.5.8-1 1.2-1.5.8-.7 1.2-.7 1.5.5.3 1.4.9 2.8 1.3 4.1l.2 1c.4-.3.9-.6 1-.9l.1-2.2c0-.8-.2-1.7 0-2.3.4-.7 1.2-1.3 1.8-1.9 0 .8.3 1.6.2 2.2-.3 1.8-.9 3.5-1.3 5.2-.1.4 0 .9-.3 1.1-.5.6-1.1 1-1.7 1.5-.5-.6-1-1-1.3-1.7l-.7-2.7-.5-.8c-.2.2-.6.4-.6.7-.2.7-.2 1.5-.2 2.2 0 1.3-.2 2.5-1.9 2.8zM87.2 922.1c.2-.7.5-1 .7-1.4 1-1.7 1.2-1.6 2.3 0 2.1 2.9 2 5.8 1 9-.4 1.9-1.5 1.6-2.8 1.7-1.6.2-1.7-1.4-1.7-2-.2-2.3-.6-4.7.5-7.3zm1.3 7l.5.9.9-1.3c1.3-2.1-.3-4.2 0-6.3 0-.3-.4-.7-.6-1-.3.4-.7.8-.7 1.1v6.6zM24 848.2c.3-1.1.5-2 .9-2.6.5-.8 1.3-1 2.2-.5 2.6 1.3 3.3 2.4 2.8 5.3a7.6 7.6 0 01-2.7 4.8c-.6.5-1.8 1.1-2.2.9-.8-.6-2-1.2-1.7-2.6.3-1.6-.7-3.5.7-5.3zm4.3 0c-.8-.7-1.8-2.5-2.7-.5-.7 1.5-.7 3.4-1 5.2 0 .3.4.8.8 1l.9-.4c1.6-1.3 2.2-3 2-5.3zM128.5 815.6l-.6-4.4c0-.3.8-.7 1.2-1 .3.4.7.8.7 1.2v4.6c.1.7.5 1.4.9 2 0 0 1-.2 1-.4l1.5-7c0-.6 0-1.2.3-1.6.2-.4.8-.5 1.3-.8.1.4.4.8.3 1.2-.7 3.3-.6 6.9-2.6 9.9-1 1.6-1.8 1.7-2.8.4a5.2 5.2 0 01-1.2-4.1zM173.6 888.6c-3.5 1.7-5.2.7-5.1-2.8 0-2.8 1.5-5 3.4-6.7 1.2-1.2 3.7.1 3.9 2 .2 2.6-.4 5.1-2.2 7.5zm-2.8-5.8l-.9 3.6c0 .5.4 1.2.8 1.6.2.1.9-.2 1.3-.4 1.4-.8 2-2.4 2.3-3.7.3-1.2-.1-2.5-.2-3.8l-2.3 1.7-1 1zM125.3 600c-1 2.3-1 2.4.8 3.1.9.4 1.8.7 2.5 1.2.8.6 1.8 1.4 1.2 2.4-.6.8-1.6 1.5-2.6 1.7-1 .1-2.1-.2-3-.7-.7-.4-1.8-1.8-1.6-2.1.8-1.3 1.5.4 2.4.4.5 0 1.1.4 1.7.4.6 0 1.2-.2 1.7-.3l-1.6-1-1.1-.4c-1.6-.8-3.2-1.6-3.2-3.6.1-2 1.8-2.8 3.3-3.6.4-.2.8-.4 1.2-.3.7.2 1.4.6 2.1 1l-1.9 1-1.9.8zM54 869.5c.4-2.4.7-4.5 1.4-6.4.6-1.6 3-2.3 5-1.6.3.1.6.5.8.7-.3.2-.5.6-.9.6-3.3.5-4.3 1.6-4.4 5 0 1.1.3 2 1.2 2.5.4.2 1 .2 1.6 0 .2 0 .4-.4.7-.6l2.2-.8c-.4.8-.7 1.9-1.3 2.5-1.2 1-2.8 1.7-4.4 1.3-1.2-.2-2.3-1.3-2-3.2zM105.9 797c.4-1.3.8-2.3 1.4-3.1.6-.8 2.5-.3 3.1.6 1.1 1.8 1.2 6.6-.3 8.5-1 1.5-2.6 1.6-3.8 1.1-1.4-.4-2.2-1.8-1.7-3.4.3-1.2.8-2.3 1.3-3.8zm2.3 5.2c1.7-1.5 1.8-3.4 1.6-5.5 0-.3-.4-.8-.8-.9l-.9.5c-2 1.7-1.6 4-1.5 6.2 0 0 .8 0 1.6-.3zM147.8 880.1c2.1.4 2.7 1.6 2.7 3.4 0 2.3-.3 4.6-1.3 6.7-.7 1.5-1.9 1.2-3 1.3-1.5 0-1.6-1.5-1.6-2-.2-3.4 0-6.8 3.2-9.4zm1 5.4c.1-1 .3-2.1.3-3.2 0-.3-.2-.5-.3-.8l-.5.5c-2.3 1.8-1.7 4.6-2.4 7-.1.2.4.9.7.9.4 0 1-.4 1.1-.7.4-1.1.5-2.3 1.1-3.7zM128.7 856.3c-3.5.7-5.6-.5-5.5-3 0-.4.5-.7.7-1.1l.6.9c.7 1.7 2.5 2.4 4 1.4.4-.3.8-.5.2-1.2a35.2 35.2 0 01-3-3.7c-1.3-1.6 0-2.7 1-3.8.8-1.2 1.9-1.2 3-.7l1.4.7c-.4.1-1 .4-1.4.4-1 0-2.2 0-2.5 1-.3 1-.2 2.2 1 3 .6.4 1 1 1.6 1.6 2 2.3 2 2.7-1.1 4.5zM66.6 55.8c-1.7-2.6.4-4.8 0-7 0-.2.5-.4.6-.3.2.2.7.5.7.7v5c0 .7.1 1.5.3 2.2.2.5.7.9 1 1.4l.7-1.6 2-6c.2-.5.6-.8.8-1.1.2.3.5.7.5 1a18 18 0 01-2.7 9.2c-.2.3-1.2.6-1.6.4a7.8 7.8 0 01-2.3-2c-.3-.3 0-1 0-2z"/>
  <path fill="#00EBAB" d="M221 601.8c-.9-1-1.7-2-2.3-3-1.1-2 .6-4.9 3-4.8.4 0 .7.3 1.1.4l-.6.9c-.5.4-1.3.7-1.5 1.2-.3.6-.3 1.6 0 2.2.2.9.8 1.7 1.5 2.3 1.2 1 1.7 2.1 1 3.4-.7 1.5-3.3 2-5 1.2l-1.4-.7-1.8-2.1c.9.2 2 0 2.6.6 1.5 1.3 2.5-.4 3.7-.3 0-.4 0-.7-.3-1.3zM149.1 848.2c.5 3-.8 4.7-3.2 5.5-1.5.6-2.8 1.2-2.8 3.1 0 .2-.5.5-.8.7-.2-.2-.5-.5-.5-.7 0-1.1-.3-2.4.1-3.3.8-1.5.5-3 .6-4.4.1-1.5.3-3 2-3.5 2.1-.7 3.4 0 4.6 2.6zm-3.6 4c1.3-.9 3-1.6 2.3-3.6a3 3 0 00-1.6-1.7c-.9-.3-1.7 0-2 1.2-.6 1.8-.5 3.1 1.3 4zM186.3 576.3c1.8-1.9 3.6-1.4 5.4-.5.3.2.5.6.7.9-.4 0-.9.3-1.2.2-2.3-.6-3-.3-4.2 1.2-.7 1-.7 1.5.2 2.1l2.3 1.7c1.2.7 1.2 2 .8 2.9-.2.5-1.4.8-2.1 1-1.9.5-3.2-1-4.8-1.4-.2 0-.3-.6-.3-.8.1-.2.6-.5.8-.4l3.2 1 1.1.1c0-.4-.1-1-.3-1.3-.2-.4-.6-.7-1-1-3-2.3-3-2.5-.6-5.7zM110.5 15.1c0 2.6-.8 4.6-1.6 6.7-.4 1-1 1.8-2 1.3-1-.4-2.1-1.2-2.3-2-.4-2.7-.5-5.5-.7-8.3 0-.3.3-.7.5-1l.8.7c1.1 1.5.5 3.2.7 4.7 0 1.1 0 2.2.3 3.2 0 .3.6.6 1 .7.2 0 .6-.5.6-.8.3-2.6 1.9-5 1.4-7.8 0-.2.5-.5.8-.7.2.2.5.4.5.7V15zM87.9 795.6c.5-1 1-1.8 1.6-2 .9-.2 2 0 3 0 2 .1 3.2 2 2.4 4-.8 1.9-2 3-4.1 2.7-1-.2-2.1-.4-1.2 1.4.4 1 0 2.5 0 3.8h-.5c-.4-1.2-1-2.4-1.2-3.6-.2-2 0-4 0-6.3zm5.6 2c.3-2.4 0-2.9-2.3-2.6-.7 0-1.8.5-1.8.9-.2.8.1 1.8.6 2.6.1.3 1.2.2 1.8 0 .5 0 1-.4 1.7-1zM147.3 623c-2.4-1.5-2.7-2.5-1.6-4.8.8-1.7 3.7-3 5.2-2.3l.2.5c0 .2 0 .5-.2.6-.5 0-1.2-.1-1.5.2-1 .8-1.9 1.8-2.8 2.8l1.8 1.4c1 .6 2 1 3 1.7.4.4 1 1.5.9 1.7-.5.6-.4 1.7-1.9 1.8-2.2 0-3.7-1.6-5.7-1.6l-.2-.5.5-.7c1.1.2 2.2.5 3.4.6.4 0 .9-.2 1.3-.4l-1-.4-1.4-.7zM62.6 53.1c1.3 2.3.5 4.6.6 6.7 0 1-2.5 1.6-3.4.8-2-1.6-3.2-3.8-4.2-6.2l.4-.6c.6.3 1.4.5 1.9 1 .4.5.3 1.4.7 2L61 59l.3-3v-5.9c0-.6.3-1.2.5-1.8 0-.2.4-.4.6-.5l.3.5v4.7zM27.3 715.7c3 .5 4 2.5 2.4 4.5-.8 1-2 1.8-3.1 2-2 .5-2.7 1.5-2.7 3.4 0 .4-.2.9-.4 1.3-.3-.4-.8-.8-.8-1.3-.2-1.2 0-2.4 0-3.6l-.1-2.7c0-.7-.6-1.8-.3-2.2.8-1 2-1.6 3.3-1.4h1.7zm1 4c.9-1.3.3-2.3-.8-2.6-1-.3-2.7-.7-3.2.7-.5 1.1-.1 2.5-.1 3.8l2.7-1.2c.3-.2.5-.5 1.4-.7zM169.1 775.6c1.1-1.3 1.6 0 2 .4.6.6 1 1.4 1.4 2.1l1 1.4.3-1.5.4-1.8c.2-.3.7-.4 1.1-.6l.5 1c.6 4-1.5 7.4-2.4 11 0 .2-.4.4-.7.6 0-.3 0-.7-.3-.8-1.7-1.6.7-3.2.1-4.8 0-.2.7-.5.2-1.2a44.4 44.4 0 01-3.6-5.8zM43.3 743.6c.4 3 3.2 1.3 4.3 2.7 0-.5.2-1 0-1.3-1.2-1.3-2.5-2.3-2.8-4.2-.2-1.2-.3-2.4.4-3.6.6-1.3 1.2-1.7 2.4-1.5.6 0 1.1.3 1.7.5l-1.4.8c-1.5.7-1.7 1.5-1.4 3.4.4 1.7 1.4 2.8 2.5 4 1.2 1.2 1 2.2-.5 3-1.6.8-3.4.4-4.9-.5-1.2-.8-1.8-2.3-1.6-3.9 0-.2.5-.5.7-.7l.6 1.3zM74.4 921c.2 1.3-.3 1.4-1.2.7l-1.9-1.4c-.2 1-.7 1.8-.7 2.7 0 1.7.3 3.4.7 5 .4 1.7 1.6 2 2.8.8l3-2.7c.2-.2.7 0 1.2 0l-.4 1-2.8 2.8c-2.5 2.3-5.5 1.6-5.7-1.6-.2-2.1-1-4.2-.3-6.5.4-1.4.8-2.5 2-3 1.3-.5 1.9.8 2.7 1.5l.6.6zM25.3 36.4c-.4 1.8-1 3.6-.4 5.1.4 1.3-.4 1.5-.8 1.5-1 .3-.7-.7-.8-1.2-.4-2.8.7-5.7-.6-8.4-.2-.3.3-1.1.7-1.3 2.6-1.3 5.4-1 8.2-1l.3.6c0 .2-.2.7-.4.7h-1.3c-.9 0-1.8-.1-2.6.1-1 .3-2.9 1-2.8 1.2.4 1.6 1.7.6 2.7.7 1 .2 2 0 3 0l.8.4-1 .3c-1.5.5-3 .9-5 1.3zM171.8 804.2c-2.2 1.9-2.5 2-3.3-.2-1-2.3-1.6-4.8-.7-7.4l.5-.9c.2.3.6.5.6.7.2.5.2 1 .2 1.6v2.3c.2 1 .7 1.7 1 2.6 1-.6.9-1.6 1-2.6l1.4-5.8c.1-.3.6-.6 1-.9 0 .4.3.8.3 1.1l-.9 6c-.2 1.1-.7 2.1-1.1 3.5zM183.8 564.5v-4.3c.1-1 .4-2 1-3 .4-.6 1.4-1.4 2-1.2.8.3 1.7 1.1 2 2 .8 2.3.4 4.6-.9 6.6-1.6 2.4-2 2.4-4.1 0zm1.3-2.3l.7 1.3.2 1 .7-.6c.3-.5.7-4.7.4-5.2l-.7-.8c-.2.2-.6.5-.6.8-.2 1-.3 2.1-.7 3.5zM53.3 931.4c-.8-2.7-.3-5.3-1.3-7.7-.3-.7-.1-1.6 0-2.3l.2-1.9c.3.6.9 1.1 1 1.8l.7 5.3c0 .3.3.5.4.8l.3-.9.7-3.3a47 47 0 011.3-4.1c.1-.2.6-.3.8-.3.2 0 .5.5.5.7-.9 3.7-1.7 7.5-2.7 11.2-.2.8-.6 2-2 .7zM104.5 849.5l-1.3 4.5c-.5 1.2-1.6 1.6-2.7 1.5-1.2-.2-1.3-1.2-1.3-2.3-.1-2.8-.1-5.6 1.9-7.8.4-.6 1.4-1.3 1.7-1.1.7.3 1.4 1.2 1.7 2 .2.8 0 1.9 0 3.2zm-3.3-.3c-.2 1-.6 2-.6 3 0 .7.6 1.3.9 2 .3-.7.9-1.2 1-1.9.2-1.3.1-2.6.2-4v-2.1l-1.5 1.7v1.3zM250.9 578.3c-.1-.7-.5-1.3-.5-1.8 0-2.5 0-2.5-2-2.7-.4 0-.8-.3-1.3-.4.4-.3.7-.8 1-.9 2.4-.3 4.9-.5 7.3-.6.3 0 .6.3 1 .5l-.8.8h-.7c-2.7.5-2.7.7-2.1 3.4.5 2.4.7 4.9-.7 7.1l-.7.7-.4-.4c.4-1.8-1.6-3.6-.1-5.7zM177.3 562.7c-.2 1.6-.2 3-.2 4.4 0 .3-.5.5-.8.7-.2-.2-.5-.4-.5-.6v-1.4l-.7-9c0-.8.6-1.4 1-.8 1.3 1.5 2.4.4 3.6.3.4 0 .8-.5 1-.4.7.2 1.2.6 1.7.9l-1.3.7-3.2 1c-.3.2-.7.7-.7 1 0 .4.5 1 .8 1h3.3c.4 0 .7.3 1 .4-.2.3-.5.8-.9.9l-4.1.9zM152.5 925.4c.4.3.7.7.6.9-1.4 2-3.5 3-5.9 3.1-1.3.1-2-.4-2-1.8v-7.7c0-.6.7-1.1 1-1.7.3.6.9 1.2.9 1.9v6c0 1.5.3 1.8 1.7.8 1-.7 2.2-1 3.7-1.5zM53.3 729.7c-.4.4-1.1.5-1.1.5-.4-1-.8-2-1-3-.2-2 .5-4.3-.5-6.4-.3-.5.3-2 .7-2.1 1.3-.2 3-.4 4 .2 2.2 1.4 2 4.3-.3 5.9-2 1.4-2 1.4-1.8 3.9v1zm-1-9.4c0 1.2.2 2.4.3 3.5l.6.3c1.5-.4 2.4-1.7 2-3-.4-1.5-1.3-1.9-3-.8zM209.6 577c-.7.7-1.7 1.2-1.8 1.8-.1.8.1 2 .6 2.6.8 1.1 2 1.9 2.8 2.9 1 1.2.6 2.7-1 2.8-2 .3-4.1.2-5.4-2-.2-.2-.2-.7-.3-1 .4 0 .8-.2 1.1 0 1 .5 1.7 1.2 2.6 1.7.4.2 1-.2 1.5-.3l-.4-1.1a89 89 0 00-2.9-3.5c-.9-1-1.1-2.1-.2-3.2 1.1-1.2 2.3-2.6 4.2-2.5.5 0 .9.6 1.3 1-.5 0-1 .2-1.4.3-.2 0-.4.2-.7.5zM32 39.8c.2-2.5.3-4.6.7-6.7 0-.4.8-1.1 1.1-1 .5.1.4.6.3 1.3-.3 2.5-.2 5.1-.1 7.6 0 1.1.6 1 1.3.4 1-.7 2-1.6 3-2.2.4-.2 1 0 1.6.2-.3.5-.4 1.2-.9 1.5-.7.8-1.8 1.2-2.4 2-.8 1-1.8 1.1-2.7.8-1-.4-2-1.1-2-2.6v-1.3zM116.7 559.7c2-2.7 5-3.3 8.2-3.2.3 0 .6.4 1 .6-.3.3-.6.7-.9.7-.6.1-1.4-.2-2 .1-.7.5-2.1.2-1.4 2.5 1 3 .7 6.6.9 10l-.3.8c-.3-.3-.6-.5-.7-.8-.4-.6-.9-1.2-1-1.9 0-1.5-.2-3.1 0-4.6.3-1.3-1.5-2.5 0-3.8-.3-.3-.6-.9-1-.9l-2.8.5zM151 904l1.8-7.2c0-.2.7-.5.9-.4.3.1.6.6.6.9l-2.5 9a2 2 0 01-1.4 1c-.5.2-1.5-.2-1.6-.6-.6-2.4-1.7-4.8-.5-7.3.1-.4.4-.8.6-1.1.3.4.8.8.9 1.3 0 1.5-.2 3 0 4.6.3 1.3.7 0 1.2-.2zM137.8 882.8l-.7 4.7c0 .7-.4 1.4-.4 2.1 0 .6.4 1 .5 1.6.4-.2 1-.3 1.2-.7.5-.7 1-1.5 1.4-2.4.5-1.3 1.5-1.4 2.6-1.3.2 0 .5.6.4.6l-3.7 4.5c-.8 1-1.9 1.1-2.9.8-1-.3-1-1.4-1-2.4-.3-3 .4-5.9 1.3-8.7.2-.5.7-1 1.1-1.3l.2 1.5v1zM133.3 781.1c-2.7 1-2.8 1-2.8 3.6 0 1 .1 2.8-1 2.7-1.4 0-1.3-2-1-3 1-2.2.4-4.5.7-6.7 0-.5.2-1.4.4-1.4 1.8 0 3.7.1 5.5.3.2 0 .5.4.7.6-.3.2-.5.4-.8.4-.9 0-1.8-.2-2.6 0-.7.2-1.3.9-1.9 1.4 0 .1-.7 1.8 1 .8 1-.7 2.8-.2 4.2-.2.3 0 .5.3.7.4l-.5.5-2.6.6zM66.7 812.7c.5-.9 2.1-1.8 3-1.8h6c.3 0 .6.2.8.3-.2.3-.4.7-.7.7-3.1.2-2.6 2.5-2.6 4.5v4c0 .3-.6.7-1 1.1-.3-.4-.9-.8-1-1.2v-5c0-2.4 0-2.4-2.3-2.4-.7 0-1.3 0-2.2-.2zM54.6 902.1c.2-1.4-.7-2.9.7-3.6 1-.6 2.1-.7 3.2-1l.7.4c-.2.3-.3.7-.6.9-3.2 1.3-3.4 2-1.6 4.8.6.8 1.3 1.5 1.6 2.3.3.7.5 1.8.2 2.2-.7.6-2 1.4-2.6 1.1-1.6-.7-3-1.9-4.4-3-.2 0-.2-.4-.4-.6.4 0 .7-.2 1-.1l3.2 1.9c.4.2 1 0 1.5-.1l-.4-1.4c-.7-1.2-1.4-2.3-2.1-3.8zM87.2 906.1c-.6 1.3-1.5 1.3-2.5 1.4-1.2 0-1.3-.3-1.6-1.4-.6-2.7.1-5 .8-7.5.3-.8.8-1.6 1.9-2.2 1.5-.7 2 .3 2 1 0 2.8.6 5.7-.6 8.7zm-2.7-1.6c.2.5.3 1.5.6 1.5 1 .3.5-.7.8-1.2 1.1-2 .5-4 .6-6 0-.4-.2-.8-.4-1.2-.3.4-.8.8-.9 1.2l-.7 5.7zM133 846.7c.4-.2.8-.2.8-.1l.7 6 .3.9.7-.6c1.7-2 2.6-4.5 3-7 0-.4.4-.7.5-1 .3.3.8.7.8 1 .2 2.5-.6 4.8-2.1 6.8-.5.5-.7 1.3-1.2 1.8-.5.4-1.3 1-1.9 1-.5-.1-1.2-.9-1.4-1.5-.8-2.3-1.1-4.7-.2-7.3zM124.5 797v5.5l.2 1 1-.7c.3-1.4 1.4-1.6 2.4-1.9l1 .2-.5.7c-1 1.1-2.1 2.3-3.3 3.2-.6.5-1.6.5-2.4.5-.2 0-.4-1.1-.4-1.7 0-1.7.2-3.4 0-5-.3-1.5.8-3 0-4.4 0-.3.6-.9.8-1.3.4.4 1 .7 1.2 1.2v2.6zM93.9 906.8v-6c0-1 0-2-1.4-1l-.2.2-2.7-.5v-.7l2.3-.7 5.4-.6c.2 0 .5.4.5.6 0 .2-.2.7-.4.7-2.3 0-2.2.9-1.6 2.8.4 1.4-.3 3.1-.4 4.7 0 .7.4 1.4.3 2 0 .6-.4 1.1-.7 1.6-.2-.3-.5-.6-.6-1a11 11 0 01-.5-2.1zM82.6 929.4l-.5 1.2c-.3-.6-.8-1.3-.8-2v-6.9c0-1.2-.3-1.8-1.6-1.6-.4 0-.8-.5-1.1-.7l1.2-.6c1.8-.4 3.6-1.4 5.5-.3l1.1.7c-.3.3-.6.8-1 .9-2.2.7-2.2.6-2.2 3.3 0 2 .3 3.9-.6 6zM85.7 743.6c-.2 3.3-2.1 5.2-4.8 4.6-.9-.2-2.1-1.1-2.3-1.9-.6-3.6.7-6.8 2.8-9.7.5-.8 1.6-.4 2.1.4.1 0-.2.5-.4.6-2.4 1.5-2.7 4-3.2 6.5-.3 1.4.6 2.1 1.5 2.6.4.2 1.4-.5 2-1 .8-.6 1.4-1.4 2.3-2zM103.2 606.5c1.4 1.1 2.2-.4 3.4-.5.5 0 1-.8 1.6-.8 1-.1 2 0 2.9.1-.7.6-1.3 1.3-2.1 1.7-1.8.8-3.6 1.5-5.4 2-.5.1-1.5-.5-1.6-.8 0-3-.7-6.2.5-9.2.1-.2.6-.5.7-.5.3.2.6.6.6.8 0 1.1-.1 2.2-.3 3.2-.3 1.2.8 2.5-.3 4zM63.2 729.7c-2 .1-2.8-.6-2.6-2.3l.7-9c0-.2.4-.5.7-.7.2.3.5.6.5.9v7.6c.1 1.6.7 2 2.2 1l.2-.2 2-.6c-.3.5-.6 1.2-1 1.6a11 11 0 01-2.7 1.7zM146.5 562.5c.4.4.6 1 .5 1.1a47.3 47.3 0 01-3.8 3.8c-.5.4-1.6 1-2 .7-.6-.5-1.4-1.6-1.3-2.3.5-2.6-1.4-5.1-.1-7.7 0-.2-.5-.7-.5-1.1 0-.3.4-.6.6-1 .2.3.5.5.6.8 1 2.4.5 5 .7 7.6 0 .5.2 1 .4 1.4l1.3-.7 3.6-2.6zM154.5 922.1v-1.3l.5-2.7c1.4.4 1.1 1.9 1.4 2.8.3 1.6 0 3.3 0 5l.4.8c.2-.2.6-.4.6-.6.2-1.3 1.4-1.3 2.1-2-.1 1 0 2.2-.4 3-.7 1-1.7 2.1-3.3 1.7-1.4-.4-1-1.7-1.4-2.5-.9-1.5-.5-2.6 0-4.2zM146.5 723.7a5 5 0 011.9-4.9c.3-.2 1.2-.2 1.5 0 1.3 1.1-.2.7-.5 1-2 1.6-2 3.5-.1 5.7.8 1 2.5 1.6 1.8 3.1-.9 1.8-2.8 1.1-4.2 1-.9-.1-1.8-1.1-2.4-1.9-.2-.4 0-1.2.1-1.9.4.4 1 .7 1.2 1.2.4 1 1 1.5 2 1.3.4 0 .9-.3 1.3-.4l-.5-1.1-2.1-3.1zM30 860.2c.8.1 1.8.2 1.9.5.2 1.1-.7.8-1.3.8-2.5.2-2.5.3-2.7 2.6 0 1.8-.4 3.6-.6 5.3 0 .3-.5.5-.8.8-.2-.4-.5-.7-.5-1v-4.7c0-.7.2-1.5.4-2.2h-2.9l-.9.1c.1-.3.1-.7.3-.8 1-.5 2-1.2 3-1.4 1.3-.2 2.5 0 4 0zM228.4 556.5H226c-.2 0-.3-.5-.4-.8 0-.2.3-.5.4-.5 2.3.4 4.2-1 6.4-1.3.4 0 .8.4 1.2.6l-.8.7c-1.4.6-2 1.5-1.9 3 .2 2 0 4 0 6 0 .4-.3.7-.5 1-.3-.3-.7-.5-.8-.8l-.6-4.4c-.2-1.1-.3-2.3-.7-3.5zM139.8 730.3a4.8 4.8 0 01-2-4.3c0-.9-.5-1.7-.6-2.7v-2.6c0-.4.6-.6.9-1l.4 1 1.3 7.4.3.9c.4-.3.9-.6 1-1l.7-5.6c.1-.5.6-.9.9-1.3.2.4.4.8.4 1.3.2 2.3.3 4.7-1.3 6.7-.4.5-1 .8-2 1.2zM128.5 32.5c1.4 2.2.3 4.3.6 6.3 0 0-.3.3-.5.3-.3 0-.7-.2-.7-.4-.3-1.6-.6-3.1-.7-4.7-.1-2.6 0-2.6-2.7-2.9-.5 0-.9-.3-1.3-.5.3-.5.5-1.3.8-1.3h7.6l.2.4c0 .3-.3.7-.5.7h-2c-1.4 0-.6 1.1-.8 2zM77.9 779c.5 1.5.5 5.5-.1 6.4l-.6.2c-.2-.1-.6-.4-.6-.6v-5c0-2.8 0-2.8-2.7-3.8-.4 0-.6-.7-.6-1.2 0-.2.4-.7.7-.7h6.6l.5.2-.6.4-.8.5c-.8.3-2 .3-2.4 1-.3.3.4 1.4.6 2.5zM130 729.5c-.4-.9-.7-1.5-.8-2.2 0-.5.3-1.1.5-1.6l.8 1c.5.8.8 1.7 1.2 2.5l.8 1.1c.2-.4.7-.8.6-1.2 0-1.2-.4-2.5-.5-3.7v-4.9c.1-.3.7-.5 1-.8l.2 1 .7 9c0 1 .2 2.4-1.2 2.5-.8.1-1.7-.7-2.4-1.2-.4-.3-.5-.9-.9-1.5zM199.8 577.8c-1.6.2-2 .5-1.8 2.1.2 2 .2 4-.3 6 0 .2-.3.4-.5.6-.3-.3-.8-.6-.7-.8 0-1.8-.3-3.6-.1-5.4.2-1.3 0-2.4-1.7-2.5l-.9-.3c.2-.2.4-.6.6-.6 2.3-.2 4.4-1.8 6.7-.7l1.2.7-1 .5-1.6.4zM37.8 23l-2.3 1.5c-1 .8-2 .6-2.2-.7v-2.3l.7-5.7c0-.2.3-.4.5-.7.2.3.7.5.7.8 0 1.9 0 3.9-.2 5.8l-.1.7.8-.1c1.1-1 2.3-2 4-1.8.5 0 1 .6 1.5 1L40 22l-2.2.9zM81.4 757.1c3-.6 5.8.2 8.6-.1.1 0 .5.4.5.6l-.4.7h-.4c-3.7.6-3.6.5-2.7 4.2.2 1-.3 2.2-.5 3.3l-.3 1.8c-.3-.7-.9-1.5-1-2.2v-5.7c.1-1.1-.2-1.6-1.4-1.4-1 .1-2 0-2.4-1.2zM134.5 601.1c-.8-.6-1.5-1-2.2-1.3l-1.1-.8c.3-.1.6-.5 1-.5l5.6-.7c.4 0 .9.3 1.4.5-.4.3-.7.7-1 .8-2 .6-2.7 1.9-2.4 4 .2 1.3 0 2.8 0 4.2 0 .4-.5.8-.7 1.2-.2-.3-.5-.6-.6-1-.3-1.5-.5-3-.6-4.7 0-.4.4-.9.6-1.7zM108.5 778.3c1 2.3.9 4.3 0 6.4 0 .3-.2.6-.3.8l-.9-.8-.1-1.6v-4c0-1 0-1.7-1.3-1.5-.6 0-1.2-.4-1.7-.7-.2-.1-.4-.6-.3-.9 0-.2.5-.4.7-.4h7.3l.6.3-.8.4-2.6.7c-.3 0-.4.6-.6 1.3zM163.8 625.8v-2c.2-1.4 0-2.4-1.8-2-.3 0-.6-.5-.9-.7.3-.2.6-.6.9-.6 2-.2 2.7-1.2 2.5-3.1 0-.3.4-.6.5-1 .3.4.8.8.7 1.2-.2 1.8.5 2.5 2.4 2.2.3 0 .6.3 1 .4-.4.3-.7.9-1 .9-2.3-.2-2.3 1.3-2.3 3 0 2-.1 2-2 1.7zM157.6 730.8c-1.6-1.2-1.4-3-1.8-4.8v-2.3c.1-1.3.1-2.4-1.8-2.1-.4 0-1-.6-1.5-1 .5-.2.9-.5 1.4-.6.6-.2 1.2-.2 1.8-.1.6 0 1.2.3 1.8.4l2.9.3c-.8.3-1.6 1-2.4 1-1.5.2-.3.6-.2 1 0 2.7 0 5.4-.2 8.2zM144.5 835.5c1 1.3 1.1 2.6 0 3.3-1 .7-3-.2-3.6-1.2l-.4-.9-.3-1.2 1 1c.2.1.3.5.6.6.3.2.7.2 1.1.3 0-.3.2-.9 0-1-1.3-1.4-1.2-3-1-4.6.1-2 1.2-3 3-3l.8.3-.5.7c-1.7 1.5-1.9 2.8-.7 5.7zM79.9 864.8c.1-.5.4-.6.4-.8l-.3-.5-2 .6c-.7.1-1.4 0-2-.1.6-.6 1-1.7 1.7-1.7 2-.3 4.2-.1 6.3-.1.2 0 .4.2.5.3-.2.2-.4.6-.7.7-2.6.5-2.6 2.5-2.6 4.5v4c0 .1-.4.4-.7.4-.2 0-.6-.3-.6-.5.1-2.1-.6-4.3 0-6.8zM70.4 796.4a36 36 0 01-.5 5.2c0 .2-.6.4-.9.6-.1-.2-.4-.4-.4-.7v-6.2c0-1.4-.4-2.4-1.8-1.5-1.1.7-1.4-.3-1.5-.7-.3-1 .6-.8 1.2-.8h5c.3 0 .7.4 1 .7-.2.2-.5.5-.9.6-1.5.3-2.2 1-1.2 2.8zM32 757.6c-.2-.4-.4-.5-.6-.6l-1.5-.8c.5-.2.8-.5 1.3-.6 1.5-.2 3.1-.5 4.7-.6.2 0 .5.5.7.8l-.7.5c-2.2.6-2 .6-1.7 2.7.4 2.1.3 4.3.4 6.5 0 .2-.5.5-.7.8-.2-.3-.6-.6-.6-1l-.7-6.6c0-.3-.4-.5-.7-1zM152.3 882.3c0-1.1 1-1.2 1.6-1.4 1.6-.6 3.2-1 4.8-1.3.6-.1 1.2 0 1.8.3.1 0 1.3.7 0 .9-3 .6-2.8 2.7-2.7 5v2.6c0 .4-.5.7-.7 1-.2-.4-.6-.8-.6-1.2 0-1.5-.2-3.1 0-4.6.2-1.7-.8-1.5-1.8-1.4-.7 0-1.5.2-2.4.1zM63.4 872.3l-.7 1.2c-.2-.2-.8-.5-.7-.7l.8-4 .4-1.7-1.6.4-2.7.6c-.5 0-1-.4-1.4-.7.3-.2.5-.5.8-.6l5.2-2c1.4-.3 2 .3 1.7 1.8-.4 1.9-1 3.7-1.8 5.7zM106.5 924.1v5.6c0 1-.4 1.2-1.1 1-.4 0-.8-.6-.8-1l-.1-10c0-.9.5-1.1 1.2-.9.3.1.8.6.8 1v4.3zM45.4 756.5c.7-.4 1-.8 1.6-.8.3 0 .7.3.9.5 0 0-.2.6-.4.7-.5.5-1.4.9-1.5 1.4-.2 1 0 2.1.1 3.2.1.4.6.9.7 1.3.1 1 .5 2 .1 2.7-.3.7-3 0-3.6-1-.2-.3-.5-.7-.5-1l.1-1.2 1 .5 1 .8c0-.4.2-1 0-1.3-1.4-2-1-3.9.5-5.8zM142.5 812.2c-1 .4-1.8.8-2 1.3l-.7 5.6c0 .4-.2.7-.4 1-.3-.3-.9-.6-.9-.9.3-1.7-.6-3.6.6-5.4.3-.4.7-2.2-1.3-1.3-.4.2-1.3-.4-1.9-.7.5-.3 1-.8 1.6-.9h5.6c.3 0 .5.5.7.8-.3.2-.7.4-1.3.5zM157.8 557.9v-1.4c.2-.4.6-.8 1-1.2l.6 1.2c.2.3.4.7.4 1.1v9.3c0 .3-.4.6-.5 1-.3-.3-.7-.5-.8-.8-.3-.8-.6-1.8-.7-2.7V558zM22.6 905.5v-6c0-.6 0-1.3.2-1.9.3-.5.9-1 1.3-1.5.2.6.5 1.1.5 1.7v9.5l-.8 1.3c-.3-.3-.6-.6-.7-1a11 11 0 01-.5-2.1zM27.3 765.6c-.2 1 .6 2-.9 2-1.1.1-1-.5-1.2-1.3-1-3.7.5-7.4.1-11 0-.3.3-.7.5-1 .3.3.8.7.8 1v8c0 .6.5 1.3.7 2.3zM56.6 741v6l-.2.5c-.3-.1-.6-.2-.7-.5-.2-.4-.4-1-.4-1.4v-3.7c0-1.5-.1-2.8-2-3.2-.2 0-.4-.6-.6-.9l1-.1h6l.8.2c-.3.3-.5.8-.8 1h-2.3c-1.4 0-.6 1.1-.8 2zM62 926.1c.1-2.2.3-4.1.6-6 0-.2.5-.4.8-.7.2.3.5.5.5.7v9.2c0 .5-.7 1-1 1.4-.4-.5-.9-.9-1-1.3V926zM44.8 834.4l.5-4.7c0-.5.7-1 1-1.5.3.5.9.9 1 1.3 0 2.9 0 5.7-1.4 8.4l-.8 1c-.2-.4-.5-.7-.5-1 0-1.2 0-2.3.2-3.5zM123.8 782.3l.7-5.4c0-.2.3-.4.5-.6.3.2.8.4.8.7-.2 3.4.7 6.9-.6 10.2l-.5 1c-.3-.4-.8-.7-.8-1v-5zM149.3 841.4c-.3-.8 0-4.4.1-5.2.4-1.4.8-2.8 1-4.2.1-.8.2-1.1 1.1-1.2 1.1 0 1.1.7 1 1.3l-2.1 7.8a3 3 0 01-1 1.5zM82.6 817.6c.4-1.6.8-2.8-1.3-2.7-.4 0-.9-.3-1.3-.4.3-.3.7-1 1-.9 1.7.3 2-1 2.6-2.1l.7-.5.2.6v8.5c0 .3-.5.5-.7.8-.2-.2-.5-.4-.6-.7l-.6-2.6zM98.5 31.8l.5-2.1c0-.2.3-.4.5-.5l.3.7v4.3c.3 2-.5 4.1.7 6 .1.3-.5 1-.7 1.4-.4-.3-1.2-.5-1.2-.8 0-1.8-1.7-3.4-.2-5.4.6-.7.1-2.2.1-3.6z"/>
  <path fill="#00EBAB" d="M86 743.6c-1-1.2-2.2-.5-3.2-.5l-1 .1.4-.8c1.3-1.5 5.8-1 6.2.9.5 1.7.3 3.6-1 5-.1.3-.7.4-.9.3-.2-.2-.3-.6-.3-1 0-1.3 0-2.6-.2-4zM63.4 891.3c-1.4-2.2-.9-4.3-.6-6.4.2-1 .6-2 1-2.9 0-.3.7-.4 1-.5.1 0 .5.6.4.7-1.5 3 .4 6.5-1.8 9.1zM34 870.8l1.3-7.4c.1-.4.6-.8 1-1.2l.3 1.5-.7 8c0 .6-.7 1.1-1 1.7l-1-2v-.6zM166.5 583.2v-4c0-.3.7-.6 1.1-.7.2 0 .8.4.8.6v7.6c0 .3-.5.7-.8 1-.2-.4-.6-.7-.7-1.1l-.4-3.4zM113.2 563.8v5c0 .3-.3.6-.4 1-.3-.4-.9-.7-1-1l-.6-10.3c0-.2.5-.4.8-.6.2.2.5.4.5.6l.7 5.3zM161.8 577.8c3-1.6 6.2-1.7 9.1-2.6l.9.3c-.2.3-.2.8-.5 1-.3.4-.9.5-1.4.7-2.2.5-4.6 1-6.8 1.7-1.3.4-1.6.1-1.3-1zM48.6 904.1v3.6c0 .4-.3.7-.4 1-.3-.2-.7-.5-.7-.7-.2-3-.9-6.2.4-9.2l.8-.7c.2.4.6.7.5 1l-.6 5zM64 742.3l-.8 4.3-.2 1.6c-.4-.6-1-1-1-1.6-.2-1.3-.2-2.7 0-4 0-1.4.3-2.9.6-4.3 0-.2.3-.4.5-.7.3.3.8.5.8.8v4zM61.4 879c1.7-.2 3.1 0 4.6-.8.4-.2 1.2.6 1.9 1-.5.3-1 .8-1.5 1-1.8.2-3.8 0-5.4.7-1.1.6-1.6-.2-2.3-.3l1.7-1.1 1-.5zM110.5 846.9c.8 1 .6 1.8.2 3-.5 1.3-.1 3-.2 4.5 0 .4-.3.8-.4 1.1l-1-1c-1.6-2.3.2-4.3.6-6.5.1-.4.3-.8.8-1.1zM139.2 832.9l-.7 4.6c0 .3-.4.5-.5.7-.3-.2-.8-.5-.8-.7 0-1.4.3-2.7.4-4 .1-1.6 0-3.1.3-4.6 0-.4.5-.8.8-1.3.2.5.4.9.4 1.3v4zM236.4 559.9v-3.7c0-.3.6-.6.9-1l.4 1c.6 2.7 0 5.3 0 8 0 .3-.4.7-.5 1-.3-.4-.8-.7-.8-1v-4.4zM78 820v-8.3c0-.5.4-1 .6-1.5.2.4.6.9.6 1.3v7.9c0 .3-.6.5-1.1.7zM34 801.6v-8.3c0-.4.5-.7.7-1 .2.3.5.6.5 1v8.2c0 1-.6.9-1.3 0zM157.1 905.5c-.1.6-.3 1-.5 1.3l-.8-.4c.3-2.6-.7-5.4.6-8l.5-.8c.3.3.7.5.9 1v.9c-1.2 1.8-.4 3.7-.7 6zM105.9 845.5c2.5-.6 4.8-1.4 7-2 .4 0 1 .5 1.4.8-.4.3-.7.8-1.1.9-2.3.6-4.6 1-7 1.5-.1 0-.4-.8-.3-1.2zM163.8 868.8l-1.7.7-.9-.3c0-.3.1-1 .3-1 .8-.4 1.6-.5 2.4-.7 1.3-.4 2.5-1 3.8-1.3.4-.1 1.3.1 1.4.4.3 1-.6.8-1.2 1l-4.1 1.2zM33.4 897.6a74 74 0 01-6.4 1.8c-.3 0-.7-.4-1-.7.3-.2.5-.5.9-.6 2.2-.5 4.3-1.5 6.7-1.3l.2.2c0 .2-.1.3-.4.6zM151 830c-.7 0-1.7 0-1.8-.3-.2-1.1.8-.6 1.3-.9 1.6-1 3.3-.5 5-.5.3 0 .6.5.9.8-.3.2-.7.4-1 .4l-4.4.5zM111.9 761.6h-1.7l-1.6.4c.4-.6.6-1.5 1.1-1.6 1.2-.5 2.5-.6 3.7-.7.4 0 .7.4 1.1.7l-1 .5a8 8 0 01-1.6.7zM224.9 597.1c.4-1.3.7-2.3 1.2-3.3.2-.3.7-.5 1-.7.2.3.6.7.6 1 0 1.5-.6 2.7-1.8 3.5-.1.2-.7-.1-1-.5zM29.3 902.8v-2c0-.3.5-.4.8-.7.2.3.5.5.5.7v2.3l-.4 3.6-1-4zM45.3 926.8h-2.4l-1.5-1.2c.7-.3 1.4-.8 2-.8.8 0 1.6.4 2.4.6l.7.4-1.2 1zM178.6 850.4c-1.2 1-1.6 0-2.1-.6l1.6-1h.3l3.3 1c-1 0-2 .2-3 .6zM176.4 921.4c-.3 1.8-2.2 1-3.3 2l-.5-.2v-.9c.9-1.4 2.3-.7 3.8-.9zM40 757c-1.2-1.1-.2-1.5.2-2 .4.5 1 .9 1 1.4 0 .6-.3 1.3-.5 1.9L40 757zM64 793l-.1 1.9c-.1.3-.5.5-.8.7-.2-.2-.5-.5-.5-.7v-2.3s.9 0 1.3.3zM76 804l.1-2.3c0-.3.6-.5.9-.7 0 .3.3.6.2.8-.3.8 1 2.3-1.1 2.3zM140.7 765.1l1.7-.6c-.3.6-.4 1.3-.8 1.6-.8.5-1.2 0-1-1zM73.2 888.1c-.4 0-.9-.3-1.3-.7l.5-.6c.3.3.6.7.8 1.3zM93 834a2 2 0 01-1 0l1-1v1zM186.3 904h-1l1-1v1zM231 119.7l-12.3-.7-.9-.2c.3-.2.7-.4 1-.4 2.4.2 4.7-.3 7 .5 1.8.6 3.8 0 5.7 0h.9l-1.4.8zM214.4 118.4h2c.2 0 .3 0 .5.2-.1.1-.3.4-.5.4l-2.5-.2v-.2c0-.1 0-.2.5-.2zM210.6 118.2c0-.2.2-.2.4-.2l-.4.2z"/>
  <defs>
    <pattern id="pattern0" width="1" height="1" patternContentUnits="objectBoundingBox">
      <use transform="matrix(.00241 0 0 .0013 0 0)" xlink:href="#image0"/>
    </pattern>
    <image id="image0" width="415" height="777" href="1_blackouttuesday2.jpg"/>
  </defs>
</svg>
