<svg xmlns="http://www.w3.org/2000/svg" xmlns:xlink="http://www.w3.org/1999/xlink" fill="none" viewBox="0 0 828 813" width="828" height="813">
  <defs/>
  <path fill="url(#pattern0)" d="M12 20h452v780H12z"/>
  <path fill="#00EBAB" d="M320.7 212.1c6-3 11.6-6.5 18.3-7.2 3-3.4 8.2-2 11.1-5.5 5-.1 8.9-3.4 13.4-4.7 2-.7 4-1.7 6-2.5a1845.3 1845.3 0 0142.7-16.7l13.3-5c4.2-1.3 8.5-2.5 12.8-3.6 5.2-1.4 10.2-3.3 15.6-3.9 3.1-.3 6-1.8 9.1-2.6 7.3-2 14.6-3.6 21.8-5.7 5.5-1.6 11-1.7 16.5-2.7 1-.2 2-.5 2.9-1 1.2-.6 1.8-1.3.4-2.5-2-1.6-3.7-4-6-4.7-2.8-1-4.3-4.1-7.5-4.2-.4 0-1-1-1-1.2.3-.5.9-1.2 1.4-1.2 3.5-.6 6.8.2 9.6 2.3 3.8 2.9 7.4 5.8 10.6 9.4 1.4 1.7 2 3.4 1.3 5-1 2-.6 4-.8 6-.1 1-.5 1.7-.7 2.6-.4 1.2-1 2.4-1 3.7-.1 3.2-1.5 5.8-4 7.6-.8.7-1.6 1-2.8-.6-2-2.6-1.4-5.5-.5-7.7.9-2.2.6-4.2.5-6.2 0-1.1-.6-1.8 1-2-.3-.6-.5-1.5-.9-1.5-1.2-.2-2.6-.4-3.7 0-6.2 2.2-13.1 1.6-19.3 3.8-6.6 2.3-13.6 2.3-20.1 5-3.8 1.6-8.2 2.3-12.3 2.9-5 .8-9.7 2.9-14.6 4.1-6.4 1.6-12.5 4.1-18.7 6.4l-24 9.3c-5.5 2.1-11 4.2-16.3 6.5-3.7 1.5-7.4 3.1-11 5-4.2 2.2-8.7 3.5-13.1 5.2-.4.1-1-.2-1.4 0-6.8 4.1-14.5 6.1-21.6 9.6-5 2.4-9.6 5.9-14.5 8.7-2 1.2-4 2.7-6.6 3-3 .5-5 3-7.6 4.2l-6.7 2.8c-5.9 2.6-12 5-17.3 8.7-2.8 2-5.8 3.9-8.8 5.6-1 .6-1.1.4 0 1 2 1.3 4.1 2.5 5.5 4.3 2.1 2.7 3.8 5.8 5.3 9 1.8 3.8 3.4 7.8 5 11.8 1.3 3.4 1.5 7 2.1 10.5.9 4.9-.7 9.4-.5 14.1.2 4.4-.1 9.2-2 13-2.6 5.1-4.9 10.8-11 13.5-3.9 1.6-7.6 3.6-11.3 5.5a26 26 0 01-22.6.8c-1.7-.7-3.6-1-5.3-1.7-6.8-3.1-13-7.1-16.3-14.3-.5-.9-1.6-1.5-2.2-2.3a38 38 0 01-5.2-12.7c-.8-3.2-1.2-6.6-1.9-10a60.7 60.7 0 01-1.1-23c.6-3.6 2.5-6.4 4-9.5 0-.3.2-.6.5-.7 5.9-2.7 9.3-8.8 15.2-11.4 2.4-1.2 5.1-1.8 7.8-2.4 2-.4 4.1.3 6.2-.9.8-.5 2.3 0 3.5.2.7.2 1.6.8 2 .6 3-1.8 6 .6 9 0 2.4-.4 3.6 3 6.3 2 .3 0 1 .5 2 0 5-3.5 10-7 15.4-10 5.5-2.9 11.3-5.6 17.2-7.6 4.6-1.6 8.4-4.5 12.6-6.6 4.8-2.3 9.4-5 14.3-7.7zm-100.5 98.7c3.2 3 6 6.4 9.7 8.8 6 4 12 7 19.4 6.9 1.3 0 2.6-.4 3.8-1 4.2-2 8.3-4.3 12.6-6.4 7-3.3 10.6-9 12.7-16.4a62.7 62.7 0 001.6-19.2c0-2.4-.8-4.8-1.4-7.2a34.2 34.2 0 00-6-12.4c-3.8-4.8-6.2-11.3-13.7-12-.8-.1-1.5-1-2.3-1.3-1.3-.4-2.7-.9-4.1-1.1l-9.3-1.2c-6.9-.6-14.1-3.1-19.8 3.5-.3.4-1.1.3-1.5.7-3 2.6-6 5-8.6 8-3.6 4-3.3 9.3-3.6 14.2a49 49 0 001.9 15.8c2 6.8 3.6 14 8.6 20.3zM639.2 222.8l1.2 4.5.3 1.7.6-1.5 1-4.7c0-.7.1-1.5.4-2.1.3-.4 1-.6 1.5-1 .3.7.8 1.3.7 1.8a175 175 0 01-2.2 11.1c-.2.8-1.4 2-1.8 1.9-1-.4-2-1.2-2.3-2-.6-2.3-.8-4.7-1-7-.1-1.2.2-2.2-1.6-2-1.5 0-2.8.2-3 1.9-.2 1-.1 2.1 0 3.2 0 3.1-2 5-4 6.7-1.1 1-3.8-.5-4.4-2.2-1.3-3.6.4-10.2 3.4-12.5.6-.5 2-1 2.3-.8 2.2 2.6 5 1.6 7.7 1.9.3 0 .6.5 1.2 1zm-11.8 8.6c-.2 1.2.8 2 1.4 1.1 1.8-2.5 3-5.5 2-8.7 0-.5-.7-.9-1.2-1.1-.1-.1-.7.5-1 .9-1.6 2-1.2 4.5-1.2 7.8zM612.5 224.4c1 3.2 3.3 1.3 5 1.9.1-1 .5-2 .5-2.9 0-.5-.7-1-.7-1.4 0-.3.6-.8 1-1 .2 0 .7.2.9.4.3.3.7.7.7 1l.3 6.5c.1 1.6.4 3.3.4 5 0 .5-.5 1-.8 1.3-.3-.3-.7-.5-.8-1-.3-1-.7-2.1-.9-3.2-.4-2.5-1.3-3.3-3.5-2.8-.5 0-1 .5-1.1 1l-1 5.6c-.1.6-.6 1.1-.9 1.7-.6-.5-1.4-.8-1.7-1.3-.3-.7-.2-1.5-.2-2.3V225c0-1 .8-2.5-1.5-2.5-2.7 0-3.8.4-4 2.4l-1 10.3c0 .4-.2.8-.4 1.2-.4-.4-1.2-.7-1.2-1.2-.2-2.3-.3-4.6-.2-6.8 0-1.5.6-2.9.9-4.3l-4.3-.6-1.2-.4c.1-.8.3-2.3.6-2.3 2-.2 4 .2 5.3-1.8.1-.2 1.3 0 1.5.4 1.2 1.8 3 1.3 4.6 1.3 3.5-.2 3.5-.2 3.7 3.7zM617.1 196.5c.8-.9 1.5-1.3 2.2-1.8.2.7.6 1.3.6 2v7c.1 2.8.8 3.2 3.3 2l2-.8c1.5-.3 2.1-1.1 2.2-2.8.1-2.5.6-5 1-7.4 0-.4.4-.8.7-.9.3 0 .9.3 1 .6.4 1 .8 2.1 1 3.3v3.7c0 1.4.3 3 .4 4.4l4.1-2.2a7 7 0 011.7-.5c.2-.1.6 0 .8 0 0 .4 0 .8-.2 1-1.5 1.6-3 3.2-4.6 4.6-1.9 1.6-3.8 1-5-1-.4-.5-1.5-1-2.1-.8-.8.2-1.3 1.3-2 1.6a4.7 4.7 0 01-7-4v-8zM676.8 236.2c.1-2.4-2.7-4.6-.3-6.9 0 0-.4-1-.8-1.1-3.4-.9-6 1.7-5.4 5.3l.3.3c.6 1.6-.4 2.6-1.3 3.6-.7-.8-1.7-1.6-2-2.5-.3-1.5-.1-3.1 0-4.6.2-2.7.5-5.4 1-8 .1-.6 1.2-1 1.9-1.6.3.6.8 1.2.8 1.8 0 1.6.5 2.6 2.1 2.8 1.6.2 3.1.1 3.5-2 .1-.7.8-1.2.8-2 .1-1 .2-2 1.5-1.5a3 3 0 011.5 1.6c.5 1 1.2 2.6.7 3.3-2 3.3-2.8 6.7-2.8 10.5 0 .4-.8.8-1.5 1zM534.5 176.1c0-1-.2-1.7 0-2.3.3-.8.9-1.5 1.3-2.2.2.8.5 1.5.5 2.3.1 2 .2 4 0 6-.1 1.5-.2 3.3-2.2 3.6-2 .4-3-.6-3.6-2.5-.3-1.3-.8-2.5-1.2-3.8-1.9 1.1-1.2 3-1.3 4.6v.4l-2.3 4.1c-1-1.2-2.3-2-2.5-4.1-.1-1.8.5-3.5.1-5.3-.4-1.7-1.2-3.4-1.8-5.2 0-.3.4-1.1.5-1.1.8.2 2 .3 2.2.8.6 1.4.7 3 1 4.6l.6 2.8 1.3-2.7v-.5c-.1-1.7.4-4 1.8-4 2.1 0 2.4 2.6 2.8 4.4l1 4.2c0 .3.7.6 1 .5.4 0 .7-.5.8-.9v-3.7zM532.6 154.8c-.3-.8-.8-1.1-.8-1.5-.3-1-.3-2-.5-3l-1.6 2.3c-1.5 2-3.3 1.9-4.4-.6a12.8 12.8 0 010-10.9l.4-1.2c.4.5 1.2.8 1.2 1.3.2 2 0 4 .2 6 .2 1.3-1 3.2 1 3.7.4 0 1.4-2 1.7-3.1.5-2 .6-4.1 1-6 .2-.7 1.3-1.6 1.7-1.5.7.3.5 1 .4 1.9-.2 3-.3 6.5.8 9.2 1.4 3.6.4 7 .7 10.4.1.9-.4 2-1 2.8-1 1.7-2.6 1.8-4 .3-.6-.5-1-1.1-1.4-1.8-.3-.5-.4-1.2-.5-1.8.5.2 1.1.3 1.5.6l1.7 1.5c.2.2 1 0 1-.2l1-8.4zM669.1 141.8c.6 6.5-2 10.4-7.6 13-4.5 2.2-4.3 2.5-4.5-2.5 0-2.8-.6-5.6-.9-8.4-.2-2.3.4-3.4 3.2-4.2a9.5 9.5 0 019.8 2zm-10.2 8.8c.2 1-.6 3.6 1.9 1.7 2-1.5 3.9-3.4 5.4-5.4 1.1-1.5 0-4.7-1.5-5.1-3.7-1.2-5.7.2-5.8 4.2v4.6zM560.7 176.8l1 .9c.2-.5.8-1.2.6-1.4-1.6-2.7-.7-5.6-.8-8.5 0-.6 1-1.4 1.6-1.8.2-.2 1 .4 1.5.8.3.2.6 1 .5 1-2 1.6-.8 3.6-.9 5.4v6.5c0 1.6.8 4-1.2 4.4-2.1.4-1.3-2.4-2.2-3.6-1.3-2-2-4.4-3-6.6l-.6-1.4c-.5.4-1.2.9-1.3 1.3 0 .8.4 1.7.6 2.5.5 2.5.7 5-.7 7.4-.2.3-.8.5-1.3.8-.1-.4-.5-.8-.5-1.1V169c0-.4.6-1.2.9-1.2.6 0 1.7.1 2 .6 1 1.5 1.9 3.2 2.6 4.9.5 1 .7 2.2 1.2 3.5zM673.5 168.5c-1.2 2.7.5 3 2.3 3 1.2 0 3 .7 2.6-1.8v-1.4l1.6-2.2c.4.7 1 1.5 1.2 2.3.3 1 .3 2 .4 3 1.2-1 2-1.1 1.2.7-1.3 2.8-2 6-1.6 9.2v.9c-.4.5-.8 1.2-1.3 1.3-.4 0-1.4-.6-1.4-1-.2-2 0-4-.1-6 0-.9.7-2.5-1.2-2.2-1.2.2-3.3-1.3-3.5 1.5l-.9 6c0 .7-.6 1.2-.9 1.7-.3-.5-.8-1-.9-1.6-.2-2.7-.1-5.3-.7-8-.6-2.4.3-5.2.7-7.9.1-.4.7-.7 1-1 .3.3.7.5.8.8.4.8.7 1.6.7 2.7zM592 198.4c-1-3.5 1.5-3.9 3.3-4.5 2-.7 4.3 0 5.5 1.8 1 1.6 1.2 3.7-.6 5.3l-1 1c-1 1-1.2 1.5.6 2 2.6.8 5.1 1.8 7.6 2.8.5.2.9.9 1.3 1.3-.5.2-1 .5-1.5.5-3 0-5.6-1.2-8.1-2.7-1.6-.9-3.6-2-3.6 1.5 0 .7-1.1 1.4-1.7 2.1-.6-.9-1.6-1.8-1.6-2.8-.3-2.6-.1-5.2-.1-8.3zm2.9-.5l.7 3.3c1.2-.7 2.6-1.3 3.6-2.2.2-.2-.8-2-1.5-2.8-1.4-1.6-2 .2-2.8 1.7zM581.9 209.5c-1.4 0-2.5.3-3.2 0-1-.4-2.2-1.3-2.3-2.1a113 113 0 01-1-11.6c0-2.6.3-2.7 2.8-1.6.8.4 1.8.6 2.6.4 3.2-.8 5.5 1 6.4 3.3 1 2.5.7 5.7-1.3 8-1 1.3-2.4 2.4-4 3.6zm.9-4.1c.5-.9 1.2-1.7 1.6-2.6 1-3 .2-4.7-2.6-5.9-2-.8-2.6-.4-2.7 1.7l-1 7.4c-.2 1.4.5 2 1.8 1.6.9-.3 1.6-1.1 2.9-2.2zM630.1 167.8c1.9-3 4.6-1.5 6.9-1.8.3 0 1 .5 1 .8.1 2.8 1.7 4.8 3.2 7 .5.7-.1 2.8-.9 3.6a16.4 16.4 0 01-9.4 4.9c-.5 0-1.8-1.6-1.6-2 2-3.9.3-8 .8-12.5zm8.9 7.4v-1.8h-3.3c-1.4-.2-2.5.4-2.7 1.6-.3 1.5 0 3 0 4.5 1.1-.5 2.3-1 3.2-1.6.9-.6 1.5-1.5 2.8-2.7zm-2.4-7c-1-.1-2.1-.7-3-.3-.7.3-1.3 1.4-1.5 2.3-.1.5.6 1.2 1 1.9l1.9-1.3c.6-.5 1.1-1.1 1.6-2.6zM551.2 205.8c-.3-1-1-1.7-.8-1.9 1.1-1.8 1-3.4 0-5.3-.7-1.1-.1-2.3 1.8-2.1 1.8.2 3.7 0 5.5 0 .6.1 1.3.5 1.9.8-.5.4-1 .9-1.5 1-1 .5-2.3.6-3.3 1-.4.3-.7 1.2-.7 1.8 0 .3.6 1 1 1h5.1c.4 0 .8.6 1.2 1-.4.3-.7.7-1.2.8-1.5.4-3 .9-4.7 1-1.2 0-1.7.3-1.5 1.5l.4 4c1.2-.5 2.3-1.1 3.5-1.5.8-.2 1.7 0 2.5 0-.4.8-.6 1.7-1.1 2.3-2.1 2.1-4.9 2.8-6.3 1.4-1.1-1-2-2.5-2.6-4-.3-.5.5-1.5.8-2.8zM662 233c-.6 1-.9 1.8-1.2 2.6l-.7.6c-1.9-3.3-6.2 0-8.4-3.3-.8-1.3-2.2-2.3-2-3.8.6-4.2 2.1-8 6.4-9.7.6-.3 1.8-.2 2.2.3 1.6 1.7-.7.7-1 1.2-1.6 2-3.6 3.3-4.4 6-.5 1.9-.5 3 .9 3.9 1 .6 2.8 1.3 3.6.9 1.1-.6 1.7-2.3 2.4-3.5 0 0-1-.9-1.5-1-1.8-.2-1.7-1-.6-2 .6-.5 2-1 2.4-.7 1 .7 2.2 1.8 2.4 3 .3 1.6-.2 3.5-.6 5.5zM750.1 177.7c-3-3.5-2.8-9.2.4-11.8.7-.6 1.8-.7 2.8-.9.4 0 .8.5 1.3.8-.4.4-.7.8-1.2 1-3.3 1.5-4.4 6.3-1.7 8.7.9.9 2.2 2.3 3.1 2.1 1.4-.2 2.6-1.5 3.9-2.5 0 0-.4-1.4-.7-1.4-1.3-.3-2.7-.2-4-.4-.5 0-.9-.5-1.3-.8.4-.3.7-.9 1-1a26 26 0 014.3-1c2-.1 4.3 3.6 4 6.2-.2.8-.6 1.6-1 2.4-.5 1.2-1.2 2.3-1.9 3.5-1.4-1.4-1.1-2.7 0-4.1.2-.3-.1-.8-.2-1.3l-1 .7c-2.4 2.7-4.4 2.7-7.8-.2zM703.3 202.8c1-.3 1.9-.4 2.7-.5-.3.8-.3 1.7-.8 2.2a31.8 31.8 0 01-4.8 4c-1.6.9-4.3-1-4.3-2.8 0-3.6.2-7.1 0-10.7-.4-4-.5-4 3.3-4h4.1c1 .1 2.6.5 2.7.8 0 1.9-1.5.8-2.4 1l-5 1.5c-.2 0-.6 1-.4 1.2.1.4.8.7 1.2.7l5.6-.2c-1.7.8-3.5 1.5-5.2 2.4-.5.3-1 1-1.1 1.5v4.6c0 .4.5.9.7 1.3l1.1-1 2.6-2zM542 170.5c2-3 3.2-3 4.6-.6a27 27 0 013.7 15.1c0 .5-.5.9-.8 1.3l-1-1c-.4-.5-.9-1-1-1.5 0-1 1.7-2.1-.3-2.8-.9-.3-3.9 1.7-4.3 2.7l-1 1.7c-.6-.6-1.5-1-1.7-1.7-.4-.8-.3-1.9 0-2.8.4-2.7 1.1-5.3 1.7-8v-2.4zm4.6 6v-1.8c-.3-1.3-.6-2.7-2.2-3.2l-.6 3.3v2.3c.1.6.4 1.4.8 1.7.4.3 1.3.1 1.7-.2.4-.3.5-1 .3-2zM644.3 170.3c-1.2-2.4-.9-3.3 1.1-3.4 2.6-.2 5.2 0 7.9 0 .3 0 .6.3.9.5l-1.3.4a179 179 0 00-4.7 1.8l-1.3.8c.4.6.8 1.7 1.2 1.8 1.5 0 3.1-.4 4.7-.6.5 0 1 .3 1.5.4-.3.5-.5 1.1-.8 1.3l-2.9 1c-.8.3-1.6.8-2.4.8-2.6.2-1.4 2.4-1.2 3 .6 2 1.5.2 2.3-.1.5-.3 1-.6 1.5-.7.5-.1 1.1.1 1.6.2 0 .4 0 1-.3 1.2-1.3 1.4-2.5 2.8-4 3.9-.8.5-2.3.8-3 .4-1.3-.8-2.7-1.9-1.7-4 .7-1.3.5-3 .7-4.4.1-1.4.3-2.7.2-4.3zM572.6 143.6v-1.4c2.1.2 4-.4 6.1-1.2 3-1.3 5.8 1.9 3.9 4.7-2.6 3.8-2.5 6.1 1.1 8.6v1l-1-.1c-1.7-1.1-3.3-2.3-5.1-3.3-.9-.4-1.9-.5-2.8-.7v2.5c0 .4.5.8.5 1.2.2 1.4 0 2.7-1.3 3.6-.5-1-1.2-2-1.4-3.1-.3-2 0-4-.8-6.2-.6-1.4.5-3.4.8-5.6zm2.3 4.7c3.3 1 6.3-1.3 6-4.6 0-.3-1.1-1-1.4-.9-2.4 1-5.1 1.6-4.6 5.5zM686.5 152.7l-1.6 2c-.3-.5-.9-1-.9-1.7v-11.5c0-.6.4-1 .6-1.6.6.4 1.5.6 1.8 1 .9 1.7 1.5 3.5 2.2 5.2.2.4-.1 1 0 1.3l2.4 2.7c.9-1.2-.3-2.3-.3-3.2 0-2.4-1.3-4.7-.2-7 .2-.5.8-.6 1.3-1 .2.4.5.8.5 1.2.6 3.4 1.4 6.9 1.7 10.4 0 1.3-1.3 2.7-2 4.1-1-.6-2.6-.8-2.9-2.5 0-.3-.3-.5-.5-.8l-2.4-3c-.5 1.5-.8 3 .3 4.4zM744.3 166c1.5 3.4.8 6.6 1 9.7.1 2-1.6 1.6-2.1 1.3-2.2-1.5-4.2-3.3-6.3-5l-1.2-1.4c-.2.7-.8 1.8-.5 2.3 1.6 2.2.5 4.7.7 7 0 .6-.8 1.2-1.3 1.8-.5-.6-1.3-1.1-1.3-1.7-.5-3.4-.8-6.8-1-10.3 0-1 .8-2.4 1.6-2.7 1.4-.6 2.9-.2 4 1.3 1.4 2 3 3.7 4.6 5.5.3.3 1 .2 1.6.3l-.1-1.6c-.5-2-.7-4.4-1.8-6.2-.7-1.3 0-1.6.6-2 .2 0 1 .8 1.5 1.6zM555 222.5c2.7-3.1 2.5-3 4.6.4 2.3 3.7 2.4 8 3.6 12 .2.5-.5 1.5-1 2.2-.2.1-1.2-.3-1.7-.5v-1c0-1.2.4-2.7-1.2-3.6a16 16 0 00-5.3 2.3l-.8 1.5c-.1.3-.4.5-.6.7-.1-.3-.4-.5-.4-.8.1-1.6.1-3.3.5-4.8.6-2.7 1.5-5.3 2.2-8.4zm3.6 3.3c-.2-.8-.3-2.1-.7-2.2-1.5-.4-1 1-1.1 1.7-.2 1-.7 1.9-.9 2.9-.1.8-.4 1.8 1.2 1.8 1 0 1.8-.1 1.6-1.4v-2.8zM545.6 202.1c1.3 3 1 5.7 1 8.4 0 .1-.8.5-1 .3-1.6-1-1.9-2.5-2-4.3 0-.8-1-2-1.8-2.4-1-.5-3.5 1.7-3.6 2.6v1.9l-.3 2.6-1.9-2.5c-.3-.5-.5-1-.5-1.6v-10.2c0-.4.5-.8.7-1.3.4.4 1 .7 1 1.1.5 1.2.7 2.5 1 3.8.3.9-.8 3.2 1.3 2.3 1-.4 4 .3 3.5-2.9-.3-1.7-1-5 1.4-4.8 2.2 0 1 3.3 1.2 5.2v1.8zM539.1 235.5c-1.5-3.4-2.1-6.9-1.8-10.5 0-.9.2-1.8.6-2.5.2-.5 1-.6 1.5-.9l.7 1.5v.9c-.3 1.3.3 3 1.3 3 1.2-.1 2.3-1.5 3.3-2.5.7-.8 1-1.8 1.6-2.7l2 2.9c.1.3.2.9.1 1.3l-1.8 9-.6 1.4c-.4-.5-1.1-.9-1.2-1.4-.2-1.2 0-2.4-.1-3.7-.1-.8.8-2.3-1.2-2.3-1.6 0-3.1 0-3.4 2.1-.2 1.5-.3 3-1 4.4zM605 179.8c.4-3.5.4-6.7 1.1-9.7.6-2.7 4-3.5 5.8-1.4 1.2 1.3 3.8 2.6 1.6 5 1.3 2.5-.1 4.5-.9 6.8a4 4 0 01-3.9 2.8c-1.3 0-3.6-.6-3.6-3.5zm5.2 0c1.4-3 .7-6 .4-9.1 0-.4-.3-.7-.5-1-.5.2-1.1.4-1.3.8-1.4 3-1.4 6.2-.3 9.4 0 .3.8.3 1.7 0zM688 169c1.8-2.4 3.4-2.5 6-1.4 2.7 1.2 2.4 3.2 2 4.8-.7 2.9-1.8 5.8-3.3 8.3-1.2 2.1-3.6.9-5.5.8-.5 0-1.1-1.9-1.3-3-.6-3.3.8-6.3 2-9.6zm5.3 3.9c.2-1.5-.2-3-1.7-3.1-.7-.1-1.5 1.4-2.1 2.3-.5.7-.9 1.6-.8 2.4 0 1.7-1 4.3 1 4.8 1.9.5 2-2.1 2.7-3.6.2-.6.6-1.3.9-2.8zM678.4 194.7v-2.3c.3-.8.9-1.5 1.3-2.3l.6 2.4.4 5c1.3-1 2.5-2 3.9-2.9l1.8-.7c-.2.7-.3 1.5-.6 2.2-.3.5-.9.9-1.3 1.3-3.3 3.3-3.2 3.2 1 4.9 1.8.7 3.4 2 5 3.2.4.2.5.6.8 1-.4 0-.9.3-1.3.2-1.6-.2-3.2-.4-4.6-1-3.3-1.3-3.4-1.3-4.2 2l-.6 1c-.4-.4-1-.6-1.2-1-.4-1.2-.9-2.5-1-3.8v-9.2zM597.6 151l1-9.8c.1-2.2 1.5-1.4 2.5-1 .5.2 1 1.1 1.2 1.8l4.6 12.9c.1.4-.5 1.1-.8 1.7-.7-.7-1.7-1.3-1.9-2.1-.2-1-.2-1.9-1.5-1.6-.9.2-2.3-.7-2.3 1.3 0 .4-.5 1-1 1.4-.2.4-.7.7-1 1-.3-.4-.7-.9-.7-1.4v-4.1zm4.2-4.6l-1-2.7c0 .8-.3 1.7-.4 2.6 0 1.2-.2 2.5.1 3.7.1.4 1.3.7 2 1 0-.5.4-1 .4-1.6 0-.9-.4-1.7-1-3zM722.8 176.8c-2.3 2.4-5.6 2.6-7.3 5.3-.7 1.2-2.5.2-2.7-1.5-.2-1.5 0-3 0-4.6v-8.7c0-.4.4-.8.6-1.2 1 2.3 3.6 1.1 5 2.2 1.5 1.1 3.2 2 4.6 3.1 1.8 1.6-.4 3.4-.2 5.4zm-7.2-2c-1.1 1-1.8 2.8-.2 3 1.6.1 3.5-1.2 4.9-2.4.7-.6 1.1-2.5.7-3.2-.5-.9-2-1.2-3.2-1.7-.9-.4-1.9-.5-2.8-.8-.1 1-.3 2-.3 3.1 0 .3.6.7.9 2zM587.4 142.7h6.5c.6 0 1.2.4 1.7.6-.6.4-1.1 1-1.8 1.2-1.2.2-2.4 0-3.7 0-2.3 0-3.6 2-2.6 4 .2.5 1.3.7 1.9.6 1.4-.1 2.8-.6 4.2-1l1.3-.3c-.3.6-.4 1.4-.7 1.6-1.4.6-3 1-4.4 1.7-.5.2-1.3.7-1.4 1.1 0 .6.4 1.4.8 2 .2.1 1-.3 1.6-.5.7-.2 1.3-.7 2-.7.6-.1 1.4.2 2 .4l-1.3 1.3-1.4 1c-4.5 2.6-6 1.8-6.5-3.3-.2-2.3 0-4.6-1.2-6.9-.7-1.5.2-3.2 3-2.8zM550.3 151c.3 1.2.6 1.8 1 2.4l1.2 1.4c.2-.5.5-1 .5-1.6v-9.7c.1-.8.1-1.8.5-2.5.3-.6 1.2-.8 1.8-1 .2.4.6 1 .5 1.5-.2 4.5-.5 9-1 13.5 0 .9-.7 2.2-1.4 2.4-.7.3-2 2-2.8 0-.8-1.7-1.7-3.3-2.2-5-.8-2.7-1.3-5.4-1.8-8.1 0-.5.6-1 1-1.6.3.4.7.8.8 1.3.7 2.2 1.3 4.4 1.9 7zM709.8 176.4l1.8.8c-.3.5-.4 1.2-.8 1.3-2.8.9-5.4 2-7.7 4-1.3 1-3.3-.3-3.3-2.3.2-4.9.6-9.7 1-14.5 0-.2 1.3-.5 1.6-.3.5.4 1.1 1.2 1 1.8-.4 3.4 1.2 7-.8 10.3-.1.3 0 1 .3 1.2.2.2 1 .2 1.2 0 1.5-1.5 3.1-2.7 5.7-2.3zM639.4 151c-.3 2-.4 3.4-1 4.7-.2.8-1.1 1.3-1.7 1.9-.3-.7-1-1.5-1-2 .8-3.5.8-6.5-3-8.2-.6-.2-.7-1.2-1-1.8-1-1.7-2-3.3-1.4-5.4l3.5 4c.6.6.8 1.5 1.4 2.1.5.5 1.2.7 1.9 1l.5-1.6c.3-1.4.5-2.9 1-4.2.1-.4 1.3-.7 1.8-.6 1.8.4 0 .8 0 1.3-.2 2.8.4 5.7-1 8.9zM659.9 200.3c0 2 .2 3.7.3 5.4l4-2c.5-.2.9-.6 1.2-.6 1 .1 1.9.4 2.8.6l-1.7 1.5-4.2 3.3c-2.7 1.7-5.1.4-5.2-3 0-4-.4-8 1-12 .1-.6.6-1 1-1.6.5.5 1.6.9 1.6 1.4 0 1.4-.3 2.9-.5 4.3l-.3 2.7zM527 228.1l.1-1.8c1-3.2 1-3.1-2.3-3.8-.5 0-1-.4-1.4-.6.4-.4.9-1 1.4-1.2 2.5-1.4 5-1.4 7.6 0 .9.5 3 .7 2.9.9-.3 1.9-1.9.7-2.9 1-2.2.3-3.5 1.8-2.4 3.7 2.1 3.7-1.3 7-.1 10.4-.4 0-1 .2-1.2 0-1-.9-1.9-1.8-1.7-3.5.2-1.5 0-3 0-5zM679.1 153.6c-1.8 2-4 1-5.8 1-.5 0-1.2-1.6-1.3-2.5-.2-2.2.1-4.4-.1-6.5-.3-2.3.7-4 2.7-4.7 2.1-.7 5.5.4 6.6 2.5 1.6 3.2 1.8 6.3-2 10.2zm-4.9-1.6c1 1.1 2.2 1.5 3.2.5 1.1-1.3 2.3-2.8 2.8-4.4.4-1.3.7-3.1-1-4.1-1-.6-2.5-1.5-3-1.1-1.6.9-3 2.2-2.5 4.5.3 1.3 0 2.7.5 4.6zM539 156.9c-3.4-3.5-1.1-7-.5-10.3 0-.5.3-1.2.7-1.5l3-2.4 1 2.7c1.5 3.5 2 6.8.8 10.6-.6 1.5-1.7 1.5-2.4 2.1-.3.3-1.6-.6-2.7-1.2zm3.4-4l-.5-5.9c0-.2-.5-.5-.5-.5-.4.4-1.2.8-1.3 1.3v6c0 .8-.4 2.1 1 1.8.5-.1.6-1.5 1.3-2.7zM533.3 194c.5.7.6 1 .8 1.5-.9.4-1.8 1-2.8 1-1.2 0-1.5.5-1.5 1.6.1 3 .2 6.2 0 9.2 0 1.4-.8 2.7-1.3 4-.5-1-1.3-2.2-1.4-3.4-.2-2.4 0-5 0-7.4 0-2 .2-4-2.8-4-.3 0-1-1.1-.8-1.6 0-.5.8-1 1.3-1 2.8-.2 5.6-.1 8.5 0zM572.3 225.1c-1-1.4-4-.8-3.2-3.6.2-.6 2.8-.7 4.3-.8h5.1c.5 0 1 .4 1.5.6-.5.4-.9 1-1.4 1.2l-2.4 1c-1 .6-1.8 1-1.4 3 .6 3-.2 6.3-.5 9.6 0 0-1.3.3-1.4.1-.6-.8-1.2-1.8-1.2-2.7 0-2.7.3-5.5.6-8.4zM711 152l-.8 5.6c-2.4-1.1-.5-3.2-1.1-4.7-1.4-3.5-.9-7.2-1-10.8 0-1.2-.4-1.5-1.6-1l-3 .6c-.3 0-1-.7-.9-1 .1-.7.6-1.6 1-1.6 3-.2 6.1-.1 9.2 0 .3 0 .6.4 1 .6-.4.4-.8 1.1-1 1-3.1 0-2.1 1.7-2 3.4.3 2.5.1 5 .1 7.9zM630 152.7c-1 .6-2 .9-2.5 1.5-1.3 2-3.2 1.4-5 1.5-2.8 0-2.1-2-2.7-3.7-1.3-3.9 1-7.5.2-11.3 0-.2.5-.5.8-.8.3.4.9.7 1 1.1.3 3.3.7 6.5.9 9.8.2 2.4 1.1 3 3 1.4 1.8-1.6 3-1.5 4.2.5zM598.6 171.5v12.4c0 .5-.5 1-.7 1.5-.4-.5-1-.8-1.1-1.4-.8-2.3-1.9-4.7-.4-7.1-1.7-1.8 2.5-5.5-2-6.5-.3 0-.5-1-.4-1.6 0-.4.7-1 1-1l7.9 1 .3.8c-.1.3-.4.9-.7 1-1.3.2-2.6.3-4 .9zM611.3 149.4c.3 5.8.3 5.8 5.3 3.5l1.3-.6c-.1.5 0 1.2-.3 1.5-1 1-1.9 2.3-3 2.8-3.2 1.2-5.9-.7-5.8-4.2.1-4.2.6-8.4 1-12.5 0-.3.2-.6.3-.8l.5 1c1.6 2.9.8 6 .7 9.3zM573.5 182.6c-.4 1-.8 1.4-1.2 1.9-.5-.8-1.4-1.6-1.5-2.5-.2-2 0-4 0-6-.1-1.3.4-2.8-1.8-3-.3 0-.9-1-.8-1.2.2-.5.8-1.2 1.3-1.2a86 86 0 017 0c.2 0 .7.5.7.8 0 .3-.5 1-.7 1-3.7-1-3 1.7-3 3.7v6.5zM671 200.3l1-8.4c0-.3.4-.6.7-1 .3.4 1 .7 1 1 1.3 4.9 0 9.7 0 14.5l-.3 1.2c-.4-.3-.9-.5-1-.9-.5-1.4-1.6-2.8-.5-4.6.1-.2-.6-.9-.9-1.8zM612.5 208.6c-.6.5-1.8.5-1.8.4l-1-12.6c0-.7.4-1.4.8-2 .2-.3.9-.7 1-.6.5.2 1 .8 1 1.2.2 2.8-.2 5.6.8 8.5.5 1.3-.5 3-.8 5.1zM725.8 179v-9.7c0-.9.2-1.8.6-2.5.1-.4.9-1.7 1.2 0v.5c1.7 4.1 1.5 8.3 0 12.5-.5 1.3-.7 1.3-1.8-.9zM704.4 230c.9-1 1.4-2.9 2.9-1.3 1 1 2.4 1.8 1.7 3.4-.4.7-1.6 1.5-2.4 1.5-2 0-2.3-1.5-2.2-3.6zM699.8 140v4.4c-.2.7-1 1.3-1.5 1.9-.5-.8-1.2-1.5-1.2-2.2 0-1.4.5-2.8.8-4.2.3-1.4 1-1 1.9 0zM691.2 231.1c.2 1.4.7 3.1-1.4 2.5-.8-.3-2-1.9-1.9-2.2.6-1.2 1.7-2.3 3.3-.3zM699.5 229.3c.6 1 .9 1.7 1.2 2.5l-2.4.9c-.2-1.4-1.7-3.1 1.2-3.4zM481 352c.7-4.7 1.7-8.6 5.5-11.1l1.6-1 1.2-.5-.8-.5c-2.5-1.7-3.4-4.3-4-7.2-.4-2.5-1.8-4.8-2.6-7.3-1-2.9-1.7-5.8-2-9-1-9.7-.8-19.5-.8-29.2 0-1.6.6-3.2.9-4.7.3-2.2.4-4.5 1-6.6 1.3-5 .8-10 1.5-15 .4-3.3 2.4-6.7.5-10.5-1-1.9.6-4.9.6-7.4.1-3.5-2.3-5.1-6-4.3h-1.3c-1.5-.2-3.2.7-4.2-1-.2-.2 0-.7.1-1 1.3-1.3 2.7-2.6 4.8-2.3h2.3c2.2-.3 4.5-1 6.2 1 .4.5 1 1 1 1.5.5 7.4 2 14.6 0 22-.7 2.7-.8 5.6-1 8.4-.3 6.7-.5 13.4-.9 20-.1 2.4.5 4.8-.8 7.1-.6 1.1-.7 3.2 0 4 1.3 1.7 1 3.4.7 4.9-.4 2.8 1 5.5.3 8.5-.6 2.8.3 6 .8 8.9.3 1.6 1.1 3.2 1.8 4.8l4.3 8.9c.3.6 1 1.5 1.6 1.6 3.1 0 3.4 2 3.5 4.5.2 2.4-.3 4-2.6 4-4 0-5 3-5.8 5.8-1 3.5-2 7-2.4 10.7 0 1.2.8 1.6.6 2.6-.5 3.2-.2 6.5-.7 9.7-.2 1.5-.8 2.8.4 4.2.4.4.1 1.4.2 2.2.3 5.6-.8 11.3 1 16.8-1.5 3-.7 6.2 0 9 1.6 5.7.2 11.5 1.6 17.3 1 4.3.1 8.9 0 13.4 0 1.5-.5 3-.8 4.4-.7 4.5-4.9 5.5-7.8 7.7-.8.6-2.4.4-3.6.2-1.5-.3-2-2.3-1.1-3.7l1-1c5-2.8 5-8.4 6.9-12.9v-.4L482 413c-.3-2.9-.8-5.7-1-8.5-.5-3.5-1.2-6.9-1-10.3.3-6-.3-12 0-18 0-1.8.5-3.6.5-5.5 0-1.7-.6-3.5-.6-5.3.2-4.3.6-8.7 1-13.5zM701.1 378.6c-.5-.7-1-1.2-1-1.7-.7-2.3 2.6-1.7 2.6-3.4 0-1.3-2-2.5-.3-4 1-1 1.7-2 3.4-1.9 3.6.2 7.2 0 10.8-.7a16 16 0 018.2 1.2c1.8.7 2.7.3 3.9-.8 2.1-1.9 4.7-2 6.3-.3 1.4 1.4 1.7 6 .4 7.5-.6.6-1.4 1-2.2 1.5l-2.6 2c1 .2 2 .8 3.1.8 2 0 3.6.1 4.8 1.9.6.8 1.6 1.4 2.2 2.2.7 1 1.1 2.2 1.6 3.2-1.1-.4-2.6-.6-3.4-1.4-3.1-3-7.2-3-11-4-1.4-.4-2.2.2-2 2 .2.6.3 1.3 0 1.8-.4.7-1.2 1.6-1.8 1.6-.6 0-1.7-1-1.8-1.6-.2-1.6-.6-3.7 0-5 1.5-2.8.5-5.7.9-8.5.2-1.3-.5-1.5-1.6-1.5l-15.8 1c-.5 0-1.2 1-1.1 1.4.1 1 .5 2 1 2.8.2.2 1.4-.4 2.2-.5l6.2-.7c.2 0 .6 0 .6.2l.1.8c-1.3.9-2.6 1.8-4 2.4-.7.3-1.6 0-2.3.1a5 5 0 00-3.7 7.1c.8 1.7 2.7 2.2 4.2 1 1-.9 1.9-2.2 3-2.9.7-.4 1.9-.1 2.8-.1-.3.6-.5 1.4-1 1.8-1.8 1.5-3.6 3-5.7 4.2-3.7 2-6.2.3-6.3-3.9a35 35 0 00-.7-5.6zm26.3-6.3c-.2 1-.4 2-.4 3 0 .3 1 .8 1.2.7 1.6-.7 3.4-1.3 4.4-2.6.7-1 1-3.4.4-4.4-.7-1.2-2.3-.2-3.3 1l-2.3 2.3zM583.3 349.4c-.3 1.4-.2 2.7-.3 3.9a2 2 0 01-1.2 1.3c-1 .4-1.5-.1-1.6-1.4-.4-2.8-.4-2.6-2.6-1-2.9 2-5.9 3.7-9 5.2-2.4 1.1-4.3-.3-4-3 .3-5.2 1-10.3 1.8-15.5.1-.7 1.4-1.2 2.1-1.8.5 1.1 1.4 2.3 1.3 3.4-.7 3.8-1.7 7.6-2.5 11.4-.1.6.2 1.2.3 1.7.5 0 1-.1 1.6-.4 2.6-1.3 5.3-2.8 8-4 3.2-1.4 3.9-2.1 4-5.4 0-1.8-.2-3.7 0-5.5.2-1.2.6-2.8 2.4-1.2h.5c1.5.1 3.8-.3 4.3.5 1.1 1.9 1.7 4.3 2 6.5.3 2.5 0 5 0 7.4.1.5.6 1 .9 1.3.3-.3.8-.6 1-1l7.7-15.4c.2-.5 1-1 1.3-1 .5.2 1.1.8 1.2 1.3.1 1.7.6 3.7-.1 5-1.4 2.7-.5 5.4-.8 8l-1 8c0 .3-.6.7-1 .7-.2 0-.7-.5-.8-.8a18 18 0 01.3-12c.2-.7.2-1.3.2-2l-1.4 1.6-3.8 7.3c-.4.8-.8 1.6-1.4 2.2-1.4 1.4-3.1 1.3-4-.5a11 11 0 01-1-4.2v-8.3c0-.6-.4-1.7-.8-1.8-1-.2-2.1-.3-2.2 1.4 0 1.5-.5 2.9-.7 4.3l-.7 3.8zM800 364.2c-4 2.2-8.4 4-13.3 3.5-1.6-.2-2.7.2-2.2 2.1.3 1.5-2.5 3.1-.3 4.3 1 .5 2.8-.5 4.2-.8l8-2.2 1-.3c-.1.4 0 1-.2 1.2-.8.8-1.7 1.8-2.8 2.1-2.6.8-5.3 1.6-8 1.9-2.2.2-3 1-2.9 3.1v2.3c.5 2.8 1.4 3.2 3.8 1.6a176 176 0 015.4-3.6c.2-.1 1 .2 1 .3-.1 3-4.9 7.4-8 7.5-3.3 0-4.7-1-5-4.3 0-1.6.3-3.3.4-5l.1-1c-.4.2-1 .2-1.2.4-.5.5-.7 1.3-1.1 1.9-2.5 3.5-6.4 4-10.2 4.1-1.4 0-3.4-1.5-4.2-2.8a7.2 7.2 0 01-.9-5.3c1.2-3.8 2.8-7.5 5.1-10.8 1.6-2.2 5.4-2.5 7.6-.6.4.4.5 1 .7 1.6-.5 0-1.2.4-1.5.2-2.8-1.7-3.8-.2-5.6 2a13 13 0 00-3 9.4c0 2.5 2.2 3.5 4.8 3 5.2-.8 7.4-4.8 9.6-8.7.4-.8.7-2.3.3-2.6-3.2-2.7.5-4 1-6 .4-1 1.8-1 1.8.3 0 2.8 1.3 2.6 3.2 2 4-1.4 8.1-1 12.4-.8zM631.3 323.1L624 326c-.3 0-.9-.6-1.2-1a7.4 7.4 0 01-.7-6.9c1.7-4.7 3.2-9.3 3.6-14.3 0-.6.8-1.2 1.2-1.8.2.6.5 1.2.6 1.9.3 5.4-.5 10.6-2.4 15.7-.6 1.7.6 3.2 2 2.5 3.9-2 7.6-4.2 11.2-6.6.9-.7.9-2.7 1.2-4 .7-2.6 1.1-5.2 2-7.6 1-3 4.7-3.8 7.1-1.8 4 3.3 3.6 7.6 2.6 11.7-.7 2.7-2.7 5-3.8 7.7-.9 2.5-2.5 3-4.8 2.7-2.5-.3-3-2.3-3.7-4-.5-1-.5-2.3-.7-3.5-.7 1-1.2 2.1-2 2.9a29 29 0 01-5 3.6zm16.2-7.4c.5-2.9 1.1-5.8 1.3-8.7.1-.7-1.2-2.4-1.4-2.3-1.1.3-2.7 1-3 1.8-1 3-1.7 6-1.8 9-.1 1.8-1.3 4.1.7 5.8l4.2-5.6zM572.8 370.5c2.2 2 2.8 4.3 2.8 6.9v8.8c0 .3.8.7 1.1 1 .3-.3.7-.6.7-1 .2-4.2 1.2-8.3 2.8-12.2.4-.8.8-1.6 1-2.4.3-1.8 1.4-2.3 3-2 1.2.3 1.6 1.4 1.7 2.8.1 4.2.6 8.4.8 12.6 0 1-.9 2-1.4 3.1-.4-1-1.2-2-1.3-3.1-.2-3.7 0-7.4 0-11.1 0-.5-.4-1-.6-1.5-.4.5-1.2.8-1.3 1.3-.7 3.3-1.1 6.7-1.9 10-.5 2-1.2 4-2.1 6-.4.7-2.2 1.4-2.6 1-1.1-.7-2.5-2-2.6-3.2-.3-3.8 0-7.7 0-11.6l-.1-1.4c0-.4-.3-.8-.4-1.2-.3.3-.8.5-1 .9l-3.2 10.2c-.2.6.2 1.3 0 1.9-.5 1-1.2 2.6-1.8 2.6-2 0-1-1.8-1-2.8v-12.5c0-1-.2-2 .2-2.7.3-.7 1.4-1 2.1-1.3-.1.5-.4 1.1-.4 1.7v4.2c0 .4.3.9.5 1.4.4-.5 1.2-.9 1.2-1.4.5-2.1.6-4.4 3.8-5zM544.7 371.6c-1.5-1.6-3.1-1.7-4 0-2 3.8-3.5 7.8-1.5 12.1 1.6 3.5 3.2 4.2 7.3 3.5 2.1-.4 4-3.1 4-5.8 0-3-.6-6 1.8-8.5.8-.8 1.4-2.3 2.2-2.3 1.9-.1 4.2-.2 5.6.8 5.9 4.4 3.5 14-1.5 17.3-.8.5-2.7-.2-4-.6-1.9-.7-3.2-1.3-5.2.4-2.4 2-5.6 2.2-8.7.6a8.4 8.4 0 01-5-7.7c-.3-4 1.4-7.4 3.1-10.8 1-1.7 2.8-2.6 4.7-1.9 1.3.6 2.2 2 3.2 3.2.2.1-.3.9-.5 1.4l-1.5-1.7zm15.1 12.3a14 14 0 00.9-8c-.3-2.6-2-3.8-4.6-3.5-2.5.2-3 2-2.8 4 .2 2 .7 4 1 6.1 0 1.4-.3 3 1.2 3.6 1.8.8 2.8-.6 4.3-2.2zM677.7 371.4c.3-1 .5-1.9 1-2.3.9-.8 1.8-.8 1.8.6 0 7.4.5 15-3.7 21.7l-.7 1.2-.2-1.3v-2.8c0-2 .4-4.2-.2-6-.5-1.4-2.6-2.2-3.8-3.4-1.5-1.7-3.4-3.3-4.1-5.3-.9-2.7-2.7-2.4-4.6-2.4-2.6 0-2.3 0-2.3 2.8 0 4.4-.5 8.7-.9 13 0 .4-.5.8-.8.9-.3 0-.9-.3-1-.6-.3-1.7-1.4-3.8-.8-5.1 1.5-3.2.4-6.3.8-9.4.2-1.2-.2-1.7-1.5-1.6a30 30 0 01-5 0c-.7-.1-1.3-1-1.8-1.4.5-.4 1.1-1.3 1.7-1.3h9.7c.8 0 1.7 1 2.4.8 3.8-.7 6 1 7.5 4.2.4.8.7 1.7 1.3 2.2l3.9 2.9.6-3.5c.3-1.1.5-2.3.7-3.9zM532.9 339.8c1.2.7 2.3.8 3.5 1 .4 0 .7.3 1 .5l-1.1.4c-.6.2-1.1.3-1.6.6-2.4 1-3.7 3.2-2.6 5.2.3.4 2.4-.1 3.7-.2l1.7-.5c-.4.5-.7 1-1.2 1.4l-1.9 1c-2 1-4.7 1.6-4.4 4.9 0 .4-.9 1-1.4 1.4-.4-.6-1.2-1.2-1.2-1.8-.1-1.9-1-2.4-2.8-2.8-2.2-.4-1.8 1.5-2.7 2.3-.5.4-.6 1.3-1 1.8 0 .1-.8 0-1-.3l-1-2.3c-.2-.5-.7-1-1.1-1.4l-2.4-1.5c.7-.8 1.4-2 2.3-2.1 1.3-.2 1.9-.5 2.6-1.7.8-1.6.8-2.1-1.1-2.2-.4 0-1-.9-1-1.4 0-.4.7-1.3 1-1.3 3.1.3 3.3-1.7 3.5-3.9v-1.8c.2-1 .6-2.6.9-2.6 1.7.2 2 1.5 1.8 3-.1 1.1-.6 2.2-.8 3.3-.4 1.7.4 2.1 2 2 1.9-.2 2.9-1.3 3.5-3 .2-.5-.2-1.3 0-1.7.4-.6 1.1-1 1.7-1.5.3.7 1 2 .8 2.1-1.1 1.2-.6 1.9.3 3.1zm-3.7 8l.6-4-4.5-.3c-1.4-.1-1.7.5-1.7 1.8 0 2.8-.1 2.8 2.8 2.9.8 0 1.6 0 2.8-.5zM558.7 343.3L557 345c.3.1.7.5 1 .5 6 .7 6.7 1.8 4.4 7-2 4.6-6.3 6.7-11 7.8-2.7.7-4.4-1.8-6.7-2.6-.7-.3-1-2.9-.7-4.2 1-3.4 1.8-6.8 1.8-10.3 0-2 .6-3.9 2-4.6a11 11 0 016.2-1c3 .5 3 .8 4.6 5.8zm-5.4 5.4c-.7.4-1.4 1-2.2 1.3-3.5 1.3-3.7 1.6-3.4 5 .3 2 1.5 3 3.4 2.4 3.7-1.4 7.2-3.3 9.6-6.8.6-.8 1-1 0-2-2.2-2.5-4.6-1.1-7.4 0zm-5.6-1.9c3.8.3 6-2.2 8.3-4.6.2-.2 0-.9-.1-1.2-1.3-2-3.3-1.1-5-1.1-1.6 0-2.2 1-2.3 2.7 0 1.1-.5 2.2-.9 4.2zM633.1 377l2 7 .8 2.5c.4 1 .7.8 1 0 .1-.5.5-.9.5-1.2-.3-3.6 2.4-6.8.6-10.8-.8-1.8.3-4.6.8-6.9 0-.4 1-.7 1.7-.8.3 0 .9.7 1 1 0 1.1.3 2.4 0 3.3-1.6 3.3-.6 6.9-1 10.3-.1 1.7-.4 3.5-.9 5.1-1 3.4-3.3 3.9-5.5 1-1.8-2.2-2.8-5-2.8-8 0-1.7 0-3.4-.2-5-.1-.4-.9-.8-1.3-1.1l-.4 1.2-.9 13.5c0 .8.4 1.8-1.2 2-1.6 0-1.7-.8-1.6-2 .3-5.2.5-10.3 1-15.4.2-1.1 2-2.6 3.3-3 1.5-.4 2.1 1 2.3 2.6 0 1.4.5 2.8.8 4.7zM525.5 366.8c-1.3 3.2-1.3 3.2 1.2 3.7.5 0 1 0 1.3.2l1 1.3-1.2.3c-1 .2-2.9 0-3 .4-.4 1.4-.3 3-.2 4.5 0 .3 1 .7 1.4.7.5 0 1-.6 1.6-.7l2.5.2c-.7.5-1.4 1.2-2.1 1.4-2.6.7-4.9 1.4-4.5 4.9.1.5-.9 1-1.3 1.6-.2-.6-.4-1.1-.4-1.7 0-1 .2-2.4-1.6-2-1.2.3-2.7.6-1.3 2.5.1.2-1.2 1.4-1.8 2.2-.3-.6-.9-1.1-.9-1.7 0-1.7-.5-2.7-2.4-3.2-.6 0-1.3-1.5-1.2-2 .2-.7 1.7-1.6 2-1.4 1.2.8 1.8 1 1.6-.8v-1.4c0-2.7 0-2.7-3-2-.5.2-1 0-1.6 0 .2-.5.2-1.4.5-1.5 4.6-1.4 4.5-5.3 5-9 .1-.4.6-.8.9-1.2.3.4.9.8 1 1.2v4.6c.1.9.4 2.3 1 2.5 1.5.5 2.3-.6 2.7-2 .2-.9.7-1.7 1.2-2.3.2-.2 1 .1 1.6.7zm-3.3 8.3c.7-.8 1-1.8-.5-1.8-1 0-2.6-1.1-2.8 1.2 0 .9-.4 1.7-.4 2.5 0 .6 0 1.2.2 1.8.7-.1 1.7 0 2-.4.6-.8.7-1.9 1.5-3.3zM531.7 316c-2 0-3.7.1-5.3.7-.8.3-1.6 1.4-1.8 2.2-.3 1.2 0 2.5-.1 3.7-.2.8-.8 1.5-1.2 2.3-.2-.8-.5-1.5-.6-2.3v-2.8c0-1.7.8-4.6-2.8-2.3-.3.2-1.2-.4-1.9-.6.5-.4 1-1 1.5-1.2.7-.4 1.5-.7 2.4-.9 1.4-.4 3-2.3 2.6-3.7-.2-.5-1.5-1-2-.9-1.2.5-2.8 2-3.3.2-.5-1.3 1.6-1.9 3-2.1 2.4-.4 3.8-1.7 4.2-4.1.2-1 .6-2 1-2.9.1-.2.8-.5 1.1-.4.3 0 .6.6.6 1 0 .5 0 1.2-.3 1.7-.8 1.3-1.2 3 .4 3.7 1.3.6 4.4-1.8 4.6-3.1v-.5c.4-1-1-2.7 1.1-2.7.3 0 .6 2 .8 3 .3 1.5-1 3.5 2 3.5 1.6 0-.3.8-.3 1.3-2.6.1-2.6 1.7-2.8 3.8-.2 3.5-1 7-1.7 10.4-.1.4-.7.7-1 1-.3-.4-.9-.8-.8-1.3.2-2.2.6-4.3.6-6.8zm-4.8-2.1c1.4.4 5 0 5.2-.8.4-1.2.6-3.5 0-3.7-2.9-1.6-5.5.4-5.2 4.5zM593.5 378.1c-.3 3.5-.2 6.8-.3 10 0 .6-.4 1.2-.7 1.9l-2-1.6c-.2-.2 0-.9 0-1.4v-11.5c0-2.2 1.8-3.9 4.2-4 1.3-.2 3 1.7 3.2 3.7v1.3l1.3 5 1.5-4.3c.4-1.4.8-2.8 1.5-4 .4-.6 1.7-1 2.4-.8.6.2 1.5 1.2 1.6 1.9l1 14.4c0 .4-.6.9-1 1.3-.3-.4-.8-.8-.9-1.2l-1-13c0-.6-.3-1-.5-1.5-.4.4-1.1.8-1.2 1.3l-2 9-.7 2.9-.6 2.5c-.8-1-1.8-1.8-2.3-2.8-.4-1 0-2.2 0-3.2a566 566 0 00-1-9.8c0-.3-.2-.6-.3-.8-.4.2-.9.4-1 .8l-1.2 4zM596 323.1c-.6.5-1.7.5-1.8.4v-2.7c-.3-1.7-.8-3-3-1.8-.8.5-2.1 0-3 .5-1.7.7-4.2.6-4.4 3.5 0 .7-1.2 1.3-2 2-.2-.8-.3-1.7-.7-2.3-.8-1.4 1.5-2.4.2-4-.4-.5 1.2-2.4 1.7-3.7.7-2 1.2-4.2 2-6.2.2-.9.8-1.8 1.6-2.3 1.5-1 3.3-1.7 5-2.5 1.4-.8 3.4-.2 3.4 1.4.2 5 2.9 9.7 2 14.9-.2.8-.7 1.6-1 2.8zm-2.8-8.8V308c0-.5-.4-1-.7-1.4-.1-.1-.8.2-1.1.4-3 2-4.3 5.2-5.5 8.4-.2.3.4.9.6 1.3 2.2-1.5 4.4.6 6.7 0 1.4-.3 1.2-1 0-2.3zM565.2 315.5c.4-1.8-.5-3.6 1-5 .4-.3.2-1.2 0-1.8-1-3.1-1-3.4 2-4.6 3.3-1.4 8.4-.4 10.3 2 1.8 2.2 2 5.5.5 7.6-3.8 5-9.5 8-13.7 12.6 0 .1-1.6-.6-1.7-1-.2-1.7-.3-3.4 0-5 .2-1.6.9-3 1.6-4.8zm6.2-10c-2.6.5-2.9 2.6-3.2 4.6-.5 2.4-1 4.9-1.3 7.3-.2 1.3-.1 2.5-.2 3.8l2.3-2.1c1.7-1.5 3.5-2.8 5.1-4.3 5-4.7 4.6-6.6-2.7-9.3zM545.9 307.4c1-3 1.8-5.6 2.8-8.1.2-.5.6-.8 1-1.2.2.5.8 1.1.8 1.6-.2 1.5-.4 3-1 4.3-1 2.8-2.3 5.5-3.4 8.3-.1.4.6 1.5.7 1.5 1.5-.3 3.2-.5 4.5-1.3 1.3-.7 1.9-2 2.2-3.7.3-2.3 1.7-4.5 2.8-6.7.3-.6 1.4-.8 2.2-1.2 0 .9.3 1.8 0 2.5-.6 1.9-1.8 3.6-2.4 5.5-.8 2.6.2 3.3 3 2.5h1.5c-.2.6-.3 1.4-.7 1.9-.4.3-1 .6-1.6.5-3.5-.3-4.2 2.4-5 4.8-.5 2-.6 4-1 6 0 .5-.4 1-.8 1.3-.2 0-1-.3-1-.6-.4-1.2-.8-2.5-.6-3.7.2-1.7 1-3.3 1.5-5 .2-.4-.1-1-.2-1.6-.6 0-1.1.1-1.6.3-1.7.4-2.9 2.3-5.2.6-1.1-.8-1.5-1.5-1.2-2.3.7-2 1.8-3.8 2.7-6.2zM682.1 316.4c-.8 2-1.2 3.8-1.9 5.6-.2.4-1 1-1.2.9-.5-.2-1.2-.8-1.2-1.3-.2-2.3-.7-4.8 0-6.8 1.3-3.3 1.3-6.7 2.1-9.9.4-1.6-.4-1.8-1-2.1-.8-.3-1.8 0-2.7-.1-.8-.1-1.5-.6-2.2-.9.7-.6 1.4-1.7 2.2-1.8a99.7 99.7 0 0115.8-1c.7.1 1.5.8 2.2 1.2-.7.5-1.4 1.3-2.2 1.5-1.2.3-2.5 0-3.7.1-1.4.2-3.1.2-4.2 1-.7.6-.4 2.4-.9 3.6-1.2 3.2-.8 6.5-1 10zM606.5 323.8c-4.7-4.1-4.1-9.3-4-14.4.1-1.7 6.7-7.4 8.5-7.6 2-.2 4.9 2 5.2 4 0 .1 0 .5-.2.6h-.9c-2-2.7-4.4-2.2-6.6-.7-2.2 1.4-3 3.7-3.3 6.4-.5 3.6.4 6.4 3 8.8 2 1.8 4.2 1.9 6.2 0 1.3-1.1 2.4-2.4 3.6-3.5.3-.3.7-.3 1-.5l.2.8c0 2.6-4.4 7.9-6.8 8.2-2.1.3-4.2-.1-6-2zM659.1 303.6v-2.3l1.3-2.2c.2.8.6 1.6.6 2.4v15.3c0 .5.6 1.1.8 1.7.4-.5.9-1 1-1.6l4.7-16.6c.1-.5.5-.9.8-1.3.3.5 1 1 1 1.5.2 5-1.5 9.5-3 14-.4 1.1-1.4 2-1.5 3.1-.4 2.3-1.4 3.7-3.8 3.6-1.3 0-3.4-3.4-2.7-5 1.8-4 .3-8 .8-12.6zM693.3 376.3l3.5 7.2c.6 1.4 1 3-.5 4-1.3 1-2.6.5-4.1 0-2.8-1-4.2-3-5.7-5-.3-.5.3-1.5.5-2.3l1 1c.7.8 1.4 1.7 2.3 2.2 1.1.8 2.5 1.2 3.8 1.8.6-1.6-.7-2.6-1.3-3.8-1-2-2.1-3.8-3-5.8-.9-2.5 2.5-8.3 5-8.8.7 0 1.5.5 2 1 0 .2-.4 1.2-.9 1.6-2 1.8-4 3.5-2.6 6.9zM611.8 379.8v-9.3c0-.6.8-1.2 1.3-1.8.2.7.5 1.3.5 1.9l2 14.5c0 .7.2 1.4.4 2 .4-.6 1-1.3 1.3-2.1l4.7-10.6.5-1.1c.1.4.5.8.4 1.2-.3 2-.4 4-1.2 6-1.2 3-2.7 5.9-4.4 8.7-.5.8-1.9 1.6-2.8 1.6-1.3 0-1.8-1.2-1.8-2.6l-.9-8.4zM750.1 371.4c1.3-1.8 2.5-3.3 3.8-4.6.2-.2.9 0 1.3 0l-.4 1.3c-1.4 2.7-2.9 5.3-4.2 8-.6 1.3-.8 2.7-1.5 4a8 8 0 01-2.2 3.2c-.8.5-2.2.8-2.4-1.3-.4-4-1.2-7.9-1.8-11.8v-.4c-.5-1.3-1.7-2.7.3-3.8.5 1 1.3 2 1.6 3.2.4 1.8.5 3.7.9 5.6l.9 3.1c.6-.9 1.3-1.7 1.8-2.6.7-1.1 1.3-2.3 2-3.9zM649.9 385.3c-.4.8-.8 1.1-1 1.5l-.4 3c-.7-1-1.9-1.9-2.1-3-.4-1.7-.7-3.8-.2-5.4 1.3-3.8.7-7.5.9-11.3v-.9l1-1.5c.3.4.7.9.8 1.3 1.3 5.3.9 10.6 1 16.3zM759.4 367.7c-.4 2.7 1 4.7.1 7.1-.7 2.2-.1 4.8-.1 7.3l-.3 1.2c-.4-.2-.8-.4-1-.7-1-1.7-2.2-3.3-1.1-5.6.6-1.5 1.1-3.9.4-4.7-1.9-2.2.6-4.5-.8-6.4l1.5-.9c.4.7.9 1.5 1.3 2.7zM472.4 498l10.7-3c2-.5 2.6-1.3.6-2.8-2.4-1.8-3.1-4.8-4.5-7.4-.2-.3 0-1 .3-1.2.2-.2 1-.2 1.2 0 3.2 3.5 6.6 6.9 9.5 10.6.8 1 .9 3.3.4 4.8-1.3 4.4-2.9 8.7-4.6 13-.3.6-1.5 1-2.3 1.5-.5-.7-1.3-1.5-1.3-2.2 0-1.3.4-2.7 1-3.8 1.2-2.7 2.8-5.3 4.2-8 .2-.4.4-1.1.3-1.2l-1.6-.5c-.4 0-.8.3-1.2.5a36.7 36.7 0 01-9.8 3.4c-3 .6-5.7 2.7-8.6 3.8-4.8 1.9-9.7 3.5-14.5 5.3-2.6 1-5 2.2-7.3 3.7-2.2 1.3-4.7 2.1-7 3.2l-7 3.2c-8.6 3.9-16.3 9.1-23.5 15.1-3 2.6-6 5.7-9.5 7.4-2.6 1.2-3.8 3.4-5.7 5-2 1.7-4 3.3-5.8 5l-2 2c-3 2.1-2.9 4-.4 6.6 5.7 6 9.9 12.4 7.6 22-1.9 8-6 14.6-10 21.4-1.4 2.2-3.9 4-6.2 5.2-4.7 2.4-9.1 5.5-14.3 7l-3.7 1c-1.2.2-2.4.3-3.5.6-2.5.7-5 1.2-7.6.4-.9-.3-1.9-.2-2.8-.1-4 .6-6.9-1.4-8.8-4.3-1.3-2-3.2-3.6-4-6.2-.6-1.8-2.5-3.5-3.3-5.5-1-2.7-1.5-6.2-1.2-10 .2-1.7 0-3.5-.2-5.2-.2-4.6 1.9-8.7 2.2-13.2a9.4 9.4 0 012.4-5c2.8-3 5.9-6 8.9-8.8.8-.8 2.1-1.2 2.8-2 3.5-4.7 8.5-5.6 13.9-5.8 1.7 0 3.5-.4 5.2-1 1.5-.5 2.8.5 4.4.4 3-.2 6.4.6 9.3 1.8 1.5.6 2.1.6 3-.5 4.7-6.6 11.7-10.8 17.8-16 3.1-2.7 6.9-4.4 10-7a110.1 110.1 0 0130.3-17.7c3.2-1.2 6-3.3 9.2-4.7 4.2-1.9 8.3-3.9 13-4.6 3-.5 5.8-2.4 8.7-3.6l5.3-2.6zm-84.8 78.3c-1-4.4-5.2-6.3-7.4-9.7-.7-1.2-2.1-2.6-3.4-2.7-2-.2-2.4-1.5-3.5-2.6-3-3.1-6.6-5.7-11.4-5-1.1.2-2.2.6-3.3 1-4.2 1.1-8.6 1.6-12 4.6-2.6 2.3-5 5-7.7 7.3-4.4 3.9-6 8.9-6.2 14.6 0 1.9 0 3.7-.7 5.7-.7 2.3-.4 5.2.4 7.6 1 3.2 2.6 6.4 4.5 9.2 1.9 2.6 4.5 4.7 6.8 6.9.4.4 1.2.8 1.5.7 3.6-2.3 7.6-.6 11.4-1.6 5.6-1.6 11-3.1 16-6.1 5.5-3.2 8-8.6 11.4-13.4 3.5-4.8 3.6-10.5 3.6-16.5zM703.1 552.2v-2.7-8l-7.7-.4c-.5 0-1.1-.2-1.6-.5-1-.6-1.8-.8-1.8.6 0 1-1 2.7 1.3 2.7h7c.3 0 .7.7 1 1.1-.3.3-.6.7-1 .7-2.1.4-4.3.8-6.5 1-1.5 0-2.7.5-2.7 1.8 0 1.7-1 3.8 1 5.1.3.3 1.3.2 1.8 0 1.6-1.2 3-2.6 4.6-3.6.6-.4 1.6-.3 2.5-.4-.3.8-.3 1.7-.8 2.2-2.3 2.5-4.6 5-8.5 5.2-2.5 0-3.4-1.6-3.3-3 0-4.6.5-9 1-13.6.3-1.8 2.4-2.9 4.5-2 3.2 1.2 6.1 1 9.3.4 1-.3 1-.2 1.8 2l.5 1.2c.3-.3.8-.6 1-1 .5-2.3 2.6-2.4 4-2.1 3 .5 4 4 2 6.2-1 1.2-1.9 2.9-4 2.5-.2 0-.6.6-.6 1 0 .2.4.7.7.8l7 2c1 .2 2 .5 3 1 .5.2.8.8 1.3 1.2l-1.6.5a19 19 0 01-9-1.7c-.7-.3-2-.8-2.5.9-1 3-1.2 3-3.3.6-.3-.2-.2-.8-.4-1.7zm8.4-10.6c-3.9-.6-5.2.2-4.6 3.2.1.3 1 1 1 .9 1.3-1 3.6-.8 3.6-4.1zM693.6 465.2c-1.9-3.3-.5-6.4-1-9.4 0-.2.5-.8.8-.8l10.1-1.9c1.5-.2 2.9-.2 3.3 1.8.2.7 1 1.7 1.5-.2.4-1.7 1.6-2.2 3.3-.6 1.8 1.8 2.6 4 2.9 6.2.3 2.5 0 5 0 7.4 0 .4-.3.8-.5 1.2l-.9-1c-.2-.4-.4-.8-.4-1.3 0-1.6-1.2-3-2.4-2.2-1.3.8-4.2-.5-4 2.7 0 .8-.6 1.6-.9 2.4l-.4 1.2-.3-.3c-2.5-2-4.7 1.2-7 .3l-2.9-1c-1.6-.9-1.2-2.6-1.2-4.5zm7.7-2.8c-1.5.3-3 .5-4.6 1-.5.1-1.3.8-1.2 1.1.4 2.6 2 3.2 4.8 2.7 2.4-.3 2.6-1.7 3.6-3.5 1.5-2.7.8-5.2.6-7.8 0-.3-.8-1-1.1-.9-2.4.7-4.8 1.4-7.2 2.5-.5.2-.5 1.5-.8 2.3.7.2 1.5.7 2.3.7 1.5-.2 3.4-.2 4.5-1 2.2-1.8 1.5.5 1.3 1-.3.6-1.1 1-2.2 1.9zm10-3.7c-.1-.7-.1-1.5-.5-2.1-.2-.4-1-.7-1.3-.6-.8.1-2.5 4.4-2.2 5.4.6 2 2.3.9 3.3.9 2.5 0 .5-2.2.7-3.6zM687.3 496c1-4 1.8-7.5 2.8-11 .2-.6 1.3-1.4 2-1.4.6 0 1.4 1 1.6 1.7.8 2.2 1.3 4.5 2 6.7 1 2.4 2.6-.2 3.8.4.2-.7 1-1.7.7-2.1-1-1.5-1.1-2.7-.3-4.4.9-1.8 1.8-2 3.2-1 1.8 1.4 3.3 3 3.7 5.3.2 1.2.5 2.4 1 3.6.2.5.8.8 1.3 1.3.4-.6 1.3-1.1 1.3-1.7 0-2.8.7-5.8-1.4-8.3-.2-.3.2-1 .4-1.6.6.1 1.9.2 2 .5 1 4 2 8.2 0 12.2-1.4 2.6-4.2 2.5-5.5-.2-1.1-2.4-1.8-5-2.7-7.5l-.6-1.4c-.2.5-.5 1-.4 1.6l.8 7.6c0 .5-.4 1-.6 1.5-.5-.3-1.1-.4-1.5-.8-.4-.5-.6-1.3-1-1.8-.5-.5-1.3-.7-1.9-1l-.5 1.6-.5 3.8c-1.8-.3-1.7-2-2.3-3a2.7 2.7 0 00-3.5-1.4c-.8.3-1.5 1.4-2 2.3-.6 1.2-1 2.5-1.5 3.8l-.6-.6c-1-1.5-1.2-3 .2-4.7zm5.6-4c-.5-1.4 1.1-3.2-1.2-4l-.7 4.4.3.7c.5 0 1-.2 1.6-1.1zM638 468c-.4 1.2-.9 2-1.3 2.7l-1-1.7-4.6-9.3c-.2-.4-.7-.7-1-1-.2.3-.5.7-.5 1v8.5c0 .9-.2 1.8-.5 2.6-.1.4-.6.6-1 .9l-.4-.8c-.8-3.5-.8-9.2 0-13l-.1-.8-1 .3c-.8.4-1.5 1.1-2.3 1.2-3.2.2-1.7 2.3-1 3.3 1.5 2.7.5 5.5.6 8.1 0 1.4-2.6 2.3-4.6 1.7-3.7-.9-6.6-6.7-5.1-10.2.4-1 .8-2.2 1.4-3.2 1.2-2 3.2-3.4 5.3-2.4 2 1 3.5.4 5.4 0 4.7-.9 5.1-.4 7 4.5.5 1 1.3 2 2 3 0 .2.4.4.6.6 0-.2.3-.6.2-.8-.6-2.2 1.2-4.4 0-6.7-.2-.6 0-1.6.3-2.2.3-.6 1.1-.9 1.8-1.3.2.6.7 1.2.7 1.8-.3 3.2.8 6.4-.8 9.5-.5.9 0 2.1 0 3.7zm-17.3-8.4l.3-1.6c-1 .1-2.1-.1-2.8.4-2.3 2-2.4 7.6-.1 9.6.8.7 2.2.8 3.3.8.2 0 .5-1.4.7-2.2.8-2.6-1-4.4-1.4-7zM749.4 488.7v7.2c.1.6.9 1.2 1.3 1.8l.7-1.4c2.2-1.7 4.9-2 7.6-2.1.3 0 .5.2.8.3l-.5.6c-2.5 1.5-5 3.1-7.6 4.5-2.5 1.3-4.8.2-5.1-2.4v-1.8c0-1.2.2-2.2-1.9-2.3-2.5 0-1.8 1.3-2 2.6a43 43 0 01-.8 4.1c0 .6-.4 1-.6 1.5-.5-.6-1.2-1-1.3-1.7-.3-.8-.1-1.8-.1-2.7 0-1.6.3-3.4-2.2-3.6-2-.2-2.6 1-2.6 2.8 0 1-.5 1.9-1 2.7-.3.6-1 1-1.4 1.6-.5-.7-1.3-1.5-1.3-2.2 0-1.5.6-3 1-4.5.5-2.8 1.3-5.5 1.7-8.3.3-1.7.5-2.9 2.5-3 2 0 3.3.5 3.3 2.7 0 1.2.7 2.4 1 3.7.3 1.4 2.2 2.9 3.6 2.6 1.8-.2 2-1.5 2.1-2.9 0-1.4.6-2.8 1-4.1 0-.4.3-.7.5-1 .3.3.9.6 1 1l.3 4.3zm-13.3-2.2v3.1c.1.6.5 1.2.7 1.8.7-.5 2-.9 2-1.5.4-1.7 0-3.3-2.7-3.4zM768 543.5c0-2.2-.2-3.9 0-5.6.2-.7 1.1-1.2 1.7-1.9.4.7 1 1.4 1 2-.2 3.8-.7 7.6-.8 11.4-.1 3.5 1 4.1 4.2 2.5l3-1.8c1.6-.8 3.2-1.8 4.6.3 0 .2.2.4.3.4 1.3-.1 2.9 1.6 3.7.3 1-1.5-1-2.1-2-2.9l-2.1-1.6c-2.4-1.8-2.6-4.2-1.4-6.5 1.1-2 2.7-4 5.5-4 .6 0 1.3-.2 1.9 0 .5.1 1 .6 1.6.9-.6.3-1.1.7-1.7.9-.9.2-2.1-.2-2.6.3a12.4 12.4 0 00-3 4.3c-.1.6 1.3 2 2.1 2.8 1.2 1 2.7 1.8 3.8 3 .7.8 1.6 2.4 1.2 3-.5 1.2-1.8 2.3-3 2.4-1.5.3-3.2.7-4.7-.7-1-1-2.8-.7-3.7 0-1.8 1.8-4 2.3-6.3 2.8-2.5.5-4.2-.4-4.2-2.8.1-3 .6-6 .9-9.5zM743 466.4c-.5.7-1.3 1.2-2 1.6-3.5 1.9-6.6 4.6-10.9 1.1-1.6-1.3-3.8 1-5.7 1.8-2 1-4 1.9-5.6-.5-.5-.6-1-1.5-1-2.3v-11.7c0-.5.5-1 .8-1.4.3.5 1 1 1 1.5.4 3 .8 6 1 9 .2 3.5 1 4 4.3 2.5.4-.2.7-.7 1.1-.8 4-1.2 4-1.2 4-5.3.1-2.2.6-4.4 1-6.6 0-.5.6-.8.9-1.3.3.4.9.8 1 1.3l.9 9c.2 2.8 1.1 3.2 4.1 2 1.5-.5 3.2-2.3 5 .1zM529 461.3c.2 1.6 0 3 .3 4.4 0 .7.8 1.2 1.2 1.8.5-.7 1.5-1.7 1.3-2-1.3-2.2.9-4.2.3-6.3-.1-.2.4-.6.6-1 .4.4 1 .6 1.2 1 .4 1.7.8 3.5.9 5.2.2 3-.5 6.4 3.3 8l-.1.9c-.6.3-1.6.9-1.9.7-1.5-1.1-2.6-2.5-2.3-4.7.1-.5-.9-1-1.3-1.6l-.5 1.6a42 42 0 01-1 2.5c-.1.5-.4 1-.6 1.4-.6-.3-1.4-.6-1.8-1.2-.3-.3-.2-1-.3-1.7l-1-7c0-.5-.6-.9-.9-1.3-.3.4-.8.7-.9 1.2-.5 2.1-.8 4.3-1.6 6.4-.8 2.3-3.3 3.9-4.9 3.6-1.7-.3-2.8-2.2-2.8-5 0-1.9-.2-3.7 0-5.6.1-2 2-3.6 4-3.4 2.5.2 5 .6 7.5 1 .4 0 .7.5 1.3 1zm-9.1.2c-.6.5-1.7 1-1.8 1.6-.3 1.4 0 3 0 4.5-.1 1.6-.3 3.3 1.6 3.6.6.1 1.5-1.4 2.1-2.3.5-.7.6-1.6.9-2.4 1-3 1-3-2.8-5zM512.4 543.7c.9 1.1 1.7 1.4 1.8 0v-4.2c.1-.5.6-1 .8-1.4.4.4 1 .7 1 1a21 21 0 01-1.8 10.9c-.2.4-.6.7-1 1.1l-.8-1.3c-1-3.1-1.8-6.3-2.7-9.4l-.4-1.3c-.4.4-1.1.7-1.2 1.2-.5 2.1-.8 4.3-1.2 6.5a22 22 0 01-1 3.7c-.2.8-.9 1.5-1.4 2.3-.7-1-1.9-1.8-2-2.8a102.5 102.5 0 01-1-18.1c0-.4.6-.8.9-1.2.3.3.8.5.9.8.3 1.2.8 2.5.9 3.8v9.7c0 .4.4.9.6 1.4 0-.5.2-.9.3-1.3 1-2.5 1.2-5.2 2.6-7.7.9-1.4 1-1.3 2.2-.5 2.4 1.5 1.1 4.4 2.5 6.8zM558.8 489.7c.5 2 1.1 3.7 1.7 5.4 2.3-1.3.5-3.4 1-5.1.2-1 0-2.1 0-3.2 0-.8.3-1.7.4-2.5.5.8 1.4 1.6 1.4 2.4-.1 4.3.6 8.6-.8 12.8-.5 1.3-1 1.4-1.8.7-2-1.6-2.6-3.7-2.8-6.1-.1-.9-.2-1.7-.5-2.5 0-.4-.6-.7-.9-1-.1.4-.4.7-.4 1.1l-1.9 9.2-.6 1.5c-.6-.4-1.5-.6-1.8-1.1-.6-1.1-1-2.4-1.2-3.6-.4-4.4-.7-8.9-.9-13.3 0-.7.7-1.3 1-2l.8 1.7c1.8 3.7.5 7.6 1 11.4 0 .4 0 .8.2 1.3.2-.4.5-.8.6-1.3.3-1.5 1-3 .8-4.6-.1-1.8 1-2.8 2.2-3.5.3-.2 1.6 1.2 2.5 2.3zM619 537.5c2 2.5 1.5 5.2 1.6 7.8 0 .5.3 1 .5 1.4.1-.4.3-.8.3-1.3.4-2 .5-4 1-5.9.2-.7 1-1.6 1.6-1.7.6 0 1.5.9 1.7 1.6.5 1.6.7 3.3 1 5 0 .5.3.9.5 1.4.4-.5 1-.9 1.2-1.4.4-2 .5-4 1-5.9 0-.3 1-.8 1-.7.6.3 1.3 1 1.2 1.5-.6 2.7-1.6 5.3-2.3 8-.4 1.5-1.2 2.5-2.5 2-.8-.2-1.4-1.5-1.8-2.4-.3-.5 0-1.2 0-1.8l-.6-1c-.3.3-.8.6-.9 1-.2.8-.2 1.7-.3 2.6v2.7c0 1.5.2 3.4-1.6 3.4-.9 0-2-1.7-2.6-2.9-.4-.8 0-2-.2-3l-.8-10.6.2-.3.9.5zM522.5 489.7c-1 .3-1.8.5-1.8.8v4.5c0 1.4.7 1.6 1.7.8.5-.3.8-1 1.3-1.2 1.6-.5 3.3-.7 5-1l-3.5 3.5c-.3.3-.8.4-1 .7a3.8 3.8 0 01-5 .8c-1.2-.7-2-2.8-2.2-4.4-.4-2.4 0-4.9 0-7.3 0-1.1.3-2.5-.2-3.2-1.7-1.9.2-2.1 1-2.2 2-.2 4-.1 6 0l6 .2-5.7 2.3c-.6.2-1.2.2-1.8.2-1.5-.2-2 .5-1.6 1.8.3 1.2 1 2.4 2.4 1.6 1.7-.9 3.3-1 5 0-1.1 1.7-3 1.8-4.7 2.1h-1zM686.2 454c3.4 1.8 3 4.8 2.6 7.4-.2 1-2 1.9-3 2.8l-1.4 1.2c.5.3 1 .9 1.6 1 1.2.4 2.5.4 3.8.8.6.2 1.1.8 1.7 1.2-.6.5-1.4 1.6-1.8 1.4a34 34 0 01-7-2.4c-1.5-.7-2.4-1-2.8.4l-1 3c-1.9-.7-.7-2.3-.8-3.5v-10.2c0-1.3 0-1.8 1.7-2.3 2-.6 4-.6 6.4-.8zm-5.4 6.1c.3 3.4 2.2 1.9 4 1.5 1.5-.4 2.7-1 2.2-2.6a5.2 5.2 0 00-2.3-3c-1.2-.6-2.5.2-3 1.7-.2.6-.6 1-1 2.4z"/>
  <path fill="#00EBAB" d="M750.8 465.8c-1.3 4-2.2 7.6-3.3 11.3 0 .4-.6.7-1 1.1-.2-.4-.7-.7-.9-1.2-.4-1-1-2.2-.9-3.2.4-2.3 1.4-4.6 1.8-6.9.2-.8-.4-2-1-2.7-1.7-1.8-3.8-3.3-5.5-5.2-.7-.8-1-2-1.2-3-.1-.4.6-.8.9-1.2l1 .7c1 1 1.8 2.3 3 3.3 1.3 1.2 3 2.1 4.4 3.2l1.4-4.4c.2-.6-.2-1.3 0-1.8.4-.7 1.2-1.2 1.7-1.8.4.6 1.3 1.3 1.2 1.8-.3 3.3-.9 6.5-1.6 10zM513 458c1 2.6 1.6 5.2.2 8-.6 1.1 0 2.8-.3 4.2-.2 1-1 2-1.6 3-.9-.7-2-1.1-2.6-2-.7-1.2-1-2.7-1.6-4-.3-.6-1-1-1.5-1.5l-.4 1.7-1 5.8c-.1.9.3 2.2-1.3 1.8-1-.2-2.3-.9-2.5-1.6-1.5-5.2-1-10.5-1-15.7 0-.5 1-1 1.5-1.5.1.5.4 1.1.4 1.7v10c0 .8.4 1.7.7 2.6 0 .2.4.4.6.6.2-.3.6-.6.6-1l1-7.6c.2-.7 1.4-1.1 2-1.7.4.5 1 1 1.2 1.7.6 1.8 1 3.6 1.8 5.4.2.6.8 1 1.3 1.4.2-.5.5-1 .5-1.6l.1-8.5c0-.5 1-.9 1.9-1.3zM602.2 483.5c3.6 2.6 5.3 3 1.7 7.5-1.4 1.7-1.2 2.2 1 2.2.5 0 1 .5 1.5.9l3.2 3-3.8-1c-2.3-.6-4.7-1.2-6.9-2.2-1-.5-1.4-1-1.4.6 0 1.4.4 3.7-1.2 3.7-2.1 0-1-2.6-1.6-3.8-1.2-2.5-.8-5-.8-7.6 0-.5.6-1 .9-1.6l1.5 1.6c.2.3 0 .7 0 1 .5 0 1.2-.3 1.2-.4-.1-2.8 2.6-2.9 4.7-4zm1.4 3.5l.3-.3v-.3c-1-.1-2-.5-2.7-.2-1.5.5-3 1.5-2.7 3.4 0 .3 1 .8 1.5.9 2 .2 3.2-.6 3.1-2.6 0-.2 0-.3.5-1zM673.2 556.4c-.4-1.3-.9-2.1-1-3v-8c0-.8-.1-2.1-.3-2.2-2-.2-1.6-1-.4-1.6.5-.3 1.6.1 2.1.6.4.4.5 1.4.5 2.1v7.1c0 .7.7 1.4 1 2.1l.9-1.8c.3-1.9.4-4 1-5.7.5-1.5 1.7-2.6 2.6-4 .7 1.4 1.6 2.7 2 4.1.5 2 .6 4.2 1 6.3 0 .4.6.7 1 1.1.3-.4.8-.9.8-1.3v-10c0-.7.7-1.3 1-2 .3.6.9 1.2.9 1.8l-1 13.4c0 .3-1 .8-1.6 1-1.5.2-2.7-.2-3-2l-1-7.2c0-.4-.3-.8-.4-1.3l-.5 1.1-1.9 7.8c-.4 2.3-1.8 2.7-3.7 1.6zM583.5 517.3l1.2-5.6c.2-.4.6-.7 1-1l.4 1.1c0 .8-.2 1.7 0 2.4.4 1-1.2 3 1.4 3 2.8.2 3.4 0 3.9-2.7l.8-2.9.7-1.9c.7.7 1.9 1.4 1.9 2v15.1c0 .3-.5.8-.8.8-.3 0-.8-.4-.9-.7-.3-1.6-.7-3.2-.8-4.8-.1-1.5-.7-3.4-2-2.8-1.3.7-4 0-4.2 2.8v3.3c0 .5-.6.9-.8 1.3l-1-.7a20 20 0 01-.8-8.7zM645.7 521.4c-.6 2.5-.8 4.8-1.2 7-.1.5-.8 1.2-1.2 1.3-.4 0-.9-.8-1.3-1.2v-.4l-.9-16.8c0-.5.6-1 1-1.6l.7 1.4c1 2.6-.1 5.2 0 7.8 0 .5.5.9.8 1.3l1-1.1c.2-.5.1-1.2.4-1.7l2.8-3.9 3 3.5 1.3 1.3.4-1.7c.1-1.3 0-2.5.3-3.7 0-.4 1-.5 1.5-.8.1.5.5 1 .4 1.4l-1.3 11.3c0 .4-.3.8-.5 1.2-.5-.3-1.3-.4-1.4-.7-.7-1.8-1.1-3.7-1.6-5.5-.3-.9-.3-1.9-.7-2.6-.6-1-1.5-1.6-2 .3l-1.5 4zM572.6 537.8l3.4 7.4c.2.4.6.6 1 1 0-.5.3-1 .3-1.3l-.8-6.8c-.1-.7 0-1.5.2-2.2.2-.4.7-1 1-1 .4.2 1 .6 1.2 1 .2.7.2 1.6.2 2.3v12.4c0 .7-.2 1.4-.4 2.2-.7-.6-1.8-.9-2.2-1.7-1.6-2.9-3.1-5.9-4.5-8.9-1-1.8-1.6-3.7-2.4-5.5-2.2 1.6-1 4-1.2 6-.2 2.6 0 5.1-.1 7.7 0 .5-.7 1-1 1.5-.3-.5-.7-1-.7-1.4v-13.3c0-.7 1-1.6 1.8-1.9.5-.3 1.5 0 2 .3.8.5 1.4 1.3 2.2 2.2zM763.9 547a9.2 9.2 0 01-3.3 5.1c-1.3 1-2.1 2.5-4.3 1.2-1.8-1-3-1.7-2.8-4 .2-1.7 0-3.4 0-5.1.1-3.1 3.3-7.3 6.3-8.2 1.9-.5 5.3 2.3 5.2 4.6 0 2.1-.6 4.1-1.1 6.4zm-7.5 1.7c.2 2.6 2.4 1.6 2.8.8 1.3-2.4 2.2-5 2.9-7.7.2-.8-.7-2.5-1.5-2.9-1.3-.5-2.4.3-3.3 1.7-1.3 2.3-.7 4.8-.9 8zM716.8 482.6c2.4.1 4.5-.8 6.8.6 3.7 2.3 5.5 5 4.3 8.6-1.5 4.8-4.7 7-9.1 6.2-.9-.2-2-1.1-2.2-1.8-.5-4-.7-8-1-12 0-.4.6-1 1.2-1.6zm1.6 10.4c.4 2.6 1.8 2.8 3.6 1.3 1.4-1.2 3.8-2.9 3.6-4-.5-2-1-4.6-4.1-5.5-2.9-.8-3-1-3 1.8l-.1 6.4zM653.5 453.2c.9-.2 1.5-.2 2-.2s1 .2 1.3.3c-.2.4-.3.8-.7 1l-5.4 2.5c-1 .5-2 1.3-3 2 1 .3 2.1.6 3.2.7.7.1 1.6 0 2.2-.3.8-.4 1.5-1.3 2 .2 0 .3-1 1.2-1.7 1.5l-4.5 1.5c-2.5 1.2-2.9 2.6-1.1 4.8.4.5 1.8.7 2.5.4 1.3-.5 2.4-1.6 3.6-2.3.5-.3 1.2 0 1.8 0-.2.5-.3 1-.6 1.3l-3 3c-1.7 1.8-3.5 1.3-5.6.6-2.4-.7-1.4-2.3-1.6-3.6-.2-1.7.6-3.6-1.2-5.1-1.4-1 .5-.7.6-1 .4-1.1.6-2.3.6-3.5 0-2.1.2-3.2 3-2.3 1.5.5 3.6-.8 5.6-1.5zM506 496c-3.6-.4-4.7-1.2-4.6-3.9.1-3.3.5-6.6 1-10 .2-1.6 2.7-3.1 4.2-2.8 2 .5 2.8 1.9 2.5 4.2 0 .9-1.2 3.2 1.7 1.6.9-.4 3.7.8 3.8 1.4.2 1.9 1.3 4.3-1 5.6-2.3 1.5-5 2.5-7.7 4zm-1.8-3c4.4 1.8 6.5-2.2 9.5-3.7.2 0 0-1.1 0-1.2-2-.4-4.3-1.4-6.1-1-2.2.4-4.2 2-3.4 5.9zm1.5-11.8c-.5.6-1.2 1.1-1.4 1.8-.2.8.1 1.8.2 2.7l2-1.5c1.2-1 2-2-.8-3zM552.7 523.4l-3 1.8c-4.4 2.6-6.8 1.2-7.6-3.2-.6-3.9-.6-7.8-.8-11.8 0-.5.9-1.4 1.4-1.5h9.8c.5.1 1 .9 1.4 1.3l-1.6.5-6 1-2.3.5c.3.8.4 1.8.9 2.5.3.4 1.3.4 2 .4 1.3-.1 2.7-.5 4.1-.6.3 0 .7.5 1 .7-.4.4-.7 1-1.1 1-.8.3-1.7 0-2.4.2-4.6 1.2-5.2 2.3-3.4 6.5.2.5 1.7 1 2.3.8 1.7-.6 3.2-1.8 4.9-2.4.7-.3 1.8.3 2.7.5l-2.3 1.8zM706.7 508.8c1.2.9 1.4 1.6 0 1.9-1.6.3-3 .8-4.6.9-1.6 0-1.5 1-1.2 1.8.3.5 1.3.7 2 1h.5c1.3-1.4 2.7-1.2 4.2-.4-1 .8-2.2 2.2-3.3 2.2-3.4 0-3.7 1.8-3.5 4.2l.2 5c1.2-.8 2.3-1.8 3.6-2.5 1.4-.7 3-1.3 4.5-1.9l1.3.3c-.2.3-.4.8-.7 1-2.7 2-5.3 4-8.1 5.9-1.6 1-3.6 0-3.7-2 0-2 .5-4.1.5-6.2 0-1.4-.6-2.9-.4-4.2.2-1.5.7-2.7 0-4.4-1-2.1 1.8-2.1 2.9-2.5 1.6-.5 3.5 0 5.8 0zM678.2 483.3c2.5 0 5-2.1 7 .2.5.5.7 1.3 1 1.9-.6 0-1.3.1-1.8-.1-2.4-1.2-4.4.2-6.2 1-2.7 1-2.5 2.3 0 4l4.9 3.7c2 1.2 1.6 3.2 1.2 4.8-.4 1.7-2.3 1.5-3.9 1.4-2.9-.1-6 .1-7.3-3.3 0-.3-.3-.6-.5-1 .4 0 1-.2 1.2 0 .8.2 1.5 1 2.3 1.1 2 .3 4.1.3 6.2.4-1.2-1.4-2.4-2.9-3.7-4.1-1-.9-2.2-1.4-3.3-2.1-2.5-1.8-2.7-3.4-.5-5.4.9-.9 2-1.5 3.4-2.5zM620.2 493.5v-8.9c-.2-1.6.3-2.7 1.9-2.7 1 0 2.2.9 2.6 1.7 1.2 2.6 2 5.3 3.1 8 .3.7 1 1.2 1.4 1.8.1-.7.5-1.3.5-2v-8.3c0-.6.6-1.2.9-1.7.3.5 1 1 1 1.6v12c0 .8-.6 2.1-.9 2-1.1 0-2.8-.1-3.3-.8-1.1-1.8-1.7-4-2.5-6l-1.3-4c-.2-.5-.7-.7-1-1-.2.3-.5.7-.5 1l.8 5.7c0 .8.3 1.6 0 2.3-.2 1-.9 2-1.4 3-1.2-.9-1.6-2-1.3-3.7zM585.3 465.4c-.2-1.6-.3-2.9-.7-4-.4-1.3-.3-2.4.8-3.2 1.1-.9 2-.6 3 .5l3 3.4c.6.6 1.1 1.4 1.6 2.1.1-1 .3-2.2.2-3.2-.1-1.6-2-3.4.2-4.8.4-.2 1.5.2 1.6.5l.9 12.9v.4l-1.1 2c-.5-.5-1.2-.9-1.5-1.4-1.3-2.3-2.4-4.7-3.6-7-.1-.2 0-.6-.2-.8l-2.2-2 .4 3c.4 1.9.9 3.7 1 5.6.1.8-.6 1.6-1 2.4-.5-.5-1.3-1-1.5-1.6-.5-1.4-.6-2.9-1-4.8zM590.6 493.2c.5 1.7 1 3.1 1.1 4.5 0 .6-.5 1.2-.8 1.8l-1-1c-1.2-1-2.3-2.3-3.6-2.6-1.9-.4-4.5-1-4.6 2.5 0 .4-.8.9-1.3 1.3l-1 .6-.3-.9 1-14c0-.3.8-.8.9-.8 1.5 1.3 3.2-.7 4.5.1 1.1.9 2 2.3 2.7 3.5.9 1.6 1.4 3.2 2.4 5zm-4.7-3.5l-.7-3.2c-.8.9-1.8 1.7-2.5 2.7-.4.4-.7 1-.6 1.6.2 1 .4 2.4 1 2.6 1 .4 2.4 0 3.2-.5.5-.4.1-1.8-.4-3.2zM567.2 485.8a7.1 7.1 0 018-.2l1 .4-1 .5-3.8 1c-1.7.4-1.9 1.1-2 2.9 0 2.7 1.2.7 1.9.7h3l2.7.4-3 1.4c-1.2.4-2.4.5-3.5 1-.5.3-.7 1.3-1 2 .5.2 1.1.7 1.6.7 1.6-.2 3.1-.6 4.7-.9l1.2.3-.6 1c-2.1 1.1-4.2 2.3-6.4 3.2-1.2.5-2.5-1.6-3-3.4-1.1-3.6.2-7.2.2-11zM532.4 520c-1-.9-1.9-1.1-2 .3v3.5c-.2.6-.9 1.1-1.3 1.7-.5-.5-1.2-1-1.3-1.6-.2-1 0-2 0-3 0-3.1-.1-6.2 0-9.3 0-.8.3-1.6.7-2.4.1-.3.8-.6 1-.5.4.2.6.7.9 1.1v.5l.5 4.6 3-3.2c.5-.4.9-1.1 1.3-1.1.6 0 1.3.3 1.8.7.1.1 0 1-.3 1.2a78.4 78.4 0 01-3.7 3.8c-1.1 1-.7.9.4 1.3 1.8.8 4 1 5 3l.8 1-1.2.4c-2 .1-4-.2-5.6-2zM536.3 542.6c-.2.7-2 1-.4 1.7 2.1.8 4.2 1.7 6.2 2.7.5.3.9.9 1.3 1.3-.5.2-1 .6-1.5.5-.9-.1-1.7-.4-2.5-.7l-5.3-2.6c-1.1-.6-1.7-.5-1.7.8v2.8c0 .5-.4 1-.5 1.6-.7-.4-1.5-.6-1.9-1-.3-.6-.3-1.5-.4-2.2-.4-3.5 1-7.2-.9-10.6l.3-.8.7.4c.8 1.1 1.6 1.6 2.6 0 .8-1 2-2.1 3.4-1.3 1.3.9 2.8 2 2.2 4.1l-1.6 3.3zm-3-4.3l-.6 1.5v2.5l2.2-1c.4-.3 1.1-1 1-1.3 0-1-.5-1.8-.9-2.7-.4.1-.8.3-1.7 1zM556.4 472.2c-1.2.4-2.1.7-3.1.7-1.6 0-3.2.6-1.7-2.5.8-1.7 0-4.6-.5-6.8-1-4.1 0-5.6 4.1-5.3 4.2.3 7.9 4 7 7.7-.7 2.8-2.3 5.4-5.8 6.2zm1.5-10.7c-1.1-.2-2.2-.4-3.3-.4-.4 0-1 .6-1 1v7.6c0 .4 1.3 1.2 1.5 1 1.6-1.5 3.3-3 4.5-4.7 1.2-1.8 1-2.3-1.7-4.5zM667.6 521c-1.2-.7-2.4-1-3.6-1.1-1.7-.3-3.3 1-2.9 2.7.2.7.7 1.4.7 2 0 1-.4 2-.6 3-.7-1-2-1.9-2.1-2.9-.2-4.3-.1-8.7-.1-13 0-.4.2-.6.3-.9.4.3.9.4 1 .8.3.8.5 1.7.6 2.5.1 1.6-.6 3.4 2.3 3.2 3.7-.2 4-.2 4.4-3.2 0-.6-.3-1.4 0-1.8.5-.7 1.5-1.7 2-1.5 2 .5-.4 1-.2 1.8.6 2.4.7 4.8 1 7.3v1.4l-1.5 5.2c-2-1.2-1.1-3.3-1.3-5.5zM567.6 512.7c3.8-3 8-1.5 12-1.9.2 0 .6.7.6 1 0 .3-.5.8-.8.8-3-.1-2.8 2-2.8 4v9.3c0 1 0 1.7-1.4 1.7s-1.2-.8-1.3-1.8c-.3-3-.8-5.9-.8-8.8 0-2-.6-2.6-2.5-2.6-1 0-2-.8-3-1.7zM749.8 540.8c2.3.4 2.9 2.4 2.6 3.3-1.2 3.2-.2 7-3 10-.7.7-1.7 1.5-2.7 1.7-1.6.4-2.4-.5-3.3-1.9-2.3-3.7-1.5-7.4-.2-11 1-3.2 1.3-3.1 6.6-2.1zm-3.8 2c-2 2.5-1.5 5.4-1.4 8.2 0 .7.9 1.6 1.6 2 .3.2 1.6-.4 1.9-1 1.5-2.6 1.7-5.6 1.3-8.5-.1-.8-1.2-2.4-3.4-.6zM549.2 545.3l6.2 2c.6.3 1.1 1 1.7 1.4l-1.9 1c-2 1.2-3.6-.3-5.1-1-1.8-.8-2.1-.5-2 1.2v1.8c-.2.4-.7.7-1 1-.3-.3-.8-.7-.8-1.2 0-4.2-.8-8.2-1.8-12.3-.2-.6.3-1.4.6-2 .1-.2 1-.3 1.1 0 .4.3.6.9.8 1.4l1 3.3 3-2.5c.3-.2.4-.6.7-.6l1.5-.3c0 .5.1 1.2-.1 1.5-1.4 1.8-2.8 3.4-4 5.3zM581.6 463.4c.8 3 1.3 5.7 2.5 8 .7 1.5-.1 1.9-.8 2.6-.6-.5-1.3-1-1.7-1.6-.5-.8-.5-2-1-2.7-.6-.7-1.6-1.2-2.4-1.7l-1.4 2c-.2.4 0 1-.3 1.2-.5.5-1.2.9-1.9 1.2-.2-.5-.8-1.2-.7-1.7.5-4.3 1.2-8.6 2-12.8 0-.7 1.1-1.2 1.8-1.7l1.1 1.5c1 1.7 1.9 3.5 2.8 5.7zm-4.9 2.3c-.2 1.3.7 1.5 1.7 1.3.5-.2 1.2-1 1.2-1.3-.2-1.5-.6-3-1-4.5-.2.1-.8.2-.9.4-.4 1-.6 2-1 4zM660.3 540.4c1.6 3 .5 6.2-2.2 7.6-1.2.6-2.5 1.1-3.7 1.8-2 1.3-1.9 3.2-2 5.2 0 .3-.7.6-1 1-.3-.3-.8-.6-.9-1 0-1.4-.6-3.2.1-4.2 2.2-2.7-1.1-5 0-7.6-2.8-2.2.8-3.7 1.4-3.7 2.7 0 5.6-1.2 8.3.9zm-4.3.6c-1.5.3-3.3.6-3.4 2 0 1.6.7 3.2 1.2 4.8l4.1-2.3.7-.6c1.6-1.7 1.4-2.3-2.6-3.9zM520 550c-1.3-4.3-.8-8.2 1-12 .7-1.5 1.5-2.4 2.9-1.9 1.2.4 2.7 1.3 3.3 2.4 1.4 3.1-.4 9.6-2.8 12-1.6 1.8-2.9 1.6-4.5-.4zm1-4.3v1.3l1.6 2 1.4-1.8c2-2.2 1.5-5 1.4-7.5 0-.6-.8-1.2-1.2-1.8-.4.4-1 .7-1.2 1.2-.6 2-1 4.1-2 6.6zM764.3 499.4c1.9-2.9-.6-4.6-1.7-6.6-1-1.9-.7-3.4-.1-5.2 1.1-3.3 5.8-4.2 8-1.6.4.5.6 1.3.8 2l-1.8-.3h-5.1c.3 1.7.5 3.4 1 5 .8 2.3 1.7 4.6 2.9 6.6.9 1.4.1 2.3-.7 2.5-1.9.5-4 1.2-5.6-.7-.4-.5-2-.7-.7-2 1-1 1.8-.6 3 .3zM614 520.9c1 .2 1.5.2 2.1.2l1.2-.3c-.2-.4-.4-.9-.7-1-2-.8-2.8-2.6-3.7-4.5-1.1-2.4-.2-4.2.9-6 1-2.1 3-1.6 4.7-1.6.3 0 .7.6.7.9 0 .3-.3.7-.6 1h-.9c-2.8 1.2-3.6 3.9-1.8 6.4 1 1.3 2.4 2.4 3.4 3.8.5.7 1 2.4.7 2.7-.9 1-2.3 2-3.3 2-2.3-.3-4.6-.9-6-3.3-.4-.9-1.3-2.4-1-2.6 1.1-1.2 1.5.5 2.3 1l2 1.3zM733.6 542c.1 4.2.4 8.2.7 12.2 0 .5-.5 1.1-.7 1.7-.7-.5-1.5-.8-2-1.5-.3-.3 0-1.1 0-1.7l-1-10.6c0-.4-.8-1-1.3-1.1-1-.2-2.1 0-3.2-.1-.3-.1-.6-.7-1-1 .3-.3.6-.7 1-.7h12.7c.3 0 .7.6 1 1-.3.2-.5.6-.9.7l-5.3 1.1zM603.9 465.2c-2.4-2.3-4.7-4.1-5.5-7.1 0-.3-.2-.7-.4-1 .5 0 1.1-.2 1.3 0 1.6 1.7 3 3.6 4.6 5.2 1.8 1.8 2 1.8 2.7-.6.5-1.9.6-3.8 1-5.7.1-.4.5-.9.8-.9.4 0 1.1.3 1.1.5 0 5.5.5 11-2 16.1-.1.5-.5.8-.9 1.3-.3-.6-.9-1.1-1-1.7v-5.1c0-.3-1-.5-1.7-1zM667.8 554.4c-3.6 2.6-5.3 2-5.6-1.9-.1-3-.4-6.3 1.2-9 .4-.8.2-2.5 2.1-2.2 1.4.2 2.4.3 3 1.9 1.2 2.7 1.1 5.4.5 8.1l-1.2 3zm-3-8c-1.7 1.9-.5 4.2-.7 6.4 0 .4.7 1.1 1.2 1.2.4 0 1.1-.7 1.2-1.1.5-2.1 1-4.3 1-6.4 0-.8-1-1.6-1.5-2.4-.3.4-.7.9-1.1 2.3zM506.2 516.4c.1 1-.5 2.2 1 1.3 2.2-1.4 4.5-2.8 6.9-4 .5-.3 1.3.2 2 .4-.3.6-.5 1.5-1 1.9a69.6 69.6 0 01-5.4 3.2c-4.1 2.2-6.5.8-6.2-3.8.3-3.3 1.2-6.5 2-9.8 0-.4.8-.8 1.2-1.1.1.4.4.8.4 1.2l-1 10.7zM539.7 467.5c0-2.3-.2-4.2 0-6 .1-.8.8-1.5 1.3-2.2.5.7 1.3 1.3 1.4 2 .1 2.2.5 4.7-.3 6.7-.6 1.5.8 2 .6 3l2.3-.8 4.3-1.8c.4 0 1 .4 1.4.7l-.1.8c-1.8 1.2-3.7 2.3-5.4 3.6-1.9 1.3-3.2-.2-4.4-1-1.6-.9-2-2.7-1.1-5zM640 532.8c-.4 2.6-1 4.9-1.6 7.2l-3.9 15.3c-.2.6-.8 1.2-1 1.9-.3 1.6-1 .5-1.2 0-.4-.7-.8-1.7-.6-2.4 2.1-6.9 4.4-13.7 6.7-20.5.2-.6 1-1.1 1.6-1.5zM589.3 541.5c.1 2.2-1 4.4 1 6.2 1.4 1.4 2.2 1 3.1-.3.1 0 0-.3.2-.4l2.3-2.8c-.2 1.4-.1 2.9-.7 4-.8 2-3.4 2.8-5.2 2.3-1.5-.4-4-3.8-3.5-5.5 1-3.3 1.3-7 4-9.3.5-.4 1.2-.5 1.9-.8-.1.7-.1 1.4-.4 2-.7 1.4-1.6 2.9-2.7 4.6zM638.5 481.9c1.1-.3 2-.4 2.8-.5l-.7 2.2c-.6 1.5-1.5 3-1.8 4.7-.2 1.2-.2 3.2.5 3.8 1.2.9 2.5-.5 3.5-1.4.2-.3.8-.2 1.2-.3 0 .6.4 1.2.2 1.6-1 1.8-2.4 3-4.7 3-2.8 0-3.1-2.3-3.5-3.9-.7-3.2.8-6.1 2.5-9.2zM798.3 544c1.7-1.6 3.5-2.9 5.1-4.2.3-.2.4-1 .2-1.2-.2-.3-1-.5-1.3-.4l-4.1 1.9c-.5.2-1.1 0-1.7 0 .1-.4 0-1.2.4-1.4 1.6-1 3.3-2.2 5.1-2.6 1.1-.3 3.1.2 3.7 1 .6.8 0 2.4-.3 3.6-.2.7-.7 1.9-1.3 2-2.9.8-3 2.6-2.9 4.8 0 .4-.3.7-.5 1-.3-.2-.8-.5-1-.9-.5-1-1-2-1.4-3.5zM687 523c.5-.5.7-.9 1-.9h3.5c-.8.6-1.7 1-2.4 1.7-1.5 1.3-2.6 3-5.2 2.7-1.8-.3-3-.7-2.9-2.7V512c0-.4.7-.7 1-1.1.3.4.9.8.9 1.2v9.1c.1 3.4.4 3.6 4.1 1.9z"/>
  <path fill="#00EBAB" d="M648 496.5l-1 1.7c-.3-.4-1-.7-1-1 .1-2.4.3-4.7.6-7 .3-1.8 0-2-2-1.7h-.9c-1.4 0-3.6.3-3.7-1.4 0-1.8 2.1-1.5 3.5-1.5 4 0 5 .4 5.8 3.1.1.6.3 1.3.2 1.9a54 54 0 01-1.6 5.9zM595.5 543l-1.5.1-2.3.6 1.6-2.6h.4c5.4-2 7.3-.8 7.5 5.1 0 3-.6 6-1 9l-.4.7c-.3-.3-.8-.6-1-1-.2-.8-.4-1.8-.4-2.7 0-2.4-.2-5 0-7.4.2-2.3-1.3-1.6-3-1.7zM560.2 548.1v-9.3c.1-.6.7-1.2 1-1.8.5.5 1.4 1 1.3 1.4-.6 4.3 2.1 8.6 0 12.9l-.4 1.5-.8-1c-.4-1-.7-2.1-1-3.7zM521.3 520.4l-.8 2c-.4-.4-1.2-.7-1.2-1a284 284 0 01.3-15c0-.3.8-.8 1.3-.9.3 0 1 .6 1 1 0 4.5 1.4 9-.6 14zM673.7 522v-8.8c0-.9.7-2.5 1-2.4 1 0 .6 1.2.6 2.1 0 4.2.3 8.4.5 12.6 0 .3-.5.7-.8 1-.2-.3-.5-.5-.6-.8-.3-1-.5-2.1-.7-3.6zM604.1 524.4c-3.1-4-1.3-8.7-1.7-13.1 0-.5 1.4-1 2.1-1.6.3.6.8 1.2.8 1.9v10.6c0 .7-.6 1.3-1.2 2.2zM809.1 544.2c.7-3.1 1-6 1.6-8.8 0-.6.8-1 1.3-1.5 0 .5.3 1.1.3 1.7l-.9 12c0 .3-.6.6-1 1-.2-.3-.5-.6-.6-1-.3-1-.6-2-.7-3.4zM613.7 487v10.8c0 .5-.4 1-.6 1.4-.4-.4-1-.8-1.3-1.3-.2-.6 0-1.3 0-1.9v-11.7c0-.6.4-1.3.6-1.9.4.6 1 1.2 1.3 1.8.2.7 0 1.6 0 2.8zM808.2 554.9c.8.2 1.4.7 2 1.1-.7.4-1.3 1-2 1-2-.3-1-1.2 0-2.1zM797.6 556.2c.1-2.5 1.5-.7 2.4-.5.3 0 .8.5.7.5-.9 1-1.8 1.1-3.1 0zM367.7 655.5H361c-8.2.5-16.3 1.5-24.3 3.5-5.1 1.3-10 3.5-15.2 4.4-2.7.5-5.2 2.4-7.5 4.1-1.6 1-2.7 1-3.5-.4-1-1.4 0-2.4 1.3-3.2 5.6-3 11.3-5.6 17.2-7.5l8.6-2.9c2.8-.7 5.6-.3 8.4-1.3 6.3-2 13.2-1.6 19.7-3.3 2.6-.7 5.5.3 8.3.5l3.1-.3c1-.1 2-.6 2.8-.3 3.4 1.2 6.6-.8 10.2.3 3.2 1 7 .8 10.4.3 3.2-.5 6 .8 9 1 3.3.3 6.5.9 9.5 1.7 5.7 1.6 11.5 2.5 17 4.4 4 1.3 8.2 2 11.9 4 1.8 1 3.8 2.2 5.8 2.3 7.5.5 13.8 5 21.1 6.4 5.8 1.2 11.3 4.1 16.9 6.3h1.4l-.7-1.2c-2.6-4.6-3-9.8-4-14.9-.1-.6.7-1.5 1.1-2.2.7.4 1.8.7 2 1.3 1.8 4.3 3.5 8.7 5.1 13l2.4 6.3c1.2 3 .8 4.4-2.2 5.6-2.8 1.1-5.7 2-8.5 3l-11.8 4c-.4.2-1 .2-1.2 0-.2-.2-.3-.8-.1-1.1.9-2 2-3.7 4.5-4.2 2.2-.5 4.1-1.7 6.2-2.3 1.3-.3 1.5-.9 1.4-2 0-.8 0-1.3-1-1.7-1.8-.7-3.3-1.9-5.4-1.6-.4 0-1 .2-1.2 0-3.8-2.8-8.7-2.8-12.9-4.7-4.1-2-8.6-3.1-13-4.6l-13.7-4.4c-2.2-.7-4.6-.7-6.6-1.6-3.5-1.7-7.1-1.9-10.8-2.7-3.4-.7-6.8-2-10.4-2.4-5.2-.5-10.3-2.2-15.5-2.2-2.8 0-5.7-.6-8.6-.3-3 .2-6.2 0-9.3 0h-6l-5 .9zM634.5 760.4l-5.3 4.4c-1.6 1.3-3.4 1.4-4.5-.4-2.6-4-7.2-3.8-10.9-5.4-.3-.2-1.3 1.3-2 2-.4.4-1 .9-1.5 1-.2 0-1-.7-1-1.2v-14s1.3-.5 1.5-.3c.4.6.9 1.3 1 2 .2 1.3.5 1.1 1.1.4 1.2-1.5 2.7-2.6 4.6-1.6 2.2 1 2.4 2.8 1.2 5.6-.6 1.3-3 2.2-1.6 3.8.7 1 2.6.9 4 1.3l2.2.9c.1-.8.4-1.6.4-2.4-.2-2.2 1.6-4.3 0-6.6-.2-.4.4-1.7 1-2.4.1-.3 1.2.2 2 .3l4.2.9 2 .3c-.7.5-1.4 1.3-2.1 1.3-2.2 0-4.1.2-3.7 3 0 .6.7 1.3 1.1 1.3 1.6 0 3.2-.3 4.9-.4l1.6.2c-.3.5-.5 1.4-1 1.6-1.5.6-3 1.1-4.6 1.1-1.7 0-2.3.5-2 2.1v2.2l.2 1.5 1.2-.8 5.5-3.2c.2-.1.9.4 1.3.7l-.8.8zm-21.8-7.9c0 1 .2 2 .3 2.9 1-.6 2-1.1 2.9-2 .6-.5 1.1-1.4 1.4-2.2.2-.5.1-1.3-.1-1.7-.2-.2-1.1-.2-1.4 0-1 .8-1.8 1.7-3.1 3zM725.2 683.2c-1-1.3-.8-2.6-.3-4 .2-.4.5-1 .5-1.4-.4-2 .5-4 2.2-4.4a10 10 0 016 1c1.9.9 1.3 3 .8 4.7-.8 2.7-.8 2.7 2 2.7h1.2c2.6-.3 4-1.8 2.8-4-1-1.8-.1-2.6.9-2.7 3.4-.6 6.8-.7 10.2-1 .3 0 .7.6 1 1-.4.2-.7.6-1.2.7l-6.4 1.7c-.8.2-2-.3-1.7 1.1.2.8.8 2 1.5 2.2 1 .5 2.4.4 3.6.5-.9 1.5-2.3 1.2-3.7 1.4-1 0-2.5 3.8-2 4.7.2.4 1 .6 1.4.7.2 0 .4-.4.6-.6l2.7-1.3c.6 1.5-.1 2.6-1.2 3.2-1.3.7-3 1.7-4.3 1.4-1.5-.5-2.5-2.2-2-4.1v-.9l-.4-2.3-1.5 1.4c-1.9 2-3.8 4-6.5 4.8-.5.2-1 .5-1.5.5-.9 0-1.8-.2-2.8-.4l2.4-1.3c1-.5 2.2-.9 3-1.7 1.2-1.2 3.5-.8 4-2.9-1.7-.1-3.3-.4-5-.4-2.5-.2-4.3.8-5 3.5-.2.6-1 1-1.5 1.5-.1-.6-.4-1.2-.4-1.8 0-1.1.2-2.2.6-3.5zm2.3-7.4c-.1 1-.4 2.2-.4 3.2 0 1.7 1.2 2.7 2.6 1.8 1.3-.8 3-2.2 3.1-3.4 0-2-2.1-1.5-3.6-1.6h-1.7zM510.3 757.8c-.5-.8-1-1.4-1-2 0-3-.2-6.2 0-9.2.2-1.5 1.2-3 1.8-4.3 0 0 .7 0 .9.2 1.1 1.5.8 3 .2 4.6-.4.8-.3 5.7-.4 6.3-.4 2.7 1.7 2.5 2.8 2 2.5-1.2 4.8-2.4 7.6-1.9.1 0 .5-.6.6-1 .6-2.2 1-4.6 1.7-6.8.8-2.6 3-3.7 5.5-3 1.9.6 3.5 3.2 3 5.1-1 3.1-2.1 6.2-3.5 9.2-.5 1-2 2.3-3 2.4-.9 0-2.1-1.4-2.8-2.4-1.7-2.7-1.6-2.6-4.5-.9-2 1.2-4.3 2-6.5 2.7-.6.2-1.4-.5-2.4-1zm16-10.4c0 1 .3 2.2-.2 3-1.2 2-.4 3.7 0 5.6.4 1.5.7 1.2 1.3.4 2-2.5 2.8-5.4 3-8.5.2-2.9-.5-3.3-3.3-2.2-.3.2-.6.6-.9 1.7zM527 651.2c1.7-2.1 3.4-3.7 6-3.3.6 0 1.1.8 1.6 1.2l-1.4.4c-1 .3-2.1.4-3 1-1.5.8-1.5 2.2-.1 3.3l4.1 3.3c1.3 1 1.4 2.2 1.4 3.7-.1 1.6-.8 2.4-2.3 2.3l-5.7-.7a9.7 9.7 0 00-6.6 1.1c-3.8 2.2-5.3 1.3-5.8-2.9 0-.5 0-1.2-.3-1.6-1.2-1.6-2-3 .1-4.8.5-.3.3-1.9 0-2.7-.3-.6-2.3-.3-1.2-1.7.8-1.1 2-1.9 3-2.8.4.5.7 1.2 1 1.3 1.3.3 2.6.2 3.8.4.7.2 1.3.8 2 1.2l-1.8.5c-1.1.3-2.3.5-3.4.9-1.5.5-1.5 1.7-1.5 3 0 1.9 1.3 1 2 1.1 1.2.2 2.3 0 3.4.1.7 0 1.4.3 2 .5-.6.4-1.3 1-2 1.1-1 .2-2.3 0-3.4 0-1.5.3-2.7 1.8-1.9 3 .5.6 0 3.2 3 1.5 3.5-2 8-1.3 12-.7.4 0 1 0 1.2-.2.2-.2.2-1 0-1.1-1.2-1.4-2.3-3.1-3.8-3.8-2.2-.9-2.5-2.2-2.3-4.6zM584.7 755.5l-.8 4.7v.8l-2.2 3.8c-1.4-.9-1.4-2.3-1.2-3.7.5-4.3 1-8.6 1.7-12.8.1-.8.9-1.7 1.6-2 .4-.2 1.5.7 1.9 1.3 1 1.8 2.4 3.5 2.4 5.8 0 .4.8.8 1.2 1.2l.5-1.4c.6-2 1-4 1.7-6 .3-.7.8-1.6 1.4-1.8.8-.2 2-.6 2 1.2l.8 15.7c0 .5-.4 1.1-.7 1.7-.3-.5-.8-.9-1-1.4-.4-1-.7-2-.8-3v-8c0-.4-.3-.8-.4-1.2l-.5 1-1.7 7.4c-.2 1.3-1 1.2-1.6.5a10 10 0 01-1.7-2.7c-.5-.9-.6-2-1-3-.5-1.6-.3-3.7-2.1-4.8-.3 2.1-1 4.3.5 6.7zM731.3 740.2c-.2 1.2.8 2.5-1 2.6-1.6.1-1.5-.7-1.5-1.8v-8c0-2.4-2.5-4-4.5-2.9-.4.2-.6 1.2-.6 1.8 0 2.4 0 4.7-1.5 7-1.1 1.8-2.4 2.4-4.1 2.1-2-.2-3.4-1.4-3.7-3.4-.3-3.1.3-6.2 1.7-9 1.3-2.6 3.6-3.5 5.5-1.7 1.6 1.5 3.2 1.4 5 1.5 3.3 0 6.6-.4 9.8.8l.7.3c-.2.2-.4.5-.7.5-1.1.4-2.3.8-3.4.9-1.3 0-2.1.4-1.6 1.6 1 2.5-.2 4.9 0 7.7zm-13.5-2c.2 0 .5.4.6.3 2.2-1 4.5-6.5 3.4-8.2a6.2 6.2 0 00-2.6-1.8c-.2-.2-1.4.8-1.4 1.3.1 2.6-2 5.2 0 8.3zM563.5 725c-.6 3.4-1 6.4-1.7 9.4-.3 1-1.1 1.6-1.7 2.4-.8-.6-1.6-1.1-2.2-1.8-.3-.4-.2-1-.3-1.5-.6-3-1-5.8-1.8-8.6-.1-.7-1-1.1-1.7-1.6-.2.5-.7 1-.7 1.5l-1 8.6c-.1 1.1-.6 2.2-1.1 3.3 0 0-1 0-1.4-.4-1.2-1-.7-1.8-.2-3.2.8-2.2.6-4.8 1.1-7.1.4-1.5 1-3 1.7-4.4 1-1.9 3.3-1.8 4.2.2.8 2 1.2 4 1.7 6v1.8c.3.7.8 1.3 1.2 2 .4-.7 1.3-1.4 1.3-2.1-.3-2.8.9-5 2.3-7.1.5-.7 1.5-1.1 2.3-1.7.4 1 1.3 1.8 1.3 2.7.2 3.7.1 7.4 0 11 0 .6-.4 1-.7 1.6-.6-.5-1.6-1-1.7-1.6 0-2 .3-4 .5-6.1l.3-3.7c-.6 0-1.1 0-1.7.4zM708.7 656.5c0 .7 0 1.4.4 1.7l8.4 6 1 1.1c-.7.4-1.5 1.3-2 1.1-1.7-.6-3.4-1.4-5-2.4-1.5-1-2.9-2.4-4.4-3.5-.6-.4-1.5-.5-2.2-.8l-.7 2.1v.8c.2 1.3-.5 1.6-1.5 1.3-.4-.1-1-.8-1-1.2l.8-10.7c0-.4.5-1 1-1.2 2.2-.8 4.4-1.7 6.7-2 3.7-.5 5.6 2 4.1 5.3-.5 1-1.5 2.1-2.6 2.6-.7.4-1.9-.2-3-.2zm3.1-3.1c-.5-1 1.2-3.5-1.4-2.9-1.4.4-2.4 2.3-3.7 3.5 1.4 0 2.8.3 4.1.3.2 0 .4-.3 1-1zM693 712.9c.8-3.8 1.2-7.4 2-11 .1-1.1 1.2-1.5 2.5-1.6 1.2 0 1.6.5 1.8 1.6.2.7.6 1.5.6 2.2l.1 3.4c.2 1.3.7 2.5 1.1 3.8l1.4-3.4 2.5-4.5c.5-.8 1.3-1.4 2-2.2.8 1.1 1.9 2 2.2 3.2.4 1.3.3 2.9 0 4.2a87 87 0 01-1.9 7.7c0 .4-.7.6-1.1.9l-.3-1.2 1.2-8.8c.1-.6.5-1.3.4-2 0-.4-.5-1-.8-1.4l-.8 1.1c-.9 2-1.9 4-2.5 6.2-.5 1.7-1.4 2-3 2-1.8 0-1.9-1.7-2-2.8-.3-2 0-4-.2-6 0-.4-.5-.9-.9-1.4-.2.6-.7 1.1-.7 1.6 0 3.6-.4 7-1.7 10.3l-.7 1.7c-.6-.5-1.5-.9-1.8-1.5-.2-.4.2-1.2.6-2.1zM694.9 674.1c.7.3 1 .6 1.3.9l1.2.7-1 1c-.4.2-1 .1-1.5.4-2.2 1.4-2.4 2.8-.4 4.6 1.8 1.5 2.2 3.3 2.1 5.5 0 1.1-.5 1.6-1.5 1.3-1.4-.4-3-1-4.3-1.7-2-1-3.7-1.5-5.5.6-.8 1-2 1.7-3.2 2.4-1.8 1.1-4.9 0-5-2 0-3.5-.8-7.1.9-10.5.2-.6.9-1 1.3-1.4.1.6.3 1 .3 1.6v8c0 1.7.9 2.3 2.5 1.3 1-.6 2-1.2 3-1.6 2.3-1 4.5-2.8 6.8-.2.1.2.7 0 1 0 0-.6.1-1.1-.1-1.5-.4-.6-1-1-1.5-1.5-1-1.3-1-3.6.2-4.9 1-1 2-2 3.4-3zM587.5 716.3c-1.6-1.1-.8-1.9-.3-3 .7-1.6.8-3.5 1.2-5.3-1.3 1.1-2.6 2.3-4 3.3s-2.8 2.7-4.6 1.4c-1.7-1.1-3.5-2.6-2.7-5.1 1-3.2 1.4-6.6 4.4-8.8 1.1-.8 2.2-1.7 3.1-.4.7 1-.4 1.5-1.3 2.3a17.7 17.7 0 00-3.6 5.6c-.3.8.2 2.5.8 2.9.9.5 2.3.2 3.4 0 .3 0 .5-.9.8-1.3l-1.2-.7-1.3-.6c.2-.5.3-1.1.7-1.4 1.6-1.3 7-.8 7.9 1a9 9 0 01.6 4.8 7.2 7.2 0 01-4 5.3zM738.3 711.2c.6 3.5-1.3 6.4-4.3 7-1.6.2-3.4.2-5-.1-.8-.2-1.8-1.4-1.8-2.2-.2-3.9-.2-7.8 0-11.7 0-.8 1.3-2 2-2 2 0 4 .3 5.9.8 3.5 1 4.2 2.7 1.9 5.6-1.7 2.1.6 1.7 1.3 2.6zm-4-6.6l-2.3-.6c-2-.6-3.3.2-3.2 2.2.1 1.1.6 2.3 1.2 3.3.1.2 1.6-.3 2.4-.7 1-.4 1.7-1.2 2.7-1.5 3-1 .6-1.8-.8-2.7zm-2.5 11.9l5.1-2.7c.2-.1 0-1.4-.3-1.5-1.1-.4-2.3-.7-3.4-.8-1.2-.2-2.7-.5-3.3 1-.7 1.5-.5 3 1.9 4zM555.2 755.3c2.8.2 5.3.2 7.9.2l1.1.3-.6.9c-1.9 1.6-4 2.7-6.6 2-2.1-.6-4.1-2-5.8 1-.4.7-2.1-.2-2-1.4 0-2.7 1-5.6.4-8.1-.5-2.2.2-4 .4-6 0-.5.6-1 1-1.4.2.4.6.8.6 1.2.2 2 .2 4.1.3 6.2l4.1-3.7a3 3 0 011.5-.6c.8-.2 2.3-.5 2.4-.2.9 1.5-.9 1.2-1.5 1.7l-3.7 3c-.7.6-1.3 1.7-1.3 2.4.1.8 1 1.5 1.8 2.5zM655.9 705.5c0-1.7.2-2.9.3-4.1.9.5 1.7 1.4 2.6 1.4 2.5.2 5 0 7.6.2.5 0 1 .6 1.4 1l-1.3.6-6.8 1c-.5 0-1.2.3-1.2.6-.1.8 0 1.6.1 2.4l1-.4c1.9-1.3 4-1 6.3-1 .3 0 .6.3 1 .4-.3.3-.6.8-1 .9-1.7.5-3.6.7-5.3 1.3-2.4.7-3.3 2.1-3 4 0 .4.3.9.6 1 .3 0 1-.3 1-.4 0-1.9 1.8-1.3 2.6-2 .4-.4 1.5 0 2.4 0l-1.4 1.9c-1 1-1.9 2.2-3 2.9-1 .6-2.7 1.3-3.3.9-1-.8-2.5-2.9-2.1-3.5 1.2-2 .3-4.1.7-6 .1-1 .5-1.8.8-3.1zM567.7 672.4c-3 1.2-6.1 1.8-9.2 2.6-.6.2-1 1-1.6 1.4.7.3 1.7 1.2 2 1 2-1.4 4.3-.5 6.5-.7.5 0 1 .2 1.5.4-.5.4-1 1.1-1.6 1.2a67 67 0 01-6.8.9c-1 0-1.8 0-2 1.4 0 1.4-.3 2.9-.5 4.3.6-.1 1.4 0 1.7-.4 1.6-1.6 3.5-2.1 5.6-1.9.4 0 .7.3 1 .5l-.6.6c-2.2 1.3-4.4 2.8-6.8 4-1.7.8-3.3-.2-3.5-2-.2-1-.1-2 0-2.9l.8-6.8c.2-3 .6-3.4 3.5-3.6l8.1-.8c.6 0 1.3.3 2 .8zM639 708v-6.3c0-.4.7-.8 1.1-1.2.2.4.5.8.5 1.3 0 1.6.5 1 1.3.3 3.1-2.2 3.1-2.2 5.2.1 1.8 2 1.6 3.7-.7 5.6L645 709c.6.5 1.1 1.2 1.8 1.4 1.5.5 3.1.7 4.7 1 .4.2.7.8 1 1.2l-1 .4c-2 1.1-4 1-6.1 0-2.5-1.2-2.5-1.1-4 1.5-.3.4-.9 1-1.2.9-.4-.1-1-.7-1.1-1.2V708zm3.8-1.7h.8c1.5 0 2.3-.9 2-2.4 0-.3-.5-.8-.9-1-1.8-.7-1.3 1.3-2 1.9-.3.2-.3.7 0 1.5zM633.9 663.1a7 7 0 01-.7 1.7c-.6-.5-1.7-.8-1.8-1.4-.5-1.8-.7-3.7-1-5.6l-.8-6.8c0-.5.3-1 .5-1.5l1.2 1.2c1.7 2 .5 4.3.9 6.4 0 .3.3.5.5.8l.3-.7c.6-1.6 1-3.2 1.7-4.8.2-.5.8-1 1.2-1 .4-.1 1.2.4 1.3.9l1.8 6c.3 1 .9 2 1.3 3 .4-1 1-2 1.1-3 .2-1.3 0-2.7.1-4.1.1-1 .5-2.1.9-3 .1-.4.7-.6 1.1-.8.2.3.5.7.5 1-.5 4-1 8-1.7 12-.4 1.7-2 2-3 .3-1-1.5-1.5-3.3-2-5-.6-1.6-1-3.3-1.4-4.9a8.7 8.7 0 00-1.3 5c0 1.3-.5 2.6-.7 4.3zM668 649.3c1.4 3.6.5 6.3-2.6 7.8-1.9.8-.3 1.4 0 1.4 1.9.1 3 1.4 4.3 2.7l2 1.8c-1.2 0-2.5.2-3.7-.1-.7-.2-1-1.3-1.8-1.7-1.1-.6-2.4-1-3.6-1.5l-.8 3.3c0 .4.2.9 0 1.2-.2.5-.7.9-1 1.3l-1-1.4c-1.2-4.4-1.2-9-.3-13.3.5-2.8 5.5-3.6 8.5-1.5zm-2 4.9c.3-.7.7-1.4.9-2.2.4-2-1.6-1.6-2.4-2.5-.6.8-1.4 1.5-1.8 2.4-.3.7 0 1.6 0 2.5.1 1.6.8 1.4 1.8.5.3-.2.8-.2 1.6-.7zM661.2 741.3c-.8-.1-1.8-.4-1.8-.8 0-2.3.1-4.7.3-7 0-1 .5-1.9.4-2.7-.5-3 .5-4.9 3.3-6.2 2.5-1.3 5-1.2 6.4 1.2.6 1.1.7 2.7.4 4-.2.9-1.4 1.7-2.4 2.3-2.1 1.3-2.2 1.3-.6 2.9 1 1 2.4 1.8 3.5 2.7.3.2.5 1 .4 1-.3.3-1 .7-1.2.6-2.5-1.3-5.9-1.4-6.4-5.1 0-.3-.5-.5-.8-.7-.3.3-.8.6-.8 1l-.7 6.8zm1.5-13.4c-.4 1.5.4 2.5 1.7 2.6 1 0 2.3-.2 3.2-.8 1.2-.6 1.7-1.9.5-3-1-1-2-2.3-3.5-.7l-2 2zM717 706.3a21 21 0 011.7-3.9c.4-.5 3 .3 3.3 1.2 1 4.3 3.1 8.3 2.5 12.9 0 .6-.4 1.1-.6 1.7-.6-.4-1.3-.6-1.6-1-.5-.7-.6-2.2-1-2.3-1.4-.3-2.9-.2-4.3 0-.3 0-.7.5-1 1-.3.5-.4 1.2-.8 1.6-.7.8-1.9 2-2.5 1.8-1.7-.5.2-1.6 0-2.5-.5-4.1 2.8-6.7 4.2-10.5zm2.5-1.2l-1.7 5.6c0 .4.4 1.4.7 1.5 1 .1 2.2 0 3.3-.1 0-.2 0-.5-.2-.6-1.1-2.2.5-5-2.1-6.4zM564.1 703.6l-.6 3.8c0 .7.1 1.5-.2 2-.7 1-1.7 2-2.5 2.9-1.3-1.2-.6-2.3-.2-3.6.7-2 .8-4.2 1.2-6.3.2-.9.5-1.9 1-2.5 1.7-2 2.8-1.7 4.1.5 1.3 2 .7 4.2.9 6.4 0 .4.2.7.3 1.1l.5-1.2.8-3.5c.2-1 0-2 .5-2.7.4-.7 1.5-1.5 2-1.3 1.7.4.2 1.4 0 2.1-.4 3.5-1 7-1.7 10.3-.2.8-.3 2.6-2.1 2.4-1.8-.2-2-1.5-2-3v-8c0-.7.3-2-1-1.7-.4.1-.5 1.4-1 2.3zM699.1 655.5c.4.3.5.8.4.8a32 32 0 01-3.6 1.7c-.5.2-1.1-.1-1.6 0-1 .3-2.6-.8-2.7.9 0 1 1 2.2 1.8 3 .9.9 2 .5 2.8-.5l.6-.6 1.2-1c0 .7.4 1.5.2 2-.7 1.7-3.3 3.1-5 3-1.8-.1-3.7-1.9-4.2-4-.7-2.8-1.2-5.7-1.7-8.6-.2-1 1.5-3 2.2-2.6 2.4 1.2 4.9.6 7.3.8.5 0 1 .6 1.5.9l-1.6.8c-1.4.3-2.9.5-4.3.9-.4.1-.9 1-.8 1.4 0 .4.7 1 1.2 1h6.3zM674.5 682.6c-.3 1.3-1.2 2.5-.8 4.1.1.7.2 1.6 0 2.1-.5.9-1.3 1.5-2 2.3 0-.8-.5-1.9-.2-2.4 1.1-1.6.4-2.7-.8-3.5-1.2-.8-4.9 0-5.4 1.2-.5 1.1-.8 2.4-1.2 3.7-.2.3-.7.9-.9.8-.4-.1-1-.5-1.1-1-.3-.7-.5-1.7-.2-2.4 1.3-3.7 2.7-7.3 4.2-11 .2-.4.6-.8 1-1.2 1.8-2 3-1.7 4 .9a35 35 0 003.4 6.4zm-8-.9l-.3.6c.8.8 1.2 1.3 2.7.7 2-.9 1.5-2.1 1.3-3.2 0-1-.8-2-1.3-3l-1.4 2.3c-.3.7-.4 1.5-1 2.6zM692.1 758.7c.5-2.7.8-5 1-7.5l.1-.4c1.4-.1 2.8-.5 4-.3.8 0 2 1.2 1.8 1.7-.7 4.1 2.3 7.5 2.2 11.5 0 .8-.4 1.3-.4 2-.1 1.5-.9.4-1.1 0-.3-.5-.5-1.2-.6-1.8 0-1.5-.6-2.4-2-2.5-1.5 0-3.1-.3-3.5 1.7 0 .3-.4.5-.4.7 0 2-1.2 3-2.8 3.6 0-1.5-.2-3 0-4.5.3-1.4 1-2.7 1.7-4.2zm5.3-4.5l-1-.4c-1.1 1.2-1.9 2.6-1.4 4.2.2.7 1.2 1.2 1.9 1.7l.5-1.7v-3.8zM646.6 739.4c-1.1-.4-2.3-.7-2.4-1.2-.5-1.8-1.4-4-.9-5.5.7-2 .7-4 .7-6 0-1.7.9-3.1 2.4-2.5 2.9 1.3 5.8.5 8.6.8l.7.2c-.2.2-.4.5-.7.6l-6 1.7-1.6.8c.7.3 1.3.8 2 .9h4.1c.5 0 1 .3 1.5.4-.5.5-1 1.2-1.6 1.3-1.3.1-2.8.2-4.2 0-1.6-.4-1.7.7-2.2 1.7-.6 1.3-1 2.6.3 3.7.4.3 1.2.2 1.7.1.4 0 .6-.5 1-.8 1-1.1 2.3-2.1 4-1.9-.9 1-1.6 2.1-2.6 3-1.3 1.1-2 3.2-4.8 2.7zM631.3 725.8c.6 1.3-1.3 3.2 1.1 3.4 1.7.1 3.5 0 4-2.2.3-1.4.7-2.9.8-4.3 0-1.5 1-1.2 1.7-1 1.6.1 0 .7.2 1 .5 2.2-1.7 4.9 1.2 6.6 0 0-.1.7-.3.7-1.8 1-2 2.6-2 4.4.1 1 .3 2 0 2.9-.2.5-1 .8-1.5 1.2-.3-.4-.8-.9-1-1.4 0-1.1-.2-2.3.1-3.4.5-1.6.8-2.7-1.4-2.8-2.7-.2-3.6.4-3.7 2.6-.3 3-1 5.2-1.5 4.8-1.9-1.3-1-3.3-1-5-.3-3.6.6-7 1.7-10.3.1-.5.9-.9 1.3-1.3.1.5.3 1 .3 1.6v2.5zM575.2 682.8c-2.6-.3-5.1-.6-5.1 3 0 .2-.4.4-.6.6l-2.3 1.1c0-.7-.2-1.6 0-2.3l4-11c.4-1.5 1.4-1.7 2.7-1.8 1.7-.3 1.5 1.3 2 2 .5.5 0 1.6.4 2.4.3 1 .8 2.1 1.5 2.6.7.4 2 0 2.9 0 .4.1.8.5 1.2.8l-.8.7c-1.6.8-3.2 1.4-1.5 3.6.4.6.1 1.7 0 2.5-.1.5-.5 1-.8 1.5l-.9-1.5-2.7-4.2zm-.7-7.4l-1.3-.3a55 55 0 00-1.2 4.5c0 .4.1 1.1.3 1.1.4 0 1 0 1.4-.3 1.5-1 .6-2.7.8-5zM634 690a14 14 0 012.2-12.1c.4-.5 2-1.6.6-3.2-.7-.7 1.7-2 2.8-1.1 2 1.8 4.1 3.6 3.7 7-.5 3.7-2.2 6.6-4.4 9.2-1.2 1.3-3 1.5-4.8.2zm5.8-6.1l.8-4.8c0-.5-.3-1.4-.7-1.5-1-.3-1.5 0-2 1.2-1 2.3-1.7 4.5-1.5 7 0 .6.3 1.3.5 1.9.6-.4 1.4-.7 2-1.3.4-.4.6-1.1.9-2.5zM757.4 711.6c-2-2.3-3.9-4.3-5.5-6.4-.3-.5.1-1.5.2-2.3.6.3 1.3.5 1.7 1 .8.9 1.4 2 2.1 2.9 1.3 1.7 2.3 1.6 3.4-.3.9-1.5 1.6-3 2.6-4.4.3-.6 1.1-1.5 1.4-1.4 1.2.4.6 1.2.3 2.1-1.4 4.2-2.6 8.5-3.8 12.8-.3 1.3-.2 2.7-.6 4-.2.7-1 1.3-1.6 2-.4-.6-1-1.1-1.3-1.8-.5-1 .2-4.4 1.3-7.1 0-.3 0-.6-.2-1zM567.7 653.8l-.5-4.4c0-.4.3-1 .7-1.2.2 0 1 .2 1 .5.5 1.1.9 2.3 1 3.5.3 2.9 1.3 5.8.4 8.8l-.7 1.3c-.5-.3-1.2-.5-1.3-.9-.6-1.1-1-2.4-1.4-3.6-.7-2.4-1.6-4.5-3.5-6.2-.4-.4-1-.6-1.5-1-.3.7-.9 1.2-.9 1.8V663c-.3.6-1 1.1-1.4 1.7-.4-.6-1-1-1.1-1.7-.2-1.2-.5-2.8 0-3.7 1.5-2.4.7-5 .6-7.3 0-1.1-1.2-2.5.4-3 1.3-.3 3.1-.3 4.2.5 1.5 1 2.4 2.8 3.8 4.5l1 .3-.8-.5zM679.6 755.5c-.5-1-1-1.6-1.6-2.2.9-.4 1.7-1 2.5-1.1 2.1-.2 4.2-.1 6.3 0 .5 0 .9.3 1.3.6-.4.3-1 1-1.3 1-1.7-.6-3.2 2.2-4.9.2-.2.6-.5 1.3-.5 2 0 1 .1 2 1.7 1.5l4.6-1.1c.3-.1.8.1 1.1.2-.2.3-.3.8-.6 1-1.6.7-3 1.8-4.7 2-2.2 0-2.4 1-2.2 2.8v2c0 .5.3.8.4 1.2.5-.2 1-.2 1.4-.5.5-.3.8-1 1.2-1.1.8-.4 1.7-.6 2.6-.8-.4.6-.6 1.3-1.1 1.8-1.2 1.3-2.4 2.7-3.8 3.8-1.3 1-3 0-3-1 0-4-1.2-8 .6-12.3zM600.2 735.8c-.7-2.6-1.1-5-1.5-7.4 0-.3.4-.8.4-1l-.6-3.9 3.7-.2h6.8c.3 0 .7.2 1 .4l-1 .4c-2 .9-4 2-6 2.5-1.2.3-1.4.6-1.4 1.6 0 1.4 1 1 1.8 1h4.7l1 .3c-.3.5-.6 1.1-1 1.2-1.3.2-2.7.2-4.1.2-2.7 0-1.2 2-1.5 3-.4 1.8 1.1 1.2 2 1.2.6 0 1.2-.5 1.8-.7l1.7-1c-.2.8-.2 1.8-.7 2.3a8 8 0 01-3 2c-1.6.5-3-.4-4.1-2zM671.2 760.6c1.5.5 2.7 1 3.9 1.7l1.1.8c-.4.3-.9.8-1.4.8-2.6.4-4.7-.5-6.6-2.4-1.7-1.7-2.5-1.3-3 1 0 .4 0 .9-.2 1.2l-1.1 1c-.2-.4-.2-.8-.4-1-1.6-2.7-.8-5.4-.5-8 0-.6.6-1 .5-1.5-.7-3.3 2.4-2.8 3.9-3.7 1.2-.6 3-.3 4 1.4s1.2 3.2-.2 4.9c-.5.5-.8 1.4-1.2 2-1 1.1.6 1.1 1.2 1.8zm-.9-6.4c-.5-.7-1-2-1.6-2-1 0-2.2.6-2.7 1.4-.5.9-.4 2.2-.6 3.3 1 .1 2 .5 2.8.2.8-.4 1.4-1.3 2.1-2.9zM545.7 757.2c-1 1.4-1.7 2.8-3 3.3-3 1.3-7.2-2.1-7-6 0-2.2.7-4.6 1.6-6.8.9-2.2 5-3.4 7.2-2.3.5.3 1 1 1.2 1.6 1 3.2 1.5 6.5 0 10.2zm-1.7-8c-2-2.7-2.7-2.8-4.4-.8-1.8 2.2-1.7 5.5-.8 8.3.6 2.1 1.9 1 2.8 1.3 1.4.3 1.2-.7 1.7-1.6 1-2.1.5-4.3.7-7.3zM587.5 685c-1-.6-1.3-2.3-2.3-.7-.3.3-.3.7-.5 1l-1.3 2.3c-.4-1-1.5-2.5-1.1-3.2 1.1-2.5.7-5 .6-7.3 0-2 .9-2.7 2.4-3.3 1.3-.4 2.5-1 3.8-.7 2.5.4 2.5 2.1 2.4 4-.1 1.8.4 3.8-2.5 3.8-.3 0-.6.4-1 .6.4.3.5.8.9 1 1.2 1 2.5 1.6 3.6 2.5.6.4.8 1.1 1.2 1.7a32.9 32.9 0 01-6.2-1.8zm-1.5-5.8h1.6c1.5 0 2.3-.9 2.2-2.4 0-.6-.4-1.2-.5-1.8-1 .4-2.1.6-2.8 1.3-.6.5-.7 1.6-.5 3zM551.4 674.3c.7 3.8-2.4 4.4-4.5 5.7a6 6 0 01-3 .9c-2 0-2.5 1.1-2.5 3 0 .7-.3 1.5-.5 2.2 0 .2-.4.4-.6.6l-.5-.8c-1-1.6.8-4.1-1.6-5.4-.2 0-.2-.7-.1-.7 2.1-1.5 1.5-3.7 1.7-5.7.1-.6 1-1.6 1.6-1.6 3.3.2 7-1 10 1.8zm-9 2.8c0 .1-.1.3 0 .4 1.4 1 6.7-.3 7.3-1.9 0-.1-.3-.6-.5-.6-2.2 0-4.4 0-6.6.2l-.3 1.9zM710.4 682.8l-2.6 2.6c-2.5 2.4-5.7 3.1-7.5 1.3-1.7-1.8-1.4-4-.4-6.3 1.1-2.6 4.6-5.5 7-5.4 4.6 0 6 2.1 4 6.5 0 .4-.2.7-.5 1.3zm-8.7.2c2.4 2.4 2.5 2.4 5 .1.7-.7 1.8-1.4 2.2-2.3.3-1 .3-2.6-.3-3.2-.7-.6-2-1.7-3.4 0-1.2 1.6-2.8 2.9-3.5 5.4zM524.3 702.7c.1-2.7 1.6-4.5 3-6.2 1.4-1.9 3.3-1.8 4.8 0 .8 1 1.7 2.4 1.6 3.6 0 3.3-.6 6.6-3.2 9.2-1.2 1.2-2.5 1.7-4 1-1.4-.6-2.7-1.6-2.8-3.3 0-1.4.3-2.7.6-4.3zm2 .7c0 .8-.2 1.7 0 2.5 0 .7.4 1.4.6 2.1.8-.3 1.8-.5 2.5-1 2-1.7 2.1-4 1.9-6.4-.1-.7-.7-1.8-.9-1.8-.9.2-2.3-1-2.6 1 0 1-1 1.8-1.6 3.6zM699.3 738.8c.4-.8.8-1.4.6-1.8-1.3-3.3.6-6.6 0-9.9-.1-1.2.5-1.4 1.5-1.3 2 .2.3.9.3 1.4v3.4c-.4 1.6.6 2 1.8 2.5 2.2 1 3.7.3 4-2 .2-1.6.5-3 1.5-4.3l.3 4.5v9.7c0 .6-.4 1.2-.6 1.8-.7-.5-1.8-.9-1.9-1.4-.2-1.4 0-2.8 0-4.2 0-1.2.2-2.3-1.7-2-1.5 0-3.2-.3-3.4 1.9v3.3c-.2.8-.7 1.5-1 2.2-.5-.6-1-1-1.2-1.7-.3-.6-.3-1.3-.2-2.1zM575.2 733.2l-1.5 2.3-1 1.3c-.5-.7-1.6-1.5-1.5-2 1-4.4 2.2-8.7 4.8-12.4.3-.6 1.5-.9 2.1-.7.6.2 1.3 1 1.5 1.7.2 1 0 2 0 3 .2 1.7.7 3.4.8 5.1a9 9 0 01-.1 3.3c-.2.8-1 1.4-1.6 2-.3-.6-.7-1.3-.8-2-.1-1.6-.7-2.6-2.7-1.6zm1.4-2.3c2.1-1.4 1-3.5 1.3-5.4l-1.3-.5c.4 1.9-2.1 3.5 0 6zM584.5 723c1-.7 1.7-1 1.9.3.2 1.6 1.9 2.4 3.2 1.7.7-.4 1.8-.5 2.4-1 .8-.8 1.2-.5 1.5.1.2.5.3 1.4 0 1.7l-4.4 3.4-1 1 1.2.7c1.6.8 3.7.5 4.9 2.3l.4.9-.7.2c-1.2-.2-2.3-.6-3.5-.6-2-.2-4.4-1.4-5.5 1.6 0 .2-.7.5-.8.5-.4-.4-1.1-1-1-1.2 1.8-3.6-.1-7.7 1.4-11.5zM604 762c-1.2 1.2-2.2 2.7-3.7 1.8a4.1 4.1 0 01-2.1-3.7c-.1-4 1-7.5 2.5-11.1.7-1.6 1.5-2.1 3-2 1.5.1 2 1 2.3 2.4.6 2.8.3 7-1.5 11.3l-.5 1.4zm.2-7v-5.4c0-.2-.7-.5-.9-.4-.5.4-1.3 1-1.4 1.5-.5 3.3-.8 6.7-1 10.1 0 .2.5.6.8.6.3 0 .7-.4.8-.7.6-1.6 1.1-3.2 1.7-5.6zM531 729.9c-.8 1.5-1.3 3.1-2.3 4.3-.9.9-2.3 1.7-3.5 1.7a3.2 3.2 0 01-3-2.7c-.2-2.4-.2-4.9.2-7.3.5-3.5 3.4-4.6 6.4-5.1 2-.4 4 2.8 3.3 5.4a31 31 0 01-1 3.6zm-1.4-2v-1.6c-.2-1-.1-2.6-.7-2.9-1.3-.6-2.7 0-3.6 1.2-1.4 1.7-1.6 6.5-.2 8.1.6.8 1.3 1.5 2-.1.6-1.5 1.4-2.8 2.5-4.7zM540.8 700.6c-.3.9-.9 1.9-.6 2.2 1.1 1.4 2.5 2.7 3.8 4 1.5 1.4 2 3 .9 4.8-.7 1-4.5 2.1-5.6 1.4a8.4 8.4 0 01-2-2 9 9 0 01-1.5-2.6c1.3-1.1 1.7.6 2.5 1.1.3.2.9.1 1.1.3 1.2 1.2 3 1.3 3.6.2.7-1.1-.4-2-1.8-3-1.9-1.3-4.4-2.6-4-5.8.1-.5.1-1 .4-1.5.8-1.4 8-4 9.4-3.4.5.1.8.7 1.2 1.1l-1.4.6-6 2.6zM674.5 703.8c-1.2 1.7-1 3-.2 4.4.8 1.3 1.2 2.8 2.2 3.8 1.6 1.6-.7 2.3-.5 3.5-1.2-.3-1.6 1.5-3.3.6a22.6 22.6 0 01-6.4-4.9c-.2-.2-.1-.7-.2-1 .5-.2 1-.4 1.4-.2l4.4 2.6c.5.2 1.2 0 1.8.1-.2-.5-.3-1-.6-1.4-1.6-2.6-3.1-5.2-1-8 1-1.6 2.5-2.7 3.9-3.9.4-.3 1.3-.3 2-.2.5.1 1 .6 1.5.9-.4.4-.9 1.1-1.2 1-2-.3-2.6 1.3-3.8 2.7zM684.7 662.3c-2.7-.5-5 .6-7.3-.8-1.4-.8-1 1-1.2 1.9 0 .5-.3 1-.5 1.4-.4-.4-.9-.7-1.1-1.2-.4-.8-.8-1.7-.9-2.6v-10.5c0-.6.4-1.1.5-1.7.4.6 1 1 1.2 1.7.3 1.2.7 2.5.8 3.8.2 1.9.7.8 1.3.3l3.6-2.5c.4-.2 1 0 1.6.1-.2.4-.3.9-.6 1.2l-4.2 4.2c-.4.5-.5 1.2-.8 1.7l1.6.4 6.4 1s0 1-.4 1.6zM697.4 731c-.4 3.2-3.4 2.8-5.1 4.1-.8.6-2.5.4-2.9 1-.6 1.2-.5 2.8-.8 4.3l-.3 1.5c-.4-.3-.8-.5-1-.9-1.4-2.4-1-5-.6-7.5a10 10 0 00.1-3.4c-.3-1.8.6-3.3 2.2-3.4 2.7-.2 5 .7 7.4 1.6 1.6.5.8 1.4 1 2.6zm-3.8.8l2-1.2c-.6-.5-1-1.2-1.7-1.3a13 13 0 00-3.8 0c-.4 0-1 .7-1.1 1.1-.4 2.6 0 3 2.7 2.2l2-.8zM516.9 680.9c-.6 1.2-.5 2.5-1 3.6-.1.6-1 1-1.7 1.5-.2-.6-.7-1.1-.7-1.6 1-5 2.1-10 4.7-14.5.8-1.4 1.9-1 2.6.1.4.7.5 1.5.6 2.3l1.4 10.8c0 .4-.3 1-.7 1.4a3 3 0 01-1.4.6l-.4-1v-.9c.7-2.8-1.4-2.3-3.4-2.3zm3-3.4c.1-2 .3-4 .3-6.1 0-.2-.5-.6-.8-.6-.3 0-.7.4-.8.6l-.9 5.1c-.2 1.6-.1 1.7 2.2 1zM742.6 727.7c3 .4 4 1.2 4 3.6 0 4.2-2 7.5-5.1 10-.9.8-2.7.7-3.9.4-.6-.2-1.3-2-1.1-2.8 1-4.1.8-9 6-11.2zm1 6.6c.4-1 1-2 1.1-2.9 0-.7-.7-1.6-1.3-2.1-.3-.2-1.7.3-1.8.8-1 2.8-1.8 5.7-2.6 8.6 0 .3.6.8 1 1.2.2-.2.5-.5.6-.8 1-1.4 1.7-2.9 3-4.8zM525.4 674.1c1.6-2.4 3.7-1.8 5.7-1.4 1.2.2 2.4 1.3 3.6 1.3 2.1.1 2.5 1.8 2.4 3-.1 1-1.3 2.3-2.3 3-.9.6-2.3 1-3.4.8-3-.4-4 .7-3.6 3.6.1.5-.7 1-1.2 1.6-.4-.5-1.2-1-1.2-1.6 0-1.5.2-3 .5-4.4.3-2 1-3.8-.5-5.9zm8.9 3.4l.4-.6c-1-1.8-4.8-2.7-6-1.3-.5.5-.7 1.4-.7 2.2 0 .1 1 .6 1.6.5 1.3-.1 2.6-.5 4.7-.8zM598.9 649.8c1.3 4.6 3.4 8.8 2.7 13.5 0 .5-.2 1-.4 1.5-.4-.5-.9-1-1.2-1.6-.2-.3 0-.8 0-1.3.1-1.3 0-2.6-1.5-3-1.6-.5-3 .1-4 1.6-.3.6-.2 1.4-.5 1.9-.4.4-1.1.7-1.6.6-.3 0-.8-.9-.7-1.3l2.3-10c.5-2.4 2.2-3.2 4.9-2zm-3.2 4.4l.6 3c.8-.4 2.4-.7 2.4-1 0-1.6-.4-3.2-.7-4.8 0 0-1-.2-1 0-.6.6-.9 1.3-1.3 2.8zM646.6 662.3c-.3-1-.8-1.4-.8-1.8-.2-3.7 1.3-7 3-10.1 1.2-2.2 2.2-2.2 4.4-.8.4.2 1 .6 1 .9 0 3.7.3 7.4-1.2 11-1.3 2.9-3 3.4-6.4.8zm3-7.7c-.5 1-1.1 2-1.2 2.9 0 1.4.4 2.8.8 4.2 0 .2.6.5.9.5.2 0 .6-.4.7-.7.6-3.3 2.2-6.3 1.7-9.8 0-.4-.4-.9-.6-1.3-.4.4-.8.8-1 1.2l-1.4 3zM623.9 709.5c0-2.4 3-4.2 1-7-.1 0 1.4-1.8 2.4-2 1.7-.4 3.6-.3 5.4 0 2.9.2 3.3 1.5 2.3 4.3-1 2.7-3.2 3.6-5.4 4.4-2.2.8-3.5 1.9-3.4 4.4 0 .4-.2.7-.3 1.1-.4-.3-1-.6-1.2-1-.3-1.3-.4-2.7-.8-4.2zm9.1-4.4c.6-.7 1.8-1.4.1-2.1-.5-.3-1.2-.3-1.8-.5-3.3-1-4.6 0-4.3 3.5.1 1.4 1 1.4 1.7 1.1 1.3-.4 2.6-1 4.3-2zM746.4 716.3c-1.1.5-2.1.6-2.8 1.1-.9.8-1.5 1.3-2.3.1-.7-.8-2.4-1.3-1-3 .6-.7.3-2.1.4-3.2l.8-8.5c.1-.5.9-1 1.3-1.5l.4 1.5c1 2.4 1.6 4.8 0 7.3-.2.5 0 1.4 0 2 0 1.7-.6 3.7 2.1 1.2 1.4-1.2 3.9-1.3 6-1.8.3-.1 1 0 1 .2 0 .4 0 1.2-.2 1.4l-5.7 3.2zM521.3 696.8c1 4.8-1.2 6.9-5.6 6.2-.4 0-1.3.6-1.3 1v4.2c0 .5-.3 1-.5 1.5-.4-.5-1-1-1.2-1.6-.2-.6 0-1.4 0-2v-6.4c0-1.7 0-3.4.2-5 2.2 0 4.4-.3 6.6-.1.6 0 1.1 1.3 1.8 2.2zm-3.1 3.6l1.2-2.8-2.6-.6h-.4c-.7.3-1.9.4-2 .8 0 .8 0 2 .5 2.7.7 1 1.8 1.2 3.3-.1zM512.7 730c.3-2-.5-3.8.7-5.6 1-1.5-.2-2.7-2.8-3.7-.5-.2-.9-.7-1.3-1l1.7-1.5c1.5 1.8 3-.2 4.4 0h5c.6 0 1 .6 1.6.9-.4.5-1 1.6-1.2 1.5-4.6-.7-4.9 2-4.9 5.5 0 2.4-1 4.9-1.6 7.3 0 .3-.6.6-1 .9-.2-.3-.6-.6-.6-.9v-3.3zM684.5 715.9c-.6-2.6-1.3-5-1.3-7.4 0-2.4.4-4.8.7-7.2 0-.3.6-.6 1-.9.2.4.6.8.6 1.3v8.8c.1.6.5 1.2.7 1.8l1-1.3c2.1-3.2 3.7-6.5 3.5-10.4 0-.4.6-.7.9-1 .2.2.7.4.7.7.7 6.4-2 11.5-6.2 16-.2.2-1-.1-1.6-.4zM551 651.5c-.2.9-.2 1.6-.2 2.3 0 1.3-.1 2.4 1.8 1.3.7-.5 1.8-.4 2.8-.4.4 0 .8.3 1.2.5-.3.3-.5.7-.9.8-1.2.5-2.5.7-3.7 1.2-.8.4-2 1-2 1.7 0 1.2.5 2.5.9 3.8l.8-.1c1.1-.8 2.5-1.4 3.2-2.5.5-.7.4-1.6 1.5-1 .1 0-.1 1.4-.6 2-.8 1-1.8 2.2-3 2.8-2.2 1.4-4.2.3-4.5-2.2-.3-2-1.2-4.2-.6-5.9.7-1.9 1.4-3.6 1.5-5.7 0-.5 1.5-1.3 2.2-1.3 1.2 0 2.3.6 3.4 1l-.5.6-3.3 1zM605.9 652c.4 2.8-.6 5 .7 7.4.7 1.3.8 1.4 2 .7a24 24 0 013.7-2.1c1-.4 2-.6 3-.8.2 0 .6.5.7.8.1.2 0 .6-.2.7l-6.6 4.4c-2.4 1.4-4 .8-5-1.8-.2-.6-.7-1.3-.7-1.8.3-3.5.5-7 1-10.5 0-.5 1-.8 1.5-1.2.2.6.7 1.2.7 1.7 0 .7-.5 1.4-.8 2.6zM605.7 673.5c-.2.6-.5 1.4-.9 1.4-2.5 0-2.7 2.4-3.8 3.8-.2.3.5 1.4.9 2 1.1 1.6 3.5 2.4 3.3 5-.1.6.5 1.7.2 2-.9.7-2.1 1.7-3 1.5-1.6-.3-3.1-1.3-4.4-2.3-.6-.5-.7-1.7-1-2.6l2 1.2c.8.4 1.6 1 2.4 1.3.6.1 1.3-.2 2-.4l-.7-1.4c-.6-.8-1.4-1.4-2-2.1-2.5-3-2-7 1-9.2 1.1-.9 2.4-1 4-.2zM625.4 687.7c.4-2.4-.6-4.4.7-6.5 1.1-1.6-1-2.2-2-2.7s-2.5 0-3.7-.2c-.4 0-.6-.6-1-1 .3-.2.6-.6.9-.6h13.5c.2 0 .5.3.8.5l-.7.3c-1.3.6-2.7 1.6-4 1.6-2.1 0-2 1-2 2.6v7.1c0 .5-.3 1-.5 1.4l-1.2-1.2c-.3-.3-.5-.6-.8-1.3zM704.8 758.7c.3-2.2.2-4.2.3-6.1 0-.5.7-.8 1.1-1.2l.6 1.2c.8 1.4-.2 2.9 0 4.3v5c-.4 2.7 1.2 1.3 2 1.2l7.4-1.6s.3.6.2.9c-1 2-3.2 1.2-4.6 2-.5.3-1 .3-1.5.4-6.5 1.2-6.8 1-5.5-6.1zM543.8 662.9c-2.2 1.8-4.3 1-6.5.7-.3 0-.6-.6-.9-.9l1-.4 3.4-.9c2.5-.5 2.9-1 1.4-3-.9-1.2-2.1-2.2-3.2-3.3-1.4-1.3-1.3-2.6-.3-4 1.3-1.9 3.5-3 4.9-2.4.2.1.4.4.4.6 0 .4-.2 1-.5 1-.5.2-1.2 0-1.6.1-2.3 1.2-2.4 2.5-.7 4.4 1.1 1.2 2 2.6 3 3.9 1 1.3 1 2.7-.4 4.2zM577.7 664.6a58 58 0 01-1.4-9.4c-.1-2.3-.8-3.4-3.2-3.1-.3 0-.7-.3-1-.4.3-.4.6-1 1-1.1 2.3-.5 4.5-.8 6.8-1 .4 0 .9.3 1.3.4l-1.4.6c-2.8 1.5-3 1.7-1.8 4.3 1.4 3.3.9 6.3-.3 9.7zM553.3 701.2v-.8c1.1-.5.1-2.9 2-2.4.3 0 .2 2.1.2 3.2a59.6 59.6 0 01-1.5 11.6c-.1.4-.8.7-1.2 1l-.3-1 .8-11.6zM587.2 662.3c-.2 1.1-.3 2-.6 2.6 0 .3-.3.5-.5.6-.2-.2-.6-.5-.5-.8.3-2.7-.5-5.3.6-8 .8-1.9.2-4.2.2-6.3 0-.3.4-.6.7-.9.3.3 1 .7 1 1-.3 3.7.8 7.6-.9 11.8zM725.2 753.6c-.4.7-.5 1.2-.7 1.7 0 .3-.3.7-.4 1l-.6-.6c-.2-1.2-.7-2.4-.5-3.5 0-.7 1.1-1.2 1.8-1.8l.6 2.1c0 .3 0 .6-.2 1zM727.3 757c-.5-2 .1-3.7 1.3-5 .3-.4 1-.4 1.6-.6v1.4c-.9 1.5-1.8 3-2.9 4.2zM604 710.4c1-.8 1.7-1.1 1.9.2 0 .3-.4.7-.6 1l-2.6 3c-.4-1.6-.4-3 1.3-4.2zM657.8 751.5c-.2.9-.1 1.6-.2 2.3 0 .3-.5.6-.7.8-.3-.3-1-.5-1-.9-.1-1.5-.1-3.1 2-3.3.1 0 .4.2.3.3l-.4.8zM660.8 750.6c.3.7-.8 4-1 4a.8.8 0 01-.5-.6c-.1-1.4-.1-2.7 1.5-3.4z"/>
  <defs>
    <pattern id="pattern0" width="1" height="1" patternContentUnits="objectBoundingBox">
      <use transform="matrix(.001 0 0 .00058 0 0)" xlink:href="#image0"/>
    </pattern>
    <image id="image0" width="1008" height="1738" xlink:href="4a_fakeactivism.jpg" />
  </defs>
</svg>
