<svg xmlns="http://www.w3.org/2000/svg" xmlns:xlink="http://www.w3.org/1999/xlink" fill="none" width="873" height="729" viewBox="0 0 873 729">
  <defs/>
  <path fill="url(#pattern0)" d="M43.3 38h386v419h-386z"/>
  <path fill="url(#pattern1)" d="M466.3 39h378v419h-378z"/>
  <path fill="#00EBAB" d="M291.7 479.2c-2.8-3-5.4-5.8-7.7-8.7-.7-1-.4-2.5-.6-3.8 1.4.1 3.4-.4 4.3.4 1.7 1.6 2.8 4 4.3 6 .5.5 1.5.8 2.2 1.2.2-.7.5-1.4.4-2.1-.5-14.7-1.2-29.3-1.8-44-.3-8.2-.8-16.4-.9-24.6v-58.3c.1-10.6 1-21.3.8-32-.1-10.5-1.3-21-1.6-31.5-.2-4.3.7-8.7.8-13 0-6.9-.6-7.4-7.3-7.4l-98.6-.1c-4 0-5.3 1.2-4.7 5v2.7c0 9.4-3 11.3-12.4 9.2-4-.8-8.2-.4-12.3-.2-14.2.5-28.4 1.6-42.6 1.7-21.7.1-43.4-.5-65-.8H38.5c-.7-.1-1.8-1-2-1.5 0-.6.9-1.4 1.3-2.2.8-1.3 2.2-2.7 2.2-4 0-7.4-.6-14.8-.7-22.2 0-1.7.6-3.4 1.2-5 .3-.8 1.3-1.3 2-2 .4.7.8 1.6 1.3 2.2.5.5 1.2 1 1.8 1 4.9-.4 9.8-1.2 14.7-1.3 15.3-.2 30.7 0 46 0h64.3c2.3 0 5.2-.8 7 .2 1.7 1 3.2 3.8 3.4 6 .8 8 .5 7.6 8.6 6.8 6-.5 12 .8 18 .7 43.3-.2 86.5-.5 129.7-.9 1.2 0 2.6-.3 3.8-.8 7.2-3.4 14-8 21.6-10 9.2-2.3 18.9-3.4 28.4-3.7 13.6-.4 26.6 3.8 39.7 7.3 7.8 2 10.9 7.8 13.5 14 .6 1.3-1.7 5-3.5 5.8-13 6.1-25.8 13.4-41 12.4-13-1-26-1.5-39-3-7.6-.9-14.7-4-20.3-9.7-.8-.8-1.4-1.9-1.6-3-.9-3.7-3.4-4.7-6.9-4.6-11 .3-22.2.7-33.3.8-3.2 0-3.4 1.8-3.2 4.1l1 13.5c.2 4.3.7 8.6.8 13 .1 11.2-.2 22.5 0 33.7.5 16.2 1.3 32.4 1.9 48.6.3 7 1 14 .8 21-.2 8-1.4 16-1.7 24.1-.3 10.1 0 20.3 0 30.4-.2 6.6-.7 13-1 19.6 0 .5.7 1.3.8 1.3.7-.2 1.5-.5 2-1 1.5-1.8 2.7-3.9 4.4-5.5.8-.7 2.4-.4 3.7-.6-.3 1-.3 2.3-1 3.1-3 4.2-6.2 8.2-9.3 12.3-2.3 3.1-4.2 2-6.3-.6zm-132-230.7H155c-9 .6-18 1.6-26.9 1.7-7.4 0-14.8-1.6-22.2-1.6-13.7 0-27.4.4-41.1.8-6.3.2-12.7.6-19 1-.6 0-1.8 1-1.8 1.5.2 6 .3 12 1 18 .2 1.6 2.1 4.2 3.3 4.2 12 .3 24 1 36 0 13-1.1 25.8-3 39.1-1.9 16.1 1.5 32.3 1.5 48.5 2 5.8.2 6.6-1.4 5.7-7-.8-4.8-.5-9.8-.8-14.8 0-1.2-.6-3.3-1.1-3.4-5-.3-10.1-.4-16-.5zM429.2 270c2.3-1 4.7-2 6.9-3.3 3-1.7 3.3-5.2.3-6.9a60.6 60.6 0 00-30-10.5c-10.4 0-20.6-.2-30.9 0-8 .2-16 1.6-22.5 6.7-2 1.5-4.6 3.5-2.2 6.5 1.6 2 3.5 3.7 5.6 5.2 8 5.5 17.5 6.7 26.9 7.3 7.4.5 15 .3 22.5 0 7.8-.2 15.7-.7 23.4-5zm-77.5-1.8c-1.7-1.7-3.3-3.6-5.2-5.1-.7-.6-2-.3-3-.4 0 1-.5 2.5 0 2.8 2.5 1.8 5.2 3.3 8 4.8l.2-2.1zM776.8 277c-9-.8-17-3.5-24.2-8.2l-.4-.2c-3-7.1-9.2-5.2-14.7-5.4-17.3-.6-34.6-1.1-51.8-1.9-4-.2-5 1.1-4.8 4.9.5 10.6.7 21.3 1 31.9.6 27.7 1.4 55.4 1.7 83.1.2 17.5-.6 35-.8 52.6V470l.2 4.2c1-1 1.7-2.1 2.7-3 2-2.2 4-4.3 6.1-6.2.5-.3 1.7.1 2.5.2-.1.8 0 1.7-.4 2.2-2.9 4.2-5.7 8.5-8.8 12.5-1.8 2.3-4.4 2.5-6.6.8a96.3 96.3 0 01-9-8.2c-.8-.8-.6-2.4-.9-3.7 1.3 0 2.7-.3 3.9.2 2 .8 3.8 2 5.7 3.1v-6.6-24.9c.3-38 .8-76.2.8-114.3 0-15.1-1.1-30.2-1.8-45.4-.2-5.5-.7-11-.8-16.6 0-2-.1-3-2.6-2.9l-46.6.1c-12.6.1-25.2.7-37.8.8-3.4 0-4.5 1-4.4 4.4.4 9.2-1 10.3-10.3 10.4-17.7.1-35.3 0-53 0-7.7.1-15.4.8-23.1 1h-28.8c-2.7 0-3.6-.8-3.7-3.6-.5-9.7-1.1-19.5-1.8-29.2-.3-3.6 1.6-4.9 4.6-5 4.7-.2 9.3 0 14 0H522c13.4.2 26.7.6 40.1.9h18.2c1.4 0 2.8.8 4.2.9 4.1 0 4.3.2 1.4 3.7-1.7 2-1.4 6.9-.4 9.9.8 2.3 4 1.9 6.9 1.4 4.3-.7 8.9.4 13.4.7h41.5c11-.2 22.1-.9 33.2-.9 15 0 29.9.5 44.8 1 6.3 0 12.7.7 19 .7 1.6 0 3.3-1.8 4.7-3 1.9-1.4 3.3-3.6 5.4-4.4 7.7-2.8 14.7-7.5 23.2-8.7 12.3-1.7 24.5-3.7 36.9-1.3 9.6 2 19 4.2 28.6 6.5 4.7 1 12.1 9.7 11.8 14.4-.1 1.7-2 4-3.8 4.8-9.8 5.1-19.8 10.3-31 11.9-6.2.9-12.9-.4-19.3-.7l-24-1zm-277-4.6h68.6c2.5 0 5 .7 7.5 1 3 .3 4.9-.3 4.6-4.1-.3-5.4 0-10.8 0-16.2 0-7.4 0-7.3-7.3-7.4l-33.7-.9-67-1c-2.7 0-3.8.8-3.6 3.6.4 8 .5 16 1 24 .2 1 2.3 2.8 3.5 2.7 8.5-.3 17-1 26.4-1.7zm278-2.3c8.6 1.1 17.1 2.8 25.8 3 7.5.3 15.1-1.3 22.7-1.5 8.4-.1 14.6-5 21.3-8.7 3-1.6 2.1-3.6-.2-5a66 66 0 00-37.7-11.3c-9 .3-17.9 1-26.8.8a30.6 30.6 0 00-19.5 6.5c-3.5 2.5-3 4.8-1 7.3 3.8 4.7 8.9 7.5 15.3 9zm-20.8-7.8l-4 1.3 3.3 2.4c.7.4 1.5.7 2.3.9l3.5.4c-.7-1.2-1.2-2.6-2-3.7-.5-.6-1.4-.9-3.1-1.3zm-2.3-5l1.5-3.2c-.8.3-1.8.5-2.1 1.1-.4.7 0 1.7.6 2z"/>
  <path fill="#00EBAB" d="M193.3 392.3c-7.6-.6-14.8-2-21.8-1.7-7.5.4-14.7-6.7-16-14.7-.6-4 2.8-6.2 5.5-7.5a87.6 87.6 0 0135.8-10.3c1.1 0 2.2-.5 3.4-.8l-1.4-2.7c-4-6.4-7.9-12.8-12-19-1.4-2-3-3.9-6.5-2-6.5 3.3-9.8-.3-12-4.5-3.9-7.8-2.5-19 3.3-24.2a8.5 8.5 0 015.1-2c7-.2 14.5 6.2 14.6 13 0 2.8-1.4 5.8-2.6 8.5-1.5 3.2-2 5.4.7 8.8 5.2 6.5 9.5 13.8 14 20.9 1.5 2.5 2.9 2.8 6 2.5 7.5-.5 15 .2 22.5 1.2a45 45 0 0115.2 4.3c5.1 2.7 9.7 6.8 13.8 11 2.6 2.6 2.7 6-.1 9.4-3.8 4.6-9.2 6-14.2 6.8-12.2 1.9-24.4 3-36.7 3.8-5.3.4-10.8-.5-16.6-.8zm-25-19c-2.5 4.3-2.2 7 1.3 8.6 1.3.6 3 .3 4.3.7 13.1 4.2 26.8 5.4 40.4 5.8 7.9.2 15.8-1.5 23.7-2.6 5-.7 10-1.6 15-2.8 3.2-.8 5.5-5.8 3.5-7.9-3.8-4-7-9.2-13-10.4-6-1.2-12.2-2.2-18.3-2.8-6.7-.6-13.8-2-20.3-.7a124.5 124.5 0 00-36.5 12.2zm17.6-52.5c.3-2 1-4 .8-6-.2-5-4.4-6.4-8-7-2-.4-5.6 1.2-6.3 2.9-2.2 5-2.3 10.7-.8 16 1.4 4.7 6.3 5.4 9.7 1.4 1.7-2 3-4.2 4.6-7.3zm-21.2 51.7l-.3-1.3c-1.7 1.3-4.2 2.3-4.8 4-.5 1.5 1 3.7 1.5 5.7.6-.4 1.5-.8 1.7-1.3.6-2.2 1-4.5 1.9-7.1zM143.7 497.6l-2 4 3.7-.5c2.4-.4 5-1 7.4-.8 1.2 0 2.4 1.4 3.5 2.2-1 .5-2 1.1-3.1 1.3-5.5 1-11 1.8-16.5 2.5-.7 0-2.3-1.3-2.3-2.1-.3-4.1-.2-8.3 0-12.4 0-1 1-1.8 1.7-2.7.6.9 1.3 1.7 1.8 2.6.2.5 0 1.3 0 1.8l1.2 3.7 2.3-2.8c2.3-3.2 4.3-6.7 7-9.6 8-8.9 16.1-17.6 24.3-26.3 2-2.1 4-4.2 6.2-6.1 2-2 1.7-2.6-.8-4-4.9-2.8-8.7-7-14.3-9-5.5-1.9-3-10.5 1.7-14.2a30 30 0 0116.3-6.2c5-.5 10-.9 14.9-2 1.6-.4 3-3 3.9-4.8 1.8-4.3 3-8.8 5-13.1.6-1.6 2.6-2.6 4-3.9 0 1.7.5 3.5 0 5-1.6 5-3.3 10-5.6 14.8-1 2.2-.4 2.1 1.4 2.2 7.2.3 14.5.4 21.7 1 5.3.3 11.3-.1 15.5 2.3 5.9 3.4 10.5 9 15.2 14.1.5.6-1.3 4.5-2.8 5.5-7.9 4.6-15.7 9.5-25 10.8-1.8.3-3.6.4-5.4.4-11.9-.5-23.9 1.3-35.7-1.8-2-.6-4-.1-5.4 2.5-2 3.6-4.9 6.6-7.7 9.7-10.5 12-21.2 23.8-32 36zm46.8-54.2c7 .8 14 2 21.2 2.2 5.2.3 10.4-.8 15.7-.7 8 .2 14.4-3.6 21-7 2.1-1 2.8-2.8.4-4.4-5.8-3.9-9.6-10.9-17.8-10.5-2.3.1-4.5-.1-6.8-.3-7.7-.6-15.4-1.7-23.2-1.6-6.4 0-12.8 1.5-19 2.6a24 24 0 00-13.5 6.5c-2.7 2.7-1.6 4.2.6 5.6 6.3 4.1 12.6 8.7 21.4 7.6zM713.2 500.1c1-1.8 2-3.4 3.3-4.6 2.4-2.1 5.4-1 6.9 2.3.8 1.8 2 3.6 3.8.8 2-2.9 4.3-2.3 7-1.1 2.6 1.1 5.4 1.8 8 2.6h.5c2.4-5.5 7.5-2 11.2-3.2 1.5-.5 3.4-.8 4.8-.3 2.4.7 4.6 1.5 3.5 5.5-1.6 5.9-2 12-2.9 18.1a21 21 0 000 5.7c.2 1 1.1 1.9 1.7 2.8 1-.8 2-1.6 2.9-2.6 1.4-1.8 2.7-3.8 4-5.7-.1 2.4 0 4.8-.3 7.1-.4 2.7-1 5.4-2 8-.2.9-1.5 1.5-2.4 2.2l-1.1-2.7-1.4-2.6-3.2 2.2c-1 .7-1.7 1.6-2.5 2.4l-1.2-2.8c-1.3-2.9-1.1-5 2.6-5.8.3-.1.6-.8.8-1.3-.6-.4-1.2-1.1-1.8-1-2.8 0-5.6.3-8.3.9-.7.1-1.4 1.5-1.6 2.3-.7 3.1-1.1 6.3-2 9.4-.1.8-1.2 1.3-1.9 2-.5-.8-1.7-1.7-1.6-2.3.5-2.9 1.2-5.7 2-8.4.2-.8.7-1.6 1-2.3-1-.3-2.2-.7-3.3-.8-1.4-.2-3-.1-4.4-.2l4.3-3.5c.3-.2.9 0 1.4 0 5.2-.1 5.2-.1 3.5-5.2-.1-.5-.7-1-.6-1.5.3-1.8.8-3.5 1.2-5.3.8 1.2 1.9 2.3 2.5 3.6 1 2.1 1.6 4.5 2.5 6.7.3.7 1.3 1.6 1.9 1.6.6 0 1.4-1 1.7-1.7 1-2.1 1.6-4.3 2.3-6.5.6-1.7 1-3.5 1.5-5.3-1.8-.4-3.6-.5-5.1-1.2-2.3-1-6.4-1.1-4.2-5.7.3-.6-.3-1.7-.4-2.5-.7.4-1.8.6-2.2 1.3-1.3 2-2.4 4.2-3.6 6.3l-2.6 3.4c-.4-1.5-1-3-1.3-4.6-.1-.8.1-1.8.2-2.8-.7.9-1.6 1.6-2 2.5-2 4.7-4.7 7.2-10.1 5-1.1-.3-3 1.6-4.6 2-2 .5-4.4 1.4-5.8.6-1.7-.9-3.4-3.5-3.3-5.2.3-2.7-3.3-5.8.7-8.6zm16.6 7.9c1-1 2-1.8 2.8-3 .7-.8.9-2 1.3-3-1-.4-2.2-1.1-2.8-.8-1.2.6-2.8 1.7-3 2.8-.2 1.4.8 3 1.7 4zm25.8-3.7c.6-.3 1.5-.5 1.9-1 .6-1 .9-2 1.4-3.1h-3.4c-.5 0-1 .5-1.4.9l-3 3.3c1.3 0 2.7.2 4.5-.1zm-38.2 6c1.6-.4 3.7-.4 4.8-1.4 1.2-1 1.4-3 2-4.6-1 .6-2.2 1.2-3.4 1.6-.8.3-2 .2-2.4.8-.8.8-1 2-1 3.6zm3.2-8.8l.1-4.1c-1.3 1.4-2.8 2.8-4 4.4-.3.5.1 1.6.2 2.5l3.7-2.8zM519.4 530.3l3-3.6c-1.4-.2-2.8-.4-4.1-.8-.8-.2-1.6-.7-2.4-1 .8-1 1.5-2.2 2.5-2.5 1.4-.4 3-.4 4.5 0 1.8.4 3.4 1.4 5 2.2l-2.3 4.1-1 1-3 4.2c1.7-.3 3.6-.3 5.2-1 3.8-1.6 5.7-4.4 4.4-8.7-.2-.6-.3-1.5 0-2 1.4-2 10.2-2.5 12-.7l1.2 1.3c-.6.4-1.1 1-1.8 1.3-.7.2-1.5-.2-2.2 0l-4.2 1.7 3.8 1 2.7 1c-1 .6-1.7 1.3-2.6 1.8-2.3 1.3-6.1.9-5.7 5 .2 1.3 1.2 2.5 1.8 3.8.9-.6 1.8-1 2.6-1.7 1.9-1.4 4-2.7 5.5-4.3 1-1 1.7-2.6 2-4 .6-3.3 2-6.3 5.5-7 2.3-.4 5.1-.4 7.3.5s3 3 1.2 5.6c-.6.9.2 2.6.4 4 1.1-.9 2.6-1.5 3.4-2.6.8-1.3.8-3.1 1.7-4.3 2.8-3.8 8.2-5.4 11-3.7 3 1.8 4 7 2.5 11.3-2.6 6.9-6.4 8.1-13 4.9-4.4-2.2-9.2-3.8-13.9-5.3-.4-.2-2.1 1.6-2.3 2.6-.3 2.7-.1 5.1-3.7 2.3-.5-.3-1.9 0-2.5.5-1.3 1-2.4 2.4-3.6 3.6-2.8 2.7-6.8 2.6-8.6-.8-1.9-3.6-4.4-3.4-7.5-2.5-1.9.5-3.7 1.5-5.6 1.8-1.3.3-3.2.2-3.9-.6-.6-.7-.3-2.8.4-3.8 1-1.6 2.7-3 4.3-4.6zm50 3.5c2.3 2.9 4.1 1 5.3-.9.9-1.5 1-3.6 1-5.4 0-1.2-.7-3-1.5-3.2-1-.4-2.6.3-3.6 1-3 2-2.4 5-1.2 8.5zm-11.5-7.8c.3-3.7-2.7-1.8-3.7-1.7-1.2.2-2.2 1.9-3.2 2.9 1.2.2 2.5.6 3.8.5.9 0 1.7-.8 3-1.7zM578.8 508.7c-3.3 1.2-6.5 2-9.6 3.1-3.9 1.4-7.9-1.3-9.1-5.8-.4-1.5-1.8-2.7-2.8-4l-1.7 4.1c-.4 1.1-.3 2.4-.7 3.4-.4.7-1.4 1.7-2 1.6-.7-.2-1.7-1.2-1.9-2-.3-1.4.2-3-.1-4.5-.3-1-1.6-2.5-2.3-2.4a4.3 4.3 0 00-3 2.1c-.9 1.8-.8 4-1.5 5.8-.4 1-1.5 1.8-2.2 2.6-.6-1.3-1.3-2.7-1.7-4.1-.1-.7.5-1.6.6-2.5.2-1.3 1.7-3.2-1.3-3.2-2 0-4.2-.5-4.2 2.6v7.9c0 .8-.4 1.6-.6 2.4-.7-.4-2-.8-2.1-1.4-.8-3.5-2.4-3.6-5.6-2.4-2.9 1-6.3 0-7.9-2.8-1.5-2.8 0-5.4 2.2-7.5 3.2-3.2 6.4-5.3 11.4-3 4 2 8.4-.7 10-5 .5-1.3 1.5-2.5 2.3-3.7.4 1.3.8 2.7 1.4 4 .5 1.2 1.3 2.3 2 3.4.9-1 1.8-1.9 2.5-2.9.5-.6.5-1.4 1-1.9l2.3-1.6.7 2.8 1 5.4 6.3-1.6c.7-.3 1.2-1.5 2-1.8 1.6-.8 4.2-2.2 4.8-1.7a7.3 7.3 0 012 5.4c-.1 1.3-2.3 2.4-3.7 3.4-1 .8-2.3 1.3-3.4 2 1.4.9 2.8 2.5 4.2 2.5 5.5-.2 8.2-3.3 8.7-9 0-1.6 0-3 2.6-2 1 .3 2.4-.7 3.6-1.1 1.5-.5 3-1.5 4.4-1.5 1.6 0 3.3.8 5 1.2l-4.4 2.4a15 15 0 00-7.6 8.4c-.3.9-.9 1.8-1.6 2.9zm-55.5-.7c2.7-1.2 5.5-2.3 8-3.6.3-.2.1-1.7-.2-2.4-.3-.5-1.6-1-1.8-.8-2 1.8-4 3.9-6 6.8zM749.2 550c3 0 5.6.2 8.2.4-.3 2.6.2 5.6-3 7-.6.2-1.4 1.3-1.3 1.4.7.8 1.4 1.8 2.3 2.1 1.6.6 3.7.2 5 1.1 2.7 1.7 2.8.2 3.6-1.7 2-4.7 2.8-10.2 8.8-12.3 3.5-1.2 5.4-.4 5.8 3.5.2 1 0 2.1 0 3.2 0 2.4 1 2.1 3 1.8 5.2-.8 8.4-4 11.5-7.6.8-.8 2-1.5 3-1.6.8-.1 1.8.7 2.7 1.1-.5.8-.8 1.7-1.4 2.4-1.9 2.5-4.2 4.7-5.7 7.4-.5 1 .7 3 1 4.5 1.5-1.1 3.9-2 4.2-3.4 1.1-4.4 4.3-4.1 7.3-3.7 1.2.2 2.7 2.4 2.9 3.7.2 2.5-.4 5-.8 7.5-.2 1.1-1 2.2-1.4 3.3-.8-1.2-1.9-2.4-2.2-3.7-.3-1.4.3-3 .4-4.5-1.6 1-3.1 2.1-4.8 2.9-5.3 2.5-9.6 3.4-11.3-3.3-.8-3.3-3.1-2.5-4.9-2.2-1 .2-2 2-2.4 3.3-.4 1 0 2.4-.1 3.6l-.9 3c-1-.8-2.7-1.5-2.9-2.4-.5-3.6-.5-7.3-.9-11 0-1.2-.6-2.4-1-3.7-.7.9-1.7 1.6-2.2 2.5-1.7 3.8-3.4 7.5-4.9 11.4-.8 2.2-1.7 2.9-4.2 1.7-3.9-2-8.1-3.3-12.2-4.9-4-1.4-5.5-.2-6.8 5-.3 1.1-1.3 2.2-2 3.3-.5-1.2-1.6-2.5-1.6-3.7.1-4.5.5-9 1-13.4 0-.7 1.5-1.9 1.5-1.8 3.4 2.8 4.3-1 6.7-2.3zm4.6 3.2c-2.6-2.7-3.7.3-5.1 1.5-.4.4-.2 1.6-.2 2.4l3.5-2.2c.5-.3.9-.9 1.8-1.7zM415.2 505.4l-2 6c2.2 0 4.4.4 6.3-.2 5-1.7 10.1-3.6 9-10.7-.2-.7.3-1.7.8-2.3.8-1 1.9-1.8 2.9-2.7l.8 3.2.9 3.7c.7-.7 1.4-1.8 2.3-2.1 1-.5 2.3-.3 3.4-.4-.2 1-.2 2-.6 2.9-.1.4-1 .6-1.3 1-1 1.5-2 3-2.8 4.5 0 0 1 1.1 1.4 1 1.9-.5 4.7-.8 5.4-2 1.4-2.8 1.5-6.2 2.4-9.2.4-1.5 1.5-2.9 2.3-4.3.5 1.5 1.4 3.1 1.2 4.5-.7 5.2-1.7 10.3-2.7 15.5-.4 2-1 1.6-2.8.8-3.3-1.4-7-1.8-10.5-2.3-.5 0-1.3 1.7-2 2.7l-2 2.7c-.6-.8-1.2-1.8-2-2.4-.8-.5-2-1.3-2.5-1-4.7 2.8-9.1 3.7-13.3-.8-.3-.3-1.3 0-1.9.2-.4.1-.6.6-1 1-3.4-5.2-6.3 1.3-10 .4-3-.7-4.4-1.7-3.5-4.2 1.1-3 2.5-7.1 4.9-8.3 2.8-1.3 9.1-1 9.9.6 2.7 5.4 2.4.6 3.3-.5 2.7-3 7.6-4.3 10-2.4.6.5.9 1.5 1.3 2.2-.8.1-1.6.1-2.3.4l-5.3 2.5zm-16.8 1.2c-.4.7-1 1.4-1.3 2.2-.2.9 0 1.9-.1 2.8.8-.2 1.7-.2 2.5-.6.6-.4 1.2-1 1.6-1.6.7-1.2 1.2-2.5 1.8-3.8-1.3.2-2.7.4-4.5 1zM493.6 587c.6 5.7-.9 10.4-4.7 14.4-3.4 3.4-7.3 2.7-10-1.4-.5-.9-3.1-1.2-4.4-.7-2 .8-3.7 2.8-5.8 3.7-1.6.7-4.4 1.5-5 .7-1.3-1.3-1.6-3.7-1.7-5.8 0-1.4.8-2.9 1.2-4.3-1.8 0-3.7.4-5.6.3-6.1-.5-7.2 3.1-7.3 8.2 0 1-1.7 2-2.6 3.1-.6-1.2-1.8-2.4-1.7-3.5.3-5.3 1-10.6 1.8-15.9.1-.8 1.2-2.2 1.9-2.3 4.3-.3 8.9-1.3 12.8-.2 6.4 1.9 6.2 2.5 4.6 9.7-.2.9-.1 1.8 0 2.7 0 1 .3 2 .4 3 .9-.5 1.7-1.3 2.6-1.5 6.5-1.5 8.6-6.7 11.4-12 3.1-6.2 8.7-5.1 12 1.8zm-5.3 8.6c.6-1.8 1.6-3.4 1.7-5.2 0-1.2-.8-2.7-1.6-3.8-.4-.5-2.3-.7-2.3-.7-1.3 4-4.5 8.8-3.3 12 2 5 3.2-1.1 5.5-2.3zm-27.2-6l3.2-2.8s-.5-.9-.7-.9a298 298 0 00-11.3 2.4c-.4.1-.6 1-1 1.4.7.3 1.3.8 1.9.7l7.9-.8zM105.7 664.2c.3 1.1.5 1.9 1 2.4l4.7 5c.3-2.1.3-4.3.8-6.4.3-1.3 1-2.5 1.7-3.7.6 1.1 1.7 2.2 1.8 3.5.5 4.5.8 9 1 13.6.1 2.3 0 4.7-3 1.6a667 667 0 01-6.2-6.6l-1.5-1.9c-.4 1-1.2 1.8-1.2 2.7 0 1.8.9 3.5.8 5.2 0 1-1.2 2-1.8 3-.6-.8-1.4-1.6-1.8-2.6-.5-1.3-.6-2.8-1-4.2-.6-3-5.2-4.8-7.3-2.6-1 .9-1 2.6-1.3 4l3.2-.6 3.2-.3c-.4 1-.6 2-1.1 2.8-1.6 2.3-4 3.8-6.6 2.3-3.8-2.4-3-6.5-2.9-10.3 0-.9.6-1.8 1-2.8l.4-1.3c-2.4 0-4.8-.2-7 .2-.7 0-1.4 2.2-1.4 3.4 0 3.3.4 6.6.5 9.9 0 .6-.7 1.2-1 1.9-.7-.5-1.8-.8-2-1.4-.4-2.2-.7-4.5-.9-6.8-.2-2.7 2-6.1-2.4-7.6-.5-.2-.9-1.5-1-2.3 0-.2 1-.9 1.5-1l19-1.8c1.3 0 2.6.4 3.8 1 .6.1 1 1 1.4 1.5-.6.4-1.1 1-1.8 1.1-2 .6-5.9-1.3-5.4 2.7.6 4.2 3.8.7 5.7 1 2.6.5 3.4-.9 3.5-3.4 0-2.6.9-4.4 3.6-1.2zM672.6 510.3c-3.4-4-1.5-5.9 2.1-7.1 1.6-.6 3.4-.8 5-1.2.8-.2 1.5-.6 2.2-1-.9-.2-1.8-.8-2.6-.8-2.2.1-4.3.7-6.5.8-.6 0-1.2-.7-1.8-1.1.4-.6.8-1.2 1.3-1.6l6.7-4c.3-.1 1 .3 1.6.4.7.1 2 .4 2.1.3 1-4.2 3.4-1.6 5.8-1.5 4 .4 8-.6 12-.4 2.1.1 4 1.8 6.1 2.7-.7.6-1.4 1.7-2 1.7-5-.5-11.4 7-9.7 11.8.3.9 2 1.9 3 1.8 1.4-.1 2.9-1 4.3-1.8.7-.4 1.2-1.1 1.8-1.7l-2-1-2.6-1.4c.8-.8 1.4-1.8 2.4-2.2 3.3-1.5 5.9.3 5.9 4 0 1.6 0 3.4-.4 5-.6 2.5-1.3 5.4-5.2 3-.7-.5-2 0-3.1-.1-3-.1-6.1.6-8-3.1-2-3.9.2-6.7 1.5-9.8.6-1.3 1.9-2.4 2.9-3.6-2 0-3.8-.3-5.7 0-3.6.4-3.5.5-2.4 4 .1.4-.2 1.3-.6 1.4-3.3 1.3-4 4.3-5 7.2-.2 1-1.8 1.4-2.8 2-.2-1-.6-2-.7-3.2v-3.2c-.9.9-2.1 1.6-2.7 2.6-1.5 2.7-1.4 2.8-2.9 1zM99.2 609.9c-1-1.2-2-1.7-2.8-2.5-.5-.6-.7-1.6-.8-2.4 0-.2 1.2-.5 1.8-.7 5-1.8 9.8-1.7 15-1.2 6.8.8 13.7-.3 20.5-.6 1 0 2-.3 2.8 0 1.7.6 3.3 1.5 5 2.3-1.5.4-3 1-4.5 1.3-.8.3-2 0-2.6.4-1.1.7-2 1.8-3 2.7l4 .8c.9 0 1.9-.4 2.7 0 1 .3 1.7 1.2 2.5 1.9-.8.5-1.5 1.3-2.4 1.6-1.6.5-3.6.3-5 1-1 .6-1.3 2.4-1.8 3.7 1 0 1.8.3 2.8.3 1.8.2 3.6.2 5.5.3-1.4 1.2-2.5 3-4 3.7-6.1 2.7-9 .7-9-6 0-1.9.2-3.7.3-5.5 0-1.5.3-3.1.4-4.7-2.3.3-4.7.3-6.9 1-.6.1-1 2-1 3.1-.5 4-.7 8-1 12-.2.8-1 1.5-1.4 2.2-.5-.8-1.3-1.5-1.3-2.2-.2-3.8 0-7.5 0-11.2 0-.8.4-2.1.4-2.2-3.3-1-6.6-2.7-10-2.6-2.7.1-2.6 3.4-2.5 6 .1 2.8.1 5.8 0 8.7-.1 1.2-1 2.3-1.4 3.5-.8-1.3-2-2.4-2.2-3.7-.3-3.5 0-7 0-11zM482 503.6c1.8 1.1 3.5 1.7 4.6 2.9 1.5 1.5 3 3.5 3.2 5.4.2.7-3 3-4.4 2.8-4.7-.7-9.6 2.7-14-.7-1.4-1-2.3-2.6-3.4-4l-1.6-2.5-2.1 2.4-1 1-1.8 4c-1-1.3-2.5-2.4-3.3-3.9-1.2-2.3-2-4.8-3-7.2-.7 2.4-1.2 4.9-2 7.2-.5 1.4-1.6 2.5-2.4 3.8-.2-1.6-.5-3.2-.5-4.7-.1-1.7-.2-3.4.2-5 .6-2 1.5-4 2.3-5.9 2.3 1.3 4.6 2.5 6.6 4 1 .8 1.5 2.3 2.2 3.4l1.8-4.5c.3-.8.4-1.7 1-2.4 1.1-1.6 11-3.5 12.3-2.2 2 2 4 2.4 6.4 1 .8-.5 2.2-.4 3.1-.1 1.4.4 2.5 1.3 3.8 2l-3.7 1.6c-1.5.5-3 1-4.3 1.6zm-7.1 7.6l7.7-.6 1.9.2c-.3-.6-.4-1.4-.8-1.8-2.5-2.5-9.3-3.3-12.3-1.4-.3.2-.5 1.4-.2 1.6.8.8 1.8 1.4 3.7 2zm1-11c-1.7.4-3.4.7-5 1.3-.2 0 0 2 .1 2 2.5.4 5.1.9 4.8-3.4zM627.7 519.7c4.7-1.6 9.2-1.6 13.3.8.8.5 1.2 2 1.3 3 .2 1.1-.3 2.4 0 3.6.4 1.5 1.2 3 1.9 4.4.5-1.4 1-2.8 1.7-4.1.7-1.4 1.3-3 2.3-4.1 2.8-2.9 4.4-2.4 6 1.3.4.9 1.2 1.5 1.8 2.3.6-.8 1.3-1.4 1.8-2.2.5-1 .7-2.2 1.4-3.1.2-.4 1.4-.3 2 0 .3 0 .5 1.1.3 1.6-1.5 4.2-3 8.5-4.9 12.7-.4.9-1.8 1.4-2.8 2-.4-1.1-1.2-2.2-1.4-3.4-.2-1.7.1-3.4 0-5.1-.2-1.1-.8-2.1-1.2-3.2-.8.9-1.7 1.7-2.2 2.8-1.2 2.4-1.8 5-3.1 7.4-.6 1.1-2.3 1.7-3.4 2.5-.7-1.2-1.5-2.2-2-3.4-.4-.6-.4-1.4-.5-2.1-.8.4-1.6.7-2.3 1.2l-7.5 5.2c-3 1.8-5 1.1-6.5-2.3-2.1-5-.1-15.3 4-17.8zm4 10c-1.1.4-2.7.5-3 1.3-.7 1.2-.5 2.8-.6 4.3 1-.2 2.1-.3 3.1-.7a25 25 0 004.1-2.2c1.5-1 3.8-2 4-3.2.1-2.1-.5-5-2-6.3-1-1-4-.1-6 .4-1 .3-1.8 1.6-2.7 2.4l3.8.4 5 1-4 2.5c-.2.2-.6 0-1.8 0zM842.3 491.8c.3 4.7.8 8.8.8 13 0 1.2-1.4 2.4-2.1 3.6l-2.4-3.5v-.9l-.6-3.9c-.6 1-1 2.1-1.9 2.9-2.3 2.3-4.4 6.2-8.2 1.6-.8.7-2 1.3-2.1 2.1-.8 2.8-1 5.7-1.9 8.5-1 3.6-4 5.5-7.2 4-2.7-1.2-4.6-4.2-6.6-6.7-.3-.4.8-2 1.2-3 .8.5 1.7.9 2.4 1.5l4.4 3.9 3.1-5.2c1.7-3.1 3-5.6-2.6-6.2-3.8-.4-6-5.7-4.9-9.7.3-.7 1-1.3 1.6-2 .7.7 1.7 1.2 2 2 .4.8-.2 2 .1 2.7.6 1.3 1.6 2.5 2.4 3.6.8-.8 1.7-1.6 2.5-2.6 1-1 1.7-2.3 2.6-3.5 1.3-1.7 2.4-1 2.5.6.3 3.2 1.3 2 2.7.7.6-.6 1.4-1.6 2-1.5 6.8 1.3 6-4.3 7.4-8 .4-.9.5-2 1-2.8.5-.8 1.5-1.5 2.2-2.2.5 1.2 1.4 2.4 1.3 3.5-.3 2.4-1.1 4.7-1.7 7.5zm-8.8 9.3l.9-3.7c-1.2.5-2.6.8-3.3 1.7-.8.9-1 2.4-1.5 3.6 1.2-.4 2.3-.8 4-1.6zM367.5 502c-2.5 0-4.5-.2-6.4 0-.7.1-1.3 1.1-1.9 1.7.7.4 1.3.9 2 1 1 .2 2.2-.1 3.2.1s2 .8 3.1 1.3c-1 .6-1.8 1.7-2.8 1.8-3.4.7-7 .9-6.7 5.8 0 .4-1.4 1-2.2 1-.4.1-.9-1-1.2-1.6l-1.3-2.7-1.6 2.3c-1.7 3-1.6 3-3.6.4-1-1.1-2.4-1.8-3.6-2.8-.7-.6-1.3-1.4-1.9-2.1.8-.6 1.6-1.4 2.5-1.5 3.4-.5 6.8-.6 10.2-1 .6-.2 1.1-1.2 1.7-1.8-1-.3-2-.9-3-.9-2.5.2-5 .7-7.6.8-.6 0-1.2-1-1.8-1.5.6-.4 1.3-1.3 1.8-1.2 3.2.6 4.5-1.1 5.5-3.8.3-.7 1.4-1.2 2.2-1.8l.5 2.6.5 3 2.2-2.3c.8-.6 1.8-1.5 2.5-1.3 4.9.7 10 3.1 13.2-3.2.1-.2 2.5.3 2.7.8.2 1-.5 2.3-.5 3.4-.2 2-.9 4.2-.1 5.8 1.3 2.8 3-.6 4.5-.4 2 .2 4 .6 6 1-.6 2.1-.7 4.8-2 6.2a29.6 29.6 0 01-8.8 5.5c-1.2.5-3.7-.5-4.6-1.6-.8-1-.4-3.2-.2-4.9.2-1.7 1.3-3.4 1-5-.2-1.2-2-2-3.5-3.1zm10.6 5.5c-1.2.9-2.4 1.7-3.5 2.7-.3.3-.4 1.2-.3 1.8.1.3 1.1.9 1.2.8l5.8-4.9a27 27 0 00-3.2-.4zM462.5 538.9c-1-4.6-2-8.6-2.7-12.7-.2-1.2.5-2.6.8-4 1.1 1 2.7 1.8 3.2 3 .9 2 1 4.2 1.4 6.3l.8 1.8c.6-.5 1.7-.9 2-1.5.4-1.7.5-3.5 1-5.2.7-3.2 2-5.4 6.2-5.4 5.2.2 10.4-.5 15.7-.7 1 0 2 .6 2.9 1-1 .5-1.8 1.4-2.8 1.6-2.6.5-5.2.6-7.8 1-.8.2-1.4 1.1-2 1.7l2.5.5c.2 0 .5-.4.8-.3l7.5 1.6c-1.2 3.8-4.4 1.3-6.6 2-1.5.7-3.1 1.5-4.4 2.5-.2.2.6 2.6 1.3 2.9 1.4.5 3 .3 4.6.1 2.6-.2 4.7-3.7 7.6-.6-2.1 1.6-4 3.8-6.3 4.7-7.7 3.2-12.2 0-12-8.1v-.5l-1.2-6.4c-1 2-2.4 3.8-3.2 5.8-1.3 3.2-2 6.5-3.3 9.7-.6 1.4-1.9 2.5-2.9 3.8l-3.1-4.6zM420.7 568.1c-1.3.3-2.8.9-3.6.4-3-2-4.9-2.1-8 .6-2.3 2.1-6.7 4.6-9.5-.9-.1-.3-2.2-.2-3 .3-2.8 1.6-5.3 3.6-8 5.4-3.6 2.6-5.4-.6-5.2-2.9.4-5.7 1.7-11.4 2.8-17.1.1-.5 1.4-.7 2.2-1 .4 1 1.3 2.1 1.1 3-.5 3.3-1.5 6.5-2.2 9.7-.2 1.2-.5 2.4-.4 3.5 0 .6.7 1.2 1.1 1.8l1.6-1.2c2.2-1.8 4.1-4 6.5-5.4 2.4-1.4 3.7-2.8 3.9-5.8 0-2 2-3.8 3.2-5.6.4 2 1.2 4.2 1 6.4 0 2.2-1 4.4-1.5 6.6-.1.5.2 1.5.4 1.5l2.1-.3c2.1-.8 4.6-1.2 6.3-2.5 1.7-1.5 2.5-4 4-5.8 2-2.5 3.9-5.3 6.4-7.3 2.2-1.6 4.4-1.2 4.7 2.6.3 5.6-1.6 10-5.9 14zm-.7-9.4l-1.7 4.7c0 .2 1 .7 1.5 1 1-1.9 2.1-3.7 3-5.6.2-.7-.4-1.6-.6-2.4-.7.4-1.4.9-2.2 2.3zM167.4 525c0-9.8 2-11 11.1-8.3 2.5.7 5.3.7 7.9 1 3.8.2 7 3.3 7.8 7.6 1 5.5-.7 9.7-4.7 11.3-3.5 1.4-7.5-.4-8.2-4-.5-3-1.6-6.3-.7-8.8 1.1-2.8-.2-3.2-1.9-3.5-2.2-.4-4.5-.2-6.8-.2.3 1 .3 2.8.8 3 2.2.5 4.5.7 6.7 1-2 .6-4.2 1.2-6.1 2.1-1 .5-1.5 1.8-2.2 2.7l2.9 1.7 3.6 1.8c-1.2.6-2.3 1.5-3.6 1.8-5.6 1.4-7.9-.8-6.6-6.4.2-.7 0-1.5 0-2.8zm21.7-.9l-2.9-1.7c-.4 1-1 2-1.2 3.1a26 26 0 000 5.5c.1.8.7 2 1.3 2.1.5.2 1.6-.5 2.2-1 2.3-2.2 2.5-4.8.6-8zM153 527.6l2.2 4.6c-1.7-.3-3.4-.4-5-1-.8-.2-1.4-1.2-2-1.9-1.5-1.8-2.3-1.6-3 .8-.4 1.4-1.6 2.6-2.5 3.9-.6-1.7-1.7-3.4-1.9-5.2-.1-2 .4-4 .9-6 .3-1.7 1.3-3.4-1.8-3.3-2.2 0-3.8.1-3.9 3 0 3.6-.4 7.1-.9 10.6 0 .7-1 1.3-1.4 2-.4-.6-1.2-1.2-1.2-1.8-.2-3.1-.8-6.4-.1-9.4.6-2.7.5-3.7-2.4-3.5-.6 0-1.3.2-1.8 0l-3.1-1.3c.8-.9 1.5-2.2 2.5-2.5a48 48 0 019.4-1.6c5.1-.3 10.2-.2 15.3 0 2.3 0 3.3 4.3 1.6 6.5-.5.7-1.4 1.1-2 1.7l-2.7 2.5 3.7 1.9zM313.1 527.8c2.9.8 5.2 3 7.8.2.3-.2 3 1 3.1 1.8 1 4.5 1.4 9 2 13.5.1.7.3 1.6 0 2.2-.7 1.2-1.6 2.3-2.4 3.4-.4-1.2-1-2.4-1.2-3.6-.5-2.6-.7-5.3-1-8 0-.4-.5-.8-.8-1.2l-1 1c-.9 2.2-1.5 4.4-2.4 6.4-.8 1.7-1.3 4-4 1.9-.3-.3-1.3.3-2 .5-2.4.6-5.3 2.3-7.1 1.6-3.1-1.3-3.3-5-3-8.2.1-.7.4-1.5.3-2.2-1.4-9.3 5.7-8.4 11.7-9.3zm2.8 7.8c.8-1.6 3.4-3.7.3-4.8-2-.8-4.9.2-7.3.8-1.2.3-2.1 1.4-3.1 2.2 1 .2 2.1.4 3.2.4.9.1 1.8-.1 2.7.1.8.2 1.5.8 2.2 1.3-.6.4-1.2 1.1-2 1.4-1.3.4-3.2.2-4 1-1.4 1.4-2 3.4-3 5.2.8.4 2 1.2 2.2 1 3-2.4 5.9-5 8.8-8.6zM159.4 653.4c-3.8.7-4.1-1.6-3.9-4.1.2-2 .7-4 1.1-6l1.3-4.7c-2.3 0-4.7-.5-6.7.2-1.1.4-1.8 2.9-2.1 4.5-.6 3.3-.5 6.8-1.1 10.2-.2.9-1.6 1.6-2.4 2.4-.4-.9-1.2-1.8-1.1-2.7.3-3.8 1.2-7.5 1.4-11.3 0-.8-1.8-1.8-3-2.5-1-.7-2-1.2-3.1-1.8 1.1-.6 2.3-1.7 3.5-1.9 4.4-.5 9-.6 13.4-1 2.5-.1 4.5 0 4.4 3.5 0 1.3 1.5 2.6 2.3 4 .7-1.5 1.4-2.9 2.2-4.2l2.3-3.2c.4 1 1.3 2 1.3 3 .2 4.8.2 9.6 0 14.4 0 1-1.4 1.9-2.2 2.8-.5-.8-1.3-1.6-1.5-2.5-.3-1.3 0-2.7-.3-4-.2-1.3-.8-2.4-1.3-3.6-1.2.7-3 1.1-3.5 2.2-.7 1.8-.6 4-1 6.3zM166.5 607c.3-4 4.4-6 8.7-5.6 5 .6 10 0 14.9.2 1.9 0 3.7.5 5.6 1 1 .2 2 .8 3 1.3-1.1.7-2.4 2.2-3.5 2.1-5.4-.4-6 3.3-6.5 7-.4 2.5-.5 5-1 7.5-.3.9-1.5 1.5-2.2 2.3-.5-.9-1.4-1.7-1.4-2.5.1-3.4.7-6.8.8-10.2 0-1.3-.8-2.5-1.2-3.8-1.4.7-3.7 1.1-4 2-.7 3.8-3.2 4.7-6.5 5.4-1.2.3-2.2 2.3-3 3.8-.3.8.3 2.2 0 3.1-.5 1.1-1.6 2-2.4 3-.4-1-1.2-2.1-1.2-3.2-.2-4.3 0-8.6 0-13.3zm6.5 3.3l3.7-2.8c-1-.8-1.7-1.9-2.7-2.1-.8-.2-2.6.7-2.5 1 0 1.5.6 3 1.5 4zM100.8 632.7c4.6-1.1 8.6-2.3 13 .8 2 1.5 6.2 0 9.3-.1 1 0 2.1-.6 3-.4 1.6.3 3 1.2 4.5 1.8-1.2 1-2.5 2.6-3.7 2.6-3.6-.2-3.7 1.8-3.8 4.5 0 3.3-.3 6.6-1 9.8-.1 1.1-1.5 2-2.4 3-.7-1.2-2-2.4-2-3.6.2-2.8.8-5.5 1.5-8.2.6-2.3.4-3.7-2.2-4.8-3.9-1.7-7.4-4.9-12-2.4-1 .5-1.4 1.9-2 2.9l2.8.7h.9l4.5 1.3c-1.5.8-2.9 1.7-4.4 2.4-1 .6-2.2.8-3 1.6-.6.5-.6 1.5-.9 2.3 1 .3 1.8.6 2.8.7 1.7.2 3.4.1 5.2.2-1.5 1-2.8 2.5-4.5 3.2-4.2 1.8-7.1-.2-7.2-4.7v-9.8c.2-1.2 1-2.4 1.6-3.8zM44.6 664c-7.3.2-10.8 5.4-8 11.7.4.7 2.3 1.6 3 1.3 1.5-.7 3.4-1.9 4.2-3.4 1.3-2.3 1.7-5 2.5-7.6 1.6-4.5 5.2-5 9.1-4.5.5.1 1.4 1.1 1.3 1.6-.5 4-.7 8.3-2.2 12a6.7 6.7 0 01-7 4c-2.7-.1-5.5 1.4-8.4 1.7-4.7.3-7-1.8-7-6.6-.1-3.2 0-6.6 1.1-9.6.7-2 3-4.5 4.6-4.7 2.5-.2 5 1.6 7.6 2.6l-.8 1.5zm5.8 10.8l3.5-8.2c.1-.3-.6-1-.9-1.4-1.2 1-3 2-3.5 3.3-.8 2-.7 4.5-1 6.8.5 0 1 0 1.9-.5zM620.1 585.9c-1 2.7-2.2 4.8-2.7 7.1-.4 2 0 3 3 2.5 7.4-1.3 11.2-5.4 12.7-12.4.2-1 1.7-1.9 2.6-2.8.4 1.1 1 2.2 1 3.2l-1.5 7.2c-.2.9.2 1.9.4 2.8.7-.3 1.4-.8 2.2-.9 2.7-.3 4.9-3.8 7.9-1-1.8 1.7-3.4 3.5-5.4 4.8-3.3 2.3-6.9 3.4-11 1.6-1.6-.6-3.8.3-5.6.8-3.4 1.1-6.5 2-9.5-.8-3.3-3.2-.5-6.3 0-9.4.4-1.8 1.3-3.5 2.3-5 .8-1.3 2.1-2.2 3.2-3.2l.4 5.5zM428.1 593c-2.1.9-4.2 2.3-5.9 2-6-1.3-5.8 3.2-6.7 6.7-.2.7.9 1.7 1.3 2.6l2.2-1.3c3-2 5.7-4 8.7-5.7.4-.3 1.5.3 2 .8.3.2.2 1.5-.2 1.7-3.9 2.8-7.7 5.8-11.8 8-3 1.7-6-.5-5.9-4 0-3.5.7-6.9 1-10.2.1-1.5-.4-3 0-4.4.5-1.8 1.7-5 2.5-5 5 .2 10 1 15 1.7.5.1 1 1 1.5 1.6-.7.4-1.3 1.1-1.9 1-3 0-6-.4-9-.3-1.2 0-2.3 1.1-3.5 1.7 1 .5 1.9 1.4 2.8 1.4 2.3.3 4.7 0 7 .2.4 0 .7.8 1 1.5zM256.2 498.5c2.2-1.9 11.6-3 13.5-1.6 1.5 1.2 3.1 2.5 1 4.8-.6.7-.4 2.7 0 3.7 2.4 4.9 1.4 8.8-3.8 11.2a49.3 49.3 0 01-11 3.3c-.7.1-2.7-1.7-2.6-2.5a277 277 0 012.9-18.9zm3.4 10.4c-.6 1.6-1.4 3.1-1.7 4.7 0 .5 1.9 2 2.4 1.8a24 24 0 006.3-3.5c1-.9 1.5-2.6 2.2-4-1.5-.1-3-.4-4.5-.3-1.4 0-2.8.5-4.7 1.3zm2.3-5l5.6-2c.4-.3.5-1.3.7-2-2 .1-4.2-.2-6.1.4-1.3.3-2.2 2-3.3 3 .9.3 1.8.7 3.1.5zM41 642.8c-.5 2.2-.3 4.2-.9 6-.4 1.3-1.9 2.3-2.9 3.5-.2-1.1-.7-2.2-.6-3.3.1-3.6-1.1-7.6 2.2-10.6-.8-.6-1.5-1.3-2.4-1.8-1.1-.6-2.4-.9-3.6-1.3 1.4-.8 2.6-2 4-2.3 6-1.7 11.8-2.2 17.4.9 1.5.8 3 2.3 3.4 3.8 1.1 4.4-.6 8.4-2.7 12.2-1.9 3.4-6 3.4-7.1-.3-1-3-.3-6.5-.1-9.8 0-1 .8-2.1 1.3-3.2-1.6-.3-3.2-1-4.6-.8-1.2.2-2.6 1.5-3.1 2.7-.6 1.1-.2 2.7-.4 4.3zm10.3-4c-.3 1.3-.9 2.6-.9 3.8 0 1.6.6 3.1 1 4.7.7-1.1 1.7-2.2 2.2-3.4.6-1.4 1.2-3 1.3-4.5 0-.9-.8-1.8-1.2-2.7l-2.4 2.2zM782.6 509.1c.4-5.6.7-11 1.7-16.4.5-2.4 2-5 5.6-4.6 1.1.2 2.3 0 3.5-.4 3.4-.8 6.5 1.3 6.4 4.8-.1 5.1-.5 10.2-1 15.3 0 .8-.9 1.7-1.4 2.5-.7-.6-1.8-1.1-2-2-.6-1.5-.7-3.3-1-5l-.9-3.2c-1.5.4-3.8.4-4.4 1.4-1.2 2-1.3 4.6-2.2 6.8-.5 1.3-1.4 2.5-2.1 3.7l-2.2-2.9zm12.2-17.3h-1.4c-2.4-.2-4.4 0-5.1 2.9l-.2 1.5c2.2-.2 4.4-.1 6.4-.8 1.1-.4 4-1.3.3-3.6zM161 607v14.8c0 1-.8 1.9-1.2 2.8-.8-1-2.3-1.9-2.4-2.9 0-3 .5-6.2.6-9.3 0-1-.6-2.1-.9-3.2-.5.8-1.4 1.5-1.6 2.4-.5 2.2-.5 4.4-1 6.5-.3 1-1 1.9-1.7 2.8-.6-.7-1.6-1.2-1.9-2-.5-1.5-.6-3.2-1-4.7-.3-.9-1-1.6-1.5-2.4-.4.7-1 1.4-1.2 2.2-.4 2.5-.5 5-1 7.4-.2.9-1.2 1.5-1.8 2.3-.6-.7-1.8-1.5-1.7-2.2.7-5.6 1.6-11.2 2.8-16.7 0-.6 2-1.6 2.4-1.3 1.2 1 2 2.2 3 3.5.5.8.8 1.8 1.2 2.7l1.9-2.6c.3-.4.2-1.2.6-1.5 1.3-1.1 2.8-2.1 4.2-3.1.7 1.4 1.5 2.7 2.2 4.6zM177.6 559.1c-3.6 1.6-6.5.2-8.5-1.8-1.9-2-3.5-4.2-2-7.8 1.8-4.2 2.7-8.5 7.6-10 1.1-.4 2.5-.8 3.4-.5 1.2.5 2.1 1.8 3.2 2.7-1.2.6-2.4 1.5-3.7 1.7-3.4.4-7.2 5.1-6.4 8.9.7 3.4 3.7 3.3 6.4 3 .6 0 1.7-2.1 1.6-2.2-2.8-2.7-1.3-3 1.4-3.2 2-.1 3.8-.9 5.6-.8.9.1 2.4 1.7 2.3 2.4-.3 3.2-1 6.3-1.7 9.4-.2.7-1 1.5-1.7 1.8-.3.2-1.7-.7-1.7-1 .5-5.7-3.2-2.5-5.8-2.6zM697.3 582c-3.3 2.7-6.5 5-9.4 7.7-1 .9-1.7 3-1.2 3.9.4.9 2.4 1.3 3.8 1.4 1.4 0 2.9-.3 4.2-.9.8-.3 1.3-1.3 2-2l-2.5-.7-3.1-1.4c1-.6 1.8-1.7 2.9-1.8 1.6-.2 4-.3 4.8.6a8.2 8.2 0 011.7 5.5c-.3 2.9-1.2 5.7-2.1 8.3-.3.8-1.8 1.5-2.8 1.6-.6 0-1.1-1.4-1.8-2.2-.7-.8-1.3-2-2.2-2.2-2.1-.6-4.6-.2-6.5-1.1-3.9-1.9-3.3-5.3-2.4-8.8 1.8-6.7 10-11.3 14.6-8zM679.3 588.9c-1.2 3.3-2 6.6-3.2 9.5-.7 1.6-2.3 3-3.8.5l-4.3-8.4-1.7-2.8c-.7.8-1.7 1.6-2 2.5-1 2.5-1.7 5.1-2.8 7.6-.4 1-1.4 2-2.1 2.8-.5-1.1-1.6-2.3-1.4-3.4.6-4.1 1.3-8.3 2.4-12.3.8-3 5-4 7-1.7 2.1 2.3 3.5 5.2 5.3 7.9.4.5 1.1.8 1.7 1.2.4-.5.9-1 1-1.6.4-2.4.4-5 1-7.4.4-1.1 2-2 3-3 .2 1.4.7 2.7.8 4 0 1.5-.4 2.9-.9 4.6zM467.3 550.2c3.4-2.1 5.7-2 6.6 2.3.5 2.6 1.5 5.2 2.4 7.7.3 1 1 1.7 1.4 2.6.4-1 1.2-2 1.3-3.1.2-3-.1-5.8.1-8.7.1-1 1.3-2 2-3 .6 1 1.6 2 1.6 3-.2 4.9-.4 9.8-1 14.7-.3 3-2.6 3.7-5 1.7-3.4-2.8-5-6.4-5-10.8-.1-.7-1-1.4-1.5-2-.4.7-1.1 1.3-1.2 2.1-.5 2.8-.6 5.6-1 8.3-.3 1.2-1.1 2.3-1.6 3.4-1-1.2-3-2.5-2.9-3.4 1-5 2.3-9.8 3.8-14.8zM698.5 566.5c-3.3 2.4-6.6 6-10 6-4.9-.1-7-4.4-4.3-11.3 1.3-3.4 4-6.5 6.4-9.3 1.8-2 4.2-2.6 7.2-1.4a6.3 6.3 0 014.2 7c-.4 3-2.3 5.7-3.5 9zm-9.7 2.8c2.9-3.3 6-6.6 8.7-10 .5-.7.5-3 0-3.2-1.1-.6-2.9-1-4-.6-4.2 1.7-7 9-4.7 13.8zM187.7 674.4c0-3-.1-5.7.1-8.3 0-1 1-1.8 1.6-2.8l2 3c.2.3 0 .9 0 1.3l.4 3c.9-.5 1.7-1.1 2.6-1.5 3.3-1.3 7.8-.7 8.5-5.8.8.7 2.3 1.5 2.2 2-.4 4.3-1.2 8.4-2 12.5 0 .4-.4.7-.6 1.1l-2.1 4.7c-.9-1.8-1.8-3.5-2.5-5.3-.3-1 .2-2.2 0-3.2-.3-1.2-1-2.3-1.5-3.4-.7 1-1.7 2-2.2 3.2-.8 2-1.1 4.4-2 6.5-.4 1.2-1.4 2-2.2 3-.8-1-2-2-2.2-3.1-.3-2.1 0-4.3 0-7zM504.6 570c-3.3 1-4 .3-3.2-3.3.2-.8-.2-1.7-.3-2.6-.5.3-1.1.5-1.6.9-4.2 3.3-8 3.8-10.7 1.5-3-2.5-3.7-8.6-.3-12.3 2.3-2.7 6-4.3 9.4-6 .6-.3 2.1 1 3.3 1.4-1 .8-1.8 1.9-2.9 2.1-4.4 1-6.8 4-8 7.8-.2 1.1 1.5 4 2.4 4 1.8.1 3.7-1.2 5.5-1.9l-1.7-1.5-1.8-2.3c.9-.5 1.7-1.2 2.6-1.4 6.4-1 10 5 7.9 12.1-.1.4-.2.8-.6 1.5zM339.6 605.5c.3-5.4.8-10.6 1.5-15.7.3-2.3 1.1-4.4 2-6.5.1-.4 1.5-.3 2.3-.5.7 5.8 6 3 9 5l2.6 1.7c-1.2.4-2.3 1.1-3.5 1.2-2.3.1-4.6-.2-6.8-.1-.8 0-1.5.8-2.2 1.2.7.5 1.3 1.2 2 1.4 1 .2 2-.1 2.8 0 1.5.4 2.9 1 4.3 1.5-1.6.8-3 2-4.6 2.1-3 .3-6.4-.3-6.4 4.3l-.2 1.6 1.6-.3c2.8-.6 5.6-1.3 8.5-1.6.5 0 1.8 2 1.6 2.4-1 2.2-12 4-14.5 2.3zM278.8 610.5c-4.1.8-7.5.3-9-4-1.7-4.5 0-8.7 2.5-12.4 2.5-3.7 6.6-5.7 11-5.2 1.8.2 4.5 2.8 4.7 4.6.7 7.4-2.7 13-9.2 17zm5.7-16.8c-.4-.4-1-1.3-1.2-1.2-2.6 1.1-6 1.8-7.4 3.8-1.7 2.2-2 5.7-2.1 8.6 0 1 2.6 4 4.4 1.4 2.5-3.6 4.3-7.8 6.3-12.6zM539.9 562c1.2 1.5 2.7 3.8 2.8-.2 0-3.1-.4-6.2 0-9.2.3-1.6 1.9-3 2.8-4.5.6 1.5 1.8 3.1 1.7 4.6-.7 5.4-1.7 10.9-2.7 16.3-.4 2-1.7 3.3-3.3 1-1.6-2.2-2.7-5-4-7.4l-2-3.5c-.6 1.1-1.3 2.2-1.7 3.3-.7 1.7-1.1 3.6-2 5.2-.4.7-1.5 1.1-2.3 1.6-.4-.8-1.4-2-1.2-2.6 1.9-5 3.7-10.1 6.1-15 1.6-3 3.3-.6 3.8 1 1 2.8 1.4 5.9 2 9.3zM197 647.6v-8.2c0-5 4.5-7.7 9-5.3 3.7 2 5 6 3 9.6-1.3 2.4.3 3 2 4 2 1 3.6 2.6 5.3 3.9l-7-.3c-.7 0-1.6 0-2.1-.4-3.6-3.3-6.8-5.3-7.5 2 0 .5-1.1 1.2-1.4 1.1-.8-.4-2.1-1-2.2-1.7 0-1.4.5-2.8.8-4.7zm5-10l-.5 4 5-.2-2-3.2c-.3-.4-1-.5-2.5-.7zM44 560c-4.7-1.5-3.4-5.7-4.7-8.7l-1.3-3.1c-.5 1-1.3 2.2-1.4 3.3-.2 2.8.2 5.6-.2 8.3-.1 1-1.4 2-2.2 3-.5-1-1.3-2-1.3-3 .2-4.4.4-8.7 1-13 .1-1.4 1.1-2.9 2.1-4 .6-.7 2-1.3 2.7-1 .7.2 1.2 1.5 1.5 2.4.4 1.8.5 3.7 1 5.5.2.8 1 1.3 1.4 2 .5-.8 1-1.5 1.3-2.3.4-1.5.3-3.3 1-4.6.6-1 2-1.5 3.1-2.2.5.8 1.3 1.6 1.4 2.5.4 4 .8 8 .9 12 0 1-1 2-1.4 2.9-.4-1-1-1.8-1.3-2.7v-1.8c-.3-1-.9-1.8-1.3-2.7-.5 1-1.2 1.9-1.4 2.9-.4 1.4-.4 2.9-1 4.4zM821 550.8l-3.3 2.6c1.2.1 2.5 0 3.8.3.8.3 1.5 1 2.3 1.5-.6.4-1.2 1-1.9 1.1-1.3.5-2.9.4-4.1 1a10 10 0 00-3.1 2.9c-.2.3.4 1.9.6 1.8 1 0 2.2-.3 3.2-.8 1.6-.8 3.1-2 4.8-2.8.9-.4 2 0 3 0-.3.9-.5 2-1.1 2.5-3 2-5.9 4.6-9.2 5.4-4.3 1-6.9-2.6-5.7-7 1-3.3 1.5-6.7 2.5-10 .6-1.6 1-3.3 4-2.5 3.4.9 7.3.2 11 .4.7 0 1.4.7 2.2 1-.6.6-1.2 1.5-2 1.7l-7 1zM321.4 512.1c0-2.4.5-4.7-2.6-4.6-2.1.1-4.8-.8-4.8 3 0 1.5-.8 3-1.4 4.4-.5 1-1.3 1.8-2 2.6-.7-1.2-2.2-2.6-2-3.6 1.3-5.3 3-10.5 4.6-15.6.2-.8 1.4-1.2 2.1-1.8l1.5 2.5c.7 1.6 1.1 4.5 2 4.6 2.7.4 3.2-1.9 3.7-4.4.3-1.4 2.6-2.4 4-3.6.5 1.5 1.5 3 1.2 4.5a150 150 0 01-3.4 14.1c-.4 1.3-1.6 2.3-2.5 3.4l-.4-5.5zM92.8 576.7c.7-2.8 1.5-5 2.2-7.4 3 1.6 2.5 4.3 2.4 6.8-.3 5-.5 9.9-1 14.8-.2 1.1-1.4 2.1-2.2 3.2-.5-1-1.2-1.9-1.4-3-.2-1.6.4-3.5-.1-5s-2-2.6-3-4c-.8 1-2.2 2-2.3 3-.4 2.1 0 4.4-.2 6.5-.2 1-1.2 1.7-1.9 2.6-.6-.8-1.6-1.5-1.7-2.3l-.9-18c0-.9 1-1.8 1.6-2.8.7 1 1.6 2 2 3 .6 1.7 1 3.5 1.5 5.3 1.6-.7 3.3-1.5 5-2.7zM211 579.7c-.9 3.6-1.4 7-2.3 10.4-.1.6-1.6 1.4-2 1.2-1.3-.6-2.7-1.5-3.2-2.7-.7-1.7-.6-3.7-1-5.5-.3-.7-1.2-1.2-1.8-1.8-.3.7-.8 1.3-1 2-.3 2-.4 4.1-1 6-.2.9-1.3 1.4-2 2.1-.5-.8-1.6-1.7-1.5-2.3 1-4.8 2-9.6 3.3-14.3.3-.9 2.1-1.5 3.3-1.7.4 0 1.1 1.8 1.6 2.8l2.9 6.3c.5-2.1 1-4.3 1.7-6.4.9-2.4 1.8-4.8 3-7 .3-.6 1.6-.7 2.5-1 0 .9.5 1.8.3 2.6-.8 3-1.7 6-2.8 9.3zM409 597c0 7.3-4 9.6-11.8 7-8.3-2.7-8-9.1-4.2-15.3 1.3-2.2 3.8-3.7 6-5.1.7-.5 2.3.5 3.4.8-.5.8-.9 1.7-1.5 2.4-1.8 2.2-4 4.2-5.3 6.6-1 2-1.3 4.3 2 5.7 3.2 1.3 5-.1 6.9-2 0 0-1-1.4-1.8-2-.8-.6-1.9-1-2.9-1.5 1.1-.7 2-1.9 3.3-2.1 3.4-.8 5.6 1.2 5.9 5.4zM599.8 592.3c1.6 1.1 2.6 2.2 3.7 3.2-1.7.2-3.4.8-5 .4-2.6-.6-5.4-1.4-7.5-2.9-2-1.5-2.8-1.9-3.3.9a10 10 0 01-.8 2.4l-2 3.4c-.9-1.4-2.6-3-2.4-4.3.5-4.8 1.5-9.7 2.7-14.5.3-1.3 2-2.2 3-3.3.3 1.5.8 3 1 4.6l.1 4.6c1-.8 2.2-1.5 3.2-2.4 2-1.6 3.8-3.3 5.9-4.8.5-.3 1.8.4 2.7.7-.3.6-.4 1.4-.9 2l-4.5 4.5-3 2.6 4.3 2c.8.4 1.6.6 2.8 1zM609.3 551c5.9-1.3 7.9.2 9 6.5.1.6.8 1 1.3 1.6.5-.5 1.2-1 1.4-1.6.4-1.8.4-3.8 1-5.5.3-.9 1.6-1.4 2.4-2 .4.7 1 1.4 1.2 2.2.8 5.7-2.8 10.1-4.9 15-.3.6-2.2 1.3-2.5 1a8.6 8.6 0 01-2.6-3.7c-.7-2.4-.7-5-1-7.4-.2-.6-1-1-1.4-1.6-.5.5-1.3.9-1.5 1.5-.7 2.2-1 4.5-1.8 6.6-.6 1.5-2 2.6-3 3.8-.5-1.4-1.7-3-1.4-4.3.9-4 2.3-7.9 3.8-12zM783.3 517.7c1.8 0 3.2-.3 4.6 0 1.6.4 3 1.1 4.6 1.7-1.5.6-2.9 1.5-4.4 1.9-1.8.5-4 .3-5.5 1.1-1.3.7-2 2.5-3 3.8l4.2.6c.2 0 .5-.6.6-.6 1.4.2 2.8.6 4.1.9-1.1.8-2.1 2-3.4 2.5-1.8.6-4 .2-5.5 1.1-1.3.7-2 2.6-2.7 4.1-.2.4.6 1.2 1 1.9.5-.3 1.1-.5 1.6-1 2-2 3.8-3.9 7-2.4-1.5 1.9-2.8 4.2-4.7 5.4-1.9 1.3-4.2 2.9-6.9.6-2.9-2.4-1.9-5.6-1.5-8.4.4-3 1-6.4 2.7-9 1.4-2 4.4-2.8 7.2-4.2zM532.3 594.9c-2.2 2.7-3.8 5.9-6.4 7.3-2.2 1.3-6.3 1.5-8.1.2-1.7-1.2-1.7-5-1.7-7.8 0-1.7 1.3-3.4 1.6-5.2.6-4 2-7.3 6.8-7.1 4 .1 7.8 4.5 8 8.7 0 1.2 0 2.4-.2 3.9zm-10.8-2.1c-.5 1.3-1 2.7-1.3 4-.2 1-.1 2-.2 2.9 1-.1 2.2 0 3-.3 1.2-.5 2.8-1.2 3.2-2.3.9-2.2 1.6-4.8 1.5-7.2 0-1-2.3-2-3.5-3.1-1 1.7-1.8 3.4-2.7 6zM503.2 500.8c1.2 1.5 1.5 5.3 3.7.8.7-1.4 3.7-2.5 5.3-2.1 1.5.4 3.1 2.7 3.6 4.4.6 2.5.3 5.2 0 7.8 0 .8-1 1.5-1.7 2.3-.6-.7-1.7-1.4-1.8-2.2 0-1.5.7-3.1.7-4.7 0-1-.4-2.3-1.2-3-.4-.4-2.2 0-2.6.6-1.6 2.4-2.9 5-4.4 7.4-.6 1-1.4 1.9-2.1 2.8-.5-1.2-1.3-2.3-1.4-3.5-.2-1.6.3-3.2.3-4.8 0-.9-.4-1.7-.7-2.6-.8.4-2.2.7-2.4 1.3-.7 2.2-.9 4.6-1.5 6.8-.3 1-1.2 1.9-1.9 2.8-.4-1-1-2-1.3-3-.2-1.3 0-2.5 0-3.8 0-9 0-9 9.4-7.3zM643.8 510.5c-.6-5.4-1.6-10.6-1.1-15.6.3-2.9 3.1-5.5 6.9-3 2.8 1.8 6.2 3.2 8.1 5.8 2.8 3.6.6 7.4-2 10.6-3.2 4-7 4.8-11.9 2.2zm4-2.5c4.6-.7 7.8-4.6 6.2-8.5-.6-1.7-3-2.9-4.8-3.7-.6-.3-3 1.2-3 1.9.1 3.2.7 6.5 1.6 10.3zM340.8 526c3.6 2.9 3.8 5.9 1.2 9.4-1.6 2.2-2.2 4.2 2 4.6 2 .1 3.8 2.2 5.6 3.4-2.2.2-4.5.7-6.8.7-1.3 0-2.6-1-4-1.5-1.8-.8-3.4-.5-4.5 1.4-.6.9-1.5 1.5-2.2 2.2-.5-1-1.4-2-1.4-3 .1-3.7 0-7.5 1-11 1-4.1 5.3-4.7 9-6.2zm-1 6.9l-.6-2.3c-1 .8-2.2 1.5-3 2.5-.3.3.2 1.3.3 2 1-.6 2-1.2 3.3-2.2zM162 549c0 3 .2 5.4-.2 7.8-.3 1.5-1.4 3.6-2.6 4-1.3.4-3.2-.8-4.8-1.4-.5-.2-.9-.9-1.3-1.2l-3.5-2.7c-.2 1.4-.2 2.8-.6 4.2-.4 1.4-1.2 2.7-1.8 4-.6-1.3-1.7-2.6-1.8-4-.3-3.4-.3-7 0-10.5.2-1.3 1.6-2.6 2.4-3.9.7 1.1 1.4 2.3 2.2 3.3 2.1 2.5 4.3 5 6.5 7.3.1.1 1.7-.7 1.6-1-.1-3.3-.7-6.6-.7-9.8 0-1.5 1.2-3 1.8-4.4 1 1.4 2 2.7 2.6 4.2.4 1 .1 2.4.1 4.1zM433.9 550c.9 1.6 1.6 3.2 1.7 4.9.1 1.5-.7 3.1-.7 4.7 0 1.4.4 2.8.6 4.2.8-1.3 1.7-2.4 2.4-3.7.4-.6.3-1.5.6-2 .7-1.2 1.6-2.3 2.4-3.5l2.2 3.8c.4.8.6 1.7.8 2.6.4-.8.7-1.7 1.2-2.4l3.2-4.9c0 1.9.6 3.8.2 5.5-.5 2.5-1.6 4.9-2.7 7.2-.4.8-1.3 1.3-2 2-.6-.8-1.2-1.6-1.6-2.5l-1.4-3-2 2.8-.3.3-4.2 5.1c-1-2.3-3-4.6-3-7 0-4.7-2-10 2.6-14.2zM33.8 703.9V696c0-4.6 4.9-7.3 9-5l.2.4c.7 2.5 1 5.2 2 7.4 1.3 2.2 3.2 3.6 1.9 6.9-1.6 4-3.6 6.8-8 6.3-4.5-.5-5.8-3.7-5.1-8.2zM42 707l1.1-4.4c-1.4 0-3.3-.4-4.2.3-1 .9-1 2.8-1.4 4.2 1.3.1 2.7.3 4.5 0zm-2.3-8.7l1.7-3.9c-1 .1-2.6 0-2.8.4-.3 1 0 2.3 1 3.5zM214.5 665.2c-1 1-1.4 2-1.9 3 1.1.3 2.3.7 3.4.6 1.2 0 2.5-.8 3.7-.8 1 0 2 .9 3 1.4-.9.7-1.7 1.7-2.7 2.1-1 .5-2.6 0-3.5.5-1.5 1-2.6 2.5-3.9 3.8 1.6 0 3.1-.2 4.7 0 .8 0 1.7.4 2.5.7l-1 2.2c-.2.4-.5.8-.9 1-2.3 1-4.6 1.8-7 2.7-.6-2.4-1.6-4.9-2-7.4-.4-3.7-.6-7.4-.7-11.1 0-.8 1.1-2.2 1.9-2.3 3.6-.6 7.3-.9 11-1 .9 0 1.7 1.2 2.6 1.9-1 .6-1.8 1.4-2.7 1.7-2 .5-4 .7-6.5 1zM43.2 591.2c-.2-3.2 0-6-.3-9 0-1-1-1.8-1.6-2.8-.7 1-1.8 2-2 3-.2 3 .2 5.9 0 8.8-.2 1-1.3 2-2 3-.6-.8-1.6-1.5-1.6-2.3-.1-6.3-.2-12.6 0-19 0-.9 1.5-1.8 2.2-2.7l1.4 3.1c.2.7-.1 1.6 0 2.3.2.7.7 1.3 1 2 .7-.6 1.7-1 2-1.7.4-1.2.2-2.7.8-3.8.7-1.1 2-1.9 3-2.8.4 1.2.9 2.5 1 3.7l.1 13.9c0 1.4.6 3 0 4.3-.8 1.7-2.3 2.6-4 0zM82.4 514.7c2.8-1.5 5-1.8 7.6.5 2.4 2.1 2.3 4.4.5 6-4 3.3-1.7 5.2.8 7.5.8.7 1.2 2 1.8 2.9-1.4 0-3.1.4-4.2-.2-1.7-1-3-2.7-4.4-4-.5-.5-1.3-.6-2-.9 0 .7-.5 1.6-.3 2.2.7 2 1 4.1-1.6 4.4-.7 0-2.2-2.5-2.5-4-.4-2.7.2-5.5-.1-8.2-.4-3.4.7-5.4 4.4-6.2zm1.2 6.2c1.1-.5 2.5-.7 3.5-1.5.5-.4 1-2.1.6-2.5-.8-1-4.3 1.8-4.1 4zM51.3 610.8v-2.3l1-4.7c1 1.1 2 2.3 3.2 3.3L59 610c0-1.6 0-3.1.2-4.6.2-1.6.6-3.1 1-4.7.8 1.2 2.2 2.3 2.3 3.6.5 5.8.7 11.7.7 17.6 0 1.6-1.4 2.4-2.5.6-1.4-2.3-2.3-4.8-3.6-7.2-.5-1-1.4-1.7-2-2.6-.4 1-1 2-1 3-.1 2.3.2 4.6-.1 6.9-.2 1-1.2 2-1.9 3-.6-1-1.7-2.1-1.6-3.1 0-3.8.5-7.5.8-11.6zM671.5 524.8c-2.5 1.7-2.7 3.1-.3 4.8 1 .8 1.6 2 2.4 3.2 2.9 4.4 2.6 6.9-1 8.8-3.6 2-9.2.6-10.7-3-.2-.4.2-1.4.6-1.5.8-.2 1.8-.1 2.7 0l5.6.1c-1-1.6-1.8-3.4-3.2-4.6-2.6-2.4-4.6-4.7-2-8.3 2.8-4 10-7.2 13.2-5.5.8.4 1.3 1.4 2 2.2-.7.4-1.4 1-2.2 1.2l-7.1 2.6zM431.3 528l3.1-2.9c.5 1.2 1.4 2.5 1.2 3.6-.8 5.5-1.8 11-2.9 16.3-.2.8-1.4 1.4-2.2 2-.4-.9-1-1.7-1.2-2.7-.2-1.6 0-3.4 0-5-.2-.8-.9-1.5-1.3-2.3-.8.7-1.7 1.3-2.4 2.1-.3.4.2 1.3 0 1.8l-2.4 5.2c-.8-1.8-2-3.6-2.1-5.5-.2-4.4-.3-9 2.9-12.5.3-.4 1-.5 1.6-.7l.5 1.3 1.4 4.6c2.2-1 4.4-1.9 3.8-5.3zM360.1 555.5c1.9.5 3.2 1.1 4.6 1.7-1.3.6-2.5 1.6-3.9 1.9-1.5.3-3.3-.4-4.5.2-1.2.6-1.8 2.4-2.6 3.6 1 .3 2.2 1 3.2.8 2.9-.4 5.7-1.3 8.5-1.7.9-.1 1.8.7 2.8 1-.7.6-1.3 1.3-2 1.6-2.9 1.4-5.8 3.6-8.6 3.5-5.3-.1-5.2 3.2-5.8 6.5-.2.7-1 1.4-1.4 2-.7-.7-2.2-1.5-2.2-2.1.5-5.5 1-11 2-16.3.2-1.1 2.4-2.2 4-2.6 1.7-.5 3.6-.1 6-.1zM324 607.3c-6.3-7.2-.4-17.5 5.3-21.3 1-.6 2.7-.4 4 0 1 .3 1.9 1.4 2.8 2.1-1 .5-2 1.3-3 1.4-5.4.8-9.8 8.8-7 13 .6 1 2.9 1.7 3.4 1.3 1.2-1 2-2.5 2.5-4 .2-.8-.6-1.9-.9-2.9 1.5.3 3 .2 4.3.8 2.8 1.2 2.2 8.1-.3 8.8-3.5 1-7 4.1-11.2.8zM629.3 564.7c1.3-3.3 2.5-6.3 4-9 1.3-2.3 2.6-5.8 6-4.6 2 .6 4 3.4 4.2 5.4.5 4.7 0 9.5-.5 14.2 0 .7-1.6 1.3-2.5 2-.4-1.5-1.4-3.2-1-4.2 1.4-2.8.5-3.2-2.2-4-2.3-.8-2.8-.6-3.4 1.4-.1.4-.5.7-.8 1l-4.5 4.9c-2.6-2.6.1-4.5.7-7.1zm7.9-1.9c3.5-1 2.8-4.2 3.1-6.8 0-.4-1-.9-1.5-1.3l-3 6c-.2.6.3 1.4 1.4 2.1zM276.2 566.5c-2.7 4.6-5.8 8.3-10.8 9.4-1.6.4-3.3.1-5 .1 0-1.4-.1-3 .1-4.3.6-3.5 1.6-6.8 1.8-10.3.4-5 4-4.5 7-4 3.1.6 6.7 1.4 7 6v3.1zm-7.8 3.7c1.4-1.4 3-2.7 4.1-4.2.4-.6.3-2.5-.1-2.7-1.4-.7-3.2-1.6-4.4-1.2-1.2.3-2 2.1-2.8 3.4-.5 1-.7 2.2-.9 3.3l.2 3c1.1-.3 2.3-.7 3.9-1.6zM160.3 701.3l-1.5 1.6-2.4 2.6c1 .7 2.1 1.5 3.3 2 1.6.9 3.3 1.6 5 2.4-.3.6-.7 1.8-1 1.8-2 0-4-.2-5.8-.5-.7-.1-1.1-1-1.7-1.5l-2.2-1.1-.4 2.1c-.3 1.1-.8 2.1-1.2 3.2-.8-1.1-2.3-2.2-2.4-3.3-.2-4.4-.2-8.9 0-13.3.1-3 4.3-5.5 7.9-4.4 2.5.9 4.8 2.6 3.1 6.1-.3.7-.3 1.4-.7 2.3zm-4.8-4.3l-1.5 4 3.4-2.3c-.5-.7-1-1.5-2-1.7zM147.2 586.8c1.6-1.1 6.5-1.5 1.2-4-.5-.1-.8-.8-1.1-1.2.6-.4 1.4-1.3 1.7-1.2 1.6 1 3.4 1.9 4.5 3.3.6.7.5 3.1 0 3.4-2.1 1.1 2 10.6-5.6 4.4-.4-.4-1.5 0-2.2 0-6.7-.2-9.2-3.9-7-10.5 2.6-7.8 4.2-9.5 9.2-8.9 1 .2 2 1.3 3 2-1 .5-1.8 1.4-2.8 1.6-4.1.7-7.6 7.8-5 11 .4.6 2.3 0 4 .1zM279.2 498.5c2.7-.8 5.6-2.4 7.6-1.7 1.6.7 3 4 3.1 6.2.6 6.7-4.5 12.7-9.8 12.9-3.5.1-4.3-2-4.8-4.5-.7-4.7 1-8.9 4-12.9zm6.2 6.7v-3.8c-1.4.5-3.5.7-4 1.7-1.2 2-1.8 4.5-2.3 6.8-.2.7.4 1.5.7 2.2.8-.3 1.9-.3 2.3-1a24 24 0 003.3-5.9zM301.1 595.1c-1.8.4-3.5.5-4.4 1.4-.8.7-.8 2.4-1.1 3.6 1.1.1 2.3.4 3.4.3 2.3-.1 4.7-.6 7-.6.9 0 1.7 1 2.5 1.5-.8.7-1.5 1.7-2.4 2-1.6.6-3.4 1-5.1 1-3.4 0-5.4 1.7-6.4 4.8-.3 1-1.2 1.7-1.9 2.6-.5-1-1.7-2.1-1.6-3.2 0-5 .2-10.2 1-15.3.2-1.5 1-6 4.8-2.1.6.7 2.6.1 4 .3l4.5 1.1c-1.3.9-2.5 1.7-4.3 2.6zM235.4 667.2c2 3.4 5.4 6.1 2.2 10.5-2.4 3.2-7.1 6-10.8 4.8-1.3-.4-3-2.7-3-4 .1-4 1.3-7.9 1.5-11.8.2-3.8 2.2-3.4 4.6-2.4 1.8.7 3.5 1.8 5.5 3zm-6.6 11.8c1.9-1.3 4.3-2.3 5.5-4 .5-.8-1.5-3.4-2.6-5-1-1.3-2.3-2.4-2.5.7-.2 2.6-.6 5.2-.4 8.3zM637.8 508.7c-.5 1.8-1.1 3.7-2.7 1.2-1.6-2.4-2.7-5.3-4-8-.3-.7-.4-1.6-.9-2.3-.5-.8-1.2-1.5-1.8-2.2-.3.8-1 1.7-.9 2.5.2 2.4.7 4.7.8 7 0 .8-.6 1.6-1 2.5-.8-.6-2.4-1.2-2.5-1.9-.5-4.1-.8-8.3-1-12.5 0-.7 1.6-2.2 2.2-2.1 2 .3 4.2.7 5.6 1.9 1.5 1.3 2.2 5.3 3.6 0 .2-.5 1.7-1.2 1.8-1 .6.7 1.5 1.6 1.5 2.4 0 4.1-.3 8.2-.7 12.5zM585 566.5c-.7 1.6-1.4 2.6-2.1 3.7-.5-1.1-1.4-2.3-1.4-3.4 0-2.2.8-4.4.7-6.5-.1-1.7-1.2-3.2-1.9-4.8-1.5 1.2-4.7.4-4.6 4.1 0 3.3-1 6.6-1.7 9.8-.2.7-1 1.2-1.4 1.7-.5-.7-1.2-1.4-1.3-2.2-.2-2.3-.3-4.6 0-6.8.4-2.9 2.6-6.1-2.8-6.3-.3 0-1-1.4-.8-1.7.5-.6 1.3-1.3 2-1.3 4.4-.2 8.8-.3 13 0 1.2 0 3.1 1.4 3.1 2.2 0 3.7-.4 7.4-.7 11.5zM388.5 599.5c-2.5-.2-4.9-.1-6.8-1-2.9-1.2-5.4-3.5-6.2 1.9-.1.7-1.4 1.3-2.2 1.9-.4-.9-1.2-1.8-1.1-2.7.1-3.4.2-6.9 1-10.2.5-2.9 12.7-5.6 14.2-3.1.8 1.2.6 4-.3 5.1-3.1 3.7-1 5.7 1.4 8zm-5.3-11.3c-1.3 1-2.7 1.8-3.8 3-.3.2.2 1.2.3 1.8 1.6-.8 3.3-1.5 4.7-2.5.3-.2-.5-1.8-1.2-2.3zM80.8 703c.7-4.5 1.5-9 6.1-10 5.6-1.4 10.1 4 8.6 9.8-.6 2.1-.8 4.7-2.2 6.3-1.4 1.6-4.3 3.3-5.9 2.8-2.2-.7-4-3.3-5.6-5.3-.7-.7-.7-2-1-3.6zm6-4.6c-.4 2.6-1 5.3-1 8 0 .7 1.7 1.4 2.6 2 1.4-2.5 3.8-5 4-7.6.3-2-1.8-4.7-5.6-2.4zM622 503.8c.2 2.4.8 4.2.8 6.1 0 1-.8 2-1.3 3.1-.8-.9-1.8-1.6-2.2-2.7-.4-.9.2-2.2-.2-3.1-.8-2.4-5-3-6.5-.9-1 1.4-1.7 3-2.7 4.4-.6.9-1.6 1.4-2.5 2.1-.4-1.2-1.4-2.7-1-3.6 1.9-5.2 4-10.3 6.4-15.3.6-1.3 2.3-2.8 3.4-2.7 1.1 0 2.5 1.8 3 3.2 1.2 2.9 1.9 6 2.7 9.4zm-7.4-1.4c3.6.8 2.8-2.5 3.6-4.2.1-.3-.7-1.1-1.1-1.7l-2.5 4.1v1.8zM74.6 562.1c-1.2-.7-2.8-1.6-3-2.6-.2-4.3 0-8.6 0-12.9 0-4.2 3.4-6.2 7.5-4.3 6 2.7 6.6 8.7 2.6 14.3-1.6 2.3-4.6 3.6-7.1 5.5zm1.6-15.4c-.6 2.6-1.4 5.2-1.8 7.9 0 .5 1.4 1.2 2 1.8 1.2-2.2 2.7-4.4 3.4-6.7.6-2.2-.5-3.8-3.6-3zM561.1 556.4l1.8 13.5c0 .6-.8 1.6-1.4 2-.3.3-1.7-.4-1.8-.8l-1.4-8.3-.8-5.5c-.6 1.8-1.2 3.5-2 5.3-.8 2.2-1.7 4.5-2.8 6.6-.3.8-1.3 1.3-2 2-.5-1-1.7-2.2-1.5-3 1.5-5.8 2-12 6.9-16.4 1-.9 2.4-1.2 3.7-1.8.4 1.4 1 2.7 1.3 4v2.4zM499.6 588.4c-.6-1.3-1.2-2.4-1.1-3.5 0-1 .8-1.8 1.3-2.7.7.6 1.7 1 2.3 1.7.5.6.4 1.7 1 2.3.6.9 1.6 1.5 2.5 2.2l1.1-2.8c.2-.5.2-1.2.5-1.6l5.4-4.6c-.3 1.9-.3 3.8-1 5.6-1.9 6-3.9 12.2-6.2 18.1-.5 1.3-2.4 2-3.6 3-.5-1.4-1.2-2.8-1.5-4.3-.1-.5.5-1.3.9-1.9 2.3-4 2.4-8-1.6-11.5zM441.3 531.5c1-2.5 1.9-4.7 3.3-6.4 1-1 3.2-2.1 4.1-1.7 1.3.6 2 2.6 2.6 4.1.4.8 0 1.8 0 2.8 0 2.5.8 4.3 3.8 4 .6 0 1.2.5 1.8.7-.5.4-1 1-1.5 1-2.8-.1-3 1.5-3.2 3.8 0 1.2-1 2.4-1.6 3.7-.7-1.3-1.8-2.6-1.9-4-.3-3 0-6.2-.1-9.3 0-.8-.4-1.6-.6-2.4-.7.6-1.8 1.2-2 2-1.7 4.3-3.1 8.8-4.8 13.2-.4 1-1.7 1.5-2.6 2.3-.3-1-1.2-2-1-2.9 1-3.5 2.4-7 3.6-11zM709.8 529l1.5-2.5c.8-.9 1.9-2.3 2.6-2.2 1 .2 1.9 1.5 2.4 2.5.6 1.2.6 2.6 1 3.7.4.8 1.3 1.3 2 2 .4-.8 1-1.5 1.2-2.2.5-1.7.5-3.5 1-5.1.4-.8 1.4-1.4 2.1-2 .5.8 1.7 1.8 1.5 2.4-1.6 5.1-3.4 10.2-5.2 15.3-1.3-.6-3.3-1-3.8-2-.8-1.7-.7-4-1-6l-1.1-2.3c-.6.8-1.4 1.5-1.7 2.3-.4 2-.5 4.1-1 6-.3 1-1.2 1.8-1.8 2.7-.6-1-1.8-2.1-1.7-3 .3-3.2 1.1-6.3 2-9.6zM182 653.9c-3.5 1.3-6-.3-6.2-4-.3-3.8 0-7.7 0-11.5 0-3.9 3.4-3.4 5.7-4.2 1.5-.5 3.3-.5 4.9-.3.8.1 1.5 1 2.3 1.7-.7.6-1.3 1.5-2.2 1.8-.8.4-2-.2-2.7.2-1.2.7-2.3 1.9-3.4 2.9l3.6.7 3.6 1.3-3.2 1.6c-1 .5-2.4.6-3 1.4-.8.7-.8 2-1 3.2.7 0 1.5-.2 2.3-.1l4.1.7-2.9 3-2 1.6zM94 649.7l-1.3 2.1c-3-2.9-8.5.5-11-4.1-2-3.7-1.9-11 .5-14 2.5-2.9 5.7-1.9 8.7-1.2.7.2 1.2 1.3 1.7 1.9-.9.4-1.7 1.1-2.7 1.2-4.7.6-7.3 4.5-5.4 8.8.5 1 1.7 2 2.7 2.2 1.1.1 2.4-.7 3.6-1.1-.4-.9-1-1.7-1.3-2.5-.2-.8-.4-1.9 0-2.5.3-.6 1.7-1.3 2-1 1.2.7 2.8 1.7 3 2.8.3 2.4-.2 4.8-.6 7.4zM113.7 551c-.5 4.2-3.5 2.5-5.6 2.5-6 .3-6 .1-6.1 6.3 0 1 .2 2 0 2.7-.4.9-1.3 1.5-2 2.2-.5-.8-1.6-1.5-1.6-2.3-.2-2.9 0-5.8-.1-8.7-.1-1.7-.5-3.4-1-5.1a5 5 0 014.6-6c2.2-.3 4.4-1 6.5-.9 1.3 0 2.5 1 3.7 1.6-1.1.7-2.2 1.6-3.4 2-1.7.5-3.5.4-5 1-.8.3-1.2 1.6-1.7 2.4.7.4 1.5 1 2.2 1.2 3.1.4 6.2.6 9.5 1.2zM181.3 663.3c1.2.4 2 .8 2.7 1.2-1 .8-1.8 2-3 2.4-1.6.8-3.5 1-5.3 1.6-.3.2-.7 1.6-.4 2 .3.6 1.4.7 2.2.8l6.5.8c-2 .7-4 1.4-5.9 2.3-1.4.6-2.7 1.5-4.1 2.2.5.8.8 2 1.5 2.3 1.5.7 3.2 1 4.8 1.5-2 1-4 2.7-6 3-1.3.1-3.9-2-3.9-3-.1-5.2.3-10.3.9-15.3 0-.7 1.6-1.6 2.6-1.7 2.3-.2 4.6 0 7.4 0zM548.2 587.7c2.4-6 5.7-8.7 10-8.2.9 0 1.8.7 2.7 1.1-.8.8-1.4 1.8-2.3 2.5-.7.5-1.9.5-2.8 1-3.6 1.8-4 4-1.3 6.7l.4.4 4.2 7.3c-2.8.4-5.6 1.4-8.2 1-2.8-.3-5.4-1.7-8-2.9-.5-.2-.8-1.1-1.2-1.7.7-.3 1.3-.8 2-.7 2 .3 4.1 1 6.3 1.3l2.2-.3c-.3-.6-.4-1.3-.8-2-1-1.6-2.1-3.3-3.2-5.5z"/>
  <path fill="#00EBAB" d="M762.3 511c1-4.6 2-9.1 3.8-13.3.6-1.4 3.2-2 5-2.9 1 1.9 2.7 3.8 2.7 5.7 0 1-2.8 2.1-4.1 3.4-1.4 1.3-2.6 2.8-4 4.3 1.3.7 2.6 2 3.8 2 2.4 0 4.9-.9 7.3-1.2.8-.1 1.7.4 2.5.6-.2.7-.3 1.7-.8 2.1-5 4.5-11.2 4.2-16.2-.7zM707 553c2.8-1 3.5-.6 3.1 1.4-.5 2.7-1.2 5.4-1.4 8-.1 1.6.6 3.2 1 4.7.8-1 1.9-2 2.6-3.3 2.2-4.1 4.2-8.3 6.5-12.5.3-.4 1.2-.5 1.9-.8.2.6.8 1.4.6 1.9-2 6.3-4 12.7-9 17.4-2.8 2.5-6 1.9-6.3-1.7-.4-5 .5-10 1-15.2zM53.4 698.1c2.9 4.2 4 2.3 5.1-.9.8-1.9 2.3-3.5 3.5-5.2.1 2.1.6 4.3.3 6.4-.7 5-1.7 10-2.8 15-.2.9-1.5 1.6-2.3 2.5L55 713v-.4c2.6-6.3-2.4-9.3-5.6-13-.4-.4-1-.8-1.2-1.3-.3-1-.3-2.3-.5-3.4 1 .2 2.2.2 3.1.7 1 .5 1.6 1.4 2.6 2.4zM91.2 608.7c4 3.3 3.4 7.6 3.3 11.8 0 .3-1.8.5-2.7.8-.3-1.1-.5-2.3-.9-3.3-.5-1.3-1.3-2.4-1.9-3.5-1.2 1-2.6 2-3.5 3.3-.7.8-.6 2.2-1 3.2s-1 1.8-1.4 2.7c-.8-1-2.2-1.9-2.2-2.8.2-6.2 2.1-12 5-17.4.2-.3 2.5-.2 3 .3 1 1.3 1.4 3 2.3 4.9zM58 675.5c.7-3.4 1-6.6 1.6-9.8.2-1 .8-2 1.2-3.1.8.7 2 1.4 2.4 2.3 1.1 2.2 1.8 4.5 2.9 6.7.4.8 1.4 1.2 2.1 1.9.2-.9.6-1.7.6-2.5-.2-2.3-.9-4.6-.8-7 0-1.1 1.2-2.3 1.8-3.4.6 1 1.5 2 1.7 3.2.5 2.9.6 5.9 1 8.8.3 2.5-.2 5.1-2.8 5.2-1.8.1-3.7-1.8-5.5-3-.6-.5-.8-1.5-1.3-2.3l-1.5 2.6v.9l-2 4.8c-.5-1.7-1-3.3-1.4-5.3zM174.1 700l2.2 3c2 2.2 4.7 4.5 2.3 7.6-2.5 3-6 1.9-9 .6-.7-.2-1.5-.5-1.8-1-.8-1.4-1.4-2.8-2-4.2l4.3 1 3.2.7c-.3-1.1-.5-2.4-1.2-3.2-5-5.4-5.3-8-.6-11.3 1.6-1.2 4.4-1 6.7-1 .4 0 1.3 1.4 1.2 1.6-.6.7-1.4 1.6-2.3 1.7-2.6.4-4.8.7-3 4.5zM286.6 558.5c1.6 1 4 2 4.2 3.4.5 4.3.2 8.8.1 13.3 0 .7-.7 1.5-1.1 2.2l-1.6-1.8c-.4-.5-.5-1.3-1-1.8-.8-1.3-1.8-2.4-2.8-3.6l-2.3 3-3.9 4c.2-2 0-4.2.5-6.2a19 19 0 012.2-6.4c1.5-2.2 3.6-4 5.7-6.1zm.7 7.6l-.7-2.3c-.7.4-1.8.8-2 1.4-.3.9.1 2 .2 3 .8-.4 1.7-.8 2.5-2.1zM120.2 584.7c1.5-3.2 2.6-6.3 4-9.2.3-.7 1.7-1.6 2.3-1.5.9.3 1.8 1.3 2.2 2.3 1.5 3.8 3 7.6 4.2 11.5.4 1.5-.3 3.3-.5 5-.9-1.2-1.7-2.4-2.8-3.4-1.2-1.3-2.5-3-3.9-3.3-1-.1-2.3 2-3.4 3.3-.2.2.2 1 0 1.3l-3.4 4.3c0-2-.4-4-.2-6 0-1.4.8-2.7 1.5-4.3zm6.7-4.8l-1.9 2.4 1.3.8c.4-1 .7-1.8.6-3.2zM64 577.8c.5 4 1 7.6 1 11.4 0 1-.8 2-1.2 3-.8-1-2-1.9-2.3-3-.6-2.7-.6-5.5-1-8.3-.2-.8-.7-1.6-1.1-2.4-.6.8-1.3 1.5-1.6 2.4-.8 2.5-1.2 5-2 7.5-.2.8-1.2 1.4-1.8 2-.6-.8-1.9-1.9-1.7-2.6 1.2-5.3 2.3-10.7 4.2-15.7 1-2.4 3.6-3.5 5 .4.6 1.8 1.5 3.4 2.5 5.3zM55.7 560.3c-3.6-4.7-1-14.7 2.8-17.2 3-1.9 8.4.8 9.4 4.7 1.2 5-2.8 11.8-7.9 13.1-1.2.4-2.7-.2-4.3-.6zm8.5-10l-1.7-4c-1.2 1-3 1.7-3.5 3-.9 2-1 4.2-1.2 6.3 0 .9.9 1.8 1.3 2.6.8-.5 1.8-1 2.3-1.7 1-1.6 1.9-3.5 2.8-6.1zM265.2 530.6c.9 4.8 2 9.2 2.6 13.6.2.9-1.2 2-1.8 3l-.8-2.7c-.4-1-.8-1.9-1.3-2.7-.4-.6-1.3-1.1-1.4-1.7-.2-1.6-.1-3.3-.1-5-.5 1.6-.8 3.3-1.5 4.7-1.2 2.6-2.6 5.1-4 7.6-.5.6-1.3 1-2 1.6-.6-.8-1.6-1.5-1.6-2.3 0-1.2.4-2.6.8-3.7 1.6-4.2 3-8.4 5-12.2 1.3-2.5 3.6-4.6 6-.2zM365.4 604c-2.2.8-5 2.3-6 1.5a9.7 9.7 0 01-3.5-6.4c-.1-2.6 1.1-5.5 2.5-8 1.6-3 5-4.3 8-3.1 1.4.5 3 3.7 2.7 5.5-.5 3.5-2.2 6.9-3.7 10.6zm-3.4-11.2c-.6 2-1.5 4-1.8 6.1-.1 1 .6 2.2 1 3.2.6-.7 1.4-1.4 1.9-2.2 1-1.4 2-2.8 2.4-4.4.3-1.1-.5-2.5-1-3.7 0 0-1.3.4-2.5 1zM70.9 530.8c-6.4 3-8.5 1.7-8.6-5 0-3-.5-6.1-.3-9 .1-1 1.8-2.5 3-2.7 2.3-.4 4.8-.2 7.2 0 .7 0 1.4.5 2.1.8-.7.6-1.3 1.5-2.2 1.8-1.3.4-2.9.2-4.3.7-.6.2-1 1.2-1.6 1.8.8.4 1.5 1.1 2.3 1.2 1 0 2.2-.7 3.3-.6 1.2 0 2.3.7 3.5 1.2-1 .7-1.7 1.7-2.8 2.1-1.8.8-3.9 1-5.7 1.7-.5.3-.5 1.6-.8 2.4.8.2 1.6.5 2.5.6.5 0 1-.7 1.5-.7 1.4.2 2.7.6 4 .9l-3.1 2.8zM391.2 529.4c2.1-1.6 4.8-4.5 5.7-4 2 1 4 3.5 4.5 5.8a9.9 9.9 0 01-5.7 11.2c-1.6.7-4 .7-5.6 0-2.4-1-3-3.6-2-6.1.9-2.3 2-4.4 3.1-6.9zm3.5 1.2l-.6 1.5c-.4 2.3-.8 4.6-1 7 0 0 1 .2 1.2.1l3.6-7.2v-.4c.2-2.7-1.2-2.2-3.2-1zM141.4 708.3c1.4-.8 2.5-1.5 3.7-1.8.8-.2 1.7 0 2.6.2-.3.8-.3 2-.9 2.5-2.6 1.7-5.2 4-9 2-4.4-2.2-2-6.3-2.6-9.6 0-.6.8-1.3.9-2 .9-6.7 3-8.2 9.7-6.7.5 0 1.2.7 1.3 1.1 0 .5-.5 1.4-1 1.5-1.3.5-2.9.5-4.1 1-1 .5-1.5 1.6-2.2 2.3 1 .5 2 1 3.2 1.4 1 .2 2.1.2 3.2.3L143 703c-1.4 1-2.7 2.2-4 3.3.7.7 1.5 1.5 2.5 2zM128.5 552.5l-4.4 12.2c-.3.8-1.5 1.2-2.2 1.8-.5-1-1.3-2-1.4-3 0-1 .4-2.3.9-3.3 1.7-3.1 1-5.4-1.6-7.8-1.6-1.7-2.5-4.1-3.6-6.3-.2-.5.2-1.8.6-2.1.5-.3 1.8 0 2.1.4 1.3 1.7 2.2 3.6 3.4 5.5.4.6 1 1.1 1.6 1.7.3-.8 1-1.5 1.1-2.3.4-1.8.5-3.8 1-5.6.3-.8 1.2-1.4 1.9-2 .6.7 1.7 1.5 1.7 2.2-.1 2.8-.6 5.6-1.1 8.6zM288.4 543.7a90 90 0 00-2.3 4.4c-.9-1.5-2.4-3-2.3-4.4 0-3 1.4-5.9 1.6-8.9.2-4.3 4.7-6 9.5-5 1.8.5 3.8 3.3 4.2 5.2.6 3.4-3.7 7.3-7.1 7.6-1.2 0-2.2.6-3.6 1.1zm.7-4.4c1.6-.6 3.3-1.1 4.8-2 1-.7 1.6-1.9 2.4-2.8-1.5-.4-3.6-1.6-4.5-1-1.7 1-4.8 2-2.7 5.8zM34.7 618.1c1-4.2 1.6-8 2.9-11.6.6-1.9 2.4-3.3 3.7-5 1.5 1.5 3.8 2.7 4.3 4.5 1.1 3.8 1.4 8 2 12 0 .6-.7 1.3-1 2-.6-.6-1.5-1-1.7-1.8-.8-2.6-1.3-5.3-2-8-.1-.7-.4-1.4-.7-2.2-.3.6-.8 1.2-1 2-1 3-1.8 6.2-2.9 9.3-.4 1.2-1.2 2.3-1.9 3.5a50 50 0 01-1.7-4.7zM298.1 516.5c-1-.2-2.4-.8-2.4-1l2-12.5c.1-.6-.6-1.6-1.2-1.9-1.8-.9-3.6-1.5-5.5-2.3 1.8-.8 3.6-1.8 5.4-2.3 3.4-.8 6.9-1.5 10.3-1.8 1.2 0 2.4 1.1 3.6 1.7-1 .6-2 1.8-3 1.8-7.8.6-5.8 7-7.1 11.5l-2 6.8zM654.2 562.8c0 3.6 1.1 4.5 4.1 3 1.9-1 4-1.5 6.1-2 .7-.1 1.6.6 2.3 1-.4.6-.6 1.5-1.2 1.9-2.8 1.5-5.6 3.6-8.7 4.3-4.7 1.1-8.1-1.3-7.2-8.7a46 46 0 012-9.3c.4-1.3 2.4-2 3.6-3 .1 1.2.4 2.5.2 3.7l-1.2 9.1zM592.4 556.4c1.2-1.7 2.2-3.3 3.6-4 1.6-.6 3.8-1 5.3-.3 1.7.7 3.1 2.3 1.4 5-2 2.9-2.6 6.6-4.6 9.5-.8 1.2-3.7 2-5 1.5-1.5-.6-3.2-3-3.2-4.6 0-2.3 1.6-4.5 2.5-7.1zm1.9 7.8l.7.5 3.9-7.6-1.4-.7c-1 2.3-2.1 4.6-3.2 7.8zM612.7 522.3a247 247 0 01-6.5 15.2c-.6 1.3-2 3-3.1 3-1 0-2.8-1.7-3.1-3-1-3.8-1.5-7.7-2-11.6 0-.8 1.1-1.8 1.7-2.7.7.8 1.6 1.6 2 2.6l1.9 7.5c.9-2.3 1.5-4.7 2.8-6.9 1.1-2 2.8-3.6 4.4-5.3.2-.2 1.3.4 2 1.2zM102.2 529.4c-4.8-4.8-6.1-8.9-3.8-12.5 1-1.6 2.5-3 4-3.7 1-.4 3.4.3 4 1.2 1 1.8-.4 2-2 2.5-2.9 1-3.2 4.7-1.1 7.1 1.6 2 3.8 3.6 4.6 5.9.6 1.6-.3 4.5-1.6 5.6-1.1 1-3.8.6-5.7.5-.5 0-1-1.4-1.4-2.1l2-.6 3.3-1-2.3-2.9zM314.7 575.5c-1-3-2.8-5.8-3.3-8.8-.6-3.4 3.6-8.7 6.8-9.3 1.2-.2 2.7.8 4 1.2-.8.8-1.4 1.9-2.4 2.3-4.2 2-5.3 5.2-3 9.3.5 1 1.6 2 1.5 3-.4 2.4-1 6.6-2 6.8-2.6.5-5.6-.9-8.3-1.7-.2 0 0-1.8.3-2.7l2 .1c1.3 0 2.8 0 4.4-.2zM104.8 691c3.7-.3 6.9-.8 10.1-.9 1 0 1.9 1.1 2.8 1.7-.9.7-1.7 1.4-2.6 1.9-.5.3-1.2 0-1.8 0-6.5.6-6.6.8-6.7 7.3 0 2.8-.5 5.6-1 8.3-.1.8-1.3 1.3-2 2-.8-1.2-2.4-2.5-2.2-3.4.7-3.6 2-7 3-10.6.1-.5-.5-1.6-.9-1.6-1.1-.2-2.5.2-3.6-.2-.7-.3-1.2-1.5-1.5-2.4 0-.2 1-1 1.7-1.2l4.7-1zM270.7 544.4c.3-4.2.8-7.8.9-11.5 0-3.9 2.4-4.2 5.4-4.2 3.3 0 5.4 1.5 5.6 4.5.1 3.2-1.6 5.7-4.4 7.6-1.6 1-2.7 2.8-3.8 4.4-.9 1.4-1.3 3.1-2 4.7l-1.7-5.5zm4.6-9.7l1 4.2c1-1.1 2-2 2.6-3.3.4-.8 0-2-.2-3a7 7 0 00-3.4 2.1zM388.7 527.8c-1.5 1.2-3 2.1-4.6 2.7-1.3.5-3.7.3-4 1-1 2.4-1.2 5.1-1.5 7.7-.2 1.5 0 3.1 0 4.7-.7 0-1.7.2-1.9 0-1-1.9-1.8-3.8-2.5-5.7-.2-.5.4-1.3.7-2 1.1-2.8 1.5-5.1-2.8-5.3-.9 0-1.8-1.2-2.7-1.8.8-.8 1.5-2 2.4-2.1 5.2-.5 10.4-.7 15.6-.9.4 0 .9.8 1.3 1.7zM123.2 664.2l10.7.1c.8 0 1.5.9 2.2 1.4-.8.4-1.5 1.2-2.2 1.3-5.8.3-6.7 3.8-6.1 8.7.2 2.4.1 4.9 0 7.3-.1 1.1-.8 2.1-1.2 3.2-.8-.8-2.2-1.5-2.4-2.3-.5-3.6-1.5-7.3-.8-10.6.6-2.6.8-4.1-1-6-.5-.4.2-2 .8-3zM295.6 562c1.5 1 2.6 2.1 3.7 3.1 1.7 1.5 3.5 3.6 3.8-1 0-1.1 1.4-2.2 2.3-3.1.4-.5 1.2-.6 1.8-.8.1.5.4 1.1.3 1.6-.2 1.3-.5 2.6-.9 3.8-1.4 4.7-2.8 9.5-4.5 14.1-.5 1.3-2.3 2.2-3.4 3.3-.2-1.6-1-3.4-.5-4.7 1.5-4.1 2.4-7.7-2-11-1-.7-.7-3.5-.6-5.4zM43.7 531.3c-1.8.8-3.8 2.2-4.9 1.7a6.6 6.6 0 01-3-4.5c-.5-4-.3-8-.1-12 0-.8 1.2-1.7 1.8-2.5.6.9 1.7 1.8 1.7 2.7 0 3-.4 6.2-.4 9.4 0 .8.5 1.7.9 2.5.8-.5 2-.8 2.3-1.5 1.1-3 1.9-6.3 2.9-9.4.3-1 1-1.7 1.5-2.6.4 1 1.3 2.3 1.1 3.2-1 4.3-2.4 8.5-3.8 13zM725.2 568.4c.9-3.5 2-6.5 2.4-9.5.2-1-1.3-2.4-2-3.5l-1.3-2.3c.9-.4 1.7-1.2 2.6-1.3a54 54 0 018.7 0c1.2.2 2.2 1.4 3.3 2.1-1 .5-1.8 1.2-2.8 1.5-2.7 1-4.9 2-5 5.5 0 2.4-.8 4.8-1.3 7.2l-1.4 4.9c-1-1.4-2.1-2.8-3.2-4.6zM371 561.7c2-2.3 3.5-4.5 5.4-6.3.8-.7 2.4-1 3.3-.7.7.3 1.7 2 1.5 2.7-1.2 4.3-2.3 8.8-4.3 12.8-.7 1.3-4 1.6-6 1.6-.5 0-1.4-3-1.4-4.5 0-1.8.8-3.6 1.5-5.6zm6.2-.7c-1.4 1-3 2-4 3.3-.5.5 0 2 0 3 .8-.3 1.9-.4 2.2-1 .9-1.5 1.5-3.2 1.8-5.3zM152.5 665.4c.5 1.5.7 2.8 1.2 4 .1.5.7.9 1.2 1.3l.6-1.5c.3-1.1.5-2.2 1-3.3.3-.9.8-1.7 1.3-2.5.5 1 1.4 2.1 1.3 3-1 5.4-2.4 10.7-3.7 16-.2.7-.8 1.4-1.3 2.1-.8-.5-2-1-2.2-1.7-.9-2.2-1.5-4.6-2-7-.4-2.6-1-5.2-.7-7.8 0-1 2-2 3.3-2.6zM160.8 588c1.3.6 2.5 1 3.7 1.3 0-1.6.4-3.4 0-4.9-.5-1.7-1.6-3.3-2.6-4.9-1.8-2.6-.7-5.1 1.4-6.3 1.9-1 4.5-.6 6.8-.8-.2.8-.2 2.2-.6 2.3-4.8 1.4-4.3 4-2.1 7.4 1.6 2.5 2.9 5.3 1 8.5-1.3 2.3-3.3 3.4-5.5 2.5-1.7-.6-3-2.4-4.4-3.7.7-.6 1.4-1.1 2.3-1.4zM59.6 527.8c-1.6 2.2-2.9 4.8-4.7 5.3-1.8.4-4.3-1.2-6.3-2.1-.5-.2-.5-1.4-.7-2.2.9-.1 1.8-.5 2.6-.4.8.2 1.5 1.1 2.2 1.2 1 0 2.1-.4 2.7-1 .3-.3-.3-1.8-.8-2.4-.6-.8-1.7-1-2.5-1.7-2.3-2.2-3.5-4.4-1.8-7.7 1.8-3.8 5-2.7 7.8-2.8.4 0 .9 1 1.3 1.5-.6.4-1.1.9-1.8 1.2l-4.5 2.4c1.2 1.1 2.5 2.2 3.5 3.5a28 28 0 013 5.2zM108.4 592.3c.4-4 .9-7.5.8-11 0-1-1.9-1.9-3-2.8l-3-2.5c1-.7 2-2 3.2-2 3.3-.3 6.7-.1 10 0 .5 0 1.2.6 1.2.8-.2.6-.6 1.6-1.1 1.8-3.4 1.1-3.6 3.6-3.5 6.7 0 2.9-.4 5.9-1 8.7-.2 1.1-1.5 2-2.3 3l-1.3-2.7zM78 586.8l.2 4.9c-1.3-.1-2.6 0-3.9-.4-1.2-.3-2.4-1-3.3-2-.8-.8-1.2-2.2-1.8-3.4l3.2.4c.4 0 1 0 1.3-.3.2-.2 0-.9 0-1.3-1-2.3-2.3-4.6-3-7-1-4 2.7-8.3 6.3-7.4.6.1 1 1.2 1.4 1.8-6.5 4-2.4 8.5-.4 12.9.2.4 0 .9 0 1.8zM129.9 695.8c-.6 6.1-1 12-1.4 17.9 0 .1-1.9.5-2 .2-.7-1-1.4-2.4-1.4-3.5.2-5 .3-10.1 1-15.1.3-1.8 2.2-3.3 3.3-5 .3 1.8.5 3.5.5 5.5zM646.6 597.6c1.5-4.9 2.6-9.6 4-14.2.3-1 2.1-1.4 3.2-2 .2 1 .6 2.2.4 3.2-1.2 5.7-2.4 11.5-3.8 17.2-.3 1.2-1.5 2.2-2.4 3.3-.7-1.3-1.7-2.4-2-3.8-.3-1 .2-2.3.6-3.7zM455.8 553.4l2.8-3.2c.4 1.3 1 2.5 1 3.7.2 4.6.2 9.2 0 13.8 0 1.4-1 2.8-1.4 4.2-1-1.4-2.9-2.7-3-4.2-.2-4.7.2-9.4.6-14.3zM122.3 697.4c-.6 5-1.2 9.5-2 14 0 .6-1.1 1.1-1.7 1.7-.6-.9-1.8-1.8-1.8-2.6.6-4.7 1.4-9.3 2.1-13.9 0-.2.5-.4.6-.7l2.7-5.5v7zM190.3 589.3a74 74 0 00-2.2 3.9c-.7-1.4-2.3-3-2-4.2.8-4.7 2-9.4 3.6-14 .4-1.2 2.2-1.8 3.3-2.7.1 1.2.4 2.5.2 3.7-.8 4.4-1.8 8.7-3 13.3zM165.6 675.3c-.3 2.8-.5 5.1-1 7.4 0 .6-.8 1.2-1.2 1.7l-1.5-1.5c-.3-.4-.8-1-.7-1.5.5-5.3 1-10.7 1.7-16 .1-.8 1.3-1.4 2-2 .2.7.6 1.4.7 2.2v9.7zM392.2 505.4l-2.6 10.7c-.3 1-1.3 1.7-2 2.5-.6-1-1.7-2-1.6-2.8.3-2.3 1.3-4.4 1.8-6.6.7-3.4 1.1-6.8 1.9-10.2.2-1 1.2-1.7 1.9-2.5.6 1 1.6 2 1.6 3.2 0 1.8-.5 3.7-1 5.7zM136.3 544.6c1 .4 2.5 1 2.5 1.5-.2 5.7-.5 11.3-1 17 0 .5-.8 1-1.3 1.5-.4-.4-1-.8-1.3-1.3-.4-.6-1-1.3-.9-1.9.5-5.5 1.2-11 2-16.8zM803.6 501c1-2.3 1.6-4.4 3-6 .7-.9 2.6-.9 4-1.2.2 1.2.6 2.5.6 3.7-.1 2-.2 4-1 5.5-.7 1.3-3 2.8-3.8 2.4-1.3-.4-2-2.5-2.8-4.3zM697.5 538c1.3-4.7 2.4-9 3.8-13.1.3-1 1.5-1.7 2.3-2.5.5 1.2 1.4 2.5 1.2 3.5-1 4.9-2.4 9.7-3.8 14.5 0 .5-.8.8-1.2 1.2-.8-1-1.5-2.1-2.3-3.7zM613.9 538.6c.4-5.1 1-10.1 1.7-15 0-.7 1-1.3 1.6-2 .6 1 2 2 1.9 2.9-.4 4.4-1 8.7-1.8 13-.3 2-1.1 3.3-3.4 1.1zM607.9 581.5c.2 5.6.3 11 .2 16.4 0 .6-.8 1.1-1.3 1.7-.5-.5-1.4-1-1.4-1.5v-14.6c.1-.7 1.5-1.5 2.5-2zM91.9 545.3l-.1 12.4c0 1.1-.8 2.1-1.2 3.2-.8-.8-2.3-1.6-2.3-2.5-.3-4.4-.5-9 0-13.3.3-2.2 2.2-2 3.6.2zM157.3 524.1c0-2.3-.2-4.1 0-6 .2-.8 1.1-1.5 1.7-2.3.7.7 1.9 1.4 1.9 2 .2 4.5.2 9 0 13.4 0 .7-.9 1.4-1.3 2-.5-.5-1.2-1-1.3-1.7-.5-2.3-.7-4.6-1-7.4zM194 636.8c-.4 5-1 9.8-1.7 14.5-.1.6-1 1.1-1.6 1.7-.3-.6-1.1-1.2-1-1.8.2-4.8.5-9.5 1-14.2 0-.2 2-.3 3.3-.2zM539.2 590.3c-.2-2.1-.4-4-.2-5.7.2-.9 1-1.7 1.7-2.3.1-.2 1.6.7 1.6 1 0 2.5-.2 5-.3 7.4-.9 0-1.7-.1-2.8-.4zM457.6 495.3c-1.2.2-2.1.2-3 .2 0-1.3-.3-2.6.2-3.7.3-.5 1.7-.5 2.7-.8l.3 3.2c0 .3 0 .6-.2 1.1z"/>
  <defs>
    <pattern id="pattern0" width="1" height="1" patternContentUnits="objectBoundingBox">
      <use transform="matrix(.00248 0 0 .00228 0 0)" xlink:href="#image0"/>
    </pattern>
    <pattern id="pattern1" width="1" height="1" patternContentUnits="objectBoundingBox">
      <use transform="scale(.00246 .00222)" xlink:href="#image1"/>
    </pattern>
    <image id="image0" width="404" height="815" xlink:href="ashadowbans.jpg" />
    <image id="image1" width="406" height="450" xlink:href="bshadowbans.jpg"/>
  </defs>
</svg>
