<svg xmlns="http://www.w3.org/2000/svg" xmlns:xlink="http://www.w3.org/1999/xlink" fill="none" viewBox="0 0 396 1001" width="396" height="1001">
  <defs/>
  <path fill="url(#pattern0)" d="M50 162h306v600H50z"/>
  <path fill="#00EBAB" d="M85.3 151.7a264.5 264.5 0 00-2.4-16c0-.4-.4-.7-.6-1-.3.4-.7.8-.8 1.2l-2.3 7.1c-1.7 4.8-3.7 9.5-5 14.4a96.2 96.2 0 00-2.9 13.2c-.5 3.5-.4 7.1-.5 10.7-.2 4.1-.6 8.2-.5 12.3.3 5.2.9 10.3 1.5 15.5.5 5 1.2 10 1.9 15 1 7.6 1.5 15.2 3 22.7 1.3 6 3 11.9 5.6 17.6 2.4 5.3 3.7 11.2 5.5 16.9 1.2 3.8 2.2 7.8 3.8 11.5 2.1 4.9 4.7 9.6 7 14.4 1.5 3.2 2.6 6.7 4.6 9.7 2.7 4.3 5.4 8.6 9.8 11.5 1.2.9 2 2.4 3 3.6.2.3.2 1 .1 1-.4.3-1.2.6-1.4.4-3.2-2.9-6.4-5.6-9.4-8.7-1.9-2-3.5-4.3-4.8-6.7-1.9-3.3-3.3-6.8-5-10.1l-5.2-10.5c-1.6-3.4-3.1-6.8-4.4-10.3-1.2-3.2-2.1-6.6-3.2-9.9-1-3.3-2-6.7-3.2-10-1.5-4.5-3.1-8.8-4.4-13.3-2-6.7-3.7-13.4-4-20.5 0-4.8-.7-9.7-1.3-14.5-.9-6.2-2.4-12.3-2.8-18.5-.5-7.7-.4-15.4 0-23.1.3-7.3 2-14.5 4.3-21.5a166 166 0 014.2-11.4c1.4-3.5 3.3-7 4.9-10.4.2-.5.4-1.6 0-1.9-.4-.4-1.5-.6-2-.3-2.6 1.5-5 3.3-7.5 4.9a75.7 75.7 0 01-5.5 3c-.3.2-1 0-1.1-.2-.2-.4-.3-1.1 0-1.4 4.1-4.5 8.5-8.9 14.8-10.2 2.1-.5 4.3 1 5.8 3.4 2.2 3.6 2.9 7.7 3.4 12 .2 2.2.7 4.5.9 6.8 0 .8-.3 2.3-.6 2.3-1 .1-2.2-.3-3.3-.7zM342.4 113.2l-3.5 3.5c-2.2 1.9-5.5.8-6-2-.3-1.1 0-2.4-.1-3.6 0-.4-.5-.8-.7-1.2-.4.3-1.2.6-1.2.9 0 1 .4 2 .4 3l-.3 2-1.4-1.2-1-1.3c-.9-2.2-3-3.3-5.1-2.4-.6.3-1 1.3-1.3 2-.8 2.2-1.3 4.3-2 6.5-.2.5-.8.8-1.2 1.2-.3-.5-.7-1-.7-1.4-.1-1.8-1-3-2.5-3.8l-8-4.6c-2.2-1.3-2.8.2-3.1 1.6-.4 1.6-.3 3.3-.6 5-.1.6-.8 1.1-1.3 1.7-.4-.6-1.1-1.3-1-2 .3-3.8.8-7.7 1.4-11.5.6-4.1 8-7.3 11.4-4.8.9.6 1.8 2.2 1.5 3a8.9 8.9 0 01-2.6 3.7c-.8.7-2 1-3 1.5l2.7 2c1 .7 2.1 1.5 3.2 2.1.7.5 1.5.7 2.2 1 .3-1 1.2-2.2.9-3-.4-1.5-.3-2.4.6-3.5.6-.6.7-1.6 1-2.4 1-2 1.9-4 3-5.8 1.2-1.6 3.5-.8 4.2 1.4.5 1.5.6 3.2 1.2 4.8.2.9.9 2 1.5 2.2.7.1 1.7-.8 2.3-1.4l4.6-5.6c.3-.4 1.2-.6 1.9-.6 1 0 2.3-.4 2.2 1.2-.1.5-1.4.8-2.1 1.2-.8.4-1.8.6-2.1 1.2a41.3 41.3 0 00-3 7c-.2 1 .3 2.6 1 3.2 1.1.9 2.4.2 3.3-1 1.5-1.7 3-3.4 4.7-5 .3-.4.9-.5 1.3-.7 0 .6.2 1.3 0 1.7l-2.7 4.2zm-34.6-5.8c1.8-.6 3.7-1.2 5.4-2 1.6-.9 1.6-2.8 0-3.1-1.6-.3-3.7-.3-5 .5-1 .7-1.6 2.7-2 4.1-.5 1.4.5 1.2 1.6.5zm18.7-5c-.2-.9-.7-2-1.3-.6-.8 1.7-1.2 3.7-1.5 5.6 0 .2 1.6.8 2.4 1 .2 0 .8-1 .8-1.4 0-1.4-.2-2.8-.4-4.7zM240 46.7v-3.4c0-2.4 1-3.5 3.4-3.4 2.3 0 4.7.4 7 .4 1.7 0 3.3-.4 5-.5l4 .1c.4 0 .9.5 1.4.8-.6.4-1.1 1-1.7 1-1.8.4-3.6.4-5.4.6-.2 0-.6.5-.6.8 0 .2.4.6.7.6 3.9.2 6.6 3 9.6 4.9 1.9 1.3 3.8.8 5.7 1l.5-.3c-.2-.4-.3-.9-.6-1-1.4-.6-3-1-4.4-1.7-1.3-.6-2.5-1.5-3.7-2.3 1.2-1.3 2.2-3.2 3.8-3.8 2-.8 4.1-2.7 6.6-1.1l1.7 1.2c-.6.2-1.2.7-1.8.7-2.6-.2-4.7.8-6.8 2l-1 .7 1.3.7c1.8.7 3.6 1.1 5.2 2 1 .6 2 1.8 2 2.8.2 1.3-.9 1.8-2.4 2.2-2.4.5-4.3.4-6.3-1-.7-.4-1.8-.6-2.7-.6-2.3 0-4.7-.2-7 0-2 .2-3.7 1-5.6 1.5-.5.1-1.2.5-1.7.4-3.9-.6-7.8-1-11.6-2-1.6-.5-3-2.1-4.5-3.2-.4-.3-1-.4-1.4-.6-.1.6-.4 1.1-.4 1.7 0 1.2.4 2.4.4 3.7 0 .4-.4.9-.6 1.4-.4-.4-1.1-.7-1.2-1.1-1-3.4-1-6.8.3-10.2.8-2.3 4.3-4.2 6.5-3.2.8.3 1.5 1.4 1.8 2.2.5 1.5 0 2.8-1.4 3.8-2 1.5-2 1.6.3 2.7 1.4.6 2.9 1 4.3 1.4h1.5l-.2-2zm3.4.2c0 .5-.3 1-.1 1.3.7 1 4 1.4 5 .5 1.4-1.4 2.8-1.2 4.5-.7 1.4.5 3 .5 4.4.6.5 0 1.1-.4 1.7-.7l-1.3-.8c-2-.8-3.8-1.7-5.8-2.3-.6-.2-1.4 0-2.1.2-2 .5-4 1.1-6.3 2zm-1-2.9c.4.4 1 1 1.3 1 1.6-.3 3.2-.8 4.8-1.3.6-.1 1.1-.4 1.7-.7-.5-.4-1-1.1-1.5-1.1-2.2 0-4.5-.3-6.3 2.1zm-9.3-3.4l-3.6 1.3.5 1.8 3.8-1.9-.7-1.2zM114 69.5c-1.2-2.6-.8-5.1-.3-7.6.4-2.4 2.3-3.3 4.4-3.5 2-.3 4.1-.5 6.1-.5 2.3 0 4.5-.1 6.4-1.7.8-.6 2.3-.3 3.5-.2.5 0 .8.8 1.2 1.2l-1.4.6h-1c-1.3.8-2.7 1.4-3.7 2.5-.2.3 1 2.2 1.7 3 2 2 4.8 3.2 5.3 6.6.1.7 2.3 1.3 3.6 1.5 1.7.3 3.5.1 5.3 0 .5 0 1-.4 1.4-.6-.2-.4-.3-1-.7-1.3-1.2-1.2-2.3-2.4-3.7-3.4-2.5-1.8-3.3-3.5-2.3-5.8.7-1.8 4-3.4 6.2-3l1 .7c-.3.2-.5.6-.9.8-1 .6-2.3 1-3.4 1.7-1.3.9-1.3 1.8 0 2.9l4.2 3.8 1.4 1.8c1.6 2.4.6 4.6-2.6 4.9-3.3.2-6.4-.4-9.6-1.3-3.5-1-7.4-.8-11-1-.5-.1-1 .4-1.4.7-4.6 3-7.5 2.3-9.7-2.8zm19.2-1c-1-.9-2.2-1.7-3.2-2.7-1.5-1.6-3.6-2.7-3.4-5.4 0-.2-.6-.6-1-.6-2.6.3-5.4.5-8 1-.7.2-1.2 1.5-1.6 2.3 0 .1.8 1 1.2 1l6.2-.9c.5 0 1.1.4 1.7.6-.3.4-.6 1-1 1.2a7 7 0 01-2.4.6c-1.3.1-2.7-.1-4 .1-.7.1-1.6 1-1.7 1.6-.1 3.3 2.5 4.8 5.3 3.5 1.5-.8 3-1.4 3-3.4 0-.4.8-1 1.3-1.2.2 0 .9.6 1 1 1.1 2.5 4.3 3.3 6.6 1.4zM190.4 109l.6 4.7c0 .8.1 2-.3 2.2-.6.4-1.8.3-2.4-.1-1.1-.8-2.2-1.9-3-3-1.5-2.3-2.8-4.7-4.2-7l-.8-1.6c-.4.6-1 1.3-1 2-.2 2 0 4.2-.2 6.3 0 1.5-.5 3-1 4.4 0 .5-.7.8-1 1.2-.3-.5-.8-1-.8-1.5 0-3.2.2-6.4.5-9.6 0-1.6-.6-2.1-2.1-2l-8.8.5c-1.8.1-1.2 1.5-1.3 2.5 0 1.3.4 1.2 1.5 1 2-.3 4-.1 5.9 0 .3 0 .6.2.9.4-.3.3-.4.8-.7.9l-5.4.6c-1 0-2.4.2-2.6.7-.3 1.3-.2 2.8-.2 4.2 0 0 .8.2 1.1 0l6.5-3c.4-.2 1-.4 1.2-.2.2.1.4.7.4 1-.5 2-7 6-8.9 5.5-2.9-.7-4-3.1-3-6.7.4-1.5.6-3.1.8-4.7 0-.3-.1-.6-.3-.8l-1.5-1.7c1-.7 2-2 3-2 4.3 0 8.6.3 12.9.5.4 0 1 0 1.3-.2 2.5-2.7 3.7-2.6 5.6.8l3.4 6.1c.4.6 1.1 1 1.7 1.4l.2-2.1c-.1-2.6-.4-5.2-.4-7.8 0-.6.8-1.4 1.4-1.7.4-.2 1.1.3 1.7.5-.2.5-.5 1-.5 1.5-.2 2.1-.2 4.3-.2 6.7zM260.4 63.7c.5.5 1 1.2 1.5 1 1.5-.3 3-1 4.5-1.4l1.4.3c-.2.4-.2 1-.6 1.2L262 67c-.7.4-1.5.8-2 1.4-.2.5-.1 1.6.2 1.9.4.3 1.5.3 2 0 .8-.5 1.4-1.4 2.2-2.1l.9-.6c.2.5.6 1 .5 1.3-.6 2-2 3.6-4 4.3-1.8.5-3.6.4-4.6-1.5-.5-1-.7-2.3-.6-3.4.5-2.6 1.2-5.2 2-7.7.3-1 .5-2.3 2.5-1.6 2.2.7 4.7.6 7 .6.6 0 1-1 1.6-1.5l1.3-.8.6 1.4V61l.3 1.7c.4-.4 1-.7 1.2-1.1 1-2.4 3-3.1 5.3-2.7.7 0 1.6.6 1.9 1.1.2.6-.1 1.8-.6 2-1.4 1.1-3 1.8-4.5 2.7l-1.6 1 1.4.4 11 4c.5.1.8.7 1.2 1-.5.2-1 .4-1.5.3-4.3-.5-8.6-1.1-12.4-3.4-1.2-.8-1.8-.6-1.6.9V70l-1.3 2.8c-.6-1-1.6-1.8-1.6-2.7 0-2.2.2-4.4.7-6.5.4-1.6-.3-2.2-1.4-2.4-2-.2-4-.2-5.9 0-.7.2-1.1 1.4-1.7 2.4zm15.3-3l-.6 1.4c.6-.1 1.3-.1 1.8-.4.3-.2.3-.8.4-1.2l-1.6.3zM139 102l.8 6.8c0 1.5.6 1.6 2 1.4 2.6-.4 3.8-1.6 3.4-4.4-.2-1.7.6-3 2.7-2.8 1 .1 2.2-.3 3.2-.4 1.7-.2 3.7 0 4 1.7.4 1.2-.2 3.2-1.2 4.1-2 2-1 2.4.8 3.1 1.2.5 2.2 1.4 3.2 2.2.3.2.3.9.4 1.3-.5 0-1 .2-1.3 0-2.2-1-4.3-2-6.5-3.2-1.6-.9-2.1.1-2.4 1.5l-.5 2-1.2 1.9c-.4-.8-1-1.5-1.2-2.2-.2-.4 0-.8 0-1.2-.2-1 1.5-2.4-.5-2.9-1.4-.4-4 2-4 3.4v3.6c0 .4-.4.8-.6 1.2-.4-.3-1.1-.5-1.2-.8-.3-1-.4-2.2-.5-3.2-.2-1 .3-2.3-1.4-2.3-1.4 0-3-.4-3.5 1.5l-1.3 3.4c-.3.7-1 1.2-1.5 1.8-.4-1-1.1-2-1-3 .1-1.4.8-2.8 1.4-4.2l3.8-8.6c.8-1.6 2-2.5 4-1.7zm11 2.8c-.8.7-1.9 1.2-2.3 2-.3.6.3 1.6.5 2.4l3-1.2.7-.6 1.5-2.3-2.2-.6c-.3 0-.6 0-1.2.3zm-14 6.3c1-.6 2-4.7 1.3-5.8 0-.2-.6-.3-.7-.2-1.1.7-1.7 5-.7 6zM112.6 80.2l-.1 2c.4-.1.9-.3 1.3-.6.3-.2.6-.7.9-.8 1.3-.4 2.6-.9 4-1 .3 0 1.2 1.5 1 2a12 12 0 01-1.8 3.7c-.4.6-1.2.9-1.9 1.2l2 1.3c1.8.8 3.7 1.5 5.4 2.5.8.5 1.2 1.6 1.8 2.5-1 0-2 .2-2.7-.2-3-1.3-5.8-2.8-8.7-4.3-1.5-.7-2.3-.6-2.2 1.4v1.7l-.8 1.7c-.6-.5-1.4-1-1.6-1.7-.1-1 .3-2 .5-3 .4-1.9-.2-2.4-2-2l-6.7.9c-2.5.2-1.5 2.1-1.5 3.3 0 .9.7 2.1 2.3 1.1 1.2-.7 2.7-1.2 4-1.8h1.4c-.1.5 0 1-.3 1.3-1.4 2.3-6 3.8-8.4 2.6-.9-.4-1.9-1.8-1.9-2.7.1-2 .6-4.2 1.2-6.2.5-1.7.8-3.9 2-4.7 1.3-.9 3.4-.5 5.2-.7 2.5-.2 5 .8 7.4-.4l.2 1zm-9.5 2c-1 .5-2.1.9-3 1.6-.2.2 0 1.2.2 1.9l1.3-.1 7-1.5c.5-.2 1-.8 1.5-1.2-.5-.4-1-1.2-1.6-1.2-1.7 0-3.3.3-5.4.5zm10 2.6c.3.2.7.5 1 .4 1-.4 2.1-1 3.1-1.6.4-.3.7-1 1-1.4-.7-.1-1.6-.6-2-.3-1.2.6-2.1 1.6-3.1 3zM280.3 108.4c-.8 2.5-1.4 4.9-2.5 7-.8 1.5-2.4 2.8-4.3 2.2-1.7-.5-2.2-2.2-2.4-3.9l-.5-7c0-2.9-2.3-1.5-3.5-1.6-1.7-.2-.9 1-1 2-.3 3.5 0 7.2-2.2 10.4-1.1 1.5-2.6 2.4-3.7 1.9-1.4-.6-3.1-2.4-3-3.6 0-3.5.8-7 1.7-10.4.4-1.9 1.7-2.8 4.1-2 1.5.4 3.4-.1 5-.5 2.8-.6 4.7.5 5 3.4l.5 6.8c0 .6.3 1 .4 1.6.5-.4 1.3-.8 1.5-1.3l3.5-10.5c.2-.7 1-1.3 1.6-1.7.3-.2 1 .1 1.4.4.2.2-.1.9-.2 1.3l-1 4.3-.4 1.2zm-20.4 2.2v5.4c0 .4.5.8.7 1.2.4-.4 1-.7 1-1 .6-3 1.2-6 1.6-9 .1-.5-.7-1.1-1.1-1.7-.5.5-1.1.8-1.3 1.4-.4 1-.6 2.1-1 3.7zM81 40.4l1.9.6c-.5.3-.9.7-1.3.8l-5.7.5c-.6 0-1.4.3-1.6.7-.5 1-.6 2-1 3.1.4.1.7.3 1 .2 1.5-.4 3.1-1 4.7-1.3.7 0 1.6.6 2.4.9-.6.2-1.1.7-1.7.8l-5.2 1c-1.9.1-3.3 2-2.2 3.4.6.6 2.2.4 3.3.4 1.2 0 2.3-.4 3.5-.4 3.5 0 4.1-.7 4.3-4.3v-2.4c1.2-4.5 1.3-4.5 6.2-4.5h5.8c.6 0 1 .5 1.6.8-.5.2-1 .6-1.5.6l-6.6.5c-.8.1-1.8.2-2.4.6-.4.4-.4 1.4-.6 2.1.5 0 1.1.3 1.6.2l7.7-1.4c.5 0 1.1.4 1.7.6-.3.4-.6 1-1 1.1-2 .7-4.2 1.2-6.4 1.7-1 .2-2.1.2-3.2.5-1 .2-2 3.2-1.4 4 .1.2.7 0 1.1 0 2.5-1 5-1.8 7.5-2.5.4-.1 1 .7 1.5 1l-1.2.9-8 2.9c-.4.1-1 .2-1.4 0-3.3-2-6.4.6-9.7.2-1.2-.2-2.5.4-3.7.2-2.2-.3-1-2.1-1.2-3.3-.2-3.2 1.4-5.9 2.4-8.8.5-1.4.7-2.2 2.7-1.6 1.8.6 3.9.2 6 .2zM224 64.7c.4-2.3.8-3.8 3.5-4.1 1.8-.2 2 .5 2.2 1.4.5 1.4.6 2.8 1 4.2.2.4.7.6 1 .9l.5-1.2v-5.5c0-.6.9-1 1.3-1.6.4.5 1.1 1 1 1.5-.3 4-.8 8-1.4 12 0 .4-.5 1-.8 1-.5 0-1.4-.3-1.6-.7l-2-5.5-1.1-2.9c-.4 1.1-1 2.2-1.2 3.3-.3 1-.2 2-.6 3-.3.8-1.3 2.4-1.5 2.3-1.4-.5-1.8-1.9-1.2-3.1.7-1.4-.2-1.5-1-1.6-.9-.1-1.7-.3-1.6 1.2 0 1.5-.3 3-.5 4.4 0 .4-.6.8-1 1.2-.3-.4-.8-.8-.9-1.2v-2.9c-.2-.8-.6-2-1.1-2.1-1.2-.4-2.5-.5-3 1.3-.4 1-1.1 2.1-1.8 3.1-.2.4-.8.5-1.3.7l-.6-1.5c0-.4.3-1 .5-1.4 1.5-3.3 3-6.5 4.7-9.7.4-.8 1.4-1.9 1.8-1.8a4 4 0 012.2 2c.4.8.3 1.9.5 2.9l1 2.3c1-.6 2-1.1 3-2zm-8.4 2.2c1 1.3 1.7 0 1.8-.5.5-1 .5-2.2.7-3.3l-.5-.4-1.5 2.4-.5 1.8zM194.1 50c-2 0-3.9.2-5.8 0-1.2-.1-2-.6-1.5-2.5a39 39 0 001-8.6c.2-1.9 1.3-2.7 2.8-2.9 2.4-.2 4.9 0 7.3 0 2.2 0 3.4 1.5 4.6 3 1 1.2 1.9 2.6 3 .1.4-.8 1.6-1.3 2.5-1.6.7-.3 1.7 0 2.5-.1l-1.5 1.5-.7.7c-4.4 4.4-3.4 3-.3 7.5.4.5 1 1 1.2 1.7.1.4-.2 1-.3 1.5-.4-.2-.9-.3-1.2-.6l-3-3.4c-.6-1-1.3-1.2-2 0l-1.2 1.9c-.6 1-1 1.7-2.7 1-1.3-.4-3 .4-4.7.8zm4.8-2.8L200 46c2.6-3.2 2.5-4.5-.7-7-1.1-1-7.7-1.8-8.4-.8-.8 1-.8 2.4-1.1 3.6h2.4l4.7-1c.3 0 .7.5 1.1.8-.3.2-.5.6-.9.7l-6.1 1.5c-.6.1-1.6.4-1.6.7-.2 1-.2 2.1.1 3 .2.4 1.4.5 2 .5l7.3-.8zM231.2 92.9c-1.7 1.6-3.3 2.5-5.7 1.5-.7-.3-2.2.5-3 1.2-2 1.5-4.2 2.4-6.3 1.3-2.2-1.1-3.2-3.4-3-6.2.2-3-.4-6 1.4-8.9 1-1.4 2-2.7 3.5-2 1.2.7 2 2.5 2.9 3.8l-.6.9-.9-.7-2.2-1.6c-.5 1.1-1.4 2.2-1.6 3.4-.3 2-.1 4 0 6.1.1 2.8 2.2 3.9 4.7 2.6 2.3-1.1 3.7-2.5 3.6-5.6 0-2.9.4-6.3 3.5-7.8a6 6 0 014.5 0c1.6.7 2 2.4 1.8 4.3-.2 2.8-.6 5.3-2.6 7.7zm-3-10c-2.1 2.6-1.2 5.8-1.3 8.8 0 0 1.5.3 1.6.1 1-1.7 2.2-3.4 2.6-5.3.6-2.9-.2-3.7-2.8-3.6zM353.8 113l1.9-1.4c0 .8.3 1.6 0 2.3-1 3-2 5.8-4.7 7.8-1.6 1.1-3 1.6-4.7.4-1.8-1.2-2-3.2-1.7-5.2.7-4.4 1.4-8.8 2.4-13.1.4-1.7 1.3-3.3 2-5 .1 0 1.2 0 1.3.2.3.8.3 2.4.8 2.5 1.2.4 2.6.2 3.8.1l7.9-.5c.2 0 .4.3.7.5l-.6.5-4 1c-2.7.5-5.5.7-8 1.6-1 .3-1.4 2.3-2 3.5.4 0 .9.3 1.2.2l8.3-2.9 1.2.4c-.3.4-.4.8-.7 1l-8.2 3c-.7.3-1.6.9-1.8 1.5-.6 2.3-1 4.6-1.4 7-.1.4.5 1 1 1.4 0 .1.7-.2 1-.5l4.3-6.4zM281 91.5c-1.6 2.5-4 2.2-5.9 1.6-2.4-.9-4-.7-5.7 1.2-1.3 1.4-4.4 1.4-6 .3-1.4-.9-2.5-4.6-2-6.4l1.9-5.6c1-3 3.5-3.8 6.4-2a6.6 6.6 0 013.3 6.1c0 3.7 0 3.7 3.6 4.2.6 0 1.3-.3 2-.4l-.8-1.9c-1-1.8-2.3-3.6-3-5.5-.8-2 2-5.5 4.1-5.3.6.1 1.2.7 1.8 1l-1.3 1c-3 1.1-3 3.2-1 5.4 1.6 1.8 2.6 3.7 2.5 6.3zM269.8 90c.4-1 .9-2.2 1.1-3.3.3-1.4-1.3-3.8-2.6-4-1.8-.2-3.3.4-3.6 2.5-.4 1.8-.9 3.5-1 5.3-.1 2.2 2 3.4 3.7 2.3.9-.6 1.4-1.7 2.4-2.8zM88.3 66.6c.8-2.2-.2-2.7-2-2.4a3 3 0 01-1.2 0l-2.2-.9c.7-.5 1.3-1.4 2.1-1.5 3.4-.6 6.9-1 10.3-1.5.4 0 1 0 1.3.3 1.8 2.1 3.7 2.3 5.7.4l.7-.2c1.4-.7 3-1.2 4.2.3.8 1.3-.8 4.5-2.3 5l-3 1 3.1 1 7 2.4c.4.1.7.6 1 .8-.4.2-.9.7-1.2.6-1.6-.3-3-.8-4.6-1.2-2.3-.6-4.6-1.2-6.9-1.6-.5 0-1.2 1-1.8 1.7-.5.5-.8 1-1.2 1.6-.4-.8-1.3-1.8-1.2-2.6.3-2 1-4.1 1.4-6.2.3-1.2-.3-1.6-1.4-1.4l-4.2 1c-.5.3-1.2 1.1-1.2 1.7 0 2.5.4 5 .4 7.6 0 .4-.4.9-.6 1.4-.3-.5-.7-.8-.8-1.3-.6-2-1-3.8-1.4-6zm16.7-4.9l-2 1-1.3 1c-.4.2-.7.6-1 1 1.2-.2 2.6-.2 3.8-.6.5-.2 2.1-.9.5-2.4zM88.3 102.1c.9 4.1.4 8-.5 11.8l-.8 1.3c-.4-.5-1.1-1-1.1-1.6 0-3 .3-6 .4-9 0-2.4-.5-2.8-2.8-2.5l-7.9 1c-.6 0-1.3.3-1.8.7-.2 0 0 1 .2 1.2.6.3 1.3.4 2 .4 1 0 2.2-.3 3.4-.3.5 0 1 .3 1.5.5-.5.5-1 1.2-1.5 1.3-1.4.3-2.9.5-4.4.5-1.3 0-1.8.4-1.8 1.8 0 1.5-.4 3-.5 4.6 0 .5.5 1 .7 1.4l1.2-.7c1.6-1 3.2-2 4.9-2.8.3-.2.9.1 1.3.2-.2.5-.2 1-.6 1.3-2 1.6-4.2 3-6.3 4.5-1.9 1.3-2.5-.5-3-1.5-.6-.8-.7-2-.6-3.1.2-3.1.6-6.2 1-9.3.2-2.2 1.6-3 3.6-3.2l11.5-.5c1.2 0 2 .3 1.9 2zM150.5 87.5c1-2.2 1.6-4.6 4.8-3.4.6.2 1.4-.3 2.2-.5 4.6-1.5 6-.4 6.1 4.5 0 1.3.3 2.6.5 3.9 0 .3.5.6.8.8l.7-.9 4-7.6c0-.3.7-.7 1-.6.3 0 .7.6.8 1V95c0 .6-.4 1.2-.6 1.8-.6-.6-1.5-1-1.8-1.6-.4-1.1-.4-2.4-.6-3.6l-2.2 2.8c-1.4 1.7-3.5 1.3-4-.8-.5-2-.7-4.2-1-6.4-.1-1 .2-2.3-1.4-2-1.2 0-2.6 0-2.6 2s-.5 4.3-1.3 6.2c-.4.9-2 1.8-3 1.8-1.5 0-2.4-1.4-2.4-3v-4.7zm4.9.3l-1-1.7c-.4.3-1.2.6-1.3 1.1-.4 1.5-.5 3-.6 4.6 0 .3.6.7 1 1 .3-.2.7-.5.9-.9a31 31 0 001-4.1zM77.7 82.8l-1 2.6c.7.2 1.4.6 2.1.6h4.1c.4.1.7.5 1 .7-.3.3-.5.7-.8.8l-4 1c-2.4.5-3 1.5-2.5 4 .1.4.5.8.4 1.2 0 .7-.3 1.4-.4 2-.7-.5-1.8-1-1.9-1.6-.3-3.8-.5-7.7-.4-11.5 0-.6 1.2-1.6 2-1.8a29 29 0 015.7-1c.8 0 1.9.2 2.3.7 2 2.5 4.5 1.7 7 1.3 1.7-.2 3.4-.1 5 0 .4 0 .7.3 1 .5l-.5.8a2 2 0 01-.8.5c-1 .4-2.7.4-3 1.1-.7 1.3-.7 3-.8 4.5-.2 1.8-.3 3.5-.6 5.2-.1.6-.8 1.2-1.2 1.8-.4-.6-1.1-1.3-1.1-1.9 0-2 .4-3.9.6-5.8 0 0 .2 0 .2-.2 1-3.5 1-3.4-2.6-3.8-1.1 0-2-1.3-3.2-1.6-1.5-.4-3.1-.4-4.7-.6-.6 0-1.2.2-2 .5zM93.5 116.3l.1-14.6c0-.6.5-1.1.8-1.6l.8-.4.3.7v3.2l.5 1.4 1-1.3c.7-1.3 1.1-2.7 2-3.8.9-1 2-2 3.3-2.6.7-.3 2.2-.1 2.6.4.6.8 1 2.3.7 3.2-.6 2.2-1.5 4.4-3.8 5.4-.4.2-.6.7-.9 1 .4.3.9.6 1.3.6 3 0 5 1.9 7 3.7.2.2.2.8.3 1.2h-1.3c-3-1-6-2.2-8.9-3.3-1.1-.3-2.1-.4-2.3 1.3-.2 1.4-.8 2.8-1.4 4-.4.8-1.3 1.1-2.1 1.5zm10-15.7l-1.1-1.2-4.3 5.8c0 .1.1.7.3 1 0 0 .7 0 .8-.3l4.4-5.3zM249.8 99.8c1.7-.3 3.2 0 3.4 1.7a10 10 0 01-1 5c-.6 1.3-2.5 2 0 3.5.7.3.9 2.7.3 3.4-2.2 2.8-4.9 5.2-8.9 4.7-1.2 0-2 .2-1.2-1.9.7-1.8.2-4.1.3-6.2.2-2.4.3-4.7.6-7 0-.5.5-1 .8-1.4l.7 1.4.4 1 1-.7 3.6-3.5zm-2 4l-2 4.3v1c.3 0 .8.2 1 0 1.2-1.1 2.5-2.1 3.3-3.4.8-1.2 1-2.6 1.4-4l-3.8 2.1zm-3 11.2c.7 0 1.6.5 2.1.2 1.2-.5 2.2-1.4 3.3-2.2.4-.3.6-.8 1-1.2-.5-.3-1-.9-1.5-.9-1.2 0-2.7 0-3.6.6-.8.5-.9 2-1.3 3.5zM296.4 47.6c0 1.3-.3 2.4 0 3.2 1 1.9 2.9 1.4 4.4 1.1 1.3-.2 2.6-1 3.9-1.7.3-.1.5-.6.8-1l-1.2-.6c-1.3-.2-2.6-.2-4-.5-.3-.1-.7-.7-1-1 .4-.3.8-.9 1.2-.9l7.5.5c.4 0 1 1 1 1.4-.6 2.4-1.2 4.8-2 7.2-.2.5-1 .9-1.4 1.3-.3-.7-.6-1.4-.7-2.1-.2-.7 0-1.3 0-2-.5.3-1 .5-1.4.9-2.2 1.8-5.9 2-8 .4-1.8-1.3-2.6-5.1-1.2-7.6 1-2 2.6-3.6 4.2-5.2.5-.6 1.8-.8 2.6-.6 1 .2 1.7 1 2.5 1.6-.8.3-1.7.7-2.5.8-2.3 0-4.2 1.9-4.7 4.8zM167.5 50.6c-2.7-.6-3.5-2.2-2.7-4.8.5-1.5.6-2.5-1.4-2.5-.3 0-.5-.3-.8-.4.4-.4.6-1.1 1-1.3 1.9-.6 3-1.3 2-3.6 0-.4 1.1-1.9 1.8-2h11.4c.5 0 1 .7 1.4 1-.5.2-1 .4-1.5.4-2.9.2-5.8.2-8.7.6-.8 0-1.7 1.1-2 1.9-.3 1.5 1 1.5 2 1.4 1.5-.1 2.8-.4 4.2-.6h1.6c-.3.6-.4 1.5-.8 1.6-1.5.4-3.1.9-4.7.9s-2.6.6-3 2c-.2.9-.1 1.9-.2 2.8 1 0 2 .2 2.8-.1 1-.4 2-1.3 3.2-1.6.6-.2 1.4.3 2.1.5-.4.5-.7 1-1.2 1.4a9 9 0 01-6.5 2.4zM236.6 103.6a447 447 0 003.5 10.1c.1.2.4.4.3.6l-1 3.8c-.4-1-1-2.2-1.3-3.3-.5-1.8-.6-3.4-3-3.8-1.7-.3-2.4.3-2.9 1.5-.6 1.6-1 3.3-1.5 5-.2.4-.6.7-1 1.1-.3-.4-1-1-.9-1.3.4-2.7.7-5.4 1.3-8 .6-2.4 1.3-4.8 2.1-7.1.3-.8 1.2-1.4 1.9-2l1.5 1.6 1 1.8zm-.5 5c-.2-.9-.3-1.9-.6-2.8 0-.4-.7-.5-1-.8-.3 1-.9 2-.8 3 .1.5.7 2.2 2.4.7zM299.1 90.8c-.8 0-1.7.2-2.2-.2-2.2-1.7-2.1-4.2-2-6.6v-3.5c.2-.8.5-1.6.9-2.3 0-.2.7-.4.7-.4.3.4.7.9.8 1.3l.5 6.6c0 .6.4 1.1.6 1.7l1-1.3 1.4-1.8c2-2 2.8-1.9 3.8.7l.6 1c.3-.4.7-.7.9-1.2.5-1.9.8-3.8 1.5-5.6.3-.8 1.3-1.3 2-1.9l-.1 2.2c-.8 3-1.6 6-2.7 8.9-.3.8-1.4 1.4-2.2 2l-2-2.7-.3-1.2c-.4.4-.8.7-1 1.1l-2.2 3.2zM102.2 38l3 8.2c.3.5.3 1 .6 1.4l1.1 1c.1-.4.3-.8.3-1.3l1-8.8c.2-.8 1-1.6 1.8-2 .4-.4 1.2 0 1.8 0-.2.3-.5.7-.6 1.1-.4 1-.9 2-1 3l-1 8.6c-.4 2-2.3 2.5-4 1.1-2.4-2-2.4-4.8-2.8-7.5-.1-.4 0-1-.2-1.4l-1-.6c0 .3-.2.5-.3.8l-1.5 8.1c-.1.7-.8 1.2-1.3 1.8-.2-.7-.7-1.4-.6-2 .6-3.4 1.2-6.9 2-10.3.2-.5 1-2.5 2.7-1.2zM239.5 81.2l4.8 9.1.8 1c.2-.4.7-.8.7-1.1l-.7-8c0-.6.4-1.1.6-1.7.5.3 1.3.5 1.4.8a79 79 0 011 8 7 7 0 01-.9 3.3c-.4.8-1.4 2.2-1.8 2-1-.2-2-1-2.5-2-1.1-2.3-2-4.8-3-7.2-.1-.5-.5-.8-.8-1.2l-.6 1.4c-.2 2.2-.2 4.3-.6 6.4 0 .5-.9.9-1.4 1.3-.3-.5-1-1-.9-1.6l1-9.8c.2-.8 1.1-1.4 1.7-2.2.4.4.8.8 1.2 1.5zM246.4 60c-3 .9-5.4 5.1-4.5 8.1a2.4 2.4 0 003.5 1.4c.4-.2.7-.6 1-.9l2.6-2.4-3.2-1-1.5-1c.6-.5 1-1.4 1.6-1.4 4-.4 6.3 2 5.9 5.9-.1.8.1 1.7-.2 2.3-.4.8-1.3 1.3-2 2l-.1-2v-1.4c-.4.2-1 .4-1.3.7-1.4 1.4-2.7 2.4-4.9 2-3.2-.7-4.9-4.4-3.7-7.2 1-2.3 2.5-4.3 4.1-6.2.6-.7 2-1 3-1 .5 0 1 1 1.5 1.5l-1.8.5zM184.9 72.3c-1 1-1.9.8-2.3-.3l-3.4-9c-.2-.5-.6-.9-1-1.3-.1.5-.5.9-.5 1.3l-.5 4c0 .8.2 1.7-.1 2.3-.7 1.2-1.6 2.1-2.5 3.1-.2-1-.9-2.2-.7-3.2.5-2.9 1-5.7 2-8.4.6-2 2.1-2.1 3.4-.6 1.1 1.4 1.9 3.1 2.8 4.6.2.5.5.8.8 1.2.2-.4.6-1 .6-1.4l.1-4.1c0-.5 1-.8 1.4-1.2.3.5 1 1 1 1.4l-.5 9.8c0 .5-.3 1.1-.6 1.8zM315.7 80.1l5-6.3c.3-.5 1.2-.4 2-.6-.2.6-.2 1.3-.5 1.8-3.3 5.2-6.8 10.3-10 15.5-2.4 3.6-4.4 7.3-6.7 10.9-.2.4-.9.5-1.3.7-.2-.4-.6-1-.5-1.3.6-2 1-4 2-5.7 3.1-5 6.5-10 10-15zM181.1 93.3c3.3.2 4-2.3 5-4.4.1 0-.8-.9-1.2-.8-1 0-2 .6-3 .8-.5 0-1.2-.5-1.7-.7.4-.4.7-.9 1.2-1.1.4-.3 1-.4 1.5-.6 4.4-1.3 5.7-.3 5 4.2-.1 1-.2 2-.5 3-.2.5-.6 1.1-1 1.4-2.5 1.5-7.4.5-9.6-1.4-2-1.8-1.6-4-1.5-6.2.1-3 3.8-6.8 6.3-6.8.6 0 1.3.2 1.7.6.5.3.7.8 1 1.3-.6 0-1.2.3-1.8.2-2-.4-2.8 1-3.7 2.4-1.3 2-2.1 4.2-.5 6.4.5.8 1.7 1.2 2.8 1.7zM68.4 73.8c-.4-.7-.9-1.3-1-2 0-.3.4-1 .7-1.3.2 0 .9.3 1.2.7 1.3 1.4 7.8 1.9 9.2.4.3-.2 0-1.4-.3-1.5-1.6-.8-3.4-1.2-5-2-1-.7-2.6-1.7-2.7-2.8-.2-.9 1-2.4 2-3 1.7-1 3.7-1.7 5.5-2.5h1l1.8 1.9c-.7 0-1.4-.2-2 0l-5.8 3 1 1c2 1 4 1.6 5.7 3 2.3 1.7 1.7 4.6-1 5.7-1.3.5-2.8 1-4.2.9-2-.2-4-1-6-1.5zM202 84.1l-1 5.4c-.2 1.9-.2 3.8-.5 5.7 0 .5-.4 1-.7 1.6-.4-.3-1.2-.6-1.3-1-.2-1.5-.5-3.2-.3-4.7s.4-1.5-1.4-1.3c-3.8.6-2.6 3.7-3.5 5.7l-1.1 1.7c-.3-.6-.9-1.3-.8-2 .2-4 .5-8 1-12 0-.5 1.3-1 2-1.5v2c0 .4-.2.8-.1 1.2.2 1.2.2 2.5.7 3.5.4.5 3.8-2.2 4.1-3.4v-.7l1.5-2.6c.5.7 1 1.4 1.4 2.4zM154 45.6c-.8 1-1.4 2-2 3.2l-1.3 1.2c-.4-.6-1.2-1.3-1.1-2 .2-3.4.5-6.8 1-10.2 0-.5.4-.9.6-1.3.4.4 1 .9 1.2 1.4.2.3 0 .8 0 1.2l.7 1.7 1.3-1.5c1.3-1.1 2.6-2.4 4.1-3.2.5-.3 1.9.3 2.4 1 .3.3 0 1.7-.4 2.1-1.3 1.2-2.8 2.1-4.2 3-.8.6-1.6 1-2.4 1.3l2.6.8 4.5 1.5c.3.1.4.7.7 1.1-.4.1-.8.3-1.1.2l-6.6-1.5zm4.3-6.5l.4-1c-.4.2-1 .2-1.2.5-.3.2-.3.8-.5 1.3l1.3-.8zM52.9 72c-1.7 1-3.4 1.8-5 2.6-1.1.6-2 .2-1.9-1 0-3.7.2-7.5.5-11.2 0-.6 1.2-1.5 2-1.6 3.3-.4 6.4.7 9 2.6 1.3.9 1.7 3.9.5 5-1.5 1.3-3.3 2.4-5.1 3.7zm-.9-8.8c-1.1.1-2.8-1.6-3.2.9-.4 2.4-.6 5-.8 7.4 0 .2.8.7 1 .6l6.5-4c1.2-.9 1-2.6-.4-3.4-.9-.5-1.7-1-3-1.5zM63.5 87.5c3.1 0 3.2-.1 2.4-2.9l-.5-2-.7-1.9c-.6.6-1.4 1-1.7 1.6l-3.5 11c-.2.6-.8 1-1.3 1.5-.3-.6-1.1-1.3-1-1.7.9-3.3 1.8-6.5 2.9-9.7.4-1.2.8-2.5 1.6-3.5 1.5-2 4.3-1.7 5.1.7 1.2 3.7 2 7.6 3 11.4 0 .4-.3.9-.5 1.3-.5-.3-1.3-.7-1.4-1-.3-2.4-1.6-3.1-3.8-2.9-1.4.1-2.3-.5-.6-1.9zM162 70.9c0-.7-.4-1.2-.5-1.8l.1-1.1c2.6-1 2.7-3.8 4-5.7.7-1.1 1.3-2.4 2.2-3.4.3-.4 1-.3 1.6-.4l.2 1.4c.1.7.1 1.5.4 2.1 1.7 3.6 2.5 7.3 1.4 11.2-.1.4-.6.8-.9 1.2-.3-.5-.8-1-1-1.6-.1-.2.3-.7.4-1 .2-1.4 0-2.3-1.7-2.3-2.1 0-4-.2-4.2 2.7-.1.9-1.5 1.6-2.3 2.4l.3-3.7zm6.7-3.8c.1-.6.3-1.2.2-1.8 0-.8-.3-1.6-.5-2.4l-1.4 2-.3.3-.6 2.1c.8 0 1.6 0 2.6-.2zM213 106.8c.3 2 .5 3.7.9 5.4.2 1 .6 2 .7 3 .3 2 .2 4-1.7 4.8-2 .8-4.4 1.4-6.3-.5a45.3 45.3 0 01-3.6-3.8c-.2-.4 0-1-.1-1.6.6.2 1.2.2 1.7.5 1.5 1 2.8 2.1 4.4 2.9 1.5.7 3-.3 2.7-2-.2-1.9-.8-3.7-1.5-5.4-1.2-2.8 2.1-6.8 4-7 .8 0 1.5.7 2.3 1l-1.4 1.2-2 1.5zM193.8 73c-.7 0-1.1.4-1.5.4-.6 0-1.2-.3-1.7-.5.3-.5.5-1 1-1.4 2.5-2 5.1-4 6.3-7.3.6-1.6 0-2.3-1.3-2.8-3.7-1.4-5.7.1-5.8 4 0 1.7-.2 3.4-.5 5.1 0 .4-.4.7-.7 1l-.7-1c-.2-.6-.5-1.2-.5-1.9.1-2.1.2-4.2.5-6.3.4-2.4 2.8-3.8 5.3-3.3 1.1.2 2.3.2 3.4.6 3.6 1 3.1 6.4.9 8.9-1.5 1.5-3 3-4.7 4.4zM212.7 47.6v-4.3c0-1 .4-2.7-1.6-1.5-.1-.4-.5-1-.3-1.1.9-.7 1.8-1.8 2.8-1.8 3.2-.2 6.6-.5 9.7.3 2.3.6 2.2 3.5 0 4.8-1.8 1.1-3.8 2-5.9 2.6-2.3.7-3.2 2-2.7 4.3.2.7 0 1.4 0 2-.7-.5-1.7-1-1.9-1.6-.3-1 0-2.3 0-3.7zm5.6-7.2c-3 0-4 1.4-3.1 4.3.1.2 1 .5 1.2.4l6.1-2.8 1-.7c-.4-.3-.7-.7-1-.7-1.2-.3-2.5-.4-4.2-.5zM117.6 44.6l-2.5-1c-3-1.5-3.5-3.5-1.1-5.8 1.8-1.7 4-3 6.8-2.8.5 0 1 .4 1.4.7.4.3.6.8 1 1.2l-1.6.5-5.2 1.6c-.6.2-1 1-1.4 1.6.6.4 1.1.9 1.7 1.2 2 1.2 4 2 5.8 3.5 1.8 1.5 1 4-1.4 4.3-2.1.3-4.4.4-6.6.4-.5 0-1-.7-1.4-1 .5-.5 1-1.2 1.5-1.3 1.8-.2 3.6 0 5.4 0 .4 0 .9-.4 1.3-.5-.3-.5-.5-1.2-.9-1.5-.8-.4-1.8-.6-2.8-1zM138 42.4c1-1.7 1.8-3.3 2.8-4.8.5-.7 1.3-1.5 2-1.5.6 0 1.6 1 1.8 1.7.8 3.6 1.4 7.4 2 11 0 .6-.6 1.2-.9 1.8l-1-1.6-.5-1c-.3-1 .7-2.8-1.3-2.8s-4.2-.7-5.3 2c-.4.9-1 1.8-1.7 2.6-.5.5-1.2.7-1.8 1.1 0-.8-.4-1.8 0-2.4 1-2 2.5-4 3.9-6zm5.7-1.3l-1-2.2-1.4 1.6-.3.9-.8 2.5 3-1.4c.2-.1.3-.6.5-1.4zM122.9 116.6c0 1-.2 2-.4 3-1.6-.4-1.7-1.6-1.7-3v-10.2c0-2.1.5-4 3.3-3.8 1.2 0 2.5-.6 3.7-.4 1.1.2 2.6.8 3 1.6.4.9-.1 2.5-.8 3.4-1.1 1.4-2.5 2.9-4 3.5-3 1.1-3.5 3-3.1 5.9zm2-7.7c1.3-1 2.6-2 3.7-3.3.3-.2.2-1.4 0-1.5-2.9-1.1-6 1.2-5.8 4.3l.3 1.5 1.9-1zM285 46.3l-1.2-.2c-.3 1.3-.3 2.7-.6 4-.1.6-.6 1.3-.9 2-.5-.8-1.5-1.5-1.4-2.2.3-2.6.8-5.2 1.4-7.8.1-.5.7-1.2 1.1-1.2.4 0 1 .6 1.3 1l3 5.6c0 .3.2.4.4.6.2-.3.5-.6.4-.9-.2-1.5-.6-3-.7-4.5 0-.7.3-1.5.5-2.3.6.5 1.5 1 1.6 1.6.7 3.3 1.1 6.5 1.6 9.8 0 .5-.4 1.2-.8 1.6-.1.2-1 0-1.2-.3-2-1.8-3.9-3.8-4.4-6.8zM56.2 110.9c.5-2 .9-3.8 1.5-5.5.2-.7 1-1.2 1.5-1.8l.4 2v.4l.2 3.9c1-.5 2-.8 2.8-1.5.6-.6.9-1.7 1.4-2.5l1.7-3.2c.3 1 .8 2 .7 3.1 0 2-.3 3.9-.5 5.8a48 48 0 01-1 5.7c-.2.7-1 1.2-1.5 1.8-.2-.6-.4-1.3-.4-2l.5-5.5c0-.4 0-1-.3-1.2-1.2-.6-4.3 1-4.8 2.3l-.3.9-1.7 2.1c-.2-1-.5-1.9-.5-2.8l.3-2zM257 85.2l2.3-6.5c.2-.4 1-.5 1.5-.7v1.5c-.7 4.2-1.5 8.4-2.4 12.5-.2.9-1.2 1.6-1.8 2.3-.8-.7-2.2-1.3-2.4-2.1a98 98 0 01-1.6-10c0-.6.6-1.3.9-2 .5.6 1.3 1 1.4 1.7.4 1.5.3 3 .7 4.6 0 .7.6 1.3 1 2l.4-2v-1.3zM283.8 103.2c2-.5 4-1 5.8-1 .8 0 1.6.7 2.4 1.1-.7.3-1.4.4-2 .8-.6.5-1.8 1.2-1.8 1.8-.3 5-.2 10.1-.3 15.2 0 .2-.1.6-.3.7-.2 0-.5 0-.7-.2-1.9-1.2-2.1-3.3-2.2-5.1 0-3.2.2-6.4.6-9.5.1-1.2 0-1.4-1-1.5-.7 0-1.3-.4-2-.6l1.5-1.7zM53.3 105l-2 9.4-.1 1.2-1.5 2c-.3-.8-.9-1.7-.8-2.4l2-10.6c.2-.5.4-1 .5-1.7l-2.3-.3-2.2-.2c.7-.6 1.3-1.5 2.1-1.7 2.5-.5 5-.7 7.6-1 .6 0 1.2.2 1.7.5.4.1.5.5.8.8-.3.2-.7.6-1 .6h-3c-1.7.3-2.1 1.6-1.8 3.4zM198.1 109c0-2 .5-4-2.3-3.6-.5.1-1-.7-1.5-1 .4-.5.8-1.2 1.3-1.3 3.4-.6 6.7-1 10.1-1.4.5-.1 1.1.4 1.7.6-.5.5-.8 1.2-1.3 1.3-1.6.4-3.2.5-4.8 1-.5.2-1 1.2-1 1.7.1 2.6.5 5.2.7 7.7 0 .7-.4 1.4-.6 2.2-.6-.8-1.5-1.5-1.7-2.4-.4-1.5-.4-3.1-.6-4.9zM57.1 41.3L68.5 39c.5 0 1.2.5 1.8.8-.6.4-1.1 1-1.7 1.1-2 .3-4 .5-4.6 2.7-.8 2.8-1.3 5.6-2 8.4-.2.6-.7 1-1 1.6-.3-.6-1-1.2-.9-1.7.5-2.6 1.3-5.1 1.9-7.7l.4-1.7-1.8.1c-1.2.2-2.4.6-3.6.7-.4 0-.9-.5-1.3-.7l1.4-1.2zM140.4 86.2c1.3-1.5.2-2-.8-2.5l-1.7-1.1c.7-.3 1.4-.8 2.2-.9l9.2-.5c.7 0 1.4.7 2 1-.5.4-1 .8-1.5 1-2.1.3-4.3.5-6.4 1-.4 0-1 .8-1.1 1.3l-1 9.3c-.2.7-.9 1.3-1.3 2-.2-.7-.7-1.3-.6-2 .2-2.8.6-5.6 1-8.6zM61.5 68.6c.2-1.8.2-3.4.6-5 .1-.6.9-1.2 1.4-1.9.3.7.9 1.3.9 2 0 3.4-.3 7-.5 10.4 0 .5-.6.9-.9 1.3-.3-.3-.9-.6-1-.9l-.5-3.7v-2.2zM275.4 51l.5-7.2v-2.2c.3-.6.8-1.1 1.2-1.7.4.5 1 1 1 1.5a39.3 39.3 0 01-.3 10.3c0 .8-.6 1.5-1 2.3-.4-.6-1-1.1-1.3-1.8-.2-.2 0-.6 0-1.1zM383.5 761c-.4 7.4-4.5 12.5-9.9 16.5-1.6 1.2-4.3 1.3-6.5 1.6l-24.1 3.2c-4 .5-7.9 1.3-11.8 1.5l-24.8.6c-4 0-8.1.4-12.2.4-2.9 0-5.8-.4-8.7-.4-5.4 0-10.7.3-16.1.5-2.9 0-5.8-.1-8.7 0l-18.7 1c-3.2.2-6.5.2-9.6.6-6.9.7-13.7 1.5-20.5 2.6-1.9.4-3.7 2-5.3 3.4-2.3 2.2-4.4 4.6-6.6 7-2 2.4-4.8 3-6.3-.3-2-4-6.3-5.6-9.7-8.2-4.9-3.9-10.6-4.5-16.4-5.6-4.4-.9-8.8-2-13.3-2.8-1.8-.4-3.6-.7-5.4-.8h-26.4c-8 0-15.9.2-23.8.5-5.5.3-10.8 1.4-16.2 1.4-6.3 0-12.6-.8-18.8-1.5-4-.3-8-1.4-11.8-1.4a29 29 0 01-17.3-5.3c-5-3.4-9.7-7.1-12-13.1-1.6-3.9-2-7.8-1.3-11.7.2-1 1.3-1.8 2-2.7 0 1 .5 2.2.3 3.1-1.4 4.7.1 9 2.2 12.7 2.3 4 6.2 6.7 10 9.3a36 36 0 0019.2 5.1c4.7.2 9.3 1.3 14 2h1.5c6.4 0 12.8.3 19.3 0 7.7-.5 15.5-1.4 23.2-2 2.1-.2 4.2 0 6.3 0 8.3 0 16.7-.4 25 0 6.5.4 12.9 1.8 19.3 2.8 4 .6 8 1.2 11.9 2 5.4 1.1 9.8 4.4 14.2 7.5 2.3 1.7 4 3.8 6.3 5.6.4.4 1.9.3 2.4-.2 2-1.8 3.7-4 5.9-5.7 3.7-3 7.8-4.8 12.8-5.5 7.7-1 15.4-1.3 23.2-1.5 4.9 0 9.8-1 14.7-1.4 3.4-.3 7-.5 10.5-.5 3.3 0 6.6.4 9.9.4 4.8 0 9.7-.3 14.5-.5l22.2-.5c6.4-.1 12.8-.1 19.2-.6 5.1-.3 10.2-1.3 15.2-2 5.2-.7 10.4-1.1 15.5-2.1 5-1 10.5-1 14-5.4 1.6-1.7 2.4-4.1 3.3-6.4.8-2 1.2-4.1 1.8-6.2.4-1.3 1.3-2.1 2.6-1.5.4.1.3 1.5.3 2.4 0 .6-.3 1.2-.5 2.1zM270 840.9l-.3-2c-1 .1-2.5.1-2.7.7a7.4 7.4 0 00-.3 4c.5 2.3-.2 5-2.3 6-1.9 1-4 2.2-6 .2-.4-.5-.9-1.4-.9-2.1 0-3 .2-6 .6-8.9.1-1 1.1-2.5 2.1-2.8 1.3-.5 3.2-.6 4.4 0 2 1 3.5.3 5.4 0 2.4-.4 5-.4 7.4-.2.7 0 1.3 1 1.9 1.7-.9.2-1.7.6-2.5.6-1 0-2-.4-3-.3-.6 0-1.5.4-1.7 1-.3.5-.1 1.5.3 2 .2.4 1.2.1 1.9.1h2.5c.7 0 1.3.3 2 .5-.6.5-1 1.1-1.7 1.3-1.2.4-2.6.5-3.8.8-.7.2-1.6.5-1.7 1-.2.7 0 1.8.5 2.3.3.3 1.4-.1 2.2-.2.2 0 .3-.5.5-.5 4.3-.9 5.7-4.3 7.1-7.8 1.1-2.6 3.4-3 5.5-1.5.2.2.6.5.6.7 0 .3-.5.8-.7.7-4.4-.3-4 3.6-5.4 6-.4.6-.2 1.6-.2 2.4.9.1 1.9.3 2.8.2 2.3-.5 4.7-.8 6.7-2 1.4-.8 2.3-2.8 3-4.4 1-1.9 1.4-4 3.7-5 1.5-.5 2.7-.5 2.6 1.6 0 .4 0 .8.2 1.2l1.1 2.7c1-.8 2-1.5 2.8-2.5.7-.8 1-2 1.6-3 .3-.3 1-.4 1.4-.7.2.6.7 1.1.7 1.6l-1.5 6.9c-.1.8 0 1.9.5 2.5.6.8 1.4 2.6 2.6.2 1.4-2.9 3-5.7 4.6-8.4.3-.5.7-.8 1-1.1.2.4.6.9.5 1.3 0 1.4-.3 2.8-.4 4.2 0 .6.1 1.4.5 1.8.7.5 1.7.8 2.5 1.1-.2-.7-.2-1.5-.5-2.1-1.9-3.6 0-8 4-9 1.4-.4 2.9.1 4.3.2-1 .7-2 1.6-3.2 2.1-4.4 1.8-4.3 4.2-2 6.8.7.8.5 2.6.7 4-1.8.2-3.5.5-5.3.5-.6 0-1.3-.7-2-.8-.7 0-1.8 0-2 .5-1.4 2-2.8 3.5-5.4 2.3-2.2-1-3-3-2.6-5.7.1-.7-.5-1.4-.7-2.2-1 .6-2.5 1-2.7 1.9-.6 1.7-.4 3.6-.7 5.4-.1.6-.7 1-1 1.5-.4-.5-1-1-1-1.5 0-2.8.3-5.6.4-8.4l-.3-2c-.6.6-1.3 1-1.6 1.7l-2.8 7.4c-.3.7-.8 1.3-1.3 1.8-.4.4-1 .6-1.6.9l-.4-2 .2-1.4-1.5.4-5 2.2c-2 .8-3.8.7-5.1-.8-1.3-1.4-2.4-.8-3.4 0a5 5 0 01-5.2.9c-3.1-1-1.8-3.8-2-5.9 0-.7.7-1.6 1-2.6zm-5.8-.3c1.5-1.7 0-2.1-1.1-2.6-1.5-.8-2.8 0-3 1.3-.2 3 0 5.9 0 8.8 0 .3 1.2 1 1.4.9 1.2-1 2.5-2 3.6-3.1.2-.2.1-1-.1-1.3-.2-.3-.8-.4-1.2-.4l-2-.3c.3-.6.5-1.2 1-1.7.2-.5.7-1 1.4-1.6zM264.2 917.1c-.5 2.5-1 4.9-1.6 7.1-.2.8-1 2.1-1.6 2-.8 0-2-.7-2.4-1.5-1-2-1.4-4.4-2.2-6.6-.2-.7-.6-1.4-1-2-.3.7-.8 1.4-1 2.2-.3 1.6-.2 3.3-.6 5-.3.9-1 1.7-1.7 2.6-.4-1.1-1.3-2.3-1.2-3.5a28 28 0 011.4-6.3c.5-1.3.1-1.8-1-1.6-2.2.4-4.3 1-6.4 1.6-.5.2-.6 1.5-.9 2.3l1.9.2c.5 0 1.1-.2 1.7-.1.7.1 1.3.5 2 .8-.5.4-.9.9-1.4 1l-3.3 1c-1.6.2-2.3 1.2-1.9 2.6.5 1.7 1.8.8 2.9.4 1.3-.4 2.6-1.9 4.2-.3-1 1-2 2-3.2 2.8-1 .6-2.2.9-3.4 1.2-.8.2-2.2.6-2.5.2-.6-.8-1.2-2-1-3 .1-2.1 1-4.1 1.2-6.2.2-1.1 0-2.6-.7-3.4-.5-.6-2-.7-3-.5-4 1-5.1 2.3-5 5 .1 1.1.2 1.4 1.4.8 1.2-.7 2.7-1 4.1-1.2.4 0 .9.6 1.3 1-.3.3-.5 1-.9 1-1.3.3-2.8.4-4.1.6-.8.1-2 .3-2 .7-.4 1.3-.3 2.7-.4 4 .5 0 1.1 0 1.6-.2 1.2-.6 2.4-1.4 3.6-1.9.4-.1 1 .4 1.6.6-.2.5-.3 1.1-.7 1.4l-3 2.1c-1.3.9-2.7 1.8-4.2.5-1.7-1.3-2-3-1.7-5.1.2-2.3 2-4.7 0-7-.2-.3.4-1.6.8-1.8 3.7-1.4 7.2-3.7 11.6-2 1.6.7 4-.4 6-.7l6-1c2.9-.5 4.2 1.3 5 3.6.5 1.4.7 3 1 4.5.2.5.7.8 1 1.2.2-.3.6-.7.6-1.1l.6-6.1c0-.7.6-1.3 1-1.9.4-.3 1.2-.6 1.4-.5.4.4.6 1 .6 1.6 0 1.2-.3 2.4-.5 3.9zM324.9 930c-.4-1.8-.8-3.4-1-5-.2-1.4.1-2.8-2.2-1.8-1.4.6-3.2.8-4.7.6-2.5-.4-3.5.8-4 3-.3 1-1 1.8-1.4 2.7-.6-1-1.3-2-1.7-3.2-.2-.5 0-1.4.2-2 1.5-2.3-.2-2-1.7-2-1 0-1.9.3-2.8.5-2.3.4-3.5 1.5-3 4 .2 1.2 0 2.6-.3 3.8-.2.6-1 1-1.4 1.5-.5-.7-1.4-1.5-1.3-2.1.6-3.2-1.3-6.5.4-9.6.1-.2 0-.5 0-.8-.6-3.4-.6-4 2.8-4.4 3.6-.4 7.4 0 11 0 1.3 0 2.6-.3 3.9-.1 1.5.1 3 .6 4.6 1l-4.6 1.5c-1.1.4-2.4.6-3.4 1.1-.5.3-.9 1.2-.7 1.7.1.4 1 .8 1.6.8 2.6 0 5.2-.2 7.8-.5.7-.1 1.4-1 1.9-1.7.4-.6.4-1.4.9-2 .3-.3 1-.2 1.5-.3l.2 1.3c-.4 3.8-.8 7.5-1 11.2-.1 1.3-.4 1.8-1.6.9zM304.2 918c-.6.6-1.2 1.2-1.5 1.9-.1.2.6 1.2.8 1.2 2.3-.5 4.5-1.2 6.7-1.9.5-.1.8-.7 1.2-1-.5-.4-1-1-1.5-1-1.9 0-3.7.3-5.7.8zM306.2 864.7c1.6-.2 2.9-.5 4.2-.8-1 1-1.8 2-2.9 2.9-1.3 1-2.7 1.9-4.1 2.5-1.7.8-3.5-.3-3.3-2 .3-2.6-.5-5.6 1.8-7.8l.2-.4c1.4-4.2 1.4-4.3 5.7-4.2l19.5.5c.6 0 1.1.5 1.7.8-.5.4-1 1-1.6 1.2-.4.2-1 0-1.5 0-1.8.4-3.3.9-3.7 3.2-.4 3.5-1.3 6.9-2 10.3 0 .4-.5.7-.7 1-.3-.3-.8-.5-.8-.8-.2-2-.6-3.9-.4-5.7.3-2 1.3-4 1.7-6 0-.5-1-1.6-1.7-1.9-4-1.6-8.2-.2-12.3-.5-.4 0-1.3 1.3-1.2 1.9 0 1.1.6 1.2 1.8.7 1.3-.4 2.8 0 4.2 0-1.2.8-2.3 1.7-3.6 2.2-.9.5-2.2.3-3 1-.7.6-1 1.8-1.5 2.8.5.2 1 .5 1.4.4.7-.3 1.3-.9 2.1-1.3zM129.5 839a65 65 0 015.7-1.7c.4-.1.9.4 1.3.6l-1.1.9c-1.8 1-3.6 2-5.2 3.2-.4.3-.4 1.7 0 2.4.7 1.4 2 2.6 2.8 4 .4 1 .6 2.4.2 3.2-.3.7-1.9 1.3-2.7 1.1-1.8-.4-3.4-1.3-5.1-2.1l-8.4-4-1-.8-2.3-1.3c-.1.9-.1 1.8-.4 2.6-.4 1.1-1.1 3-1.5 3-1.5-.3-1.7-1.6-1.6-3l.6-7.8c0-.5.3-1 .5-1.3l1 .5 2.4.2.4-.4c1.6-1.3 3.7-2 5-.6 1.4 1.6.3 3.6-1.1 5-1.2 1.1-1.4 1.6.3 2.4 3.2 1.5 6.1 3.3 9.2 4.9.5.3 1.2 0 1.9 0l-.8-1.4-1-1.5c-2.8-3.9-2.8-4.5 1-8.2zm-11 1c-1.7-2.2-2.7 1-4.1.6l-.2 1 3.1-.4c.4 0 .7-.6 1.2-1.1zM304.7 889.6c-3.3-.5-5.3-2.5-5-5.3.2-3 1-6.2 3.8-8.1.5-.4 1.2-.6 1.8-.6 1 0 2 .4 3 .5-.8.4-1.6.9-2.5 1.2-2.8 1-4.6 6.9-2.5 8.5a3 3 0 002.4.4c2.4-.8 5-1.5 7-3 1.7-1.5 2.5-4 4-6 .8-1.3 1.9-2.7 3.2-3.6 2-1.3 3.3-.5 3.4 1.9v2.6l.5 2.4c.5-.4 1-.8 1.7-1 .4-.2.9 0 1.3-.1 0 .5 0 1.2-.3 1.5-.5.5-1.5.5-1.9 1-.7.9-1.1 2-1.5 3l-1 3c-.6-.8-1.3-1.6-1.8-2.5-.4-.6-.5-2-.6-2-1.3.3-2.7.4-3.8 1-.7.4-.8 1.7-1.4 2.5-.5.6-1.2 1-1.9 1.6l-.7-2-.2-1-1 .5-6 3.6zm16.3-11.4l-.4-2.5c-.4.6-.9 1-1.2 1.6-.5.7-1 1.5-1.3 2.3-.2.5-.1 1.1-.2 1.7.7-.1 1.6 0 1.9-.4.5-.7.6-1.6 1.2-2.7zM62.5 863.2c.2-1.3.3-2.4.6-3.4.5-2 1.4-3.2 3.9-3 2.7.4 5.4.1 8 .1 2.3 0 3.4 1.5 4.4 3.2.5.8 1.2 1.4 1.7 2l1.1-2.5v-.5l2-2.2c.2 1 .8 1.9.5 2.6-1.4 4.6-3 9.1-4.6 13.6-.1.4-.7.7-1 1-.4-.5-1-1-1-1.3.2-1.9.4-3.9 1-5.5.8-1.6.4-2.7-.5-3.8l-.9-1.5c-2.9-4.1-3-4.1-8-2.7-.8.2-1.7 0-2.4.3-.7.2-1.1.9-1.7 1.4.5.2 1 .5 1.6.6h3.6c.4 0 .7.5 1 .7-.3.3-.5.8-.9.8-1.4.3-3 .3-4.4.6-.7.1-1.8.6-1.8.9 0 1.4.2 2.8.6 4 .1.4 1.5.3 2.3.3l3.2-.2c-.6.9-1 2.1-2 2.7-1.6 1-3.6 1.5-5.2 0-.9-.9-1.4-2.5-1.5-3.8-.2-1.3.2-2.8.4-4.4zM98.4 965c1.4-.1 3.1-.5 4 .2 1.1 1 1.4 2.7.3 4.3l-.8 1.5c-.5 1-1.7 2.8-1.4 3 2.6 2.2 5.5 2 7.8.4 2.9-2 2.2-5.2 3-7.9.2-.8.7-1.5 1-2.2.4.7 1 1.3 1 2V978c0 .3-.5.6-.8.9l-.7-1c-.2-.7 0-1.4-.2-2-.1-.4-.5-.9-.8-1-.2-.2-.8.2-1 .5-3.3 5-8.7 3-11.5-.1-.4-.5-1-.7-1.5-1-.2.5-.5 1-.6 1.6-.2 1.5-.3 3-.7 4.4 0 .3-1.1.6-1.7.5-.3 0-.7-.9-.7-1.4.1-2.7.5-5.4.5-8 0-2.6-.1-5 3.3-5.4.5 0 1-.5 1.5-1zm-1.1 4.7l.8 1.7c1-1.1 2-2.3 2.7-3.5.3-.3 0-1-.1-1.5-.4.2-.9.3-1.2.6-.8.7-1.5 1.5-2.2 2.7zM313.4 898.3c0 .8 0 1.6.3 2 .6.9 1.5 1.5 2.1 2.3 1.3 1.6 2.5 3.4 1.2 5.4-1.3 2.2-3.6 1.9-5.4 1.1-1.9-.7-3.3-1.1-5.5-.4-4.2 1.3-8-1.3-12-2.5l.4-1c1.4 0 3 0 4.4.2.4 0 .8.6 1.2.6h2.5c-.5-.6-1-1.3-1.6-1.6-3-1.7-3.4-4.3-1-6.8a6.7 6.7 0 016.4-2.2c.5 0 1 .7 1.4 1l-1.3 1c-1 .2-2.2 0-2.9.6-.9.6-1.6 1.6-2 2.6 0 .5 1 1.4 1.6 2 2.6 2.7 6.5 2.6 9.7 4 .4.3 1.2-.2 1.8-.3-.2-.6-.3-1.3-.7-1.8-.5-.8-1.5-1.3-1.9-2-.7-1.4-2-3.6-1.6-4.2 1.3-1.5 3.4-2.4 5.2-3.4.3-.2 1.2.7 1.8 1l-1.4 1c-.9.4-1.8.8-2.7 1.4zM143.3 924c.8-.3 1.7-.5 2.1-1.1 1-1.3 1.7-2.9 2.8-4 .7-.7 2.3-1.5 3-1.1 1 .4 2 1.7 2.5 2.8 1.2 2.7 0 5.2-1.4 7.5-1.9 3-2.9 3.2-6.4 2.2-.8-.2-1.7 0-2.6.1-2.2.2-4.5.6-6.7.6-.7 0-1.7-.8-2.2-1.4-.4-.6-.3-1.5-.4-2.3.6.2 1.3.3 1.8.6 1.1.8 6 1.2 7 .4.3-.3.3-1.3 0-1.6-1.2-1-2.5-2.4-4-3-2.4-1.1-1.6-2.8-.6-3.6 2.3-1.8 4.9-3.1 7.4-4.5.4-.2 1.2.4 1.8.6-.3.4-.6 1-1 1.2l-4.3 2.8c-2.4 1.6-2.4 1.9 0 3l1.2.8zm4 4.5c3.2-.8 3.9-3.4 4.3-6.1.1-.5-.3-1.3-.8-1.6-.3-.2-1.3.2-1.5.5-.8 2.3-1.5 4.6-2 7.2zM121.8 979.7c-.3-1.6-.7-3.1-.6-4.6.2-3.3.4-6.6 1-9.9.4-2.3 1.2-2.3 3-.8.5.4 1.5.5 2.2.4l11.6-2.6c.3 0 .8.3 1 .6.1 0-.2.7-.4.9-.6.4-1.2.9-1.9 1-3.7 1.2-7.4 2.2-11.1 3.2-1.1.3-2.8 3-2.3 3.9.1.3 1 .6 1.5.4 1.8-.6 3.5-1.5 5.4-2 .4-.2 1.1.2 1.7.4-.3.5-.6 1-1 1.3-1.9.8-3.8 1.3-5.6 2.3-.9.5-1.5 1.6-2 2.5-.2.3.4 1 .6 1.5.4-.2.9-.3 1.3-.6 1.8-1 3.5-2.2 5.4-3.2.4-.2 1.1.2 1.7.3-.1.5-.1 1-.5 1.4-1.5 1.5-3.1 3-4.9 4.4-2.8 2-3.4 2-6.1-.8zM153.6 904c2.9-1.5 4.6-3.4 5-6.6 0-.8 1-1.4 1.7-2 .1.8.5 1.7.4 2.6-.3 2-1 4-1.2 6 0 .7.5 1.5.8 2.2.6-.4 1.5-.7 1.7-1.3l2.7-7.2c.3-.9 1-1.6 1.5-2.4.3.8 1 1.7 1 2.5-.1 4.1-1.6 7.7-4.9 10.3-.8.7-2.3 1-3.4.8-1.7-.2-2.2-1.6-2-3.2 0-.7-.3-1.4-.4-2l-1.2 1.6c-1 1.1-2 2.6-3.3 3.4-3.5 2-5 .7-6-2.3-1-3.4 1-8.6 4-10.2 1.5-.8 2.4-.2 3 .9.2.2-1 1.5-1.7 1.8-2.2 1-3.8 5-2.6 7 .3.5 1.5.6 2 .4 1-.5 2-1.4 3-2.3zM186.4 841.4c-.8.6-1.8 1-2 1.8-.6 2.3-.6 4.7-1.4 7-.7 2-2.8 2-4.4 1.5-1.4-.4-2.3-1.7-2-3.5.2-1.4.4-3 .4-4.4 0-3.4 2-4.3 5-4 1 0 2.2-.4 3.4-.5 4.4 0 6.9 2.3 7.3 6.6 0 .4.3.8.5 1.2.4-.4.8-.8 1-1.3l2.6-8.2c.2-.6.8-1 1.2-1.4.3.5 1 1.2.8 1.6-1 4.4-1.7 9-4.4 12.9-.4.7-1.4 1-2 1.5-.7-1-1.4-1.7-1.8-2.7-.3-1-.6-2-.5-3.1.2-2.7-1-4.3-3.7-5zm-5.7 8c.6-2.2 1.1-4.3 1.5-6.6 0-.3-.9-.8-1.4-1.2-.7 1.5-1.7 3-2 4.5-.4 1.4-.5 3.2 2 3.3zM268.5 936.4c1 .4 2 .7 2.4 1.4 1.3 2.6 2.4 5.3 3.6 7.9.2.5.7.9 1 1.3.2-.5.6-1 .6-1.5 0-2.2-.1-4.4.1-6.6.1-1 1-2.4 1.7-2.5 2-.2 1.4 1.6 1.3 2.6 0 2.6-.3 5.2-.4 7.9-.1 1.4.2 2.8-.1 4.2-.6 2.3-2 2.7-3.3.7-1.9-2.8-3.3-6-5-8.9l-1-1.4c-.2.5-.5 1.1-.5 1.7.1 2.4.5 4.9.4 7.3 0 1-1.1 2-1.7 2.9-.6-.7-1.8-1.4-1.7-2 .1-4.3.5-8.6 1-13 0-.6 1-1.2 1.6-2zM35.5 943c0-2.6.1-4.9 2.7-6 3.1-1.5 6.2-1.9 9.3-.4 1.4.7 1.4 2.1.6 3.5-.6 1-.9 1.9.2 3 1.6 2 .1 7-3.5 8.7-1.8.8-4 .8-6 1-.3 0-1-.4-1.1-.7 0-.4.3-1 .7-1.2.8-.3 1.7-.5 2.6-.6 2.3-.4 4.2-1.4 5.1-3.7.3-.6 0-1.7-.4-2.3-.3-.4-1.4-.5-2-.3-1.5.5-3.2 1-4.4 1.9-1 .8-1.5 2.3-2.2 3.4l-1.3 1.5c-.3-.5-.8-1-.8-1.4v-3.5c.1-.9.4-1.7.5-2.9zm10.7-3.6c-1.1-1.5-3.7-1.6-6.2-.7-1.8.7-1.5 2.3-1.8 3.6 0 .1.9.8 1.1.7 2.3-1 4.4-2.2 6.9-3.6zM330.6 905.7c-.5.8-.6 1.7-1 2.5-.5.6-1.2 1-1.8 1.6-.3-.7-1-1.6-.8-2.2.7-3.5 1.6-7 2.5-10.4.2-.5 1.1-1 1.7-1.4.3.7.8 1.4 1 2.1.2 1.8.2 3.7.5 5.5 0 .4.6.8 1 1.2l1-1.2c1.6-2.4 3.1-5 4.8-7.3.4-.5 1.5-.8 2.2-.7.4 0 .7 1.2.8 1.9l.5 10.4v.2l-2 3.5c-.5-1.2-1.5-2.4-1.5-3.6 0-2 .7-4 .9-6 0-.7-.3-1.4-.5-2.1-.4.4-1 .8-1.3 1.3-1.1 2-2 4.1-3.3 5.9-2 2.3-2.7 2-4-.7 0-.2-.3-.3-.7-.5zM316.5 826.5c-2.3-1.7-2-4-2-6.1 0-.8-.5-1.5-.7-2.3-.5.6-1.1 1.2-1.3 2-.5 1.6-.6 3.3-1.1 5-.3.7-1.2 1.2-1.8 1.8-.2-.8-.8-1.5-.7-2.3.2-2.8.7-5.5.9-8.3.2-3.1 2.6-2 3.8-1.7 1.1.2 2.3 1.5 3 2.6.4.8 0 2 0 3 0 .7.4 1.3.7 1.9.4-.6 1-1.1 1.4-1.8l3.7-6.7c.3-.4 1.3-.8 1.7-.6.4.2.7 1 .8 1.7l.7 10c0 .4-1 .8-1.5 1-.6-1-1.2-2.1-1.7-3.3-.1-.2.4-.6.4-.8l-.6-3.4-1.5 2.7c-1 2-.6 4.8-3.2 5.8-.3.1-.6 0-1-.2zM205.2 947l1.3 1.1c.2-.5.7-1.2.6-1.7-.2-2.7.9-5 2.1-7.2.2-.3.6-.5 1-.8.2.4.6.7.6 1-.6 3.3-.8 6.8-2 9.8-1.2 3-3.4 2.9-5.2.3l-1.2-1.3-1 1.6c-.8 1.3-.1 4.1-2.8 3.5-2.3-.5-1.8-2.7-1.8-4.4v-9.8c0-1.4 0-2.8 1.6-3.3.3 1 .9 2 1 3v5.5l.3.8c.3-.3.6-.5.7-.8.4-1 .6-2 1.1-2.9.3-.4 1-1 1.5-.9.4 0 .9.9 1 1.4l1.2 5.1zM219.6 970c1.1-3.8 2.3-7.4 5.9-9.1 1.4-.6 3.2-.2 4.9 0 .2 0 .6.8.5 1-.1.4-1 .9-1.1.8-2.3-1.4-3.7.2-4.6 1.6-1.2 1.8-2 4-2.4 6-.3 1.8 1.8 2.8 3.3 1.7.5-.3.9-.9 1.3-1.3l2-1.6-2.4-.7-1-.6c.2-.3.4-.8.6-.9 1.8-.4 3.5-1 5.3-.8.5 0 1.3 2.3 1.1 3.4-.4 3-1.2 6-2 9-.1.5-.7.9-1.2 1.3-.2-.5-.7-1-.8-1.6-.3-1.8-1.3-2.7-3-2.5-3.4.3-6-.6-6.4-5.7zM226.2 925.8a10.3 10.3 0 01-10.5 4.2c-.7-.1-1.7-1.2-1.7-1.7.1-1.8.7-3.5 1-5.3.2-1.6 0-3.3.3-4.9.1-.9.5-2.3 1.1-2.5 2.3-.6 4.7-1 7-1s3 1.6 2.2 3.6c-.3.7-.4 2 0 2.5 1.4 1.6 1.6 3.1.6 5zm-4.8.1l1.7-1c.4-.4.7-1 1-1.5-.7-.3-1.6-1-2.3-.9-1 .2-2.3.8-3.1 1.6-.8.9-1.1 2.2-1.6 3.4 0 0 .8.7 1 .6l3.3-2.2zm1.6-7.3c0-.4.4-1 .2-1.2-1.5-1.2-4.7-.1-5.3 1.7-.1.5.2 1.2.5 1.6.1.1.9 0 1.2-.3l3.4-1.8zM126.4 864l.3.4c1.7 1 3.7 2 3.2 4.6-.4 1.8-4.5 4-6.5 3.4-.8-.2-1.4-1-2.1-1.6-.2-.1-.1-.7 0-.8.2-.2.6-.2 1-.2.3 0 .6.2.9 0l3.6-.9c-.5-1-.9-2.1-1.6-3-2.8-2.9-2.3-4.8 2-7.4a6 6 0 014-.7c3.5.5 7.1 0 10.7-.1.6 0 1.3-.4 2-.2s1.3.8 2 1.2c-.5.4-1.1 1.2-1.6 1.2-3.8-.3-4 2.3-4.6 5-.3 1.5-.9 3-1.5 4.5-.2.5-1 .7-1.5 1-.2-.4-.6-1-.5-1.4l1.3-6.4c.1-.6.5-1.3.3-1.6-.3-.3-1-.4-1.6-.4-1.8-.2-3.6-.1-5.4-.5-2.1-.4-4.7 1.7-4.4 4zM62.6 917l2 4.5a6.3 6.3 0 006.3 4c.6-.2 1.3.1 2 .2-.6.6-1.2 1.5-1.9 1.7-1 .3-2.1.3-3 0-1.9-.6-2 .3-1.9 1.6 0 1.2.2 2.3 0 3.4-.1.6-.8 1.2-1.2 1.8-.5-.6-1.2-1-1.3-1.7-.2-1-.1-2.2 0-3.4 0-1.5-.7-2.2-2.2-2.8-3.4-1.2-4.1.8-5.2 3.2-.4.9-.5 3.5-2.6 1.2-.2-.2-.2-.9 0-1.2 1.5-4 3-8 4.8-12 .9-1.8 2.4-2.2 4.2-.5zm-3.5 4.8c-.6 1.2 0 2 1.1 2 .6-.1 1.3-1 1.7-1.8.3-.3.2-1 0-1.5 0-.4-.3-.9-.5-1.3-.5.2-1.1.4-1.4.8-.4.3-.4 1-.9 1.8zM295.5 942.4c2 3.8 2.6 7.5 1.1 11.5-.1.4-.8.7-1.3 1-.3-.5-1-1-1-1.5 0-1.3.4-2.6.5-3.9 0-.5-.3-1-.5-1.6-.4.3-.8.6-1 1a6 6 0 01-6 2.5c-3-.7-3-2.9-2.8-5 .3-2.2.8-4.4 1.6-6.4.5-1.4 1.4-2.7 2.5-3.8.5-.6 1.6-1 2.4-.9.6 0 1.2.8 1.7 1.3-.4.4-.8 1-1.3 1.2a8.3 8.3 0 00-3.8 9.2c.2.6 1.7 1.3 2 1.1 1.3-.8 2.4-2 3.5-3l-1-1-1.4-.9c.5-.6 1-1.6 1.6-1.6 1-.1 2 .4 3.2.8zM284 886.1c-1.4 2.4-5.7 4.3-8.1 3.4-1.3-.5-1.8-.8-1.9.9 0 .4-.9.7-1.4 1.1-.4-.7-1-1.4-1-2.1 0-2.3.3-4.6.6-7 0-1 .6-2.2.2-2.9-1.1-2 .2-3.2 1.5-3.8 1.4-.7 3.3-1 4.8-.8 2.3.4 3.3 2 2.4 4.4-.2.5.4 1.8.9 2 2.5.8 2.9 2.5 2 4.8zm-6.8-3c-.9.8-1.8 1.4-2.6 2.3-.3.3-.4 1.3-.2 1.6.3.3 1.2.4 1.7.3a17 17 0 003.5-.8c1-.4 1.9-1 2.8-1.6-1-.7-2-1.4-3.2-2-.5-.2-1.2 0-2 .2zm-2-4.6c0 .8.3 1.7.4 2.6l2-1.5.4-.4 1-1.5c-.6-.1-1.3-.5-2-.5-.6 0-1 .7-1.9 1.3zM204.6 962.7l4.7 8.8c.4.8 1.1 1.4 1.7 2.1.3-.8.7-1.6.8-2.5l.6-7.8c.1-.8 1-1.4 1.5-2.1.4.7 1 1.5 1 2.2 0 3.1 0 6.3-.6 9.4-.2 1.2-1.6 2.7-2.8 3.3-1.3.7-4.2-1.3-4.8-3.1l-2.1-5.9c-.2-.4-.6-.7-1-1.1-.1.4-.5.8-.5 1.3-.4 2.3-.6 4.7-1.2 7-.2 1-1 1.6-1.7 2.4-.2-.8-.8-1.6-.7-2.4.4-3.4.8-6.9 1.5-10.2.4-1.8 1.6-2.6 3.6-1.4zM102.4 944c-.3 1.7-.5 3.2-1 4.5-.3.7-1 1.2-1.6 1.8-.3-.7-1-1.5-1-2 .8-3.5 1.7-7 2.7-10.4.2-.7 1.3-1.5 1.9-1.5.6 0 1.3 1.1 1.6 1.9.5 1.3.7 2.8 1.1 4.2.2.7.8 1.4 1.2 2l.8-2.1c.7-1.5 1.1-3.2 2-4.6.4-.6 2-1.2 2.6-.9a4 4 0 012.1 2.5c.6 2.6.8 5.4 1 8 .1.8-.4 1.6-.6 2.3-.6-.5-1.4-1-1.6-1.5-.4-1.9-.5-3.8-.8-5.7-.2-.7-.6-1.4-1-2-.3.6-.8 1.2-1 1.9-.6 1.4-.9 2.9-1.5 4.3-.2.6-1 1.4-1.6 1.4-.8 0-2-.4-2.3-1-.7-1.3-1-2.9-1.4-4.3l-.9-1.9c-.2.7-.5 1.2-.6 1.9v1.3zM322.7 945.5l-2 1.7c-1.4.9-2.4 2-2 3.7 0 .7 0 1.4-.4 2-.2.4-.8.7-1.3 1l-1-1.6c-.3-1-.4-2.2-1-2.8-2-2-3.5-1.7-4.6.8-.3.5-.2 1.2-.6 1.6-.6.8-1.4 1.4-2 2-.4-1-1-2.1-.8-3a68.1 68.1 0 015.8-13.6c.5-.7 2-1.6 2.4-1.4.8.6 1.5 1.7 1.9 2.7.5 1.6.7 3.3 1 5 .5 2.4 1 2.6 3.2 1.2.5-.3 1.1-.2 1.6-.4 0 .3 0 .6-.2 1zm-9 .6c2.1.3 2-1.2 1.8-2.5 0-1.1-.3-2.2-.5-3.4l-.3-1.3c-.4.3-1 .6-1.2 1a20 20 0 00-1.4 4.3c0 .6.7 1.3 1.6 2zM228 938.4c1.2-1 2.1-2.2 3.3-2.5 1-.3 3.3.3 3.5 1 .3 1.3-.3 2.9-.7 4.3-.1.4-.8.7-1 1.1-.2.8-1.3 1.6.8 2 1.7.2 3.1 1.8 4.6 3 .4.2.5.8.7 1.3-.7.1-1.4.5-2 .3l-6.3-2.2c-3-1-3.3-.8-4 2.1-.3 1-1.1 1.7-1.6 2.5-.5-1-1.5-2.1-1.4-3.1 0-1.8.9-3.5 1.1-5.2.2-1.4 0-2.8 0-4.2l.5-2.4 1.6 1.4.8.6zm4.9 0l-3.7 2.2c-.2 0 0 .8.2 1 .3.1 1 .2 1.1 0 1-1 1.8-2 2.4-3.2zM46.4 838.3c.8-.7 1.6-1.1 2.3-1.6.3.9.7 1.7.8 2.5.3 2.9.4 5.7.5 8.6 0 .6-.4 1.2-.6 1.8-.5-.6-1.3-1.2-1.3-1.9-.2-1.6 0-3.2-.1-4.9 0-.4-.5-1-.8-1.4l-.8 1.3c-.6 1.3-1.2 2.8-2 4-.4.6-1.7 1.5-1.9 1.3-.7-.5-1.5-1.4-1.7-2.3-.3-1.5 0-3-.1-4.6 0-.6-.6-1.2-1-1.8-.3.6-.8 1.1-1 1.7-.6 2-1 4.1-1.7 6.1-.2.6-1.1 1-1.7 1.5-.2-.8-.7-1.7-.6-2.4.3-2 1-3.8 1.3-5.7.5-3 2.1-5 4.7-6.5.2-.1 1.5.7 1.5 1.1.3 2.5.4 5 .6 7.6 0 .4.3.8.4 1.3.4-.4.9-.7 1.1-1.2.8-1.4 1.4-2.8 2.1-4.5zM184 977.9c-1.9.9-2.7-.2-2.1-1.5 2-4.6 2.8-10 6.8-13.7 2-1.7 3-1.6 4 .8.9 2.8 1.4 5.7 2 8.5l1.6 6.3c0 .4-.3 1-.6 1.3-.2.1-1 0-1.2-.3-.7-.9-1.3-1.9-1.8-2.9-.6-1-1-3.1-1.6-3.1-1.6 0-3.4.5-4.7 1.3-1 .6-1.6 2-2.4 3.3zm4-8.7l-1 2.1c.8 0 1.6-.1 2.3-.3.3 0 .8-.2.9-.4l.9-4.2c0-.3-.5-.7-.7-1l-1.9 2.7c-.1.2-.3.4-.5 1.1zM228.8 902.4c-3.6.9-5 2.3-4.5 4.6 0 .4.4.7.6 1 .3 0 .6-.2.9-.4l3-2.6c.3-.2 1-.3 1.1-.1.3.3.5.8.4 1.2-.6 2.3-4 6.2-7 5.2-.8-.3-2-1.5-2-2.1.2-2.9 1-5.6 1.4-8.4.4-1.7.6-3.4 1.1-5 .3-.8 1.2-2 1.8-2 3.7 0 7.3.3 11 .5.4 0 .8.5 1.2.7-.5.3-1 .8-1.5.8l-7.3.5c-1.8.1-3.6 2.2-3.1 3.9.1.3.8.6 1.3.7.3 0 .6-.4.9-.4h2.7l-2 2zM351.5 886.4c-1-3 .6-5.2 2-7.4.6-1.1 1.5-2 0-3-1.6-1.3.1-2.1.7-2.3 3.2-1.2 6.4-.3 9.6.4.3 0 .5.6.5 1-.1.2-.6.5-.9.5h-3.9c-2.2 0-2.4 1.8-2.9 3.3l2.8.8h2.3c-.6.6-1.2 1.4-2 1.7-1 .3-2.1.1-3.1.5-.8.3-1.4 1.1-2.1 1.7.5.5 1 1.6 1.5 1.5a23 23 0 004.8-1c.5-.2.8-1 1.3-1.3.5-.3 1.2-.4 1.8-.6l-.1 1.6c-1.7 5.2-8.3 6.6-12.3 2.6zM289.8 916c1.8 3.7 1.2 5.9-3 9.3-2.4 2-5.5 3-8.7 3.2-1.6.1-2.2-.7-2-2.1.6-3.6 1-7.2 1.7-10.8.2-.7 1.8-1.4 2.9-1.7 3.3-1 6.4-.7 9 2zm-8.5 9.1c1.3-.6 2.8-.9 3.6-1.8 1.3-1.5 3-3.5 2.8-5-.2-1.7-2.7-2.2-4.8-2.3-1.8 0-2.5.9-2.7 2.5l-1 5.9c-.1 1.6.9 1.3 2.1.7zM333.8 843l-1.6 2.3c.9.1 1.8.4 2.7.3.6 0 1.1-.4 1.8-.6l3-.5c-.7.8-1.3 1.8-2 2.5-1.2 1-2.5 2.2-3.9 2.6-3 1-5.2-2-4.8-5.1.3-2 .3-4.2.6-6.3.2-1.2.5-2.5 1-3.6.2-.4 1.3-.4 1.9-.4 1.4.2 2.9.6 4.4.6 1.7.1 3.5-.2 5.3-.1.5 0 1 .7 1.4 1.1-.5.3-1 .8-1.4.9l-6.5.6c-.9 0-1.9.2-2.5.8-.4.5-.4 1.5-.5 2.3 0 .1 1 .4 1.5.4l4.4.1c.3 0 .5.5.8.8-.2.3-.5.7-.7.7l-4.9.7zM251.3 935.8c.5.5.7 1.1 1 1.7l-1.6.3c-.8.2-1.8.2-2.4.6-1 .7-1.8 1.8-2.7 2.7 1 .5 2 .9 2.8 1.5a95 95 0 015 3.4c.3.2.5 1 .4 1.1-.2.3-.8.6-1.1.6l-5.3-1.6c-3.3-1-3.3-1-4 2.2-.2 1.3.8 3.2-1.5 3.4-.2 0-1-2.4-1-3.7 0-2.6.4-5.3.5-8 0-1.1-.5-2.3-.4-3.4 0-.7.7-1.3 1-1.9.5.5 1.4 1 1.4 1.4.1 2.2.7 1.7 2 .7 1.6-1.2 3.4-2.5 5.9-1zM68.7 842.4l-.5 6.5c-.1.7-.7 1.2-1 1.8-.5-.5-1.5-1-1.5-1.5.2-3.2.3-6.5 1-9.6.4-1.3 2.2-2.5 3.5-3.2.3-.2 2 1.5 2.6 2.6.4.7 0 1.8.1 2.8 0 .4.3.7.5 1.1.3-.3.8-.5 1-1 .8-1.3 1.4-3 2.4-4 1-1.2 2.7-.4 2.8 1.2.1 2.9 0 5.8 0 8.7 0 .5-.8 1-1.2 1.4-.5-1-1.2-1.8-1.3-2.8-.1-1.5.3-3.1.4-4.7 0-.3-.2-.5-.3-.8-.2.2-.6.4-.7.7-.7 1.9-1.3 3.8-2.1 5.6-.3.7-1 1.3-1.6 2-.5-.8-1.3-1.6-1.4-2.4-.2-2 0-4-.1-6 0-.7-.5-1.3-.7-2-.5.6-1 1.1-1.3 1.8-.3.5-.4 1-.6 1.8zM210.2 870c.4-2.4.7-4.8 1.6-6.9.7-1.4.8-1.5-.7-1.5-.8 0-1.6-.6-2.4-1 .9-.5 1.7-1.5 2.5-1.5 2.4 0 4.7.3 7.1.4.6 0 1.4-.5 2-.9 1.8-1.3 3.6-1 4.8 1 1 1.5.5 7.4-.7 8.9-1.1 1.4-4 1.3-4.7-.4-.6-1.6-.4-3.4-.7-5.1-.2-.7-.7-1.7-1.3-1.8-2.8-.6-3.3-.1-3.8 2.7a82 82 0 01-1.6 6.9c0 .5-.7.8-1 1.2l-1.1-2zm13-8.6l-.7-1.8-.7.6c-.2 1.7-.5 3.3-.5 5 0 .3.8.7 1.3 1 .2-.4.6-.8.6-1.2v-3.6zM127.7 909.7c-1.7 1-3.3 2.4-5 2.6-3.5.5-5.1-1.8-4.2-5.3.4-1.4 1.1-2.7 1.5-4 .2-.6.2-1.6-.1-1.8-1.7-1.3-.5-2.3.5-2.7 1.8-.8 3.8-1.3 5.8-1.6 2-.2 4 0 6 0 .4 0 .8.4 1.2.6-.4.3-.7.8-1.2.9l-6.3 1c-.7.2-1.7.4-2.2 1-.4.3-.3 1.3-.5 2l1.5-.3.5-.2h3.8l.2.6c-1.1.4-2.2 1-3.4 1-3 .3-5.1 2.7-4.7 5.6.2 1 .6 1.8 1.8.7l5-3.8c.4-.3 1-.4 1.5-.5 0 .5.2 1.1 0 1.6-.4.9-1 1.7-1.7 2.6zM112.7 928.1l-5-6.3-1.3-1.6c-.3.6-.7 1.3-.8 2-.4 2.1-.6 4.3-1.2 6.5-.1.7-1 1.3-1.6 1.9-.5-.9-1.4-1.7-1.3-2.5a36 36 0 011.6-7.6 5 5 0 012.8-2.8c2.3-.6 3.1 1.6 4.3 3 .7.8 1 2 1.6 3l1.3 1.2c.2-.6.6-1.2.7-1.8l.6-6.6a3 3 0 011-1.6c.3-.3 1-.4 1.3-.3.3 0 .8.6.7 1l-2 11.8c-.3 1.5-1.5 1.3-2.7.7zM84.4 968.3c1.8 5.3 3.4 10.5 5 15.7.1.3-.1.9-.3 1-.3 0-1 0-1.2-.3-.7-1.1-1.2-2.4-2-3.5-1-1-2.3-2-3.4-2.9-.6.8-1.3 1.4-1.8 2.3-.4.6-.2 1.4-.6 2-.3.6-.9.9-1.4 1.3-.4-.7-1.2-1.5-1-2.1.8-4.6 1.9-9.2 3-13.7.2-.7 1.3-1.4 2.1-1.6.3-.1 1 1 1.6 1.8zm-2.2 4.5c-.2.5-.5 1-.5 1.4l.8 2.5 1.3-.3c0-1.3.1-2.5-.1-3.7 0-.4-1-.6-1.5-.9v1zM282.5 911l-1.6.8c-.2-.7-.8-1.5-.5-2 1.8-4.6 3.6-9 5.7-13.4.4-.8 1.9-1.6 2.7-1.5.8.2 1.6 1.5 1.8 2.5.5 2.3.2 5 1.3 7 .9 1.6 1.6 3.2 1.3 5-.1 1-.9 1.7-1.3 2.5-.6-.7-1.8-1.5-1.6-2.1.5-2.8-1.4-3.2-3.3-3.6-2.1-.3-2.7 1.6-3.6 3l-.9 1.8zm3.5-7.1c.8 0 1.7.5 2.2.1.6-.3.8-1.3.9-2 0-.8-.3-1.6-.5-2.4l-.6-1.2c-.3.4-.8.6-1 1-.4 1.3-.7 2.6-1 4.5zM162.6 845.5c0-4 3.5-8.2 6.7-8.3 1.5 0 2.2.4 2.1 2 0 1.7-.9 4 2.4 4 .2 0 .8 2.2.7 3.4-.4 3.1-4.5 7.3-8.3 6.7-.4 0-.7-.4-1-.7l.8-.8 5.9-4.5c.5-.5.5-1.5.8-2.3-.9-.1-1.7-.4-2.6-.4-.4 0-.8.5-1.3.6-.6.2-1.2.2-1.9.3.2-.7.3-1.4.6-2 .5-1 1.2-1.9 1.8-2.9.2-.2.3-.7.2-.8-.3-.2-1-.4-1-.3-1.1 1.3-3 2-2.9 4.3 0 2.2-.5 4.5-1 6.8-.1.6-.8 1-1.3 1.6-.2-.7-.6-1.3-.7-2v-4.7zM113.2 819.7l3.8-1.1c1.6-.6 3.5-1.5 4.6.5 1.3 2.5.5 4.5-1.9 5.7l-.7.7c.3.3.6.7 1 .8.9.4 2 .6 2.8 1.1.7.5 1 1.5 1.4 2.2-.8 0-1.8.3-2.5 0-1.4-.3-2.7-1-4-1.7-3.3-1.6-3.7-1.3-4.4 2.4-.2 1.2-1 2.2-1.6 3.3-.3-1.2-1-2.4-.9-3.6.2-3 .6-6 1-8.9.1-.5.8-1 1.4-1.4zm7.1 1c-1.9-.8-5 .5-5.4 2.4 0 .4.2 1 .5 1.3.2.2.9 0 1.1-.1 1.4-1.1 2.7-2.3 3.8-3.7zM205.8 909.2c-.2-2.6-.2-5-.1-7.5 0-.8.2-1.8.5-2.6.4-1.4 0-3.5 2.6-3.3.7 0 1.4-.9 2-1.3 1.5-1 3.4-1.2 4.2.2.6 1.2.5 3.3-.2 4.4-1.6 2.8-1.9 2.6 1 4.1l2.7 1.1c.4.2.8.7 1.1 1-.4.3-1 1-1.4.9-2.3-.7-4.6-1.3-6.8-2.3-2.8-1.2-2.7-1.2-3.3 1.8-.2 1.3.3 3.6-2.3 3.5zm6-12.6l-2.5 2.5.7.8a38.7 38.7 0 003.4-2.3l.8-1.2c-.7 0-1.4 0-2.4.2zM143.8 889.7c.4-3.7.5-7.4 1.4-10.9.6-2.2 2.5-2.3 3.9-.3 1 1.5 1.7 3.4 2.6 5 .2.5.6 1 .9 1.4.2-.6.6-1 .6-1.6l.1-4.9c.1-.9.6-1.8 1.1-2.6.2-.2 1.5 0 1.5.2v2.5c-.2 2.8-.3 5.7-.6 8.5-.1.9-1 1.8-1.7 2.3-.2.2-1.5-.4-1.8-1-1.2-2.1-2.1-4.4-3.2-6.7-.3-.5-.8-.9-1.2-1.3l-.4 1.6-1.6 7.8c-.2 1-.9 1-1.6 0zM357.6 829.5l-1.6 3-1 1.1c-.4-.6-1.1-1.3-1-1.8.5-3.2.6-6.7 2.7-9.5 1.5-2 0-1.7-1.2-1.6-3.3.2-6.2-2.6-7-5.3-.2-.5.3-1.3.4-2l1.4 1a8.1 8.1 0 005 3.9c2.5.6 3-.6 3.9-2.2.5-1.2 1.4-2.2 2.2-3.2.1 1.2.6 2.6.3 3.8-1.2 4.2-2.7 8.3-4.1 12.8zM358 860c-.4 2.5-.8 4.8-1.5 7-.5 1.2-1.9 2.2-2.7.3-1.1-2.4-1.7-5-2.5-7.5l-.4-1.3c-.4.5-1 .9-1 1.4-.7 2.7-1.1 5.5-1.7 8.2-.1.5-.8.8-1.2 1.3-.3-.6-.9-1.2-.8-1.7.8-3.6 1.6-7.2 2.6-10.8.3-.7 1.7-1.4 2.6-1.4.5 0 1.2 1.4 1.5 2.3.3 1 .3 2.3.6 3.4.1.5.6 1 1 1.4.3-.5.8-1.1 1-1.7.2-1.7.2-3.4.6-5 .1-.7.9-1.3 1.4-1.9.3.8 1 1.6 1 2.4.1 1.1-.2 2.3-.4 3.7zM113.5 882.2c-1.9-.5-3.7-1.5-5.2-1-1.7.4-1.8 2.5-1.8 4.2 0 2.1-.2 4.2-.5 6.3 0 .4-.4.7-.6 1-.4-.4-1.2-.7-1.2-1.2a70 70 0 01-.2-6.6c0-1.2.2-2.5.6-3.7.3-.9 1.1-2.3 1.8-2.4a25 25 0 017.5.5c2.6.7 4 5.1 2.3 7.6-1.4 2-3.6 3.5-5.6 5-.5.4-1.6.1-2.4.1.3-.7.5-1.5 1-2 1.1-1.3 2.5-2.2 3.7-3.4 1.3-1.2 1.8-2.6.6-4.4zM230.4 815.6c-.2.8-.4 1.7-.9 2-2 1.9-2.5 4.3-2.6 6.8 0 2 .8 2.4 2.6 1.4l1-.7c2.5-1 3-2 0-3-.3 0-.6-.5-.9-.8.6-.4 1.3-1.1 1.9-1.1 3.3 0 6 4 5 7.1-.3 1.1-.4 2.3-.9 3.3-.2.4-1 .6-1.5 1-.2-.5-.5-.9-.4-1.3 0-1.5.2-3 .3-4.4-1.2 1-2.2 2.2-3.5 2.7-1.3.4-3.1.6-4.4.1-.9-.3-1.5-2-1.8-3.2-.6-3 .8-5.7 2.1-8.2.7-1.4 2-2.3 4-1.7zM100.9 880.8c2 1.1 2 1.3.4 2-1.8.9-3.8 1.4-5.6 2.2-.8.3-1.5 1-2 1.8-.4.4-.3 1.1-.4 1.7l1.5-.8c.5-.4 1-1 1.6-1 .9 0 1.8.3 2.8.4l-1.7 1.5c-1.2 1.1-2.3 2.4-3.5 3.4-.5.5-1.5.8-2 .6-.6-.2-1.4-1.2-1.4-1.8.2-3.7.6-7.4 1-11.2 0-.5.7-1.1 1.2-1.3 2-.4 4.1-.8 6.2-1 .6-.1 1.3.5 1.9.8-.6.4-1 1-1.6 1.1-1.4.5-3 .5-4.2 1.2-.7.3-1 1.5-1.4 2.3.7 0 1.5 0 2.2-.3l5-1.6zM292.2 885c.6-.2.8-.4 1.1-.6l2.6-1.2c-.4.9-.5 2-1.1 2.7-1.4 1.5-3 3-4.7 4-2.1 1.1-4.1-.3-4-2.8 0-3.5.6-7 2-10.2.8-1.7 3.8-2.4 6.2-1.5 1.2.4 2.4 1.2 3.6 1.9l-3.9-.1c-.5 0-1-.2-1.5 0-.8.3-1.5.7-2.1 1.1-.2.1 0 1 .1 1 .8.1 1.5.2 2.3.1.8 0 1.5-.2 2.2-.1.7 0 1.3.4 1.9.6-.5.5-1 1.1-1.6 1.4-1 .3-2 .7-2.9.5-3-.6-3.8 1.3-4.3 3.5-.1.6.4 1.4.6 2l1.6-.7c.6-.5 1.1-1.1 2-1.7zM358.6 920.2c-.3 1.5-.8 2.7-1 4-.1.7.1 1.5.2 2.2.8-.2 1.6-.3 2.3-.7 1.4-.8 2.6-1.9 4.1-2.5.9-.3 2 0 3 .1l-1.5 2c-1.4 1.3-2.7 2.7-4.2 3.6-1.4.8-3 1.4-4.5 1.6-2.2.4-3.7-2-3-4.6.9-3.7 2-7.3 3.1-10.9.3-.8 1.2-1.4 1.8-2 .2.9.7 1.8.7 2.7-.1 1.4-.7 2.8-1 4.5zM207.8 829.8c-.4-1.2-1-2.3-.8-3.4.2-2.3.6-4.6 1.3-6.7.4-1.2 1.4-2.7 2.5-3 1.6-.6 3.2.3 3.7 2.3.2 1.1.7 2.1 1.2 3.1.2.5.7.8 1 1.1.3-.4.7-.9.8-1.4.3-1.6.2-3.2.7-4.7.2-.7 1.4-1 2-1.6.2.7.6 1.5.4 2.1l-2 8.5c-.2.5-.6 1.1-1 1.2-.6.1-1.6 0-1.8-.4l-3-5.8c-.3-.7-.8-1.3-1.2-2l-.8 2-1.6 8.1c-.1.4-.8.5-1.4.6zM107.5 904l-2 4.8c-.2.6-.8 1-1.2 1.6-.3-.6-.8-1.2-.8-1.8-.3-4.3 1.6-8 3.1-11.9.2-.4 1-.6 1.6-.9.2.6.4 1 .4 1.6 0 .4-.3.7-.3 1.1 0 1.1-.5 2.6 0 3.3.7.9 4-1 4.5-2.4.3-.7.4-1.6.8-2 .7-.5 1.6-.7 2.4-1l-.1 2-2.6 10.6c-.2.7-.8 1.3-1.2 1.9-.3-.7-.7-1.3-.8-2-.2-.6 0-1.3 0-2 .2-3.5 0-3.6-3.8-2.9zM150.1 977.2l-4.9 2.6c-1.7.8-3.5 1-5-.4-1.4-1.2-2.4-2.4-1.5-4.6 1.3-3.4 2-7 3.2-10.3.1-.5.8-.8 1.3-1.2.2.6.8 1.4.7 2l-2 8.7c-.1.7.3 1.6.8 2.2.3.3 1.3.2 1.8 0l6.7-2c.5-.2 1.2.3 1.8.5-.2.4-.5 1-.8 1.2-.6.5-1.2 1-2 1.3zM95 816.4c1.7 0 2 .5 1.7 2-.2 1.1.1 2.3 0 3.5l-1.2 4.3c0 .4-.1.9-.3 1.2l-1.5 2c-.3-.8-.7-1.7-.8-2.5-.1-.8.1-1.6.2-2.4-1 0-2-.4-2.9 0-.6.2-1 1.4-1.2 2.2-.5 1.5-.7 3.1-1.2 4.7-.2.4-.9.7-1.3 1-.2-.4-.7-1-.6-1.4a99 99 0 011.3-8.3c.4-1.9 1.1-3.7 1.8-5.4.2-.7.8-1.2 1.3-1.8.2.6.6 1.3.7 2 0 .7-.5 1.4-.4 2 0 .8.4 2 .8 2 1 .4 2.1.3 2.3-1.4.1-1.2.8-2.4 1.3-3.7zM100.4 829.5c-.7 1-1.6 2.4-2 2.3-1.6-.7-1-2-.6-3.4l3.1-9c.4-1.1 1.2-2.5 2.8-1.8 1 .5 2.2 1.3 2.8 2.3.7 1.1.5 2.7 1.2 3.9 1.4 2.5.5 5 .4 7.6 0 .6-1 1.1-1.6 1.7l-1-1.9v-.5c.4-1.4 1.6-3.2-.5-3.7-1.8-.5-4.2-.7-4.6 2.5zm4.4-4.7l-.4-4c0-.2-.6-.3-.9-.5l-1.6 4.2c.9.2 1.8.4 2.9.3zM330.5 920c1.6-2.3 3-4.7 6.2-4.4.8 0 1.5 1 2.1 1.7.1 0-.8 1.3-1 1.3-2.7-1-3.8.8-5 2.7 0 .2-.4.3-.4.5-.6 1.8-2.4 3.6-.6 5.5 1.8 1.9 3.4.2 5-.9l3.5-2.6c.3-.2 1-.3 1.2-.1.2.2.3.8.2 1.2-1.3 3.8-7.5 6.9-11.1 5.7-2-.7-2.9-3-2-6 .4-1.5 1.1-3 1.9-4.5zM137.2 821.7c.2 4.4-.7 8-5 9.3-1.5.5-3.6.5-4.7-.3-1.2-.9-2.4-2.5-1.3-4.7.6-1.2.4-2.9.6-4.4.2-1.4 0-3 2.4-2 .6.1 1.6-.7 2.4-1 3.2-1.6 4.9-.7 5.6 3zm-2.9-1.6c-3.4.7-6.3 4.5-5.9 8 .1.5 1.1 1.3 1.6 1.3 3.5-.5 6-5.5 4.3-9.3zM172 863.2c1.1-1.6 2-3.2 3.5-4 1-.7 3-.7 3.8 0a3 3 0 010 4.5c-2.5 2-.9 2.6 1 3.4l3 1.3c.6.3 1 .8 1.6 1.2-.7.3-1.6 1-2.2.8-1.8-.5-3.5-1.2-5.2-1.9-.8-.3-1.5-.8-2.3-1.3-1.5-1-2-.3-2.2 1.2-.2 1.4-.3 2.7-.6 4-.1.5-.8 1-1.1 1.6-.4-.5-1.1-1-1-1.5.1-2.2.5-4.5 1-6.8 0-.8.4-1.5.6-2.5zm4.6.2l.7-.7 1.3-2-2.6.8c-.4.1-.8.5-.9.9l-.7 2.4c.6-.4 1.3-.7 2.2-1.4zM263.7 901c.4.4.7.7 1.1.7 1.6 0 3.2-.2 4.8-.1.6 0 1.2.8 1.8 1.2l-1.9.8H268c-3.6.3-4.6 1.4-4.9 5 0 .8-.8 1.5-1.3 2.3-.4-.7-1.2-1.4-1.1-2.1.2-3.5.6-7 1-10.4 0-1.6 1-2 2.5-2 1.6-.2 3.2-.7 4.8-1 .4 0 1-.2 1.3 0l3.3 1.5c-1 .3-1.9.8-2.9 1-1.8.4-3.7.6-5.4 1.1-.7.2-1 1.2-1.6 2zM240.9 859.5c0 .8-.2 1.4 0 1.8.4.7 1 1.3 1.5 1.9l.6-2c.3-1 .4-2 1-2.8.5-.6 1.6-.6 2.4-.9l-.7 2.2-1.7 6.7-.5 1.7-1.3 2.8c-.6-1-1.4-2-1.8-3-.4-1.4-.4-3-.6-4.4 0-.5-.2-1-.3-1.4-.4.5-1 .9-1.2 1.4l-2.1 6.6c-.2.6-1 1-1.4 1.4-.2-.6-.7-1.2-.6-1.6 1-3.5 2.1-7 3.5-10.4.6-1.6 2-2.1 3.2 0zM192.7 904.6c.3-2.1.6-4 1.1-6 .2-.7.8-1.4 1.5-1.9.3-.3 1 0 1.5-.1v1.4l-1 8.3c0 .5.5 1 .8 1.5.4-.4 1-.7 1.2-1l3.7-6.8c.4-.6 1-1 1.6-1.6.1.7.4 1.3.4 2 0 4-2.2 7-4.7 9.6-2 2.2-5 1-5.6-2-.2-1-.4-2-.5-3.4z"/>
  <path fill="#00EBAB" d="M368.5 921.8c.2-2-.5-2.8-2.3-2.7-.6 0-1.3-.5-1.9-.8.5-.5 1-1.3 1.5-1.4 3-.5 6-1 9-1.3.5 0 1 .5 1.4.8-.3.4-.7 1.1-1 1.2-3.2.5-4 2.3-3.7 5.3a36 36 0 01-.5 8c-.2.9-1.4 1.5-2.1 2.3-.6-1-1.7-2.1-1.6-3.2.1-2.6.7-5.3 1.2-8.2zM98.4 841.5c.5-2 1.6-3 3.7-2.7h4.4c.5 0 1 .5 1.6.8l-1.4.7c-1.2.3-2.5.3-3.7.6-.7.2-1.5.7-2 1.3-.4.5-.4 1.3-.6 2 .6-.1 1.3-.1 1.9-.4 1-.4 2-1 3-1.3.4-.1.9.2 1.3.4-.2.3-.3.9-.6 1-1.3.6-2.7 1-4 1.7-.8.3-1.7.8-2 1.5-.2.3.4 1.5 1 1.7.5.2 1.3-.3 2-.5.3 0 .4-.5.6-.5l3.9-1.1c-.7 1-1.3 2-2.1 2.9-.7.8-1.5 1.8-2.5 2-1 .4-3 .4-3.4-.2a16 16 0 01-2-5.7c-.2-1.3.5-2.7 1-4.2zM191.2 818.7c.5-.5.9-1 1.3-1.1.6 0 1.3.2 1.9.4-.3.4-.4 1.1-.8 1.4-1.6 1.2-3.4 2.2-5 3.3l-1.6 1c.5.3 1 .8 1.6 1l6.1 2.2c.4.1.7.5 1 .7-.3.3-.6.8-.8.8l-5.4-.3c-.9-.1-1.7-.5-2.6-.7-.8-.1-1.6-.2-1.6 1.2 0 .4-1 1-1.6 1.4-.3-.6-.9-1.3-.8-1.9.2-2.8.6-5.7 1-8.6 0-.7.7-1.3 1-2 .4.6.8 1.2 1 1.8.7 2.8.6 2.8 2.7 1l2.6-1.6zM173.5 942l.5-4.5c.1-.4.7-1.2 1-1.1.6 0 1.5.5 1.5.8.2 1.6.2 3.3.3 4.9l-.2.7.5 5.2 3-3c.7-.8 1.4-1.6 2.2-2.2.3-.2 1-.2 1.4-.2 0 0 .3.8.1 1-1.9 2.7-3.8 5.5-5.9 8-.4.6-2 1-2.6.5a4.4 4.4 0 01-1.7-2.8c-.3-2.3-.1-4.7-.1-7.3zM136 952.2l-3.4.9c-2 .6-3.8.5-5.3-1-.2-.3-.2-.9-.3-1.3h1.2c2-.3 4-.5 6-1 .6-.1 1.2-1 1.3-1.7.1-.4-.7-1-1.2-1.4-1.3-1-2.8-1.8-3.9-3-1.4-1.5-1.7-3.7-.4-5.2 1.2-1.3 3.2-2 4.9-2.7.3-.1 1.2.8 1.8 1.2l-1.7.8c-1 .7-2.3 1.1-2.9 2-.3.5.6 1.9 1.3 2.7.5.7 1.4 1.1 2 1.7 3.8 2.6 4 4.7.6 8zM286.5 866.3c-.3-4.2 1.6-7.2 4-10 .6-.5 1.9-1 2.4-.8.8.3 1.3 1.4 1.9 2.2 0 0-.7.8-.9.8-2-1-2.6.5-3.2 1.8-.5.8-.7 1.8-1 2.6-.8 1.3-1.2 2.6.4 3.3 1.2.6 4.4-1 4.5-2.1 0-.4-.7-1-1-1.4l-.9-.7c.3-.3.6-.7 1-.9 1.6-.7 4 1.3 3.7 3.2-.4 2.9-2 4.4-5.7 5-2.4.5-4.1-.6-5.2-3zM56.2 877c2.5-.4 5.6 2.4 5.2 5-.4 2.5-1.2 5-2.4 7a4 4 0 01-5.2 2c-2-.8-3.1-3.8-2.5-6 .9-3 2.2-5.8 4.9-8zm2.7 4.6c-.1-1.5-1-3.2-2.2-1.7-1.5 1.7-2.2 4.3-3 6.6 0 .5.7 1.6 1.3 2 .4.2 1.6-.4 1.8-.8.9-1.8 1.4-3.7 2-6.1zM299.4 815.8c1.1-1 2-2.3 3.3-2.9 1.7-.7 2.9.6 3 2.9l.5 10c0 .5-.5 1-.8 1.6-.4-.4-1-.6-1.2-1-.3-.5-.3-1.2-.6-1.6-.6-.8-1.3-1.9-2-2-.8 0-1.7 1-2.4 1.6-.2.1 0 .7-.3.9l-1.7 1.6c-.3-.8-.8-1.8-.6-2.5.7-2.8 1.7-5.6 2.8-8.6zm1.4 2.8l.6 2.6 1.7-2.4c.1-.2 0-.5 0-.8v-2.9l-2 2.5c-.2.1 0 .5-.3 1zM345 929.1c-.6-1-1.3-2-1.4-3v-9c0-.7 1-1.4 1.5-2 .4.7 1 1.4 1 2.2 0 2.4-.4 4.9-.4 7.3 0 .6.6 1.2.9 1.8.4-.5 1-1 1-1.6l2.2-8.2c.2-.6 1.2-1 1.8-1.6.2.6.9 1.3.7 1.7-1.1 4.1-2.3 8.2-3.8 12.1-.2.5-2.2.3-3.5.4zM337.5 885.9l-.5-2.5c.7.3 1.3.7 2 .8 1.5.3 3 .6 4.6.6.3 0 1-1.3.8-1.8a8.7 8.7 0 00-2.2-3.2c-1.5-1.3-2.5-3-1.6-4.7.6-1.2 2.5-1.7 3.8-2.6 1.5-1 2.7-.5 3.7.7.3.3.4.6.6 1l-1 .4h-.5l-4 1 2 3.5c1.3 1.7 2.4 3.5 1.8 5.8-1.2 4.2-5 3.6-8.5 2l-1-1zM110.6 868.5c0-3.3 0-6.5.2-9.7 0-.4.9-.9 1.3-1.3.3.5.7 1 .7 1.5v7.3c0 .3.3.7.4 1 .3-.2 1-.4 1-.6.5-1.6.7-3.2 1.2-4.7.5-1.3 1.2-2.5 2-3.6.2-.3 1-.2 1.5-.3 0 .5.2 1 .1 1.4-1.2 3.5-2.3 7.1-3.7 10.6-.3.9-1.8 1.3-2.7 1.9l-2-3.5zM242.3 878.6c1.4-1.2 2.6-2.5 4-3.4.5-.2 1.5.4 2.2.5-.2.6-.4 1.2-.8 1.6-.7.7-1.5 1-2.1 1.7a4.2 4.2 0 000 5.8l.6.6 2 3.3c-1.3.5-2.5 1.3-3.8 1.4-2 0-4.2-.2-6.2-.5-.7-.2-1.3-.9-2-1.4.8-.4 1.5-1 2.2-1.1 1.3-.2 2.7 0 4 .1h1c0-.3.1-1-.1-1.1-3.2-1.7-2.3-4.2-1.4-6.7l.4-.8zM289.2 821.8l-.7 6.9c0 .5-.7.9-1.2 1.3-.4-.5-1.3-1-1.2-1.5.2-2.8.6-5.7 1-8.6 0-1.1.4-2.3.4-3.4.1-3 2.8-5.3 5.8-4.6 1.2.3 2.4 1.1 3.6 1.7l-3.8.8c-.6.1-1.6-.2-2 0-.5.5-.9 1.4-.9 2.1 0 .6.7 1.3 1.3 1.5.6.2 1.5 0 2.3 0l2 .8c-.7.4-1.4 1.2-2.2 1.3-1.6 0-3.2 0-4.4 1.7zM257 897.4c.5 4.5-1.4 8-4.2 10.9-.8 1-3 .6-4.6.8-.1-1.4-.8-3.1-.3-4.3 1.2-3 2.9-5.7 4.7-8.4 1.2-1.8 3-1.4 4.4 1zm-4.7 8c.8-1.7 1.8-3.4 2.5-5.1.2-.4-.3-1-.4-1.6-.4.2-1 .4-1.3.8-1 2-2 4-2.8 6-.2.3.2.8.4 1.2l1.6-1.3zM328 937.8l6-1c.4 0 .9.7 1.3 1-.4.4-.6.8-1 1-.3.2-.7.1-1 .2-4.3 1.5-4.3 1.5-4.8 6l-.5 7.6c0 .6-.5 1.2-.7 1.8-.5-.5-1.3-1-1.3-1.4-.3-3.7-1.3-7.4.6-11 .1-.2-.4-1-.7-1-1.1 0-2.2.4-3.4.4-.7 0-1.5-.4-2.2-.7.4-.6.8-1.6 1.4-1.8 2-.5 4-.7 6.3-1zM328.5 882.9c.4-3.2.6-6 1.1-8.9.1-.7 1-1.3 1.5-2 .4.6 1 1.3 1 2 0 2.4-.3 5-.4 7.5 0 .6.4 1.2.6 1.8.4-.5.8-.9 1-1.4l2.5-5c.3-.6.7-1.3 1.3-1.7.2-.2 1 0 1.3.3.2 0 .1.7 0 1-1.2 2.7-2.4 5.3-3.7 7.8a6 6 0 01-2.3 2.2c-1.8 1-3 .5-3.4-1.5l-.5-2.1zM85.3 840.3c1-1.3 1.6-3 2.7-3.5 2.5-1 4.6.7 4.6 3.4 0 2.3 0 4.8-.7 7-.2 1.2-1.7 2-2.7 3-.2.1-.8-.1-1.2-.2l.4-1 1.5-2 .6-1c-2-1.9-.5-3.6 0-5.4 0-.5-.5-1.2-.7-1.8-.5.3-1.2.5-1.4.9-.5.8-.9 1.8-1 2.7-.2 2.3-.2 4.5-.6 6.8-.1.9-1 1.7-1.5 2.6-.3-.9-1-1.7-1-2.6.2-2.8.7-5.7 1-8.9zM162 952c-.3-1.4-.6-2.6-.4-3.8a136 136 0 012-10c.3-.7 1.1-1.3 1.7-2 .3.9 1 1.7.9 2.4-.4 2.8-1 5.5-1.5 8.2l-.2 2 2-1c1.4-.8 3-1.5 4.5-2.1l.7 1.3c-2.5 2-5 3.9-7.7 5.7-.4.2-1.3-.4-2-.7zM216.1 938c2.4-1.5 4-1 5 1.3 1.3 2.7.4 8-2 10-.6.7-2.2 1.2-2.8.9-1.2-.7-2.6-2-2.8-3.1-.4-3.2.3-6.4 2.6-9.1zm.4 6.3v3.2l1.7-2.3a6 6 0 00.9-2.4c0-1-.2-2.7-.6-2.8-1.7-.3-1.4 1.1-1.5 2.2 0 .6-.3 1-.5 2.1zM56.4 857c1.3-1.2 2-.3 2 .7l-1.1 11c0 .6-.4 1-.6 1.6-.5-.4-1.2-.7-1.4-1.2-.3-1.1-.4-2.3-.6-3.4 0-.7-.2-1.3-.3-2-1 .3-2.1.4-2.7 1-.7.8-.7 2.1-1.1 3.2l-1 1.5c-.4-.5-1-1-1-1.5.4-3.2.9-6.5 1.5-9.7.2-.5 1.2-.8 1.8-1.3l.7 2.3v.2l.2 2.7c.8-.7 1.8-1.2 2.4-2 .6-.8.7-2 1.2-3zM170.2 964.2l10-2c.7 0 1.4.5 2 .8l-1.5 1.6-.4.2c-5 1.8-6 3.2-6.3 8.4-.1 1.6-.6 3.2-1 4.7-.2.4-1 .6-1.4.9-.3-.4-.7-.9-.7-1.3.4-2.5.7-5 1.3-7.5.4-1.7 0-2.5-1.6-3.2-.7-.2-1.2-1-1.8-1.5l1.4-1.1zM170.4 882.4c0-4.8 2.4-6.8 6-5.8 3 .7 3 2.7 2.8 4.9-.2 2-1.8 3.4-3.6 3.3-2.5 0-2.9 1-2.7 3.1.2 1.1.2 2.3 0 3.4 0 .5-.7 1-1 1.4-.4-.5-1-1-1-1.5l-.5-8.8zm6.2-.8c.8-1.4 1-2.7-1-2.8-.9 0-2 .7-2.6 1.5-.4.6-.2 1.7-.2 2.6l2.7-.6c.3 0 .6-.3 1-.7zM260 827.4c-1.4-3.1.2-5.7.9-8.3.1-.6.4-1.2.7-1.7 1-1.6 1.8-3.4 4-2.8 2.3.7 3.5 3 2.7 5.4a39 39 0 01-2.6 6.6c-1.2 2.2-3.5 2.4-5.6.8zm2.1-.8c1.9-1 4.6-6.5 4.2-8.4-.1-.4-.6-1-1-1.1-.4-.1-1.3.2-1.3.5a73 73 0 00-1.9 9zM63 841.4c1.5.2 2.1.8.7 1.5-1.2.6-2.5.7-3.7 1-.6.3-1.6.2-1.8.6-.5.8-.6 1.8-.9 2.8l1.7-.6c.6-.2 1-.6 1.6-.6l2 .3-1 1.4c-1 1-1.8 2-2.8 2.7-.6.4-1.8 1-2.2.6-.8-.5-1.8-1.6-1.8-2.5.2-3 .7-5.9 1.3-8.7.1-.7 1.3-1.3 2-1.6 1.4-.3 2.8-.4 4.2-.5.4 0 .8.3 1.2.4-.3.4-.5.9-1 1-1.2.7-2.6 1-3.9 1.7-.3.2-.3 1-.4 1.6l1.3-.4a67 67 0 013.5-.7zM161.6 821.7l1.5-3.2c1.3-2 4-2 4.5.3.6 3.5.5 7.2.6 10.9 0 .4-.7.9-1.1 1.3-.3-.5-.5-1.1-.9-1.6-.6-1 1.4-2.3-.6-3.1-2.3-1-3.2.2-4 2-.5.8-1.3 1.4-2 2.1 0-1.1-.3-2.3 0-3.3.4-1.8 1.3-3.5 2-5.4zm4.6.2l-.7-2.8-1.8 4c-.2.5.3 1.1.5 1.7.7-.8 1.3-1.6 2-2.9zM351.9 951.3l1-5c.3-1.1.4-2.4 1-3.4 1.2-2 .6-2.4-1.4-2.5-.7 0-1.5-.7-2.2-1 .8-.6 1.5-1.4 2.4-1.5 2.4-.2 4.8-.1 7.2 0 .6 0 1.2.6 1.8.9-.5.4-1 1-1.7 1-2.8.4-4.6 2.6-4 5.4.8 3.1-1 5.7-1.6 8.5 0 .1-1.2.2-1.4 0-.5-.6-.8-1.4-1.1-2.4zM96.2 931.1c-3.8 0-5.9-3-4.8-6.4 1.5-4.5 4-6.5 7.4-6 .4 0 1 .6 1 .9a84 84 0 01-1.6 7.6c-.3 1.4-1.1 2.6-2 3.9zm-.8-8.8c-.4 1.5-.9 3-1.2 4.6 0 .3.5 1 .8 1 .4 0 1.1-.4 1.2-.7l.5-4.9s-.7-.2-1.3 0zM168.7 903c.6-2.4 1-4.6 1.7-6.7.3-.7 1.4-1 2.1-1.5 0 .7.2 1.5 0 2.2l-2 8.4c-.1.4.1.9.2 1.3l1.4-.4c1.6-1 3.2-2 5-2.8.6-.3 1.5.3 2.3.6-.4.4-.7.9-1.2 1.2-1.5 1.3-3 2.5-4.7 3.7-1.7 1.3-3.6 1.2-5-.3-.7-.7-.6-2.2-.6-3.3 0-.8.4-1.5.8-2.4zM198 915.7c.9-1 1.6-2 2.5-2.5.6-.3 1.5.2 2.3.3-.2.5-.3 1.3-.6 1.5-2.7 2-2.7 3.8-.6 6.2 1.8 2.1 1 6.2-.8 7.2-2.6 1.4-6.3 0-7.6-2.8l-.5-1c.5 0 1-.2 1.4 0l2.5.8c.8.2 2 .4 2.4 0 .4-.6.3-1.7.1-2.5-.1-.8-.9-1.4-1-2.2-.2-1.6-.2-3.3-.1-5zM156.4 847l-2.1 5.4c-.3.6-1 .9-1.4 1.3-.2-.5-.8-1-.6-1.5 1-3.8 2.2-7.7 3.5-11.5.3-.7 1.8-1 2.7-1.4.3.9.8 1.7 1 2.6l1 10.5c0 .4-.3 1-.5 1.4l-1-1.2c-.3-.4-.6-1-.5-1.3.3-1.9-1.8-3.7-.1-5.7.1-.2-.7-1.3-1.1-2-.3.6-.7 1-.9 1.7v1.8zM43.5 927.9c.4.1.8.3 1 .2 1.7-1 3.4-2.1 5.2-3 .3-.3 1 0 1.4 0-.1.5 0 1.2-.4 1.4-2.2 1.6-4.4 3.3-6.9 4.5-1.6.8-3.9-2-3.5-4.6.4-3.5 1.2-7 2-10.5.2-.7 1.1-1.3 1.7-2 .1.9.4 1.7.3 2.5-.4 3.1-1 6.1-1.5 9.2 0 .7.3 1.4.7 2.3zM106 864.2c-.3 2.4-.4 4.7-1 6.8-.8 3-3.5 3.6-5.5 1.4-1.2-1.4-2.3-3-3-4.7-.3-.7.5-1.8.8-2.8l1.5 1.6c.2.5.2 1.2.5 1.5 1 .8 2 1.3 2.9 1.9l.8-3c.7-2.4 1.3-4.8 2.1-7.1.1-.3 1-.4 1.4-.6.2.5.6 1 .6 1.5-.2 1.1-.7 2.2-1 3.5zM198.8 888l-2.4 2.2c-1.9 1.6-4.8.7-4.6-1.6.3-3.7 1.4-7.3 2.3-11 0-.4 1-.5 1.5-.8.3.6.8 1.2.6 1.8-.4 2.4-1.1 4.8-1.6 7.3-.1.6.1 1.3.2 2l1.5-1c1.3-1.1 2.4-2.4 3.8-3.3.5-.3 1.5.2 2.2.4-.3.6-.5 1.3-1 1.8l-2.5 2.1zM337.7 819c.3-1.7.3-3.2.8-4.6.2-.8 1.3-1.4 2-2 .1.8.5 1.6.4 2.4 0 2.7-.3 5.3-.4 7.9 0 .5.4 1 .6 1.5l1.5-.8c.4-.2.8-.6 1.2-.7l4-.6-2.3 2.6c-.2.2-.4.6-.7.7-1.7.7-3.5 2-4.9 1.8-1-.3-2-2.6-2.5-4.1-.3-1.2.1-2.7.3-4.1zM70.8 891.2c-4.8 1.2-5.5 1.4-7-1.6a137 137 0 011.8-10.1c.2-.5.7-.9 1-1.3.4.5 1 1 1 1.5 0 1.9-.4 3.8-.6 5.7 0 .5-.3 1-.3 1.6-.1 2.7.2 2.8 2.7 1.7 1.6-.7 3.1-1.6 4.8-2.1.6-.2 1.5.2 2.3.3-.4.7-.6 1.6-1.2 2-1.3 1-2.8 1.5-4.5 2.3zM103.5 897.4c1.2 2.1-.8 2-1.7 2-2.2 0-3.4.7-3.8 3.1-.3 2.5-1.1 4.9-1.8 7.3-.2.6-.8 1-1.1 1.6-.5-.7-1.5-1.6-1.4-2.2.7-2.5 1.7-5 2.5-7.4l.5-1.4c-.4-.1-.8-.4-1.2-.4-.6 0-1.2.2-1.8.1-.9 0-1.7-.2-2.6-.3.5-.6 1-1.8 1.7-1.8 3.4-.4 7-.4 10.7-.6zM189.6 861.6l.1.5 1.9 1.9c.3-.9.6-1.9 1.1-2.6.5-.8 1.4-1.8 2-1.8 1.7.1.8 1.3.6 2.2l-2.7 11.4c-.2.7-1.7 2-2.1 1.8-1.1-.4-1.8-1.5-1-3 1.9-3.4.9-6.3-1.8-9-.7-.6-2.2-1.4-.8-2.5.5-.3 1.8.5 2.7 1.1zM39.3 877.3c1 1.5 2.1 3.1 3 4.9.5 1 .6 2.3 1 3.4.1.5.5 1 .8 1.4.4-.5 1-1 1.3-1.5 1-2 1.7-4.1 2.7-6 .3-.6 1.2-.8 1.8-1.2 0 .8.2 1.7 0 2.4-1.2 2.7-2.5 5.4-3.9 8-1 1.9-3.2 2.1-4 .3-1.3-3.6-2.2-7.3-3.3-11l.6-.7zM82.7 919.2c-5.2.1-3.7 4.3-4.6 7-.4 1.2-.3 2.5-.6 3.7-.2.6-.9 1.1-1.3 1.7-.4-.6-1.2-1.3-1.2-1.8.3-2.6.8-5 1.3-7.5v-1.4H75c-.2 0-.5.4-.7.3l-3.5-.8c1-.6 1.8-1.4 2.9-1.7 2.3-.7 4.7-1.2 7.1-1.6.9 0 1.9.4 2.8.6-.2.5-.4 1-.9 1.5zM257 817.7c-2.2.2-3.2.9-3.3 3.5-.1 2.4-1.2 4.7-.4 7.2.1.5-.8 1.4-1.1 2.1-.5-.5-1.2-1-1.4-1.7a10 10 0 011.6-9.4c1-1.6 0-1.3-.8-1.4-1.1 0-2.2-.2-3.2-.5-.3-.1-.8-.8-.7-1.2 0-.3.7-.8 1.1-.8H259c.4 0 .8.7 1.2 1-.4.4-.7.9-1 1-.6.2-1.3 0-2 .2zM55.4 947l1.4-4.5c.3-1.5.3-3.1.6-4.7 0-.4 1-1 1.4-1 .4.1 1.1 1 1 1.4-.3 3-.7 5.9-1.5 8.7-.3 1.1-1.8 2.7-2.5 2.7-1.2-.1-2.9-1.3-3.2-2.4-.8-2.1-1-4.4-.9-6.6 0-1 1.2-1.8 1.8-2.7.2 1 .6 2 .4 3-.3 2.2 0 4.2 1.5 6.1zM52.1 903.6l-1 5.8c-.2.6-1 1-1.6 1.5-.3-.5-1-1-1-1.5 0-2.8-.2-5.7 1.5-8.2 0-.1-.7-.9-1.2-1.2-.5-.4-1.2-.6-1.8-1 .6-.5 1.3-1.6 1.9-1.5 2.8.1 5.6.6 8.4 1 .4 0 .7.5 1 .8l-1 .7c-.5.2-1 .6-1.5.5-2.4-.5-3.4.7-3.7 3.1zM236.7 846.6c.5-2 1-3.5 1.3-5.2 0-.3-.7-1-1-1h-3.7l-1-.6c.2-.4.4-1 .7-1.1.8-.4 1.6-.8 2.5-1l6.7-.4c.6 0 1.2.4 1.8.7-.4.4-.8 1.2-1.3 1.2-3 .3-2.4 2.8-2.8 4.5-.4 2-.2 4.2-.6 6.2-.2 1-1.2 2-1.8 2.9-.4-1.2-.9-2.3-1-3.5-.2-.8.1-1.7.2-2.7zM183.8 910.4c-.8 1.3-1 .8-1.6-.2-1-1.8-.3-9.2 1.5-10.9.5-.4.8-1 1.2-1.6-.7 0-1.4-.3-2.2-.3h-3c.9-.8 1.7-2.2 2.7-2.3a34 34 0 017.2-.2c.5 0 1 1 1.5 1.5-.6.3-1.1.8-1.8 1-.7.1-1.5-.2-2.3 0-.6.2-1.5.7-1.5 1.2-.7 3.8-1.1 7.6-1.7 11.8z"/>
  <path fill="#00EBAB" d="M239.7 883c-1.5 3-7.4 5-10.3 3.7-1.7-.7-2-1.8-1.5-3.6 1.4-5 3.4-6.3 6.6-6 .3.1.8 0 1 .2.8.5 1.5 1.1 2.2 1.8-1 .2-1.9.7-2.8.6-2-.3-5.2 2-4.7 3.8.1.6 1.6 1.2 2.4 1.1 2.4-.4 4.7-1.1 7.1-1.6zM67.7 900c1.2-1 2.4-1.9 3.7-2.6.3-.1.9.4 1.3.6-.2.3-.4.8-.7 1-2.7 2.3-2.7 2.3-.3 4.8l.8.7c.8 1.6 2.8 3.1 1.3 5.1-1.4 1.9-3.5 2.3-5.8 1.3l-3.1-1c-.3-.2-.5-.7-.7-1 .3-.2.7-.6 1-.6l4 .2 2.3-.2c-.2-.6-.4-1.4-.8-2-1-1.1-2.1-2.2-2.9-3.4-.4-.7 0-1.8-.1-3zM180.6 885.9c.8-2.7 1.2-5.3 3.4-7 1.6-1.4 3.1-1.2 4 .6 1.2 2.6.4 7.6-1.7 8.8-1 .7-2.7 1.6-3.5 1.2-1-.6-1.6-2.3-2.2-3.6zm4 1.1l1.8-5.4c0-.3-.2-.7-.5-1l-.7.1c-1.6 1.1-2.2 4.6-.6 6.3zM83.3 889c-.8 1.1-1.6 1.9-2.4 2.7-.6-1.2-1.6-2.3-1.7-3.4-.3-2.7-.1-5.4 0-8 0-.6.6-1 .9-1.6.4.6 1 1.1 1 1.7.2 1.8 0 3.5.1 5.2 0 .5.3 1 .5 1.4.4-.4.8-.8 1-1.3.4-1.3.6-2.7 1.1-3.9a6 6 0 012.2-2.5c.6-.4 1.7-.1 2.6-.1l-1.1 1.8-3.7 7-.5 1zM162.7 861.2l7-.6c.5 0 1 .5 1.7.7-.6.5-1.1 1-1.8 1.3-1 .3-2.3 0-3 .6-1 .8-2 2-2.4 3-.6 2-.7 4-1.1 5.8-.1.4-.6.8-1 1-.3 0-1-.5-1-.7 0-1.7 0-3.4.3-5 .5-2 1.4-3.7-1.9-3.2-.5.1-1-.5-1.6-.8.5-.4.9-1 1.4-1.1 1-.4 2.2-.6 3.4-1zM70.4 815.6c-.8.6-1.5 1-2 1.6-1 1-1.5 1.9-.2 3.3 1.5 1.6 3.1 3.5 2.1 6.1-.8 2.1-4.6 3.3-6.3 2-.5-.4-.7-1-1-1.5.5-.2 1-.6 1.5-.7 1-.3 2.1-.4 3.2-.6-.6-1.2-1.4-2.4-1.8-3.7-.5-1.3-1.3-3.1-.8-4.1.8-1.5 2.6-2.4 4.1-3.5.1-.1.9.6 1.2 1zM215.3 885.3c-.3 1.4-.5 2.8-1 4-.2.7-1 1.2-1.6 1.9-.3-.8-.9-1.5-.8-2.2.2-2.2.3-4.5 1-6.5.9-2 .1-3-1.1-4.1l-.9-1.1c.5-.2.9-.6 1.3-.6h6.5c.5 0 1 .5 1.4.8-.2.2-.4.6-.7.7-4 .8-4 4-4 7.1zM146 949.2c-.3.7-.6 1-1 1.5-.3-.7-1-1.3-1-1.9.2-2.2.2-4.5 1-6.5 1-2 .3-1.9-1.2-1.9-1 0-2-.3-3-.5 1-.7 2-1.7 3.2-2 2-.4 4-.5 6-.5.5 0 1.1.8 1.7 1.2-.5.3-1 .7-1.4.8-2 .3-2.4 2-2.8 3.5l-1.5 6.3zM152.3 819.7a63 63 0 016.4 0c.6 0 1.2.4 1.7.6-.5.5-1.1 1.4-1.6 1.3-4.3-.7-4.5 1.9-4.6 5.1 0 1.8-.7 3.6-1.3 5.4-.2.6-.9 1-1.3 1.5-.3-.6-1-1.3-.9-1.9.4-2.6 1-5.2 1.6-7.8l.6-1.3c-.5-.1-1.2-.5-1.6-.4-1 .4-2.2 1.1-2.6-.4 0-.4 1.7-1.1 2.6-1.7.3-.1.6-.1 1-.4zM172.8 817.4c.7.3 1.6.8 1.6 1.3 0 2-.3 4-.4 6 0 .6.4 1.3.6 2l2-.6c.8-.3 1.6-.9 2.2-.7 1 .2 1.7 1 2.5 1.7l-2 .8-4.5 1.6c-1.7.8-2.7 0-3-1.5-.7-3.5-1-7.1 1-10.6zM253.9 858c2 1.2 1.8 2.9 1.3 4.5-.4 1.5-1 3.1-2 4.4-.6.8-2 1.6-3 1.6-1.5-.1-2.5-1.5-2-3.1.5-1.9 1.3-3.6 1.9-5.5.5-1.8 1.8-2.1 3.8-2zm-1.9 6.2l.9-3v-.8c-.3 0-.8 0-.9.3l-1.3 4c.4 0 .7-.2 1.3-.5zM186.8 918.5c-2.8 0-3.6 1.8-4 4-.4 2.3-1 4.6-1.6 6.9-.2.6-1 1.1-1.5 1.7-.4-.9-1-1.8-1-2.6.3-1.8 1.1-3.6 1.5-5.5.1-1 .1-2.1-.3-2.8-1.2-1.6-1-2.3 1-2.6 1.5-.2 3-.9 4.5-1 .5 0 1 1.2 1.4 2zM206.1 845.5c-.1 1.5-.2 2.7-.5 4-.1.6-.5 1.1-.7 1.7-.5-.6-1.3-1.1-1.3-1.7-.1-2.3-.3-4.7.2-6.9.4-1.5-.3-1.4-1.1-1.8-.5-.1-1.2-.5-1.2-.7 0-.6.5-1.7.7-1.7 2.6 0 5.2.2 7.8.4.3 0 .8.8.7 1.1 0 .4-.7 1-1 1-3.2-.7-3.2 1.3-3 3.6 0 .2-.4.5-.6 1zM91 939.4l-2 13.1c-.2.7-1 1.2-1.4 1.8-.6-1-1.7-2-1.6-2.8.7-4.2 1.5-8.3 2.5-12.4.2-.9 1-1.6 1.6-2.3l1 2.6zM46 855.9l2 .7c-.5.4-1 1-1.6 1.3-.5.3-1 .1-1.6 0-1.8 0-2.4 1-2.6 2.7-.1 2.3-.5 4.5-1 6.8-.1.5-.8 1-1.3 1.4-.2-.5-.7-1.1-.7-1.7l1-6.3c.2-.8 1-2-1-1.3-.7.2-1.7-.5-2.6-.7.7-.6 1.3-1.6 2-1.8 2.3-.5 4.7-.7 7.3-1.1zM348.6 908.7c-1.7 1.2-2.7.6-2.4-1.2a206 206 0 012.6-12.9c.2-.7 1-1.2 1.6-1.9.2.8.5 1.7.4 2.5l-1.5 11.5c-.1.6-.4 1.2-.7 2zM48.9 828.3c-1.6.2-2.3-.6-2-2l1.9-5.2.4-1.6-1.9-.4-1.3-.2c.1-.3.2-.8.4-1 1-1.3 6.8-2.6 8.2-1.8.4.3.7.9 1 1.3-.5.2-1 .6-1.5.6-2 .1-2.7 1.1-3 3-.5 2.4-1.4 4.8-2.2 7.3zM86.4 919.7c.5 4.5-.7 8.6-1.7 12.7 0 .3-1.4.5-1.5.4-.4-.8-1-1.8-1-2.6l2.6-12.4c.2-.6.6-1 1-1.6l.9 2.4-.3 1zM65.6 949.2c.4-2.1.4-4.2 1.2-6 .8-1.6.3-1.8-1.2-1.8-.6 0-1.3-.4-2-.7.6-.4 1.2-1.1 2-1.3l7-1c.4 0 .8.4 1.2.7l-1 .8c-.9.4-1.9.5-2.7 1-.6.4-1.2 1.2-1.3 2-.5 2.5-.7 5.2-1.1 7.8-.1.4-.7.8-1.1 1.1-.3-.7-.7-1.5-1-2.6zM268.2 857c-.2.6-.5 1.4-.8 1.4-2 .3-2.7 1.1-2.7 3.2-.1 2-1 4-1.5 6-.2.6-.7 1-1 1.6-.3-.7-1.1-1.5-1-2.1.5-2.3 1.2-4.5 2-6.7 0-.4.3-.7.5-1l-1.4-.4-3.3-1c1.1-.4 2.2-1 3.3-1 2-.2 3.9 0 6 0zM257.1 951.2c-.1-3.3-.2-6.4-.1-9.5 0-.7.1-1.5.5-2 .6-1 1.5-2.3 2-2.3 1.9.2.5 1.7.5 2.5 0 2.3-.2 4.7-.5 7 0 1.5-.2 3-.5 4.4-.1.7-.4 1.4-.7 2l-1.2-2.1zM323 908.4c-.2.5 0 .9-.2 1.2l-1.2 2.3c-.5-1-1.4-1.9-1.3-2.7.5-3.8 1.2-7.6 2-11.4.2-.7 1-1.3 1.6-2 .3.7 1 1.5 1 2-.5 3.6-1.2 7-2 10.6zM153.9 951.7c-.1-1.5-.3-3 0-4.3.5-3 1.2-5.9 2-8.7.2-.6 1-1 1.7-1.4.3.7.9 1.3.8 2a56.2 56.2 0 01-2.6 10.7c-.3.7-1.2 1.2-1.9 1.7zM228 839.8l-.6 12c0 .4-.5 1-.7 1.4-.4-.3-1.2-.7-1.2-1-.3-2.6-.7-5-.6-7.6 0-1.8.5-3.7 1-5.5 0-.7.7-1.2 1-1.9l1 2.6zM244.1 970.6c-1 0-2.1 0-3-.3-.4 0-.8-.8-.7-1 .4-.5.9-1.3 1.4-1.3 4.3-.3 8.7-.5 13.2-.6.3 0 .6.5 1 .8-.4.2-.7.7-1 .7-3.6.6-7.2 1-10.9 1.7zM344.7 951.7c-.1-2-.4-4 0-5.9.4-2.6 1.2-5.2 2-7.7.2-.6 1-1.1 1.4-1.7 0 .8.2 1.5.1 2.2-.4 3.8-1 7.7-1.6 11.5-.1.6-1.1 1.2-1.9 1.6zM344.6 863.2c-.5 1.9-1 3.6-1.6 5.2-.2.6-.9 1-1.3 1.5l-1-1.5c0-.2-.3-.4-.2-.6l3.8-10.8c.2-.3 1.1-.3 1.7-.4 0 .6.3 1.2.1 1.8l-1.5 4.8zM333 821.6c-.2 1-.1 2.1-.4 3-.2 1-.8 1.8-1.3 2.7-.4-.8-1.2-1.7-1.2-2.6 0-2.2.4-4.4.7-6.6.2-1.2.4-2.4.9-3.5.2-.5 1-.8 1.5-1.2.3.6.9 1.3.8 2-.1 2-.5 4-1 6.2zM42.3 905.7c-.2 1-.2 1.9-.6 2.6-.3.7-1 1.4-1.4 2-.4-.9-1.2-1.8-1-2.7.5-3 1.2-6.1 2-9.1.2-.7 1.3-1.1 2-1.6.2.6.6 1.3.5 2l-1.5 6.8zM293.4 926.3c-1.3-3.6.4-6.6 1.3-9.7.1-.5 1.3-.7 2-1l.2 1.9-1 8.3c-.2.8-.9 1.4-1.3 2.1l-1.2-1.6zM137.7 884l1.6-6.1c.2-.5.8-.8 1.3-1.2.2.5.8 1.2.7 1.7-.6 3.7-1.3 7.3-2.1 11-.1.6-.8 1.2-1.2 1.8-.5-.7-1.3-1.4-1.3-2 .2-1.7.7-3.4 1-5.3zM174.1 916.7l2-1c0 .7.3 1.4.1 2l-2.7 10c-.1.4-.5.9-.8 1.3-.3-.6-.8-1.2-.7-1.7l2.1-10.6zM41.2 825.3c-.1 1-.2 1.7-.5 2.4-.4.5-1 .8-1.5 1.2-.3-.6-1-1.4-.9-1.9 1-3.6 2.2-7.2 3.5-10.7.1-.5.9-.9 1.4-1.3.1.7.5 1.4.4 2l-2.4 8.3zM200.4 818c1.7-2 2.6-.3 2.5.7 0 3.7-.5 7.3-1 11 0 .3-.7.5-1 .8-.4-.4-1-.9-1-1.3.1-1.6.5-3.1.5-4.7.1-2 0-4.1 0-6.4zM226.4 879.8l-1.6 6.6c-.2.6-.6 1.3-1 1.8-.2.3-.8.4-1.1.3-.3 0-.5-.6-.5-1 .5-3.2 1-6.4 1.7-9.6.1-.7 1-1.2 1.5-1.8l1 2.4v1.3zM207.7 882.4l-1.6 5.8c-.2.5-.7 1-1 1.4-.4-.6-1-1.2-1-1.8 0-1.6.3-3.1.5-4.7l.5-4.5c.2-.7.7-1.3 1-2 .6.7 1.4 1.4 1.5 2.1.3 1.1.1 2.3.1 3.7zM59.8 976l8.3-.8c.4 0 .8.6 1.2.9-.4.3-.8.9-1.2 1-2.7.4-5.4 1-8 1.1-1.5 0-1.6-1-.3-2.1zM162.5 925c-.8 2-1.6 3.9-2.5 5.7-.2.4-.7.9-1 .8-.4 0-1.1-.7-1-.9l2.8-6.2 1.7.6zM363.1 861.5c2.3-.6 4.5-1 6.6-1.4l.3 1.1a84 84 0 01-6.2 1.9l-.7-1.6zM356 903a16 16 0 01-2-.9c.4-.4.8-1 1.3-1.1l5.1-1.5c.3 0 .7.3 1 .5-.1.4-.2 1-.6 1a52 52 0 01-4.8 2zM96.3 943.2l-1.6-.7c.7-1.9 1.4-3.8 2.2-5.5.1-.3 1.2 0 1.8 0 .1 0 .2.8 0 1-.6 1.7-1.4 3.4-2.4 5.2zM192.7 916.6c-.2 1.4-.3 2.7-.6 3.9-.1.2-1.2.6-1.5.4-1.2-.8-.4-5 .9-5.3.3-.1.8.5 1.2 1zM378.8 931.1c-.7 1.4-1.6 1.2-2 .2a4 4 0 010-3c.2-.3 1.5-.2 2.4-.3l.1 2c0 .3-.3.6-.5 1.1zM60.8 819l-.4 1.5c-.2.5-.7.8-1 1.2-.4-.4-.8-.8-1-1.3-.2-.4-.2-1 0-1.5l1.6-3 .8 3zM123.3 928.9c-.3-.3-.7-.6-.6-.7l1.7-3.3c.5.5 1.2 1 1.3 1.7.4 1.7-.3 2.8-2.4 2.3zM256.4 886.5c-.5 1-1.1 1.8-1.7 2.6-.3-.6-1-1.5-.8-1.9.5-1 1.4-1.9 2-2.8.2.6.4 1.2.5 2.1zM62.1 898.6c2.2-.5 2.2.4 1.3 1.8l-.9.9-1.6 1.5v-2.5c.2-.6.7-1 1.2-1.7zM363.4 951.7c-1-.9-2-1.7-.6-2.7.4-.3 1.5 0 1.7.3.6 1 .8 2.2-1.1 2.4z"/>
  <defs>
    <pattern id="pattern0" width="1" height="1" patternContentUnits="objectBoundingBox">
      <use transform="matrix(.00112 0 0 .00057 0 0)" xlink:href="#image0"/>
    </pattern>
    <image id="image0" width="892" height="1750" xlink:href="tiktok.jpg" />
  </defs>
</svg>
