<svg xmlns="http://www.w3.org/2000/svg" xmlns:xlink="http://www.w3.org/1999/xlink" fill="none" viewBox="0 0 339 955" width="339" height="955">
  <defs/>
  <path fill="url(#pattern0)" d="M16 188h306v561H16z"/>
  <path fill="#00EBAB" d="M60.6 103.8V78.2c0-1-.3-1.9-.4-2.8-.4.7-.7 1.6-1.3 2-1.7 1.2-3.6 2.2-5.4 3.2-.7-2.4 1.1-3.5 2.4-4.9 2.3-2.6 4.5-5.2 6.7-8 1.5-1.7 1.8.5 2.6.8-2.8 4.6 2.8 6.1 3.6 9.4.2 1.1 2.6 2 .5 3.2-.6.4-2.8 1-2.9-1.6 0-.6-1.2-1.1-1.9-1.7l-.3 2.2v19c-.1 1.8.3 2.5 2.2 2.4 3.8 0 7.6-.6 11.5 0 2.2.3 2.2-.9 1.1-2.5-.3-.5-.2-1.3-.2-2 .8.2 2 .2 2.4.8a32 32 0 013 5.3c.1.5 0 1.5-.5 2a72.4 72.4 0 01-5 5c-.3.3-1.3.3-1.6 0-.3-.2-.4-1-.3-1.6 0-.3.7-.5.8-.8.5-1.7 4-.8 3-3.2-.3-.7-2.9-.6-4.4-.6H66.1c-1.6-.1-2 .5-2 2-.3 8.5-.6 17.1-1.2 25.6-2.4 36.3-.6 72.7-1 109-.2 9 0 18 1.3 26.9 1 6 .2 12 1 18 1 5.5.5 11.3 2.2 16.8.8 2.6.4 5.6-.1 8.3-.5 2.6-.2 4 2.8 4h9c15.6 0 31.3.8 46.9-.2 28.3-1.8 56.5-.9 84.8-.7 10.5 0 21.1.2 31.6 1.2 6 .5 12 .3 18 1 9 1 17.9 2 27 2.6l12 .9 19 1.1c3.3.2 6.5.3 6.5-4.3 0-.5 1-1 1.6-1.5.1.5.4 1 .4 1.6.1 1 .2 2 0 3-.4 2.3.8 2.7 2.7 2.5.8-.1 1.6-.2 2.4 0 .4 0 .8.7.8 1.1 0 .4-.5.9-.9 1.2h-.6c-1.7.1-4.4-.4-5 .4-.9 1.4-.6 3.8-.5 5.7l1.1 25c.1 2.6 1.3 3.5 3.7 3.4 2.2 0 4.4-.1 6.5.1 1 .1 2 1 2.9 1.7-.9.2-1.7.6-2.6.6h-7.7c-1.3 0-3-.6-2.8 1.8l-2 .3c-.3-3-2.7-1.9-4.4-2-21.6-2.6-43.3 0-65-1.5a522.8 522.8 0 00-51.4-.7c-10.7.3-21.6 1.8-32.2.7-16.3-1.7-32.6-.4-49-1-2.5 0-5.4 1.5-7.5.6-2.8-1.3-5.2 1.3-6.9.4-3.5-1.8-6.8-.1-10.1-.4-3.7-.4-7.5-.9-11.1-.5-17.5 1.8-35 .5-52.5 1.3-5.7.3-11.5 1.1-17.3 1-3-.2-2.5 2.3-3.4 3.6-.6.8 0 2.3-.1 3.5 0 .3-.3.7-.4 1-.4-.3-1-.4-1.2-.8-.4-.9-.6-1.8-.8-2.7-.2-1.5.2-3.7-.6-4.4-1.4-1-3.5-1-5.3-1.4-.8-.1-1.7.2-2.4 0-.9-.4-1.5-1.1-2.3-1.7.8-.2 1.7-.6 2.5-.6 2.5-.2 6 .8 7.4-.5 1.3-1.2.2-4.8.8-7.2.7-3-1.3-6 .2-8.5 1.8-3-1.2-5.2-.5-8 .8-3 0-6.4.3-9.5.1-2.3-1.2-2-2.6-2.1-.8-.2-1.5-1.1-2.2-1.7.7-.2 1.4-.6 2-.6 2.8.1 4.1-1 4-3.8-.1-.6-.3-1.3 0-1.8.6-1.3 2-3.9 2.2-3.8 2.4 1 1.1 2.3.3 4-1.1 2.2.5 3.9 3 2.9 4-1.7 8-.9 12-1.1 8.8-.4 17.5-.9 26.3-1.2 2.3 0 3.8-.7 3.7-3.3-.1-2.8 1.2-5.5.2-8.6-.6-1.8-1.2-4.5.9-6.6.6-.6.4-2.5 0-3.5-2.1-5.3-.7-10.8-1-16.2-2.4-35.1-.9-70.3-1.2-105.4 0-3.4 1.5-7 1-10.2-.8-4 .2-7.7.1-11.5a264 264 0 010-15.5l1.2-29.8zm257.6 253.4c4.2-.1 4.2-.1 4.2-3.9l-.3-4c-.3-3.9-1.7-8-.6-11.5 1.3-4.1.4-8 .8-12 0-.6-.8-1.7-1.4-1.8a51 51 0 00-7.8-1.2c-8.2-.5-16.4-.3-24.6-1-14.8-1.1-29.8-.9-44.7-1.2-24.2-.4-48.4-1.3-72.7.8-11.2 1-22.6-.4-34-.8-16.2-.5-32.5-.7-48.9.7-14.3 1.2-28.9.2-43.4.3-3 0-6.3 1.8-9 .9-4.2-1.4-8.4-.5-12.6-1-1.3 0-2.7 0-4-.3-4-1-5-.6-5 3.2v30.3c-.1 2.2.5 2.7 2.6 2.6 6.2-.2 12.4-.8 18.5-1 25.8-1.1 51.7 1 77.5-1.4 7.3-.7 14.8 1.2 22-1.2 3.9 3.2 8.1-.6 12.4.9 3 1 7-1 10.7-.9 19.4.6 39-1 58.4 1 14.2 1.4 28.6-.4 43 1.1 15 1.6 30.2-1 45.3 1.3 4 .7 8.3.1 13.6.1zM120.7 318H227c.4 0 .8-.5 1.3-.8-.4-.1-.7-.4-1-.4-4.2-.4-8.4-1.1-12.6-1.2h-77.8c-12.6.1-25 .8-37.6 1.2-.5 0-1 .5-1.6.8l1.6.4h21.4zm-36.9 1.2l5.1-.4c-1.5-.3-3.3-.2-4.5-1-2.9-1.7-6-1-9-1-4 .2-8 .8-11.9 1.2-.5 0-1 .3-1.6.4.6.3 1.2.7 1.8.7h20.1zm-60.7 0h29.6c1.4 0 2.8-.5 4.2-.7-1.5-.2-3-.5-4.5-.5H33c-3.5 0-7 .4-9.8 1.2z"/>
  <path fill="#00EBAB" d="M153.7 249.2a23 23 0 0112.1-11.4c8.2-3.7 16.2-7.4 25.3-8 .6-.1 1.2-1 2-1 1.6-.2 4.6.3 5-.4.8-1.8.5-4.2.5-6.3v-24.4c0-3.6.7-7.3-1-10.9-.7-1.4-.3-3.5 0-5.2.2-1 1-2 1.5-2.9-1 .8-2.2 1.4-3.2 2.3-1 .7-1.7 1.7-2.6 2.4-.3.2-1.1 0-1.6-.3-.2-.1-.3-.9-.2-1 2.4-3 5-5.6 7.8-8 .4-.4 2.1-.2 2.6.3 2.1 2.2 4 4.7 6 7 .2.4 0 1.1.1 1.7-.7 0-1.4.2-2 0-.5-.2-.8-1-1.3-1.2-1-.7-2.2-1.2-3.3-1.8.3 1 .7 2 .8 3v4l1.1 38.3c0 1.9.8 1.9 2.4 2.2 10.6 2 21.3 3.5 31.6 7.1 1.8.7 3.9 1.6 5.2 3 3.9 3.8 7.4 8 11 12 .6.7 1.1 1.8 1 2.6-.7 4.4-1.2 8.7-4.3 12.5a37.7 37.7 0 01-20.3 11.5c-13 .4-26 1.4-39 1-5.2-.3-11 .2-16-2.7-5.4-3.2-11.2-5.7-16.1-10-4.9-4.2-6-9.2-5-15.4zm21.1-8c-4 2.1-8.4 3.8-12.2 6.4-7.2 4.8-6 13 1.6 16.3 5.4 2.4 10.6 5 15.9 7.5 1.5.7 3.2 1.3 4.8 1.3 6.9.1 13.5 1.6 20.7.3 9.3-1.7 18.6-3.7 27.7-6.3a26.5 26.5 0 0014.2-8.9c1.6-2 1.7-3.8.1-5.6-2.7-3.3-5.7-6.3-8.3-9.7a16 16 0 00-9.1-5.3 103 103 0 00-16.8-2.5 80 80 0 00-38.6 6.5zm48.2 31.5h-.5l-.6 1.2c10.6.5 19.6-3 27-10.5.3-.2.3-.8.5-1.2-.6 0-1.3-.1-1.6.1a32.3 32.3 0 01-13.1 7.1c-3.5 1.2-7 2.2-11.7 3.3zM179 237c2.5-1 5.1-1.8 7.6-2.9.5-.2.9-.8 1.3-1.2-.5-.2-1-.7-1.5-.6-8.3 2.3-16.2 5.5-23.8 9.5-1 .6-1.8 1.5-2.6 2.4-.2.2 0 .8 0 1.2h1.1A46 46 0 01179 237zm31.5-5.3l-4.3-.6c-1 0-1.8.3-2.7.5.8.2 1.6.6 2.4.7 1.3 0 2.7 0 4.6-.6zM121.3 757c-8-1.2-15.6-.3-22.8-2.3h-1.2c-10-.4-20-1-29.9-1.1-3.2 0-6.4 1-9.6 1-8.3-.2-16.7-.5-25-1.2-4.3-.3-8.8-.8-12.7-2.4a29.4 29.4 0 01-14.8-13c-.2-.4-.6-1-.6-1.4l.6-4.5 1.7 3.4c4 7.4 9.8 11.7 18.4 13.4 13 2.6 26 2.5 38.9 2 4.9-.2 9.7.5 14.5.3 5.1-.2 10.4-.8 15.4 0 6.4 1.2 12.8.5 19.2 1.2 13.9 1.5 27 6.3 39.6 12 1 .5 2.2.9 2.8 1.7 2 2.6 3.8 1.7 6 .5 6-3.2 12.2-6.1 18.2-9.3 5.1-2.8 10.8-3.7 16.3-5 12-2.9 24.4-2.9 36.5-2.1 5.6.3 11.3 0 16.8 1.1 8.2 1.6 16.3.6 24.5 1 6.9.4 13.4-1.7 20-3.3 1-.2 2-.3 2.9-.2 6.4.3 12.2-1.7 18.2-3.6 7.9-2.5 11.5-7.9 10.8-16v-3c0-.4.5-.8.8-1.3.5.4 1.2.7 1.5 1.2.5 1.2 1.1 2.4 1.2 3.7.3 9.5-5 16.5-15 18.8-8.9 2.1-18.1 3-27 5a57 57 0 01-20.5 2.2c-9-1.2-18 0-26.8-1.4-9.5-1.3-18.8-1-28.1-.6-7 .3-14.3.6-20.8 4a14 14 0 01-6 1.6c-2 0-3.3 1-5 2.2-6 3.9-13.1 5.7-19.2 9.6-1.3.8-4.3-.2-5.9-1.2-7.3-4.5-15.4-7-23.3-10-3.2-1.2-6.7-2-10.6-3zM278 99.9c-1.2.9-2.4 1.2-3 2-1.4 1.7-2 4-3.7 5.3-1.5 1.1-3.9 1-5.8 1.7-5 2-7.7.8-8.4-4.5-.4-2.3-1.6-1.7-2.8-1.8-1.3-.1-2.4 0-2.1 1.8 0 1.2.2 2.4 0 3.5-.2.7-1 1.2-1.6 1.8-.5-.8-1.2-1.5-1.4-2.3-.2-1.2 0-3.5 0-3.5-2-.2-4-.2-6 0-.2 0-.4 1.3-.5 2-.3 1.3-.4 2.7-.8 4-.1.3-.8.5-1.2.8l-.4-1c-.3-1.6-.6-4.5-1-4.5-2.6-.1-2.3 2.2-2.9 4-.3.9-2 3.8-3.4.2 0-.2-1.6.2-2.5.3-2.2.3-4 0-3.3-3 .4-1.6.5-3.3 1.3-4.7 1.7-3.2 5.2-3.3 8.2-.8.7.6 1.7 1 2.6 1.4l1-2.4c.2-.7.1-1.5.4-2.2.2-.5.8-.8 1.2-1.2l.8 1.2 1.8 3.4c1.7-1 3.7-1.7 5.2-3 1.9-1.7 2-2 2.4 0 .2 1.9 1.1 2 2.2 1.8 1.8-.5 3.5-1.3 5.2-2 1.4-.5 2.7-1.3 4-1.5 1-.1 2.7.5 2.8 1 .3 1.5 0 3-.1 4.6-1.1-.1-2.5.2-3.2-.3-2.1-1.6-3 .2-3.5 1.4-.2.5 1.2 2.3 2.2 2.7 3.6 1 6.4-.8 7.1-4.6.5-2.1.4-2 3-1.5.6.2 1.9-.4 2.3-1 2-3.1 5.1-2.4 8-2.3.3 0 1 .6 1 1s-.5 1.2-.8 1.3c-1.3.3-2.6.4-4.2.9zm-48.4 4.5l.3 2.7 4.3-4c-.6-.5-1.5-1.4-2-1.3-.8.3-1.4 1.3-2.6 2.6zm33.3-4.8h2.3c-.7-.4-1.5-.8-2.3 0zM240 905.5c-3.3-1.8-6-4.2-10.1-3.3h-.6c-4-3.4-6.1-1.7-7.6 2.5-.1.4-.8.7-1.2 1-.1-.3-.5-.7-.4-1 .6-5.6 0-11.6 5.3-15.6 2-1.5 4-1.8 5.7-.1 1.6 1.7 1.4 3.8-.4 5.6-1.2 1.2-2.2 2.5-3.2 3.8 1.8.5 3.6.8 5.3 1.5 2.3 1 3.6 1.1 4-2 .3-2.5 2.2-5 2.1-7.3-.2-3 2.2-3.4 3.5-3.6 2.6-.6 5.8-1 8 .1 3.4 1.7 5.9.5 8.6-.6 2.3-1 3.7-.4 3.8 1.9.2 3.3.1 6.7 0 10 0 .5-.8 1-1.2 1.5-.4-.6-1-1.1-1-1.7l-.1-8.9-.3-1c-.4.2-1 .3-1.2.7-.8 1.2-1.5 2.5-2 3.9-.9 2-1.4 4.2-2.5 6-.6 1-2 1.4-3 2 0-1.2-.1-2.5.3-3.6 3.5-8.2 3.6-8.2-5-8.1-1.2 0-2.5-.2-3.6 0-.6.3-1.1 1.1-1.7 1.7.7.2 1.4.6 2 .6l5.4.1c.3 0 .8.8.8 1.2 0 .3-.5 1-.9 1-1.7.2-3.6-.1-5.3.2-1.1.2-2.7 1-3.1 2-.7 1.8-1.7 5.1-1 5.6 1.8 1.3 3.6-.7 5.2-1.9a6 6 0 012-1c.5-.1 1.1.1 1.7.2-.2.4-.3 1-.6 1.3-2.5 1.7-5 3.3-7.7 5.3zm-12.8-9.8c.4-.6 1-1.2 1.1-1.9.4-1 .5-2.2.8-3.3-1 .8-2.2 1.5-3 2.5-.7.6-1 1.6-1.2 2.4 0 .2 1.1.6 2.3.3zM279.5 814.2c0-1.2.2-1.8 0-2.4-.3-1.2 3.3-2.4.2-3.5-3-1-5.4.2-6.1 2.6l-1.2 4.3c-.1.4-.5.8-.7 1.3-.2-.6-.2-1.3-.5-1.6-2.4-1.5-.5-3 0-4.4.9-2.6 1.5-5.3 2.7-7.8.8-1.7 2-2.5 2.2.7.2 2.4 2.2 1.4 3.4.6.7-.4.8-1.6 1.4-2.3.2-.4 1-.4 1.5-.6-.1.5-.4 1.1-.2 1.6.4 1 1 2.1 1.7 3.2 1-.6 2.7-1.3 2.7-1.8-.3-4.8 3-4 5.9-4.2 4.4-.4 8.8.8 13.2-1 3.3-1.4 6.3 1.8 4.6 4.9-2.2 3.9-.3 4.3 2.6 5 .8.3 1.8.7 2.4 1.3.5.6.7 1.6 1 2.4-.8 0-1.7 0-2.4-.3l-9.1-4c-1.9-.9-3.5-1.5-3.9 1.5 0 .8-.8 1.4-1.2 2.1-.4-1-1-1.9-1-2.8 0-1.2.9-2.4 1-3.6.5-3.4-1.2-4.9-4.3-4-.5.1-1 .8-1.4.9-1.8 0-4-.5-4.7 2 1.5-.3 3.1-.7 4.7-.8.8 0 1.7.6 2.6 1 .3.1.5.5.8.8-.3.2-.6.5-1 .5-2 .5-4 .7-6 1.4-.6.2-.9 1.6-1.3 2.4l2.3 1h.6c1.2-1.4 2.5-1.7 4-.7-1.4 1-2.8 2.9-4.3 3-4.9.3-5.8.8-6.2-4.3-.1-.5-.8-1.5-1.1-1.5-.7.2-1.6.6-1.8 1.2-.5 1.2-.6 2.6-.6 4-.1 1.5-.5 2.7-2.5 1.9zm25.6-9.5c1-.4 3 1 3-1.4 0-.7-.3-1.4-.4-2-1 .5-2.1 1-3.1 1.7-.2 0 0 .7.5 1.7zM221 90.4c-.7-.2-1.7.2-2.6.1a8 8 0 01-3.6-1c-.3-.3 0-2 .4-2.8 1.5-4.8 1.5-4.8 6.5-4.4 3.1.3 6.3.5 7.4-3.6 0-.4.8-.6 1.2-1 .1.3.4.7.4 1l1 3.7c1.2-.9 2.9-1.5 3.7-2.6 1-1.4 1.4-1.3 2.5-.2 3.3 3.4 5.4 3.6 9 1.4.7-.4 1.3-.9 2-1 1.9-.3 4 0 4.3 2 .2 1.3-.4 3.5-2.8 4-1 .2-2 1-2.9 1.6.4.4.7 1.2 1 1.2 1.3.2 2.7.5 3.7 0 1.3-.8 3.3-2.2 3.2-3.3-.3-6.2 5-4 7.7-5.5.5-.2 1.4.4 2.2.6l-1.7 1.6c-1.8 1.8-3.7 3.5-5.4 5.4-2.3 2.5-4.7 4.4-8.4 4.3-2.8 0-4.3-1.7-4.7-4.1-.3-2.4-.3-4.3-3.4-4.3-2.8 0-4.1 1.6-5 4-.2.5-.7 1-1 1.5-1.1-.8-1.7-1.6-.2-2.6 0 0-.5-1.5-1-1.6-2.8-1-5 .3-6.2 3.1-.4 1-1.2 1.8-1.8 2.7L226 88v-1.2l-.7-1.8c-.6.5-1.4 1-1.6 1.7-.6 1.3-.7 2.9-1.3 4.2-.3.5-1.4.5-2.1.7 0-.1-.1-.3 0-.4 0-.2.2-.3.6-.7zm-2.7-5.7l-1.7 1.7c.6.2 1.3.8 1.8.6 1-.3 2-1 2.8-1.7.2-.2-.2-1.4-.3-1.5-.7 0-1.4.2-2.6 1zm30.3-1.8l2 .5.1-.7c-.5-.1-1-.2-2 .2zM235.2 69c-1.5-2.6-3.5-2.6-4.4-.1-.3.7 0 1.6 0 2.3-.4 2-.4 1.8-2.7.8-1.2-.5-2.7-.3-4-.4-2.6-.1-4-2.4-2.5-4.4 1.7-2 3.5-4.3 6.9-2.8 1.1.5 2.7 0 4 .1 2.5.1 4.3-.5 4.3-3.5 0-.4.9-.8 1.3-1.3.3.4.8.8 1 1.2.3.8.6 2.3.9 2.3 1 0 2.2-.4 3-1 .9-.6 1.4-1.6 2-2.5.4 1 .6 2 1.3 2.6.7.6 2 1.1 2.9 1 2.3-.6 4.5-1.8 6.8-2.3 2.8-.7 5.1.6 5.3 2.5.2 1.3-2.2 3-4.4 3.4-1.2.2-2.3.6-3.5 1 1.2.8 2.4 1.8 3.8 2.5.4.3 1.2 0 1.7 0l1.6.6-1.2 1.3c-2.4 1.8-4.5 0-6.4-.8-1.8-.8-3-2.5-1.3-4.8 0 0-1.2-1.5-1.8-1.5-3 .2-4.7 1.8-4.8 5 0 .4-.8 1-1.2 1.4-.4-.7-.6-1.7-1.2-2-1.4-1 3.4-2.4-.2-2.6-1.4 0-4-1.7-4.5 1.6-.1.7-.5 1.4-.8 2l-1.3 2c-.7-1-2.5-1.7-.6-3.6zm-9.2-2.7l-1.7 1.6-.6.9c.3.1.8.5 1 .4 1.4-.7 3.6-1 1.3-3zm30.3-1.8l2.8-.8c-.6-.5-1.2-1.4-1.7-1.4-.6.2-1 1-1 2.2zM52.3 876c-1.2.8-2 1.5-2.4 2.3-1 2.5-1.8 3-4.6 1.2-3-1.9-6.9-2.4-10.4-3.4-.4 0-1.3.5-1.6 1-.5.8-.4 2-.9 2.6-.3.6-1.2.8-1.9 1.1-.3-.6-.9-1.2-.8-1.8.3-3.6.7-7.2 1.4-10.7 0-.4.7-2.6 2.5-1 .2.1 2.8-1.6 3-2.6.3-1.8 1.3-2 2.3-1.6 1 .4 2.3 1.5 2.6 2.5.6 2.5-.4 4.9-1.8 7-.8 1.2-.9 1.8.8 2.4a19 19 0 015.4 2.6c1.3.9 1.3.9 1.6-.6 1-4.2 3.4-7.5 6.5-10.4.6-.6 2-1.4 2.3-1.1.9.6 1.8 1.7 1.8 2.7 0 2.3-.4 4.5-.6 6.8 0 .2-.3.3-.4.4-1.5 1.5 3.6 3 0 4-.6.2-2-2.2-3-3.3-.3-.2-.8 0-1.8 0zm-15-9.4l-2 4.4-.6 1.2c.5 0 1.2.4 1.6.2.9-.7 1.8-1.6 2.4-2.5 1-1.2.6-2.4-1.3-3.3zm15.6 5.9l-.4.4c-.1.1 0 .4 0 .4 2.5.2 4-1.5 3.3-3.6 0-.1-1.2 0-1.5.2l-1.4 2.6zM121 119c.8-1 1.6-2.1 1.8-2 5.8 2.8 5.8 2.8 11 2.3.5 0 1 .2 1.6.4l-1 1.3c-2.2 2.3-4.8 4.3-5 8 0 .8-1.5 1.5-2.3 2.1-.4-1-.9-1.9-1-2.9 0-.6.7-1.3.7-2 0-1.1-.1-3.1-.6-3.2-1.9-.5-4-.5-4.8 1.8-.5 1.3 0 2.8-.2 4.2 0 .3-.7.9-1 .9-.5 0-1-.5-1.3-.9-.2-.5 0-1.2 0-1.7.2-5.3.4-4.9-3.8-4.3-3 .4-7.9-.8-8.1 4.8 0 .3-.4.6-.6 1l-.6-1.5-1.3-2.1c-.3.5-.6 1.2-1.1 1.6-.3.2-1.4 0-1.5-.2l-.4-3.6c0-.9.5-2 .1-2.4-.6-1-1.8-1.5-2.7-2.2l3.4-.3c1.2-.1 2.6.3 2.3-1.7.8 0 1.6-.2 2.3-.1.3 0 .3 1 .5 1.5.3-.5.4-1.2.8-1.5.8-.5 2-3.8 2.6.1.1.6 1 1.2 1.7 1.6.4.3 1 .4 1.5.5-.4.3-.8.6-1.3.7h-2.3l-4.6 1.9 4.6.5c3.6.1 7.1-.5 10.6-2.7zM33.2 40.7c3.1-2.9 5.4 1.2 7.9.1 0 1.9.7 4 0 5.6-1 1.7.2 1.8.8 1.4 2.5-2 6.5-2 7.6-6 .5-2 1.7-4.5 4.3-3.3 1.9.8 4.9 2.4 2 5.6-.3.5.3 1.7 0 2.3-.6 1.2-1.5 2.3-2.4 3.2-1.6 1.7-2.3-.2-3.3-.9-2.2-1.6-4-1.1-6.1.7-1.1 1-3 1.3-4.4 1.8L38 45.3c0-.3.7-.9.9-1.4 1-2.3-.7-2.1-2-2-1 .2-1.7 1-2.5 1.1-2 .3-3.9.4-5.8.5l6 .8c.3 0 .7.7 1 1-.5.5-.9 1.2-1.4 1.3-1 .2-2 0-3 0-2.6.4-2.8 2.2-2.8 4.3 0 1-.6 2.7-1 2.8-2.4 0-1.1-2-1.3-3-.2-1.8 0-3.6 0-5.4 0-4.2.4-4.4 4.7-4.6h2.4zM54 43.1l-.8-2.1c-.7.9-1.8 1.7-2 2.7-.2.9.4 2.8.8 2.8 2.5.3 1-1.8 2-3.4zM145.4 68.4c1-2.4 1.7-4.1 4.8-2.8 2.5 1 1.7-1.6 2.1-2.9.2-.6 1-1.1 1.6-1.7.2.7.6 1.3.7 2 .5 2.9 2.2 3.6 5 1.9 1-.6 1.4-2.5 3.3-1.1 2.5 1.9 2.4 3.7-.5 5.5-.8.4-1.7.7-2.4 1.2-.4.3-.6 1-.6 1.5 0 .3.5.8.7.8 2.4-.4 5-.4 7-1.5 1.1-.5 1.3-2.9 1.8-4.5l1.2-5.4c.1-.5.6-.9.9-1.3.5.6 1.5 1.2 1.4 1.7-.7 3.9-1.5 7.7-2.4 11.5 0 .3-.9.6-1.4.7-2.8.4-5.6 1-8.4 1.2-3.5.1-4.3-1.3-3.5-5.1.1-.6-.2-1.4-.3-2-.7.3-1.7.3-2 .9-.9 1.3-1.5 2.9-2.2 4.4l-.8 1.6c-.5-.6-1.1-1-1.5-1.7-.2-.3-.1-1 0-1.1 1.4-1.3 2-3.3.5-4-1.8-.6-3 1.2-3 3.3 0 .3 0 .8-.3 1-.4.5-1 .9-1.6 1.3-.1-.5-.4-1-.4-1.6 0-1.2 0-2.3.3-3.8zm17.5-2.1l-.7-.5c0 .4.1.7.7.5zM149 21.4c-.7-1-.9-1.6-1.3-2-.2-.2-1.4.4-1.4.6 0 1.3.5 2.6.4 4-.1 1.2-.7 2.4-1 3.6-.6-1-1.6-1.9-1.7-2.9-.3-1.7-.2-3.5 0-5.3 0-2-.8-3.7-2.8-3.6-2 .2-3.8 1.2-5.6 1.9.1.5.2 1.2.5 1.5.5.2 1.2 0 1.8.1 1.2.5 2.3-3.4 3.5-.2 0 .2-2.2 1.4-3.4 1.9-1.7.6-3.2 1.6-2.3 3.6.3.7 1.2 2.8 2.8.7.4-.6 1.2-1 1.9-1.2.6-.1 1.4.2 2.1.4-.3.4-.5 1-1 1.2-1.8 1-4 3-5.6 2.5-2.1-.5-2.8-3-2.8-5.7 0-9.3 0-9 9.2-9.3 4.2-.1 5.6 2.5 7.3 5.2.5.8 1.4 1.4 2 2V18c-.2-.7-.7-1.5-.5-2.1.3-1.3-1.4-3.5 1.3-3.6.3 0 .8 2.2 1 3.4.4 2.2 1 4.4 1.1 6.6.1 1-.6 2-.9 3-1-.4-2.2-.6-3-1.3-.7-.5-1-1.5-1.7-2.6zM193.9 71.6c1.8-.2 1.7-3.4 4-1.4.2-.7.8-1.5.7-2.1-.6-2.6.8-4.2 2.6-5.4.5-.4 1.8.4 2.8.6l-1.3 1.3c-1.3 1.2-2.1 2-.7 4.2 2.4 3.5 2 3.7-2.6 4-2.6.3-5.2 1-7.8 1.2-3.4.4-5.6-.9-6.1-4.5 0-.6-.8-1-1.3-1.4-.3.3-.8.6-1 1-.9 1.5-1.6 3-2.5 4.3-.2.4-1 .7-1.5.5-.3 0-.7-.8-.8-1.2v-5.3c0-.6.3-1 .5-1.6.3.6.4 1.4.9 1.8 1.2 1 1.7.6 2.3-1 .5-1.4 1.6-3.4 3.8-1.2.3.3 1.3-.1 2-.3.3-.1.5-.5.8-.8 1.7-1.6 4-1.8 5-.2.9 1.4.6 4.1-1.6 5-1.2.5-2.4.7-1.5 2 .3.6 1.7.4 3.3.5zm-3-6l-1.8 1.5 1 1c.5-.6 1-1.2.8-2.4zM107 808.2v1.8c-.7 1.3-1.8 3.8-2 3.7-2.8-1-.2-2.6-.3-4-.1-2 .5-4 .8-6-3.5-.4-7.1-1-10.7-1.3-.2 0-.8 1-.8 1.7 0 .6.4 1.5.9 1.7.9.3 2 0 2.9 0l2 .7-2.1.5c-1.8.5-3.7.6-5.4 1.3-.9.4-1.3 1.7-2 2.6H93l5.6.2c-1.6.9-3.1 1.8-4.8 2.5-1.8.9-3.9 1.4-5-.6-.6-1-.1-2.7.2-4 .7-2.6 1.3-5.5 2.7-7.7.8-1.4 3.9-3 4.8-2.4 5 2.8 10.4 2 15.7 2.2.6 0 1.2.5 1.8.8-.4.4-.9 1.2-1.3 1.2-3.3-.2-4.3 2.4-5.7 5.1zM56.7 900.8c3.4-3 4-6.7 5.1-10.2.2-.6.9-1 1.3-1.4.4.5.8 1 1 1.7.2.5 0 1.1 0 1.7.3 1.9 1.3 1.6 2.4.7l.9-.8 3.2-3.3c.3 1.7 1.3 4 .5 5-1.8 2.6-.5 5-1 7.4 0 .6-.3 1.1-.4 1.7-.6-.5-1.4-.8-1.6-1.4-.3-1-.6-2.3-.3-3.4.8-2.6-2-1.8-2.6-3-.8.8-2.1 1.7-2.1 2.5.1 2.9 0 5-4 4.3-.5 0-1.1.8-1.8 1.1-3.4 1.6-7 .2-7.3-3.3-.6-5 .7-9.8 4.3-13.6.3-.3.9-.4 1.3-.6 0 .6.4 1.3.2 1.7-1 2.2-2.2 4.3-3 6.5-1.3 3-.8 5.7 2 7.6.3.2 1-.4 2-1zM30.8 923.7c-1.7-2.2-1.5-4-.6-5.9 1-2.1 1.8-4.4 3.1-6.4.6-1 2-1.4 3.1-2 .3-.1.8.1 1.1.2 0 .4-.1.8-.4 1.2-1.5 2.7-3.2 5.4-4.5 8.2-.4 1-.3 2.6.3 3.6.9 1.5 2.3 1 4 .6 2.7-.9 4.7-2 5.7-4.7.5-1.4.8-3 1.7-4 1.2-1.5 2.8-4 4.6-2.6 1.7 1.3 2.6 4 3.2 6.2.3 1.2-.8 2.7-1.3 4-1.8 4.5-3.9 5.3-7.7 2.3-2-1.6-2.8.1-4 .5-3 1.2-5.7 2.4-8.3-1.2zm14.3-5.4c0 .8.3 2 0 2.3-2 1.4-.4 2.4.5 2.9 1.4.7 1.9-.3 2-1.7 0-.8.6-1.7 1.2-2.3 1.7-1.8 1.6-3.4-.3-4.7-.2-.1-1.8 1.9-3.4 3.5zM126.3 806.2c-.2 2.5-.9 5.1 2.6 5.6 2.8.4 7-1.7 7.9-4 .6-1.5 1.6-3 1.8-4.5.4-2.7 2.3-2.6 3.8-2 1.1.3 2.3 1.8 2.6 3 .6 3-.1 6-2.6 8.4-1.7 1.6-3.2 4.5-5.9.9-.4-.6-2.3 0-3.5.2-3.3.7-6.4 1.1-9-2.1-2-2.7-2.1-4.2.6-7.4 2.5-2.9 4.8-3.3 7.4-1.4l1 1.3-1.5.5c-1.6.4-3.2.8-5.2 1.5zm16.4 2.6c-.4-1.6 3-3.5-.1-4.6-.7-.2-2.4 2.3-3.4 3.7-.4.5-.1 1.5 0 2.3 0 .5.3 1 .4 1.5.9-.7 1.7-1.5 3.1-2.9zM258.1 813c-2.6.8-4.6 1.8-6.7 2.3-1.6.5-3.2.3-2.8-2.2.5-3.2.5-6.5 1.4-9.6.3-1 2.5-2.2 3.8-2.3 5.4-.3 10.7-.1 16 0 .5 0 1 .4 1.4.7-.4.5-.7 1.5-1.1 1.5-3.4 0-3.6 2-3.7 4.6 0 1.9-.7 3.7-1.2 5.5 0 .3-1 .7-1.3.6-.4 0-1-.7-1-1 .3-2.1.9-4.1 1.2-6.1.2-2 .4-4-2.8-3.6-2.1.4-4.3.2-6.4.4-.5.1-1 1.1-1.3 1.7.5 0 1 .2 1.6.4l1.6.4c-.6.2-1.3.8-1.7.7-2.8-.8-3 1.9-4 3-.4.5.2 1.9.3 2.8.6-.3 1.1-.8 1.8-1l5.4-1.2c0 .8 0 1.6-.5 2.4zM13.9 897.2c-1.6 2.2-2.8 4.1-4 6-1-2-2.5-4-2.4-6 0-3.5 1.1-6.9 2-10.2.1-.6 1.2-.9 1.8-1.3 0 .7.2 1.4.1 2l-2 8.7c0 .3.4 1 .5 1 .7-.2 1.6-.3 1.8-.8 1-1.8 1.2-4 2.5-5.4 1-1.2 1-4.6 3.8-3 .8.4.8 2.6.9 4 .2 2 0 4 0 6 0 .4.3 1 .5 1.5.5-.4 1.4-.8 1.6-1.4l1.6-7c.2-.8 1.2-1.4 1.8-2l.5 2.2c.1 4-2 7.5-3.6 11-.8 1.6-2.8 1.4-3.5-.6-.7-2.3-.8-4.8-1.3-7.2 0-.6-.4-1.2-.6-1.9l-.9 2c-.3.7-.5 1.4-1.1 2.4zM89.2 25.2c.3-2 .6-3.4 1.2-4.8.9-2.5 2.8-3 4.9-1.5l.8.8-1.1.8c-3.5 1.5-4.3 5.1-1.4 7.3.7.5 2.3.6 2.8.2 2.2-2.3 5.5-4 4.7-8.1-.2-1.1.5-2.7 1.3-3.6.7-.9 2.4-1.9 3.2-1.6 1.1.4 2.5 2 2.5 3.1 0 3.2.9 6.5-1 9.6-2.1 3.4-2.7 3.5-5.3.4-.7-1-1.3-1-2 0-1.2 2-2.5 3.9-5.4 3.4-3-.5-4.8-2.3-5.2-6zM107 20c-.8-.4-2-1.3-2.4-1-1 .6-1.7 7.3-1 8.2 0 .2.6.3.8.1 2.2-1.4 1.1-3.8 1.4-5.8 0-.3.4-.6 1.2-1.5zM265.6 899.6c-.6-4.8.4-9 2.1-13 .2-.5 1-.7 1.7-1 .2.5.7 1 .6 1.4l-1.4 9-.6 1.2c.5 0 1.3.3 1.5.1 1.4-1.6 3.6-1.6 5-2.4 1.8-1.3 2.7-4.3 3.8-6.7.6-1.2-1.1-3.3 1.3-3.6a8 8 0 011 3.8c-.1 2.2-.9 4.3-1.4 6.5l-.4 2.4 2.4-.9.6-.1c2.1-.2 3-4 6-2-1.7 1.7-3 3.9-4.9 5-2 1.2-5.3 2.2-6.6 0-1.6-2.7-2.6-2.4-4.3-.8-1.8 1.8-3.8 2.3-6.4 1zM85.6 845.1l.4 5.8c1-1.3 1.7-2.8 3-3.7 1.4-1 1-4.6 3.7-3.2 2.3 1.2 3.1 3.4 1.3 6-.3.3.2 1.3.3 2 .6-.3 1.4-.7 1.6-1.2l2.8-7.8c.2-.5.8-1 1.2-1.4.4.5 1 1 1.1 1.6.8 3.4-1.7 6-2.8 8.9-.1.5-.8.8-1.2 1.2-1 1.1-1.8 3-3 3.1-1.1.2-2.8-4.5-2-6.2.4-1.1 1.5-2-.2-2.6-.3 0-1 1.1-1.5 1.7l-4.6 7c-.4.4-1.3.5-2 .5-.2 0-.5-1-.5-1.5v-11.8c.1-1 1.3-2 2-3l.4 3.4v1.2zM184.3 916.5c-1.6.4-2.7.7-3.6 1.3-.6.4-1.1 1.5-1 2.1.1.6 1.2 1.3 1.9 1.3 2.3.2 4.7 0 7.1.1.5 0 1 .4 1.6.5-.5.3-1 .6-1.5.7-2.2.4-4.4 1-6.6 1.1-2.8 0-4.1 1.2-3.7 3.9.1 1 .9 2 1.3 3l2.1-1.4c.3-.2.6-.6 1-.6l4.7-1-3.4 3.3c-.7.6-1.4 1.3-2.2 1.7-3.2 2-5.8.6-6-3V921c0-3.7 2.3-6.2 6.2-7l7.8-1.1c.5 0 1 .4 1.5.6-.5.4-.8 1-1.3 1.2-1.7.7-3.5 1.2-5.8 1.7zM188.2 849l-3.8 3.5 4 1c1.2.3 3.3 1.4 3.5 1 1-1.2 1.4-2.9 2-4.4.4-1.4.6-3 1.2-4.3.1-.3 1.2-.4 2-.4 0 0 .4 1 .3 1.5-.7 2.6-2 5.2-2.2 7.9-.1 2.6-1.4 2.4-3 2.2l-8.4-1.1c-2.3-.3-4.3.2-4.2 3.3 0 .4-.4.9-.7 1.3-.5-.5-1.1-1-1.6-1.7-.2-.2-.2-.8 0-1 2.7-3.9 1.9-8.7 3.5-12.8.2-.5 1.1-.7 1.7-1 .2.4.5.9.6 1.4v1.2l-.5 3.3 3-2.3c.2-.2.1-1 .3-1 1.7-.5 3.5-.8 5.2-1.2l-2.9 3.6zM272.4 923.7c2-.4 3.6-.6 4.8-1.3.7-.4.8-1.8 1.2-2.7l-2 .4-2.4-.2c.4-.6.7-1.6 1.3-2 1-.6 2.5-1.5 3.5-1.2.9.3 1.7 2 1.9 3.1a29 29 0 010 7.1c-.2 1.3-1.2 2.6-1.8 3.9-.6-1-1-2.1-1.8-2.8-.7-.7-.8-2.5-3-1-1 .6-3.7-.8-5.4-1.8-2.5-1.5-3-4-1.5-6.4 3.4-5.8 6.8-8 9.8-6.6.5.3.8.8 1.2 1.2-.4.3-.8.7-1.2.7-3 0-4.2 2.3-5.9 4.2-2 2.3-1.1 3.8 1.3 5.4zM183.5 802.6c2 4.5.7 9-1.6 13.3-1 2-2.7 2-3.4-.1-.8-2.7-.9-5.6-1.3-8.4 0-.5-.4-1-.6-1.5l-.6 1.5-4.7 8.7-1 1.3c-.4-.4-1.2-.9-1.2-1.2l2.2-10.2c.7-3.1 4.1-2.8 6-4.4.1 0 .8.6 1 1 2.3 2.7.9 6 1.3 9 0 .4.4.9.6 1.3.5-.4 1-.7 1.3-1.2.3-.9.3-1.9.5-2.8.4-2 .8-4 1.5-6.3zM152.2 894c-.5 0-2.1 3.4-2.4 4.3-.5 2-1 4.2-1.8 6.3-.1.5-.8.8-1.2 1.2-.2-.6-.6-1.1-.5-1.6l1.2-8.4c.2-1.4.9-2.8 1.1-4.2.4-2.4 2.5-4.8 4.7-4.8.4 0 1.2 1 1.2 1.4.2 2.8 0 5.5.2 8.3 0 .3.6 1 1 1s1.2-.5 1.2-.9c.5-2.2.7-4.4 1.3-6.6.4-1.1 1.3-2.1 2-3.2l1.5 1c-2 4.6-1.7 10-5 14-.4.6-1 1-1.6 1.6-.5-.8-1.4-1.4-1.6-2.3-.6-2.1-.9-4.4-1.3-7.2zM196.3 109.7c-2.9-.4-5.1 2.1-7.4 0-.5-.5-1.3-.8-1.7-1.4-1.8-2.5 1.7-10 4.9-10.4 1-.1 2.8.5 2.8.8 0 2 1 4.4-1.3 5.9-.6.3-1.6 0-2.2.4-.5.3-1.2 1.3-1 1.5.4.7 1.2 1.3 1.9 1.8 0 0 .5-.8.8-.8 2.5.2 5.5 1.4 7.5.5 1.8-.9-1.4-4.2.4-6.3.8-.9 1.7-2 2.7-2.3.8-.2 1.9.6 2.8 1l-1.5 1.2c-2 1.6-1.9 3.5-1.1 5.7 1.2 3.6 1 3.7-2.8 3.6-1.4-.1-2.8-.8-4.8-1.2zm-3.6-8.9l-2.4 1.8.4 1c.6-.6 1.3-1 2-2.8zM217.7 808.2c-.7 2-1.4 3.2-2.1 4.5-2.7-1.4-.6-3.2-.3-4.8.3-1.7 2-4.1-2-3.3-.4.1-1-.3-1.5-.5.4-.4.7-1 1.1-1.2 4.8-1.6 9.4-4.7 15-2 1.7 1 3 1.5 2.8 3.6-.3 2.6-.5 5.3-1.2 7.7-.7 2.3-3.1 2.5-4.9 1.8-1-.3-1.9-2.2-2-3.5-.5-2.3-.5-4.6 2-6.3.4-.3 0-1.7 0-2.7-.7.3-1.5.8-2.3.7-4.3-.5-2.6 4-4.6 6zm8.3-3v1.2c.4 1.9-3 3.5-.3 5.4l3.1-4.6c.4-.6.9-1.6.6-2-.6-.8-1.5-2.5-3.4 0zM298.3 871.6c-4.2-1.7-4.2-1.7-5.7 2.6-.2.7-1 1.3-1.4 1.9-.3-.6-.9-1.2-.9-1.8-.1-2.4.2-4.8 0-7.2-.5-3.5 1-4.6 4.3-6 2.4-.9 3 1.4 4.6.7.2 1.3.5 2.6.5 4 0 .6-1.1 1.2-1 1.8.1.9.9 2.4 1.3 2.4 1.2 0 3.4 1.4 3.4-1.6 0-1.6-.2-3.2 0-4.8.1-.6 1-1 1.6-1.7.2.6.7 1.2.7 1.8l-1.2 11.4c0 .1-1 .3-1.3.1-1.6-1-3.1-2.2-5-3.6zm-3.3-4.5c1.1-.7 2.3-1.3 3.3-2.1.3-.2.3-1.2.1-1.5-.3-.4-1-.5-1.5-.5-2.2.2-3.7 1-1.9 4.1zM253.4 16.9a15 15 0 002.4 4.2c1.5 1.5 2 3.2.1 4.4-1 .6-2.6.1-4 0-.3 0-.7 0-1-.3-2.8-1.8-5.1-1.7-7.5 1-2 2.1-4 1.4-4.2-1.2-.3-3.5-.2-7.1 0-10.7 0-.7 1-1.4 1.7-2.1.6.7 1.7 1.5 1.7 2.2-.2 2.4-.8 4.8-1.1 7.2l.3 2.2c.6-.4 1.2-.7 1.7-1.2 3.1-2.8 6 .4 9.2.3.5 0 1.1.5 1.7.7-.2-.6-.2-1.4-.5-2-.9-1.2-2.3-2.2-2.8-3.5-1-2.5 2.4-6.9 5.2-7.1.6 0 1.3.5 1.8 1 .1 0-.3 1-.7 1.3-1.3 1-2.7 2-4 3.6zM105 82.6c.8-1.2 1.2-2.3 2-3 1.7-1.6.8.6 1.2.9.6.3 1.5.8 2 .6.7-.3 1-1.2 1.6-1.7l1.1.7c.3.3.3.7.6 1 1.2 1 3.8-1.6 4 1.5 0 .2-2.6.5-3.9 1-.3.1-.7 1-.6 1.4 0 .4.8 1 1.2.9 1-.3 2-1 3-1 1-.1 2 .5 2.9.9l-2 1.3c-2 1.6-6 .2-6.4 4.3-.8-.1-1.6-.1-2.3-.4-.4-.2-.7-.7-1-1l-.7 2-.4 2.3c-.5-.5-1.1-.8-1.5-1.3-1.3-2-4-4-.2-6.5 1.1-.7-.3-1.8-1.7-1.8-.5 0-.9-.6-1.3-1l2.3-1zm5 4.5v-2.4h-1.1c-.1.8-.1 1.6 1 2.4zM177.5 840l-2.7-7.6-.5-1.5-.7 1.5-1.9 5.7c-.1.4-.8.6-1.2.9-.2-.3-.4-.7-.4-1 .5-4 1-7.9 1.7-11.8.2-.8 1-1.4 1.6-2 .9.7 2.3 1.4 2.5 2.3.7 2.6.8 5.3 1.4 7.8 0 .5.9.9 1.4 1.3.3-.4.8-.8.8-1.2l.1-5.4c0-1.5 0-3 .3-4.4.2-1 .7-2 1.1-3 .7.7 2.1 1.5 2 2-.4 4.5-1 9-2 13.5-.3 1.2-2.1 2.2-3.5 3zM200.1 868c2.7-2.1 3.6.3 3.2 1.4-1.7 4-3.8 8-6 11.8-.3.6-2.1 1-3 .6-1-.4-2.4-1.5-.5-3 .2 0-.3-1-.4-1.4-.7.2-1.4.3-1.9.7l-3 2.7c-.6-1.7-1.5-3.4-1.7-5.2 0-1.6.6-3.3 1.2-4.8.2-.7 1-1.3 1.4-1.9.3.8 1 1.7.8 2.5-.3 1.5-2.3 3.7-.5 4.4 2.4 1 2-2.3 3-3.6.3-.5.6-1 1-1.3l3.3-1.8-.4 3.7c-.1.5-.3 1-.3 1.6l-.7 4c.9-1.2 1.8-2.4 2.5-3.6 1.1-2 2.2-4 2-6.8zM198.6 835.6l1.3-9.6c0-.4.9-1 .9-1 2.3 1.9 3.3-.8 3.4-1.7.6-3.4 3.2-2.1 4.5-1.8 1.7.5 2.6 2.3 1.5 4.3-.2.3-.7.5-.8.9-1.8 3.8-1.7 3.8 2.8 5.4.7.2 1.3.9 1.9 1.3-.8.4-1.6 1-2.3 1-2-.3-4-1-6-1.1-1.9-.2-3.7-.7-3.8 2.6 0 2.4-2 2.1-3.4-.3zm8.4-7.7l.7-5.2-3.1 4.2c-.2.2 0 .7-.1 1l-.5 1.7c.8-.4 1.6-.7 3-1.7zM34.4 852.3c.4-2.4 1.2-4.3 1.1-6-.2-2.9 2.4-2.4 3.6-3.5l2.4 3.2v.6l.7 4.5c1-1.1 2.2-2.1 3.2-3.3.6-.7.7-1.8 1.3-2.4.9-.9 2-1.6 3-2.3 0 1.1.6 2.6 0 3.4-1.6 2.5-.7 5.2-1 7.8-.1.5-.8 1-1.2 1.5-.4-.5-1-.9-1.1-1.5-.2-.5 0-1.2-.1-1.7l-.6-1.5c-.4.4-1 .8-1.2 1.3-1 1.4-1.7 3-2.6 4.4-2.3-1.4-1.3-3.8-1.6-5.8 0-.8-.2-1.5-.5-2.2-.2-.5-.8-.8-1.2-1.2-.2.4-.5.9-.6 1.4-.4 1.6-.7 3.3-1.3 4.8-.4 1.2-1.2 2.2-2 3.2l-1.4-.5 1.1-4.2zM161.7 930.8c-1.8-.8-3-1.7-4.3-2.5-4.4-3-4.3-3-5.2 2-.2 1-1.2 2-1.7 2.9-.6-1.2-1.8-2.3-1.7-3.4 0-2.6.8-5.2 1-7.8.4-3.7 4-3.7 6-5.3 1.6-1.2 4 0 5 2 .5 1 1 2.7.5 3.4-1 1.5-2.8 2.7-1.8 4.5.7 1 2.8 1 3.9 1.9 1.5 1.3 1.1 2.4-1.7 2.3zm-6.5-10.7l-1.5 2c1.3.5 3 1.7 4 1.3.9-.6 1.1-2.5 1.7-3.9-1.2 0-2.4 0-4.2.6zM58.2 840.4c1 .4 1.4.9 1.9 1.1l2.6 1c-1 .4-2 1.1-3 1.4-.9.2-2.4-.4-2.8.1-.7.9-.9 2.3-1 3.5 0 .3 1.3 1 2 1 .6 0 1.2-1 1.9-1 1.4.1 2.9.5 4.3.7l-4 1.7c-2.5.9-5.4 1-6.5 4-.2.5-.1 1.3.2 1.6.3.3 1.2.4 1.5.2 1.6-1 3-2.2 4.6-3.3.3-.2 1.2 0 1.5.2.3.3.4 1.1.2 1.5-1.4 2.8-7.5 6.4-8.8 5-2.8-2.5-2.4-5.6-.6-8.8.7-1.2 1.4-3 1.1-4.2-1-3.9 2-4.5 5-5.7zM132.3 91c-2.1 2.9-4.9 2.6-7.1 1.6-1.6-.7-3.6-2.3-2.7-4.6 1-2.4 2.7-4.5 4-6.7l4.1 2.7c-.3.2-.8.8-1 .7-3.8-.8-3.8 1.5-3.6 4 .2 1.7 2 2.9 3 1.8 1.7-1.6 2.8-3.6 4.2-5.4.9-1.2 1.5-2.8 2.7-3.5.8-.5 3.3 0 3.4.5.5 2.4.9 4.9.4 7.1-.2.8-3 1.4-4.5 1.3-.9 0-1.8-1.4-3 .5zm3.9-2.7c2.3-1.9 2.9-2.7 2.2-3.6-.3-.5-.8-.7-1.2-1-.5 1.3-1 2.7-1 4.6zM228 837.1c-2.8-2.1-2.1-4.6-1.7-7.1.2-1.8 1.4-4.2.7-5.4-1.5-2.6.2-3 1.7-3.2 3.4-.6 6.3.8 8.5 3.4.2.3.1.9.1 1.3 0 2.8.9 6-.3 8.3-1.5 3-4.8 4.7-9 2.7zm1.6-6.8c-1.8 1.5-1.4 3.3-.8 5.1 1-.3 2-.5 3-1 1.6-1 4.6-2.7 4.5-3-1.2-2.8-4-1.5-6.7-1.1zm0-6c-.2 1.8-.2 3.6 2.5 3l3.4-1c-1-.9-2-1.9-3-2.5-.6-.4-1.6 0-3 .5zM250.1 872.8c1-3 1.5-5.7 2.5-8.3.3-.7 1.8-.9 2.8-1.3l-.5 2.4-2.7 9c-.2.7.1 1.6.2 2.3l1.7-1c1.8-1.3 2.7-4 5.8-3.5.4 0 1.3-1.7 1.7-2.7.3-.6-.2-1.7.2-2.3.6-1.2 2.2-3.2 2.4-3 1.8.8.7 2.1.4 3.6-1 3.4-.8 7-3 10.1-.4.6-1.1 1-1.7 1.5-.2-.7-.6-1.5-.5-2.1.1-.9.8-1.7 1-2.5.2-.3-.1-.7-.2-1l-.9.3c-1.6 1.4-3 3-4.8 4.1-3 1.9-4.4 1.1-4.7-2.3 0-1 0-2 .3-3.3zM117.7 102.6c-1.5.8-3 .9-4.5 1.2-.5.1-1 .8-1.4 1.2.5.4 1 1 1.6 1.1.7.2 1.5 0 2.3.1.2 0 .4.8.3 1-.6 1.1-6.7 3-8.2 2.8l-1-.3c-2.3-.1.5 3.4-2.2 3 .6-2.3-.8-3-2.5-3.7-.7-.3-1.4-.8-2-1.2.7-.6 1.4-1.2 2.2-1.6.3-.2.8 0 1.2 0l2.2-.5c-.5-.6-.9-1.5-1.4-1.6-2.5-.7-3-1 0-1.8 1.3-.5 2.5-1.9 3.7-2.9 0 3.4 1.8.6 2.8.8a31 31 0 017 2.4zm-9.5 1.8l-.4-.4h-.4l.3 2.2c.4-.4.7-.8.5-1.8zM163 903.4c-.3-1.5 0-9.3.5-10.6 0-.2.3-.3.4-.4.8-2.2-1-5.2 2-6.7l.6 6.9c0 .4.2.7.3 1 .4-.2 1-.3 1.3-.7.9-1.2 1.5-2.5 2.5-3.6.6-.7 1.6-1 2.4-1.3.2 1 .8 2.5.3 3.1-1.1 1.6-2.8 2.8-4 4.3-.7.8-1 1.9-1.4 2.9l2.8.4 6.5.9c-1.6 3.4-4.4 1-6.6 1.4-2.7.4-6-.8-6.8 3.4 0 0-.3.1-.4 0-.2 0-.3-.2-.5-1zM150.7 805c-1.9-.5-2.8.4-1.8 1.6 2.7 3.3-.4 6.2-.3 9.3 0 .2-1 .7-1.4.6-.3 0-1-.7-.9-1.1.3-3.8.5-7.6 1.3-11.3.4-2 2.7-2.2 4.5-1.7.6.2 1 1.6 1.3 2.5v1.2l1.1 4.5c1-1.2 2.2-2.4 3.1-3.6 1.2-1.5 2.2-3.1 3.2-4.7 2.3 2.1.3 4-.2 6-.3 1.8 0 3.6-.1 5.4 0 .6-.6 1.1-1 1.7-.4-.5-1.3-1-1.3-1.4 0-3.4-1.4-3-3-1-1.5 2-2.6.3-2.8-.6-.7-2.3-1-4.7-1.7-7.4zM240 816.9c-1.3-.3-2.3-.4-3.3-.3-2.4 0-3.5-1-3.6-3.4-.3-5.2 2.6-10.5 7-12.5.7-.3 1.5-.8 2-.6.7.2 1.2 1 1.7 1.6l-1.5.6a9.9 9.9 0 00-6.8 8.8c0 2.3 1.3 3 3.4 1.9 1-.6 2-1.2 2.7-2 1.5-1.4 2-2.6-.9-2.8-.4 0-1.3-.7-1.2-.9.3-1.1 4.5-2.3 5.8-1.3.6.5.5 2.2.4 3.3-.1.9-.9 1.6-1.2 2.5l-1.9 5.8-.6 1.3-2-2zM249.8 922.5v4.7c-.1.8-.6 1.5-.8 2.2-.5-.6-1.6-1.2-1.5-1.7.3-3.6-.9-7.3 1-10.9 1-2 1.5-2 2.7-.6 1.5 1.7 2.8 3.6 4.2 5.3.3.4.8.5 1.3.7l.2-1.1 1.9-5.8c.2-.4.8-.7 1.2-1 .2.5.5 1 .5 1.5-.4 4-.7 8-1.3 12 0 .7-1.3 1.2-2 1.8l-1.4-1.9c-1.6-2.3-3-4.8-4.8-6.9-1.5-1.5-1 .5-1.2 1.7zM265.3 160.9c.1 2.2-.8 3-2 2s-2-2.6-2.8-4c-.9-1.9-1.5-3.8-2.3-5.7l-.8-1.7c-.2.6-.4 1-.4 1.6l-.1 9.5c0 .6-1 1.2-1.4 1.9-.3-.6-.9-1.2-.9-1.8 0-3.6-.2-7.2 0-10.7.1-1 1.3-2.6 2.2-2.8 1-.3 2.7.5 3.4 1.4.9 1 1 2.7 1.5 4.1l.7 1.4.5-1.6c.1-2.1.1-4.3.4-6.4 0-.5 1-.9 1.6-1.3l.4 1.6V161zM214.1 844c1.6 4.6-1 8.4-2.5 12.4-.2.4-1.9.8-2.5.5a4.6 4.6 0 01-2-2.4c-.6-1.6-.7-3.3-1-5l-.9-2c-.6.8-1.7 1.5-1.7 2.2 0 2.5-.5 4.8-2.4 6.7-.4.4-.6 1-.9 1.6-.5-.7-1.6-1.6-1.5-2.2.6-2.1 1.9-4 2.2-6.2.3-1.8.4-3.3 2-4.5 2.4-2 4.5-1.4 5.3 1.8l1.1 4.8.5 2.8c.6-1 1.8-2 1.8-3 0-2.8.3-5.3 2.5-7.6zM308.4 819.3c2 4.3 0 8.5-1.6 12.6-.4 1-1.7 1.7-2.6 2.5l-2-3.1v-.6l-.6-5.7-2 5.5c-.7 1.4-1.6 2.6-2.4 4-1.9-1.6-1.2-3.3-.2-5 1.2-2.3 2-4.7 3.4-6.9.5-.7 2-1.2 3-1.1.4 0 .9 1.6 1.1 2.6l.7 4.3 1.7-4.6c.5-1.4.8-2.8 1.5-4.5zM198.6 816.6c-1.7 1.9-2.4 1.4-2.3-.7 0-1.6-.7-2.3-2.1-1.4-2.6 1.7-4.6 1-6.6-1.1-2.3-2.5-.5-4.8.4-6.8 1-2.2 2.8-4 4.5-5.8.5-.5 2.2-.4 2.8 0 2.2 1.9-.6 1.1-1 1.7-1.7 2.4-3.5 4.8-5 7.4-.8 1.5 1.1 3.4 2.9 3 1.2-.3 2.5-.7 3.6-1.3.6-.3 1-1 1.6-1.6l-2.2-.6-2.4-.7c.8-.5 1.4-1.4 2.3-1.6 4.2-1 5.9 1 4.7 5.2l-1.2 4.3zM117.7 791.6c.4-2.2.7-3.9 1.2-5.4.3-.7 1-1.2 1.6-1.8.2.7.6 1.3.7 2 .2.7.3 1.8 0 2.2-1.2 1.4-1.9 2.9-.5 4 .6.4 2.4-.6 3.6-1 2.3-.7 4-1.9 4.2-4.7 0-.9.4-1.8.7-2.6.1-.4.5-.6.8-.9.3.4.8.8.8 1.1l-1.2 7.2v1.8l1.8-.7c.8-.4 1.6-1 2.4-1.2 1 0 1.9.3 2.8.4-.6.7-1.1 1.5-1.9 2-1.5 1-3.3 1.5-4.7 2.7-1.1 1-1.8.5-2-.3-1.4-4.4-4-1.7-6.2-1.2-3.4.8-3.3.9-4-3.6zM69 810.6c1 .6 1.6 1.1 2.2 1.7-.4.2-.9.7-1.3.7l-7.3-1c-2.3-.3-4.6-.9-5.6 2.3-.2.4-1 .7-1.6 1-.2-.4-.8-1-.7-1.2 2-4.2.8-9.9 6.6-12 4-1.6 5.4-1 5.2 3.3 0 1-.1 2-.5 2.8-2 3.5 1 2.2 3 2.4zm-7.8-1.2l2.9-4c.1-.3-.8-1.3-1.2-2-1.2 1-2.5 2-3.4 3.1-.2.3.7 1.5 1.7 3zM113.8 855.5c-3.3-.5-3.2-3-3.3-5.4 0-1.8-1-1.8-2.2-.9-1 .8-1.7 1.7-2.5 2.6l-1.6 1.7c-.2-1-1-2.4-.6-3 1.8-3.3 3.8-6.4 5.8-9.5.5-.8 1.3-1.5 2-2 .4-.3 1.3-.5 1.6-.2.4.3.5 1 .5 1.6 0 .7-.8 1.7-.5 2 3 4.1.7 8.6.8 13.1zm-2.6-12.7c-.6.5-1.3 1-1.6 1.6-.2.5.2 1.2.3 1.9.6-.4 1.4-.8 1.8-1.3.3-.4 0-1-.5-2.2zM204.3 164.2c-3.6.6-7 .5-8-3.2-.7-3.3-.3-7 2.8-9.4 1.7-1.2 4.2-2.8 5.9-2.4 2.4.6 3.3 3.2 3.3 6.1 0 3.5-1.1 6.3-4 8.9zm-5.7-5c1 .9 1.8 2.5 2.9 2.8 2.1.5 2.8-1.3 3.3-3 .2-1.1 1-2.2.9-3.2 0-1.1-.5-2.9-1.3-3.1-1.6-.5-3.5-.3-4.5 1.6-.6 1.1-.9 2.4-1.3 4.8zM160.3 865.7c0 2 .4 4 2 4.1 1.2 0 2.7-1.5 4-2.5.8-.5 1.4-1.2 2-1.9.1 1 .5 2.2.2 3.2-.6 2.5-1.7 4.8-2.4 7.3-.4 1.4-.4 3-.8 4.4-.3.7-1 1.1-1.6 1.7-.4-.8-1.3-1.6-1.3-2.3 0-1.5.5-3 .7-4.4l.3-2.8c-1.2.9-3.8-1.7-4 1.6-.2 1-1 2-1.2 3.1-.3 1 .5 2.7-1.5 2.3-.4 0-1-1.5-.9-2.2.4-4.3 1.5-8.4 4.5-11.6zM273.9 833.5c-1.8.8-3.7 2.2-4.7 1.6-2-1.1-1.7-3.5-1.8-5.9-.2-3.2 1.9-4.9 2.7-7.3.7-1.9 2.8-2 4.5-1.7.9.2 1.6 1 2.4 1.5-.8.3-1.6.4-2.2.9-.5.3-.8 1-1.2 1.5l1.9.7s.2-.4.4-.4l5.6-.5c0 .2.1.6 0 .8-1.3 2-3.4 1.3-5.3 1.4-4.4 0-6 1.2-6.1 4.4 0 .5.2 1.2.5 1.4.4.2 1.2 0 1.6-.3 1.2-1 2.2-2.2 3.5-3 .5-.4 1.4 0 2.2 0-.2.6-.4 1.2-.8 1.7l-3.2 3.2zM71 793.7c-3 2.7-2.6 2.4-4.6-.3-1.5-2-.7-4-1-6l-.5-1.7c-.5.4-1 .7-1.3 1.1l-3 8.2c-.3.6-1 1-1.4 1.3-.3-.3-1-.7-1-1.1-.1-4.3 2.3-7.8 3.9-11.4.3-.7 2.6-.8 3.8-.4.8.2 1.6 1.6 1.8 2.7.3 1.5-.1 3.1 0 4.7.2.7 1 1.3 1.4 2 .3-.8 1-1.5 1-2.3v-7c.1-.6 1-1 1.4-1.4.3.3 1 .7 1 1 0 3.5.5 7-1.5 10.6zM133.2 930.8c1.2-4 2.3-7.5 3.6-11a7 7 0 012.3-2.6c2-1.5 4.4-.6 4.7 1.8.6 4.4 1 8.7 1.2 13.1.1.7-.3 1.5-.4 2.2-.4-.8-1-1.5-1.3-2.3-1.4-3.2-2.4-4.1-4.8-3.5-1.1.3-2.4 1.3-2.8 2.3-.7 1.7-1.4 1.5-2.5 0zm4.7-5.3c3.2.6 4.4-1.2 4.8-4 0-.8-.4-1.7-.6-2.6-.7.7-1.5 1.3-2 2-.8 1.1-1.5 2.3-2.2 4.6zM106.1 72c2.8-2.3 1.9-3.3-.6-4-.7-.1-1.3-.4-2-.6l2.1-.5c1-.4 2.3-.6 3-1.2 1.2-1 2-2 3.5-.4.2.3 1.4.4 1.5.3 2-4.3 3.8 1.4 5.7 0 .3.5.8 1 .7 1.4 0 .4-.6 1-1 1-.8.2-1.7-.1-2.4.1-.8.3-1.5 1-2.3 1.6l2.4.7 2.1.6-1.8.8c-1.3.8-3 1.4-3.7 2.6-.9 1.4-1 3.5-1.8 0 0-.1-1.5-.2-2 .1-1.9 1.4-1.9 1.5-2.8-.2-.4-.7-.6-1.4-.6-2.4zm4.5-3.3l-1.2 2.4 3.6-1.5c-.6-.5-1.2-1-2.4-1zM179.9 880c-3.7 2.6-6.8 1.7-7.5-1.8-.8-4.9 4.4-10.7 9.3-10.5 3.2.2 4 1 3.8 4.3 0 3.6-1.6 6.4-5.6 8zm-1-2.7c1.3-1.3 2.7-2.4 3.8-3.8.5-.6 2.7-1.1.8-2.4-1-.6-3-1-3.5-.6a31 31 0 00-5 6.1c-.2.5.9 1.8 1.3 2.8l2.7-2.1zM236.4 916.2c5.1-1 6-.4 6.2 4 .2 2.7 0 5.2 0 7.8 0 .5-.3 1-.5 1.6-.2-.5-.3-1-.6-1.4-1.4-1.6-1.3-5.3-4.4-4.3-1.8.5-3 2.9-4.5 4.5l-.7.9-1.7 1.5c-.2-.9-.8-2-.6-2.7.8-2.3 1.6-4.5 2.8-6.6 1-1.8 2.5-3.3 4-5.3zm1.5 5.7c.3-.3.6-.5.8-.9l1.5-2.8c-.3-.1-.8-.5-1-.4-.8.6-2 1.2-2.4 2-.3.7.3 1.8 1.1 2zM30.8 896.3c-.8 2-.9 4.2-1.2 6.3 0 .3-.8.8-1.2.8-.4 0-1-.6-1-1-.2-1.1-.2-2.3-.1-3.5.3-3.2.7-6.4 1.2-9.5.2-.9 1-1.6 1.5-2.4.3.7.7 1.4.8 2.1v3c-.3 2.4 1.4 1.7 2.7 1.8 1.3.1 2.3 0 2.1-1.8-.1-1.5-.2-3.1 0-4.7.2-.6 1.1-1.1 1.6-1.7.3.6.8 1.3.7 1.8-.4 3.2 1.2 6.5-1 9.6-.7 1 0 2.7-.1 4.1l-.5 3.3c-.6-1.2-1.4-2.4-1.8-3.7-.3-1-.1-2 0-3 0-2.5-2-1.1-3.7-1.5zM121 823.4c-1 4.2-1.6 8-4 11.2l-1.3.8-.4-1c-.4-2.7-.7-5.3-1.2-7.9 0-.5-.3-1-.5-1.5l-.8 1.8c-.8 1.9-1.4 3.8-2.3 5.6-.1.4-1.1.9-1.2.8-.5-.5-1.2-1.2-1-1.6.8-3 1.6-6 2.8-8.9.3-.7 1.9-1.1 3-1.3.3 0 1 1.2 1.2 2 .7 1.6 1.2 3.3 1.8 5l1.8-5.7c.1-.6-.2-1.4 0-1.8.5-.7 1.3-1.2 2-1.8l.4 2.2c0 .6 0 1.2-.3 2.1zM61.5 919.8c.6-2 .9-3.9 1.2-5.6 3 1.1.9 3.6 1.4 5.4 1 3-2.3 4.1-3.1 6.4-.3.8-3.6 1.2-5 .6-3-1.3-4.2-4-3.2-6.4 1.4-3.4 1.4-7.5 5-9.8.7-.4 1.6-.5 2.4-.8-.1.9 0 2-.6 2.4a19 19 0 00-4 7.3c-.8 2.1.6 2.8.7 4.2 1.3-.4 2.8-.8 4-1.4.5-.3.6-1.3 1.2-2.3zM295.3 157.6c1.5-1.9 1-3.2-.9-2.5-1.3.5-2 1.7-3.3.1-.7-.9-1.8-1.7-2-2.7-.3-2 2.3-4.5 4.7-4.7 2-.2 4-.6 6.1-.7.4 0 1.2 1.7 1 2.2-1.8 3.4-2.6 7-2.3 10.8 0 .7-.4 1.4-.7 2l-1.2 2.2c-.6-.7-1.4-1.4-1.6-2.3a12 12 0 01.2-4.4zm-3.9-4.4c2 1.7 2.6-.5 3.6-1.3.4-.3.5-1 .8-1.6-.6 0-1.2-.3-1.6 0-1 .4-1.9 1-2.8 2.9zM225.1 853.8c-2.2.9-4.1 1.8-6 2-3.9.3-4.7-.8-3.7-4.2.6-2.3 1.5-4.5 2.3-6.7 1.2-3.7 5-4.7 7.8-2 3.8 3.5 3.7 5.4-.4 10.9zm-.9-8.7c-2.3-2.5-3.8-1.3-4.7 1.3-.5 1.3-.6 2.9-.9 4.3-.1.8-.4 1.6-.7 2.4 1 0 2.2.2 3.2-.1 3.8-1.5 4.8-3.5 3.1-7.9zM274.5 154.6l.7-.7 5.5.5c-1.7.6-3.4 1.3-5.2 1.7-2.2.4-3.3.7-2 3.4 1.4 2.9 2 .9 3.2 0 .7-.4 1.6-.5 2.5-.8-.3 1-.3 2.3-1 2.8-1.6 1.2-3.8 3.1-5.1 2.7-2-.6-3.8-2.7-3.1-5.6.3-1.7 0-3.6 0-5.3 0-5.9 0-5.9 6.2-4.3.4.1.9.8.9 1.2 0 .4-.5 1-.9 1.1-.8.4-1.9.3-2.6.8-2.3 1.3.1 2 .9 2.5zM115.6 20.2c.5 0 .8-.3.9-.7l.7-5c2.3 1.5 1.6 3.7 1.7 5.8l.7 6.2c0 .8-.2 1.5-.3 2.3-1-.4-2.3-.5-2.7-1.2-1-1.9-1.6-4-2.5-6-.2-.5-1-.8-1.6-1.1l.2 1.5c.1 2.3.3 4.7.1 7 0 .4-1.4.9-2.2.9-.4 0-1.2-1.2-1.2-1.3 2.3-3.2.7-6.8 1.2-10.2 0-.6-.2-1.3 0-1.7.5-.8 1.2-1.4 1.8-2.1.6.5 1.3 1 1.7 1.7.5 1.1.8 2.4 1.5 3.9zM98.4 825.8c.7-1.5.8-3 1.6-3.9.8-.9 2.2-1.2 3.4-1.8.4 1 1 1.8 1.2 2.7.9 2.8 1.7 5.7 2.3 8.5.2.6-.4 1.3-.7 2-.5-.5-1.1-.8-1.6-1.2l-.8-1.5c-1.5-2.6-2.4-2.7-4 0l-3 5.1c-.3.4-.9.6-1.3.9L95 835c-.7-3.6 1.8-6 3.3-9.2zm2.7-.3l1.8.5.3-.8c-.6 0-1-.2-2.1.3zM328 144.5c3.8 3.7 6.8 7 7.6 12.2.6 4.1-2.4 10.5-6.4 11.3-.6.1-1.4-.3-2-.7-.1 0 .1-1 .4-1.5.5-.6 1.2-1 1.6-1.7 1.5-1.9 4.2-2.8 4-6-.3-3.5-2-6-3.9-8.6-1.3-1.9-3.3-3.3-4.9-5.1-.4-.5-.5-1.3-.8-2l2.3.7 2.1 1.4zM69.2 875.2c2.1-.3 3.9-.4 5.7-.3.7 0 1.4.5 2.1.8-.6.5-1 1.4-1.7 1.5l-11.4 1.2c-.7 0-1.4-.4-2.1-.6.3-.6.4-1.5.9-2 2.1-2.3 4.5-4.4 6.6-6.7.5-.5.5-1.4.7-2-.5.2-1 .5-1.7.6h-3c-.3 0-1-.5-1-.9-.1-.4.2-1.1.5-1.4 2-1.6 6-1.6 7.2.2 1.4 2.3.5 4.4-1.6 6-1.2 1-2.3 2.2-3.3 3.4-.2.2.2.7.3 1 .5-.1 1-.3 1.8-.8zM246.5 845.4c1.5-1 3-2.6 4-2.4 2 .5 1.6 2.7 1.7 4.4.3 4.4-.5 8.2-4.6 10.9-1.9 1.2-3.3.2-4.7-.5-1.5-.8-1.8-1.9-.5-3.7 1.7-2.5 2.6-5.6 4.1-8.7zm-.9 6.9l-.6 2.7c.8.1 2 .6 2.2.4 1-1.5 2-3.1 2.5-4.8.3-1.3-.4-2.8-.6-4.2l-2 3.3c-.4.6-.6 1.3-1.5 2.6zM71 833c-3-.2-6.3.2-8.5-1.1-3-1.8-3.6-.5-4.3 1.8-.2.7-1 1.3-1.4 2-.3-.9-1-1.7-.9-2.4.7-4 .6-8.5 5.1-10.8 2.9-1.4 4.3-.8 4.3 2.1 0 1.7-1 4-.2 5 1 1.1 3.3 1.2 5 1.8.4.2.8.8.9 1.5zm-8-8.7c-.5.2-1.2.3-1.5.6-.4.5-.6 1.2-.9 1.8.7.1 1.7.5 2 .2 1-.8 2.6-1.6.4-2.6zM48.7 803.5c-1.2.5-1.8 1-2.2 1.7-.1.2.6 1.3 1 1.2 1.6 0 3.3-.4 5-.5.3 0 .9.7.9 1.1 0 .4-.5 1.1-.9 1.2H49c-1 .2-2.2.5-3 1.1-1.6 1-3 2.8-1.8 4.3 1.3 1.7 3 .4 4.3-1l1.3-1.3.8-.6c.2.6.5 1.1.4 1.6 0 1.2-5.3 5.5-6.4 5.4-1.3-.1-3.4-3.7-3-5.7.6-2.7 1.2-5.4 2.4-7.8 1.7-3.3 5.6-4 8.8-1.9l.5.8-1 .4h-3.6zM165.6 48.1c-.6 1-1 1.5-1.2 2.1-.5-.4-1.4-.9-1.4-1.2.4-3.2 1-6.3 1.6-9.4.3-1.4.4-3 .9-4.3.2-.7 1-1.6 1.6-1.6.5 0 1.5 1 1.6 1.5.1 3.6 1.9 5.7 5.2 6.7.2 0 .5 0 .5.2v.8c-4 .8-.6 4.4-2.4 6-.1 0-.7-.3-.8-.6-.4-.8-.7-1.7-1.2-2.4-.4-.7-1-1.4-1.7-1.6-1.6-.4-1.9.6-1.8 2 0 .5-.4 1-.9 1.8zM179.6 15.7l.4 2.2c.6-.3 1.3-1 1.8-1 1.2.5 2.4 1.3 3.6 2l.4-4c0-.2.8-.5 1-.3.4.2 1.1.7 1 1-.2 3-.6 6-1.2 9 0 .1-1.9.3-2.2 0-.6-.8-.7-2-1.3-3-.3-.5-1-.8-1.6-1.1l-.7 1.4V23l-1.8 5.8c-2.4-1.4-1.8-3.7-1.8-5.8v-7.7c0-.6.5-1.2.7-1.9.6.6 1.1 1.2 1.7 2.3zM10.3 842.5c1.4-1.1 2.1-3.4 4-1.4.4.5 1.7.7 0 1.8-3 1.8-3.2 3.8-1.8 7 .8 1.8 1.8 3.3 2.5 5 .6 1.9-.3 4.1-2 4.3-3 .5-6.4.8-9.3-1.3-2.3-1.8-1.8-3.5.8-5 2-1 1.5.8 1.3 1-1 1-1.3 2.1.1 2.5 1.8.5 3.7.3 5.6.4 0-1.1.2-2.4-.3-3.2a12 12 0 01-.9-11.1zM268.8 867.7c.9-4.7 1.3-5.1 5.2-4.7 3.7.4 4.4 1.2 4.4 5-.1 5-4 9.2-8.6 9.3-1.2 0-2.5 0-2.2-1.8l1.2-7.8zm6.6-1.1c-3.9-1.8-3.8-1.8-4.2 1.5-.2 1.4-1 2.8-1.1 4.2-.1.8.4 1.7.6 2.6.7-.3 1.5-.5 2-1 2-1.7 3.4-3.9 2.7-7.3zM196 791.9c-2-1.6-3.8-2.7-5.2-4.2-.6-.5-.6-1.8-.4-2.7.9-3.6 7.5-6.1 10.7-4 .5.2.8 1 1.1 1.6-.6.1-1.7.7-1.9.4-2.3-2.5-3.9.3-5.3 1.1-2 1.2-2.2 2.7.6 4 1.5.8 2.2 3 3.4 4.4 2 2.4 0 3.4-1.5 3.7-1.3.3-2.9-.5-4.2-1-1-.5-1.8-1.4-2.7-2.1 1 0 2.3-.2 3.2.3 1.7 1 2.5 1 2.2-1.5zM31.7 845.4c1.2 4-.7 7-2.3 9.9-.8 1.7-2.5 3.7-5.1 2.9-1.6-.6-3.2-5-2.6-7l.8-3.1c1.7-4.5 4-5.2 9.2-2.7zm-6.8 8.7l.8 1.5 2.8-4.8c.8-1.4 2.4-3 .3-4.3-.5-.3-2.8 1.6-3.8 2.9-.6.7-.1 2.3-.1 4.7zM233.1 13.3c1.1 4.4 3.1 8 2.4 12l-.5 2.2-1.8-2c-.2-.3.1-1 0-1.2l-2.6-2.6-2.2 3c-.4.6-.4 1.4-.9 2-.5.4-1.3.6-2 1-.2-.7-.8-1.5-.6-2 1-3.7 2.3-7.4 3.5-11 .8-2.5 2.3-3.4 4.7-1.4zM232 20V17c0-.3-.9-.8-1-.7-2 1-1.8 2.5 1 3.6zM82.9 815c-.8.2-1.7.2-1.8 0-.3-.7 0-1.6-.3-2.3l-3.1-7.9-2.8 7.2-1 2.5c-.1.4-.5.6-.8.9-.2-.3-.6-.6-.6-1-.2-4.2 1-8.1 3.6-11.4.8-1 3.2-2.2 3.6 1.1.1.8.6 1.9 1.3 2.4.4.3 1.8.1 2.1-.3.6-.9.6-2.1 1.1-3 .5-.9 1.3-1.4 2-2 .1 1 .7 2.3.2 3-1.7 3.4-3.8 6.6-3.5 10.9zM279.8 787.1c-.5 2.3-.2 4 2.4 3.3.9-.3 1.6-1 2.5-1.1.6-.1 1.3.4 2 .6-.4.6-.6 1.5-1 1.6-1.8.6-3.6 1.2-5.5 1.2-4.2 0-4.5-.7-3.2-5.1.5-1.8.4-3.8.7-5.6.1-.8.5-1.8 1.1-2 .8-.4 1.9-.4 2.9-.3l5 .6c-1.1 1.7-2.8 1.8-4.6 1.8-.5 0-1 .9-1.4 1.3.6.4 1.1.9 1.7 1 1.4.4 2.8.5 4.1.8-1 1.9-2.8 1.6-4.6 1.6-.6 0-1.2 0-2 .3zM135.3 43.4c.8.8 1.5 1.3 1.9 2 .2.4 0 1.1-.3 1.6-.1.3-.9.5-1.2.3-.5-.2-.8-.8-1.3-1.2-3.8-2.5-3.8-2.5-6 1.3L128 49c-.6-.5-1.3-1-1.7-1.6-.2-.5-.2-1.2-.1-1.7l1.1-7.8c.4-2.4 2.7-4.6 4.6-4.3 2.7.4 2.6 2.4 2.6 4.4 0 1.7.4 3.4.9 5.4zM132 40c.4-.4 1.2-.9 1.1-1.3-.1-1-.6-1.9-1-2.9l-1.4 2c-1.3 1.3-2.3 2.5 1.3 2.2zM102.2 795.2c1.6-3 3.4-5.1 4.5-7.6.9-2 1.8-3.9 4-3 1.4.6 2.7 2.5 3.3 4 .9 2.3 1 4.8 1.3 7.2 0 .6-.6 1.2-1 1.7-.4-.4-1.3-.8-1.3-1.3 0-2-.9-3.2-3-3.4-2-.2-3.6.2-4.3 2.7-.7 2.4-2.1 2-3.5-.3zm9.6-5.4l-1.4-1.8-1 1c.6.5 1.2 1 2.4.8zM257 855.8c-.4 1.2-.6 2-1 2.4-.2 0-1.4-.4-1.4-.7-.2-3.8-.2-7.7 1.7-11 1-1.7 2.5-3 4.9-2.6 1.5.2 3.2 0 4.7 0 1 .2 1.8.6 2.7 1-1 .4-2 1.2-3 1.4-1.7.2-3.6-.2-5.3.1-.8.2-1.5 1.6-2.2 2.4 1 .3 2.5 1.2 2.7 1 1.6-2 3-.7 4.5 0 .6.4 1.4.6 2.1 1-.8.4-1.5 1.3-2.3 1.4-1.6.2-3.2.1-4.8 0-2 0-3.2 1-3.4 3.6zM130.5 890c1.2-1.2 2.9-3.2 3-3 2 1.4.3 2.7-.2 4.3-.8 2-.9 4.4-1.3 6.6l-.7 1.9c-.6-.6-1.3-1-1.6-1.7-.3-.7.2-1.8-.2-2.3-.5-1-1.5-1.7-2.3-2.5l-1.7 1.8c-.1.1-.4.2-.4.4-.6 1.8.6 4.4-2.1 5.5-.2-2.1-.6-4.3-.5-6.3.2-2.3.6-4.5 1.3-6.7.2-.6 1.8-1.3 2.5-1.1 2.1.7-.3 1.1-.3 1.8 0 2-.1 3.6 2.5 1.7.3-.3 1.1 0 2-.3zM264 788c0 1.4.3 2.3 0 3-.3.6-1 1.1-1.6 1.7-.2-.7-.6-1.3-.7-2 0-1.5.2-3.1 0-4.7-.2-.6-1.1-1.4-1.7-1.4-.6 0-1.6.7-1.8 1.4-1 2.9-1.8 6-2.9 8.9-.1.5-1 .8-1.6 1.2-.1-.6-.4-1.1-.3-1.6.5-2.2.9-4.4 1.8-6.4 1.2-2.8.7-4-2.5-3.7-.5 0-1.1-.6-1.7-1 .6-.4 1.3-1.2 2-1.3h8.8c1.2 0 2.3.3 3.4.5-.4.8-.9 1.6-1 2.4-.3.8-.1 1.6-.1 3zM28.5 804.7c-1.2 3.4-2.4 6.3-3.6 9.1l-.6 1.6c-.5-.6-1.4-1-1.6-1.7-.6-2-1-4-1.4-6l-.7-1.7-.8 2c-.6 1.4-1 2.8-1.7 4-.5.9-1.3 1.5-2 2.2-.2-.8-.9-1.8-.7-2.5.9-2.8 1.8-5.6 3-8.2.4-.7 2-1 3-1 .3-.1.8 1.3 1.1 2l1.2 3 1.4 2c.3-.8.8-1.6 1-2.4V803c0-.3 1.3-.8 1.4-.7.4.5.7 1.2 1 2.4zM296.2 40.7c1 1.6 1.8 2.7 2.9 3.5.3.2 1.2-.5 1.9-.7-.4-.6-.7-1.4-1.2-1.5-2.1-.5-.6-1.2-.2-1.8 1.4-1.7 2.4-.1 3.4.5.6.5 1.5 1.2 1.5 1.8-.1 2.6-1.8 4.6-4.1 5.2-2.5.6-4.4-.6-5.7-3-1.6-3.1-1.3-6 .3-8.7 1.6-2.7 3.6-3 5.7-.8.5.4.8 1 1.2 1.6-.6.1-1.1.3-1.7.3-2.2 0-3.8.4-4 3.6zM194.8 44.6c-.4 1-1.3 1.6-1.8 2.4-1.3 2.3-3.8 2.7-5.5 1.8-1.2-.6-1.8-3.2-1.9-4.9-.3-6.4 3.4-9.3 9.6-8 .4.2 1 .8 1 1.1 0 .4-.5 1.2-.8 1.3H192c-.6.2-1 .8-1.6 1.1.5.5.9 1 1.5 1.3.6.3 1.4.4 2 .6-.5.5-1 1.3-1.6 1.6-.8.4-2.2 0-2.7.5-.5.6-.2 1.8-.3 2.7l1.7-.6c1.2-.4 2.4-.8 3.9-1zM146.3 33.6c.7.6.8 1.3 1 2-.8.1-1.6 0-2.3.4-1 .6-3.1 1.6-3 2 .7 2.8 2.3 0 3.5.3l4.3.7-4 1.7c-1 .3-2.3.3-3.2.9-.6.3-.6 1.5-.9 2.3l2-.1c.6-.1 1-.7 1.5-.7.7 0 1.5.3 2.2.5l-1.1 1.2c-.7.7-1.3 1.5-2.1 2.1-2.2 1.8-4.8 1-5-1.7-.3-3-.1-6 0-8.9 0-.5.6-1.3 1-1.5 1.8-.5 3.7-.8 6-1.2zM289.4 887.7c-.2-1.3-.4-2.7.1-3 1.5-.9 1.7.2 2.1 1.5.5 1.8 1.5 3.4 2.5 5 .5.6 1.5 1 2.2 1.5.4-.7.6-1.6 1.1-2.2 1.2-1.7 1-4.7 4-4.9l1.7.3-.7 1.3-6.3 13.4c-.4.6-1.1 1-1.7 1.6-.2-.7-.8-1.7-.5-2 2.3-3.2.6-5.2-1.6-7.4-1.3-1.2-1.8-3.2-3-5.1zM69 44.3c.2-6.8 4-9 8.8-6 2.4 1.6 2.8 7.6.4 9.1-2 1.3-4.3 2.1-6.6 2.7-.7.2-2.2-.9-2.6-1.8-.4-1 0-2.3 0-4zm6.5-3.6c-1-1.2-2.3-2-3.2-.2-.7 1.4-1 3.3-.9 4.9.2 2 1 2.7 3.3 1 2.4-1.6 3.4-3 .8-5.7zM81.1 793.7c-3.6-2.5-2.2 2-3.8 2.3-.4 0-.7.8-1 1.2-.5-.6-1.1-1.1-1.4-1.8-.1-.4.5-1 .6-1.5l1.8-8.7c.2-.7.9-1.3 1.4-2 .3.6.8 1.2.9 1.8 0 1.5.2 2.5 1.7.8.4-.4.7-1 1.2-1.2 1-.5 2-.7 2.9-1-.4 1-.7 2-1.3 2.9-.6.8-1.5 1.3-2 2.1-.6.7-.8 1.6-1.2 2.4l2.1.6 4.8 1.2c.5.2 1 .9 1.4 1.4-.6.3-1.2 1-1.8.9-2-.3-4-.7-6.3-1.4zM201.3 50c-2.7-4-1-8-1.4-11.7 0-.3.6-1.1.8-1.1 2.4.3 5.2-1.2 7.1 1.4 1.8 2.3 1.7 6 .7 8.4-1.4 3.5-4 3.4-7.2 3zm.9-6.3v1.7l.8 2.4c.7-.3 1.4-.5 2-1 .6-.4 1.5-1 1.5-1.6 0-1.5-.2-3.1-.8-4.5-.3-.7-1.7-.8-2.6-1.2-.3 1-.6 2-.9 4.2zM104.3 46.4l2.4-2.4c1.5-1 1.5-2 0-3l-.8-.8c1.4-.3 2.9-.6 4.3-.6.6 0 1.5 1.2 1.5 1.7-.2 2-.5 4.1-1.3 6-.4.9-1.4 2.7-3.2 1.3-.3-.2-.6-.7-.9-.7-2.2-.3-5.6 1-6.1-1.8-.5-2.5 1.2-5.3 2-7.9.4-.8 1.2-1.6 1.8-2.2.5-.4 1.1-.5 1.7-.8 0 .6 0 1.1-.2 1.6-1 2.6-2 5.1-2.8 7.8-.2.5.8 1.4 1.6 1.8zM197.4 917.7l-1.1 9c-.2 2.2.6 1.7 1.7.6.5-.4 1.3-.8 2-.8h5.6l-3.8 2.9a4 4 0 01-2 .8c-2 0-4.5.6-5.9-.3-1-.7-1.3-3.5-1.1-5.3.4-3.2 1.4-6.5 2.3-9.6.2-.8 1.3-1.3 2-1.9 0 .8.2 1.5.3 2.2v2.4zM219.2 118.3c3.6-1.7 7-1.2 8.7 1 .3.5.5 1.1.4 1.6-.4 3-5.6 7-8.8 6.7-2.7-.3-4-2.4-3-5.2.5-1.4 1.6-2.5 2.7-4zm1.4 2.1c.5 1.5-2.9 2.5-.6 4 1.8 1.3 2.2-1 3.1-1.8.8-.6 1.2-1.8 1.7-2.8-1.2 0-2.4 0-4.2.6zM198.6 86c0-4.1 3.2-2.3 4.8-3.4 1.6-1.2 4.6.3 7 0 2.1-.4 2.8 1.8 2.5 3.7-.2 1-.8 2-1.2 3l-1 2-1-2.8c0-.2.8-.6.8-.8-.2-1-.6-2-1-3l-1.4 1.9-.9.8-2 2-.6-2.5c0-.7.3-1.5.5-2.2-.8.5-1.8.7-2.4 1.4-.7.8-1.2 1.8-1.7 2.8-.4 1 1 3.2-1.5 2.8-.4 0-.6-2.2-.9-3.4v-2.4zM257.8 35.6c2.8-.3.6 2.4 2.4 3.1 1.4.7 2.3 1.8 2.7-.6v-1.2l1.8-3.3c.6 1.4 2 3 1.6 4-1.3 3.4-1 6.8-1 10.2 0 .4-.6.8-1 1.2-.4-.4-1.3-.8-1.3-1.2-.3-1.2.3-2.6-.2-3.5-.4-.9 3.5-2.5-.4-2.4-1.4 0-3.3-.8-3.2 2 .1 1.3-.6 2.6-1 4-2.7-1-1-3-1.2-4.5-.1-2.5.3-5 .8-7.8zM287.6 878.2c-3-2.1-3.6-5.2-3.3-8.5 0-.6-.5-1.2-.7-1.8-.6.5-1.4 1-1.6 1.7-.6 2-.8 4-1.3 6-.2.6-1 1.2-1.6 1.6-.3.2-1-.1-1.6-.2l.6-1.3c.9-3 1.7-6 2.7-8.9.4-1.3 1-2.8 2-3.8 1.4-1.6 3.6-.9 3.9 1.2.5 4.5.8 9.1.9 14zM122.5 74v-8.9c0-.6 1-1.1 1.6-1.7.3.6.6 1.2.7 1.9V67l1.2 2.2 1.2-2.1 1.5-2.4c.4.6.8 1.3 1.3 1.8l1.2-.7 2.9-1c-.3.9-.5 2-1 2.9l-1.8 4c-.7 1.7-1 3-2.2 0-.7-2-2-1-2.8.3-.5.9-.4 2.2-1 3.1-1.3 2.3-2 0-2.8-1.2zM33 29.7c-.8.3-1.2.3-1.6.3-5 0-5 0-5.4 5 0 .7-.7 1.4-1.1 2.1-.4-.7-1-1.3-1.2-2l-1.1-12.8c0-.6.5-1.2.7-1.8.6.6 1.2 1 1.6 1.7l.4 1.6 1.2-.8c.4-.4.4-1 .8-1.5l2.1-1.8c0 1 0 2.2-.4 3.2-.3.6-1.4 1-1.6 1.7-.2 1.3-1 3 1.8 3.1 1.4 0 2.7 1.1 3.7 2zM177.2 160.9h3.6c.4-.1 1-.6 1.1-1 0-.4-.3-1.2-.6-1.3-1.2-.6-2.5-.8-3.6-1.4-3.5-2.2-3.4-4.8.2-7 .6-.4 1.3-.9 2-.8 1 0 1.9.6 2.8 1l-1.6 1.2-1.9 1c-1.2.9-1.4 1.7.3 2.4 1.2.4 2.8.7 3.4 1.6a7.9 7.9 0 011.3 4.7c0 .7-2 1.7-3 1.9-2 .3-4 .2-6-.2-.8-.1-2.3-1.7-2.2-2 1-1.6 2.3-1.9 4.2-.1zM129.3 826.4c-4.3-2.1-4.3-2.1-4.4 1.3 0 1.6.1 3.2-.1 4.7-.2.7-1.3 1.3-1.9 1.9-.3-.9-1.8-.8-1-2.6 1.2-2.5 1-5.5 1.5-8.3.3-1.7.5-2.8 3-1.4 2.2 1.3 5.1 1.4 5.6 4.7.5 3.6-1.2 6.3-3.8 8.4-.4.4-1.3.1-2 .1 0-.5-.2-1.4.1-1.6 2.4-1.7 2.2-4.6 3-7.2zM163.8 154.6c.5-1.6.3-3 .8-4.2.3-.7 1.5-1 2.3-1.4l.8 1.9 2.9 11.2c.1.6-.5 1.3-.8 2l-1-1.3c-.3-.8-.6-1.7-1.1-2.4-.3-.4-1-.7-1.4-.6-.4 0-.8.6-1 1-.1.6.2 1.4 0 1.8-.5.7-1.4 1-2 1.6-.6-.8-1.6-1.6-1.5-2.3.4-2.4 1.1-4.7 2-7.3zm1.5 2.1l.7.5c0-.4 0-.7-.7-.5zM196.5 27.3c-.6-2-1-5.4-1.2-5.4-3.1 0-2.6 2.6-2.7 4.7 0 .4-.7 1-1 1-.5 0-1.2-.5-1.2-.9-.5-5 1.3-9.5 3.5-13.9.2-.3 2.2-.2 2.3 0 .9 4.4 1.7 8.8 2.3 13.3.1.4-1 1-2 1.2zM180.8 788c-.8 1-1.1 1.8-1.2 2.7-.1 2.6 1 2.6 2.7 1.2.5-.4 1.3-.6 2-.8l1.2-.1c0 .4.2.8 0 1.1-1.6 2.8-6 3.6-8 1.5-.8-.8-2-1.4-.4-2.6.4-.3 0-1.5.1-2.2.4-2 .1-5.1 1.3-5.8 2.2-1.4 5.2-1.6 8-2 .3-.1 1 .7 1.4 1-.5.5-1 1-1.5 1.2l-6 1.3c-.4 0-.9 1.1-.8 1.2.5.5 1.4 1.2 1.6 1 1.4-1 3.8-2 4.1-.1.5 3-2.7.5-4.5 1.4zM155.8 125.2c.3-.9.7-1.1.8-1.5 0-.2-.4-.6-.7-.9l-4 4.4c-.5.6-1 1-1.6 1.4-.2-.8-.5-1.5-.4-2.2.2-3.6 4.2-6.7 7.6-6 1.5.4 2.9 1.1 4.3 1.1 1.7.1 2.6.4 2.3 2.3 0 1 .2 2 0 3-.3 1-1 2-1.5 2.9l-.8-2.7c-.2-.6 0-1.2-.1-1.8-.1-.4-.5-1-1-1.1-.3-.1-1 .2-1.3.6-.5 1-.7 2.1-1.3 3-.5.8-1.8 1.9-2.1 1.7-1.7-1-2-2.3-.2-4.2zM46.6 19.6c1.3-.3 2.3-.3 3.2-.3 2-.1 4.1-.3 4.8 2.1.6 2.3-.1 4.7-2.3 5.4-3 1-4.3 2.3-3.7 5.5.1.3-.4 1.1-.7 1.2-.5.1-1.5-.3-1.5-.5-.7-4.4-3-8.7.2-13.4zm2 6.2c1-.5 2-1 3-1.7.6-.5 1.1-1.3 1.7-2-1.1-.2-2.6-.8-3.2-.3-1 .7-1.4 2.2-1.4 4zM173.3 787.7c-1.2-1.6-2.6-4.5-4.8-3-1.3.8-1.4 3.6-2 5.5-.2.7.2 1.6 0 2.3-.2.6-.9 1-1.3 1.5-.4-.4-1-.8-1-1.1.3-3 .3-6.2 1.2-9 1-2.8 4.3-2.4 6.2-1.6 1.8.8 4.5 4 4.1 4.8-1.1 2.6-3.6 4.7-5.7 6.8-.5.5-1.4.5-2.2.8.2-.7.2-1.6.7-2 1.4-1.7 3-3.1 4.8-5zM93.6 41l1.2 2c.5-.3 1.5-.8 1.4-1.2-.2-1.2-.9-2.4-1-3.7 0-.5.8-1.2 1.3-1.8.3.4.6.9 1 1.2 2.5 2 .3 4 0 6.1l-.9 5.4c-1.3-1.4-2.7-2.8-3.8-4.4-.9-1.1-1.3-2.6-2-3.9 0 1.6-.3 3-.4 4.6l-.1 3c0 .3-.8.6-1.3.7-.3 0-1-.3-1-.5.1-2.9 0-5.8.4-8.7.1-1 1.6-1.7 2.4-2.5l2.8 3.7zM216.2 785.3c2-1.7 3-4.4 6.5-2.6 2.7 1.4 3.6 3 3.3 5.7-.3 3-3 6.4-5.1 6.8-2.4.3-5.4-1.5-5.5-4-.2-1.8.3-3.7.8-5.9zm4.4-.9c-1.3 1.6-3.7 2.6-2.9 5.3.3 1 .8 2.3 1.6 2.7.6.3 2-.4 2.8-1.1 2.2-2.2 2.1-3.4-1.5-6.9zM32 824.9c0 6-4.5 8.2-7.5 11.6-.3.2-1.8-.2-2.3-.7-1-1-2.9-1.4-1.7-3.7 1-1.9 1.3-4.2 2-6.2 1.2-3.5 3.1-4.5 6.7-3.3 1 .3 1.9 1.1 2.8 2.3zm-6 7.7l3.9-6c.4-.8 1.6-1.2-.3-1.8-1.8-.6-3.1-2.3-4 1-.5 2.3-1.9 4.4-2.7 6.6-.3.5 0 1.3.1 2 .9-.4 1.7-.8 3-1.8zM176.3 126.7c-.7.7-1 1.4-1.5 1.5-3.1.6-5.6 1.6-4.8 5.6 0 .5-1.2 1.4-1.8 2l-.5-2c-.7-3.5.1-7 .1-10.3 0-.9 1.4-1.7 2.3-2.5 2.2-2 3.9.4 5.6 1 1.6.7 2.4 2.5.6 4.7zm-6.2-1c.8.3 1.8.8 2.5.6.8-.3 1.9-1.8 1.8-2-.7-1-1.6-2.4-3.1-1-.4.5-.8.9-1.2 2.5zM121.3 854.7c0-1.4-.4-2.6 0-3 2.4-2.2.7-3.1-1-4.2-1.4-.8-2.7-1.7-3.5-2.9-.5-.6.2-2 .4-3 1.1.2 2.6-.8 3 1.6.6 2.7 2.7 2.7 4.7.3.9-1.1 2.1-2 3.2-2.8-.2 1.6 0 3.3-.7 4.7-1.5 3.3-3.5 6.4-4.1 10.1 0 .5-1 1-1.6 1.3-.1-.5-.3-1-.4-2.1zM320.9 880.5c-.9 0-2-.4-2-.6.2-1 .7-2 1-3.1.9-4 4.5-8.4-1.7-11.4-.2-.2-.2-.6-.3-.9.5 0 1.1-.4 1.6-.3 1.6.6 3.3 2 4.8 2 .8-.1 1.4-2.8 2.1-4.2.1-.2 1-.3 1-.2.4.6 1 1.4.8 1.8l-6.6 15-.7 2zM25.8 878.2c-.8.4-1.4.6-2 .6-2.4 0-5.8 1-7.3-.3-2.1-1.7-1.8-5.1 0-7.7 1-1.4 1.9-2.9 3-4.1.6-.7 2.1-1.4 2.3-1.3.8 1 1.3 2.2 1.8 3.3.1.1-.6.9-1 .9-3.2.2-5.8 3.6-4.8 6.5.2.6 1.5 1.2 2.1 1 2.3-.5 4.5-1.4 6.8-2.2l1.6-.7c-.2.6-.2 1.4-.6 2-.4.6-1 1.1-2 2zM232.2 39.2c.1 3 0 5.8-.3 8.4-.1.9-1 1.6-1.5 2.4-.3-.7-.7-1.4-.8-2.2V45c-.3-1.1 1-3.3-1.5-2.9-1.2.2-2.3 1.4-3.2 2.5-.4.4 0 1.5-.1 2.3-.1.4-.7 1-1 1-.5 0-1.3-.5-1.3-.8.4-3.5.8-7 1.4-10.6 0-.1 1.6-.3 1.9 0 .8 1-.8 3.7 2 3 1-.2 1.6-1.6 2.5-2.4.4-.3 1-.3 1.6-.5 0 .8 0 1.6.3 2.7zM208.2 871.3c.6-1.7 1.1-3.4 2-3.7 2-.7 4-.5 6-.7-1.1.7-2.4 1.2-3.4 2-1.6 1.5-3.6 3-1.1 5.4.2.2-.1 1 0 1.2 1.8 1.6 2 4 .6 5-1.7 1.5-4.3 2.6-6.6.3-.8-.7-1.9-1.2-2.6-2.1-.4-.6-.4-1.6-.5-2.4.7.1 1.4.1 2 .4 1.1.6 2.2 1.5 3.3 2 .5.3 1.3.3 1.6 0 .3-.2.4-1 .3-1.5l-1.7-5.9zM72.8 921.6c2-.6 5-1.4 5.3-1 1.3 3-2.8 1.6-3.3 3.6-.3.8-2.1 1.3-3.3 1.8-2.5 1.2-5.4-.6-4.9-3.2.7-4 1.7-8 2.7-11.9.1-.5 1-.9 1.6-1.3.1.5.4 1 .4 1.5l-1.1 11.3c0 .4.9.9 1.4 1.3l1.2-2.1zM248.6 155v-3.6c.2-.8.6-1.6 1-2.4.6.7 1.8 1.6 1.8 2.2-.6 4.2.5 9-3.5 12.1-.5.4-1.6.4-2 0-2.5-1.8-4.3-10.2-3-12.7.1-.2.7-.5 1-.4.4.2 1 .6 1 1 .6 2.3 1 4.7 1.3 7.1l.7 2.5c.6-.8 1.4-1.5 1.6-2.3.3-1 .1-2 .1-3.6zM161.4 111.8c-3.3.8-6-.3-6.6-3.2-.6-2.5-1.2-5.8 1.9-7.4 1.3-.7 3.2-.8 4.7-.5 1 .2.3 4-1 5-.7.5-1.6.5-2 1-.5.4-2.2 1-.6 2 .7.4 2 1 2.3.7 1.6-1.2 2.7-3 5-1.7l-3.7 4.1zm-2.6-9.2l-.5.7c.3 0 .7 0 .5-.7zM231.7 781.2c2.1.5 4 .6 6 .9.4 0 .9.4 1.4.6-.5.4-.8 1-1.3 1.2l-7 1.3 6.5 1.6c-.2.4-.4 1-.7 1.2-3.3.8-7 1.1-7 6 0 .3-.6.6-.8 1-.3-.3-.7-.6-.9-1-.3-.6-.7-1.3-.7-2 .3-2.8.5-5.6 1.3-8.3.3-1.1 1.9-1.9 3.2-2.5zM143.6 89.2c.3-1.7 0-3.1.4-4.4.2-1.3.8-3 1.6-3.4 1.2-.4 3 .1 4.3.5.7.2 1.2 1 1.7 1.7.8 1 2.4 1.4 1.3 3.7-1 2.2-2.5 2.7-3.9 2-3.3-1.5-3.2 1.3-3.9 2.8-.6 1.4-.8 3-1.1 4.5-2.7-1-.8-3.3-1.2-5-.2-.6.3-1.4.8-2.4zm5-5c-1.5-1.2-2.2-1-2.4 1-.1 2.9 2 1.7 3.2 1.9 1.5.2 2-.6 1.4-2-.2-.3-1-.2-2.1-1zM126 111c-.8-.4-2.2-.7-2.2-1 0-2 0-4.2.6-6.2.4-1.7 1.5-3.1 2.4-4.6.1 1.5.2 3 .5 4.5 0 .3 1 .7 1 .6 1.3-1.3 3.3-3 4.4-1.3 1 1.5 1 4.4.2 6.1-.8 1.7-3 2.7-4.8 3.8-.3.2-1.4-.9-1.8-1.7l5.2-5.1.2-.8c-.3-.2-.9-.4-1-.3-2 1.6-4.7 2.7-4.7 6zM225.7 919.8c-.9 3.4-1.5 6.5-2.1 9.6 0 .5-.5.9-.7 1.3-.4-.4-1.2-.8-1.2-1.3 0-2 0-4 .4-6 .3-1.7 1.3-3.5-1.9-3.4-.4 0-.9-.8-1.3-1.3.3-.3.6-.8 1-1l11-2.3c.2 0 1 .6 1 1s-.4 1.1-.7 1.3c-1.7.7-3.5 1.2-5.5 2.1zM142.7 128.8c.2-1.6.5-2.5.7-3.5l-2.4 1c-1.5.5-1.6 3.7-4.2 2-3-2-.2-4 0-6.1 0-.5.8-.9 1.2-1.2l2.1-1.4.2 2.3c0 .7-.3 1.4-.4 2.1.6-.3 1.4-.5 2-1 1-1 2-2.2 3.3-3.1.3-.2 2 .8 2 .9l-3.7 10.1-.8-1v-1.1zM231 871c.3-3.2 1.8-5.5 4.8-6.4.8-.2 1.8.6 2.8.9l-1.5 1.2c-.8.5-1.7.8-2.4 1.3-1.3 1-2.5 2-.6 3.8 1 1 2.1 2.3 2.4 3.7.3 1.3.1 3.3-.7 4.2-.9 1-2.8 1.2-4.2 1-1.2 0-2.4-1-3.3-1.9-.6-.5-.6-1.6-.9-2.4.7 0 1.4 0 2 .2l4.5 1.6-1.7-4.9-1.1-2.3zM189.1 121.6c-.4 1.2-1 1.9-1.1 2.5 0 1.1.3 2.3.6 3.4l-7.3 1.2c0-.8-.2-1.9.2-2.4 1.7-2 3.7-3.6 5.4-5.5.5-.6.5-1.6.7-2.4-.9-.1-1.9-.3-2.8-.2-.4 0-.7 1-1.2 1.2-.8.4-1.7.5-2.5.8.4-1 .4-2.4 1-2.8 2-1.2 4.3-2.7 6.3-1.5 1 .6 3.5 3 .7 5.7zM152.5 827l-1.7-2c-2.1 1-4.3 7-3.2 9 1.3 2.2 3.5 2 5.6 1.2 1-.5 2.1-1.7 2.5.2 0 .7-1 2.2-2 2.5-5 1.8-9-1.1-8.5-6.5.2-2 1.8-4 2.2-6 .6-3 2.8-3.4 4.7-2.7 2.2.7 1.5 2.9.4 4.3z"/>
  <path fill="#00EBAB" d="M159 164.8c.6.5.9.9 1.2 1l2.6 1.8c-1.3.1-3 .9-3.9.3a12.2 12.2 0 01-4.2-4.7c-2.3-5-2-10.4 0-15.5.3-1 1.4-1.6 2.3-2.2.4-.3 1.2 0 1.8 0-.2.5-.2 1.1-.6 1.6-3.7 5.5-3.5 12 .9 17.7zM220.3 150.5c-2.8.9-5.3 1.4-7.8 2.1-.4.1-.4 1.2-.6 1.9.5.1 1 .5 1.5.4.5-.2.9-1 1.3-1 1.8 0 3.5.1 5.2.3-.7 2.1-2.7 1.5-4.1 2.2-1.6.7-2.8 2.2-4 3.5-.5.5-.7 1.2-1 1.8-.5-.8-1.4-1.6-1.4-2.4.1-1.6 1-3.2 1-4.8.5-4.2 1.6-5.4 5.4-5.5 1.7 0 3.5.2 5.2.4 0 0 .1.3 0 .4l-.7.7zM258.1 19.3c-.6-4 2.3-5.4 4.3-7 1.3-1 3.8 0 4 2 .1 2.3-.4 4.8-1.3 7-.6 1.5-2.6 3.9-3.5 3.7-2.1-.5-4-2.3-3.5-5.7zm4.2 3.6c.3-1.1.6-2.1.7-3.2.3-1.7.4-3.4.5-5.1-1 1.4-2.3 2.8-2.9 4.5-.4 1 .3 2.5 1.7 3.8zM239.4 871.6c1.3-1.7 2-3.5 3.3-4.3 1.2-.7 3.3-.6 4.7 0 1.6.6 1.7 2.3.7 4-.7 1.2-1.4 2.6-1.6 4-.5 2.7-2.1 3.4-4.6 3.2-3-.4-2.8-2.6-2.8-4.8 0-.6 0-1.2.3-2zm4.4 3.9l1.7-4c.2-.8.2-1.7.2-2.5-.8.4-1.7.5-2.4 1-2.6 2.5-2.6 4 .5 5.5zM316.4 37.1c-1.4.4-2.2.8-3 1.3-2.1 1.4-1.7 2.6.5 3.5h.5c1.7 1.5 4.2 2.7 3 5.6-.9 2-3.3 2-6.6.3-.6-.3-1-1.2-1.5-1.7.7-.2 1.4-.6 2.1-.6.5 0 1 .6 1.5.6l2.3-.2c-.5-.6-1-1.3-1.7-1.6-3.2-1.3-5-3.4-4.2-5.3.9-2.3 5.4-4.9 7.6-4.2.3.1.1 1.5-.5 2.3zM241.5 45.5l-.4-7c-.9 2-1.6 3.9-2.6 5.7-.7 1.2-2.3 3.2-2.8 3-3.2-1.3-.4-3.2 0-4.7.5-2.3 1.6-4.5 2.9-6.5.4-.7 2-1 3-1.1.3 0 .9 1.3 1 2 .5 2.9 1 5.7 1.2 8.5 0 1.8-1.2 1.5-2.3 0zM236.7 159.7c-.3-2.6.7-4.7-1-6.8-.6-.7.4-2.8.8-4.2 0-.1 1.2-.2 1.3 0 1 1.7 1.9 11 1.3 12.7-.3 1-.5 2.9-.9 3-1.7 0-3.4-.2-5-.6-.9-.3-1.7-1.2-2.1-2-.4-.9-.2-2-.2-2.8l2.1 1.2 2.9 1.6c.3-.5.5-1 .8-2.1zM166.5 830.9c.6 3.2-1.3 4.7-3 5.7-2.3 1.5-5-.2-5.3-3-.3-2.8.5-5.3 2.7-7.1 1-.8 2.3-1.6 3.4-1.5 1.6.3 2.5 1.7 2.2 3.5v2.4zm-6 .5l1 3c.8-.6 2.4-1.2 2.5-2 .3-1.6-.2-3.3-.4-5l-3 4zM65.6 19.6c2.4-.2 4.3-1.6 6.4-.2 2.3 1.5 2.6 5.9 0 6.8-2.9 1-4.7 2.5-5.5 5.3 0 0-1 0-1.1-.2-.5-1-1.5-2.5-1.1-3 2.2-2.6.5-5.6 1.3-8.7zm5.7 3.8c-.3-3.4-2.3-1.7-3.6-1-.6.3-.7 1.5-1 2.4l2.8-.7c.4-.1.8 0 1.8-.7zM202.2 14.5c1.3-1.2 2.6-2 4-2.3 1.4-.1 4 .3 4.1.7.4 2.9-2 1.2-3.2 1.6-3.1 1-3.7 3.1-1.8 6.1.7 1 1.4 2.3 1.6 3.5.1 1-.5 3.3-.9 3.3-1.4.1-2.9-.3-4.2-.9-.4-.2-.5-1.3-.7-2 .5.3 1 .6 1.7.7.5 0 1.2 0 1.5-.4.3-.3.3-1.1 0-1.5-1-2-2.3-3.8-3.1-5.8-.3-.5.6-1.6 1-3zM282.2 39.8c.7-1.1 1-2 1.6-2.7 1.1-1.3 2-2.4 3 .5 1 2.5 3 4.6 4.3 7 .3.6-.7 1.9-1 2.8-.4-.5-1-1-1.2-1.6-2-3.7-3.2-3.7-5.8-.4l-1.4 1.3c-.3-.6-1-1.3-.9-1.8a25 25 0 011.4-5zM146.6 872.2c0-2-.3-4.3.7-5.5.8-1 3-1 4.7-1.3.4 0 1 .8 1.4 1.2-.3.4-.6 1-1 1.1-4.6 1.5-4.6 1.7-2.1 6 .8 1.4 3.4 3 .9 5.2-2.2 1.8-5.7.8-7.3-2.1l-.8-1.7 2 .4 3.3 1.4-1-3.5c0-.3-.3-.6-.8-1.2zM193.9 127.6c-3.2-3.7-1.8-9.6 2.1-10.7 1.1-.3 3.3 0 3.7.7a8 8 0 01.7 5c-.6 3-3 4.5-6.5 5zm2.3-3c1.8-1.5 1.5-3.3.8-5.2-1 1.3-2.1 2.4-2.9 3.8-.8 1.4 0 2.2 2.2 1.4zM206.7 119a19 19 0 01-3.2 1c.2-1.2-1.1-2.7 1.2-3.2 1.5-.3 2.9-2.1 4.6-.6 2.2 2 1.3 4.2.8 6.4 0 .3.9 1.4 1.4 1.8l1.2 1.2-1 .8c-1.3.4-2.5 1.1-3.7 1-1.4 0-2.8-.7-4.2-1.2l2-2.9 3-3c-.6-.5-1.2-1-2.1-1.4zM244.7 827c-.4 1-.5 1.6-.6 2.3.7 0 1.8.1 2-.2 1-2.3 1.6-4.8 2.6-7.2.3-.7 1-1.1 1.6-1.7.2.7.7 1.4.6 2-.7 4.5-2.9 8.4-6 11.7-.3.3-2.1-.2-2.1-.3 0-3.2-2.4-6.5 0-9.7.4-.7 1.7-1.5 2.4-1.3 2.4.7-1 1.4-.2 2.3.3.4 0 1.2-.3 2zM199.8 902.5c1 .1 2 .5 3 .9-.1-1-.3-2-.6-2.9-2-6-.2-10.1 5.5-12.6.6-.3 1.7-.4 2 0 1.6 1.7-.5.9-.8 1.3-1.7 1.8-3.8 3.6-4.5 5.8-.7 1.7 0 4.3.8 6 1.4 2.4-.7 4.3-1.5 4.6-1.8.8-3.7-.2-3.9-3zM159.7 857.3c-.3 3.8-3 1.6-4.2 2-.5 0-1.4-1.6-2-2.4.6-.2 1.3-.7 2-.7.8 0 1.6.3 2.4.5l-.7-2.5-1.4-5.9c-.7-2.7 1.5-3.6 3.2-4.2.9-.4 2.3.8 3.5 1.2-.7.3-1.6.6-2.2 1-1.4 1-2.8 1.5-1.4 4 .9 1.7 3 4.2.8 7zM319.7 152.3l1.1-.7c.2 3.3.4 6.6.3 9.9 0 .6-1 1.1-1.6 1.7-.2-.7-.6-1.3-.7-1.9 0-.8.2-1.7 0-2.3-.4-1-1.2-2-1.8-2.9-1 .8-2 1.4-2.9 2.3-.4.4 0 1.5-.4 2.1-.3.6-1 1-1.6 1.4-.1-.5-.4-1-.4-1.6.2-1.8.3-3.8.8-5.5.6-2 .8-1.9 2.8-.4 2.5 1.8 2.7-1.3 4.4-2.1zM12.7 835.3c-2.7.7-2.3-1.3-2-2.3.6-2.3 1.7-4.4 2.6-6.6l.5-1.3c-.5 0-1-.1-1.6 0-.8.2-1.6.7-2.5 1l-1-.2c0-.4.2-.9.4-1.2 1.6-2.5 4.5-2.4 6.9-3.3 1.1-.4 2.6.2 4 .3-1 .7-2.1 1.2-2.9 2.1a11 11 0 00-1.7 3.4c-.9 2.6-1.6 5.2-2.7 8.1zM315.2 860.6c1.2.5 1.8 1 2.4 1.5-4 1-3.1 5-4.6 7.4-.8 1.4-.8 3.2-1.4 4.8-.2.7-1 1.2-1.4 1.8-.3-.8-1-1.7-.8-2.4.3-2.4.6-5 1.7-7 1.3-2.5.2-2.5-1.7-2.6-.4 0-.9-.9-1.3-1.3.6-.4 1.1-.8 1.7-1a50 50 0 015.4-1.2zM177.5 86.2c1.4-1.8 2.3-3.6 3.7-4.7.9-.6 2.7-.5 3.8 0 .5.2.7 2.1.4 3-.2.7-1.6 1-2.5 1.4-.6.3-1.5.2-2 .6-.5.3-1 1.2-.8 1.6.2.5 1 1 1.6 1 .8 0 1.7-.6 2.6-.7.1 0 .7.9.6 1-1.9 3-4.1 3.4-6.4.7-.8-1-.9-2.4-1-3.9zM48.7 786.8c-.8 2.7-1.6 4.7-2.4 6.8l-.5 1.5c-.3-.5-.6-1-.6-1.4l-.1-3c-.2-1-.8-1.8-1.2-2.7-.8.8-1.7 1.4-2.3 2.3-.4.5 0 1.5-.4 2.2-.3.5-1 .8-1.6 1.3-.2-.6-.5-1.2-.4-1.7.5-2.1 1-4.3 1.8-6.3.2-.6 2.2-1.2 2.7-.9 2.2 2 2.3.2 3-1.3.2-.6 1-1 1.6-1.4l.4 2.3v2.3zM80 865.7c.6-.3 1.1-.5 1.4-.3 1.4.9 2.6 2.2 4 2.7 2.2.7 1.6-2.8 3.5-2.7.4 0 .8 0 1 .2.2 0 0 .6 0 .8l-5.6 13.8-1.5-.4c0-1.4-.3-2.9.2-4 1.4-3 .7-5.4-1.3-7.7-.6-.8-1.4-1.4-1.8-2.4zM153.7 782.4c1.2-.2 2.7-.4 3 .1.9 1.4-.5 1.5-1.5 2.1-2.8 1.9-3 4.2-.9 7.3 1.4 2 .9 3.3-1.6 3.2-1.6 0-3.3-.6-4.7-1.3-.8-.5-1.2-1.8-1.7-2.8.9.2 1.9.3 2.8.6l1.7.8c0-.5.4-1.3.2-1.6-2.5-3.7.2-5.9 2.7-8.4zM128.1 867.4c-3.2 0-4.6 1.2-4.5 4.3.2 2.7.1 5.5 0 8.2 0 .3-.7.9-1.1.9-.4 0-1.1-.5-1.2-.9a177 177 0 01-1-11.4c0-.6 1-1.5 1.7-1.9 2-1 4-1.8 6-2.3.8-.2 1.9.6 2.8 1l-2.7 2.1zM48.4 828.2c-1.3-1.2-2.8-2-4.3-2.8 1.2-2.1 3.3-1.7 5.2-1.7h4.1c1.2 0 2.3.3 3.4.4-1 .7-2 1.9-2.9 1.9-5.3 0-3.1 5.1-5.2 7.3-.3.4 0 1.5 0 2.3 0 .4-.3.7-.4 1-.4-.3-1.1-.5-1.2-.9-.4-1-.8-2.2-.6-3.2.3-1.4 1-2.7 1.9-4.3zM248.6 46.7a6 6 0 01-2.2-1.7l-1-1.7c.6 0 1.1-.1 1.6 0l2.5.7c0-1 .3-1.9.2-2.8-.2-1.2-1-2.5-1-3.7 0-1 1-2.5 1.8-2.6 1.6-.3 3.4.1 5.1.4 0 0 0 1-.2 1.5 0 .2-.6.3-1 .3-4.7 0-2.6 2.5-1.8 4.7 1.5 3.4 1 4-4 4.9zM55.8 25.2c0-1.4-.3-2.3 0-2.9.8-1.1 1.9-2.8 2.8-2.8 1.3 0 2.8 1.1 3.7 2.2 1.7 2.1 0 7.5-2.6 8.2-1 .3-3 .4-3.3-.2-.7-1-.4-2.5-.6-4.5zm4.2 1.2V23c-.5 0-1.2 0-1.5.3-.7.8-.3 2.5 1.5 3.2zM254.9 827.6c1.2-5.2 2-6.2 6.3-6.2 1.3 0 2.6.2 3.9.4l-3.6 1.9c-3.4 1.5-3.7 4.9-4.5 7.8-.3 1 0 2-.1 3 0 .4-.6.7-1 1.1-.4-.4-1.2-.8-1.3-1.3-.1-2.1 0-4.3.3-6.7zM72.5 823.7c.8-.6 2-.9 2.4-.5 2 2.2 3.7 2.5 5.7.2.3-.3.8-.3 1.2-.4.1.3.3.7.2 1l-1.9 4.6-2.9 7c-.1.4-.5.7-.8 1l-1.4-1.7.4-.4c2.4-4.3.7-7.5-3-10.8zM121.6 16c3-.7 5.8-1.1 8.6-1.4.5-.1 1.1.2 1.6.4-.3.4-.6 1.1-.9 1.2-4.7.3-3.6 3.7-3.7 6.5v5.4c0 .6-.4 1.2-.7 1.8-.5-.6-1.5-1.1-1.6-1.7a32 32 0 010-6.5c.3-2.6-.3-4-3.2-3.9-.1 0-.3-1-.1-1.8zM191.5 835.6c-.7-2.2-1.6-4.8-.8-6.7 1.2-3 1.4-4.3-2.4-4-.5 0-1-.4-1.5-.5.5-.6 1-1.6 1.6-1.6 3-.2 6.2-.3 9.4-.2.3 0 .7.7.8 1.2 0 .3-.3 1-.4 1-6.6-.1-5 5-5.5 8.7-.1.7-.4 1.4-1.2 2.1zM92.4 893c-2 2.4-.5 5-.8 7.5-.2 1.1 0 2.3-.1 3.5-.2 1 1 3.3-1.4 2.8-.9-.1-2.3-2.6-2-3.3 2.2-4.5.5-9.2 1-13.7.2-.7.5-1.4.9-2 .1-.4.5-.6.8-.9.2.4.6.8.7 1.2.3 1.5.4 3 1 5zM270 65.7c-2 1.8-3.4 3.6-4.7 5.4-.4.4-.6 1-.9 1.5-.4-.4-1.1-.8-1.2-1.3 0-2.2 0-4.5.3-6.7 0-.4 1.4-2.7 1.8.2 0 0 1 .2 1.4 0 2.3-1.2 4.4-2.7 6.7-3.8.6-.3 1.7.4 2.6.6-.6.6-1 1.2-1.7 1.7-1.2.9-2.4 1.6-4.3 2.4zM65.6 45.8c-.1 2.6-.6 4.7-3.6 4.4-2.6-.3-2.7-2.2-2.6-4.3 0-1.2-.4-2.5.1-3.5a5.8 5.8 0 012.8-2.8c1.2-.4 3.2-.7 3.2 1.8 0 1.4.3 2.7.1 4.4zm-1.4-2.1l-1.5-1.8c-.3 1.6-.7 3.1-.9 4.7 0 .3.5.7.7 1l.5-.9c.4-.6.8-1.2 1.2-3zM218.9 102.6c1.2-.8 1.6-1.6 2.4-2.2.7-.6 1.7-1 2.5-1.4.3.8 1 1.5 1 2.3v7.7c0 .6-.5 1.2-.8 1.7-.5-.5-1.5-1.2-1.5-1.7.2-2 .8-4 1-6 .2-.5-.2-1-.4-1.6-.4.4-1 .7-1.3 1.2L218 110c-.2.4-.5.6-.8.9-.2-.4-.6-.8-.7-1.2a8 8 0 012.4-7zM192.4 90.4c-.5-2-1.7-3.5-2-5.3-.5-2.6.7-3.9 3.4-3.9.8 0 1.6.6 2.4.9l-1.8 1.5c-1.2 1.2-2.9 2.3-.6 4.1 1.9 1.4 2 4 .7 5-1.1.8-3.6 0-5.4-.4-.5-.1-.7-1.5-1-2.3l2.4.3c.5 0 1 .2 1.9 0zM184.3 37.1c-2.2 1.1-4.3 1.6-3.6 4.9.5 2.2-.3 4.3-2.2 5.8h-.5c-.1-2-.7-4-.1-5.8.6-1.8.9-2.4-1.3-2.6-.6 0-1.1-1-1.7-1.6.8-.4 1.5-1.1 2.3-1.2 2.4-.1 4.8 0 7.2.5zM161.7 25.2c-1 1.5-2.1 1.8-2.3 0-.2-1.6 0-3.2 0-4.7v-3c-.4-1.4-4.1-2.3-1.8-3.8 1.7-1.2 4.9-.2 7.4-.1l-.1 2c-4.5-.5-3 2.8-3.1 5v4.6zM143.9 102.6v3.5c0 .5.6.8.9 1.2.5-.4 1.2-.7 1.4-1.2.9-1.5 1.5-3.1 2.3-4.7 0 0 1 0 1 .3.7 2.1.4 3.9-1.3 5.7-1.4 1.4-1.7 4.4-4.3 3.4-2.6-1-2.4-3.8-2.4-6.3 0-1.6.4-2.8 2.4-2zM152.2 37.1c.6-1.1 1.1-1.7 1.7-2.2.2.6.6 1.2.7 1.8v4.7c0 1.3.3 2.6.5 4 1-.7 2.1-1.4 3.3-1.9.5-.2 1.3 0 2 0 0 .5.2 1.3-.1 1.6-1.4 1.3-2.3 3-4.8 2.8-2-.2-3.2-1-3.3-3V37zM193.9 902.3c.6-4.2-1.4-8 1.1-11.4.7-.9 1.2-1.9 1.8-2.8.2 1 .7 2 .6 3l-1.2 12.2c0 .4-.4.8-.7 1.2a7.4 7.4 0 01-1.6-2.2zM33.2 783.3L40 781c.3-.1.9.7 1.2 1.2.2.1 0 .8 0 .8-4.8.3-5.4 4.3-6.5 7.8-.4 1-.4 2.5-2 1.7-.5-.3-.6-1.8-.5-2.7.1-.8.5-1.8 1.2-2.4 2.1-2.1.3-1.7-1-2-1.4-.1-1.4-.3 1-2.2zM115 873.4c-.5 2.2-.6 4-.9 6 0 .5-.4 1-.6 1.4-.4-.4-1-.8-1.2-1.3-.3-1-.6-2.3-.5-3.4.4-4.2 1.4-8.4 4.1-11.9.4-.4 1.1-.5 1.7-.8 0 .6.3 1.3 0 1.8-.5 1.3-1.4 2.5-1.8 4-.4 1.2-.3 2.6-.8 4.2zM269.7 789c.5-3.3-1.7-1.8-3-2.2l-1.4-.6c.4-.4.7-.9 1.2-1.2 1.8-1 4.8-.3 4.9-3.6 0-.2 1-.6 1.5-.5.3.2.7 1 .7 1.4-.5 2.7-1 5.4-1.8 8-.3 1-1.5 1.7-2.3 2.5 0-1.2 0-2.4.2-3.9zM179.6 108.5v-4.1c0-1.4.3-2.7.4-4l.8 3.4c.2.5.6.8 1 1.2.4-.5 1-.9 1.3-1.4.5-.8.6-1.7 1-2.5.2-.4.6-.6.8-.9.2.3.7.7.6 1-.9 3.1-1.6 6.4-2.9 9.4-.2.6-3 1.3-3-2zM307.8 160.6l-2 1v-4-3c-.1-1.4-4.3-1.1-2-2.7 2.2-1.5 5.7-1.1 8.6-1.6-.1.4-.1 1.2-.3 1.2-5.4 1.1-3.9 5.3-4.3 9zM293.8 920.1c-.8.3-1.1.7-1.4.8-.3 0-1-.6-1-.6.6-.8 1-2.1 1.6-2.2 4.2-.9 8-3.5 12.5-2.7l2.6.6c-1 .6-1.9 1.4-2.9 1.7l-6 1.2-5.4 1.2zM41.8 887c1 .1 2 .7 2 .7-2.1 4.4-.6 9.2-1.1 13.8 0 .7-.9 1.3-1.3 2-.4-.6-1-1.2-1-1.8.3-4.8-1-9.7 1.4-14.6zM210.8 101.7c2.2-1 4-1.8 6-2.3.4-.1 1.1.6 1.6 1 .2.1 0 .8 0 .8-4.2 1-4.2 4.8-5.5 7.7-.4.8-1.3 1.2-2 1.8l-.4-2.2c0-2.2 0-4.3.3-6.8zM168.9 930.8c-.4-4.4-.2-8.9 0-13.3 0-.3.4-.6.5-1 .6.6 1.6 1.1 1.6 1.7.2 4.2 1.2 8.7-2.1 12.6zM213 66.6c-1.9 0-3 1-3.7 2.5-.6 1.3-1.2 2.6-2 3.9-.2.4-.7.5-1.2.8l-.3-1v-3c.2-1.4 0-3.5 1-4.2 1.4-1.2 3.6-1.8 5.6-2 .5-.2 2.5 1.3.5 3zM171.3 101.4c-.4 2.4-.7 4.2-1.3 6-.3 1.2 1.4 3.4-1.4 3.3-.4 0-1-2.6-.8-3.9.1-2.8.6-5.6 1.2-8.3.1-.6 1.2-1.1 1.9-1.6l.3 2.1v2.4zM164.4 807.4c.9-1.3 1.6-2.2 2-3.2.3-1.1.3-2.5 2-1.7.4.2.8 2 .4 2.5-1.8 3-3.2 6.2-3.6 9.7 0 .3-.9.7-1.3.6-.4 0-1-.8-1-1.1.4-2.2.8-4.4 1.5-6.8zM169.2 90.4a20 20 0 01-1-4.7c-.1-.5.5-1.1.8-1.7.4.3.8.6 1 1l1.3 2.1 1.4-2 1-1.4c.5-.5 1.2-.8 1.8-1.2 0 .6.4 1.4.1 2l-3.1 6.3c-1.2 2.4-2 .7-3.3-.4zM18 786c-.5 1.7-.6 3.2-1 4.6l-2 4.4c-.3-1.7-1-3.6-.7-5.2.6-2.7 1.8-5.1 2.8-7.7.2-.5.8-.8 1.2-1.2.2.5.6 1 .6 1.5a13 13 0 01-.9 3.5zM142.7 889.2c-.8 3.4-1.6 6.1-2.4 9l-.4 1.5c-.3-.4-.8-.8-.7-1.1.3-3.6-1-7.2 1-10.7.5-.8-.3-2.7 1.6-2.2.5.2.6 1.9.9 3.5zM220 829.7c0 2 .2 3.4 0 4.7-.2.8-1 1.5-1.6 2.3-.3-.8-.7-1.6-.7-2.5 0-3.3 0-6.7.2-10 0-.6 1-1.1 1.6-1.6.2.5.7 1.2.5 1.5-1.1 1.7 2.3 3.3 0 5.6zM11 805l2.7-3.8c0 1.5.4 3 .1 4.4-.5 2.3-1.2 4.5-2 6.7-.3.7-1 1.3-1.5 1.9-.3-.8-.9-1.6-.8-2.4.2-2.2.7-4.3 1.4-6.8zM213 67.2c.1-.3.3-.3.5-.3l5.2-.8-.9 6c-.1.6-.5 1.2-.8 1.8l-.5-2V70c-.3-.7-.9-1.4-1.3-2-.4.5-.8 1-1 1.6-.3.5-.1 1.2-.4 1.6-.4.6-1 1-1.6 1.4-.2-.6-.5-1.1-.4-1.6.2-1.2.7-2.4 1.1-4zM160.6 80c-.5 4.2-.8 7.8-1.4 11.3 0 .7-1 1.2-1.6 1.7-.2-.7-.6-1.4-.6-2 .3-3.4.7-6.8 1.3-10.2 0-.6 1.5-1 2.3-.8zM145 853.5l1.3-7.3c.3-.8 1.1-1.5 1.7-2.2.2.7.7 1.4.6 2-.3 3.4-.6 6.9-1.2 10.2-.1.7-1.2 1.2-1.9 1.8l-.4-2.2v-2.3zM139.4 102.9c-.7 1.9-1 3.5-1.5 5-.3 1.2 1 3.3-1.5 2.8-.5 0-1-2.3-.8-3.4.3-2 1-4 1.7-5.8.5-1 1.6-1.7 2.4-2.5 0 1.2 0 2.4-.3 3.9zM138.8 66.9a37 37 0 01-2 5.4l-1 1.4c-.4-.5-1.4-1.2-1.4-1.7.3-3.1.8-6.3 1.4-9.4 0-.6 1-1.1 1.5-1.7l.6 2.1c.3 1.3.4 2.6 1 3.9zM118.9 924.9l3.4.4c-.4.5-.8 1.5-1.3 1.6a97 97 0 01-8.4 1.5c-.6 0-1.3-.4-2-.6.6-.6 1-1.4 1.7-1.6 2-.6 4-1 6.6-1.3zM290.6 833c.8-3.8 2-7.2 3.3-10.5 0-.4.5-.6.8-.9.5.6 1.4 1.3 1.3 1.6-1.2 3.4-2.6 6.7-4 10 0 .2-.8 0-1.4-.3zM272.4 38.3l-3.3-.4c.5-.6 1-1.7 1.6-1.9 2.3-.6 4.7-1 7-1.2.6 0 1.3.6 1.8.9-.5.5-1 1.2-1.8 1.4-1.5.5-3.1.8-5.3 1.2zM52.6 793.7a15 15 0 01.9-5c.8-2 1.8-3.6 2.9-5.3l1.7.6-4.7 10s-.3 0-.8-.3zM162 786c-.7 2.6-1 5-1.5 7.4 0 .5-.5 1-.8 1.5-.4-.4-1-.7-1.2-1.2-1.3-3 1-8.6 3.8-9.2l.4.3c0 .3-.2.6-.7 1.1zM115.3 897.5c-.6 2.3 1.5 4.8-1.5 6l-.8-5.4c-.1-.4-.2-.9 0-1.2.8-1.3-1.8-3.8 1.4-4 .3 0 .6 2.6 1 4.6zM120 889.2a48 48 0 01-9.7 1.1c-.3 0-.9-.7-.9-1.1 0-.4.6-1.2 1-1.2 3.2.1 6.4.4 9.7 1.2zM82.3 48.7a67 67 0 01-.2-9c0-.5.7-1 1.2-1.3.2-.1 1 .3 1 .4-.4 3.4 1.7 7.3-2 10zM174 109.4c-3.4-3 .3-5.4.2-8 0 0 .9-.2 1 0 .4.4.9 1 .8 1.4-.5 2.3-1.2 4.6-2 6.6zM30.8 804.7c2.7-1 5.3-2.3 8.1-1.2l1.4.6-.9.6c-2.8.2-5.6 2.4-8.6 0zM165.3 84.7c0 1.2.2 1.8 0 2.4l-1.6 3.4c-.2-1.1-.6-2.3-.7-3.4-.2-1 0-2 0-2.9-.4-2.3 1.3-2.1 2.5-1.8 2.2.6-.2 1.1-.2 2.3zM34.1 815c-2.7-3-2.8-6-.5-7.7.3-.2 1 0 1.6-.1-.2.4-.4.8-.4 1.3-.1 2-.3 4.2-.7 6.6zM139.4 66.9c.3-.8.8-1.5 1.4-2.2.6.7 1.4 1.5 1.8 2.4.3.6.3 1.6 0 2.3-.3 1.1-1 2.2-1.6 3.3 0-1 0-2.2-.2-3.3a6 6 0 00-1.4-2.5zM272.7 41l2-1c0 .8.3 1.6 0 2.3-.5 1.5-1.2 3-2 4.3h-1l.7-4.7c0-.2 0-.4.3-.9zM38 22.9c1.5 0 2.5 0 3.3.4.5.2.8 1 1.2 1.5-.5.2-1 .4-1.5.4h-2.3l-3.1.4c.6-1 1.2-1.8 2.4-2.7zM174.8 65.7c.4 2 .3 4.2 0 6.2 0 .4-.8.9-1.2.9-.4 0-1.1-.7-1-.9.4-2 1-4.1 2.2-6.2zM95.1 874.9l2.2.4c-.7 2-2.2 2.2-4 1.9-.3 0-.7-1.2-.5-1.4.4-.4 1.1-.6 2.3-1zM323.9 43.4c1.3 0 2.3.2 3.2.5-.3.5-.6 1.4-1 1.5-1.2.1-2.9.6-2.2-2zM326 38.3c.1.8-.3 1.6-.7 2.4l-2.8-1.6 3.5-.8zM148.4 60.6c-1-.1-1.5-.6-2.1-1l1-1c.4.5.9 1.1 1 2zM85.9 919.2c.9.2 1.5.6 2 1-.3.4-.6.8-1 1-.4-.5-.9-1.1-1-2zM166.5 78.8c-.8.6-1.6.6-2.4.5v-1c.8-.1 1.6-.1 2.4.5zM175.7 61.8c-.4-.3-.6-1-.7-1.6l.7-.2c.1.5.2 1 0 1.8zM174 97c.7-.3 1.2-.2 1.7 0l-.2.7c-.6-.1-1.2-.3-1.6-.8zM199.8 902c-.3 0-.7-.2-1-.4.3 0 .7 0 1 .4z"/>
  <defs>
    <pattern id="pattern0" width="1" height="1" patternContentUnits="objectBoundingBox">
      <use transform="matrix(.00282 0 0 .00154 0 0)" xlink:href="#image0"/>
    </pattern>
    <image id="image0" width="356" height="649" xlink:href="2_whiteoutwednesday1.jpg"/>
  </defs>
</svg>
